<?xml version="1.0" standalone="yes"?>

<svg version="1.1" viewBox="0.0 0.0 719.0 793.0" fill="none" stroke="none" stroke-linecap="square" stroke-miterlimit="10" xmlns="http://www.w3.org/2000/svg" xmlns:xlink="http://www.w3.org/1999/xlink"><clipPath id="p.0"><path d="m0 0l719.0 0l0 793.0l-719.0 0l0 -793.0z" clip-rule="nonzero"></path></clipPath><g clip-path="url(#p.0)"><path fill="#000000" fill-opacity="0.0" d="m0 0l719.73755 0l0 793.0551l-719.73755 0z" fill-rule="nonzero"></path><path fill="#666666" d="m36.314983 399.4541l0 0c0 -176.1571 142.80353 -318.96063 318.96063 -318.96063l0 0c84.59363 0 165.7225 33.604683 225.53922 93.42141c59.81671 59.81671 93.42145 140.9456 93.42145 225.53923l0 0c0 176.1571 -142.80359 318.96063 -318.96066 318.96063l0 0c-176.15709 0 -318.96063 -142.80353 -318.96063 -318.96063z" fill-rule="nonzero"></path><path fill="#ffffff" d="m297.45145 536.1483l0 0c0 -40.860382 33.12387 -73.98428 73.98425 -73.98428l0 0c19.621826 0 38.440033 7.7947693 52.31476 21.669495c13.874756 13.874725 21.669495 32.6929 21.669495 52.31479l0 0c0 40.86035 -33.12387 73.98425 -73.98425 73.98425l0 0c-40.860382 0 -73.98425 -33.1239 -73.98425 -73.98425z" fill-rule="nonzero"></path><path fill="#666666" d="m363.54028 543.6283l-1.171875 0q-0.359375 0 -0.578125 -0.109375q-0.203125 -0.109375 -0.3125 -0.453125l-0.234375 -0.765625q-0.40625 0.375 -0.796875 0.65625q-0.390625 0.265625 -0.8125 0.46875q-0.421875 0.1875 -0.890625 0.28125q-0.46875 0.09375 -1.046875 0.09375q-0.6875 0 -1.265625 -0.1875q-0.578125 -0.1875 -1.0 -0.546875q-0.40625 -0.375 -0.640625 -0.921875q-0.234375 -0.546875 -0.234375 -1.265625q0 -0.609375 0.3125 -1.203125q0.328125 -0.59375 1.078125 -1.0625q0.75 -0.484375 1.984375 -0.796875q1.234375 -0.3125 3.078125 -0.359375l0 -0.625q0 -1.09375 -0.453125 -1.609375q-0.453125 -0.515625 -1.328125 -0.515625q-0.640625 0 -1.0625 0.15625q-0.40625 0.140625 -0.71875 0.328125q-0.3125 0.171875 -0.578125 0.328125q-0.265625 0.140625 -0.578125 0.140625q-0.25 0 -0.453125 -0.140625q-0.1875 -0.140625 -0.296875 -0.328125l-0.46875 -0.828125q1.859375 -1.703125 4.484375 -1.703125q0.9375 0 1.671875 0.3125q0.75 0.296875 1.265625 0.859375q0.515625 0.546875 0.78125 1.3125q0.265625 0.765625 0.265625 1.6875l0 6.796875zm-5.046875 -1.609375q0.40625 0 0.734375 -0.078125q0.34375 -0.078125 0.640625 -0.21875q0.296875 -0.15625 0.578125 -0.359375q0.28125 -0.21875 0.5625 -0.515625l0 -1.8125q-1.140625 0.046875 -1.90625 0.1875q-0.75 0.140625 -1.21875 0.359375q-0.453125 0.21875 -0.65625 0.515625q-0.1875 0.296875 -0.1875 0.640625q0 0.6875 0.40625 0.984375q0.40625 0.296875 1.046875 0.296875zm7.7745667 1.609375l0 -10.765625l1.578125 0q0.5 0 0.671875 0.46875l0.171875 0.84375q0.328125 -0.328125 0.6875 -0.59375q0.359375 -0.28125 0.765625 -0.484375q0.40625 -0.203125 0.859375 -0.296875q0.46875 -0.109375 1.015625 -0.109375q0.875 0 1.5625 0.296875q0.6875 0.296875 1.140625 0.84375q0.453125 0.53125 0.6875 1.28125q0.234375 0.75 0.234375 1.65625l0 6.859375l-2.59375 0l0 -6.859375q0 -0.984375 -0.453125 -1.515625q-0.453125 -0.546875 -1.359375 -0.546875q-0.671875 0 -1.265625 0.3125q-0.59375 0.296875 -1.109375 0.8125l0 7.796875l-2.59375 0zm19.703064 0q-0.5 0 -0.65625 -0.46875l-0.21875 -1.046875q-0.328125 0.375 -0.703125 0.6875q-0.359375 0.296875 -0.796875 0.53125q-0.421875 0.21875 -0.90625 0.328125q-0.484375 0.125 -1.0625 0.125q-0.875 0 -1.609375 -0.359375q-0.734375 -0.375 -1.265625 -1.0625q-0.53125 -0.703125 -0.828125 -1.734375q-0.28125 -1.03125 -0.28125 -2.359375q0 -1.1875 0.328125 -2.21875q0.328125 -1.03125 0.9375 -1.78125q0.609375 -0.765625 1.453125 -1.1875q0.84375 -0.421875 1.90625 -0.421875q0.90625 0 1.546875 0.296875q0.640625 0.28125 1.140625 0.765625l0 -5.703125l2.59375 0l0 15.609375l-1.578125 0zm-3.453125 -1.90625q0.8125 0 1.375 -0.328125q0.5625 -0.34375 1.0625 -0.953125l0 -4.828125q-0.4375 -0.546875 -0.953125 -0.765625q-0.515625 -0.21875 -1.125 -0.21875q-0.578125 0 -1.0625 0.21875q-0.46875 0.21875 -0.8125 0.671875q-0.328125 0.4375 -0.515625 1.125q-0.171875 0.6875 -0.171875 1.625q0 0.953125 0.15625 1.609375q0.15625 0.65625 0.4375 1.078125q0.28125 0.40625 0.6875 0.59375q0.421875 0.171875 0.921875 0.171875z" fill-rule="nonzero"></path><path fill="#ffffff" d="m332.27036 348.65878l0 0c0 -21.047699 17.06253 -38.11023 38.11023 -38.11023l0 0c10.107452 0 19.800934 4.015167 26.947998 11.162231c7.147064 7.147064 11.162231 16.840546 11.162231 26.947998l0 0c0 21.047699 -17.06253 38.11026 -38.11023 38.11026l0 0c-21.047699 0 -38.11023 -17.062561 -38.11023 -38.11026z" fill-rule="nonzero"></path><path fill="#666666" d="m355.5193 356.1388l0 -10.765625l1.578125 0q0.5 0 0.671875 0.46875l0.171875 0.84375q0.328125 -0.328125 0.6875 -0.59375q0.359375 -0.28125 0.765625 -0.484375q0.40625 -0.203125 0.859375 -0.296875q0.46875 -0.109375 1.015625 -0.109375q0.875 0 1.5625 0.296875q0.6875 0.296875 1.140625 0.84375q0.453125 0.53125 0.6875 1.28125q0.234375 0.75 0.234375 1.65625l0 6.859375l-2.59375 0l0 -6.859375q0 -0.984375 -0.453125 -1.515625q-0.453125 -0.546875 -1.359375 -0.546875q-0.671875 0 -1.265625 0.3125q-0.59375 0.296875 -1.109375 0.8125l0 7.796875l-2.59375 0zm16.718689 -10.9375q1.203125 0 2.1875 0.390625q0.984375 0.390625 1.671875 1.109375q0.703125 0.703125 1.078125 1.734375q0.375 1.03125 0.375 2.296875q0 1.28125 -0.375 2.3125q-0.375 1.03125 -1.078125 1.75q-0.6875 0.71875 -1.671875 1.109375q-0.984375 0.390625 -2.1875 0.390625q-1.203125 0 -2.203125 -0.390625q-0.984375 -0.390625 -1.6875 -1.109375q-0.6875 -0.71875 -1.078125 -1.75q-0.375 -1.03125 -0.375 -2.3125q0 -1.265625 0.375 -2.296875q0.390625 -1.03125 1.078125 -1.734375q0.703125 -0.71875 1.6875 -1.109375q1.0 -0.390625 2.203125 -0.390625zm0 9.09375q1.34375 0 1.984375 -0.890625q0.65625 -0.90625 0.65625 -2.65625q0 -1.734375 -0.65625 -2.640625q-0.640625 -0.921875 -1.984375 -0.921875q-1.359375 0 -2.015625 0.921875q-0.65625 0.90625 -0.65625 2.640625q0 1.734375 0.65625 2.640625q0.65625 0.90625 2.015625 0.90625zm11.0624695 2.015625q-1.390625 0 -2.15625 -0.796875q-0.75 -0.796875 -0.75 -2.1875l0 -6.015625l-1.09375 0q-0.203125 0 -0.359375 -0.140625q-0.15625 -0.140625 -0.15625 -0.40625l0 -1.03125l1.734375 -0.28125l0.546875 -2.9375q0.046875 -0.21875 0.1875 -0.328125q0.15625 -0.109375 0.390625 -0.109375l1.34375 0l0 3.390625l2.828125 0l0 1.84375l-2.828125 0l0 5.828125q0 0.515625 0.25 0.796875q0.25 0.28125 0.671875 0.28125q0.25 0 0.40625 -0.046875q0.15625 -0.0625 0.28125 -0.125q0.125 -0.0625 0.21875 -0.125q0.09375 -0.0625 0.1875 -0.0625q0.109375 0 0.1875 0.0625q0.078125 0.0625 0.15625 0.171875l0.78125 1.265625q-0.5625 0.46875 -1.296875 0.71875q-0.734375 0.234375 -1.53125 0.234375z" fill-rule="nonzero"></path><path fill="#6d9eeb" d="m447.81104 396.8294l15.88974 0l0 0l23.834656 0l55.614166 0l0 6.0734863l0 0l0 9.1102295l0 21.257233l-55.614166 0l-23.834656 0l0 0l-15.88974 0l0 -21.257233l-75.12109 -21.86081l75.12109 12.75058z" fill-rule="nonzero"></path><path fill="#ffffff" d="m493.834 414.90738l-4.390625 -6.671875l2.546875 0q0.265625 0 0.390625 0.078125q0.125 0.0625 0.21875 0.21875l3.125 5.046875q0.046875 -0.125 0.09375 -0.234375q0.0625 -0.125 0.140625 -0.25l2.859375 -4.515625q0.203125 -0.34375 0.546875 -0.34375l2.4375 0l-4.421875 6.5625l4.546875 7.171875l-2.546875 0q-0.265625 0 -0.421875 -0.125q-0.15625 -0.140625 -0.25 -0.3125l-3.1875 -5.265625q-0.03125 0.109375 -0.09375 0.21875q-0.046875 0.09375 -0.09375 0.1875l-3.046875 4.859375q-0.09375 0.15625 -0.25 0.296875q-0.15625 0.140625 -0.375 0.140625l-2.40625 0l4.578125 -7.0625z" fill-rule="nonzero"></path><path fill="#6d9eeb" d="m206.57217 460.38452l52.049866 0l0 0l22.307098 0l14.871399 0l0 6.0734863l66.75885 -4.7218933l-66.75885 13.832123l0 21.257233l-14.871399 0l-22.307098 0l0 0l-52.049866 0l0 -21.257233l0 -9.1102295l0 0z" fill-rule="nonzero"></path><path fill="#ffffff" d="m224.33078 478.4625l-4.390625 -6.671875l2.546875 0q0.265625 0 0.390625 0.078125q0.125 0.0625 0.21875 0.21875l3.125 5.046875q0.046875 -0.125 0.09375 -0.234375q0.0625 -0.125 0.140625 -0.25l2.859375 -4.515625q0.203125 -0.34375 0.546875 -0.34375l2.4375 0l-4.421875 6.5625l4.546875 7.171875l-2.546875 0q-0.265625 0 -0.421875 -0.125q-0.15625 -0.140625 -0.25 -0.3125l-3.1875 -5.265625q-0.03125 0.109375 -0.09375 0.21875q-0.046875 0.09375 -0.09375 0.1875l-3.046875 4.859375q-0.09375 0.15625 -0.25 0.296875q-0.15625 0.140625 -0.375 0.140625l-2.40625 0l4.578125 -7.0625zm20.47139 7.0625l-1.046875 0q-0.34375 0 -0.53125 -0.09375q-0.1875 -0.109375 -0.28125 -0.40625l-0.203125 -0.703125q-0.375 0.34375 -0.734375 0.59375q-0.359375 0.25 -0.734375 0.421875q-0.375 0.171875 -0.8125 0.25q-0.421875 0.09375 -0.953125 0.09375q-0.609375 0 -1.140625 -0.171875q-0.515625 -0.171875 -0.890625 -0.5q-0.375 -0.328125 -0.59375 -0.8125q-0.203125 -0.5 -0.203125 -1.15625q0 -0.5625 0.28125 -1.09375q0.296875 -0.53125 0.96875 -0.96875q0.6875 -0.4375 1.796875 -0.71875q1.125 -0.28125 2.796875 -0.328125l0 -0.5625q0 -0.984375 -0.421875 -1.453125q-0.40625 -0.46875 -1.203125 -0.46875q-0.5625 0 -0.953125 0.140625q-0.375 0.125 -0.65625 0.296875q-0.28125 0.171875 -0.515625 0.3125q-0.234375 0.125 -0.515625 0.125q-0.25 0 -0.421875 -0.125q-0.171875 -0.125 -0.265625 -0.3125l-0.4375 -0.75q1.6875 -1.53125 4.0625 -1.53125q0.859375 0 1.515625 0.28125q0.671875 0.28125 1.140625 0.78125q0.46875 0.484375 0.703125 1.1875q0.25 0.6875 0.25 1.515625l0 6.15625zm-4.5625 -1.46875q0.359375 0 0.65625 -0.0625q0.3125 -0.0625 0.578125 -0.1875q0.28125 -0.140625 0.53125 -0.328125q0.25 -0.203125 0.515625 -0.46875l0 -1.640625q-1.03125 0.046875 -1.71875 0.171875q-0.6875 0.125 -1.109375 0.328125q-0.421875 0.203125 -0.59375 0.46875q-0.171875 0.265625 -0.171875 0.578125q0 0.609375 0.359375 0.875q0.375 0.265625 0.953125 0.265625zm6.688431 1.46875l0 -9.75l1.4375 0q0.453125 0 0.59375 0.4375l0.171875 0.765625q0.296875 -0.3125 0.625 -0.546875q0.328125 -0.25 0.6875 -0.421875q0.359375 -0.1875 0.78125 -0.28125q0.421875 -0.109375 0.90625 -0.109375q0.8125 0 1.421875 0.28125q0.625 0.265625 1.03125 0.765625q0.40625 0.484375 0.625 1.171875q0.21875 0.671875 0.21875 1.484375l0 6.203125l-2.34375 0l0 -6.203125q0 -0.890625 -0.421875 -1.375q-0.40625 -0.5 -1.234375 -0.5q-0.609375 0 -1.140625 0.28125q-0.53125 0.265625 -1.015625 0.75l0 7.046875l-2.34375 0zm17.465454 0q-0.453125 0 -0.59375 -0.421875l-0.1875 -0.953125q-0.3125 0.34375 -0.640625 0.625q-0.328125 0.28125 -0.71875 0.484375q-0.375 0.1875 -0.828125 0.296875q-0.4375 0.109375 -0.953125 0.109375q-0.796875 0 -1.46875 -0.328125q-0.65625 -0.328125 -1.140625 -0.953125q-0.46875 -0.640625 -0.734375 -1.5625q-0.265625 -0.9375 -0.265625 -2.140625q0 -1.078125 0.296875 -2.015625q0.296875 -0.9375 0.84375 -1.609375q0.546875 -0.6875 1.3125 -1.0625q0.78125 -0.390625 1.734375 -0.390625q0.828125 0 1.40625 0.265625q0.578125 0.25 1.03125 0.6875l0 -5.140625l2.34375 0l0 14.109375l-1.4375 0zm-3.125 -1.71875q0.734375 0 1.25 -0.296875q0.515625 -0.3125 0.96875 -0.875l0 -4.375q-0.40625 -0.484375 -0.875 -0.671875q-0.46875 -0.203125 -1.015625 -0.203125q-0.53125 0 -0.96875 0.203125q-0.421875 0.1875 -0.71875 0.59375q-0.296875 0.40625 -0.46875 1.03125q-0.15625 0.625 -0.15625 1.46875q0 0.859375 0.140625 1.453125q0.140625 0.59375 0.390625 0.96875q0.265625 0.375 0.625 0.546875q0.375 0.15625 0.828125 0.15625zm16.750336 -3.625l0 5.34375l-2.5625 0l0 -5.34375l-5.0 -8.390625l2.25 0q0.328125 0 0.515625 0.171875q0.203125 0.15625 0.34375 0.390625l2.515625 4.59375q0.21875 0.40625 0.375 0.78125q0.15625 0.359375 0.296875 0.703125q0.125 -0.359375 0.28125 -0.71875q0.15625 -0.359375 0.375 -0.765625l2.5 -4.59375q0.09375 -0.203125 0.296875 -0.375q0.21875 -0.1875 0.546875 -0.1875l2.265625 0l-5.0 8.390625z" fill-rule="nonzero"></path><path fill="#000000" fill-opacity="0.0" d="m196.66405 720.64044l77.6693 0l0 65.57477l-77.6693 0z" fill-rule="nonzero"></path><path fill="#93c47d" d="m232.69797 753.3066l-6.6875 -10.1875l3.875 0q0.40625 0 0.59375 0.109375q0.1875 0.109375 0.328125 0.359375l4.765625 7.703125q0.078125 -0.1875 0.15625 -0.375q0.09375 -0.1875 0.203125 -0.375l4.375 -6.890625q0.3125 -0.53125 0.828125 -0.53125l3.734375 0l-6.75 10.015625l6.9375 10.953125l-3.90625 0q-0.390625 0 -0.625 -0.203125q-0.234375 -0.203125 -0.390625 -0.46875l-4.859375 -8.03125q-0.0625 0.171875 -0.140625 0.328125q-0.0625 0.15625 -0.140625 0.28125l-4.65625 7.421875q-0.15625 0.25 -0.390625 0.46875q-0.234375 0.203125 -0.578125 0.203125l-3.65625 0l6.984375 -10.78125z" fill-rule="nonzero"></path><path fill="#000000" fill-opacity="0.0" d="m238.93176 117.1601l113.165344 0l0 91.527565l-113.165344 0z" fill-rule="nonzero"></path><path fill="#ffffff" d="m264.71222 173.58388l0 -14.875l2.203125 0q0.6875 0 0.90625 0.65625l0.25 1.171875q0.453125 -0.46875 0.953125 -0.84375q0.5 -0.375 1.046875 -0.640625q0.5625 -0.28125 1.203125 -0.421875q0.640625 -0.15625 1.390625 -0.15625q1.21875 0 2.15625 0.421875q0.953125 0.40625 1.578125 1.15625q0.625 0.75 0.953125 1.78125q0.328125 1.03125 0.328125 2.28125l0 9.46875l-3.578125 0l0 -9.46875q0 -1.359375 -0.640625 -2.109375q-0.625 -0.75 -1.890625 -0.75q-0.921875 0 -1.734375 0.421875q-0.8125 0.421875 -1.53125 1.140625l0 10.765625l-3.59375 0zm28.345062 0l-1.609375 0q-0.515625 0 -0.8125 -0.140625q-0.28125 -0.15625 -0.421875 -0.625l-0.328125 -1.0625q-0.5625 0.515625 -1.109375 0.90625q-0.53125 0.375 -1.125 0.640625q-0.578125 0.25 -1.234375 0.375q-0.640625 0.140625 -1.4375 0.140625q-0.953125 0 -1.75 -0.25q-0.796875 -0.265625 -1.375 -0.765625q-0.5625 -0.515625 -0.890625 -1.265625q-0.3125 -0.75 -0.3125 -1.75q0 -0.84375 0.4375 -1.65625q0.453125 -0.828125 1.484375 -1.484375q1.03125 -0.65625 2.734375 -1.09375q1.71875 -0.4375 4.25 -0.5l0 -0.859375q0 -1.5 -0.640625 -2.21875q-0.625 -0.71875 -1.828125 -0.71875q-0.859375 0 -1.453125 0.203125q-0.578125 0.203125 -1.0 0.46875q-0.421875 0.25 -0.796875 0.453125q-0.359375 0.203125 -0.796875 0.203125q-0.359375 0 -0.625 -0.1875q-0.25 -0.1875 -0.421875 -0.46875l-0.640625 -1.140625q2.5625 -2.359375 6.1875 -2.359375q1.296875 0 2.3125 0.4375q1.03125 0.421875 1.734375 1.1875q0.71875 0.75 1.09375 1.8125q0.375 1.0625 0.375 2.328125l0 9.390625zm-6.96875 -2.234375q0.546875 0 1.015625 -0.09375q0.46875 -0.109375 0.875 -0.3125q0.421875 -0.203125 0.796875 -0.5q0.390625 -0.296875 0.78125 -0.703125l0 -2.5q-1.5625 0.0625 -2.625 0.265625q-1.046875 0.1875 -1.6875 0.5q-0.625 0.296875 -0.90625 0.703125q-0.265625 0.40625 -0.265625 0.890625q0 0.9375 0.5625 1.34375q0.5625 0.40625 1.453125 0.40625zm10.650269 2.234375l0 -14.875l2.203125 0q0.6875 0 0.90625 0.65625l0.25 1.171875q0.453125 -0.46875 0.953125 -0.84375q0.5 -0.375 1.046875 -0.640625q0.5625 -0.28125 1.203125 -0.421875q0.640625 -0.15625 1.390625 -0.15625q1.21875 0 2.15625 0.421875q0.953125 0.40625 1.578125 1.15625q0.625 0.75 0.953125 1.78125q0.328125 1.03125 0.328125 2.28125l0 9.46875l-3.578125 0l0 -9.46875q0 -1.359375 -0.640625 -2.109375q-0.625 -0.75 -1.890625 -0.75q-0.921875 0 -1.734375 0.421875q-0.8125 0.421875 -1.53125 1.140625l0 10.765625l-3.59375 0zm27.157532 0q-0.703125 0 -0.921875 -0.65625l-0.296875 -1.4375q-0.453125 0.53125 -0.96875 0.953125q-0.5 0.421875 -1.09375 0.734375q-0.578125 0.296875 -1.265625 0.453125q-0.671875 0.171875 -1.453125 0.171875q-1.21875 0 -2.234375 -0.5q-1.015625 -0.515625 -1.75 -1.46875q-0.71875 -0.96875 -1.125 -2.390625q-0.390625 -1.421875 -0.390625 -3.25q0 -1.65625 0.4375 -3.078125q0.453125 -1.421875 1.296875 -2.46875q0.84375 -1.046875 2.015625 -1.625q1.171875 -0.59375 2.640625 -0.59375q1.25 0 2.125 0.40625q0.890625 0.390625 1.578125 1.0625l0 -7.859375l3.59375 0l0 21.546875l-2.1875 0zm-4.78125 -2.625q1.125 0 1.90625 -0.453125q0.78125 -0.46875 1.46875 -1.328125l0 -6.671875q-0.609375 -0.734375 -1.328125 -1.03125q-0.703125 -0.3125 -1.53125 -0.3125q-0.8125 0 -1.484375 0.3125q-0.65625 0.296875 -1.109375 0.921875q-0.453125 0.609375 -0.703125 1.5625q-0.25 0.9375 -0.25 2.234375q0 1.296875 0.203125 2.203125q0.21875 0.90625 0.609375 1.484375q0.390625 0.578125 0.953125 0.828125q0.578125 0.25 1.265625 0.25z" fill-rule="nonzero"></path><path fill="#6d9eeb" d="m222.17323 266.63516l62.48555 0l0 0l26.779541 0l17.853027 0l0 21.257233l43.931274 23.469666l-43.931274 -14.359436l0 6.0734863l-17.853027 0l-26.779541 0l0 0l-62.48555 0l0 -6.0734863l0 -9.1102295l0 0z" fill-rule="nonzero"></path><path fill="#ffffff" d="m254.63208 291.77563l0 -9.75l1.4375 0q0.453125 0 0.59375 0.4375l0.171875 0.765625q0.296875 -0.3125 0.625 -0.546875q0.328125 -0.25 0.6875 -0.421875q0.359375 -0.1875 0.78125 -0.28125q0.421875 -0.109375 0.90625 -0.109375q0.8125 0 1.421875 0.28125q0.625 0.265625 1.03125 0.765625q0.40625 0.484375 0.625 1.171875q0.21875 0.671875 0.21875 1.484375l0 6.203125l-2.34375 0l0 -6.203125q0 -0.890625 -0.421875 -1.375q-0.40625 -0.5 -1.234375 -0.5q-0.609375 0 -1.140625 0.28125q-0.53125 0.265625 -1.015625 0.75l0 7.046875l-2.34375 0zm14.777954 -9.90625q1.078125 0 1.96875 0.359375q0.890625 0.34375 1.515625 1.0q0.625 0.640625 0.96875 1.578125q0.34375 0.921875 0.34375 2.078125q0 1.15625 -0.34375 2.09375q-0.34375 0.921875 -0.96875 1.578125q-0.625 0.65625 -1.515625 1.015625q-0.890625 0.34375 -1.96875 0.34375q-1.09375 0 -2.0 -0.34375q-0.890625 -0.359375 -1.53125 -1.015625q-0.625 -0.65625 -0.96875 -1.578125q-0.34375 -0.9375 -0.34375 -2.09375q0 -1.15625 0.34375 -2.078125q0.34375 -0.9375 0.96875 -1.578125q0.640625 -0.65625 1.53125 -1.0q0.90625 -0.359375 2.0 -0.359375zm0 8.25q1.203125 0 1.78125 -0.8125q0.59375 -0.828125 0.59375 -2.40625q0 -1.578125 -0.59375 -2.40625q-0.578125 -0.828125 -1.78125 -0.828125q-1.234375 0 -1.828125 0.84375q-0.59375 0.828125 -0.59375 2.390625q0 1.5625 0.59375 2.390625q0.59375 0.828125 1.828125 0.828125zm9.637329 1.8125q-1.265625 0 -1.953125 -0.71875q-0.671875 -0.71875 -0.671875 -1.984375l0 -5.4375l-0.984375 0q-0.203125 0 -0.34375 -0.125q-0.125 -0.125 -0.125 -0.375l0 -0.9375l1.5625 -0.25l0.5 -2.65625q0.03125 -0.1875 0.171875 -0.296875q0.140625 -0.109375 0.34375 -0.109375l1.21875 0l0 3.078125l2.5625 0l0 1.671875l-2.5625 0l0 5.28125q0 0.453125 0.21875 0.71875q0.234375 0.25 0.609375 0.25q0.21875 0 0.359375 -0.046875q0.15625 -0.0625 0.265625 -0.109375q0.109375 -0.0625 0.1875 -0.109375q0.09375 -0.0625 0.1875 -0.0625q0.09375 0 0.15625 0.0625q0.078125 0.046875 0.15625 0.140625l0.703125 1.140625q-0.515625 0.4375 -1.1875 0.65625q-0.65625 0.21875 -1.375 0.21875zm11.055023 -7.21875l-4.390625 -6.671875l2.546875 0q0.265625 0 0.390625 0.078125q0.125 0.0625 0.21875 0.21875l3.125 5.046875q0.046875 -0.125 0.09375 -0.234375q0.0625 -0.125 0.140625 -0.25l2.859375 -4.515625q0.203125 -0.34375 0.546875 -0.34375l2.4375 0l-4.421875 6.5625l4.546875 7.171875l-2.546875 0q-0.265625 0 -0.421875 -0.125q-0.15625 -0.140625 -0.25 -0.3125l-3.1875 -5.265625q-0.03125 0.109375 -0.09375 0.21875q-0.046875 0.09375 -0.09375 0.1875l-3.046875 4.859375q-0.09375 0.15625 -0.25 0.296875q-0.15625 0.140625 -0.375 0.140625l-2.40625 0l4.578125 -7.0625z" fill-rule="nonzero"></path><path fill="#6d9eeb" d="m165.20473 555.09186l55.614166 0l0 0l23.834656 0l15.889755 0l0 21.257202l53.852966 14.561707l-53.852966 -5.451477l0 6.0735474l-15.889755 0l-23.834656 0l0 0l-55.614166 0l0 -6.0735474l0 -9.1102295l0 0z" fill-rule="nonzero"></path><path fill="#ffffff" d="m214.26875 574.8886l0 5.34375l-2.5625 0l0 -5.34375l-5.0 -8.390625l2.25 0q0.328125 0 0.515625 0.171875q0.203125 0.15625 0.34375 0.390625l2.515625 4.59375q0.21875 0.40625 0.375 0.78125q0.15625 0.359375 0.296875 0.703125q0.125 -0.359375 0.28125 -0.71875q0.15625 -0.359375 0.375 -0.765625l2.5 -4.59375q0.09375 -0.203125 0.296875 -0.375q0.21875 -0.1875 0.546875 -0.1875l2.265625 0l-5.0 8.390625z" fill-rule="nonzero"></path><path fill="#000000" fill-opacity="0.0" d="m444.9029 26.606298l192.31494 0l0 65.5748l-192.31494 0z" fill-rule="nonzero"></path><path fill="#93c47d" d="m490.29312 59.272453l-6.6875 -10.1875l3.875 0q0.40625 0 0.59375 0.109375q0.1875 0.109375 0.328125 0.359375l4.765625 7.703125q0.078125 -0.1875 0.15625 -0.375q0.09375 -0.1875 0.203125 -0.375l4.375 -6.890625q0.3125 -0.53125 0.828125 -0.53125l3.734375 0l-6.75 10.015625l6.9375 10.953125l-3.90625 0q-0.390625 0 -0.625 -0.203125q-0.234375 -0.203125 -0.390625 -0.46875l-4.859375 -8.03125q-0.0625 0.171875 -0.140625 0.328125q-0.0625 0.15625 -0.140625 0.28125l-4.65625 7.421875q-0.15625 0.25 -0.390625 0.46875q-0.234375 0.203125 -0.578125 0.203125l-3.65625 0l6.984375 -10.78125zm20.32431 10.78125l0 -14.875l2.203125 0q0.6875 0 0.90625 0.65625l0.25 1.171875q0.453125 -0.46875 0.953125 -0.84375q0.5 -0.375 1.046875 -0.640625q0.5625 -0.28125 1.203125 -0.421875q0.640625 -0.15625 1.390625 -0.15625q1.21875 0 2.15625 0.421875q0.953125 0.40625 1.578125 1.15625q0.625 0.75 0.953125 1.78125q0.328125 1.03125 0.328125 2.28125l0 9.46875l-3.578125 0l0 -9.46875q0 -1.359375 -0.640625 -2.109375q-0.625 -0.75 -1.890625 -0.75q-0.921875 0 -1.734375 0.421875q-0.8125 0.421875 -1.53125 1.140625l0 10.765625l-3.59375 0zm28.345032 0l-1.609375 0q-0.515625 0 -0.8125 -0.140625q-0.28125 -0.15625 -0.421875 -0.625l-0.328125 -1.0625q-0.5625 0.515625 -1.109375 0.90625q-0.53125 0.375 -1.125 0.640625q-0.578125 0.25 -1.234375 0.375q-0.640625 0.140625 -1.4375 0.140625q-0.953125 0 -1.75 -0.25q-0.796875 -0.265625 -1.375 -0.765625q-0.5625 -0.515625 -0.890625 -1.265625q-0.3125 -0.75 -0.3125 -1.75q0 -0.84375 0.4375 -1.65625q0.453125 -0.828125 1.484375 -1.484375q1.03125 -0.65625 2.734375 -1.09375q1.71875 -0.4375 4.25 -0.5l0 -0.859375q0 -1.5 -0.640625 -2.21875q-0.625 -0.71875 -1.828125 -0.71875q-0.859375 0 -1.453125 0.203125q-0.578125 0.203125 -1.0 0.46875q-0.421875 0.25 -0.796875 0.453125q-0.359375 0.203125 -0.796875 0.203125q-0.359375 0 -0.625 -0.1875q-0.25 -0.1875 -0.421875 -0.46875l-0.640625 -1.140625q2.5625 -2.359375 6.1875 -2.359375q1.296875 0 2.3125 0.4375q1.03125 0.421875 1.734375 1.1875q0.71875 0.75 1.09375 1.8125q0.375 1.0625 0.375 2.328125l0 9.390625zm-6.96875 -2.234375q0.546875 0 1.015625 -0.09375q0.46875 -0.109375 0.875 -0.3125q0.421875 -0.203125 0.796875 -0.5q0.390625 -0.296875 0.78125 -0.703125l0 -2.5q-1.5625 0.0625 -2.625 0.265625q-1.046875 0.1875 -1.6875 0.5q-0.625 0.296875 -0.90625 0.703125q-0.265625 0.40625 -0.265625 0.890625q0 0.9375 0.5625 1.34375q0.5625 0.40625 1.453125 0.40625zm10.650269 2.234375l0 -14.875l2.203125 0q0.6875 0 0.90625 0.65625l0.25 1.171875q0.453125 -0.46875 0.953125 -0.84375q0.5 -0.375 1.046875 -0.640625q0.5625 -0.28125 1.203125 -0.421875q0.640625 -0.15625 1.390625 -0.15625q1.21875 0 2.15625 0.421875q0.953125 0.40625 1.578125 1.15625q0.625 0.75 0.953125 1.78125q0.328125 1.03125 0.328125 2.28125l0 9.46875l-3.578125 0l0 -9.46875q0 -1.359375 -0.640625 -2.109375q-0.625 -0.75 -1.890625 -0.75q-0.921875 0 -1.734375 0.421875q-0.8125 0.421875 -1.53125 1.140625l0 10.765625l-3.59375 0zm27.157593 0q-0.703125 0 -0.921875 -0.65625l-0.296875 -1.4375q-0.453125 0.53125 -0.96875 0.953125q-0.5 0.421875 -1.09375 0.734375q-0.578125 0.296875 -1.265625 0.453125q-0.671875 0.171875 -1.453125 0.171875q-1.21875 0 -2.234375 -0.5q-1.015625 -0.515625 -1.75 -1.46875q-0.71875 -0.96875 -1.125 -2.390625q-0.390625 -1.421875 -0.390625 -3.25q0 -1.65625 0.4375 -3.078125q0.453125 -1.421875 1.296875 -2.46875q0.84375 -1.046875 2.015625 -1.625q1.171875 -0.59375 2.640625 -0.59375q1.25 0 2.125 0.40625q0.890625 0.390625 1.578125 1.0625l0 -7.859375l3.59375 0l0 21.546875l-2.1875 0zm-4.78125 -2.625q1.125 0 1.90625 -0.453125q0.78125 -0.46875 1.46875 -1.328125l0 -6.671875q-0.609375 -0.734375 -1.328125 -1.03125q-0.703125 -0.3125 -1.53125 -0.3125q-0.8125 0 -1.484375 0.3125q-0.65625 0.296875 -1.109375 0.921875q-0.453125 0.609375 -0.703125 1.5625q-0.25 0.9375 -0.25 2.234375q0 1.296875 0.203125 2.203125q0.21875 0.90625 0.609375 1.484375q0.390625 0.578125 0.953125 0.828125q0.578125 0.25 1.265625 0.25zm26.205627 -5.53125l0 8.15625l-3.890625 0l0 -8.15625l-7.640625 -12.8125l3.421875 0q0.515625 0 0.8125 0.25q0.296875 0.25 0.5 0.625l3.84375 7.0q0.328125 0.625 0.578125 1.1875q0.25 0.546875 0.453125 1.09375q0.1875 -0.5625 0.421875 -1.109375q0.234375 -0.5625 0.578125 -1.171875l3.8125 -7.0q0.15625 -0.328125 0.46875 -0.59375q0.328125 -0.28125 0.8125 -0.28125l3.453125 0l-7.625 12.8125z" fill-rule="nonzero"></path><path fill="#000000" fill-opacity="0.0" d="m500.55643 687.3779l77.66928 0l0 65.57483l-77.66928 0z" fill-rule="nonzero"></path><path fill="#93c47d" d="m541.2309 722.6691l0 8.15625l-3.890625 0l0 -8.15625l-7.640625 -12.8125l3.421875 0q0.515625 0 0.8125 0.25q0.296875 0.25 0.5 0.625l3.84375 7.0q0.328125 0.625 0.578125 1.1875q0.25 0.546875 0.453125 1.09375q0.1875 -0.5625 0.421875 -1.109375q0.234375 -0.5625 0.578125 -1.171875l3.8125 -7.0q0.15625 -0.328125 0.46875 -0.59375q0.328125 -0.28125 0.8125 -0.28125l3.453125 0l-7.625 12.8125z" fill-rule="nonzero"></path><path fill="#000000" fill-opacity="0.0" d="m364.98495 468.67142l0 0c-5.29068 -29.678894 -5.180725 -60.069122 0.32458496 -89.708984l246.29153 45.746216z" fill-rule="nonzero"></path><path fill="#000000" fill-opacity="0.0" d="m364.98495 468.67142l0 0c-5.29068 -29.678894 -5.180725 -60.069122 0.32458496 -89.708984" fill-rule="nonzero"></path><path stroke="#f3f3f3" stroke-width="3.0" stroke-linejoin="round" stroke-linecap="butt" d="m364.98495 468.67142l0 0c-5.29068 -29.678894 -5.180725 -60.069122 0.32458496 -89.708984" fill-rule="nonzero"></path><path fill="#6d9eeb" d="m354.76642 385.24146l0 0c0 -6.270813 5.083496 -11.354309 11.354309 -11.354309l0 0c3.0113525 0 5.8993835 1.1962585 8.028717 3.325592c2.129364 2.129364 3.3256226 5.0173645 3.3256226 8.028717l0 0c0 6.2708435 -5.083496 11.35434 -11.35434 11.35434l0 0c-6.270813 0 -11.354309 -5.083496 -11.354309 -11.35434z" fill-rule="nonzero"></path><path fill="#6d9eeb" d="m355.41733 464.62598l0 0c0 -6.270813 5.083496 -11.354309 11.35434 -11.354309l0 0c3.0113525 0 5.899353 1.196228 8.028717 3.325592c2.1293335 2.129364 3.325592 5.0173645 3.325592 8.028717l0 0c0 6.2708435 -5.083496 11.35434 -11.354309 11.35434l0 0c-6.2708435 0 -11.35434 -5.083496 -11.35434 -11.35434z" fill-rule="nonzero"></path><path fill="#000000" fill-opacity="0.0" d="m495.173 675.1885l0 0c-34.254272 -22.310303 -62.54782 -51.465027 -82.749756 -85.26843l243.38254 -122.584076z" fill-rule="nonzero"></path><path fill="#000000" fill-opacity="0.0" d="m495.173 675.1885l0 0c-34.254272 -22.310303 -62.54782 -51.465027 -82.749756 -85.26843" fill-rule="nonzero"></path><path stroke="#ffffff" stroke-width="3.0" stroke-linejoin="round" stroke-linecap="butt" d="m495.173 675.1885l0 0c-34.254272 -22.310303 -62.54782 -51.465027 -82.749756 -85.26843" fill-rule="nonzero"></path><path fill="#6d9eeb" d="m405.54068 593.6102l0 0c0 -6.270813 5.083496 -11.354309 11.35434 -11.354309l0 0c3.0113525 0 5.899353 1.196228 8.028717 3.3255615c2.129364 2.1293945 3.325592 5.017395 3.325592 8.028748l0 0c0 6.270813 -5.083496 11.354309 -11.354309 11.354309l0 0c-6.2708435 0 -11.35434 -5.083496 -11.35434 -11.354309z" fill-rule="nonzero"></path><path fill="#6d9eeb" d="m490.43832 565.3228l15.8897705 0l0 0l23.834625 0l55.614197 0l0 21.257263l0 0l0 9.1102295l0 6.0734863l-55.614197 0l-23.834625 0l0 0l-15.8897705 0l0 -6.0734863l-62.078766 -3.800537l62.078766 -5.3096924z" fill-rule="nonzero"></path><path fill="#ffffff" d="m536.4613 583.4008l-4.390625 -6.671875l2.546875 0q0.265625 0 0.390625 0.078125q0.125 0.0625 0.21875 0.21875l3.125 5.046875q0.046875 -0.125 0.09375 -0.234375q0.0625 -0.125 0.140625 -0.25l2.859375 -4.515625q0.203125 -0.34375 0.546875 -0.34375l2.4375 0l-4.421875 6.5625l4.546875 7.171875l-2.546875 0q-0.265625 0 -0.421875 -0.125q-0.15625 -0.140625 -0.25 -0.3125l-3.1875 -5.265625q-0.03125 0.109375 -0.09375 0.21875q-0.046875 0.09375 -0.09375 0.1875l-3.046875 4.859375q-0.09375 0.15625 -0.25 0.296875q-0.15625 0.140625 -0.375 0.140625l-2.40625 0l4.578125 -7.0625z" fill-rule="nonzero"></path><path fill="#93c47d" d="m483.84253 681.0407l0 0c0 -10.976135 8.897888 -19.874023 19.873993 -19.874023l0 0c5.270935 0 10.325958 2.093872 14.05307 5.820923c3.7271118 3.7271118 5.820984 8.782166 5.820984 14.053101l0 0c0 10.976074 -8.897949 19.873962 -19.874054 19.873962l0 0c-10.976105 0 -19.873993 -8.897888 -19.873993 -19.873962z" fill-rule="nonzero"></path><path fill="#000000" fill-opacity="0.0" d="m376.626 308.23422l0 0c12.175201 -79.13374 55.249878 -151.48074 121.174286 -203.52087l232.74567 249.6222z" fill-rule="nonzero"></path><path fill="#000000" fill-opacity="0.0" d="m376.626 308.23422l0 0c12.175201 -79.13374 55.249878 -151.48074 121.174286 -203.52087" fill-rule="nonzero"></path><path stroke="#f3f3f3" stroke-width="3.0" stroke-linejoin="round" stroke-linecap="butt" d="m376.626 308.23422l0 0c12.175201 -79.13374 55.249878 -151.48074 121.174286 -203.52087" fill-rule="nonzero"></path><path fill="#93c47d" d="m476.3176 112.644356l0 0c0 -10.976112 8.897888 -19.874016 19.873993 -19.874016l0 0c5.270935 0 10.325958 2.0938644 14.05307 5.8209686c3.7270813 3.7270966 5.8209534 8.782135 5.8209534 14.053047l0 0c0 10.97612 -8.897888 19.874016 -19.874023 19.874016l0 0c-10.976105 0 -19.873993 -8.897896 -19.873993 -19.874016z" fill-rule="nonzero"></path><path fill="#6d9eeb" d="m363.72964 312.37796l0 0c0 -6.2708435 5.0835266 -11.35434 11.35434 -11.35434l0 0c3.0113525 0 5.8993835 1.1962585 8.028717 3.3256226c2.129364 2.1293335 3.3256226 5.0173645 3.3256226 8.028717l0 0c0 6.270813 -5.083496 11.354309 -11.35434 11.354309l0 0c-6.270813 0 -11.35434 -5.083496 -11.35434 -11.354309z" fill-rule="nonzero"></path><path fill="#000000" fill-opacity="0.0" d="m244.4758 702.616l0 0c14.050476 -42.426025 40.49997 -80.9397 76.7558 -111.76575l203.97311 182.48566z" fill-rule="nonzero"></path><path fill="#000000" fill-opacity="0.0" d="m244.4758 702.616l0 0c14.050476 -42.426025 40.49997 -80.9397 76.7558 -111.76575" fill-rule="nonzero"></path><path stroke="#ffffff" stroke-width="3.0" stroke-linejoin="round" stroke-linecap="butt" d="m244.4758 702.616l0 0c14.050476 -42.426025 40.49997 -80.9397 76.7558 -111.76575" fill-rule="nonzero"></path><path fill="#6d9eeb" d="m312.6299 593.479l0 0c0 -6.270813 5.0835266 -11.354309 11.35434 -11.354309l0 0c3.0113525 0 5.8993835 1.196228 8.028717 3.3255615c2.129364 2.1293945 3.3256226 5.017395 3.3256226 8.028748l0 0c0 6.270813 -5.0835266 11.354309 -11.35434 11.354309l0 0c-6.270813 0 -11.35434 -5.083496 -11.35434 -11.354309z" fill-rule="nonzero"></path><path fill="#93c47d" d="m225.41733 699.13257l0 0c0 -10.976135 8.897888 -19.874023 19.874008 -19.874023l0 0c5.27092 0 10.325958 2.093872 14.053055 5.820923c3.7271118 3.7271118 5.8209534 8.782166 5.8209534 14.053101l0 0c0 10.976074 -8.897888 19.874023 -19.874008 19.874023l0 0c-10.97612 0 -19.874008 -8.897949 -19.874008 -19.874023z" fill-rule="nonzero"></path></g></svg>

