<?xml version="1.0" standalone="yes"?>

<svg version="1.1" viewBox="0.0 0.0 491.0 382.0" fill="none" stroke="none" stroke-linecap="square" stroke-miterlimit="10" xmlns="http://www.w3.org/2000/svg" xmlns:xlink="http://www.w3.org/1999/xlink"><clipPath id="p.0"><path d="m0 0l491.0 0l0 382.0l-491.0 0l0 -382.0z" clip-rule="nonzero"></path></clipPath><g clip-path="url(#p.0)"><path fill="#000000" fill-opacity="0.0" d="m0 0l491.5853 0l0 382.34384l-491.5853 0z" fill-rule="nonzero"></path><path fill="#666666" d="m64.69157 187.41705l0 0c0 -86.64347 74.26432 -156.88188 165.87402 -156.88188l0 0c43.992523 0 86.18323 16.52858 117.29065 45.949642c31.107391 29.421059 48.583374 69.32458 48.583374 110.93224l0 0c0 86.64349 -74.26434 156.8819 -165.87402 156.8819l0 0c-91.609695 0 -165.87402 -70.2384 -165.87402 -156.8819z" fill-rule="nonzero"></path><path fill="#6d9eeb" d="m330.10107 77.61085l0 0c0 -8.67131 7.4243164 -15.70079 16.582703 -15.70079l0 0c4.3979797 0 8.615845 1.6541862 11.725708 4.5986557c3.1098633 2.9444656 4.856964 6.9380264 4.856964 11.102135l0 0c0 8.671303 -7.4243164 15.700783 -16.582672 15.700783l0 0c-9.158386 0 -16.582703 -7.02948 -16.582703 -15.700783z" fill-rule="nonzero"></path><path fill="#000000" fill-opacity="0.0" d="m315.3201 313.81628l94.74017 0l0 62.740143l-94.74017 0z" fill-rule="nonzero"></path><path fill="#6d9eeb" d="m364.53 347.6901l0 8.15625l-3.890625 0l0 -8.15625l-7.640625 -12.8125l3.421875 0q0.515625 0 0.8125 0.25q0.296875 0.25 0.5 0.625l3.84375 7.0q0.328125 0.625 0.578125 1.1875q0.25 0.546875 0.453125 1.09375q0.1875 -0.5625 0.421875 -1.109375q0.234375 -0.5625 0.578125 -1.171875l3.8125 -7.0q0.15625 -0.328125 0.46875 -0.59375q0.328125 -0.28125 0.8125 -0.28125l3.453125 0l-7.625 12.8125z" fill-rule="nonzero"></path><path fill="#000000" fill-opacity="0.0" d="m331.5328 17.286089l175.74802 0l0 62.740158l-175.74802 0z" fill-rule="nonzero"></path><path fill="#6d9eeb" d="m376.97617 48.53492l-6.6875 -10.1875l3.875 0q0.40625 0 0.59375 0.109375q0.1875 0.109375 0.328125 0.359375l4.765625 7.703125q0.078125 -0.1875 0.15625 -0.375q0.09375 -0.1875 0.203125 -0.375l4.375 -6.890625q0.3125 -0.53125 0.828125 -0.53125l3.734375 0l-6.75 10.015625l6.9375 10.953125l-3.90625 0q-0.390625 0 -0.625 -0.203125q-0.234375 -0.203125 -0.390625 -0.46875l-4.859375 -8.03125q-0.0625 0.171875 -0.140625 0.328125q-0.0625 0.15625 -0.140625 0.28125l-4.65625 7.421875q-0.15625 0.25 -0.390625 0.46875q-0.234375 0.203125 -0.578125 0.203125l-3.65625 0l6.984375 -10.78125zm31.996185 10.78125l-1.609375 0q-0.515625 0 -0.8125 -0.140625q-0.28125 -0.15625 -0.421875 -0.625l-0.328125 -1.0625q-0.5625 0.515625 -1.109375 0.90625q-0.53125 0.375 -1.125 0.640625q-0.578125 0.25 -1.234375 0.375q-0.640625 0.140625 -1.4375 0.140625q-0.953125 0 -1.75 -0.25q-0.796875 -0.265625 -1.375 -0.765625q-0.5625 -0.515625 -0.890625 -1.265625q-0.3125 -0.75 -0.3125 -1.75q0 -0.84375 0.4375 -1.65625q0.453125 -0.828125 1.484375 -1.484375q1.03125 -0.65625 2.734375 -1.09375q1.71875 -0.4375 4.25 -0.5l0 -0.859375q0 -1.5 -0.640625 -2.21875q-0.625 -0.71875 -1.828125 -0.71875q-0.859375 0 -1.453125 0.203125q-0.578125 0.203125 -1.0 0.46875q-0.421875 0.25 -0.796875 0.453125q-0.359375 0.203125 -0.796875 0.203125q-0.359375 0 -0.625 -0.1875q-0.25 -0.1875 -0.421875 -0.46875l-0.640625 -1.140625q2.5625 -2.359375 6.1875 -2.359375q1.296875 0 2.3125 0.4375q1.03125 0.421875 1.734375 1.1875q0.71875 0.75 1.09375 1.8125q0.375 1.0625 0.375 2.328125l0 9.390625zm-6.96875 -2.234375q0.546875 0 1.015625 -0.09375q0.46875 -0.109375 0.875 -0.3125q0.421875 -0.203125 0.796875 -0.5q0.390625 -0.296875 0.78125 -0.703125l0 -2.5q-1.5625 0.0625 -2.625 0.265625q-1.046875 0.1875 -1.6875 0.5q-0.625 0.296875 -0.90625 0.703125q-0.265625 0.40625 -0.265625 0.890625q0 0.9375 0.5625 1.34375q0.5625 0.40625 1.453125 0.40625zm10.650269 2.234375l0 -14.875l2.203125 0q0.6875 0 0.90625 0.65625l0.25 1.171875q0.453125 -0.46875 0.953125 -0.84375q0.5 -0.375 1.046875 -0.640625q0.5625 -0.28125 1.203125 -0.421875q0.640625 -0.15625 1.390625 -0.15625q1.21875 0 2.15625 0.421875q0.953125 0.40625 1.578125 1.15625q0.625 0.75 0.953125 1.78125q0.328125 1.03125 0.328125 2.28125l0 9.46875l-3.578125 0l0 -9.46875q0 -1.359375 -0.640625 -2.109375q-0.625 -0.75 -1.890625 -0.75q-0.921875 0 -1.734375 0.421875q-0.8125 0.421875 -1.53125 1.140625l0 10.765625l-3.59375 0zm27.157532 0q-0.703125 0 -0.921875 -0.65625l-0.296875 -1.4375q-0.453125 0.53125 -0.96875 0.953125q-0.5 0.421875 -1.09375 0.734375q-0.578125 0.296875 -1.265625 0.453125q-0.671875 0.171875 -1.453125 0.171875q-1.21875 0 -2.234375 -0.5q-1.015625 -0.515625 -1.75 -1.46875q-0.71875 -0.96875 -1.125 -2.390625q-0.390625 -1.421875 -0.390625 -3.25q0 -1.65625 0.4375 -3.078125q0.453125 -1.421875 1.296875 -2.46875q0.84375 -1.046875 2.015625 -1.625q1.171875 -0.59375 2.640625 -0.59375q1.25 0 2.125 0.40625q0.890625 0.390625 1.578125 1.0625l0 -7.859375l3.59375 0l0 21.546875l-2.1875 0zm-4.78125 -2.625q1.125 0 1.90625 -0.453125q0.78125 -0.46875 1.46875 -1.328125l0 -6.671875q-0.609375 -0.734375 -1.328125 -1.03125q-0.703125 -0.3125 -1.53125 -0.3125q-0.8125 0 -1.484375 0.3125q-0.65625 0.296875 -1.109375 0.921875q-0.453125 0.609375 -0.703125 1.5625q-0.25 0.9375 -0.25 2.234375q0 1.296875 0.203125 2.203125q0.21875 0.90625 0.609375 1.484375q0.390625 0.578125 0.953125 0.828125q0.578125 0.25 1.265625 0.25zm26.205658 -5.53125l0 8.15625l-3.890625 0l0 -8.15625l-7.640625 -12.8125l3.421875 0q0.515625 0 0.8125 0.25q0.296875 0.25 0.5 0.625l3.84375 7.0q0.328125 0.625 0.578125 1.1875q0.25 0.546875 0.453125 1.09375q0.1875 -0.5625 0.421875 -1.109375q0.234375 -0.5625 0.578125 -1.171875l3.8125 -7.0q0.15625 -0.328125 0.46875 -0.59375q0.328125 -0.28125 0.8125 -0.28125l3.453125 0l-7.625 12.8125z" fill-rule="nonzero"></path><path fill="#6d9eeb" d="m311.50732 312.48798l0 0c0 -8.671295 7.4243164 -15.700775 16.582672 -15.700775l0 0c4.3980103 0 8.615875 1.6541748 11.725739 4.5986633c3.1098328 2.944458 4.8569336 6.938019 4.8569336 11.102112l0 0c0 8.671326 -7.4243164 15.700806 -16.582672 15.700806l0 0c-9.158356 0 -16.582672 -7.02948 -16.582672 -15.700806z" fill-rule="nonzero"></path><path fill="#6d9eeb" d="m53.632835 150.81892l0 0c0 -8.67131 7.42432 -15.70079 16.58268 -15.70079l0 0c4.397995 0 8.615868 1.6541901 11.725723 4.598648c3.1098557 2.9444733 4.8569565 6.938034 4.8569565 11.102142l0 0c0 8.67131 -7.424324 15.70079 -16.58268 15.70079l0 0c-9.15836 0 -16.58268 -7.02948 -16.58268 -15.70079z" fill-rule="nonzero"></path><path fill="#000000" fill-opacity="0.0" d="m148.14949 151.41331l164.85039 0l0 62.740158l-164.85039 0z" fill-rule="nonzero"></path><path fill="#ffffff" d="m223.6705 194.5034l-3.328125 0q-0.5625 0 -0.921875 -0.28125q-0.359375 -0.28125 -0.515625 -0.6875l-1.734375 -4.734375l-9.578125 0l-1.734375 4.734375q-0.125 0.359375 -0.5 0.671875q-0.375 0.296875 -0.921875 0.296875l-3.34375 0l9.09375 -23.140625l4.390625 0l9.09375 23.140625zm-14.96875 -8.734375l7.375 0l-2.828125 -7.703125q-0.1875 -0.5 -0.421875 -1.203125q-0.234375 -0.703125 -0.453125 -1.515625q-0.21875 0.8125 -0.4375 1.53125q-0.21875 0.703125 -0.421875 1.21875l-2.8125 7.671875zm17.126297 8.734375l0 -16.421875l2.421875 0q0.765625 0 1.0 0.71875l0.28125 1.296875q0.484375 -0.5 1.03125 -0.921875q0.5625 -0.421875 1.171875 -0.71875q0.625 -0.3125 1.328125 -0.46875q0.703125 -0.15625 1.53125 -0.15625q1.34375 0 2.375 0.453125q1.046875 0.453125 1.75 1.28125q0.703125 0.828125 1.0625 1.96875q0.359375 1.140625 0.359375 2.515625l0 10.453125l-3.953125 0l0 -10.453125q0 -1.5 -0.703125 -2.3125q-0.6875 -0.828125 -2.078125 -0.828125q-1.03125 0 -1.9375 0.46875q-0.890625 0.453125 -1.6875 1.25l0 11.875l-3.953125 0zm29.738907 0q-0.765625 0 -1.0 -0.71875l-0.3125 -1.578125q-0.515625 0.5625 -1.078125 1.03125q-0.5625 0.46875 -1.21875 0.8125q-0.640625 0.328125 -1.390625 0.5q-0.734375 0.1875 -1.59375 0.1875q-1.34375 0 -2.46875 -0.546875q-1.125 -0.5625 -1.9375 -1.625q-0.796875 -1.078125 -1.25 -2.640625q-0.4375 -1.5625 -0.4375 -3.578125q0 -1.828125 0.5 -3.390625q0.5 -1.578125 1.421875 -2.71875q0.9375 -1.15625 2.234375 -1.796875q1.296875 -0.65625 2.90625 -0.65625q1.375 0 2.34375 0.4375q0.984375 0.4375 1.75 1.171875l0 -8.671875l3.953125 0l0 23.78125l-2.421875 0zm-5.25 -2.890625q1.21875 0 2.078125 -0.515625q0.875 -0.515625 1.640625 -1.453125l0 -7.359375q-0.671875 -0.828125 -1.46875 -1.15625q-0.78125 -0.34375 -1.703125 -0.34375q-0.890625 0 -1.625 0.34375q-0.71875 0.328125 -1.234375 1.015625q-0.5 0.671875 -0.765625 1.734375q-0.265625 1.046875 -0.265625 2.46875q0 1.4375 0.21875 2.4375q0.234375 1.0 0.671875 1.640625q0.4375 0.625 1.046875 0.90625q0.625 0.28125 1.40625 0.28125z" fill-rule="nonzero"></path><path fill="#000000" fill-opacity="0.0" d="m-3.850419 92.31233l82.42519 0l0 62.740158l-82.42519 0z" fill-rule="nonzero"></path><path fill="#6d9eeb" d="m34.56146 123.561165l-6.687502 -10.1875l3.875 0q0.4062519 0 0.5937519 0.109375q0.1875 0.109375 0.328125 0.359375l4.765625 7.703125q0.078125 -0.1875 0.15625 -0.375q0.09375 -0.1875 0.203125 -0.375l4.375 -6.890625q0.3125 -0.53125 0.828125 -0.53125l3.734375 0l-6.75 10.015625l6.9375 10.953117l-3.90625 0q-0.390625 0 -0.625 -0.203125q-0.234375 -0.203125 -0.390625 -0.46875l-4.859375 -8.031242q-0.0625 0.171875 -0.140625 0.328125q-0.0625 0.15625 -0.140625 0.28125l-4.65625 7.4218674q-0.15625 0.25 -0.3906269 0.46875q-0.234375 0.203125 -0.578125 0.203125l-3.65625 0l6.984377 -10.781242z" fill-rule="nonzero"></path></g></svg>

