<?xml version="1.0" standalone="yes"?>

<svg version="1.1" viewBox="0.0 0.0 366.0 310.0" fill="none" stroke="none" stroke-linecap="square" stroke-miterlimit="10" xmlns="http://www.w3.org/2000/svg" xmlns:xlink="http://www.w3.org/1999/xlink"><clipPath id="p.0"><path d="m0 0l366.0 0l0 310.0l-366.0 0l0 -310.0z" clip-rule="nonzero"></path></clipPath><g clip-path="url(#p.0)"><path fill="#000000" fill-opacity="0.0" d="m0 0l366.51443 0l0 310.85565l-366.51443 0z" fill-rule="nonzero"></path><path fill="#434343" d="m64.0 144.0l0 0c0 -66.27417 53.72583 -120.0 120.0 -120.0l0 0c31.825989 0 62.34845 12.642822 84.85281 35.147186c22.504364 22.504364 35.147186 53.02684 35.147186 84.85281l0 0c0 66.27417 -53.72583 120.0 -120.0 120.0l0 0c-66.27417 0 -120.0 -53.72583 -120.0 -120.0z" fill-rule="nonzero"></path><path fill="#ffffff" d="m176.82094 150.92l-1.984375 0q-0.328125 0 -0.546875 -0.15625q-0.21875 -0.171875 -0.3125 -0.421875l-1.015625 -2.796875l-5.703125 0l-1.015625 2.796875q-0.078125 0.21875 -0.3125 0.40625q-0.21875 0.171875 -0.53125 0.171875l-1.984375 0l5.390625 -13.734375l2.609375 0l5.40625 13.734375zm-8.90625 -5.1875l4.390625 0l-1.671875 -4.5625q-0.125 -0.3125 -0.265625 -0.71875q-0.125 -0.421875 -0.265625 -0.90625q-0.125 0.484375 -0.265625 0.90625q-0.125 0.421875 -0.25 0.734375l-1.671875 4.546875zm11.402191 -8.546875q0.171875 0 0.28125 0.015625q0.125 0.015625 0.21875 0.0625q0.09375 0.03125 0.171875 0.109375q0.09375 0.078125 0.1875 0.21875l7.21875 9.1875q-0.046875 -0.328125 -0.0625 -0.640625q-0.015625 -0.328125 -0.015625 -0.609375l0 -8.34375l2.265625 0l0 13.734375l-1.328125 0q-0.296875 0 -0.5 -0.09375q-0.203125 -0.09375 -0.390625 -0.34375l-7.1875 -9.140625q0.03125 0.296875 0.046875 0.59375q0.015625 0.296875 0.015625 0.546875l0 8.4375l-2.25 0l0 -13.734375l1.328125 0l0 0zm24.963501 6.859375q0 1.515625 -0.5 2.78125q-0.5 1.265625 -1.421875 2.1875q-0.90625 0.90625 -2.1875 1.40625q-1.28125 0.5 -2.84375 0.5l-5.234375 0l0 -13.734375l5.234375 0q1.5625 0 2.84375 0.515625q1.28125 0.5 2.1875 1.40625q0.921875 0.90625 1.421875 2.171875q0.5 1.265625 0.5 2.765625zm-2.609375 0q0 -1.125 -0.3125 -2.015625q-0.296875 -0.90625 -0.859375 -1.515625q-0.546875 -0.625 -1.359375 -0.953125q-0.796875 -0.34375 -1.8125 -0.34375l-2.65625 0l0 9.671875l2.65625 0q1.015625 0 1.8125 -0.328125q0.8125 -0.34375 1.359375 -0.953125q0.5625 -0.625 0.859375 -1.515625q0.3125 -0.90625 0.3125 -2.046875z" fill-rule="nonzero"></path><path fill="#6d9eeb" d="m256.0 60.0l0 0c0 -6.6274185 5.372589 -12.0 12.0 -12.0l0 0c3.1825867 0 6.234833 1.2642822 8.485291 3.514717c2.2504272 2.2504387 3.5147095 5.302685 3.5147095 8.485283l0 0c0 6.6274185 -5.372589 12.0 -12.0 12.0l0 0c-6.627411 0 -12.0 -5.3725815 -12.0 -12.0z" fill-rule="nonzero"></path><path fill="#6d9eeb" d="m248.0 236.0l0 0c0 -6.627411 5.372589 -12.0 12.0 -12.0l0 0c3.1825867 0 6.234833 1.2642822 8.485291 3.5147247c2.2504272 2.2504272 3.5147095 5.3026733 3.5147095 8.485275l0 0c0 6.627411 -5.372589 12.0 -12.0 12.0l0 0c-6.627411 0 -12.0 -5.372589 -12.0 -12.0z" fill-rule="nonzero"></path><path fill="#6d9eeb" d="m56.0 116.0l0 0c0 -6.6274185 5.3725815 -12.0 12.0 -12.0l0 0c3.1825943 0 6.234848 1.2642822 8.485283 3.514717c2.2504349 2.2504349 3.514717 5.3026886 3.514717 8.485283l0 0c0 6.6274185 -5.3725815 12.0 -12.0 12.0l0 0c-6.6274185 0 -12.0 -5.3725815 -12.0 -12.0z" fill-rule="nonzero"></path><path fill="#000000" fill-opacity="0.0" d="m16.0 88.0l48.0 0l0 48.0l-48.0 0z" fill-rule="nonzero"></path><path fill="#434343" d="m38.3537 111.8575l-4.390625 -6.671875l2.546875 0q0.265625 0 0.390625 0.078125q0.125 0.0625 0.21875 0.21875l3.125 5.046875q0.046875 -0.125 0.09375 -0.234375q0.0625 -0.125 0.140625 -0.25l2.859375 -4.515625q0.203125 -0.34375 0.546875 -0.34375l2.4375 0l-4.421875 6.5625l4.546875 7.171875l-2.546875 0q-0.265625 0 -0.421875 -0.125q-0.15625 -0.140625 -0.25 -0.3125l-3.1875 -5.265625q-0.03125 0.109375 -0.09375 0.21875q-0.046875 0.09375 -0.09375 0.1875l-3.046875 4.859375q-0.09375 0.15625 -0.25 0.296875q-0.15625 0.140625 -0.375 0.140625l-2.40625 0l4.578125 -7.0625z" fill-rule="nonzero"></path><path fill="#000000" fill-opacity="0.0" d="m256.0 232.0l48.0 0l0 48.0l-48.0 0z" fill-rule="nonzero"></path><path fill="#434343" d="m281.39474 257.57623l0 5.34375l-2.5625 0l0 -5.34375l-5.0 -8.39061l2.25 0q0.328125 0 0.515625 0.171875q0.203125 0.15625 0.34375 0.390625l2.515625 4.59375q0.21875 0.40625 0.375 0.78125q0.15625 0.359375 0.296875 0.703125q0.125 -0.359375 0.28125 -0.71875q0.15625 -0.359375 0.375 -0.765625l2.5 -4.59375q0.09375 -0.203125 0.296875 -0.375q0.21875 -0.1875 0.546875 -0.1875l2.265625 0l-5.0 8.39061z" fill-rule="nonzero"></path><path fill="#000000" fill-opacity="0.0" d="m272.0 16.0l84.346466 0l0 48.0l-84.346466 0z" fill-rule="nonzero"></path><path fill="#434343" d="m287.31766 39.8575l-4.390625 -6.671875l2.546875 0q0.265625 0 0.390625 0.078125q0.125 0.0625 0.21875 0.21875l3.125 5.046875q0.046875 -0.125 0.09375 -0.234375q0.0625 -0.125 0.140625 -0.25l2.859375 -4.515625q0.203125 -0.34375 0.546875 -0.34375l2.4375 0l-4.421875 6.5625l4.546875 7.171875l-2.546875 0q-0.265625 0 -0.421875 -0.125q-0.15625 -0.140625 -0.25 -0.3125l-3.1875 -5.265625q-0.03125 0.109375 -0.09375 0.21875q-0.046875 0.09375 -0.09375 0.1875l-3.046875 4.859375q-0.09375 0.15625 -0.25 0.296875q-0.15625 0.140625 -0.375 0.140625l-2.40625 0l4.578125 -7.0625zm20.471375 7.0625l-1.046875 0q-0.34375 0 -0.53125 -0.09375q-0.1875 -0.109375 -0.28125 -0.40625l-0.203125 -0.703125q-0.375 0.34375 -0.734375 0.59375q-0.359375 0.25 -0.734375 0.421875q-0.375 0.171875 -0.8125 0.25q-0.421875 0.09375 -0.953125 0.09375q-0.609375 0 -1.140625 -0.171875q-0.515625 -0.171875 -0.890625 -0.5q-0.375 -0.328125 -0.59375 -0.8125q-0.203125 -0.5 -0.203125 -1.15625q0 -0.5625 0.28125 -1.09375q0.296875 -0.53125 0.96875 -0.96875q0.6875 -0.4375 1.796875 -0.71875q1.125 -0.28125 2.796875 -0.328125l0 -0.5625q0 -0.984375 -0.421875 -1.453125q-0.40625 -0.46875 -1.203125 -0.46875q-0.5625 0 -0.953125 0.140625q-0.375 0.125 -0.65625 0.296875q-0.28125 0.171875 -0.515625 0.3125q-0.234375 0.125 -0.515625 0.125q-0.25 0 -0.421875 -0.125q-0.171875 -0.125 -0.265625 -0.3125l-0.4375 -0.75q1.6875 -1.53125 4.0625 -1.53125q0.859375 0 1.515625 0.28125q0.671875 0.28125 1.140625 0.78125q0.46875 0.484375 0.703125 1.1875q0.25 0.6875 0.25 1.515625l0 6.15625zm-4.5625 -1.46875q0.359375 0 0.65625 -0.0625q0.3125 -0.0625 0.578125 -0.1875q0.28125 -0.140625 0.53125 -0.328125q0.25 -0.203125 0.515625 -0.46875l0 -1.640625q-1.03125 0.046875 -1.71875 0.171875q-0.6875 0.125 -1.109375 0.328125q-0.421875 0.203125 -0.59375 0.46875q-0.171875 0.265625 -0.171875 0.578125q0 0.609375 0.359375 0.875q0.375 0.265625 0.953125 0.265625zm6.688446 1.46875l0 -9.75l1.4375 0q0.453125 0 0.59375 0.4375l0.171875 0.765625q0.296875 -0.3125 0.625 -0.546875q0.328125 -0.25 0.6875 -0.421875q0.359375 -0.1875 0.78125 -0.28125q0.421875 -0.109375 0.90625 -0.109375q0.8125 0 1.421875 0.28125q0.625 0.265625 1.03125 0.765625q0.40625 0.484375 0.625 1.171875q0.21875 0.671875 0.21875 1.484375l0 6.203125l-2.34375 0l0 -6.203125q0 -0.890625 -0.421875 -1.375q-0.40625 -0.5 -1.234375 -0.5q-0.609375 0 -1.140625 0.28125q-0.53125 0.265625 -1.015625 0.75l0 7.046875l-2.34375 0zm17.465454 0q-0.453125 0 -0.59375 -0.421875l-0.1875 -0.953125q-0.3125 0.34375 -0.640625 0.625q-0.328125 0.28125 -0.71875 0.484375q-0.375 0.1875 -0.828125 0.296875q-0.4375 0.109375 -0.953125 0.109375q-0.796875 0 -1.46875 -0.328125q-0.65625 -0.328125 -1.140625 -0.953125q-0.46875 -0.640625 -0.734375 -1.5625q-0.265625 -0.9375 -0.265625 -2.140625q0 -1.078125 0.296875 -2.015625q0.296875 -0.9375 0.84375 -1.609375q0.546875 -0.6875 1.3125 -1.0625q0.78125 -0.390625 1.734375 -0.390625q0.828125 0 1.40625 0.265625q0.578125 0.25 1.03125 0.6875l0 -5.140625l2.34375 0l0 14.109375l-1.4375 0zm-3.125 -1.71875q0.734375 0 1.25 -0.296875q0.515625 -0.3125 0.96875 -0.875l0 -4.375q-0.40625 -0.484375 -0.875 -0.671875q-0.46875 -0.203125 -1.015625 -0.203125q-0.53125 0 -0.96875 0.203125q-0.421875 0.1875 -0.71875 0.59375q-0.296875 0.40625 -0.46875 1.03125q-0.15625 0.625 -0.15625 1.46875q0 0.859375 0.140625 1.453125q0.140625 0.59375 0.390625 0.96875q0.265625 0.375 0.625 0.546875q0.375 0.15625 0.828125 0.15625zm16.750366 -3.625l0 5.34375l-2.5625 0l0 -5.34375l-5.0000305 -8.390625l2.25 0q0.32815552 0 0.5156555 0.171875q0.203125 0.15625 0.34375 0.390625l2.515625 4.59375q0.21875 0.40625 0.375 0.78125q0.15625 0.359375 0.296875 0.703125q0.125 -0.359375 0.28125 -0.71875q0.15625 -0.359375 0.375 -0.765625l2.5 -4.59375q0.09375 -0.203125 0.296875 -0.375q0.21875 -0.1875 0.546875 -0.1875l2.265625 0l-5.0 8.390625z" fill-rule="nonzero"></path></g></svg>

