<?xml version="1.0" standalone="yes"?>

<svg version="1.1" viewBox="0.0 0.0 556.0 644.0" fill="none" stroke="none" stroke-linecap="square" stroke-miterlimit="10" xmlns="http://www.w3.org/2000/svg" xmlns:xlink="http://www.w3.org/1999/xlink"><clipPath id="p.0"><path d="m0 0l556.0 0l0 644.0l-556.0 0l0 -644.0z" clip-rule="nonzero"></path></clipPath><g clip-path="url(#p.0)"><path fill="#000000" fill-opacity="0.0" d="m0 0l556.3517 0l0 644.47504l-556.3517 0z" fill-rule="nonzero"></path><path fill="#666666" d="m31.66536 360.42914l0 0c0 -137.41019 111.39296 -248.80315 248.80315 -248.80315l0 0c65.986694 0 129.27075 26.21312 175.93039 72.87276c46.659637 46.659637 72.87277 109.943695 72.87277 175.93039l0 0c0 137.41019 -111.392975 248.80316 -248.80316 248.80316l0 0c-137.41019 0 -248.80315 -111.392975 -248.80315 -248.80316z" fill-rule="nonzero"></path><path fill="#000000" fill-opacity="0.0" d="m186.08676 387.07678c14.408035 -24.373657 33.232025 -46.55945 55.74588 -65.7016l203.97314 182.48572z" fill-rule="nonzero"></path><path fill="#000000" fill-opacity="0.0" d="m186.08676 387.07678c14.408035 -24.373657 33.232025 -46.55945 55.74588 -65.7016" fill-rule="nonzero"></path><path stroke="#ffffff" stroke-width="3.0" stroke-linejoin="round" stroke-linecap="butt" d="m186.08676 387.07678c14.408035 -24.373657 33.232025 -46.55945 55.74588 -65.7016" fill-rule="nonzero"></path><path fill="#ffffff" d="m218.05249 266.67322l0 0c0 -40.860367 33.123886 -73.98424 73.98425 -73.98424l0 0c19.621857 0 38.440033 7.794739 52.31476 21.66948c13.874756 13.874741 21.669495 32.692932 21.669495 52.31476l0 0c0 40.860382 -33.12387 73.98425 -73.98425 73.98425l0 0c-40.860367 0 -73.98425 -33.12387 -73.98425 -73.98425z" fill-rule="nonzero"></path><path fill="#666666" d="m268.55652 265.48135q-0.109375 0.171875 -0.234375 0.234375q-0.109375 0.0625 -0.28125 0.0625q-0.1875 0 -0.40625 -0.09375q-0.21875 -0.109375 -0.5 -0.234375q-0.28125 -0.140625 -0.640625 -0.234375q-0.359375 -0.109375 -0.859375 -0.109375q-0.765625 0 -1.203125 0.328125q-0.4375 0.3125 -0.4375 0.84375q0 0.34375 0.21875 0.578125q0.234375 0.234375 0.59375 0.421875q0.375 0.171875 0.84375 0.3125q0.484375 0.140625 0.96875 0.3125q0.5 0.171875 0.96875 0.390625q0.46875 0.203125 0.84375 0.546875q0.375 0.328125 0.59375 0.796875q0.234375 0.453125 0.234375 1.109375q0 0.765625 -0.28125 1.421875q-0.28125 0.65625 -0.828125 1.140625q-0.546875 0.46875 -1.359375 0.75q-0.796875 0.265625 -1.84375 0.265625q-0.546875 0 -1.078125 -0.109375q-0.53125 -0.09375 -1.03125 -0.265625q-0.484375 -0.1875 -0.90625 -0.421875q-0.40625 -0.25 -0.71875 -0.53125l0.609375 -0.984375q0.109375 -0.1875 0.265625 -0.28125q0.15625 -0.09375 0.40625 -0.09375q0.234375 0 0.453125 0.140625q0.21875 0.140625 0.5 0.296875q0.28125 0.15625 0.65625 0.296875q0.390625 0.125 0.984375 0.125q0.453125 0 0.78125 -0.109375q0.328125 -0.109375 0.546875 -0.28125q0.21875 -0.171875 0.3125 -0.40625q0.109375 -0.25 0.109375 -0.5q0 -0.375 -0.234375 -0.609375q-0.21875 -0.25 -0.59375 -0.421875q-0.375 -0.1875 -0.859375 -0.328125q-0.46875 -0.140625 -0.96875 -0.296875q-0.5 -0.171875 -0.984375 -0.390625q-0.46875 -0.234375 -0.84375 -0.578125q-0.375 -0.359375 -0.609375 -0.859375q-0.21875 -0.5 -0.21875 -1.21875q0 -0.65625 0.265625 -1.25q0.265625 -0.609375 0.765625 -1.046875q0.515625 -0.453125 1.28125 -0.71875q0.765625 -0.265625 1.75 -0.265625q1.125 0 2.03125 0.375q0.921875 0.359375 1.53125 0.953125l-0.59375 0.9375zm1.617218 -2.09375l2.046875 0q0.296875 0 0.5 0.140625q0.203125 0.125 0.25 0.328125l1.546875 5.765625q0.125 0.46875 0.203125 0.921875q0.078125 0.453125 0.15625 0.90625q0.109375 -0.453125 0.234375 -0.90625q0.140625 -0.453125 0.28125 -0.921875l1.796875 -5.78125q0.0625 -0.203125 0.25 -0.34375q0.1875 -0.140625 0.4375 -0.140625l1.140625 0q0.28125 0 0.46875 0.140625q0.203125 0.140625 0.265625 0.34375l1.75 5.875q0.140625 0.453125 0.25 0.890625q0.109375 0.421875 0.21875 0.84375q0.078125 -0.453125 0.15625 -0.890625q0.09375 -0.453125 0.234375 -0.9375l1.59375 -5.765625q0.046875 -0.203125 0.25 -0.328125q0.203125 -0.140625 0.46875 -0.140625l1.953125 0l-3.40625 10.765625l-2.09375 0q-0.328125 0 -0.484375 -0.46875l-1.9375 -6.21875q-0.09375 -0.3125 -0.171875 -0.609375q-0.078125 -0.3125 -0.125 -0.625q-0.0625 0.3125 -0.140625 0.625q-0.078125 0.3125 -0.171875 0.625l-1.96875 6.203125q-0.140625 0.46875 -0.5625 0.46875l-1.984375 0l-3.40625 -10.765625zm20.932922 0l0 10.765625l-2.59375 0l0 -10.765625l2.59375 0zm0.390625 -3.140625q0 0.328125 -0.140625 0.625q-0.125 0.296875 -0.359375 0.515625q-0.21875 0.21875 -0.53125 0.359375q-0.296875 0.125 -0.640625 0.125q-0.34375 0 -0.640625 -0.125q-0.296875 -0.140625 -0.515625 -0.359375q-0.21875 -0.21875 -0.359375 -0.515625q-0.125 -0.296875 -0.125 -0.625q0 -0.359375 0.125 -0.65625q0.140625 -0.3125 0.359375 -0.53125q0.21875 -0.21875 0.515625 -0.34375q0.296875 -0.140625 0.640625 -0.140625q0.34375 0 0.640625 0.140625q0.3125 0.125 0.53125 0.34375q0.234375 0.21875 0.359375 0.53125q0.140625 0.296875 0.140625 0.65625zm6.1705017 14.078125q-1.390625 0 -2.15625 -0.796875q-0.75 -0.796875 -0.75 -2.1875l0 -6.015625l-1.09375 0q-0.203125 0 -0.359375 -0.140625q-0.15625 -0.140625 -0.15625 -0.40625l0 -1.03125l1.734375 -0.28125l0.546875 -2.9375q0.046875 -0.21875 0.1875 -0.328125q0.15625 -0.109375 0.390625 -0.109375l1.34375 0l0 3.390625l2.828125 0l0 1.84375l-2.828125 0l0 5.828125q0 0.515625 0.25 0.796875q0.25 0.28125 0.671875 0.28125q0.25 0 0.40625 -0.046875q0.15625 -0.0625 0.28125 -0.125q0.125 -0.0625 0.21875 -0.125q0.09375 -0.0625 0.1875 -0.0625q0.109375 0 0.1875 0.0625q0.078125 0.0625 0.15625 0.171875l0.78125 1.265625q-0.5625 0.46875 -1.296875 0.71875q-0.734375 0.234375 -1.53125 0.234375zm12.285156 -8.671875q-0.109375 0.15625 -0.21875 0.25q-0.109375 0.078125 -0.328125 0.078125q-0.1875 0 -0.390625 -0.125q-0.1875 -0.125 -0.453125 -0.265625q-0.25 -0.15625 -0.625 -0.28125q-0.359375 -0.125 -0.890625 -0.125q-0.6875 0 -1.203125 0.25q-0.5 0.25 -0.84375 0.71875q-0.34375 0.453125 -0.515625 1.109375q-0.171875 0.65625 -0.171875 1.484375q0 0.859375 0.1875 1.53125q0.1875 0.671875 0.53125 1.140625q0.34375 0.453125 0.828125 0.6875q0.5 0.234375 1.125 0.234375q0.625 0 1.0 -0.15625q0.390625 -0.15625 0.640625 -0.328125q0.265625 -0.1875 0.453125 -0.34375q0.203125 -0.15625 0.453125 -0.15625q0.3125 0 0.46875 0.25l0.75 0.9375q-0.4375 0.5 -0.9375 0.84375q-0.5 0.34375 -1.046875 0.546875q-0.546875 0.203125 -1.125 0.28125q-0.578125 0.09375 -1.140625 0.09375q-1.0 0 -1.890625 -0.375q-0.875 -0.375 -1.53125 -1.078125q-0.65625 -0.71875 -1.046875 -1.75q-0.375 -1.03125 -0.375 -2.359375q0 -1.1875 0.34375 -2.203125q0.34375 -1.015625 1.0 -1.75q0.671875 -0.734375 1.640625 -1.15625q0.984375 -0.421875 2.25 -0.421875q1.203125 0 2.109375 0.390625q0.921875 0.390625 1.640625 1.109375l-0.6875 0.9375zm2.610962 8.5l0 -15.609375l2.59375 0l0 6.0q0.625 -0.59375 1.375 -0.953125q0.765625 -0.375 1.78125 -0.375q0.875 0 1.5625 0.296875q0.6875 0.296875 1.140625 0.84375q0.453125 0.53125 0.6875 1.28125q0.234375 0.75 0.234375 1.65625l0 6.859375l-2.59375 0l0 -6.859375q0 -0.984375 -0.453125 -1.515625q-0.453125 -0.546875 -1.359375 -0.546875q-0.671875 0 -1.265625 0.3125q-0.59375 0.296875 -1.109375 0.8125l0 7.796875l-2.59375 0z" fill-rule="nonzero"></path><path fill="#ffffff" d="m135.17192 418.82022l0 0c0 -21.047699 17.06253 -38.11026 38.11023 -38.11026l0 0c10.107468 0 19.80095 4.0151978 26.948013 11.162231c7.147049 7.147064 11.162231 16.840546 11.162231 26.948029l0 0c0 21.047699 -17.062546 38.11023 -38.110245 38.11023l0 0c-21.047699 0 -38.11023 -17.06253 -38.11023 -38.11023z" fill-rule="nonzero"></path><path fill="#666666" d="m165.00345 417.62833q-0.109375 0.171875 -0.234375 0.234375q-0.109375 0.0625 -0.28125 0.0625q-0.1875 0 -0.40625 -0.09375q-0.21875 -0.109375 -0.5 -0.234375q-0.28125 -0.140625 -0.640625 -0.234375q-0.359375 -0.109375 -0.859375 -0.109375q-0.765625 0 -1.203125 0.328125q-0.4375 0.3125 -0.4375 0.84375q0 0.34375 0.21875 0.578125q0.234375 0.234375 0.59375 0.421875q0.375 0.171875 0.84375 0.3125q0.484375 0.140625 0.96875 0.3125q0.5 0.171875 0.96875 0.390625q0.46875 0.203125 0.84375 0.546875q0.375 0.328125 0.59375 0.796875q0.234375 0.453125 0.234375 1.109375q0 0.765625 -0.28125 1.421875q-0.28125 0.65625 -0.828125 1.140625q-0.546875 0.46875 -1.359375 0.75q-0.796875 0.265625 -1.84375 0.265625q-0.546875 0 -1.078125 -0.109375q-0.53125 -0.09375 -1.03125 -0.265625q-0.484375 -0.1875 -0.90625 -0.421875q-0.40625 -0.25 -0.71875 -0.53125l0.609375 -0.984375q0.109375 -0.1875 0.265625 -0.28125q0.15625 -0.09375 0.40625 -0.09375q0.234375 0 0.453125 0.140625q0.21875 0.140625 0.5 0.296875q0.28125 0.15625 0.65625 0.296875q0.390625 0.125 0.984375 0.125q0.453125 0 0.78125 -0.109375q0.328125 -0.109375 0.546875 -0.28125q0.21875 -0.171875 0.3125 -0.40625q0.109375 -0.25 0.109375 -0.5q0 -0.375 -0.234375 -0.609375q-0.21875 -0.25 -0.59375 -0.421875q-0.375 -0.1875 -0.859375 -0.328125q-0.46875 -0.140625 -0.96875 -0.296875q-0.5 -0.171875 -0.984375 -0.390625q-0.46875 -0.234375 -0.84375 -0.578125q-0.375 -0.359375 -0.609375 -0.859375q-0.21875 -0.5 -0.21875 -1.21875q0 -0.65625 0.265625 -1.25q0.265625 -0.609375 0.765625 -1.046875q0.515625 -0.453125 1.28125 -0.71875q0.765625 -0.265625 1.75 -0.265625q1.125 0 2.03125 0.375q0.921875 0.359375 1.53125 0.953125l-0.59375 0.9375zm7.3828278 -2.265625q1.015625 0 1.859375 0.328125q0.859375 0.3125 1.484375 0.9375q0.625 0.625 0.96875 1.546875q0.34375 0.90625 0.34375 2.0625q0 0.296875 -0.03125 0.5q-0.015625 0.1875 -0.09375 0.296875q-0.0625 0.109375 -0.1875 0.15625q-0.109375 0.046875 -0.28125 0.046875l-6.65625 0q0.109375 1.65625 0.875 2.4375q0.78125 0.78125 2.0625 0.78125q0.640625 0 1.09375 -0.140625q0.453125 -0.15625 0.796875 -0.328125q0.34375 -0.1875 0.59375 -0.328125q0.265625 -0.15625 0.5 -0.15625q0.15625 0 0.265625 0.0625q0.125 0.0625 0.21875 0.1875l0.75 0.9375q-0.4375 0.5 -0.96875 0.84375q-0.53125 0.34375 -1.125 0.546875q-0.578125 0.203125 -1.1875 0.28125q-0.59375 0.09375 -1.15625 0.09375q-1.125 0 -2.09375 -0.375q-0.96875 -0.375 -1.6875 -1.09375q-0.703125 -0.734375 -1.125 -1.8125q-0.40625 -1.078125 -0.40625 -2.5q0 -1.09375 0.359375 -2.0625q0.359375 -0.96875 1.015625 -1.6875q0.671875 -0.71875 1.625 -1.140625q0.96875 -0.421875 2.1875 -0.421875zm0.046875 1.859375q-1.140625 0 -1.78125 0.640625q-0.640625 0.640625 -0.8125 1.8125l4.875 0q0 -0.5 -0.140625 -0.9375q-0.140625 -0.453125 -0.421875 -0.78125q-0.28125 -0.34375 -0.71875 -0.53125q-0.421875 -0.203125 -1.0 -0.203125zm11.352921 -1.859375q1.015625 0 1.859375 0.328125q0.859375 0.3125 1.484375 0.9375q0.625 0.625 0.96875 1.546875q0.34375 0.90625 0.34375 2.0625q0 0.296875 -0.03125 0.5q-0.015625 0.1875 -0.09375 0.296875q-0.0625 0.109375 -0.1875 0.15625q-0.109375 0.046875 -0.28125 0.046875l-6.65625 0q0.109375 1.65625 0.875 2.4375q0.78125 0.78125 2.0625 0.78125q0.640625 0 1.09375 -0.140625q0.453125 -0.15625 0.796875 -0.328125q0.34375 -0.1875 0.59375 -0.328125q0.265625 -0.15625 0.5 -0.15625q0.15625 0 0.265625 0.0625q0.125 0.0625 0.21875 0.1875l0.75 0.9375q-0.4375 0.5 -0.96875 0.84375q-0.53125 0.34375 -1.125 0.546875q-0.578125 0.203125 -1.1875 0.28125q-0.59375 0.09375 -1.15625 0.09375q-1.125 0 -2.09375 -0.375q-0.96875 -0.375 -1.6875 -1.09375q-0.703125 -0.734375 -1.125 -1.8125q-0.40625 -1.078125 -0.40625 -2.5q0 -1.09375 0.359375 -2.0625q0.359375 -0.96875 1.015625 -1.6875q0.671875 -0.71875 1.625 -1.140625q0.96875 -0.421875 2.1875 -0.421875zm0.046875 1.859375q-1.140625 0 -1.78125 0.640625q-0.640625 0.640625 -0.8125 1.8125l4.875 0q0 -0.5 -0.140625 -0.9375q-0.140625 -0.453125 -0.421875 -0.78125q-0.28125 -0.34375 -0.71875 -0.53125q-0.421875 -0.203125 -1.0 -0.203125z" fill-rule="nonzero"></path><path fill="#6d9eeb" d="m115.04724 190.91077l59.123367 0l0 0l25.338577 0l16.892395 0l0 6.0734863l60.714264 -6.931671l-60.714264 16.0419l0 21.257217l-16.892395 0l-25.338577 0l0 0l-59.123367 0l0 -21.257217l0 -9.1102295l0 0z" fill-rule="nonzero"></path><path fill="#ffffff" d="m137.88483 204.81686q-0.109375 0.203125 -0.25 0.296875q-0.125 0.078125 -0.328125 0.078125q-0.1875 0 -0.421875 -0.140625q-0.234375 -0.15625 -0.5625 -0.328125q-0.3125 -0.1875 -0.75 -0.328125q-0.4375 -0.15625 -1.015625 -0.15625q-0.53125 0 -0.9375 0.140625q-0.390625 0.125 -0.671875 0.359375q-0.265625 0.21875 -0.40625 0.546875q-0.125 0.3125 -0.125 0.6875q0 0.484375 0.265625 0.8125q0.28125 0.3125 0.71875 0.546875q0.453125 0.21875 1.015625 0.40625q0.578125 0.1875 1.171875 0.390625q0.59375 0.203125 1.15625 0.46875q0.578125 0.265625 1.015625 0.6875q0.453125 0.40625 0.71875 1.015625q0.28125 0.59375 0.28125 1.453125q0 0.921875 -0.328125 1.734375q-0.3125 0.8125 -0.921875 1.421875q-0.609375 0.59375 -1.5 0.953125q-0.875 0.34375 -2.015625 0.34375q-0.65625 0 -1.296875 -0.140625q-0.640625 -0.125 -1.234375 -0.359375q-0.578125 -0.234375 -1.09375 -0.5625q-0.5 -0.34375 -0.890625 -0.75l0.734375 -1.21875q0.109375 -0.140625 0.25 -0.21875q0.15625 -0.09375 0.328125 -0.09375q0.25 0 0.515625 0.203125q0.28125 0.1875 0.65625 0.421875q0.375 0.234375 0.875 0.4375q0.515625 0.1875 1.234375 0.1875q1.078125 0 1.671875 -0.515625q0.609375 -0.515625 0.609375 -1.484375q0 -0.546875 -0.28125 -0.890625q-0.265625 -0.34375 -0.71875 -0.578125q-0.4375 -0.234375 -1.015625 -0.390625q-0.5625 -0.15625 -1.15625 -0.34375q-0.578125 -0.203125 -1.15625 -0.46875q-0.5625 -0.265625 -1.015625 -0.6875q-0.4375 -0.421875 -0.71875 -1.0625q-0.265625 -0.640625 -0.265625 -1.59375q0 -0.75 0.296875 -1.453125q0.296875 -0.71875 0.875 -1.265625q0.578125 -0.546875 1.40625 -0.875q0.84375 -0.34375 1.921875 -0.34375q1.21875 0 2.234375 0.390625q1.03125 0.375 1.75 1.0625l-0.625 1.203125zm6.680954 1.328125q1.078125 0 1.96875 0.359375q0.890625 0.34375 1.515625 1.0q0.625 0.640625 0.96875 1.578125q0.34375 0.921875 0.34375 2.078125q0 1.15625 -0.34375 2.09375q-0.34375 0.921875 -0.96875 1.578125q-0.625 0.65625 -1.515625 1.015625q-0.890625 0.34375 -1.96875 0.34375q-1.09375 0 -2.0 -0.34375q-0.890625 -0.359375 -1.53125 -1.015625q-0.625 -0.65625 -0.96875 -1.578125q-0.34375 -0.9375 -0.34375 -2.09375q0 -1.15625 0.34375 -2.078125q0.34375 -0.9375 0.96875 -1.578125q0.640625 -0.65625 1.53125 -1.0q0.90625 -0.359375 2.0 -0.359375zm0 8.25q1.203125 0 1.78125 -0.8125q0.59375 -0.828125 0.59375 -2.40625q0 -1.578125 -0.59375 -2.40625q-0.578125 -0.828125 -1.78125 -0.828125q-1.234375 0 -1.828125 0.84375q-0.59375 0.828125 -0.59375 2.390625q0 1.5625 0.59375 2.390625q0.59375 0.828125 1.828125 0.828125zm13.293579 -6.03125q-0.109375 0.140625 -0.21875 0.21875q-0.09375 0.0625 -0.28125 0.0625q-0.1875 0 -0.359375 -0.109375q-0.15625 -0.109375 -0.40625 -0.234375q-0.234375 -0.140625 -0.5625 -0.25q-0.328125 -0.109375 -0.8125 -0.109375q-0.609375 0 -1.078125 0.21875q-0.46875 0.21875 -0.78125 0.640625q-0.296875 0.421875 -0.453125 1.015625q-0.15625 0.59375 -0.15625 1.34375q0 0.78125 0.15625 1.390625q0.171875 0.609375 0.484375 1.015625q0.328125 0.40625 0.765625 0.625q0.453125 0.21875 1.015625 0.21875q0.546875 0 0.890625 -0.140625q0.359375 -0.140625 0.59375 -0.296875q0.234375 -0.171875 0.40625 -0.3125q0.1875 -0.140625 0.40625 -0.140625q0.28125 0 0.421875 0.21875l0.671875 0.859375q-0.390625 0.453125 -0.84375 0.765625q-0.453125 0.3125 -0.953125 0.5q-0.484375 0.171875 -1.015625 0.25q-0.515625 0.078125 -1.015625 0.078125q-0.90625 0 -1.703125 -0.328125q-0.796875 -0.34375 -1.390625 -0.984375q-0.59375 -0.65625 -0.953125 -1.59375q-0.34375 -0.9375 -0.34375 -2.125q0 -1.078125 0.3125 -1.984375q0.3125 -0.921875 0.90625 -1.59375q0.59375 -0.671875 1.484375 -1.046875q0.890625 -0.390625 2.03125 -0.390625q1.09375 0 1.90625 0.359375q0.828125 0.34375 1.484375 1.0l-0.609375 0.859375zm4.5396576 -2.0625l0 9.75l-2.34375 0l0 -9.75l2.34375 0zm0.359375 -2.84375q0 0.3125 -0.125 0.578125q-0.125 0.265625 -0.328125 0.46875q-0.203125 0.1875 -0.484375 0.3125q-0.28125 0.125 -0.59375 0.125q-0.296875 0 -0.578125 -0.125q-0.265625 -0.125 -0.46875 -0.3125q-0.1875 -0.203125 -0.3125 -0.46875q-0.109375 -0.265625 -0.109375 -0.578125q0 -0.3125 0.109375 -0.578125q0.125 -0.28125 0.3125 -0.46875q0.203125 -0.203125 0.46875 -0.328125q0.28125 -0.125 0.578125 -0.125q0.3125 0 0.59375 0.125q0.28125 0.125 0.484375 0.328125q0.203125 0.1875 0.328125 0.46875q0.125 0.265625 0.125 0.578125zm9.837097 12.59375l-1.046875 0q-0.34375 0 -0.53125 -0.09375q-0.1875 -0.109375 -0.28125 -0.40625l-0.203125 -0.703125q-0.375 0.34375 -0.734375 0.59375q-0.359375 0.25 -0.734375 0.421875q-0.375 0.171875 -0.8125 0.25q-0.421875 0.09375 -0.953125 0.09375q-0.609375 0 -1.140625 -0.171875q-0.515625 -0.171875 -0.890625 -0.5q-0.375 -0.328125 -0.59375 -0.8125q-0.203125 -0.5 -0.203125 -1.15625q0 -0.5625 0.28125 -1.09375q0.296875 -0.53125 0.96875 -0.96875q0.6875 -0.4375 1.796875 -0.71875q1.125 -0.28125 2.796875 -0.328125l0 -0.5625q0 -0.984375 -0.421875 -1.453125q-0.40625 -0.46875 -1.203125 -0.46875q-0.5625 0 -0.953125 0.140625q-0.375 0.125 -0.65625 0.296875q-0.28125 0.171875 -0.515625 0.3125q-0.234375 0.125 -0.515625 0.125q-0.25 0 -0.421875 -0.125q-0.171875 -0.125 -0.265625 -0.3125l-0.4375 -0.75q1.6875 -1.53125 4.0625 -1.53125q0.859375 0 1.515625 0.28125q0.671875 0.28125 1.140625 0.78125q0.46875 0.484375 0.703125 1.1875q0.25 0.6875 0.25 1.515625l0 6.15625zm-4.5625 -1.46875q0.359375 0 0.65625 -0.0625q0.3125 -0.0625 0.578125 -0.1875q0.28125 -0.140625 0.53125 -0.328125q0.25 -0.203125 0.515625 -0.46875l0 -1.640625q-1.03125 0.046875 -1.71875 0.171875q-0.6875 0.125 -1.109375 0.328125q-0.421875 0.203125 -0.59375 0.46875q-0.171875 0.265625 -0.171875 0.578125q0 0.609375 0.359375 0.875q0.375 0.265625 0.953125 0.265625zm9.188431 -12.640625l0 14.109375l-2.34375 0l0 -14.109375l2.34375 0zm5.055847 4.359375l0 9.75l-2.34375 0l0 -9.75l2.34375 0zm0.359375 -2.84375q0 0.3125 -0.125 0.578125q-0.125 0.265625 -0.328125 0.46875q-0.203125 0.1875 -0.484375 0.3125q-0.28125 0.125 -0.59375 0.125q-0.296875 0 -0.578125 -0.125q-0.265625 -0.125 -0.46875 -0.3125q-0.1875 -0.203125 -0.3125 -0.46875q-0.109375 -0.265625 -0.109375 -0.578125q0 -0.3125 0.109375 -0.578125q0.125 -0.28125 0.3125 -0.46875q0.203125 -0.203125 0.46875 -0.328125q0.28125 -0.125 0.578125 -0.125q0.3125 0 0.59375 0.125q0.28125 0.125 0.484375 0.328125q0.203125 0.1875 0.328125 0.46875q0.125 0.265625 0.125 0.578125zm9.243347 3.8125q0 0.25 -0.09375 0.484375q-0.078125 0.234375 -0.203125 0.390625l-4.640625 6.09375l4.8125 0l0 1.8125l-7.53125 0l0 -0.984375q0 -0.15625 0.0625 -0.375q0.078125 -0.234375 0.25 -0.421875l4.671875 -6.171875l-4.71875 0l0 -1.796875l7.390625 0l0 0.96875zm5.7434845 -1.125q0.921875 0 1.6875 0.296875q0.78125 0.296875 1.34375 0.875q0.5625 0.5625 0.875 1.390625q0.3125 0.8125 0.3125 1.859375q0 0.265625 -0.03125 0.453125q-0.015625 0.171875 -0.078125 0.265625q-0.0625 0.09375 -0.171875 0.140625q-0.09375 0.046875 -0.265625 0.046875l-6.015625 0q0.109375 1.5 0.8125 2.203125q0.703125 0.703125 1.859375 0.703125q0.5625 0 0.96875 -0.125q0.421875 -0.140625 0.734375 -0.296875q0.3125 -0.171875 0.53125 -0.296875q0.234375 -0.140625 0.453125 -0.140625q0.15625 0 0.25 0.0625q0.109375 0.0625 0.1875 0.15625l0.6875 0.859375q-0.390625 0.453125 -0.875 0.765625q-0.484375 0.3125 -1.015625 0.5q-0.53125 0.171875 -1.078125 0.25q-0.546875 0.078125 -1.0625 0.078125q-1.015625 0 -1.890625 -0.328125q-0.875 -0.34375 -1.515625 -1.0q-0.640625 -0.671875 -1.015625 -1.640625q-0.375 -0.96875 -0.375 -2.25q0 -1.0 0.328125 -1.875q0.328125 -0.890625 0.921875 -1.53125q0.609375 -0.65625 1.46875 -1.03125q0.875 -0.390625 1.96875 -0.390625zm0.046875 1.6875q-1.03125 0 -1.609375 0.578125q-0.578125 0.578125 -0.734375 1.640625l4.40625 0q0 -0.453125 -0.125 -0.859375q-0.125 -0.40625 -0.390625 -0.703125q-0.25 -0.296875 -0.640625 -0.46875q-0.375 -0.1875 -0.90625 -0.1875z" fill-rule="nonzero"></path><path fill="#000000" fill-opacity="0.0" d="m206.69292 461.47507l165.41731 0l0 91.52756l-165.41731 0z" fill-rule="nonzero"></path><path fill="#ffffff" d="m234.22098 503.02383l0 14.8750305l-3.59375 0l0 -14.8750305l3.59375 0zm0.53125 -4.34375q0 0.46875 -0.1875 0.875q-0.1875 0.40625 -0.5 0.71875q-0.3125 0.296875 -0.734375 0.484375q-0.421875 0.171875 -0.90625 0.171875q-0.453125 0 -0.875 -0.171875q-0.40625 -0.1875 -0.71875 -0.484375q-0.296875 -0.3125 -0.484375 -0.71875q-0.171875 -0.40625 -0.171875 -0.875q0 -0.46875 0.171875 -0.890625q0.1875 -0.421875 0.484375 -0.71875q0.3125 -0.3125 0.71875 -0.484375q0.421875 -0.1875 0.875 -0.1875q0.484375 0 0.90625 0.1875q0.421875 0.171875 0.734375 0.484375q0.3125 0.296875 0.5 0.71875q0.1875 0.421875 0.1875 0.890625zm9.947983 4.109375q1.671875 0 3.015625 0.546875q1.359375 0.53125 2.3125 1.515625q0.96875 0.984375 1.484375 2.40625q0.53125 1.421875 0.53125 3.171875q0 1.7656555 -0.53125 3.1875305q-0.515625 1.421875 -1.484375 2.421875q-0.953125 1.0 -2.3125 1.546875q-1.34375 0.53125 -3.015625 0.53125q-1.671875 0 -3.03125 -0.53125q-1.359375 -0.546875 -2.328125 -1.546875q-0.96875 -1.0 -1.5 -2.421875q-0.515625 -1.421875 -0.515625 -3.1875305q0 -1.75 0.515625 -3.171875q0.53125 -1.421875 1.5 -2.40625q0.96875 -0.984375 2.328125 -1.515625q1.359375 -0.546875 3.03125 -0.546875zm0 12.5781555q1.859375 0 2.75 -1.25q0.890625 -1.25 0.890625 -3.6562805q0 -2.40625 -0.890625 -3.671875q-0.890625 -1.265625 -2.75 -1.265625q-1.890625 0 -2.796875 1.28125q-0.890625 1.265625 -0.890625 3.65625q0 2.3906555 0.890625 3.6562805q0.90625 1.25 2.796875 1.25zm19.829422 4.46875l0 2.328125l-11.421875 0l0 -2.328125l11.421875 0zm12.524109 -1.9375q-0.703125 0 -0.921875 -0.65625l-0.296875 -1.4375q-0.453125 0.53125 -0.96875 0.953125q-0.5 0.421875 -1.09375 0.734375q-0.578125 0.296875 -1.265625 0.453125q-0.671875 0.171875 -1.453125 0.171875q-1.21875 0 -2.234375 -0.5q-1.015625 -0.515625 -1.75 -1.46875q-0.71875 -0.96875 -1.125 -2.390625q-0.390625 -1.421875 -0.390625 -3.2500305q0 -1.65625 0.4375 -3.078125q0.453125 -1.421875 1.296875 -2.46875q0.84375 -1.046875 2.015625 -1.625q1.171875 -0.59375 2.640625 -0.59375q1.25 0 2.125 0.40625q0.890625 0.390625 1.578125 1.0625l0 -7.859375l3.59375 0l0 21.546906l-2.1875 0zm-4.78125 -2.625q1.125 0 1.90625 -0.453125q0.78125 -0.46875 1.46875 -1.328125l0 -6.6719055q-0.609375 -0.734375 -1.328125 -1.03125q-0.703125 -0.3125 -1.53125 -0.3125q-0.8125 0 -1.484375 0.3125q-0.65625 0.296875 -1.109375 0.921875q-0.453125 0.609375 -0.703125 1.5625q-0.25 0.9375 -0.25 2.234375q0 1.296875 0.203125 2.2031555q0.21875 0.90625 0.609375 1.484375q0.390625 0.578125 0.953125 0.828125q0.578125 0.25 1.265625 0.25zm17.170288 -12.4844055q1.40625 0 2.578125 0.453125q1.1875 0.453125 2.046875 1.3125q0.859375 0.859375 1.328125 2.125q0.484375 1.25 0.484375 2.859375q0 0.40625 -0.046875 0.671875q-0.03125 0.265625 -0.125 0.421875q-0.09375 0.140625 -0.25 0.21875q-0.15625 0.0625 -0.40625 0.0625l-9.1875 0q0.15625 2.2812805 1.21875 3.3594055q1.078125 1.078125 2.859375 1.078125q0.859375 0 1.484375 -0.203125q0.640625 -0.203125 1.109375 -0.453125q0.46875 -0.25 0.828125 -0.453125q0.359375 -0.203125 0.6875 -0.203125q0.21875 0 0.375 0.09375q0.15625 0.078125 0.28125 0.234375l1.046875 1.3125q-0.59375 0.703125 -1.34375 1.171875q-0.734375 0.46875 -1.546875 0.75q-0.796875 0.28125 -1.640625 0.390625q-0.828125 0.125 -1.609375 0.125q-1.546875 0 -2.890625 -0.515625q-1.328125 -0.515625 -2.3125 -1.515625q-0.984375 -1.015625 -1.5625 -2.5q-0.5625 -1.484375 -0.5625 -3.4375305q0 -1.53125 0.5 -2.875q0.5 -1.34375 1.40625 -2.328125q0.921875 -1.0 2.25 -1.578125q1.328125 -0.578125 3.0 -0.578125zm0.078125 2.5625q-1.578125 0 -2.46875 0.890625q-0.875 0.890625 -1.125 2.5l6.734375 0q0 -0.6875 -0.1875 -1.296875q-0.1875 -0.625 -0.578125 -1.078125q-0.390625 -0.46875 -0.984375 -0.734375q-0.59375 -0.28125 -1.390625 -0.28125zm16.894745 12.5469055l-3.234375 0l-5.921875 -14.8750305l2.96875 0q0.390625 0 0.65625 0.1875q0.28125 0.1875 0.375 0.484375l2.875 7.9375q0.25 0.7031555 0.40625 1.3750305q0.171875 0.65625 0.296875 1.328125q0.140625 -0.671875 0.296875 -1.328125q0.171875 -0.671875 0.4375 -1.3750305l2.9375 -7.9375q0.109375 -0.296875 0.359375 -0.484375q0.265625 -0.1875 0.625 -0.1875l2.828125 0l-5.90625 14.8750305zm12.0216675 -14.8750305l0 14.8750305l-3.59375 0l0 -14.8750305l3.59375 0zm0.53125 -4.34375q0 0.46875 -0.1875 0.875q-0.1875 0.40625 -0.5 0.71875q-0.3125 0.296875 -0.734375 0.484375q-0.421875 0.171875 -0.90625 0.171875q-0.453125 0 -0.875 -0.171875q-0.40625 -0.1875 -0.71875 -0.484375q-0.296875 -0.3125 -0.484375 -0.71875q-0.171875 -0.40625 -0.171875 -0.875q0 -0.46875 0.171875 -0.890625q0.1875 -0.421875 0.484375 -0.71875q0.3125 -0.3125 0.71875 -0.484375q0.421875 -0.1875 0.875 -0.1875q0.484375 0 0.90625 0.1875q0.421875 0.171875 0.734375 0.484375q0.3125 0.296875 0.5 0.71875q0.1875 0.421875 0.1875 0.890625zm14.057373 7.484375q-0.171875 0.203125 -0.328125 0.328125q-0.140625 0.109375 -0.4375 0.109375q-0.265625 0 -0.53125 -0.15625q-0.265625 -0.171875 -0.625 -0.375q-0.359375 -0.21875 -0.859375 -0.390625q-0.5 -0.171875 -1.234375 -0.171875q-0.953125 0 -1.671875 0.34375q-0.703125 0.34375 -1.171875 0.984375q-0.46875 0.640625 -0.703125 1.546875q-0.234375 0.90625 -0.234375 2.046875q0 1.1875 0.25 2.1250305q0.265625 0.921875 0.734375 1.5625q0.484375 0.625 1.15625 0.953125q0.6875 0.3125 1.546875 0.3125q0.859375 0 1.375 -0.203125q0.53125 -0.203125 0.890625 -0.453125q0.375 -0.265625 0.640625 -0.46875q0.265625 -0.21875 0.609375 -0.21875q0.421875 0 0.640625 0.328125l1.03125 1.3125q-0.59375 0.703125 -1.296875 1.171875q-0.6875 0.46875 -1.4375 0.75q-0.75 0.28125 -1.546875 0.390625q-0.796875 0.125 -1.578125 0.125q-1.375 0 -2.59375 -0.515625q-1.21875 -0.515625 -2.125 -1.5q-0.90625 -0.984375 -1.4375 -2.40625q-0.53125 -1.4375 -0.53125 -3.2656555q0 -1.640625 0.46875 -3.03125q0.484375 -1.40625 1.390625 -2.421875q0.921875 -1.03125 2.265625 -1.609375q1.34375 -0.578125 3.109375 -0.578125q1.65625 0 2.90625 0.546875q1.265625 0.53125 2.265625 1.53125l-0.9375 1.296875zm9.677124 -3.375q1.40625 0 2.578125 0.453125q1.1875 0.453125 2.046875 1.3125q0.859375 0.859375 1.328125 2.125q0.484375 1.25 0.484375 2.859375q0 0.40625 -0.046875 0.671875q-0.03125 0.265625 -0.125 0.421875q-0.09375 0.140625 -0.25 0.21875q-0.15625 0.0625 -0.40625 0.0625l-9.1875 0q0.15625 2.2812805 1.21875 3.3594055q1.078125 1.078125 2.859375 1.078125q0.859375 0 1.484375 -0.203125q0.640625 -0.203125 1.109375 -0.453125q0.46875 -0.25 0.828125 -0.453125q0.359375 -0.203125 0.6875 -0.203125q0.21875 0 0.375 0.09375q0.15625 0.078125 0.28125 0.234375l1.046875 1.3125q-0.59375 0.703125 -1.34375 1.171875q-0.734375 0.46875 -1.546875 0.75q-0.796875 0.28125 -1.640625 0.390625q-0.828125 0.125 -1.609375 0.125q-1.546875 0 -2.890625 -0.515625q-1.328125 -0.515625 -2.3125 -1.515625q-0.984375 -1.015625 -1.5625 -2.5q-0.5625 -1.484375 -0.5625 -3.4375305q0 -1.53125 0.5 -2.875q0.5 -1.34375 1.40625 -2.328125q0.921875 -1.0 2.25 -1.578125q1.328125 -0.578125 3.0 -0.578125zm0.078125 2.5625q-1.578125 0 -2.46875 0.890625q-0.875 0.890625 -1.125 2.5l6.734375 0q0 -0.6875 -0.1875 -1.296875q-0.1875 -0.625 -0.578125 -1.078125q-0.390625 -0.46875 -0.984375 -0.734375q-0.59375 -0.28125 -1.390625 -0.28125z" fill-rule="nonzero"></path><path fill="#6d9eeb" d="m46.48163 342.20865l62.485565 0l0 0l26.779526 0l17.853012 0l0 21.257233l26.896286 12.389801l-26.896286 -3.2795715l0 6.0734863l-17.853012 0l-26.779526 0l0 0l-62.485565 0l0 -6.0734863l0 -9.1102295l0 0z" fill-rule="nonzero"></path><path fill="#ffffff" d="m67.79356 356.11475q-0.109375 0.203125 -0.25 0.296875q-0.125 0.078125 -0.328125 0.078125q-0.1875 0 -0.421875 -0.140625q-0.234375 -0.15625 -0.5625 -0.328125q-0.3125 -0.1875 -0.75 -0.328125q-0.4375 -0.15625 -1.015625 -0.15625q-0.5312462 0 -0.9374962 0.140625q-0.390625 0.125 -0.671875 0.359375q-0.265625 0.21875 -0.40625 0.546875q-0.125 0.3125 -0.125 0.6875q0 0.484375 0.265625 0.8125q0.28125 0.3125 0.71875 0.546875q0.453125 0.21875 1.0156212 0.40625q0.578125 0.1875 1.171875 0.390625q0.59375 0.203125 1.15625 0.46875q0.578125 0.265625 1.015625 0.6875q0.453125 0.40625 0.71875 1.015625q0.28125 0.59375 0.28125 1.453125q0 0.921875 -0.328125 1.734375q-0.3125 0.8125 -0.921875 1.421875q-0.609375 0.59375 -1.5 0.953125q-0.875 0.34375 -2.0156212 0.34375q-0.65625 0 -1.296875 -0.140625q-0.640625 -0.125 -1.234375 -0.359375q-0.578125 -0.234375 -1.09375 -0.5625q-0.5 -0.34375 -0.890625 -0.75l0.734375 -1.21875q0.109375 -0.140625 0.25 -0.21875q0.15625 -0.09375 0.328125 -0.09375q0.25 0 0.515625 0.203125q0.28125 0.1875 0.65625 0.421875q0.375 0.234375 0.875 0.4375q0.515625 0.1875 1.234375 0.1875q1.0781212 0 1.6718712 -0.515625q0.609375 -0.515625 0.609375 -1.484375q0 -0.546875 -0.28125 -0.890625q-0.265625 -0.34375 -0.71875 -0.578125q-0.4375 -0.234375 -1.015625 -0.390625q-0.5624962 -0.15625 -1.1562462 -0.34375q-0.578125 -0.203125 -1.15625 -0.46875q-0.5625 -0.265625 -1.015625 -0.6875q-0.4375 -0.421875 -0.71875 -1.0625q-0.265625 -0.640625 -0.265625 -1.59375q0 -0.75 0.296875 -1.453125q0.296875 -0.71875 0.875 -1.265625q0.578125 -0.546875 1.40625 -0.875q0.84375 -0.34375 1.9218712 -0.34375q1.21875 0 2.234375 0.390625q1.03125 0.375 1.75 1.0625l-0.625 1.203125zm6.540329 1.328125q0.921875 0 1.6875 0.296875q0.78125 0.296875 1.34375 0.875q0.5625 0.5625 0.875 1.390625q0.3125 0.8125 0.3125 1.859375q0 0.265625 -0.03125 0.453125q-0.015625 0.171875 -0.078125 0.265625q-0.0625 0.09375 -0.171875 0.140625q-0.09375 0.046875 -0.265625 0.046875l-6.015625 0q0.109375 1.5 0.8125 2.203125q0.703125 0.703125 1.859375 0.703125q0.5625 0 0.96875 -0.125q0.421875 -0.140625 0.734375 -0.296875q0.3125 -0.171875 0.53125 -0.296875q0.234375 -0.140625 0.453125 -0.140625q0.15625 0 0.25 0.0625q0.109375 0.0625 0.1875 0.15625l0.6875 0.859375q-0.390625 0.453125 -0.875 0.765625q-0.484375 0.3125 -1.015625 0.5q-0.53125 0.171875 -1.078125 0.25q-0.546875 0.078125 -1.0625 0.078125q-1.015625 0 -1.890625 -0.328125q-0.875 -0.34375 -1.515625 -1.0q-0.640625 -0.671875 -1.015625 -1.640625q-0.375 -0.96875 -0.375 -2.25q0 -1.0 0.328125 -1.875q0.328125 -0.890625 0.921875 -1.53125q0.609375 -0.65625 1.46875 -1.03125q0.875 -0.390625 1.96875 -0.390625zm0.046875 1.6875q-1.03125 0 -1.609375 0.578125q-0.578125 0.578125 -0.734375 1.640625l4.40625 0q0 -0.453125 -0.125 -0.859375q-0.125 -0.40625 -0.390625 -0.703125q-0.25 -0.296875 -0.640625 -0.46875q-0.375 -0.1875 -0.90625 -0.1875zm5.8936462 8.21875l0 -9.75l1.4375 0q0.453125 0 0.59375 0.4375l0.171875 0.765625q0.296875 -0.3125 0.625 -0.546875q0.328125 -0.25 0.6875 -0.421875q0.359375 -0.1875 0.78125 -0.28125q0.421875 -0.109375 0.90625 -0.109375q0.8125 0 1.421875 0.28125q0.625 0.265625 1.03125 0.765625q0.40625 0.484375 0.625 1.171875q0.21875 0.671875 0.21875 1.484375l0 6.203125l-2.34375 0l0 -6.203125q0 -0.890625 -0.421875 -1.375q-0.40625 -0.5 -1.234375 -0.5q-0.609375 0 -1.140625 0.28125q-0.53125 0.265625 -1.015625 0.75l0 7.046875l-2.34375 0zm16.402954 -7.84375q-0.109375 0.15625 -0.21875 0.21875q-0.09375 0.046875 -0.25 0.046875q-0.171875 0 -0.375 -0.09375q-0.1875 -0.09375 -0.453125 -0.203125q-0.25 -0.125 -0.578125 -0.21875q-0.328125 -0.09375 -0.765625 -0.09375q-0.703125 0 -1.109375 0.296875q-0.390625 0.296875 -0.390625 0.765625q0 0.3125 0.203125 0.53125q0.203125 0.203125 0.53125 0.375q0.34375 0.15625 0.765625 0.296875q0.4375 0.125 0.875 0.28125q0.453125 0.140625 0.875 0.34375q0.4375 0.1875 0.765625 0.484375q0.34375 0.296875 0.546875 0.71875q0.203125 0.421875 0.203125 1.0q0 0.703125 -0.265625 1.296875q-0.25 0.59375 -0.75 1.03125q-0.484375 0.4375 -1.21875 0.6875q-0.71875 0.234375 -1.65625 0.234375q-0.5 0 -0.984375 -0.09375q-0.484375 -0.09375 -0.921875 -0.25q-0.4375 -0.15625 -0.8125 -0.375q-0.375 -0.21875 -0.65625 -0.484375l0.53125 -0.890625q0.109375 -0.15625 0.25 -0.234375q0.140625 -0.09375 0.359375 -0.09375q0.21875 0 0.40625 0.125q0.203125 0.109375 0.453125 0.265625q0.265625 0.140625 0.609375 0.265625q0.34375 0.125 0.875 0.125q0.421875 0 0.71875 -0.09375q0.296875 -0.109375 0.484375 -0.265625q0.203125 -0.171875 0.296875 -0.375q0.09375 -0.21875 0.09375 -0.453125q0 -0.34375 -0.203125 -0.5625q-0.203125 -0.21875 -0.546875 -0.375q-0.328125 -0.15625 -0.765625 -0.28125q-0.4375 -0.140625 -0.890625 -0.28125q-0.453125 -0.15625 -0.890625 -0.359375q-0.421875 -0.203125 -0.765625 -0.515625q-0.328125 -0.328125 -0.53125 -0.78125q-0.203125 -0.453125 -0.203125 -1.09375q0 -0.609375 0.234375 -1.140625q0.234375 -0.546875 0.6875 -0.953125q0.46875 -0.40625 1.15625 -0.640625q0.6875 -0.25 1.59375 -0.25q1.015625 0 1.828125 0.34375q0.828125 0.328125 1.390625 0.875l-0.53125 0.84375zm9.996536 7.84375l-1.046875 0q-0.34375 0 -0.53125 -0.09375q-0.1875 -0.109375 -0.28125 -0.40625l-0.203125 -0.703125q-0.375 0.34375 -0.734375 0.59375q-0.359375 0.25 -0.734375 0.421875q-0.375 0.171875 -0.8125 0.25q-0.421875 0.09375 -0.953125 0.09375q-0.609375 0 -1.140625 -0.171875q-0.515625 -0.171875 -0.890625 -0.5q-0.375 -0.328125 -0.59375 -0.8125q-0.203125 -0.5 -0.203125 -1.15625q0 -0.5625 0.28125 -1.09375q0.296875 -0.53125 0.96875 -0.96875q0.6875 -0.4375 1.796875 -0.71875q1.125 -0.28125 2.796875 -0.328125l0 -0.5625q0 -0.984375 -0.421875 -1.453125q-0.40625 -0.46875 -1.203125 -0.46875q-0.5625 0 -0.953125 0.140625q-0.375 0.125 -0.65625 0.296875q-0.28125 0.171875 -0.515625 0.3125q-0.234375 0.125 -0.515625 0.125q-0.25 0 -0.421875 -0.125q-0.171875 -0.125 -0.265625 -0.3125l-0.4375 -0.75q1.6875 -1.53125 4.0625 -1.53125q0.859375 0 1.515625 0.28125q0.671875 0.28125 1.140625 0.78125q0.46875 0.484375 0.703125 1.1875q0.25 0.6875 0.25 1.515625l0 6.15625zm-4.5625 -1.46875q0.359375 0 0.65625 -0.0625q0.3125 -0.0625 0.578125 -0.1875q0.28125 -0.140625 0.53125 -0.328125q0.25 -0.203125 0.515625 -0.46875l0 -1.640625q-1.03125 0.046875 -1.71875 0.171875q-0.6875 0.125 -1.109375 0.328125q-0.421875 0.203125 -0.59375 0.46875q-0.171875 0.265625 -0.171875 0.578125q0 0.609375 0.359375 0.875q0.375 0.265625 0.953125 0.265625zm9.891563 1.625q-1.265625 0 -1.9531326 -0.71875q-0.671875 -0.71875 -0.671875 -1.984375l0 -5.4375l-0.984375 0q-0.203125 0 -0.34375 -0.125q-0.125 -0.125 -0.125 -0.375l0 -0.9375l1.5625 -0.25l0.5 -2.65625q0.03125 -0.1875 0.171875 -0.296875q0.140625 -0.109375 0.34375763 -0.109375l1.21875 0l0 3.078125l2.5625 0l0 1.671875l-2.5625 0l0 5.28125q0 0.453125 0.21875 0.71875q0.234375 0.25 0.609375 0.25q0.21875 0 0.359375 -0.046875q0.15625 -0.0625 0.265625 -0.109375q0.109375 -0.0625 0.1875 -0.109375q0.09375 -0.0625 0.1875 -0.0625q0.09375 0 0.15625 0.0625q0.078125 0.046875 0.15625 0.140625l0.703125 1.140625q-0.515625 0.4375 -1.1875 0.65625q-0.65625 0.21875 -1.375 0.21875zm6.5168457 -9.90625l0 9.75l-2.34375 0l0 -9.75l2.34375 0zm0.359375 -2.84375q0 0.3125 -0.125 0.578125q-0.125 0.265625 -0.328125 0.46875q-0.203125 0.1875 -0.484375 0.3125q-0.28125 0.125 -0.59375 0.125q-0.296875 0 -0.578125 -0.125q-0.265625 -0.125 -0.46875 -0.3125q-0.1875 -0.203125 -0.3125 -0.46875q-0.109375 -0.265625 -0.109375 -0.578125q0 -0.3125 0.109375 -0.578125q0.125 -0.28125 0.3125 -0.46875q0.203125 -0.203125 0.46875 -0.328125q0.28125 -0.125 0.578125 -0.125q0.3125 0 0.59375 0.125q0.28125 0.125 0.484375 0.328125q0.203125 0.1875 0.328125 0.46875q0.125 0.265625 0.125 0.578125zm6.368347 2.6875q1.078125 0 1.96875 0.359375q0.890625 0.34375 1.515625 1.0q0.625 0.640625 0.96875 1.578125q0.34375 0.921875 0.34375 2.078125q0 1.15625 -0.34375 2.09375q-0.34375 0.921875 -0.96875 1.578125q-0.625 0.65625 -1.515625 1.015625q-0.890625 0.34375 -1.96875 0.34375q-1.09375 0 -2.0 -0.34375q-0.890625 -0.359375 -1.53125 -1.015625q-0.625 -0.65625 -0.96875 -1.578125q-0.34375 -0.9375 -0.34375 -2.09375q0 -1.15625 0.34375 -2.078125q0.34375 -0.9375 0.96875 -1.578125q0.640625 -0.65625 1.53125 -1.0q0.90625 -0.359375 2.0 -0.359375zm0 8.25q1.203125 0 1.78125 -0.8125q0.59375 -0.828125 0.59375 -2.40625q0 -1.578125 -0.59375 -2.40625q-0.578125 -0.828125 -1.78125 -0.828125q-1.234375 0 -1.828125 0.84375q-0.59375 0.828125 -0.59375 2.390625q0 1.5625 0.59375 2.390625q0.59375 0.828125 1.828125 0.828125zm6.434204 1.65625l0 -9.75l1.4375 0q0.453125 0 0.59375 0.4375l0.171875 0.765625q0.296875 -0.3125 0.625 -0.546875q0.328125 -0.25 0.6875 -0.421875q0.359375 -0.1875 0.78125 -0.28125q0.421875 -0.109375 0.90625 -0.109375q0.8125 0 1.421875 0.28125q0.625 0.265625 1.03125 0.765625q0.40625 0.484375 0.625 1.171875q0.21875 0.671875 0.21875 1.484375l0 6.203125l-2.34375 0l0 -6.203125q0 -0.890625 -0.421875 -1.375q-0.40625 -0.5 -1.234375 -0.5q-0.609375 0 -1.140625 0.28125q-0.53125 0.265625 -1.015625 0.75l0 7.046875l-2.34375 0z" fill-rule="nonzero"></path><path fill="#6d9eeb" d="m85.80577 285.6168l55.61418 0l0 0l23.83464 0l15.8897705 0l0 21.257233l53.85295 14.561676l-53.85295 -5.4514465l0 6.0734863l-15.8897705 0l-23.83464 0l0 0l-55.61418 0l0 -6.0734863l0 -9.1102295l0 0z" fill-rule="nonzero"></path><path fill="#ffffff" d="m125.72768 310.75726l-2.578125 0l0 -6.0l-6.4375 0l0 6.0l-2.578125 0l0 -13.734375l2.578125 0l0 5.90625l6.4375 0l0 -5.90625l2.578125 0l0 13.734375zm6.401001 -9.90625q0.921875 0 1.6875 0.296875q0.78125 0.296875 1.34375 0.875q0.5625 0.5625 0.875 1.390625q0.3125 0.8125 0.3125 1.859375q0 0.265625 -0.03125 0.453125q-0.015625 0.171875 -0.078125 0.265625q-0.0625 0.09375 -0.171875 0.140625q-0.09375 0.046875 -0.265625 0.046875l-6.015625 0q0.109375 1.5 0.8125 2.203125q0.703125 0.703125 1.859375 0.703125q0.5625 0 0.96875 -0.125q0.421875 -0.140625 0.734375 -0.296875q0.3125 -0.171875 0.53125 -0.296875q0.234375 -0.140625 0.453125 -0.140625q0.15625 0 0.25 0.0625q0.109375 0.0625 0.1875 0.15625l0.6875 0.859375q-0.390625 0.453125 -0.875 0.765625q-0.484375 0.3125 -1.015625 0.5q-0.53125 0.171875 -1.078125 0.25q-0.546875 0.078125 -1.0625 0.078125q-1.015625 0 -1.890625 -0.328125q-0.875 -0.34375 -1.515625 -1.0q-0.640625 -0.671875 -1.015625 -1.640625q-0.375 -0.96875 -0.375 -2.25q0 -1.0 0.328125 -1.875q0.328125 -0.890625 0.921875 -1.53125q0.609375 -0.65625 1.46875 -1.03125q0.875 -0.390625 1.96875 -0.390625zm0.046875 1.6875q-1.03125 0 -1.609375 0.578125q-0.578125 0.578125 -0.734375 1.640625l4.40625 0q0 -0.453125 -0.125 -0.859375q-0.125 -0.40625 -0.390625 -0.703125q-0.25 -0.296875 -0.640625 -0.46875q-0.375 -0.1875 -0.90625 -0.1875zm13.534271 8.21875l-1.046875 0q-0.34375 0 -0.53125 -0.09375q-0.1875 -0.109375 -0.28125 -0.40625l-0.203125 -0.703125q-0.375 0.34375 -0.734375 0.59375q-0.359375 0.25 -0.734375 0.421875q-0.375 0.171875 -0.8125 0.25q-0.421875 0.09375 -0.953125 0.09375q-0.609375 0 -1.140625 -0.171875q-0.515625 -0.171875 -0.890625 -0.5q-0.375 -0.328125 -0.59375 -0.8125q-0.203125 -0.5 -0.203125 -1.15625q0 -0.5625 0.28125 -1.09375q0.296875 -0.53125 0.96875 -0.96875q0.6875 -0.4375 1.796875 -0.71875q1.125 -0.28125 2.796875 -0.328125l0 -0.5625q0 -0.984375 -0.421875 -1.453125q-0.40625 -0.46875 -1.203125 -0.46875q-0.5625 0 -0.953125 0.140625q-0.375 0.125 -0.65625 0.296875q-0.28125 0.171875 -0.515625 0.3125q-0.234375 0.125 -0.515625 0.125q-0.25 0 -0.421875 -0.125q-0.171875 -0.125 -0.265625 -0.3125l-0.4375 -0.75q1.6875 -1.53125 4.0625 -1.53125q0.859375 0 1.515625 0.28125q0.671875 0.28125 1.140625 0.78125q0.46875 0.484375 0.703125 1.1875q0.25 0.6875 0.25 1.515625l0 6.15625zm-4.5625 -1.46875q0.359375 0 0.65625 -0.0625q0.3125 -0.0625 0.578125 -0.1875q0.28125 -0.140625 0.53125 -0.328125q0.25 -0.203125 0.515625 -0.46875l0 -1.640625q-1.03125 0.046875 -1.71875 0.171875q-0.6875 0.125 -1.109375 0.328125q-0.421875 0.203125 -0.59375 0.46875q-0.171875 0.265625 -0.171875 0.578125q0 0.609375 0.359375 0.875q0.375 0.265625 0.953125 0.265625zm6.688431 1.46875l0 -9.75l1.375 0q0.375 0 0.515625 0.140625q0.140625 0.125 0.1875 0.453125l0.140625 1.171875q0.515625 -0.890625 1.21875 -1.40625q0.703125 -0.53125 1.578125 -0.53125q0.71875 0 1.203125 0.328125l-0.3125 1.75q-0.015625 0.171875 -0.125 0.25q-0.09375 0.0625 -0.25 0.0625q-0.140625 0 -0.390625 -0.0625q-0.25 -0.0625 -0.65625 -0.0625q-0.734375 0 -1.25 0.40625q-0.515625 0.40625 -0.890625 1.171875l0 6.078125l-2.34375 0z" fill-rule="nonzero"></path><path fill="#000000" fill-opacity="0.0" d="m189.50394 21.131233l192.31497 0l0 65.57481l-192.31497 0z" fill-rule="nonzero"></path><path fill="#93c47d" d="m257.20157 61.359886l8.390625 0l0 3.21875l-12.296875 0l0 -20.96875l3.90625 0l0 17.75zm17.41275 -11.890625q1.671875 0 3.015625 0.546875q1.359375 0.53125 2.3125 1.515625q0.96875 0.984375 1.484375 2.40625q0.53125 1.421875 0.53125 3.171875q0 1.765625 -0.53125 3.1875q-0.515625 1.421875 -1.484375 2.421875q-0.953125 1.0 -2.3125 1.546875q-1.34375 0.53125 -3.015625 0.53125q-1.671875 0 -3.03125 -0.53125q-1.359375 -0.546875 -2.328125 -1.546875q-0.96875 -1.0 -1.5 -2.421875q-0.515625 -1.421875 -0.515625 -3.1875q0 -1.75 0.515625 -3.171875q0.53125 -1.421875 1.5 -2.40625q0.96875 -0.984375 2.328125 -1.515625q1.359375 -0.546875 3.03125 -0.546875zm0 12.578125q1.859375 0 2.75 -1.25q0.890625 -1.25 0.890625 -3.65625q0 -2.40625 -0.890625 -3.671875q-0.890625 -1.265625 -2.75 -1.265625q-1.890625 0 -2.796875 1.28125q-0.890625 1.265625 -0.890625 3.65625q0 2.390625 0.890625 3.65625q0.90625 1.25 2.796875 1.25zm15.470062 -12.609375q0.953125 0 1.796875 0.203125q0.84375 0.1875 1.53125 0.5625l4.28125 0l0 1.34375q0 0.328125 -0.171875 0.515625q-0.171875 0.1875 -0.59375 0.265625l-1.328125 0.25q0.140625 0.375 0.21875 0.796875q0.078125 0.421875 0.078125 0.875q0 1.109375 -0.453125 2.0q-0.4375 0.890625 -1.21875 1.515625q-0.765625 0.625 -1.828125 0.96875q-1.0625 0.328125 -2.3125 0.328125q-0.84375 0 -1.640625 -0.15625q-0.6875 0.421875 -0.6875 0.9375q0 0.453125 0.40625 0.671875q0.40625 0.203125 1.078125 0.296875q0.6875 0.078125 1.53125 0.109375q0.859375 0.015625 1.75 0.09375q0.90625 0.0625 1.765625 0.25q0.859375 0.1875 1.53125 0.578125q0.671875 0.390625 1.078125 1.0625q0.421875 0.671875 0.421875 1.734375q0 0.984375 -0.484375 1.90625q-0.484375 0.9375 -1.40625 1.65625q-0.921875 0.71875 -2.265625 1.15625q-1.328125 0.453125 -3.03125 0.453125q-1.703125 0 -2.953125 -0.328125q-1.234375 -0.328125 -2.0625 -0.875q-0.8125 -0.53125 -1.21875 -1.25q-0.40625 -0.703125 -0.40625 -1.46875q0 -1.046875 0.625 -1.75q0.640625 -0.71875 1.78125 -1.140625q-0.5625 -0.3125 -0.890625 -0.8125q-0.328125 -0.515625 -0.328125 -1.328125q0 -0.328125 0.109375 -0.671875q0.125 -0.359375 0.359375 -0.703125q0.234375 -0.359375 0.59375 -0.671875q0.375 -0.3125 0.859375 -0.5625q-1.125 -0.609375 -1.78125 -1.625q-0.640625 -1.015625 -0.640625 -2.375q0 -1.09375 0.4375 -1.984375q0.453125 -0.890625 1.234375 -1.515625q0.796875 -0.640625 1.875 -0.96875q1.078125 -0.34375 2.359375 -0.34375zm3.921875 15.8125q0 -0.4375 -0.265625 -0.703125q-0.25 -0.28125 -0.703125 -0.4375q-0.453125 -0.15625 -1.0625 -0.21875q-0.59375 -0.078125 -1.265625 -0.109375q-0.671875 -0.046875 -1.390625 -0.078125q-0.71875 -0.03125 -1.375 -0.125q-0.609375 0.328125 -0.984375 0.796875q-0.375 0.453125 -0.375 1.046875q0 0.390625 0.1875 0.71875q0.203125 0.34375 0.625 0.59375q0.4375 0.25 1.109375 0.390625q0.6875 0.140625 1.671875 0.140625q1.0 0 1.71875 -0.15625q0.734375 -0.15625 1.203125 -0.421875q0.484375 -0.265625 0.6875 -0.640625q0.21875 -0.359375 0.21875 -0.796875zm-3.921875 -8.46875q0.671875 0 1.15625 -0.171875q0.5 -0.1875 0.8125 -0.5q0.328125 -0.328125 0.5 -0.78125q0.171875 -0.453125 0.171875 -0.984375q0 -1.109375 -0.671875 -1.75q-0.65625 -0.640625 -1.96875 -0.640625q-1.328125 0 -1.984375 0.640625q-0.65625 0.640625 -0.65625 1.75q0 0.515625 0.15625 0.96875q0.171875 0.453125 0.5 0.78125q0.328125 0.328125 0.828125 0.515625q0.5 0.171875 1.15625 0.171875zm13.849274 -7.078125l0 14.875l-3.59375 0l0 -14.875l3.59375 0zm0.53125 -4.34375q0 0.46875 -0.1875 0.875q-0.1875 0.40625 -0.5 0.71875q-0.3125 0.296875 -0.734375 0.484375q-0.421875 0.171875 -0.90625 0.171875q-0.453125 0 -0.875 -0.171875q-0.40625 -0.1875 -0.71875 -0.484375q-0.296875 -0.3125 -0.484375 -0.71875q-0.171875 -0.40625 -0.171875 -0.875q0 -0.46875 0.171875 -0.890625q0.1875 -0.421875 0.484375 -0.71875q0.3125 -0.3125 0.71875 -0.484375q0.421875 -0.1875 0.875 -0.1875q0.484375 0 0.90625 0.1875q0.421875 0.171875 0.734375 0.484375q0.3125 0.296875 0.5 0.71875q0.1875 0.421875 0.1875 0.890625zm14.057373 7.484375q-0.171875 0.203125 -0.328125 0.328125q-0.140625 0.109375 -0.4375 0.109375q-0.265625 0 -0.53125 -0.15625q-0.265625 -0.171875 -0.625 -0.375q-0.359375 -0.21875 -0.859375 -0.390625q-0.5 -0.171875 -1.234375 -0.171875q-0.953125 0 -1.671875 0.34375q-0.703125 0.34375 -1.171875 0.984375q-0.46875 0.640625 -0.703125 1.546875q-0.234375 0.90625 -0.234375 2.046875q0 1.1875 0.25 2.125q0.265625 0.921875 0.734375 1.5625q0.484375 0.625 1.15625 0.953125q0.6875 0.3125 1.546875 0.3125q0.859375 0 1.375 -0.203125q0.53125 -0.203125 0.890625 -0.453125q0.375 -0.265625 0.640625 -0.46875q0.265625 -0.21875 0.609375 -0.21875q0.421875 0 0.640625 0.328125l1.03125 1.3125q-0.59375 0.703125 -1.296875 1.171875q-0.6875 0.46875 -1.4375 0.75q-0.75 0.28125 -1.546875 0.390625q-0.796875 0.125 -1.578125 0.125q-1.375 0 -2.59375 -0.515625q-1.21875 -0.515625 -2.125 -1.5q-0.90625 -0.984375 -1.4375 -2.40625q-0.53125 -1.4375 -0.53125 -3.265625q0 -1.640625 0.46875 -3.03125q0.484375 -1.40625 1.390625 -2.421875q0.921875 -1.03125 2.265625 -1.609375q1.34375 -0.578125 3.109375 -0.578125q1.65625 0 2.90625 0.546875q1.265625 0.53125 2.265625 1.53125l-0.9375 1.296875z" fill-rule="nonzero"></path><path fill="#000000" fill-opacity="0.0" d="m285.586 199.19637l0 0c-5.29068 -29.678925 -5.180725 -60.069138 0.32458496 -89.70899l246.2915 45.746223z" fill-rule="nonzero"></path><path fill="#000000" fill-opacity="0.0" d="m285.586 199.19637l0 0c-5.29068 -29.678925 -5.180725 -60.069138 0.32458496 -89.70899" fill-rule="nonzero"></path><path stroke="#f3f3f3" stroke-width="3.0" stroke-linejoin="round" stroke-linecap="butt" d="m285.586 199.19637l0 0c-5.29068 -29.678925 -5.180725 -60.069138 0.32458496 -89.70899" fill-rule="nonzero"></path><path fill="#6d9eeb" d="m276.01837 195.15092l0 0c0 -6.2708282 5.083496 -11.35434 11.35434 -11.35434l0 0c3.0113525 0 5.899353 1.1962585 8.028717 3.3256073c2.129364 2.1293488 3.325592 5.0173645 3.325592 8.028732l0 0c0 6.270813 -5.083496 11.354324 -11.354309 11.354324l0 0c-6.2708435 0 -11.35434 -5.0835114 -11.35434 -11.354324z" fill-rule="nonzero"></path><path fill="#000000" fill-opacity="0.0" d="m381.78595 379.5933l0 0c-19.309174 -17.427399 -35.73703 -37.354523 -48.761658 -59.148315l243.3825 -122.58409z" fill-rule="nonzero"></path><path fill="#000000" fill-opacity="0.0" d="m381.78595 379.5933l0 0c-19.309174 -17.427399 -35.73703 -37.354523 -48.761658 -59.148315" fill-rule="nonzero"></path><path stroke="#ffffff" stroke-width="3.0" stroke-linejoin="round" stroke-linecap="butt" d="m381.78595 379.5933l0 0c-19.309174 -17.427399 -35.73703 -37.354523 -48.761658 -59.148315" fill-rule="nonzero"></path><path fill="#6d9eeb" d="m326.14172 324.13516l0 0c0 -6.270813 5.0835266 -11.354309 11.35434 -11.354309l0 0c3.0113525 0 5.8993835 1.196228 8.028717 3.325592c2.129364 2.129364 3.3256226 5.0173645 3.3256226 8.028717l0 0c0 6.2708435 -5.0835266 11.35434 -11.35434 11.35434l0 0c-6.270813 0 -11.35434 -5.083496 -11.35434 -11.35434z" fill-rule="nonzero"></path><path fill="#6d9eeb" d="m411.03937 295.84778l15.8897705 0l0 0l23.834656 0l55.614166 0l0 21.257202l0 0l0 9.1102295l0 6.073517l-55.614166 0l-23.834656 0l0 0l-15.8897705 0l0 -6.073517l-62.078766 -3.800537l62.078766 -5.3096924z" fill-rule="nonzero"></path><path fill="#ffffff" d="m442.16544 309.75388q-0.109375 0.203125 -0.25 0.296875q-0.125 0.078125 -0.328125 0.078125q-0.1875 0 -0.421875 -0.140625q-0.234375 -0.15625 -0.5625 -0.328125q-0.3125 -0.1875 -0.75 -0.328125q-0.4375 -0.15625 -1.015625 -0.15625q-0.53125 0 -0.9375 0.140625q-0.390625 0.125 -0.671875 0.359375q-0.265625 0.21875 -0.40625 0.546875q-0.125 0.3125 -0.125 0.6875q0 0.484375 0.265625 0.8125q0.28125 0.3125 0.71875 0.546875q0.453125 0.21875 1.015625 0.40625q0.578125 0.1875 1.171875 0.390625q0.59375 0.203125 1.15625 0.46875q0.578125 0.265625 1.015625 0.6875q0.453125 0.40625 0.71875 1.015625q0.28125 0.59375 0.28125 1.453125q0 0.921875 -0.328125 1.734375q-0.3125 0.8125 -0.921875 1.421875q-0.609375 0.59375 -1.5 0.953125q-0.875 0.34375 -2.015625 0.34375q-0.65625 0 -1.296875 -0.140625q-0.640625 -0.125 -1.234375 -0.359375q-0.578125 -0.234375 -1.09375 -0.5625q-0.5 -0.34375 -0.890625 -0.75l0.734375 -1.21875q0.109375 -0.140625 0.25 -0.21875q0.15625 -0.09375 0.328125 -0.09375q0.25 0 0.515625 0.203125q0.28125 0.1875 0.65625 0.421875q0.375 0.234375 0.875 0.4375q0.515625 0.1875 1.234375 0.1875q1.078125 0 1.671875 -0.515625q0.609375 -0.515625 0.609375 -1.484375q0 -0.546875 -0.28125 -0.890625q-0.265625 -0.34375 -0.71875 -0.578125q-0.4375 -0.234375 -1.015625 -0.390625q-0.5625 -0.15625 -1.15625 -0.34375q-0.578125 -0.203125 -1.15625 -0.46875q-0.5625 -0.265625 -1.015625 -0.6875q-0.4375 -0.421875 -0.71875 -1.0625q-0.265625 -0.640625 -0.265625 -1.59375q0 -0.75 0.296875 -1.453125q0.296875 -0.71875 0.875 -1.265625q0.578125 -0.546875 1.40625 -0.875q0.84375 -0.34375 1.921875 -0.34375q1.21875 0 2.234375 0.390625q1.03125 0.375 1.75 1.0625l-0.625 1.203125zm2.5090942 14.421875l0 -12.9375l1.4375 0q0.234375 0 0.390625 0.109375q0.15625 0.109375 0.203125 0.328125l0.203125 0.890625q0.578125 -0.671875 1.34375 -1.078125q0.765625 -0.421875 1.796875 -0.421875q0.796875 0 1.453125 0.328125q0.65625 0.328125 1.140625 0.96875q0.484375 0.625 0.734375 1.5625q0.265625 0.921875 0.265625 2.109375q0 1.09375 -0.296875 2.03125q-0.28125 0.921875 -0.828125 1.609375q-0.546875 0.6875 -1.328125 1.078125q-0.78125 0.375 -1.734375 0.375q-0.828125 0 -1.40625 -0.25q-0.5625 -0.25 -1.03125 -0.703125l0 4.0l-2.34375 0zm4.5625 -11.265625q-0.734375 0 -1.25 0.3125q-0.515625 0.3125 -0.96875 0.875l0 4.359375q0.40625 0.5 0.875 0.703125q0.46875 0.1875 1.015625 0.1875q0.53125 0 0.953125 -0.203125q0.4375 -0.203125 0.734375 -0.609375q0.296875 -0.40625 0.453125 -1.03125q0.171875 -0.625 0.171875 -1.46875q0 -0.84375 -0.140625 -1.4375q-0.125 -0.59375 -0.390625 -0.96875q-0.25 -0.375 -0.625 -0.546875q-0.359375 -0.171875 -0.828125 -0.171875zm10.01886 -1.828125q0.921875 0 1.6875 0.296875q0.78125 0.296875 1.34375 0.875q0.5625 0.5625 0.875 1.390625q0.3125 0.8125 0.3125 1.859375q0 0.265625 -0.03125 0.453125q-0.015625 0.171875 -0.078125 0.265625q-0.0625 0.09375 -0.171875 0.140625q-0.09375 0.046875 -0.265625 0.046875l-6.015625 0q0.109375 1.5 0.8125 2.203125q0.703125 0.703125 1.859375 0.703125q0.5625 0 0.96875 -0.125q0.421875 -0.140625 0.734375 -0.296875q0.3125 -0.171875 0.53125 -0.296875q0.234375 -0.140625 0.453125 -0.140625q0.15625 0 0.25 0.0625q0.109375 0.0625 0.1875 0.15625l0.6875 0.859375q-0.390625 0.453125 -0.875 0.765625q-0.484375 0.3125 -1.015625 0.5q-0.53125 0.171875 -1.078125 0.25q-0.546875 0.078125 -1.0625 0.078125q-1.015625 0 -1.890625 -0.328125q-0.875 -0.34375 -1.515625 -1.0q-0.640625 -0.671875 -1.015625 -1.640625q-0.375 -0.96875 -0.375 -2.25q0 -1.0 0.328125 -1.875q0.328125 -0.890625 0.921875 -1.53125q0.609375 -0.65625 1.46875 -1.03125q0.875 -0.390625 1.96875 -0.390625zm0.046875 1.6875q-1.03125 0 -1.609375 0.578125q-0.578125 0.578125 -0.734375 1.640625l4.40625 0q0 -0.453125 -0.125 -0.859375q-0.125 -0.40625 -0.390625 -0.703125q-0.25 -0.296875 -0.640625 -0.46875q-0.375 -0.1875 -0.90625 -0.1875zm13.534271 8.21875l-1.046875 0q-0.34375 0 -0.53125 -0.09375q-0.1875 -0.109375 -0.28125 -0.40625l-0.203125 -0.703125q-0.375 0.34375 -0.734375 0.59375q-0.359375 0.25 -0.734375 0.421875q-0.375 0.171875 -0.8125 0.25q-0.421875 0.09375 -0.953125 0.09375q-0.609375 0 -1.140625 -0.171875q-0.515625 -0.171875 -0.890625 -0.5q-0.375 -0.328125 -0.59375 -0.8125q-0.203125 -0.5 -0.203125 -1.15625q0 -0.5625 0.28125 -1.09375q0.296875 -0.53125 0.96875 -0.96875q0.6875 -0.4375 1.796875 -0.71875q1.125 -0.28125 2.796875 -0.328125l0 -0.5625q0 -0.984375 -0.421875 -1.453125q-0.40625 -0.46875 -1.203125 -0.46875q-0.5625 0 -0.953125 0.140625q-0.375 0.125 -0.65625 0.296875q-0.28125 0.171875 -0.515625 0.3125q-0.234375 0.125 -0.515625 0.125q-0.25 0 -0.421875 -0.125q-0.171875 -0.125 -0.265625 -0.3125l-0.4375 -0.75q1.6875 -1.53125 4.0625 -1.53125q0.859375 0 1.515625 0.28125q0.671875 0.28125 1.140625 0.78125q0.46875 0.484375 0.703125 1.1875q0.25 0.6875 0.25 1.515625l0 6.15625zm-4.5625 -1.46875q0.359375 0 0.65625 -0.0625q0.3125 -0.0625 0.578125 -0.1875q0.28125 -0.140625 0.53125 -0.328125q0.25 -0.203125 0.515625 -0.46875l0 -1.640625q-1.03125 0.046875 -1.71875 0.171875q-0.6875 0.125 -1.109375 0.328125q-0.421875 0.203125 -0.59375 0.46875q-0.171875 0.265625 -0.171875 0.578125q0 0.609375 0.359375 0.875q0.375 0.265625 0.953125 0.265625zm9.063416 -12.640625l0 8.078125l0.4375 0q0.234375 0 0.359375 -0.0625q0.140625 -0.078125 0.296875 -0.25l2.421875 -3.0q0.171875 -0.1875 0.34375 -0.296875q0.1875 -0.109375 0.484375 -0.109375l2.140625 0l-3.03125 3.625q-0.15625 0.203125 -0.328125 0.375q-0.171875 0.15625 -0.375 0.28125q0.203125 0.140625 0.34375 0.328125q0.15625 0.1875 0.3125 0.40625l3.25 4.734375l-2.125 0q-0.265625 0 -0.46875 -0.09375q-0.1875 -0.09375 -0.328125 -0.328125l-2.484375 -3.6875q-0.140625 -0.21875 -0.28125 -0.28125q-0.140625 -0.078125 -0.4375 -0.078125l-0.53125 0l0 4.46875l-2.34375 0l0 -14.109375l2.34375 0z" fill-rule="nonzero"></path><path fill="#93c47d" d="m267.4987 107.479004l0 0c0 -10.97612 8.897888 -19.874016 19.874023 -19.874016l0 0c5.2709045 0 10.325928 2.0938644 14.05304 5.820961c3.7271118 3.7271042 5.8209534 8.782135 5.8209534 14.053055l0 0c0 10.976112 -8.897888 19.874016 -19.873993 19.874016l0 0c-10.976135 0 -19.874023 -8.897903 -19.874023 -19.874016z" fill-rule="nonzero"></path><path fill="#6d9eeb" d="m175.83595 384.8281l0 0c0 -6.2708435 5.0835114 -11.35434 11.35434 -11.35434l0 0c3.0113525 0 5.8993683 1.1962585 8.028717 3.325592c2.1293488 2.129364 3.3256073 5.017395 3.3256073 8.028748l0 0c0 6.270813 -5.0835114 11.354309 -11.354324 11.354309l0 0c-6.2708282 0 -11.35434 -5.083496 -11.35434 -11.354309z" fill-rule="nonzero"></path><path fill="#6d9eeb" d="m233.23097 324.00394l0 0c0 -6.270813 5.0835114 -11.35434 11.354324 -11.35434l0 0c3.0113678 0 5.8993835 1.1962585 8.028732 3.3256226c2.1293488 2.1293335 3.3256073 5.0173645 3.3256073 8.028717l0 0c0 6.270813 -5.0835114 11.35434 -11.35434 11.35434l0 0c-6.270813 0 -11.354324 -5.0835266 -11.354324 -11.35434z" fill-rule="nonzero"></path><path fill="#ffffff" d="m348.83203 402.9741l0 0c0 -27.475067 22.688934 -49.748016 50.677155 -49.748016l0 0c13.44043 0 26.330353 5.2413025 35.834167 14.570862c9.503815 9.329559 14.842987 21.983154 14.842987 35.177155l0 0c0 27.475098 -22.688934 49.748047 -50.677155 49.748047l0 0c-27.98822 0 -50.677155 -22.27295 -50.677155 -49.748047z" fill-rule="nonzero"></path><path fill="#666666" d="m382.0701 401.78223q-0.109375 0.171875 -0.234375 0.234375q-0.109375 0.0625 -0.28125 0.0625q-0.1875 0 -0.40625 -0.09375q-0.21875 -0.109375 -0.5 -0.234375q-0.28125 -0.140625 -0.640625 -0.234375q-0.359375 -0.109375 -0.859375 -0.109375q-0.765625 0 -1.203125 0.328125q-0.4375 0.3125 -0.4375 0.84375q0 0.34375 0.21875 0.578125q0.234375 0.234375 0.59375 0.421875q0.375 0.171875 0.84375 0.3125q0.484375 0.140625 0.96875 0.3125q0.5 0.171875 0.96875 0.390625q0.46875 0.203125 0.84375 0.546875q0.375 0.328125 0.59375 0.796875q0.234375 0.453125 0.234375 1.109375q0 0.765625 -0.28125 1.421875q-0.28125 0.65625 -0.828125 1.140625q-0.546875 0.46875 -1.359375 0.75q-0.796875 0.265625 -1.84375 0.265625q-0.546875 0 -1.078125 -0.109375q-0.53125 -0.09375 -1.03125 -0.265625q-0.484375 -0.1875 -0.90625 -0.421875q-0.40625 -0.25 -0.71875 -0.53125l0.609375 -0.984375q0.109375 -0.1875 0.265625 -0.28125q0.15625 -0.09375 0.40625 -0.09375q0.234375 0 0.453125 0.140625q0.21875 0.140625 0.5 0.296875q0.28125 0.15625 0.65625 0.296875q0.390625 0.125 0.984375 0.125q0.453125 0 0.78125 -0.109375q0.328125 -0.109375 0.546875 -0.28125q0.21875 -0.171875 0.3125 -0.40625q0.109375 -0.25 0.109375 -0.5q0 -0.375 -0.234375 -0.609375q-0.21875 -0.25 -0.59375 -0.421875q-0.375 -0.1875 -0.859375 -0.328125q-0.46875 -0.140625 -0.96875 -0.296875q-0.5 -0.171875 -0.984375 -0.390625q-0.46875 -0.234375 -0.84375 -0.578125q-0.375 -0.359375 -0.609375 -0.859375q-0.21875 -0.5 -0.21875 -1.21875q0 -0.65625 0.265625 -1.25q0.265625 -0.609375 0.765625 -1.046875q0.515625 -0.453125 1.28125 -0.71875q0.765625 -0.265625 1.75 -0.265625q1.125 0 2.03125 0.375q0.921875 0.359375 1.53125 0.953125l-0.59375 0.9375zm2.929718 8.671875l0 -15.609375l2.59375 0l0 6.0q0.625 -0.59375 1.375 -0.953125q0.765625 -0.375 1.78125 -0.375q0.875 0 1.5625 0.296875q0.6875 0.296875 1.140625 0.84375q0.453125 0.53125 0.6875 1.28125q0.234375 0.75 0.234375 1.65625l0 6.859375l-2.59375 0l0 -6.859375q0 -0.984375 -0.453125 -1.515625q-0.453125 -0.546875 -1.359375 -0.546875q-0.671875 0 -1.265625 0.3125q-0.59375 0.296875 -1.109375 0.8125l0 7.796875l-2.59375 0zm16.718689 -10.9375q1.203125 0 2.1875 0.390625q0.984375 0.390625 1.671875 1.109375q0.703125 0.703125 1.078125 1.734375q0.375 1.03125 0.375 2.296875q0 1.28125 -0.375 2.3125q-0.375 1.03125 -1.078125 1.75q-0.6875 0.71875 -1.671875 1.109375q-0.984375 0.390625 -2.1875 0.390625q-1.203125 0 -2.203125 -0.390625q-0.984375 -0.390625 -1.6875 -1.109375q-0.6875 -0.71875 -1.078125 -1.75q-0.375 -1.03125 -0.375 -2.3125q0 -1.265625 0.375 -2.296875q0.390625 -1.03125 1.078125 -1.734375q0.703125 -0.71875 1.6875 -1.109375q1.0 -0.390625 2.203125 -0.390625zm0 9.09375q1.34375 0 1.984375 -0.890625q0.65625 -0.90625 0.65625 -2.65625q0 -1.734375 -0.65625 -2.640625q-0.640625 -0.921875 -1.984375 -0.921875q-1.359375 0 -2.015625 0.921875q-0.65625 0.90625 -0.65625 2.640625q0 1.734375 0.65625 2.640625q0.65625 0.90625 2.015625 0.90625zm6.2187195 -8.921875l2.046875 0q0.296875 0 0.5 0.140625q0.203125 0.125 0.25 0.328125l1.546875 5.765625q0.125 0.46875 0.203125 0.921875q0.078125 0.453125 0.15625 0.90625q0.109375 -0.453125 0.234375 -0.90625q0.140625 -0.453125 0.28125 -0.921875l1.796875 -5.78125q0.0625 -0.203125 0.25 -0.34375q0.1875 -0.140625 0.4375 -0.140625l1.140625 0q0.28125 0 0.46875 0.140625q0.203125 0.140625 0.265625 0.34375l1.75 5.875q0.140625 0.453125 0.25 0.890625q0.109375 0.421875 0.21875 0.84375q0.078125 -0.453125 0.15625 -0.890625q0.09375 -0.453125 0.234375 -0.9375l1.59375 -5.765625q0.046875 -0.203125 0.25 -0.328125q0.203125 -0.140625 0.46875 -0.140625l1.953125 0l-3.40625 10.765625l-2.09375 0q-0.328125 0 -0.484375 -0.46875l-1.9375 -6.21875q-0.09375 -0.3125 -0.171875 -0.609375q-0.078125 -0.3125 -0.125 -0.625q-0.0625 0.3125 -0.140625 0.625q-0.078125 0.3125 -0.171875 0.625l-1.96875 6.203125q-0.140625 0.46875 -0.5625 0.46875l-1.984375 0l-3.40625 -10.765625z" fill-rule="nonzero"></path><path fill="#6d9eeb" d="m359.11023 364.57874l0 0c0 -6.270813 5.0835266 -11.35434 11.35434 -11.35434l0 0c3.0113525 0 5.8993835 1.1962585 8.028717 3.3256226c2.129364 2.1293335 3.3256226 5.0173645 3.3256226 8.028717l0 0c0 6.2708435 -5.0835266 11.35434 -11.35434 11.35434l0 0c-6.270813 0 -11.35434 -5.083496 -11.35434 -11.35434z" fill-rule="nonzero"></path><path fill="#6d9eeb" d="m226.55249 366.6076l62.485565 0l0 0l26.779541 0l17.852997 0l0 6.0734863l28.382019 -5.3187866l-28.382019 14.429047l0 21.257202l-17.852997 0l-26.779541 0l0 0l-62.485565 0l0 -21.257202l0 -9.11026l0 0z" fill-rule="nonzero"></path><path fill="#ffffff" d="m265.76382 391.74808l-1.984375 0q-0.328125 0 -0.546875 -0.15625q-0.21875 -0.171875 -0.3125 -0.421875l-1.015625 -2.796875l-5.703125 0l-1.015625 2.796875q-0.078125 0.21875 -0.3125 0.40625q-0.21875 0.171875 -0.53125 0.171875l-1.984375 0l5.390625 -13.734375l2.609375 0l5.40625 13.734375zm-8.90625 -5.1875l4.390625 0l-1.671875 -4.5625q-0.125 -0.3125 -0.265625 -0.71875q-0.125 -0.421875 -0.265625 -0.90625q-0.125 0.484375 -0.265625 0.90625q-0.125 0.421875 -0.25 0.734375l-1.671875 4.546875zm16.792816 -2.5q-0.109375 0.140625 -0.21875 0.21875q-0.09375 0.0625 -0.28125 0.0625q-0.1875 0 -0.359375 -0.109375q-0.15625 -0.109375 -0.40625 -0.234375q-0.234375 -0.140625 -0.5625 -0.25q-0.328125 -0.109375 -0.8125 -0.109375q-0.609375 0 -1.078125 0.21875q-0.46875 0.21875 -0.78125 0.640625q-0.296875 0.421875 -0.453125 1.015625q-0.15625 0.59375 -0.15625 1.34375q0 0.78125 0.15625 1.390625q0.171875 0.609375 0.484375 1.015625q0.328125 0.40625 0.765625 0.625q0.453125 0.21875 1.015625 0.21875q0.546875 0 0.890625 -0.140625q0.359375 -0.140625 0.59375 -0.296875q0.234375 -0.171875 0.40625 -0.3125q0.1875 -0.140625 0.40625 -0.140625q0.28125 0 0.421875 0.21875l0.671875 0.859375q-0.390625 0.453125 -0.84375 0.765625q-0.453125 0.3125 -0.953125 0.5q-0.484375 0.171875 -1.015625 0.25q-0.515625 0.078125 -1.015625 0.078125q-0.90625 0 -1.703125 -0.328125q-0.796875 -0.34375 -1.390625 -0.984375q-0.59375 -0.65625 -0.953125 -1.59375q-0.34375 -0.9375 -0.34375 -2.125q0 -1.078125 0.3125 -1.984375q0.3125 -0.921875 0.90625 -1.59375q0.59375 -0.671875 1.484375 -1.046875q0.890625 -0.390625 2.03125 -0.390625q1.09375 0 1.90625 0.359375q0.828125 0.34375 1.484375 1.0l-0.609375 0.859375zm5.2427673 7.84375q-1.265625 0 -1.953125 -0.71875q-0.671875 -0.71875 -0.671875 -1.984375l0 -5.4375l-0.984375 0q-0.203125 0 -0.34375 -0.125q-0.125 -0.125 -0.125 -0.375l0 -0.9375l1.5625 -0.25l0.5 -2.65625q0.03125 -0.1875 0.171875 -0.296875q0.140625 -0.109375 0.34375 -0.109375l1.21875 0l0 3.078125l2.5625 0l0 1.671875l-2.5625 0l0 5.28125q0 0.453125 0.21875 0.71875q0.234375 0.25 0.609375 0.25q0.21875 0 0.359375 -0.046875q0.15625 -0.0625 0.265625 -0.109375q0.109375 -0.0625 0.1875 -0.109375q0.09375 -0.0625 0.1875 -0.0625q0.09375 0 0.15625 0.0625q0.078125 0.046875 0.15625 0.140625l0.703125 1.140625q-0.515625 0.4375 -1.1875 0.65625q-0.65625 0.21875 -1.375 0.21875zm6.5168457 -9.90625l0 9.75l-2.34375 0l0 -9.75l2.34375 0zm0.359375 -2.84375q0 0.3125 -0.125 0.578125q-0.125 0.265625 -0.328125 0.46875q-0.203125 0.1875 -0.484375 0.3125q-0.28125 0.125 -0.59375 0.125q-0.296875 0 -0.578125 -0.125q-0.265625 -0.125 -0.46875 -0.3125q-0.1875 -0.203125 -0.3125 -0.46875q-0.109375 -0.265625 -0.109375 -0.578125q0 -0.3125 0.109375 -0.578125q0.125 -0.28125 0.3125 -0.46875q0.203125 -0.203125 0.46875 -0.328125q0.28125 -0.125 0.578125 -0.125q0.3125 0 0.59375 0.125q0.28125 0.125 0.484375 0.328125q0.203125 0.1875 0.328125 0.46875q0.125 0.265625 0.125 0.578125zm6.3683777 2.6875q1.078125 0 1.96875 0.359375q0.890625 0.34375 1.515625 1.0q0.625 0.640625 0.96875 1.578125q0.34375 0.921875 0.34375 2.078125q0 1.15625 -0.34375 2.09375q-0.34375 0.921875 -0.96875 1.578125q-0.625 0.65625 -1.515625 1.015625q-0.890625 0.34375 -1.96875 0.34375q-1.09375 0 -2.0000305 -0.34375q-0.890625 -0.359375 -1.53125 -1.015625q-0.625 -0.65625 -0.96875 -1.578125q-0.34375 -0.9375 -0.34375 -2.09375q0 -1.15625 0.34375 -2.078125q0.34375 -0.9375 0.96875 -1.578125q0.640625 -0.65625 1.53125 -1.0q0.9062805 -0.359375 2.0000305 -0.359375zm0 8.25q1.203125 0 1.78125 -0.8125q0.59375 -0.828125 0.59375 -2.40625q0 -1.578125 -0.59375 -2.40625q-0.578125 -0.828125 -1.78125 -0.828125q-1.234375 0 -1.8281555 0.84375q-0.59375 0.828125 -0.59375 2.390625q0 1.5625 0.59375 2.390625q0.5937805 0.828125 1.8281555 0.828125zm6.434204 1.65625l0 -9.75l1.4375 0q0.453125 0 0.59375 0.4375l0.171875 0.765625q0.296875 -0.3125 0.625 -0.546875q0.328125 -0.25 0.6875 -0.421875q0.359375 -0.1875 0.78125 -0.28125q0.421875 -0.109375 0.90625 -0.109375q0.8125 0 1.421875 0.28125q0.625 0.265625 1.03125 0.765625q0.40625 0.484375 0.625 1.171875q0.21875 0.671875 0.21875 1.484375l0 6.203125l-2.34375 0l0 -6.203125q0 -0.890625 -0.421875 -1.375q-0.40625 -0.5 -1.234375 -0.5q-0.609375 0 -1.140625 0.28125q-0.53125 0.265625 -1.015625 0.75l0 7.046875l-2.34375 0z" fill-rule="nonzero"></path></g></svg>

