<?xml version="1.0" standalone="yes"?>

<svg version="1.1" viewBox="0.0 0.0 739.0 775.0" fill="none" stroke="none" stroke-linecap="square" stroke-miterlimit="10" xmlns="http://www.w3.org/2000/svg" xmlns:xlink="http://www.w3.org/1999/xlink"><clipPath id="p.0"><path d="m0 0l739.0 0l0 775.0l-739.0 0l0 -775.0z" clip-rule="nonzero"></path></clipPath><g clip-path="url(#p.0)"><path fill="#000000" fill-opacity="0.0" d="m0 0l739.4619 0l0 775.9055l-739.4619 0z" fill-rule="nonzero"></path><path fill="#666666" d="m36.314983 399.4541l0 0c0 -176.1571 142.80353 -318.96063 318.96063 -318.96063l0 0c84.59363 0 165.7225 33.604683 225.53922 93.42141c59.81671 59.816727 93.42145 140.9456 93.42145 225.53923l0 0c0 176.1571 -142.80359 318.96063 -318.96066 318.96063l0 0c-176.15709 0 -318.96063 -142.80353 -318.96063 -318.96063z" fill-rule="nonzero"></path><path fill="#000000" fill-opacity="0.0" d="m364.98495 468.67142l0 0c-5.29068 -29.678894 -5.180725 -60.069122 0.32458496 -89.708984l246.29153 45.746216z" fill-rule="nonzero"></path><path fill="#000000" fill-opacity="0.0" d="m364.98495 468.67142l0 0c-5.29068 -29.678894 -5.180725 -60.069122 0.32458496 -89.708984" fill-rule="nonzero"></path><path stroke="#f3f3f3" stroke-width="3.0" stroke-linejoin="round" stroke-linecap="butt" d="m364.98495 468.67142l0 0c-5.29068 -29.678894 -5.180725 -60.069122 0.32458496 -89.708984" fill-rule="nonzero"></path><path fill="#000000" fill-opacity="0.0" d="m190.57217 139.4357l456.9764 0l0 177.76376l-456.9764 0z" fill-rule="nonzero"></path><path fill="#ffffff" d="m201.00967 159.81944l1.53125 0l0.171875 1.53125l0.078125 0q0.421875 -0.8125 1.015625 -1.3125q0.59375 -0.515625 1.59375 -0.515625q1.78125 0 2.21875 2.015625q0.515625 -0.90625 1.140625 -1.453125q0.625 -0.5625 1.609375 -0.5625q1.234375 0 1.890625 0.921875q0.65625 0.921875 0.65625 2.671875l0 8.359375l-1.890625 0l0 -8.1875q0 -2.0625 -1.28125 -2.0625q-0.625 0 -1.078125 0.453125q-0.453125 0.4375 -0.90625 1.34375l0 8.453125l-1.59375 0l0 -8.1875q0 -2.0625 -1.3125 -2.0625q-0.625 0 -1.0625 0.453125q-0.421875 0.4375 -0.875 1.34375l0 8.453125l-1.90625 0l0 -11.65625zm14.899963 8.625q0 -0.984375 0.46875 -1.703125q0.46875 -0.734375 1.484375 -1.265625q1.03125 -0.53125 2.640625 -0.859375q1.609375 -0.34375 3.859375 -0.53125q-0.015625 -0.59375 -0.1875 -1.125q-0.171875 -0.53125 -0.53125 -0.921875q-0.359375 -0.40625 -0.953125 -0.640625q-0.578125 -0.234375 -1.421875 -0.234375q-1.15625 0 -2.21875 0.4375q-1.046875 0.4375 -1.859375 0.953125l-0.765625 -1.34375q0.421875 -0.296875 1.015625 -0.59375q0.59375 -0.296875 1.25 -0.53125q0.65625 -0.25 1.390625 -0.40625q0.75 -0.15625 1.515625 -0.15625q2.40625 0 3.5625 1.3125q1.171875 1.296875 1.171875 3.484375l0 7.15625l-1.609375 0l-0.171875 -1.578125l-0.0625 0q-0.984375 0.765625 -2.171875 1.3125q-1.1875 0.546875 -2.4375 0.546875q-0.8125 0 -1.546875 -0.234375q-0.71875 -0.21875 -1.265625 -0.640625q-0.53125 -0.421875 -0.84375 -1.03125q-0.3125 -0.609375 -0.3125 -1.40625zm1.921875 -0.140625q0 0.515625 0.21875 0.859375q0.21875 0.34375 0.5625 0.578125q0.34375 0.21875 0.8125 0.328125q0.46875 0.109375 0.984375 0.109375q1.0 0 1.96875 -0.4375q0.984375 -0.453125 1.984375 -1.296875l0 -3.0625q-1.875 0.140625 -3.140625 0.40625q-1.25 0.265625 -2.015625 0.640625q-0.75 0.359375 -1.0625 0.828125q-0.3125 0.46875 -0.3125 1.046875zm12.696838 -8.484375l7.390625 0l0 11.65625l-1.96875 0l0 -10.0625l-5.421875 0l0 -1.59375zm6.203125 -2.40625q-0.703125 0 -1.15625 -0.40625q-0.4375 -0.40625 -0.4375 -1.109375q0 -0.6875 0.4375 -1.109375q0.453125 -0.421875 1.15625 -0.421875q0.671875 0 1.125 0.421875q0.453125 0.421875 0.453125 1.109375q0 0.703125 -0.453125 1.109375q-0.453125 0.40625 -1.125 0.40625zm8.274963 2.40625l1.625 0l0.171875 1.984375l0.09375 0q0.921875 -0.984375 1.96875 -1.625q1.0625 -0.65625 2.421875 -0.65625q2.09375 0 3.0625 1.1875q0.96875 1.1875 0.96875 3.515625l0 7.25l-1.96875 0l0 -6.984375q0 -1.65625 -0.625 -2.453125q-0.609375 -0.8125 -2.0625 -0.8125q-0.515625 0 -0.96875 0.140625q-0.4375 0.125 -0.875 0.390625q-0.4375 0.265625 -0.890625 0.671875q-0.453125 0.390625 -0.953125 0.90625l0 8.140625l-1.96875 0l0 -11.65625zm32.706177 12.109375q0 -0.640625 0.03125 -1.234375q0.046875 -0.59375 0.078125 -1.140625q0.03125 -0.546875 0.0625 -1.09375q0.046875 -0.5625 0.046875 -1.15625q0 -0.359375 -0.140625 -0.6875q-0.140625 -0.328125 -0.53125 -0.59375q-0.390625 -0.265625 -1.078125 -0.421875q-0.671875 -0.171875 -1.734375 -0.171875l0 -1.25q1.0625 0 1.734375 -0.15625q0.6875 -0.171875 1.078125 -0.4375q0.390625 -0.265625 0.53125 -0.59375q0.140625 -0.328125 0.140625 -0.6875q0 -1.140625 -0.109375 -2.25q-0.109375 -1.125 -0.109375 -2.375q0 -0.9375 0.265625 -1.546875q0.265625 -0.609375 0.8125 -0.96875q0.5625 -0.375 1.390625 -0.515625q0.84375 -0.15625 1.96875 -0.15625l1.46875 0l0 1.140625l-1.25 0q-0.90625 0 -1.5 0.125q-0.578125 0.125 -0.90625 0.375q-0.328125 0.25 -0.453125 0.671875q-0.109375 0.421875 -0.109375 0.984375q0 1.046875 0.0625 2.140625q0.078125 1.078125 0.078125 2.203125q0 1.1875 -0.46875 1.796875q-0.46875 0.609375 -1.71875 0.828125l0 0.09375q1.25 0.21875 1.71875 0.828125q0.46875 0.609375 0.46875 1.78125q0 1.234375 -0.078125 2.25q-0.0625 1.0 -0.0625 2.109375q0 0.5625 0.109375 0.984375q0.125 0.421875 0.453125 0.671875q0.328125 0.25 0.90625 0.375q0.59375 0.125 1.5 0.125l1.25 0l0 1.140625l-1.46875 0q-1.125 0 -1.96875 -0.15625q-0.828125 -0.140625 -1.390625 -0.515625q-0.546875 -0.359375 -0.8125 -0.96875q-0.265625 -0.609375 -0.265625 -1.546875z" fill-rule="nonzero"></path><path fill="#ffffff" d="m249.72842 188.81944l7.390625 0l0 11.65625l-1.96875 0l0 -10.0625l-5.421875 0l0 -1.59375zm6.203125 -2.40625q-0.703125 0 -1.15625 -0.40625q-0.4375 -0.40625 -0.4375 -1.109375q0 -0.6875 0.4375 -1.109375q0.453125 -0.421875 1.15625 -0.421875q0.671875 0 1.125 0.421875q0.453125 0.421875 0.453125 1.109375q0 0.703125 -0.453125 1.109375q-0.453125 0.40625 -1.125 0.40625zm8.274963 2.40625l1.625 0l0.171875 1.984375l0.09375 0q0.921875 -0.984375 1.96875 -1.625q1.0625 -0.65625 2.421875 -0.65625q2.09375 0 3.0625 1.1875q0.96875 1.1875 0.96875 3.515625l0 7.25l-1.96875 0l0 -6.984375q0 -1.65625 -0.625 -2.453125q-0.609375 -0.8125 -2.0625 -0.8125q-0.515625 0 -0.96875 0.140625q-0.4375 0.125 -0.875 0.390625q-0.4375 0.265625 -0.890625 0.671875q-0.453125 0.390625 -0.953125 0.90625l0 8.140625l-1.96875 0l0 -11.65625zm54.07489 9.25l-1.203125 0l-0.171875 -1.390625l-0.09375 0q-0.53125 0.671875 -1.390625 1.1875q-0.84375 0.5 -1.78125 0.5q-0.640625 0 -1.203125 -0.21875q-0.5625 -0.21875 -0.984375 -0.625q-0.421875 -0.40625 -0.671875 -0.984375q-0.234375 -0.59375 -0.234375 -1.3125q0 -1.859375 1.625 -2.78125q1.640625 -0.9375 4.71875 -1.328125l0 -0.34375q0 -0.859375 -0.21875 -1.625q-0.203125 -0.765625 -0.640625 -1.34375q-0.421875 -0.578125 -1.109375 -0.90625q-0.671875 -0.34375 -1.609375 -0.34375q-1.078125 0 -2.0625 0.515625q-0.984375 0.5 -1.75 1.5q-0.75 0.984375 -1.203125 2.484375q-0.4375 1.5 -0.4375 3.5q0 1.90625 0.421875 3.40625q0.4375 1.5 1.1875 2.53125q0.75 1.046875 1.75 1.578125q1.015625 0.546875 2.1875 0.546875q1.078125 0 1.875 -0.28125q0.8125 -0.28125 1.5 -0.796875l0.671875 1.078125q-0.921875 0.640625 -1.90625 0.96875q-0.984375 0.34375 -2.1875 0.34375q-1.421875 0 -2.703125 -0.609375q-1.265625 -0.609375 -2.234375 -1.796875q-0.953125 -1.1875 -1.515625 -2.96875q-0.5625 -1.78125 -0.5625 -4.078125q0 -2.296875 0.53125 -4.03125q0.546875 -1.734375 1.5 -2.875q0.96875 -1.15625 2.25 -1.734375q1.296875 -0.59375 2.78125 -0.59375q1.25 0 2.15625 0.4375q0.90625 0.421875 1.5 1.1875q0.609375 0.765625 0.90625 1.8125q0.3125 1.046875 0.3125 2.265625l0 7.125zm-6.15625 -2.890625q0 0.828125 0.515625 1.3125q0.515625 0.484375 1.40625 0.484375q1.34375 0 2.6875 -1.546875l0 -3.015625q-2.484375 0.328125 -3.546875 1.0q-1.0625 0.65625 -1.0625 1.765625zm10.134338 2.46875q0.984375 0.71875 2.109375 1.15625q1.125 0.421875 2.71875 0.421875q1.578125 0 2.34375 -0.515625q0.765625 -0.53125 0.765625 -1.3125q0 -0.671875 -0.828125 -1.1875q-0.828125 -0.53125 -2.953125 -1.0625q-0.921875 -0.21875 -1.734375 -0.53125q-0.796875 -0.3125 -1.390625 -0.734375q-0.59375 -0.421875 -0.953125 -0.921875q-0.359375 -0.5 -0.359375 -1.125q0 -0.703125 0.3125 -1.3125q0.3125 -0.609375 0.921875 -1.046875q0.609375 -0.453125 1.53125 -0.703125q0.921875 -0.25 2.125 -0.25q1.3125 0 2.5625 0.453125q1.25 0.4375 2.109375 1.03125l-0.953125 1.28125q-0.765625 -0.5625 -1.703125 -0.890625q-0.9375 -0.34375 -2.015625 -0.34375q-0.8125 0 -1.375 0.140625q-0.546875 0.125 -0.890625 0.359375q-0.328125 0.21875 -0.46875 0.53125q-0.140625 0.3125 -0.140625 0.65625q0 0.71875 0.984375 1.1875q0.984375 0.46875 2.5625 0.875q2.375 0.59375 3.515625 1.375q1.140625 0.765625 1.140625 2.109375q0 0.71875 -0.34375 1.34375q-0.328125 0.625 -1.0 1.109375q-0.65625 0.46875 -1.625 0.734375q-0.96875 0.28125 -2.21875 0.28125q-1.71875 0 -3.171875 -0.53125q-1.453125 -0.546875 -2.53125 -1.28125l0.953125 -1.296875zm13.368713 -2.984375q0 -1.4375 0.5 -2.578125q0.5 -1.140625 1.328125 -1.921875q0.828125 -0.796875 1.890625 -1.21875q1.078125 -0.421875 2.203125 -0.421875q1.25 0 2.234375 0.40625q0.984375 0.390625 1.671875 1.109375q0.6875 0.71875 1.046875 1.734375q0.359375 1.0 0.359375 2.21875q0 0.3125 -0.015625 0.625q-0.015625 0.296875 -0.0625 0.5l-9.109375 0q0.015625 0.9375 0.359375 1.6875q0.359375 0.75 0.9375 1.28125q0.59375 0.515625 1.390625 0.8125q0.8125 0.28125 1.765625 0.28125q1.03125 0 1.875 -0.28125q0.859375 -0.296875 1.6875 -0.796875l0.6875 1.296875q-0.859375 0.546875 -1.96875 0.953125q-1.09375 0.40625 -2.515625 0.40625q-1.296875 0 -2.4375 -0.40625q-1.140625 -0.421875 -2.0 -1.203125q-0.84375 -0.78125 -1.34375 -1.90625q-0.484375 -1.140625 -0.484375 -2.578125zm9.40625 -0.953125q0 -1.75 -0.921875 -2.6875q-0.90625 -0.9375 -2.53125 -0.9375q-0.71875 0 -1.390625 0.25q-0.65625 0.234375 -1.1875 0.703125q-0.515625 0.46875 -0.875 1.140625q-0.359375 0.671875 -0.484375 1.53125l7.390625 0zm4.9937134 0.953125q0 -1.4375 0.5 -2.578125q0.5 -1.140625 1.328125 -1.921875q0.828125 -0.796875 1.890625 -1.21875q1.078125 -0.421875 2.203125 -0.421875q1.25 0 2.234375 0.40625q0.984375 0.390625 1.671875 1.109375q0.6875 0.71875 1.046875 1.734375q0.359375 1.0 0.359375 2.21875q0 0.3125 -0.015625 0.625q-0.015625 0.296875 -0.0625 0.5l-9.109375 0q0.015625 0.9375 0.359375 1.6875q0.359375 0.75 0.9375 1.28125q0.59375 0.515625 1.390625 0.8125q0.8125 0.28125 1.765625 0.28125q1.03125 0 1.875 -0.28125q0.859375 -0.296875 1.6875 -0.796875l0.6875 1.296875q-0.859375 0.546875 -1.96875 0.953125q-1.09375 0.40625 -2.515625 0.40625q-1.296875 0 -2.4375 -0.40625q-1.140625 -0.421875 -2.0 -1.203125q-0.84375 -0.78125 -1.34375 -1.90625q-0.484375 -1.140625 -0.484375 -2.578125zm9.40625 -0.953125q0 -1.75 -0.921875 -2.6875q-0.90625 -0.9375 -2.53125 -0.9375q-0.71875 0 -1.390625 0.25q-0.65625 0.234375 -1.1875 0.703125q-0.515625 0.46875 -0.875 1.140625q-0.359375 0.671875 -0.484375 1.53125l7.390625 0z" fill-rule="nonzero"></path><path fill="#ffffff" d="m249.00967 223.6632q0 -1.453125 0.46875 -2.59375q0.46875 -1.140625 1.25 -1.9375q0.796875 -0.796875 1.84375 -1.203125q1.046875 -0.40625 2.203125 -0.40625q1.15625 0 2.1875 0.40625q1.046875 0.40625 1.84375 1.203125q0.796875 0.796875 1.25 1.9375q0.46875 1.140625 0.46875 2.59375q0 1.4375 -0.46875 2.578125q-0.453125 1.140625 -1.25 1.921875q-0.796875 0.78125 -1.84375 1.1875q-1.03125 0.40625 -2.1875 0.40625q-1.15625 0 -2.203125 -0.40625q-1.046875 -0.40625 -1.84375 -1.1875q-0.78125 -0.78125 -1.25 -1.921875q-0.46875 -1.140625 -0.46875 -2.578125zm2.046875 0q0 1.015625 0.265625 1.828125q0.265625 0.8125 0.75 1.40625q0.484375 0.59375 1.171875 0.921875q0.6875 0.3125 1.53125 0.3125q0.84375 0 1.515625 -0.3125q0.6875 -0.328125 1.171875 -0.921875q0.5 -0.59375 0.765625 -1.40625q0.265625 -0.8125 0.265625 -1.828125q0 -1.0 -0.265625 -1.828125q-0.265625 -0.828125 -0.765625 -1.421875q-0.484375 -0.609375 -1.171875 -0.921875q-0.671875 -0.328125 -1.515625 -0.328125q-0.84375 0 -1.53125 0.328125q-0.6875 0.3125 -1.171875 0.921875q-0.484375 0.59375 -0.75 1.421875q-0.265625 0.828125 -0.265625 1.828125zm23.040588 5.8125l-1.609375 0l-0.171875 -2.046875l-0.09375 0q-0.890625 1.03125 -1.9375 1.6875q-1.046875 0.640625 -2.40625 0.640625q-2.109375 0 -3.09375 -1.1875q-0.96875 -1.1875 -0.96875 -3.515625l0 -7.234375l2.0 0l0 6.96875q0 1.65625 0.609375 2.46875q0.609375 0.796875 2.078125 0.796875q1.0 0 1.8125 -0.515625q0.828125 -0.515625 1.8125 -1.640625l0 -8.078125l1.96875 0l0 11.65625zm7.2124634 -10.0625l-3.28125 0l0 -1.484375l3.359375 -0.109375l0.265625 -3.265625l1.625 0l0 3.265625l5.734375 0l0 1.59375l-5.734375 0l0 5.546875q0 0.796875 0.140625 1.390625q0.15625 0.578125 0.484375 0.984375q0.34375 0.40625 0.921875 0.625q0.578125 0.203125 1.40625 0.203125q0.84375 0 1.515625 -0.140625q0.671875 -0.15625 1.296875 -0.390625l0.4375 1.4375q-0.796875 0.28125 -1.765625 0.484375q-0.953125 0.203125 -1.90625 0.203125q-1.28125 0 -2.140625 -0.34375q-0.859375 -0.34375 -1.375 -0.984375q-0.515625 -0.640625 -0.75 -1.515625q-0.234375 -0.890625 -0.234375 -1.96875l0 -5.53125zm36.9718 7.65625l-1.203125 0l-0.171875 -1.390625l-0.09375 0q-0.53125 0.671875 -1.390625 1.1875q-0.84375 0.5 -1.78125 0.5q-0.640625 0 -1.203125 -0.21875q-0.5625 -0.21875 -0.984375 -0.625q-0.421875 -0.40625 -0.671875 -0.984375q-0.234375 -0.59375 -0.234375 -1.3125q0 -1.859375 1.625 -2.78125q1.640625 -0.9375 4.71875 -1.328125l0 -0.34375q0 -0.859375 -0.21875 -1.625q-0.203125 -0.765625 -0.640625 -1.34375q-0.421875 -0.578125 -1.109375 -0.90625q-0.671875 -0.34375 -1.609375 -0.34375q-1.078125 0 -2.0625 0.515625q-0.984375 0.5 -1.75 1.5q-0.75 0.984375 -1.203125 2.484375q-0.4375 1.5 -0.4375 3.5q0 1.90625 0.421875 3.40625q0.4375 1.5 1.1875 2.53125q0.75 1.046875 1.75 1.578125q1.015625 0.546875 2.1875 0.546875q1.078125 0 1.875 -0.28125q0.8125 -0.28125 1.5 -0.796875l0.671875 1.078125q-0.921875 0.640625 -1.90625 0.96875q-0.984375 0.34375 -2.1875 0.34375q-1.421875 0 -2.703125 -0.609375q-1.265625 -0.609375 -2.234375 -1.796875q-0.953125 -1.1875 -1.515625 -2.96875q-0.5625 -1.78125 -0.5625 -4.078125q0 -2.296875 0.53125 -4.03125q0.546875 -1.734375 1.5 -2.875q0.96875 -1.15625 2.25 -1.734375q1.296875 -0.59375 2.78125 -0.59375q1.25 0 2.15625 0.4375q0.90625 0.421875 1.5 1.1875q0.609375 0.765625 0.90625 1.8125q0.3125 1.046875 0.3125 2.265625l0 7.125zm-6.15625 -2.890625q0 0.828125 0.515625 1.3125q0.515625 0.484375 1.40625 0.484375q1.34375 0 2.6875 -1.546875l0 -3.015625q-2.484375 0.328125 -3.546875 1.0q-1.0625 0.65625 -1.0625 1.765625zm10.134338 2.46875q0.984375 0.71875 2.109375 1.15625q1.125 0.421875 2.71875 0.421875q1.578125 0 2.34375 -0.515625q0.765625 -0.53125 0.765625 -1.3125q0 -0.671875 -0.828125 -1.1875q-0.828125 -0.53125 -2.953125 -1.0625q-0.921875 -0.21875 -1.734375 -0.53125q-0.796875 -0.3125 -1.390625 -0.734375q-0.59375 -0.421875 -0.953125 -0.921875q-0.359375 -0.5 -0.359375 -1.125q0 -0.703125 0.3125 -1.3125q0.3125 -0.609375 0.921875 -1.046875q0.609375 -0.453125 1.53125 -0.703125q0.921875 -0.25 2.125 -0.25q1.3125 0 2.5625 0.453125q1.25 0.4375 2.109375 1.03125l-0.953125 1.28125q-0.765625 -0.5625 -1.703125 -0.890625q-0.9375 -0.34375 -2.015625 -0.34375q-0.8125 0 -1.375 0.140625q-0.546875 0.125 -0.890625 0.359375q-0.328125 0.21875 -0.46875 0.53125q-0.140625 0.3125 -0.140625 0.65625q0 0.71875 0.984375 1.1875q0.984375 0.46875 2.5625 0.875q2.375 0.59375 3.515625 1.375q1.140625 0.765625 1.140625 2.109375q0 0.71875 -0.34375 1.34375q-0.328125 0.625 -1.0 1.109375q-0.65625 0.46875 -1.625 0.734375q-0.96875 0.28125 -2.21875 0.28125q-1.71875 0 -3.171875 -0.53125q-1.453125 -0.546875 -2.53125 -1.28125l0.953125 -1.296875zm13.946838 -14.265625l1.96875 0l0 4.65625l-0.09375 2.765625q0.9375 -0.984375 1.984375 -1.625q1.0625 -0.65625 2.421875 -0.65625q2.09375 0 3.0625 1.1875q0.96875 1.1875 0.96875 3.515625l0 7.25l-1.96875 0l0 -6.984375q0 -1.65625 -0.625 -2.453125q-0.609375 -0.8125 -2.0625 -0.8125q-0.515625 0 -0.96875 0.140625q-0.4375 0.125 -0.875 0.390625q-0.4375 0.265625 -0.890625 0.671875q-0.453125 0.390625 -0.953125 0.90625l0 8.140625l-1.96875 0l0 -17.09375zm13.603088 11.28125q0 -1.453125 0.46875 -2.59375q0.46875 -1.140625 1.25 -1.9375q0.796875 -0.796875 1.84375 -1.203125q1.046875 -0.40625 2.203125 -0.40625q1.15625 0 2.1875 0.40625q1.046875 0.40625 1.84375 1.203125q0.796875 0.796875 1.25 1.9375q0.46875 1.140625 0.46875 2.59375q0 1.4375 -0.46875 2.578125q-0.453125 1.140625 -1.25 1.921875q-0.796875 0.78125 -1.84375 1.1875q-1.03125 0.40625 -2.1875 0.40625q-1.15625 0 -2.203125 -0.40625q-1.046875 -0.40625 -1.84375 -1.1875q-0.78125 -0.78125 -1.25 -1.921875q-0.46875 -1.140625 -0.46875 -2.578125zm2.046875 0q0 1.015625 0.265625 1.828125q0.265625 0.8125 0.75 1.40625q0.484375 0.59375 1.171875 0.921875q0.6875 0.3125 1.53125 0.3125q0.84375 0 1.515625 -0.3125q0.6875 -0.328125 1.171875 -0.921875q0.5 -0.59375 0.765625 -1.40625q0.265625 -0.8125 0.265625 -1.828125q0 -1.0 -0.265625 -1.828125q-0.265625 -0.828125 -0.765625 -1.421875q-0.484375 -0.609375 -1.171875 -0.921875q-0.671875 -0.328125 -1.515625 -0.328125q-0.84375 0 -1.53125 0.328125q-0.6875 0.3125 -1.171875 0.921875q-0.484375 0.59375 -0.75 1.421875q-0.265625 0.828125 -0.265625 1.828125zm11.103088 -5.84375l2.015625 0l1.421875 6.734375q0.171875 0.84375 0.3125 1.640625q0.140625 0.78125 0.265625 1.59375l0.09375 0q0.171875 -0.8125 0.328125 -1.609375q0.171875 -0.8125 0.359375 -1.625l1.421875 -6.046875l1.6875 0l1.4375 6.046875q0.1875 0.84375 0.359375 1.640625q0.171875 0.78125 0.359375 1.59375l0.09375 0q0.171875 -0.8125 0.296875 -1.59375q0.140625 -0.796875 0.28125 -1.640625l1.421875 -6.734375l1.859375 0l-2.546875 11.65625l-2.375 0l-1.390625 -5.90625q-0.15625 -0.84375 -0.3125 -1.671875q-0.140625 -0.828125 -0.328125 -1.703125l-0.09375 0q-0.140625 0.765625 -0.296875 1.578125q-0.140625 0.8125 -0.359375 1.828125l-1.34375 5.875l-2.34375 0l-2.625 -11.65625z" fill-rule="nonzero"></path><path fill="#ffffff" d="m249.00967 252.6632q0 -1.453125 0.46875 -2.59375q0.46875 -1.140625 1.25 -1.9375q0.796875 -0.796875 1.84375 -1.203125q1.046875 -0.40625 2.203125 -0.40625q1.15625 0 2.1875 0.40625q1.046875 0.40625 1.84375 1.203125q0.796875 0.796875 1.25 1.9375q0.46875 1.140625 0.46875 2.59375q0 1.4375 -0.46875 2.578125q-0.453125 1.1406403 -1.25 1.9218903q-0.796875 0.78125 -1.84375 1.1875q-1.03125 0.40625 -2.1875 0.40625q-1.15625 0 -2.203125 -0.40625q-1.046875 -0.40625 -1.84375 -1.1875q-0.78125 -0.78125 -1.25 -1.9218903q-0.46875 -1.140625 -0.46875 -2.578125zm2.046875 0q0 1.015625 0.265625 1.828125q0.265625 0.8125 0.75 1.40625q0.484375 0.59376526 1.171875 0.92189026q0.6875 0.3125 1.53125 0.3125q0.84375 0 1.515625 -0.3125q0.6875 -0.328125 1.171875 -0.92189026q0.5 -0.59375 0.765625 -1.40625q0.265625 -0.8125 0.265625 -1.828125q0 -1.0 -0.265625 -1.828125q-0.265625 -0.828125 -0.765625 -1.421875q-0.484375 -0.609375 -1.171875 -0.921875q-0.671875 -0.328125 -1.515625 -0.328125q-0.84375 0 -1.53125 0.328125q-0.6875 0.3125 -1.171875 0.921875q-0.484375 0.59375 -0.75 1.421875q-0.265625 0.828125 -0.265625 1.828125zm23.040588 5.8125153l-1.609375 0l-0.171875 -2.046875l-0.09375 0q-0.890625 1.03125 -1.9375 1.6875q-1.046875 0.640625 -2.40625 0.640625q-2.109375 0 -3.09375 -1.1875q-0.96875 -1.1875 -0.96875 -3.5156403l0 -7.234375l2.0 0l0 6.96875q0 1.65625 0.609375 2.4687653q0.609375 0.796875 2.078125 0.796875q1.0 0 1.8125 -0.515625q0.828125 -0.515625 1.8125 -1.6406403l0 -8.078125l1.96875 0l0 11.656265zm7.2124634 -10.062515l-3.28125 0l0 -1.484375l3.359375 -0.109375l0.265625 -3.265625l1.625 0l0 3.265625l5.734375 0l0 1.59375l-5.734375 0l0 5.546875q0 0.796875 0.140625 1.390625q0.15625 0.578125 0.484375 0.98439026q0.34375 0.40625 0.921875 0.625q0.578125 0.203125 1.40625 0.203125q0.84375 0 1.515625 -0.140625q0.671875 -0.15625 1.296875 -0.390625l0.4375 1.4375q-0.796875 0.28125 -1.765625 0.484375q-0.953125 0.203125 -1.90625 0.203125q-1.28125 0 -2.140625 -0.34375q-0.859375 -0.34375 -1.375 -0.984375q-0.515625 -0.640625 -0.75 -1.5156403q-0.234375 -0.890625 -0.234375 -1.96875l0 -5.53125zm14.712463 8.32814q0 -0.90626526 0.5625 -1.4687653q0.578125 -0.5625 1.390625 -0.5625q0.8125 0 1.375 0.5625q0.5625 0.5625 0.5625 1.4687653q0 0.921875 -0.5625 1.46875q-0.5625 0.546875 -1.375 0.546875q-0.8125 0 -1.390625 -0.546875q-0.5625 -0.546875 -0.5625 -1.46875zm18.681213 -4.6718903l-0.75 -2.40625q-0.40625 -1.3125 -0.796875 -2.625q-0.375 -1.3125 -0.765625 -2.671875l-0.09375 0q-0.375 1.359375 -0.765625 2.671875q-0.390625 1.3125 -0.796875 2.625l-0.734375 2.40625l4.703125 0zm0.5 1.609375l-5.71875 0l-1.5 4.7968903l-2.046875 0l5.3125 -15.750015l2.25 0l5.296875 15.750015l-2.109375 0l-1.484375 -4.7968903zm6.2905884 -1.015625q0 -1.453125 0.515625 -2.59375q0.515625 -1.140625 1.40625 -1.9375q0.890625 -0.796875 2.078125 -1.203125q1.1875 -0.40625 2.5 -0.40625q1.4375 0 2.484375 0.515625q1.046875 0.5 1.765625 1.1875l-0.984375 1.28125q-0.71875 -0.625 -1.5 -0.984375q-0.78125 -0.359375 -1.6875 -0.359375q-1.015625 0 -1.859375 0.328125q-0.828125 0.3125 -1.421875 0.921875q-0.59375 0.59375 -0.9375 1.421875q-0.328125 0.828125 -0.328125 1.828125q0 1.015625 0.328125 1.828125q0.328125 0.8125 0.90625 1.40625q0.59375 0.59376526 1.421875 0.92189026q0.828125 0.3125 1.84375 0.3125q1.078125 0 1.96875 -0.421875q0.90625 -0.421875 1.65625 -1.0468903l0.859375 1.2812653q-0.96875 0.859375 -2.15625 1.34375q-1.1875 0.46875 -2.484375 0.46875q-1.359375 0 -2.53125 -0.40625q-1.15625 -0.40625 -2.03125 -1.1875q-0.859375 -0.78125 -1.34375 -1.9218903q-0.46875 -1.140625 -0.46875 -2.578125zm17.415588 -4.25l-3.28125 0l0 -1.484375l3.359375 -0.109375l0.265625 -3.265625l1.625 0l0 3.265625l5.734375 0l0 1.59375l-5.734375 0l0 5.546875q0 0.796875 0.140625 1.390625q0.15625 0.578125 0.484375 0.98439026q0.34375 0.40625 0.921875 0.625q0.578125 0.203125 1.40625 0.203125q0.84375 0 1.515625 -0.140625q0.671875 -0.15625 1.296875 -0.390625l0.4375 1.4375q-0.796875 0.28125 -1.765625 0.484375q-0.953125 0.203125 -1.90625 0.203125q-1.28125 0 -2.140625 -0.34375q-0.859375 -0.34375 -1.375 -0.984375q-0.515625 -0.640625 -0.75 -1.5156403q-0.234375 -0.890625 -0.234375 -1.96875l0 -5.53125zm11.618713 -1.59375l7.390625 0l0 11.656265l-1.96875 0l0 -10.062515l-5.421875 0l0 -1.59375zm6.203125 -2.40625q-0.703125 0 -1.15625 -0.40625q-0.4375 -0.40625 -0.4375 -1.109375q0 -0.6875 0.4375 -1.109375q0.453125 -0.421875 1.15625 -0.421875q0.671875 0 1.125 0.421875q0.453125 0.421875 0.453125 1.109375q0 0.703125 -0.453125 1.109375q-0.453125 0.40625 -1.125 0.40625zm7.4780884 8.25q0 -1.453125 0.46875 -2.59375q0.46875 -1.140625 1.25 -1.9375q0.796875 -0.796875 1.84375 -1.203125q1.046875 -0.40625 2.203125 -0.40625q1.15625 0 2.1875 0.40625q1.046875 0.40625 1.84375 1.203125q0.796875 0.796875 1.25 1.9375q0.46875 1.140625 0.46875 2.59375q0 1.4375 -0.46875 2.578125q-0.453125 1.1406403 -1.25 1.9218903q-0.796875 0.78125 -1.84375 1.1875q-1.03125 0.40625 -2.1875 0.40625q-1.15625 0 -2.203125 -0.40625q-1.046875 -0.40625 -1.84375 -1.1875q-0.78125 -0.78125 -1.25 -1.9218903q-0.46875 -1.140625 -0.46875 -2.578125zm2.046875 0q0 1.015625 0.265625 1.828125q0.265625 0.8125 0.75 1.40625q0.484375 0.59376526 1.171875 0.92189026q0.6875 0.3125 1.53125 0.3125q0.84375 0 1.515625 -0.3125q0.6875 -0.328125 1.171875 -0.92189026q0.5 -0.59375 0.765625 -1.40625q0.265625 -0.8125 0.265625 -1.828125q0 -1.0 -0.265625 -1.828125q-0.265625 -0.828125 -0.765625 -1.421875q-0.484375 -0.609375 -1.171875 -0.921875q-0.671875 -0.328125 -1.515625 -0.328125q-0.84375 0 -1.53125 0.328125q-0.6875 0.3125 -1.171875 0.921875q-0.484375 0.59375 -0.75 1.421875q-0.265625 0.828125 -0.265625 1.828125zm13.149963 -5.84375l1.625 0l0.171875 1.984375l0.09375 0q0.921875 -0.984375 1.96875 -1.625q1.0625 -0.65625 2.421875 -0.65625q2.09375 0 3.0625 1.1875q0.96875 1.1875 0.96875 3.515625l0 7.2500153l-1.96875 0l0 -6.9843903q0 -1.65625 -0.625 -2.453125q-0.609375 -0.8125 -2.0625 -0.8125q-0.515625 0 -0.96875 0.140625q-0.4375 0.125 -0.875 0.390625q-0.4375 0.265625 -0.890625 0.671875q-0.453125 0.390625 -0.953125 0.90625l0 8.14064l-1.96875 0l0 -11.656265zm28.612427 0l10.3125 0l0 1.484375l-10.3125 0l0 -1.484375zm0 6.0l10.3125 0l0 1.484375l-10.3125 0l0 -1.484375zm28.909302 -6.0l7.390625 0l0 11.656265l-1.96875 0l0 -10.062515l-5.421875 0l0 -1.59375zm6.203125 -2.40625q-0.703125 0 -1.15625 -0.40625q-0.4375 -0.40625 -0.4375 -1.109375q0 -0.6875 0.4375 -1.109375q0.453125 -0.421875 1.15625 -0.421875q0.671875 0 1.125 0.421875q0.453125 0.421875 0.453125 1.109375q0 0.703125 -0.453125 1.109375q-0.453125 0.40625 -1.125 0.40625zm8.274963 2.40625l1.625 0l0.171875 1.984375l0.09375 0q0.921875 -0.984375 1.96875 -1.625q1.0625 -0.65625 2.421875 -0.65625q2.09375 0 3.0625 1.1875q0.96875 1.1875 0.96875 3.515625l0 7.2500153l-1.96875 0l0 -6.9843903q0 -1.65625 -0.625 -2.453125q-0.609375 -0.8125 -2.0625 -0.8125q-0.515625 0 -0.96875 0.140625q-0.4375 0.125 -0.875 0.390625q-0.4375 0.265625 -0.890625 0.671875q-0.453125 0.390625 -0.953125 0.90625l0 8.14064l-1.96875 0l0 -11.656265zm17.415588 9.92189q0 -0.90626526 0.5625 -1.4687653q0.578125 -0.5625 1.390625 -0.5625q0.8125 0 1.375 0.5625q0.5625 0.5625 0.5625 1.4687653q0 0.921875 -0.5625 1.46875q-0.5625 0.546875 -1.375 0.546875q-0.8125 0 -1.390625 -0.546875q-0.5625 -0.546875 -0.5625 -1.46875zm11.962463 -1.7031403q0.890625 0.890625 2.0625 1.4375153q1.171875 0.53125 2.46875 0.53125q1.6875 0 2.59375 -0.703125q0.90625 -0.70314026 0.90625 -1.8593903q0 -0.59375 -0.21875 -1.015625q-0.203125 -0.421875 -0.59375 -0.71875q-0.390625 -0.3125 -0.90625 -0.546875q-0.515625 -0.234375 -1.109375 -0.5l-2.25 -0.984375q-0.609375 -0.25 -1.21875 -0.578125q-0.59375 -0.34375 -1.09375 -0.8125q-0.484375 -0.484375 -0.796875 -1.140625q-0.296875 -0.65625 -0.296875 -1.53125q0 -0.890625 0.375 -1.65625q0.390625 -0.765625 1.0625 -1.328125q0.6875 -0.5625 1.640625 -0.875q0.953125 -0.3125 2.078125 -0.3125q1.484375 0 2.734375 0.546875q1.25 0.53125 2.109375 1.390625l-1.0625 1.296875q-0.765625 -0.6875 -1.6875 -1.078125q-0.921875 -0.40625 -2.09375 -0.40625q-1.4375 0 -2.28125 0.609375q-0.84375 0.609375 -0.84375 1.703125q0 0.5625 0.25 0.96875q0.25 0.390625 0.640625 0.6875q0.40625 0.296875 0.90625 0.515625q0.515625 0.21875 1.015625 0.4375l2.203125 0.953125q0.71875 0.296875 1.359375 0.671875q0.640625 0.359375 1.109375 0.859375q0.46875 0.484375 0.734375 1.15625q0.28125 0.65625 0.28125 1.515625q0 0.9375 -0.390625 1.7656403q-0.375 0.8125 -1.09375 1.421875q-0.71875 0.609375 -1.765625 0.953125q-1.03125 0.34375 -2.328125 0.34375q-1.71875 0 -3.171875 -0.609375q-1.453125 -0.625 -2.53125 -1.71875l1.203125 -1.3906403zm13.243713 -2.375q0 -1.4375 0.5 -2.578125q0.5 -1.140625 1.328125 -1.921875q0.828125 -0.796875 1.890625 -1.21875q1.078125 -0.421875 2.203125 -0.421875q1.25 0 2.234375 0.40625q0.984375 0.390625 1.671875 1.109375q0.6875 0.71875 1.046875 1.734375q0.359375 1.0 0.359375 2.21875q0 0.3125 -0.015625 0.625q-0.015625 0.296875 -0.0625 0.5l-9.109375 0q0.015625 0.9375 0.359375 1.6875q0.359375 0.75 0.9375 1.2812653q0.59375 0.515625 1.390625 0.8125q0.8125 0.28125 1.765625 0.28125q1.03125 0 1.875 -0.28125q0.859375 -0.296875 1.6875 -0.796875l0.6875 1.296875q-0.859375 0.546875 -1.96875 0.953125q-1.09375 0.40625 -2.515625 0.40625q-1.296875 0 -2.4375 -0.40625q-1.140625 -0.421875 -2.0 -1.203125q-0.84375 -0.78125 -1.34375 -1.9062653q-0.484375 -1.140625 -0.484375 -2.578125zm9.40625 -0.953125q0 -1.75 -0.921875 -2.6875q-0.90625 -0.9375 -2.53125 -0.9375q-0.71875 0 -1.390625 0.25q-0.65625 0.234375 -1.1875 0.703125q-0.515625 0.46875 -0.875 1.140625q-0.359375 0.671875 -0.484375 1.53125l7.390625 0zm5.5718384 -4.890625l1.625 0l0.171875 1.984375l0.09375 0q0.921875 -0.984375 1.9687805 -1.625q1.0625 -0.65625 2.421875 -0.65625q2.09375 0 3.0625 1.1875q0.96875 1.1875 0.96875 3.515625l0 7.2500153l-1.96875 0l0 -6.9843903q0 -1.65625 -0.625 -2.453125q-0.609375 -0.8125 -2.0625 -0.8125q-0.515625 0 -0.96875 0.140625q-0.4375 0.125 -0.875 0.390625q-0.4375 0.265625 -0.8906555 0.671875q-0.453125 0.390625 -0.953125 0.90625l0 8.14064l-1.96875 0l0 -11.656265zm14.853119 8.828125q0.984375 0.71876526 2.109375 1.1562653q1.125 0.421875 2.71875 0.421875q1.578125 0 2.34375 -0.515625q0.765625 -0.53125 0.765625 -1.3125153q0 -0.671875 -0.828125 -1.1875q-0.828125 -0.53125 -2.953125 -1.0625q-0.921875 -0.21875 -1.734375 -0.53125q-0.796875 -0.3125 -1.390625 -0.734375q-0.59375 -0.421875 -0.953125 -0.921875q-0.359375 -0.5 -0.359375 -1.125q0 -0.703125 0.3125 -1.3125q0.3125 -0.609375 0.921875 -1.046875q0.609375 -0.453125 1.53125 -0.703125q0.921875 -0.25 2.125 -0.25q1.3125 0 2.5625 0.453125q1.25 0.4375 2.109375 1.03125l-0.953125 1.28125q-0.765625 -0.5625 -1.703125 -0.890625q-0.9375 -0.34375 -2.015625 -0.34375q-0.8125 0 -1.375 0.140625q-0.546875 0.125 -0.890625 0.359375q-0.328125 0.21875 -0.46875 0.53125q-0.140625 0.3125 -0.140625 0.65625q0 0.71875 0.984375 1.1875q0.984375 0.46875 2.5625 0.875q2.375 0.59375 3.515625 1.375q1.140625 0.765625 1.140625 2.109375q0 0.71876526 -0.34375 1.3437653q-0.328125 0.625 -1.0 1.109375q-0.65625 0.46875 -1.625 0.734375q-0.96875 0.28125 -2.21875 0.28125q-1.71875 0 -3.171875 -0.53125q-1.453125 -0.546875 -2.53125 -1.28125l0.953125 -1.2968903zm13.649963 -0.203125q0 -0.984375 0.46875 -1.703125q0.46875 -0.734375 1.484375 -1.265625q1.03125 -0.53125 2.640625 -0.859375q1.609375 -0.34375 3.859375 -0.53125q-0.015625 -0.59375 -0.1875 -1.125q-0.171875 -0.53125 -0.53125 -0.921875q-0.359375 -0.40625 -0.953125 -0.640625q-0.578125 -0.234375 -1.421875 -0.234375q-1.15625 0 -2.21875 0.4375q-1.046875 0.4375 -1.859375 0.953125l-0.765625 -1.34375q0.421875 -0.296875 1.015625 -0.59375q0.59375 -0.296875 1.25 -0.53125q0.65625 -0.25 1.390625 -0.40625q0.75 -0.15625 1.515625 -0.15625q2.40625 0 3.5625 1.3125q1.171875 1.296875 1.171875 3.484375l0 7.1562653l-1.609375 0l-0.171875 -1.578125l-0.0625 0q-0.984375 0.765625 -2.171875 1.3125q-1.1875 0.546875 -2.4375 0.546875q-0.8125 0 -1.546875 -0.234375q-0.71875 -0.21875 -1.265625 -0.640625q-0.53125 -0.421875 -0.84375 -1.03125q-0.3125 -0.609375 -0.3125 -1.4062653zm1.921875 -0.140625q0 0.515625 0.21875 0.85939026q0.21875 0.34375 0.5625 0.578125q0.34375 0.21875 0.8125 0.328125q0.46875 0.109375 0.984375 0.109375q1.0 0 1.96875 -0.4375q0.984375 -0.453125 1.984375 -1.2968903l0 -3.0625q-1.875 0.140625 -3.140625 0.40625q-1.25 0.265625 -2.015625 0.640625q-0.75 0.359375 -1.0625 0.828125q-0.3125 0.46875 -0.3125 1.046875zm15.478088 -6.890625l-3.28125 0l0 -1.484375l3.359375 -0.109375l0.265625 -3.265625l1.625 0l0 3.265625l5.734375 0l0 1.59375l-5.734375 0l0 5.546875q0 0.796875 0.140625 1.390625q0.15625 0.578125 0.484375 0.98439026q0.34375 0.40625 0.921875 0.625q0.578125 0.203125 1.40625 0.203125q0.84375 0 1.515625 -0.140625q0.671875 -0.15625 1.296875 -0.390625l0.4375 1.4375q-0.796875 0.28125 -1.765625 0.484375q-0.953125 0.203125 -1.90625 0.203125q-1.28125 0 -2.140625 -0.34375q-0.859375 -0.34375 -1.375 -0.984375q-0.515625 -0.640625 -0.75 -1.5156403q-0.234375 -0.890625 -0.234375 -1.96875l0 -5.53125zm11.618713 -1.59375l7.390625 0l0 11.656265l-1.96875 0l0 -10.062515l-5.421875 0l0 -1.59375zm6.203125 -2.40625q-0.703125 0 -1.15625 -0.40625q-0.4375 -0.40625 -0.4375 -1.109375q0 -0.6875 0.4375 -1.109375q0.453125 -0.421875 1.15625 -0.421875q0.671875 0 1.125 0.421875q0.453125 0.421875 0.453125 1.109375q0 0.703125 -0.453125 1.109375q-0.453125 0.40625 -1.125 0.40625zm7.4780884 8.25q0 -1.453125 0.46875 -2.59375q0.46875 -1.140625 1.25 -1.9375q0.796875 -0.796875 1.84375 -1.203125q1.046875 -0.40625 2.203125 -0.40625q1.15625 0 2.1875 0.40625q1.046875 0.40625 1.84375 1.203125q0.796875 0.796875 1.25 1.9375q0.46875 1.140625 0.46875 2.59375q0 1.4375 -0.46875 2.578125q-0.453125 1.1406403 -1.25 1.9218903q-0.796875 0.78125 -1.84375 1.1875q-1.03125 0.40625 -2.1875 0.40625q-1.15625 0 -2.203125 -0.40625q-1.046875 -0.40625 -1.84375 -1.1875q-0.78125 -0.78125 -1.25 -1.9218903q-0.46875 -1.140625 -0.46875 -2.578125zm2.046875 0q0 1.015625 0.265625 1.828125q0.265625 0.8125 0.75 1.40625q0.484375 0.59376526 1.171875 0.92189026q0.6875 0.3125 1.53125 0.3125q0.84375 0 1.515625 -0.3125q0.6875 -0.328125 1.171875 -0.92189026q0.5 -0.59375 0.765625 -1.40625q0.265625 -0.8125 0.265625 -1.828125q0 -1.0 -0.265625 -1.828125q-0.265625 -0.828125 -0.765625 -1.421875q-0.484375 -0.609375 -1.171875 -0.921875q-0.671875 -0.328125 -1.515625 -0.328125q-0.84375 0 -1.53125 0.328125q-0.6875 0.3125 -1.171875 0.921875q-0.484375 0.59375 -0.75 1.421875q-0.265625 0.828125 -0.265625 1.828125zm13.149963 -5.84375l1.625 0l0.171875 1.984375l0.09375 0q0.921875 -0.984375 1.96875 -1.625q1.0625 -0.65625 2.421875 -0.65625q2.09375 0 3.0625 1.1875q0.96875 1.1875 0.96875 3.515625l0 7.2500153l-1.96875 0l0 -6.9843903q0 -1.65625 -0.625 -2.453125q-0.609375 -0.8125 -2.0625 -0.8125q-0.515625 0 -0.96875 0.140625q-0.4375 0.125 -0.875 0.390625q-0.4375 0.265625 -0.890625 0.671875q-0.453125 0.390625 -0.953125 0.90625l0 8.14064l-1.96875 0l0 -11.656265z" fill-rule="nonzero"></path><path fill="#ffffff" d="m203.16592 289.97568q0.921875 0 1.5 -0.125q0.59375 -0.125 0.921875 -0.375q0.34375 -0.25 0.453125 -0.671875q0.125 -0.421875 0.125 -0.984375q0 -1.109375 -0.078125 -2.109375q-0.0625 -1.015625 -0.0625 -2.25q0 -1.171875 0.453125 -1.78125q0.46875 -0.609375 1.703125 -0.828125l0 -0.09375q-1.234375 -0.21875 -1.703125 -0.828125q-0.453125 -0.609375 -0.453125 -1.796875q0 -1.125 0.0625 -2.203125q0.078125 -1.09375 0.078125 -2.140625q0 -0.5625 -0.125 -0.984375q-0.109375 -0.421875 -0.453125 -0.671875q-0.328125 -0.25 -0.921875 -0.375q-0.578125 -0.125 -1.5 -0.125l-1.21875 0l0 -1.140625l1.46875 0q1.125 0 1.953125 0.15625q0.828125 0.140625 1.375 0.515625q0.5625 0.359375 0.8125 0.96875q0.265625 0.609375 0.265625 1.546875q0 1.25 -0.109375 2.375q-0.09375 1.109375 -0.09375 2.25q0 0.359375 0.140625 0.6875q0.140625 0.328125 0.515625 0.59375q0.390625 0.265625 1.078125 0.4375q0.6875 0.15625 1.734375 0.15625l0 1.25q-1.046875 0 -1.734375 0.171875q-0.6875 0.15625 -1.078125 0.421875q-0.375 0.265625 -0.515625 0.59375q-0.140625 0.328125 -0.140625 0.6875q0 0.59375 0.03125 1.15625q0.03125 0.546875 0.0625 1.09375q0.046875 0.546875 0.078125 1.140625q0.03125 0.59375 0.03125 1.234375q0 0.9375 -0.265625 1.546875q-0.25 0.609375 -0.8125 0.96875q-0.546875 0.375 -1.375 0.515625q-0.828125 0.15625 -1.953125 0.15625l-1.46875 0l0 -1.140625l1.21875 0z" fill-rule="nonzero"></path><path fill="#ffffff" d="m297.45145 536.1483l0 0c0 -40.860382 33.12387 -73.98428 73.98425 -73.98428l0 0c19.621826 0 38.440033 7.7947693 52.31476 21.669495c13.874756 13.874725 21.669495 32.6929 21.669495 52.31479l0 0c0 40.86035 -33.12387 73.98425 -73.98425 73.98425l0 0c-40.860382 0 -73.98425 -33.1239 -73.98425 -73.98425z" fill-rule="nonzero"></path><path fill="#666666" d="m349.69424 541.6908q-0.71875 0 -1.28125 -0.328125q-0.5625 -0.34375 -0.78125 -1.078125q-0.625 0.75 -1.328125 1.078125q-0.6875 0.328125 -1.484375 0.328125q-0.65625 0 -1.140625 -0.234375q-0.484375 -0.234375 -0.828125 -0.640625q-0.328125 -0.40625 -0.5 -0.953125q-0.15625 -0.546875 -0.15625 -1.203125q0 -0.59375 0.15625 -1.203125q0.15625 -0.625 0.453125 -1.1875q0.3125 -0.578125 0.765625 -1.078125q0.453125 -0.5 1.078125 -0.875q0.625 -0.375 1.390625 -0.578125q0.765625 -0.21875 1.703125 -0.21875q0.796875 0 1.375 0.125q0.578125 0.125 1.109375 0.359375l-1.0 3.890625q-0.171875 0.671875 -0.171875 1.125q0 0.3125 0.078125 0.53125q0.078125 0.203125 0.203125 0.328125q0.140625 0.125 0.328125 0.171875q0.1875 0.046875 0.40625 0.046875q0.453125 0 0.84375 -0.265625q0.390625 -0.28125 0.6875 -0.78125q0.296875 -0.515625 0.46875 -1.203125q0.171875 -0.703125 0.171875 -1.515625q0 -1.359375 -0.4375 -2.390625q-0.421875 -1.046875 -1.1875 -1.75q-0.75 -0.703125 -1.8125 -1.046875q-1.0625 -0.359375 -2.3125 -0.359375q-1.375 0 -2.5625 0.53125q-1.1875 0.515625 -2.0625 1.421875q-0.859375 0.890625 -1.34375 2.125q-0.484375 1.234375 -0.484375 2.640625q0 1.71875 0.53125 3.03125q0.546875 1.3125 1.46875 2.1875q0.9375 0.875 2.203125 1.3125q1.265625 0.4375 2.734375 0.4375q0.8125 0 1.515625 -0.09375q0.703125 -0.078125 1.28125 -0.234375q0.59375 -0.140625 1.078125 -0.34375q0.484375 -0.1875 0.859375 -0.40625q0.21875 -0.125 0.359375 -0.125q0.3125 0 0.4375 0.34375l0.34375 0.921875q-1.078125 0.71875 -2.546875 1.171875q-1.453125 0.453125 -3.328125 0.453125q-1.890625 0 -3.515625 -0.609375q-1.609375 -0.59375 -2.796875 -1.71875q-1.1875 -1.109375 -1.859375 -2.703125q-0.65625 -1.609375 -0.65625 -3.625q0 -1.125 0.28125 -2.171875q0.296875 -1.0625 0.828125 -1.984375q0.546875 -0.9375 1.296875 -1.71875q0.75 -0.78125 1.671875 -1.328125q0.9375 -0.5625 2.0 -0.875q1.078125 -0.3125 2.265625 -0.3125q1.484375 0 2.84375 0.5q1.375 0.5 2.421875 1.4375q1.0625 0.921875 1.6875 2.265625q0.640625 1.328125 0.640625 3.015625q0 1.125 -0.328125 2.109375q-0.328125 0.984375 -0.921875 1.703125q-0.59375 0.71875 -1.40625 1.140625q-0.796875 0.40625 -1.734375 0.40625zm-4.359375 -1.671875q0.28125 0 0.546875 -0.078125q0.28125 -0.09375 0.53125 -0.296875q0.265625 -0.21875 0.46875 -0.578125q0.21875 -0.359375 0.34375 -0.890625l0.765625 -2.96875q-0.328125 -0.0625 -0.6875 -0.0625q-0.65625 0 -1.21875 0.28125q-0.5625 0.28125 -0.984375 0.765625q-0.40625 0.484375 -0.65625 1.109375q-0.234375 0.625 -0.234375 1.296875q0 0.671875 0.28125 1.046875q0.296875 0.375 0.84375 0.375zm17.432861 -5.0625q-0.109375 0.171875 -0.234375 0.234375q-0.109375 0.0625 -0.28125 0.0625q-0.1875 0 -0.40625 -0.09375q-0.21875 -0.109375 -0.5 -0.234375q-0.28125 -0.140625 -0.640625 -0.234375q-0.359375 -0.109375 -0.859375 -0.109375q-0.765625 0 -1.203125 0.328125q-0.4375 0.3125 -0.4375 0.84375q0 0.34375 0.21875 0.578125q0.234375 0.234375 0.59375 0.421875q0.375 0.171875 0.84375 0.3125q0.484375 0.140625 0.96875 0.3125q0.5 0.171875 0.96875 0.390625q0.46875 0.203125 0.84375 0.546875q0.375 0.328125 0.59375 0.796875q0.234375 0.453125 0.234375 1.109375q0 0.765625 -0.28125 1.421875q-0.28125 0.65625 -0.828125 1.140625q-0.546875 0.46875 -1.359375 0.75q-0.796875 0.265625 -1.84375 0.265625q-0.546875 0 -1.078125 -0.109375q-0.53125 -0.09375 -1.03125 -0.265625q-0.484375 -0.1875 -0.90625 -0.421875q-0.40625 -0.25 -0.71875 -0.53125l0.609375 -0.984375q0.109375 -0.1875 0.265625 -0.28125q0.15625 -0.09375 0.40625 -0.09375q0.234375 0 0.453125 0.140625q0.21875 0.140625 0.5 0.296875q0.28125 0.15625 0.65625 0.296875q0.390625 0.125 0.984375 0.125q0.453125 0 0.78125 -0.109375q0.328125 -0.109375 0.546875 -0.28125q0.21875 -0.171875 0.3125 -0.40625q0.109375 -0.25 0.109375 -0.5q0 -0.375 -0.234375 -0.609375q-0.21875 -0.25 -0.59375 -0.421875q-0.375 -0.1875 -0.859375 -0.328125q-0.46875 -0.140625 -0.96875 -0.296875q-0.5 -0.171875 -0.984375 -0.390625q-0.46875 -0.234375 -0.84375 -0.578125q-0.375 -0.359375 -0.609375 -0.859375q-0.21875 -0.5 -0.21875 -1.21875q0 -0.65625 0.265625 -1.25q0.265625 -0.609375 0.765625 -1.046875q0.515625 -0.453125 1.28125 -0.71875q0.765625 -0.265625 1.75 -0.265625q1.125 0 2.03125 0.375q0.921875 0.359375 1.53125 0.953125l-0.59375 0.9375zm2.929718 8.671875l0 -15.609375l2.59375 0l0 6.0q0.625 -0.59375 1.375 -0.953125q0.765625 -0.375 1.78125 -0.375q0.875 0 1.5625 0.296875q0.6875 0.296875 1.140625 0.84375q0.453125 0.53125 0.6875 1.28125q0.234375 0.75 0.234375 1.65625l0 6.859375l-2.59375 0l0 -6.859375q0 -0.984375 -0.453125 -1.515625q-0.453125 -0.546875 -1.359375 -0.546875q-0.671875 0 -1.265625 0.3125q-0.59375 0.296875 -1.109375 0.8125l0 7.796875l-2.59375 0zm16.718689 -10.9375q1.203125 0 2.1875 0.390625q0.984375 0.390625 1.671875 1.109375q0.703125 0.703125 1.078125 1.734375q0.375 1.03125 0.375 2.296875q0 1.28125 -0.375 2.3125q-0.375 1.03125 -1.078125 1.75q-0.6875 0.71875 -1.671875 1.109375q-0.984375 0.390625 -2.1875 0.390625q-1.203125 0 -2.203125 -0.390625q-0.984375 -0.390625 -1.6875 -1.109375q-0.6875 -0.71875 -1.078125 -1.75q-0.375 -1.03125 -0.375 -2.3125q0 -1.265625 0.375 -2.296875q0.390625 -1.03125 1.078125 -1.734375q0.703125 -0.71875 1.6875 -1.109375q1.0 -0.390625 2.203125 -0.390625zm0 9.09375q1.34375 0 1.984375 -0.890625q0.65625 -0.90625 0.65625 -2.65625q0 -1.734375 -0.65625 -2.640625q-0.640625 -0.921875 -1.984375 -0.921875q-1.359375 0 -2.015625 0.921875q-0.65625 0.90625 -0.65625 2.640625q0 1.734375 0.65625 2.640625q0.65625 0.90625 2.015625 0.90625zm6.2187195 -8.921875l2.046875 0q0.296875 0 0.5 0.140625q0.203125 0.125 0.25 0.328125l1.546875 5.765625q0.125 0.46875 0.203125 0.921875q0.078125 0.453125 0.15625 0.90625q0.109375 -0.453125 0.234375 -0.90625q0.140625 -0.453125 0.28125 -0.921875l1.796875 -5.78125q0.0625 -0.203125 0.25 -0.34375q0.1875 -0.140625 0.4375 -0.140625l1.140625 0q0.28125 0 0.46875 0.140625q0.203125 0.140625 0.265625 0.34375l1.75 5.875q0.140625 0.453125 0.25 0.890625q0.109375 0.421875 0.21875 0.84375q0.078125 -0.453125 0.15625 -0.890625q0.09375 -0.453125 0.234375 -0.9375l1.59375 -5.765625q0.046875 -0.203125 0.25 -0.328125q0.203125 -0.140625 0.46875 -0.140625l1.953125 0l-3.40625 10.765625l-2.09375 0q-0.328125 0 -0.484375 -0.46875l-1.9375 -6.21875q-0.09375 -0.3125 -0.171875 -0.609375q-0.078125 -0.3125 -0.125 -0.625q-0.0625 0.3125 -0.140625 0.625q-0.078125 0.3125 -0.171875 0.625l-1.96875 6.203125q-0.140625 0.46875 -0.5625 0.46875l-1.984375 0l-3.40625 -10.765625z" fill-rule="nonzero"></path><path fill="#ffffff" d="m303.45932 348.65878l0 0c0 -21.047699 29.96518 -38.11023 66.92914 -38.11023l0 0c36.96393 0 66.92914 17.06253 66.92914 38.11023l0 0c0 21.047699 -29.96521 38.11026 -66.92914 38.11026l0 0c-36.96396 0 -66.92914 -17.062561 -66.92914 -38.11026z" fill-rule="nonzero"></path><path fill="#666666" d="m357.80737 354.2013q-0.71875 0 -1.28125 -0.328125q-0.5625 -0.34375 -0.78125 -1.078125q-0.625 0.75 -1.328125 1.078125q-0.6875 0.328125 -1.484375 0.328125q-0.65625 0 -1.140625 -0.234375q-0.484375 -0.234375 -0.828125 -0.640625q-0.328125 -0.40625 -0.5 -0.953125q-0.15625 -0.546875 -0.15625 -1.203125q0 -0.59375 0.15625 -1.203125q0.15625 -0.625 0.453125 -1.1875q0.3125 -0.578125 0.765625 -1.078125q0.453125 -0.5 1.078125 -0.875q0.625 -0.375 1.390625 -0.578125q0.765625 -0.21875 1.703125 -0.21875q0.796875 0 1.375 0.125q0.578125 0.125 1.109375 0.359375l-1.0 3.890625q-0.171875 0.671875 -0.171875 1.125q0 0.3125 0.078125 0.53125q0.078125 0.203125 0.203125 0.328125q0.140625 0.125 0.328125 0.171875q0.1875 0.046875 0.40625 0.046875q0.453125 0 0.84375 -0.265625q0.390625 -0.28125 0.6875 -0.78125q0.296875 -0.515625 0.46875 -1.203125q0.171875 -0.703125 0.171875 -1.515625q0 -1.359375 -0.4375 -2.390625q-0.421875 -1.046875 -1.1875 -1.75q-0.75 -0.703125 -1.8125 -1.046875q-1.0625 -0.359375 -2.3125 -0.359375q-1.375 0 -2.5625 0.53125q-1.1875 0.515625 -2.0625 1.421875q-0.859375 0.890625 -1.34375 2.125q-0.484375 1.234375 -0.484375 2.640625q0 1.71875 0.53125 3.03125q0.546875 1.3125 1.46875 2.1875q0.9375 0.875 2.203125 1.3125q1.265625 0.4375 2.734375 0.4375q0.8125 0 1.515625 -0.09375q0.703125 -0.078125 1.28125 -0.234375q0.59375 -0.140625 1.078125 -0.34375q0.484375 -0.1875 0.859375 -0.40625q0.21875 -0.125 0.359375 -0.125q0.3125 0 0.4375 0.34375l0.34375 0.921875q-1.078125 0.71875 -2.546875 1.171875q-1.453125 0.453125 -3.328125 0.453125q-1.890625 0 -3.515625 -0.609375q-1.609375 -0.59375 -2.796875 -1.71875q-1.1875 -1.109375 -1.859375 -2.703125q-0.65625 -1.609375 -0.65625 -3.625q0 -1.125 0.28125 -2.171875q0.296875 -1.0625 0.828125 -1.984375q0.546875 -0.9375 1.296875 -1.71875q0.75 -0.78125 1.671875 -1.328125q0.9375 -0.5625 2.0 -0.875q1.078125 -0.3125 2.265625 -0.3125q1.484375 0 2.84375 0.5q1.375 0.5 2.421875 1.4375q1.0625 0.921875 1.6875 2.265625q0.640625 1.328125 0.640625 3.015625q0 1.125 -0.328125 2.109375q-0.328125 0.984375 -0.921875 1.703125q-0.59375 0.71875 -1.40625 1.140625q-0.796875 0.40625 -1.734375 0.40625zm-4.359375 -1.671875q0.28125 0 0.546875 -0.078125q0.28125 -0.09375 0.53125 -0.296875q0.265625 -0.21875 0.46875 -0.578125q0.21875 -0.359375 0.34375 -0.890625l0.765625 -2.96875q-0.328125 -0.0625 -0.6875 -0.0625q-0.65625 0 -1.21875 0.28125q-0.5625 0.28125 -0.984375 0.765625q-0.40625 0.484375 -0.65625 1.109375q-0.234375 0.625 -0.234375 1.296875q0 0.671875 0.28125 1.046875q0.296875 0.375 0.84375 0.375zm17.432861 -5.0625q-0.109375 0.171875 -0.234375 0.234375q-0.109375 0.0625 -0.28125 0.0625q-0.1875 0 -0.40625 -0.09375q-0.21875 -0.109375 -0.5 -0.234375q-0.28125 -0.140625 -0.640625 -0.234375q-0.359375 -0.109375 -0.859375 -0.109375q-0.765625 0 -1.203125 0.328125q-0.4375 0.3125 -0.4375 0.84375q0 0.34375 0.21875 0.578125q0.234375 0.234375 0.59375 0.421875q0.375 0.171875 0.84375 0.3125q0.484375 0.140625 0.96875 0.3125q0.5 0.171875 0.96875 0.390625q0.46875 0.203125 0.84375 0.546875q0.375 0.328125 0.59375 0.796875q0.234375 0.453125 0.234375 1.109375q0 0.765625 -0.28125 1.421875q-0.28125 0.65625 -0.828125 1.140625q-0.546875 0.46875 -1.359375 0.75q-0.796875 0.265625 -1.84375 0.265625q-0.546875 0 -1.078125 -0.109375q-0.53125 -0.09375 -1.03125 -0.265625q-0.484375 -0.1875 -0.90625 -0.421875q-0.40625 -0.25 -0.71875 -0.53125l0.609375 -0.984375q0.109375 -0.1875 0.265625 -0.28125q0.15625 -0.09375 0.40625 -0.09375q0.234375 0 0.453125 0.140625q0.21875 0.140625 0.5 0.296875q0.28125 0.15625 0.65625 0.296875q0.390625 0.125 0.984375 0.125q0.453125 0 0.78125 -0.109375q0.328125 -0.109375 0.546875 -0.28125q0.21875 -0.171875 0.3125 -0.40625q0.109375 -0.25 0.109375 -0.5q0 -0.375 -0.234375 -0.609375q-0.21875 -0.25 -0.59375 -0.421875q-0.375 -0.1875 -0.859375 -0.328125q-0.46875 -0.140625 -0.96875 -0.296875q-0.5 -0.171875 -0.984375 -0.390625q-0.46875 -0.234375 -0.84375 -0.578125q-0.375 -0.359375 -0.609375 -0.859375q-0.21875 -0.5 -0.21875 -1.21875q0 -0.65625 0.265625 -1.25q0.265625 -0.609375 0.765625 -1.046875q0.515625 -0.453125 1.28125 -0.71875q0.765625 -0.265625 1.75 -0.265625q1.125 0 2.03125 0.375q0.921875 0.359375 1.53125 0.953125l-0.59375 0.9375zm7.382843 -2.265625q1.015625 0 1.859375 0.328125q0.859375 0.3125 1.484375 0.9375q0.625 0.625 0.96875 1.546875q0.34375 0.90625 0.34375 2.0625q0 0.296875 -0.03125 0.5q-0.015625 0.1875 -0.09375 0.296875q-0.0625 0.109375 -0.1875 0.15625q-0.109375 0.046875 -0.28125 0.046875l-6.65625 0q0.109375 1.65625 0.875 2.4375q0.78125 0.78125 2.0625 0.78125q0.640625 0 1.09375 -0.140625q0.453125 -0.15625 0.796875 -0.328125q0.34375 -0.1875 0.59375 -0.328125q0.265625 -0.15625 0.5 -0.15625q0.15625 0 0.265625 0.0625q0.125 0.0625 0.21875 0.1875l0.75 0.9375q-0.4375 0.5 -0.96875 0.84375q-0.53125 0.34375 -1.125 0.546875q-0.578125 0.203125 -1.1875 0.28125q-0.59375 0.09375 -1.15625 0.09375q-1.125 0 -2.09375 -0.375q-0.96875 -0.375 -1.6875 -1.09375q-0.703125 -0.734375 -1.125 -1.8125q-0.40625 -1.078125 -0.40625 -2.5q0 -1.09375 0.359375 -2.0625q0.359375 -0.96875 1.015625 -1.6875q0.671875 -0.71875 1.625 -1.140625q0.96875 -0.421875 2.1875 -0.421875zm0.046875 1.859375q-1.140625 0 -1.78125 0.640625q-0.640625 0.640625 -0.8125 1.8125l4.875 0q0 -0.5 -0.140625 -0.9375q-0.140625 -0.453125 -0.421875 -0.78125q-0.28125 -0.34375 -0.71875 -0.53125q-0.421875 -0.203125 -1.0 -0.203125zm11.352905 -1.859375q1.015625 0 1.859375 0.328125q0.859375 0.3125 1.484375 0.9375q0.625 0.625 0.96875 1.546875q0.34375 0.90625 0.34375 2.0625q0 0.296875 -0.03125 0.5q-0.015625 0.1875 -0.09375 0.296875q-0.0625 0.109375 -0.1875 0.15625q-0.109375 0.046875 -0.28125 0.046875l-6.65625 0q0.109375 1.65625 0.875 2.4375q0.78125 0.78125 2.0625 0.78125q0.640625 0 1.09375 -0.140625q0.453125 -0.15625 0.796875 -0.328125q0.34375 -0.1875 0.59375 -0.328125q0.265625 -0.15625 0.5 -0.15625q0.15625 0 0.265625 0.0625q0.125 0.0625 0.21875 0.1875l0.75 0.9375q-0.4375 0.5 -0.96875 0.84375q-0.53125 0.34375 -1.125 0.546875q-0.578125 0.203125 -1.1875 0.28125q-0.59375 0.09375 -1.15625 0.09375q-1.125 0 -2.09375 -0.375q-0.96875 -0.375 -1.6875 -1.09375q-0.703125 -0.734375 -1.125 -1.8125q-0.40625 -1.078125 -0.40625 -2.5q0 -1.09375 0.359375 -2.0625q0.359375 -0.96875 1.015625 -1.6875q0.671875 -0.71875 1.625 -1.140625q0.96875 -0.421875 2.1875 -0.421875zm0.046875 1.859375q-1.140625 0 -1.78125 0.640625q-0.640625 0.640625 -0.8125 1.8125l4.875 0q0 -0.5 -0.140625 -0.9375q-0.140625 -0.453125 -0.421875 -0.78125q-0.28125 -0.34375 -0.71875 -0.53125q-0.421875 -0.203125 -1.0 -0.203125z" fill-rule="nonzero"></path><path fill="#6d9eeb" d="m94.02362 381.23358l91.29396 0l0 0l39.12599 0l26.083984 0l0 6.073517l107.81555 -1.6324463l-107.81555 10.742676l0 21.257202l-26.083984 0l-39.12599 0l0 0l-91.29396 0l0 -21.257202l0 -9.1102295l0 0z" fill-rule="nonzero"></path><path fill="#ffffff" d="m140.02847 395.13968q-0.109375 0.203125 -0.25 0.296875q-0.125 0.078125 -0.328125 0.078125q-0.1875 0 -0.421875 -0.140625q-0.234375 -0.15625 -0.5625 -0.328125q-0.3125 -0.1875 -0.75 -0.328125q-0.4375 -0.15625 -1.015625 -0.15625q-0.53125 0 -0.9375 0.140625q-0.390625 0.125 -0.671875 0.359375q-0.265625 0.21875 -0.40625 0.546875q-0.125 0.3125 -0.125 0.6875q0 0.484375 0.265625 0.8125q0.28125 0.3125 0.71875 0.546875q0.453125 0.21875 1.015625 0.40625q0.578125 0.1875 1.171875 0.390625q0.59375 0.203125 1.15625 0.46875q0.578125 0.265625 1.015625 0.6875q0.453125 0.40625 0.71875 1.015625q0.28125 0.59375 0.28125 1.453125q0 0.921875 -0.328125 1.734375q-0.3125 0.8125 -0.921875 1.421875q-0.609375 0.59375 -1.5 0.953125q-0.875 0.34375 -2.015625 0.34375q-0.65625 0 -1.296875 -0.140625q-0.640625 -0.125 -1.234375 -0.359375q-0.578125 -0.234375 -1.09375 -0.5625q-0.5 -0.34375 -0.890625 -0.75l0.734375 -1.21875q0.109375 -0.140625 0.25 -0.21875q0.15625 -0.09375 0.328125 -0.09375q0.25 0 0.515625 0.203125q0.28125 0.1875 0.65625 0.421875q0.375 0.234375 0.875 0.4375q0.515625 0.1875 1.234375 0.1875q1.078125 0 1.671875 -0.515625q0.609375 -0.515625 0.609375 -1.484375q0 -0.546875 -0.28125 -0.890625q-0.265625 -0.34375 -0.71875 -0.578125q-0.4375 -0.234375 -1.015625 -0.390625q-0.5625 -0.15625 -1.15625 -0.34375q-0.578125 -0.203125 -1.15625 -0.46875q-0.5625 -0.265625 -1.015625 -0.6875q-0.4375 -0.421875 -0.71875 -1.0625q-0.265625 -0.640625 -0.265625 -1.59375q0 -0.75 0.296875 -1.453125q0.296875 -0.71875 0.875 -1.265625q0.578125 -0.546875 1.40625 -0.875q0.84375 -0.34375 1.921875 -0.34375q1.21875 0 2.234375 0.390625q1.03125 0.375 1.75 1.0625l-0.625 1.203125zm6.540329 1.328125q0.921875 0 1.6875 0.296875q0.78125 0.296875 1.34375 0.875q0.5625 0.5625 0.875 1.390625q0.3125 0.8125 0.3125 1.859375q0 0.265625 -0.03125 0.453125q-0.015625 0.171875 -0.078125 0.265625q-0.0625 0.09375 -0.171875 0.140625q-0.09375 0.046875 -0.265625 0.046875l-6.015625 0q0.109375 1.5 0.8125 2.203125q0.703125 0.703125 1.859375 0.703125q0.5625 0 0.96875 -0.125q0.421875 -0.140625 0.734375 -0.296875q0.3125 -0.171875 0.53125 -0.296875q0.234375 -0.140625 0.453125 -0.140625q0.15625 0 0.25 0.0625q0.109375 0.0625 0.1875 0.15625l0.6875 0.859375q-0.390625 0.453125 -0.875 0.765625q-0.484375 0.3125 -1.015625 0.5q-0.53125 0.171875 -1.078125 0.25q-0.546875 0.078125 -1.0625 0.078125q-1.015625 0 -1.890625 -0.328125q-0.875 -0.34375 -1.515625 -1.0q-0.640625 -0.671875 -1.015625 -1.640625q-0.375 -0.96875 -0.375 -2.25q0 -1.0 0.328125 -1.875q0.328125 -0.890625 0.921875 -1.53125q0.609375 -0.65625 1.46875 -1.03125q0.875 -0.390625 1.96875 -0.390625zm0.046875 1.6875q-1.03125 0 -1.609375 0.578125q-0.578125 0.578125 -0.734375 1.640625l4.40625 0q0 -0.453125 -0.125 -0.859375q-0.125 -0.40625 -0.390625 -0.703125q-0.25 -0.296875 -0.640625 -0.46875q-0.375 -0.1875 -0.90625 -0.1875zm5.8936462 8.21875l0 -9.75l1.4375 0q0.453125 0 0.59375 0.4375l0.171875 0.765625q0.296875 -0.3125 0.625 -0.546875q0.328125 -0.25 0.6875 -0.421875q0.359375 -0.1875 0.78125 -0.28125q0.421875 -0.109375 0.90625 -0.109375q0.8125 0 1.421875 0.28125q0.625 0.265625 1.03125 0.765625q0.40625 0.484375 0.625 1.171875q0.21875 0.671875 0.21875 1.484375l0 6.203125l-2.34375 0l0 -6.203125q0 -0.890625 -0.421875 -1.375q-0.40625 -0.5 -1.234375 -0.5q-0.609375 0 -1.140625 0.28125q-0.53125 0.265625 -1.015625 0.75l0 7.046875l-2.34375 0zm16.402954 -7.84375q-0.109375 0.15625 -0.21875 0.21875q-0.09375 0.046875 -0.25 0.046875q-0.171875 0 -0.375 -0.09375q-0.1875 -0.09375 -0.453125 -0.203125q-0.25 -0.125 -0.578125 -0.21875q-0.328125 -0.09375 -0.765625 -0.09375q-0.703125 0 -1.109375 0.296875q-0.390625 0.296875 -0.390625 0.765625q0 0.3125 0.203125 0.53125q0.203125 0.203125 0.53125 0.375q0.34375 0.15625 0.765625 0.296875q0.4375 0.125 0.875 0.28125q0.453125 0.140625 0.875 0.34375q0.4375 0.1875 0.765625 0.484375q0.34375 0.296875 0.546875 0.71875q0.203125 0.421875 0.203125 1.0q0 0.703125 -0.265625 1.296875q-0.25 0.59375 -0.75 1.03125q-0.484375 0.4375 -1.21875 0.6875q-0.71875 0.234375 -1.65625 0.234375q-0.5 0 -0.984375 -0.09375q-0.484375 -0.09375 -0.921875 -0.25q-0.4375 -0.15625 -0.8125 -0.375q-0.375 -0.21875 -0.65625 -0.484375l0.53125 -0.890625q0.109375 -0.15625 0.25 -0.234375q0.140625 -0.09375 0.359375 -0.09375q0.21875 0 0.40625 0.125q0.203125 0.109375 0.453125 0.265625q0.265625 0.140625 0.609375 0.265625q0.34375 0.125 0.875 0.125q0.421875 0 0.71875 -0.09375q0.296875 -0.109375 0.484375 -0.265625q0.203125 -0.171875 0.296875 -0.375q0.09375 -0.21875 0.09375 -0.453125q0 -0.34375 -0.203125 -0.5625q-0.203125 -0.21875 -0.546875 -0.375q-0.328125 -0.15625 -0.765625 -0.28125q-0.4375 -0.140625 -0.890625 -0.28125q-0.453125 -0.15625 -0.890625 -0.359375q-0.421875 -0.203125 -0.765625 -0.515625q-0.328125 -0.328125 -0.53125 -0.78125q-0.203125 -0.453125 -0.203125 -1.09375q0 -0.609375 0.234375 -1.140625q0.234375 -0.546875 0.6875 -0.953125q0.46875 -0.40625 1.15625 -0.640625q0.6875 -0.25 1.59375 -0.25q1.015625 0 1.828125 0.34375q0.828125 0.328125 1.390625 0.875l-0.53125 0.84375zm9.996536 7.84375l-1.046875 0q-0.34375 0 -0.53125 -0.09375q-0.1875 -0.109375 -0.28125 -0.40625l-0.203125 -0.703125q-0.375 0.34375 -0.734375 0.59375q-0.359375 0.25 -0.734375 0.421875q-0.375 0.171875 -0.8125 0.25q-0.421875 0.09375 -0.953125 0.09375q-0.609375 0 -1.140625 -0.171875q-0.515625 -0.171875 -0.890625 -0.5q-0.375 -0.328125 -0.59375 -0.8125q-0.203125 -0.5 -0.203125 -1.15625q0 -0.5625 0.28125 -1.09375q0.296875 -0.53125 0.96875 -0.96875q0.6875 -0.4375 1.796875 -0.71875q1.125 -0.28125 2.796875 -0.328125l0 -0.5625q0 -0.984375 -0.421875 -1.453125q-0.40625 -0.46875 -1.203125 -0.46875q-0.5625 0 -0.953125 0.140625q-0.375 0.125 -0.65625 0.296875q-0.28125 0.171875 -0.515625 0.3125q-0.234375 0.125 -0.515625 0.125q-0.25 0 -0.421875 -0.125q-0.171875 -0.125 -0.265625 -0.3125l-0.4375 -0.75q1.6875 -1.53125 4.0625 -1.53125q0.859375 0 1.515625 0.28125q0.671875 0.28125 1.140625 0.78125q0.46875 0.484375 0.703125 1.1875q0.25 0.6875 0.25 1.515625l0 6.15625zm-4.5625 -1.46875q0.359375 0 0.65625 -0.0625q0.3125 -0.0625 0.578125 -0.1875q0.28125 -0.140625 0.53125 -0.328125q0.25 -0.203125 0.515625 -0.46875l0 -1.640625q-1.03125 0.046875 -1.71875 0.171875q-0.6875 0.125 -1.109375 0.328125q-0.421875 0.203125 -0.59375 0.46875q-0.171875 0.265625 -0.171875 0.578125q0 0.609375 0.359375 0.875q0.375 0.265625 0.953125 0.265625zm9.891556 1.625q-1.265625 0 -1.953125 -0.71875q-0.671875 -0.71875 -0.671875 -1.984375l0 -5.4375l-0.984375 0q-0.203125 0 -0.34375 -0.125q-0.125 -0.125 -0.125 -0.375l0 -0.9375l1.5625 -0.25l0.5 -2.65625q0.03125 -0.1875 0.171875 -0.296875q0.140625 -0.109375 0.34375 -0.109375l1.21875 0l0 3.078125l2.5625 0l0 1.671875l-2.5625 0l0 5.28125q0 0.453125 0.21875 0.71875q0.234375 0.25 0.609375 0.25q0.21875 0 0.359375 -0.046875q0.15625 -0.0625 0.265625 -0.109375q0.109375 -0.0625 0.1875 -0.109375q0.09375 -0.0625 0.1875 -0.0625q0.09375 0 0.15625 0.0625q0.078125 0.046875 0.15625 0.140625l0.703125 1.140625q-0.515625 0.4375 -1.1875 0.65625q-0.65625 0.21875 -1.375 0.21875zm6.5168457 -9.90625l0 9.75l-2.34375 0l0 -9.75l2.34375 0zm0.359375 -2.84375q0 0.3125 -0.125 0.578125q-0.125 0.265625 -0.328125 0.46875q-0.203125 0.1875 -0.484375 0.3125q-0.28125 0.125 -0.59375 0.125q-0.296875 0 -0.578125 -0.125q-0.265625 -0.125 -0.46875 -0.3125q-0.1875 -0.203125 -0.3125 -0.46875q-0.109375 -0.265625 -0.109375 -0.578125q0 -0.3125 0.109375 -0.578125q0.125 -0.28125 0.3125 -0.46875q0.203125 -0.203125 0.46875 -0.328125q0.28125 -0.125 0.578125 -0.125q0.3125 0 0.59375 0.125q0.28125 0.125 0.484375 0.328125q0.203125 0.1875 0.328125 0.46875q0.125 0.265625 0.125 0.578125zm6.368347 2.6875q1.078125 0 1.96875 0.359375q0.890625 0.34375 1.515625 1.0q0.625 0.640625 0.96875 1.578125q0.34375 0.921875 0.34375 2.078125q0 1.15625 -0.34375 2.09375q-0.34375 0.921875 -0.96875 1.578125q-0.625 0.65625 -1.515625 1.015625q-0.890625 0.34375 -1.96875 0.34375q-1.09375 0 -2.0 -0.34375q-0.890625 -0.359375 -1.53125 -1.015625q-0.625 -0.65625 -0.96875 -1.578125q-0.34375 -0.9375 -0.34375 -2.09375q0 -1.15625 0.34375 -2.078125q0.34375 -0.9375 0.96875 -1.578125q0.640625 -0.65625 1.53125 -1.0q0.90625 -0.359375 2.0 -0.359375zm0 8.25q1.203125 0 1.78125 -0.8125q0.59375 -0.828125 0.59375 -2.40625q0 -1.578125 -0.59375 -2.40625q-0.578125 -0.828125 -1.78125 -0.828125q-1.234375 0 -1.828125 0.84375q-0.59375 0.828125 -0.59375 2.390625q0 1.5625 0.59375 2.390625q0.59375 0.828125 1.828125 0.828125zm6.434204 1.65625l0 -9.75l1.4375 0q0.453125 0 0.59375 0.4375l0.171875 0.765625q0.296875 -0.3125 0.625 -0.546875q0.328125 -0.25 0.6875 -0.421875q0.359375 -0.1875 0.78125 -0.28125q0.421875 -0.109375 0.90625 -0.109375q0.8125 0 1.421875 0.28125q0.625 0.265625 1.03125 0.765625q0.40625 0.484375 0.625 1.171875q0.21875 0.671875 0.21875 1.484375l0 6.203125l-2.34375 0l0 -6.203125q0 -0.890625 -0.421875 -1.375q-0.40625 -0.5 -1.234375 -0.5q-0.609375 0 -1.140625 0.28125q-0.53125 0.265625 -1.015625 0.75l0 7.046875l-2.34375 0z" fill-rule="nonzero"></path><path fill="#6d9eeb" d="m206.57217 460.38452l52.049866 0l0 0l22.307098 0l14.871399 0l0 6.0734863l66.75885 -4.7218933l-66.75885 13.832123l0 21.257233l-14.871399 0l-22.307098 0l0 0l-52.049866 0l0 -21.257233l0 -9.1102295l0 0z" fill-rule="nonzero"></path><path fill="#ffffff" d="m236.83862 485.525l-1.984375 0q-0.328125 0 -0.546875 -0.15625q-0.21875 -0.171875 -0.3125 -0.421875l-1.015625 -2.796875l-5.703125 0l-1.015625 2.796875q-0.078125 0.21875 -0.3125 0.40625q-0.21875 0.171875 -0.53125 0.171875l-1.984375 0l5.390625 -13.734375l2.609375 0l5.40625 13.734375zm-8.90625 -5.1875l4.390625 0l-1.671875 -4.5625q-0.125 -0.3125 -0.265625 -0.71875q-0.125 -0.421875 -0.265625 -0.90625q-0.125 0.484375 -0.265625 0.90625q-0.125 0.421875 -0.25 0.734375l-1.671875 4.546875zm16.792816 -2.5q-0.109375 0.140625 -0.21875 0.21875q-0.09375 0.0625 -0.28125 0.0625q-0.1875 0 -0.359375 -0.109375q-0.15625 -0.109375 -0.40625 -0.234375q-0.234375 -0.140625 -0.5625 -0.25q-0.328125 -0.109375 -0.8125 -0.109375q-0.609375 0 -1.078125 0.21875q-0.46875 0.21875 -0.78125 0.640625q-0.296875 0.421875 -0.453125 1.015625q-0.15625 0.59375 -0.15625 1.34375q0 0.78125 0.15625 1.390625q0.171875 0.609375 0.484375 1.015625q0.328125 0.40625 0.765625 0.625q0.453125 0.21875 1.015625 0.21875q0.546875 0 0.890625 -0.140625q0.359375 -0.140625 0.59375 -0.296875q0.234375 -0.171875 0.40625 -0.3125q0.1875 -0.140625 0.40625 -0.140625q0.28125 0 0.421875 0.21875l0.671875 0.859375q-0.390625 0.453125 -0.84375 0.765625q-0.453125 0.3125 -0.953125 0.5q-0.484375 0.171875 -1.015625 0.25q-0.515625 0.078125 -1.015625 0.078125q-0.90625 0 -1.703125 -0.328125q-0.796875 -0.34375 -1.390625 -0.984375q-0.59375 -0.65625 -0.953125 -1.59375q-0.34375 -0.9375 -0.34375 -2.125q0 -1.078125 0.3125 -1.984375q0.3125 -0.921875 0.90625 -1.59375q0.59375 -0.671875 1.484375 -1.046875q0.890625 -0.390625 2.03125 -0.390625q1.09375 0 1.90625 0.359375q0.828125 0.34375 1.484375 1.0l-0.609375 0.859375zm5.2427826 7.84375q-1.265625 0 -1.953125 -0.71875q-0.671875 -0.71875 -0.671875 -1.984375l0 -5.4375l-0.984375 0q-0.203125 0 -0.34375 -0.125q-0.125 -0.125 -0.125 -0.375l0 -0.9375l1.5625 -0.25l0.5 -2.65625q0.03125 -0.1875 0.171875 -0.296875q0.140625 -0.109375 0.34375 -0.109375l1.21875 0l0 3.078125l2.5625 0l0 1.671875l-2.5625 0l0 5.28125q0 0.453125 0.21875 0.71875q0.234375 0.25 0.609375 0.25q0.21875 0 0.359375 -0.046875q0.15625 -0.0625 0.265625 -0.109375q0.109375 -0.0625 0.1875 -0.109375q0.09375 -0.0625 0.1875 -0.0625q0.09375 0 0.15625 0.0625q0.078125 0.046875 0.15625 0.140625l0.703125 1.140625q-0.515625 0.4375 -1.1875 0.65625q-0.65625 0.21875 -1.375 0.21875zm6.516861 -9.90625l0 9.75l-2.3437653 0l0 -9.75l2.3437653 0zm0.359375 -2.84375q0 0.3125 -0.125 0.578125q-0.125 0.265625 -0.328125 0.46875q-0.203125 0.1875 -0.48439026 0.3125q-0.28125 0.125 -0.59375 0.125q-0.296875 0 -0.578125 -0.125q-0.265625 -0.125 -0.46875 -0.3125q-0.1875 -0.203125 -0.3125 -0.46875q-0.109375 -0.265625 -0.109375 -0.578125q0 -0.3125 0.109375 -0.578125q0.125 -0.28125 0.3125 -0.46875q0.203125 -0.203125 0.46875 -0.328125q0.28125 -0.125 0.578125 -0.125q0.3125 0 0.59375 0.125q0.28126526 0.125 0.48439026 0.328125q0.203125 0.1875 0.328125 0.46875q0.125 0.265625 0.125 0.578125zm6.368347 2.6875q1.078125 0 1.96875 0.359375q0.890625 0.34375 1.515625 1.0q0.625 0.640625 0.96875 1.578125q0.34375 0.921875 0.34375 2.078125q0 1.15625 -0.34375 2.09375q-0.34375 0.921875 -0.96875 1.578125q-0.625 0.65625 -1.515625 1.015625q-0.890625 0.34375 -1.96875 0.34375q-1.09375 0 -2.0 -0.34375q-0.890625 -0.359375 -1.53125 -1.015625q-0.625 -0.65625 -0.96875 -1.578125q-0.34375 -0.9375 -0.34375 -2.09375q0 -1.15625 0.34375 -2.078125q0.34375 -0.9375 0.96875 -1.578125q0.640625 -0.65625 1.53125 -1.0q0.90625 -0.359375 2.0 -0.359375zm0 8.25q1.203125 0 1.78125 -0.8125q0.59375 -0.828125 0.59375 -2.40625q0 -1.578125 -0.59375 -2.40625q-0.578125 -0.828125 -1.78125 -0.828125q-1.234375 0 -1.828125 0.84375q-0.59375 0.828125 -0.59375 2.390625q0 1.5625 0.59375 2.390625q0.59375 0.828125 1.828125 0.828125zm6.434204 1.65625l0 -9.75l1.4375 0q0.453125 0 0.59375 0.4375l0.171875 0.765625q0.296875 -0.3125 0.625 -0.546875q0.328125 -0.25 0.6875 -0.421875q0.359375 -0.1875 0.78125 -0.28125q0.421875 -0.109375 0.90625 -0.109375q0.8125 0 1.421875 0.28125q0.625 0.265625 1.03125 0.765625q0.40625 0.484375 0.625 1.171875q0.21875 0.671875 0.21875 1.484375l0 6.203125l-2.34375 0l0 -6.203125q0 -0.890625 -0.421875 -1.375q-0.40625 -0.5 -1.234375 -0.5q-0.609375 0 -1.140625 0.28125q-0.53125 0.265625 -1.015625 0.75l0 7.046875l-2.34375 0z" fill-rule="nonzero"></path><path fill="#6d9eeb" d="m354.76642 385.24146l0 0c0 -6.270813 5.083496 -11.354309 11.354309 -11.354309l0 0c3.0113525 0 5.8993835 1.1962585 8.028717 3.325592c2.129364 2.129364 3.3256226 5.0173645 3.3256226 8.028717l0 0c0 6.2708435 -5.083496 11.35434 -11.35434 11.35434l0 0c-6.270813 0 -11.354309 -5.083496 -11.354309 -11.35434z" fill-rule="nonzero"></path><path fill="#6d9eeb" d="m355.41733 464.62598l0 0c0 -6.270813 5.083496 -11.354309 11.35434 -11.354309l0 0c3.0113525 0 5.899353 1.196228 8.028717 3.325592c2.1293335 2.129364 3.325592 5.0173645 3.325592 8.028717l0 0c0 6.2708435 -5.083496 11.35434 -11.354309 11.35434l0 0c-6.2708435 0 -11.35434 -5.083496 -11.35434 -11.35434z" fill-rule="nonzero"></path></g></svg>

