<?xml version="1.0" encoding="UTF-8" standalone="no"?>
<svg
   xmlns:dc="http://purl.org/dc/elements/1.1/"
   xmlns:cc="http://creativecommons.org/ns#"
   xmlns:rdf="http://www.w3.org/1999/02/22-rdf-syntax-ns#"
   xmlns:svg="http://www.w3.org/2000/svg"
   xmlns="http://www.w3.org/2000/svg"
   xmlns:sodipodi="http://sodipodi.sourceforge.net/DTD/sodipodi-0.dtd"
   xmlns:inkscape="http://www.inkscape.org/namespaces/inkscape"
   version="1.1"
   viewBox="0 0 697.92126 697.9212"
   stroke-miterlimit="10"
   id="svg119"
   sodipodi:docname="main.svg"
   width="697.92126"
   height="697.9212"
   style="fill:none;stroke:none;stroke-linecap:square;stroke-miterlimit:10"
   inkscape:version="0.92.4 (5da689c313, 2019-01-14)">
  <metadata
     id="metadata125">
    <rdf:RDF>
      <cc:Work
         rdf:about="">
        <dc:format>image/svg+xml</dc:format>
        <dc:type
           rdf:resource="http://purl.org/dc/dcmitype/StillImage" />
        <dc:title></dc:title>
      </cc:Work>
    </rdf:RDF>
  </metadata>
  <defs
     id="defs123" />
  <sodipodi:namedview
     pagecolor="#ffffff"
     bordercolor="#666666"
     borderopacity="1"
     objecttolerance="10"
     gridtolerance="10"
     guidetolerance="10"
     inkscape:pageopacity="0"
     inkscape:pageshadow="2"
     inkscape:window-width="1920"
     inkscape:window-height="1025"
     id="namedview121"
     showgrid="false"
     fit-margin-top="30"
     fit-margin-left="30"
     fit-margin-right="30"
     fit-margin-bottom="30"
     inkscape:zoom="0.28710645"
     inkscape:cx="841.10764"
     inkscape:cy="400.2863"
     inkscape:window-x="0"
     inkscape:window-y="30"
     inkscape:window-maximized="1"
     inkscape:current-layer="svg119" />
  <clipPath
     id="p.0">
    <path
       d="M 0,0 H 1334 V 820 H 0 Z"
       id="path2"
       inkscape:connector-curvature="0"
       style="clip-rule:nonzero" />
  </clipPath>
  <path
     style="fill:#666666;fill-rule:nonzero"
     inkscape:connector-curvature="0"
     id="path7"
     d="m 30,348.9606 v 0 C 30,172.80353 172.80353,30 348.96063,30 v 0 c 84.59363,0 165.7225,33.60468 225.53922,93.42141 59.81671,59.81671 93.42139,140.9456 93.42139,225.5392 v 0 c 0,176.15707 -142.80353,318.9606 -318.9606,318.9606 v 0 c -176.15709,0 -318.96063,-142.80353 -318.96063,-318.9606 z" />
  <path
     style="fill:#ffffff;fill-rule:nonzero"
     inkscape:connector-curvature="0"
     id="path9"
     d="m 297.14434,289.19418 v 0 c 0,-26.00522 29.96518,-47.08661 66.92914,-47.08661 v 0 c 36.96393,0 66.92914,21.08139 66.92914,47.08661 v 0 c 0,26.00522 -29.96521,47.08661 -66.92914,47.08661 v 0 c -36.96396,0 -66.92914,-21.08139 -66.92914,-47.08661 z" />
  <path
     style="fill:#ffffff;fill-rule:nonzero"
     inkscape:connector-curvature="0"
     id="path11"
     d="m 291.13647,485.65483 v 0 c 0,-40.86038 33.12387,-73.98428 73.98425,-73.98428 v 0 c 19.62183,0 38.44003,7.79477 52.31476,21.66949 13.87476,13.87473 21.66949,32.6929 21.66949,52.31479 v 0 c 0,40.86035 -33.12387,73.98425 -73.98425,73.98425 v 0 c -40.86038,0 -73.98425,-33.1239 -73.98425,-73.98425 z" />
  <path
     style="fill:#000000;fill-opacity:0;fill-rule:nonzero"
     inkscape:connector-curvature="0"
     id="path15"
     d="m 365.59282,447.01199 c -3.18701,-10.49362 -5.68146,-21.18524 -7.46725,-32.0058" />
  <path
     style="fill-rule:nonzero;stroke:#666666;stroke-width:3;stroke-linecap:butt;stroke-linejoin:round"
     inkscape:connector-curvature="0"
     id="path17"
     d="m 365.59282,447.01199 c -3.18701,-10.49362 -5.68146,-21.18524 -7.46725,-32.0058" />
  <path
     style="fill:#000000;fill-opacity:0;fill-rule:nonzero"
     inkscape:connector-curvature="0"
     id="path21"
     d="m 358.35378,332.0647 v 0 c 1.22656,-7.18564 2.7662,-14.31433 4.6145,-21.36569" />
  <path
     style="fill-rule:nonzero;stroke:#666666;stroke-width:3;stroke-linecap:butt;stroke-linejoin:round"
     inkscape:connector-curvature="0"
     id="path23"
     d="m 358.35378,332.0647 v 0 c 1.22656,-7.18564 2.7662,-14.31433 4.6145,-21.36569" />
  <path
     style="fill:#000000;fill-opacity:0;fill-rule:nonzero"
     inkscape:connector-curvature="0"
     id="path27"
     d="m 358.66997,418.17798 v 0 c -5.29068,-29.67893 -5.18072,-60.06915 0.32458,-89.70901" />
  <path
     style="fill-rule:nonzero;stroke:#f3f3f3;stroke-width:3;stroke-linecap:butt;stroke-linejoin:round"
     inkscape:connector-curvature="0"
     id="path29"
     d="m 358.66997,418.17798 v 0 c -5.29068,-29.67893 -5.18072,-60.06915 0.32458,-89.70901" />
  <path
     style="fill:#000000;fill-opacity:0;fill-rule:nonzero"
     inkscape:connector-curvature="0"
     id="path31"
     d="m 184.25719,88.94223 h 456.97635 v 177.7638 H 184.25719 Z" />
  <path
     style="fill:#ffffff;fill-rule:nonzero"
     inkscape:connector-curvature="0"
     id="path33"
     d="m 195.00719,120.98223 v -12.15625 h 1.28125 q 0.45312,0 0.5625,0.4375 l 0.15625,1.25 q 0.67187,-0.82813 1.5,-1.34375 0.84375,-0.53125 1.95312,-0.53125 1.23438,0 1.98438,0.6875 0.76562,0.67187 1.10937,1.84375 0.25,-0.65625 0.65625,-1.14063 0.42188,-0.48437 0.9375,-0.79687 0.51563,-0.3125 1.09375,-0.45313 0.59375,-0.14062 1.1875,-0.14062 0.95313,0 1.70313,0.3125 0.75,0.29687 1.26562,0.89062 0.53125,0.57813 0.8125,1.4375 0.28125,0.85938 0.28125,1.96875 v 7.73438 h -2.14062 v -7.73438 q 0,-1.4375 -0.625,-2.17187 -0.625,-0.73438 -1.8125,-0.73438 -0.53125,0 -1,0.1875 -0.46875,0.1875 -0.84375,0.54688 -0.35938,0.35937 -0.5625,0.90625 -0.20313,0.54687 -0.20313,1.26562 v 7.73438 h -2.14062 v -7.73438 q 0,-1.46875 -0.59375,-2.1875 -0.57813,-0.71875 -1.71875,-0.71875 -0.78125,0 -1.46875,0.42188 -0.67188,0.42187 -1.23438,1.15625 v 9.0625 z m 28.64163,0 h -0.95312 q -0.3125,0 -0.51563,-0.0937 -0.1875,-0.0937 -0.25,-0.40625 l -0.23437,-1.125 q -0.48438,0.42187 -0.9375,0.76562 -0.45313,0.34375 -0.95313,0.57813 -0.5,0.23437 -1.07812,0.34375 -0.5625,0.125 -1.26563,0.125 -0.70312,0 -1.32812,-0.1875 -0.60938,-0.20313 -1.07813,-0.59375 -0.45312,-0.40625 -0.71875,-1 -0.26562,-0.60938 -0.26562,-1.4375 0,-0.71875 0.39062,-1.39063 0.39063,-0.67187 1.26563,-1.1875 0.89062,-0.51562 2.3125,-0.84375 1.4375,-0.32812 3.5,-0.375 v -0.95312 q 0,-1.40625 -0.60938,-2.125 -0.59375,-0.73438 -1.78125,-0.73438 -0.78125,0 -1.32812,0.20313 -0.53125,0.1875 -0.92188,0.4375 -0.39062,0.25 -0.67187,0.45312 -0.28125,0.1875 -0.54688,0.1875 -0.21875,0 -0.39062,-0.10937 -0.15625,-0.125 -0.25,-0.28125 l -0.39063,-0.6875 q 1.01563,-0.96875 2.17188,-1.45313 1.17187,-0.48437 2.57812,-0.48437 1.03125,0 1.8125,0.34375 0.79688,0.32812 1.32813,0.9375 0.54687,0.59375 0.82812,1.45312 0.28125,0.84375 0.28125,1.85938 z m -5.54687,-1.3125 q 0.5625,0 1.03125,-0.10938 0.46875,-0.10937 0.875,-0.3125 0.42187,-0.21875 0.79687,-0.51562 0.375,-0.3125 0.73438,-0.6875 v -2.53125 q -1.46875,0.0469 -2.5,0.23437 -1.03125,0.1875 -1.6875,0.48438 -0.64063,0.29687 -0.9375,0.70312 -0.29688,0.40625 -0.29688,0.92188 0,0.46875 0.15625,0.82812 0.15625,0.34375 0.42188,0.5625 0.26562,0.21875 0.625,0.32813 0.35937,0.0937 0.78125,0.0937 z m 11.15246,-10.84375 v 12.15625 h -2.14062 v -12.15625 z m 0.48438,-3.8125 q 0,0.3125 -0.125,0.57812 -0.125,0.26563 -0.34375,0.48438 -0.20313,0.20312 -0.48438,0.32812 -0.26562,0.125 -0.57812,0.125 -0.3125,0 -0.59375,-0.125 -0.26563,-0.125 -0.48438,-0.32812 -0.20312,-0.21875 -0.32812,-0.48438 -0.10938,-0.26562 -0.10938,-0.57812 0,-0.3125 0.10938,-0.59375 0.125,-0.28125 0.32812,-0.48438 0.21875,-0.21875 0.48438,-0.34375 0.28125,-0.125 0.59375,-0.125 0.3125,0 0.57812,0.125 0.28125,0.125 0.48438,0.34375 0.21875,0.20313 0.34375,0.48438 0.125,0.28125 0.125,0.59375 z m 3.28467,15.96875 v -12.15625 h 1.28125 q 0.45312,0 0.5625,0.4375 l 0.17187,1.32812 q 0.79688,-0.875 1.76563,-1.40625 0.98437,-0.54687 2.26562,-0.54687 1,0 1.75,0.32812 0.76563,0.32813 1.28125,0.9375 0.51563,0.60938 0.78125,1.46875 0.26563,0.84375 0.26563,1.875 v 7.73438 h -2.14063 v -7.73438 q 0,-1.39062 -0.64062,-2.14062 -0.625,-0.76563 -1.92188,-0.76563 -0.9375,0 -1.76562,0.45313 -0.82813,0.45312 -1.51563,1.23437 v 8.95313 z m 18.39801,-5.09375 q 0,-0.76563 -0.42188,-1.25 -0.42187,-0.48438 -1.21875,-0.48438 v -1.28125 q 0.79688,0 1.21875,-0.48437 0.42188,-0.48438 0.42188,-1.25 0,-0.59375 -0.0937,-1.17188 -0.0937,-0.59375 -0.21875,-1.1875 -0.10938,-0.59375 -0.20313,-1.1875 -0.0937,-0.59375 -0.0937,-1.21875 0,-0.82812 0.23438,-1.53125 0.25,-0.70312 0.75,-1.20312 0.5,-0.5 1.23437,-0.76563 0.75,-0.28125 1.73438,-0.28125 h 0.625 v 0.9375 q 0,0.25 -0.17188,0.35938 -0.15625,0.10937 -0.3125,0.10937 h -0.23437 q -0.92188,0 -1.45313,0.60938 -0.53125,0.59375 -0.53125,1.625 0,0.67187 0.0781,1.29687 0.0781,0.625 0.1875,1.21875 0.10937,0.59375 0.1875,1.1875 0.0937,0.57813 0.0937,1.1875 0,0.45313 -0.14063,0.84375 -0.125,0.39063 -0.375,0.70313 -0.23437,0.29687 -0.57812,0.51562 -0.32813,0.21875 -0.71875,0.32813 0.39062,0.10937 0.71875,0.34375 0.34375,0.21875 0.57812,0.53125 0.25,0.3125 0.375,0.70312 0.14063,0.375 0.14063,0.8125 0,0.60938 -0.0937,1.20313 -0.0781,0.57812 -0.1875,1.17187 -0.10938,0.59375 -0.1875,1.21875 -0.0781,0.625 -0.0781,1.29688 0,1.04687 0.53125,1.64062 0.53125,0.59375 1.45313,0.59375 h 0.23437 q 0.15625,0 0.3125,0.10938 0.17188,0.10937 0.17188,0.35937 v 0.95313 h -0.625 q -0.98438,0 -1.73438,-0.28125 -0.73437,-0.28125 -1.23437,-0.79688 -0.5,-0.5 -0.75,-1.20312 -0.23438,-0.6875 -0.23438,-1.51563 0,-0.625 0.0937,-1.21875 0.0937,-0.59375 0.20313,-1.1875 0.125,-0.59375 0.21875,-1.17187 0.0937,-0.59375 0.0937,-1.1875 z" />
  <path
     style="fill:#ffffff;fill-rule:nonzero"
     inkscape:connector-curvature="0"
     id="path35"
     d="m 249.97594,139.82597 q -0.15625,0.26562 -0.45312,0.26562 -0.17188,0 -0.40625,-0.125 -0.23438,-0.14062 -0.5625,-0.29687 -0.32813,-0.15625 -0.78125,-0.29688 -0.45313,-0.14062 -1.07813,-0.14062 -0.54687,0 -0.98437,0.14062 -0.42188,0.14063 -0.73438,0.375 -0.29687,0.23438 -0.46875,0.5625 -0.15625,0.3125 -0.15625,0.6875 0,0.46875 0.26563,0.78125 0.28125,0.3125 0.71875,0.54688 0.45312,0.21875 1.01562,0.39062 0.5625,0.17188 1.15625,0.375 0.59375,0.1875 1.15625,0.4375 0.5625,0.23438 1,0.59375 0.45313,0.35938 0.71875,0.89063 0.26563,0.51562 0.26563,1.25 0,0.84375 -0.29688,1.5625 -0.29687,0.70312 -0.89062,1.23437 -0.57813,0.51563 -1.4375,0.8125 -0.84375,0.29688 -1.96875,0.29688 -1.26563,0 -2.29688,-0.40625 -1.03125,-0.42188 -1.75,-1.0625 l 0.5,-0.8125 q 0.0937,-0.15625 0.21875,-0.23438 0.14063,-0.0937 0.35938,-0.0937 0.21875,0 0.45312,0.17188 0.23438,0.15625 0.57813,0.35937 0.34375,0.20313 0.82812,0.375 0.48438,0.17188 1.21875,0.17188 0.625,0 1.09375,-0.15625 0.46875,-0.17188 0.78125,-0.4375 0.3125,-0.28125 0.45313,-0.64063 0.15625,-0.35937 0.15625,-0.76562 0,-0.51563 -0.26563,-0.84375 -0.26562,-0.32813 -0.71875,-0.5625 -0.4375,-0.23438 -1.01562,-0.40625 -0.5625,-0.17188 -1.15625,-0.35938 -0.59375,-0.20312 -1.17188,-0.4375 -0.5625,-0.25 -1.01562,-0.625 -0.4375,-0.375 -0.71875,-0.92187 -0.26563,-0.54688 -0.26563,-1.3125 0,-0.70313 0.28125,-1.34375 0.29688,-0.64063 0.84375,-1.125 0.5625,-0.48438 1.35938,-0.76563 0.8125,-0.29687 1.84375,-0.29687 1.20312,0 2.15625,0.375 0.95312,0.375 1.64062,1.03125 z m 8.25983,-2.1875 q 1.09375,0 2.01562,0.375 0.92188,0.35937 1.59375,1.04687 0.67188,0.6875 1.04688,1.70313 0.39062,1.01562 0.39062,2.3125 0,0.5 -0.10937,0.67187 -0.10938,0.15625 -0.40625,0.15625 h -8.09375 q 0.0312,1.15625 0.3125,2.01563 0.28125,0.84375 0.78125,1.42187 0.51562,0.5625 1.20312,0.84375 0.70313,0.28125 1.5625,0.28125 0.8125,0 1.39063,-0.1875 0.57812,-0.1875 1,-0.39062 0.42187,-0.21875 0.70312,-0.40625 0.28125,-0.1875 0.48438,-0.1875 0.26562,0 0.40625,0.20312 l 0.60937,0.78125 q -0.40625,0.48438 -0.95312,0.84375 -0.54688,0.34375 -1.1875,0.57813 -0.625,0.21875 -1.29688,0.32812 -0.67187,0.125 -1.32812,0.125 -1.26563,0 -2.32813,-0.42187 -1.0625,-0.4375 -1.84375,-1.25 -0.76562,-0.82813 -1.20312,-2.03125 -0.42188,-1.21875 -0.42188,-2.79688 0,-1.26562 0.39063,-2.35937 0.39062,-1.10938 1.10937,-1.92188 0.73438,-0.8125 1.79688,-1.26562 1.0625,-0.46875 2.375,-0.46875 z m 0.0469,1.5625 q -1.54687,0 -2.4375,0.90625 -0.89062,0.89062 -1.09375,2.46875 h 6.60938 q 0,-0.73438 -0.20313,-1.35938 -0.20312,-0.625 -0.60937,-1.0625 -0.39063,-0.45312 -0.96875,-0.70312 -0.5625,-0.25 -1.29688,-0.25 z m 12.52924,-1.5625 q 1.09375,0 2.01562,0.375 0.92188,0.35937 1.59375,1.04687 0.67188,0.6875 1.04688,1.70313 0.39062,1.01562 0.39062,2.3125 0,0.5 -0.10937,0.67187 -0.10938,0.15625 -0.40625,0.15625 h -8.09375 q 0.0312,1.15625 0.3125,2.01563 0.28125,0.84375 0.78125,1.42187 0.51562,0.5625 1.20312,0.84375 0.70313,0.28125 1.5625,0.28125 0.8125,0 1.39063,-0.1875 0.57812,-0.1875 1,-0.39062 0.42187,-0.21875 0.70312,-0.40625 0.28125,-0.1875 0.48438,-0.1875 0.26562,0 0.40625,0.20312 l 0.60937,0.78125 q -0.40625,0.48438 -0.95312,0.84375 -0.54688,0.34375 -1.1875,0.57813 -0.625,0.21875 -1.29688,0.32812 -0.67187,0.125 -1.32812,0.125 -1.26563,0 -2.32813,-0.42187 -1.0625,-0.4375 -1.84375,-1.25 -0.76562,-0.82813 -1.20312,-2.03125 -0.42188,-1.21875 -0.42188,-2.79688 0,-1.26562 0.39063,-2.35937 0.39062,-1.10938 1.10937,-1.92188 0.73438,-0.8125 1.79688,-1.26562 1.0625,-0.46875 2.375,-0.46875 z m 0.0469,1.5625 q -1.54687,0 -2.4375,0.90625 -0.89062,0.89062 -1.09375,2.46875 h 6.60938 q 0,-0.73438 -0.20313,-1.35938 -0.20312,-0.625 -0.60937,-1.0625 -0.39063,-0.45312 -0.96875,-0.70312 -0.5625,-0.25 -1.29688,-0.25 z m 21.48938,-3.73438 q -0.10937,0.1875 -0.23437,0.28125 -0.10938,0.0937 -0.29688,0.0937 -0.20312,0 -0.48437,-0.20312 -0.26563,-0.21875 -0.6875,-0.45313 -0.40625,-0.25 -0.98438,-0.45312 -0.57812,-0.20313 -1.40625,-0.20313 -0.78125,0 -1.39062,0.21875 -0.59375,0.20313 -1,0.5625 -0.39063,0.35938 -0.60938,0.84375 -0.20312,0.48438 -0.20312,1.04688 0,0.71875 0.35937,1.20312 0.35938,0.46875 0.9375,0.8125 0.57813,0.32813 1.3125,0.57813 0.75,0.23437 1.51563,0.5 0.78125,0.26562 1.51562,0.59375 0.73438,0.32812 1.3125,0.84375 0.59375,0.5 0.9375,1.23437 0.35938,0.73438 0.35938,1.79688 0,1.125 -0.39063,2.125 -0.375,0.98437 -1.125,1.71875 -0.73437,0.73437 -1.8125,1.15625 -1.0625,0.40625 -2.4375,0.40625 -1.65625,0 -3.03125,-0.59375 -1.375,-0.60938 -2.34375,-1.64063 l 0.67188,-1.10937 q 0.0937,-0.125 0.21875,-0.21875 0.14062,-0.0937 0.3125,-0.0937 0.25,0 0.57812,0.28125 0.32813,0.26562 0.8125,0.59375 0.48438,0.3125 1.17188,0.59375 0.6875,0.26562 1.6875,0.26562 0.82812,0 1.46875,-0.23437 0.65625,-0.23438 1.10937,-0.64063 0.45313,-0.42187 0.6875,-0.98437 0.23438,-0.57813 0.23438,-1.29688 0,-0.76562 -0.35938,-1.26562 -0.34375,-0.5 -0.92187,-0.82813 -0.57813,-0.34375 -1.3125,-0.57812 -0.73438,-0.23438 -1.51563,-0.48438 -0.76562,-0.25 -1.51562,-0.5625 -0.73438,-0.32812 -1.3125,-0.84375 -0.57813,-0.51562 -0.9375,-1.28125 -0.34375,-0.78125 -0.34375,-1.92187 0,-0.92188 0.34375,-1.76563 0.35937,-0.85937 1.03125,-1.51562 0.67187,-0.65625 1.65625,-1.04688 1,-0.40625 2.28125,-0.40625 1.45312,0 2.64062,0.46875 1.1875,0.45313 2.0625,1.3125 z m 8.39197,2.17188 q 1.09375,0 2.01563,0.375 0.92187,0.35937 1.59375,1.04687 0.67187,0.6875 1.04687,1.70313 0.39063,1.01562 0.39063,2.3125 0,0.5 -0.10938,0.67187 -0.10937,0.15625 -0.40625,0.15625 h -8.09375 q 0.0312,1.15625 0.3125,2.01563 0.28125,0.84375 0.78125,1.42187 0.51563,0.5625 1.20313,0.84375 0.70312,0.28125 1.5625,0.28125 0.8125,0 1.39062,-0.1875 0.57813,-0.1875 1,-0.39062 0.42188,-0.21875 0.70313,-0.40625 0.28125,-0.1875 0.48437,-0.1875 0.26563,0 0.40625,0.20312 l 0.60938,0.78125 q -0.40625,0.48438 -0.95313,0.84375 -0.54687,0.34375 -1.1875,0.57813 -0.625,0.21875 -1.29687,0.32812 -0.67188,0.125 -1.32813,0.125 -1.26562,0 -2.32812,-0.42187 -1.0625,-0.4375 -1.84375,-1.25 -0.76563,-0.82813 -1.20313,-2.03125 -0.42187,-1.21875 -0.42187,-2.79688 0,-1.26562 0.39062,-2.35937 0.39063,-1.10938 1.10938,-1.92188 0.73437,-0.8125 1.79687,-1.26562 1.0625,-0.46875 2.375,-0.46875 z m 0.0469,1.5625 q -1.54688,0 -2.4375,0.90625 -0.89063,0.89062 -1.09375,2.46875 h 6.60937 q 0,-0.73438 -0.20312,-1.35938 -0.20313,-0.625 -0.60938,-1.0625 -0.39062,-0.45312 -0.96875,-0.70312 -0.5625,-0.25 -1.29687,-0.25 z m 12.5292,-1.5625 q 1.09375,0 2.01563,0.375 0.92187,0.35937 1.59375,1.04687 0.67187,0.6875 1.04687,1.70313 0.39063,1.01562 0.39063,2.3125 0,0.5 -0.10938,0.67187 -0.10937,0.15625 -0.40625,0.15625 h -8.09375 q 0.0312,1.15625 0.3125,2.01563 0.28125,0.84375 0.78125,1.42187 0.51563,0.5625 1.20313,0.84375 0.70312,0.28125 1.5625,0.28125 0.8125,0 1.39062,-0.1875 0.57813,-0.1875 1,-0.39062 0.42188,-0.21875 0.70313,-0.40625 0.28125,-0.1875 0.48437,-0.1875 0.26563,0 0.40625,0.20312 l 0.60938,0.78125 q -0.40625,0.48438 -0.95313,0.84375 -0.54687,0.34375 -1.1875,0.57813 -0.625,0.21875 -1.29687,0.32812 -0.67188,0.125 -1.32813,0.125 -1.26562,0 -2.32812,-0.42187 -1.0625,-0.4375 -1.84375,-1.25 -0.76563,-0.82813 -1.20313,-2.03125 -0.42187,-1.21875 -0.42187,-2.79688 0,-1.26562 0.39062,-2.35937 0.39063,-1.10938 1.10938,-1.92188 0.73437,-0.8125 1.79687,-1.26562 1.0625,-0.46875 2.375,-0.46875 z m 0.0469,1.5625 q -1.54688,0 -2.4375,0.90625 -0.89063,0.89062 -1.09375,2.46875 h 6.60937 q 0,-0.73438 -0.20312,-1.35938 -0.20313,-0.625 -0.60938,-1.0625 -0.39062,-0.45312 -0.96875,-0.70312 -0.5625,-0.25 -1.29687,-0.25 z" />
  <path
     style="fill:#ffffff;fill-rule:nonzero"
     inkscape:connector-curvature="0"
     id="path37"
     d="m 249.97594,168.82597 q -0.15625,0.26562 -0.45312,0.26562 -0.17188,0 -0.40625,-0.125 -0.23438,-0.14062 -0.5625,-0.29687 -0.32813,-0.15625 -0.78125,-0.29688 -0.45313,-0.14062 -1.07813,-0.14062 -0.54687,0 -0.98437,0.14062 -0.42188,0.14063 -0.73438,0.375 -0.29687,0.23438 -0.46875,0.5625 -0.15625,0.3125 -0.15625,0.6875 0,0.46875 0.26563,0.78125 0.28125,0.3125 0.71875,0.54688 0.45312,0.21875 1.01562,0.39062 0.5625,0.17188 1.15625,0.375 0.59375,0.1875 1.15625,0.4375 0.5625,0.23438 1,0.59375 0.45313,0.35938 0.71875,0.89063 0.26563,0.51562 0.26563,1.25 0,0.84375 -0.29688,1.5625 -0.29687,0.70312 -0.89062,1.23437 -0.57813,0.51563 -1.4375,0.8125 -0.84375,0.29688 -1.96875,0.29688 -1.26563,0 -2.29688,-0.40625 -1.03125,-0.42188 -1.75,-1.0625 l 0.5,-0.8125 q 0.0937,-0.15625 0.21875,-0.23438 0.14063,-0.0937 0.35938,-0.0937 0.21875,0 0.45312,0.17188 0.23438,0.15625 0.57813,0.35937 0.34375,0.20313 0.82812,0.375 0.48438,0.17188 1.21875,0.17188 0.625,0 1.09375,-0.15625 0.46875,-0.17188 0.78125,-0.4375 0.3125,-0.28125 0.45313,-0.64063 0.15625,-0.35937 0.15625,-0.76562 0,-0.51563 -0.26563,-0.84375 -0.26562,-0.32813 -0.71875,-0.5625 -0.4375,-0.23438 -1.01562,-0.40625 -0.5625,-0.17188 -1.15625,-0.35938 -0.59375,-0.20312 -1.17188,-0.4375 -0.5625,-0.25 -1.01562,-0.625 -0.4375,-0.375 -0.71875,-0.92187 -0.26563,-0.54688 -0.26563,-1.3125 0,-0.70313 0.28125,-1.34375 0.29688,-0.64063 0.84375,-1.125 0.5625,-0.48438 1.35938,-0.76563 0.8125,-0.29687 1.84375,-0.29687 1.20312,0 2.15625,0.375 0.95312,0.375 1.64062,1.03125 z m 3.44733,10.15625 v -17.67188 h 2.14062 v 7.14063 q 0.78125,-0.82813 1.71875,-1.3125 0.95313,-0.5 2.1875,-0.5 1,0 1.75,0.32812 0.76563,0.32813 1.28125,0.9375 0.51563,0.60938 0.78125,1.46875 0.26563,0.84375 0.26563,1.875 v 7.73438 h -2.14063 v -7.73438 q 0,-1.39062 -0.64062,-2.14062 -0.625,-0.76563 -1.92188,-0.76563 -0.9375,0 -1.76562,0.45313 -0.82813,0.45312 -1.51563,1.23437 v 8.95313 z m 18.26599,-12.34375 q 1.32812,0 2.40625,0.45312 1.07812,0.4375 1.82812,1.25 0.75,0.8125 1.14063,1.96875 0.40625,1.15625 0.40625,2.59375 0,1.4375 -0.40625,2.59375 -0.39063,1.14063 -1.14063,1.96875 -0.75,0.8125 -1.82812,1.25 -1.07813,0.4375 -2.40625,0.4375 -1.32813,0 -2.40625,-0.4375 -1.07813,-0.4375 -1.82813,-1.25 -0.75,-0.82812 -1.17187,-1.96875 -0.40625,-1.15625 -0.40625,-2.59375 0,-1.4375 0.40625,-2.59375 0.42187,-1.15625 1.17187,-1.96875 0.75,-0.8125 1.82813,-1.25 1.07812,-0.45312 2.40625,-0.45312 z m 0,10.84375 q 1.79687,0 2.6875,-1.20313 0.89062,-1.20312 0.89062,-3.375 0,-2.17187 -0.89062,-3.375 -0.89063,-1.21875 -2.6875,-1.21875 -0.90625,0 -1.57813,0.3125 -0.67187,0.3125 -1.125,0.90625 -0.45312,0.57813 -0.67187,1.4375 -0.21875,0.85938 -0.21875,1.9375 0,1.09375 0.21875,1.95313 0.21875,0.84375 0.67187,1.42187 0.45313,0.57813 1.125,0.89063 0.67188,0.3125 1.57813,0.3125 z m 6.84408,-10.65625 h 1.67188 q 0.26562,0 0.4375,0.14062 0.17187,0.125 0.23437,0.29688 l 2.32813,7.82812 q 0.0937,0.4375 0.17187,0.84375 0.0781,0.39063 0.14063,0.79688 0.0937,-0.40625 0.21875,-0.79688 0.125,-0.40625 0.25,-0.84375 l 2.57812,-7.875 q 0.0469,-0.17187 0.20313,-0.29687 0.15625,-0.125 0.375,-0.125 h 0.92187 q 0.25,0 0.40625,0.125 0.15625,0.125 0.20313,0.29687 l 2.51562,7.875 q 0.125,0.42188 0.23438,0.82813 0.10937,0.40625 0.20312,0.8125 0.0469,-0.40625 0.14063,-0.82813 0.10937,-0.4375 0.21875,-0.8125 l 2.375,-7.82812 q 0.0625,-0.1875 0.21875,-0.3125 0.17187,-0.125 0.40625,-0.125 h 1.60937 l -3.9375,12.15625 h -1.70312 q -0.3125,0 -0.42188,-0.40625 l -2.6875,-8.25 q -0.0937,-0.26563 -0.15625,-0.54688 -0.0625,-0.28125 -0.125,-0.5625 -0.0625,0.28125 -0.125,0.5625 -0.0469,0.28125 -0.15625,0.5625 l -2.71875,8.23438 q -0.125,0.40625 -0.48437,0.40625 h -1.60938 z m 33.73493,-2.35938 q -0.10938,0.1875 -0.23438,0.28125 -0.10937,0.0937 -0.29687,0.0937 -0.20313,0 -0.48438,-0.20312 -0.26562,-0.21875 -0.6875,-0.45313 -0.40625,-0.25 -0.98437,-0.45312 -0.57813,-0.20313 -1.40625,-0.20313 -0.78125,0 -1.39063,0.21875 -0.59375,0.20313 -1,0.5625 -0.39062,0.35938 -0.60937,0.84375 -0.20313,0.48438 -0.20313,1.04688 0,0.71875 0.35938,1.20312 0.35937,0.46875 0.9375,0.8125 0.57812,0.32813 1.3125,0.57813 0.75,0.23437 1.51562,0.5 0.78125,0.26562 1.51563,0.59375 0.73437,0.32812 1.3125,0.84375 0.59375,0.5 0.9375,1.23437 0.35937,0.73438 0.35937,1.79688 0,1.125 -0.39062,2.125 -0.375,0.98437 -1.125,1.71875 -0.73438,0.73437 -1.8125,1.15625 -1.0625,0.40625 -2.4375,0.40625 -1.65625,0 -3.03125,-0.59375 -1.375,-0.60938 -2.34375,-1.64063 l 0.67187,-1.10937 q 0.0937,-0.125 0.21875,-0.21875 0.14063,-0.0937 0.3125,-0.0937 0.25,0 0.57813,0.28125 0.32812,0.26562 0.8125,0.59375 0.48437,0.3125 1.17187,0.59375 0.6875,0.26562 1.6875,0.26562 0.82813,0 1.46875,-0.23437 0.65625,-0.23438 1.10938,-0.64063 0.45312,-0.42187 0.6875,-0.98437 0.23437,-0.57813 0.23437,-1.29688 0,-0.76562 -0.35937,-1.26562 -0.34375,-0.5 -0.92188,-0.82813 -0.57812,-0.34375 -1.3125,-0.57812 -0.73437,-0.23438 -1.51562,-0.48438 -0.76563,-0.25 -1.51563,-0.5625 -0.73437,-0.32812 -1.3125,-0.84375 -0.57812,-0.51562 -0.9375,-1.28125 -0.34375,-0.78125 -0.34375,-1.92187 0,-0.92188 0.34375,-1.76563 0.35938,-0.85937 1.03125,-1.51562 0.67188,-0.65625 1.65625,-1.04688 1,-0.40625 2.28125,-0.40625 1.45313,0 2.64063,0.46875 1.1875,0.45313 2.0625,1.3125 z m 3.57947,14.51563 v -17.67188 h 2.14062 v 7.14063 q 0.78125,-0.82813 1.71875,-1.3125 0.95313,-0.5 2.1875,-0.5 1,0 1.75,0.32812 0.76563,0.32813 1.28125,0.9375 0.51563,0.60938 0.78125,1.46875 0.26563,0.84375 0.26563,1.875 v 7.73438 h -2.14063 v -7.73438 q 0,-1.39062 -0.64062,-2.14062 -0.625,-0.76563 -1.92188,-0.76563 -0.9375,0 -1.76562,0.45313 -0.82813,0.45312 -1.51563,1.23437 v 8.95313 z m 18.26596,-12.34375 q 1.32812,0 2.40625,0.45312 1.07812,0.4375 1.82812,1.25 0.75,0.8125 1.14063,1.96875 0.40625,1.15625 0.40625,2.59375 0,1.4375 -0.40625,2.59375 -0.39063,1.14063 -1.14063,1.96875 -0.75,0.8125 -1.82812,1.25 -1.07813,0.4375 -2.40625,0.4375 -1.32813,0 -2.40625,-0.4375 -1.07813,-0.4375 -1.82813,-1.25 -0.75,-0.82812 -1.17187,-1.96875 -0.40625,-1.15625 -0.40625,-2.59375 0,-1.4375 0.40625,-2.59375 0.42187,-1.15625 1.17187,-1.96875 0.75,-0.8125 1.82813,-1.25 1.07812,-0.45312 2.40625,-0.45312 z m 0,10.84375 q 1.79687,0 2.6875,-1.20313 0.89062,-1.20312 0.89062,-3.375 0,-2.17187 -0.89062,-3.375 -0.89063,-1.21875 -2.6875,-1.21875 -0.90625,0 -1.57813,0.3125 -0.67187,0.3125 -1.125,0.90625 -0.45312,0.57813 -0.67187,1.4375 -0.21875,0.85938 -0.21875,1.9375 0,1.09375 0.21875,1.95313 0.21875,0.84375 0.67187,1.42187 0.45313,0.57813 1.125,0.89063 0.67188,0.3125 1.57813,0.3125 z m 6.84411,-10.65625 h 1.67188 q 0.26562,0 0.4375,0.14062 0.17187,0.125 0.23437,0.29688 l 2.32813,7.82812 q 0.0937,0.4375 0.17187,0.84375 0.0781,0.39063 0.14063,0.79688 0.0937,-0.40625 0.21875,-0.79688 0.125,-0.40625 0.25,-0.84375 l 2.57812,-7.875 q 0.0469,-0.17187 0.20313,-0.29687 0.15625,-0.125 0.375,-0.125 h 0.92187 q 0.25,0 0.40625,0.125 0.15625,0.125 0.20313,0.29687 l 2.51562,7.875 q 0.125,0.42188 0.23438,0.82813 0.10937,0.40625 0.20312,0.8125 0.0469,-0.40625 0.14063,-0.82813 0.10937,-0.4375 0.21875,-0.8125 l 2.375,-7.82812 q 0.0625,-0.1875 0.21875,-0.3125 0.17187,-0.125 0.40625,-0.125 h 1.60937 l -3.9375,12.15625 h -1.70312 q -0.3125,0 -0.42188,-0.40625 l -2.6875,-8.25 q -0.0937,-0.26563 -0.15625,-0.54688 -0.0625,-0.28125 -0.125,-0.5625 -0.0625,0.28125 -0.125,0.5625 -0.0469,0.28125 -0.15625,0.5625 l -2.71875,8.23438 q -0.125,0.40625 -0.48437,0.40625 h -1.60938 z" />
  <path
     style="fill:#ffffff;fill-rule:nonzero"
     inkscape:connector-curvature="0"
     id="path39"
     d="m 249.97594,197.82597 q -0.15625,0.26562 -0.45312,0.26562 -0.17188,0 -0.40625,-0.125 -0.23438,-0.14062 -0.5625,-0.29687 -0.32813,-0.15625 -0.78125,-0.29688 -0.45313,-0.14062 -1.07813,-0.14062 -0.54687,0 -0.98437,0.14062 -0.42188,0.14063 -0.73438,0.375 -0.29687,0.23438 -0.46875,0.5625 -0.15625,0.3125 -0.15625,0.6875 0,0.46875 0.26563,0.78125 0.28125,0.3125 0.71875,0.54688 0.45312,0.21875 1.01562,0.39062 0.5625,0.17188 1.15625,0.375 0.59375,0.1875 1.15625,0.4375 0.5625,0.23438 1,0.59375 0.45313,0.35938 0.71875,0.89063 0.26563,0.51562 0.26563,1.25 0,0.84375 -0.29688,1.56252 -0.29687,0.70312 -0.89062,1.23437 -0.57813,0.51563 -1.4375,0.8125 -0.84375,0.29688 -1.96875,0.29688 -1.26563,0 -2.29688,-0.40625 -1.03125,-0.42188 -1.75,-1.0625 l 0.5,-0.8125 q 0.0937,-0.15625 0.21875,-0.23438 0.14063,-0.0937 0.35938,-0.0937 0.21875,0 0.45312,0.17188 0.23438,0.15625 0.57813,0.35937 0.34375,0.20313 0.82812,0.375 0.48438,0.17188 1.21875,0.17188 0.625,0 1.09375,-0.15625 0.46875,-0.17188 0.78125,-0.4375 0.3125,-0.28125 0.45313,-0.64064 0.15625,-0.35938 0.15625,-0.76563 0,-0.51562 -0.26563,-0.84375 -0.26562,-0.32812 -0.71875,-0.5625 -0.4375,-0.23437 -1.01562,-0.40625 -0.5625,-0.17187 -1.15625,-0.35937 -0.59375,-0.20313 -1.17188,-0.4375 -0.5625,-0.25 -1.01562,-0.625 -0.4375,-0.375 -0.71875,-0.92188 -0.26563,-0.54687 -0.26563,-1.3125 0,-0.70312 0.28125,-1.34375 0.29688,-0.64062 0.84375,-1.125 0.5625,-0.48437 1.35938,-0.76562 0.8125,-0.29688 1.84375,-0.29688 1.20312,0 2.15625,0.375 0.95312,0.375 1.64062,1.03125 z m 3.44733,10.15626 v -17.67188 h 2.14062 v 7.14062 q 0.78125,-0.82812 1.71875,-1.3125 0.95313,-0.5 2.1875,-0.5 1,0 1.75,0.32813 0.76563,0.32812 1.28125,0.9375 0.51563,0.60937 0.78125,1.46875 0.26563,0.84375 0.26563,1.875 v 7.73439 h -2.14063 v -7.73439 q 0,-1.39063 -0.64062,-2.14063 -0.625,-0.76562 -1.92188,-0.76562 -0.9375,0 -1.76562,0.45312 -0.82813,0.45313 -1.51563,1.23438 v 8.95313 z m 18.26599,-12.34376 q 1.32812,0 2.40625,0.45313 1.07812,0.4375 1.82812,1.25 0.75,0.8125 1.14063,1.96875 0.40625,1.15625 0.40625,2.59375 0,1.4375 -0.40625,2.59375 -0.39063,1.14064 -1.14063,1.96876 -0.75,0.8125 -1.82812,1.25 -1.07813,0.4375 -2.40625,0.4375 -1.32813,0 -2.40625,-0.4375 -1.07813,-0.4375 -1.82813,-1.25 -0.75,-0.82812 -1.17187,-1.96876 -0.40625,-1.15625 -0.40625,-2.59375 0,-1.4375 0.40625,-2.59375 0.42187,-1.15625 1.17187,-1.96875 0.75,-0.8125 1.82813,-1.25 1.07812,-0.45313 2.40625,-0.45313 z m 0,10.84376 q 1.79687,0 2.6875,-1.20314 0.89062,-1.20312 0.89062,-3.375 0,-2.17187 -0.89062,-3.375 -0.89063,-1.21875 -2.6875,-1.21875 -0.90625,0 -1.57813,0.3125 -0.67187,0.3125 -1.125,0.90625 -0.45312,0.57813 -0.67187,1.4375 -0.21875,0.85938 -0.21875,1.9375 0,1.09375 0.21875,1.95313 0.21875,0.84375 0.67187,1.42187 0.45313,0.57814 1.125,0.89064 0.67188,0.3125 1.57813,0.3125 z m 6.84408,-10.65626 h 1.67188 q 0.26562,0 0.4375,0.14063 0.17187,0.125 0.23437,0.29687 l 2.32813,7.82813 q 0.0937,0.4375 0.17187,0.84375 0.0781,0.39062 0.14063,0.79689 0.0937,-0.40627 0.21875,-0.79689 0.125,-0.40625 0.25,-0.84375 l 2.57812,-7.875 q 0.0469,-0.17188 0.20313,-0.29688 0.15625,-0.125 0.375,-0.125 h 0.92187 q 0.25,0 0.40625,0.125 0.15625,0.125 0.20313,0.29688 l 2.51562,7.875 q 0.125,0.42187 0.23438,0.82812 0.10937,0.40625 0.20312,0.81252 0.0469,-0.40627 0.14063,-0.82814 0.10937,-0.4375 0.21875,-0.8125 l 2.375,-7.82813 q 0.0625,-0.1875 0.21875,-0.3125 0.17187,-0.125 0.40625,-0.125 h 1.60937 l -3.9375,12.15627 h -1.70312 q -0.3125,0 -0.42188,-0.40625 l -2.6875,-8.25002 q -0.0937,-0.26562 -0.15625,-0.54687 -0.0625,-0.28125 -0.125,-0.5625 -0.0625,0.28125 -0.125,0.5625 -0.0469,0.28125 -0.15625,0.5625 l -2.71875,8.23439 q -0.125,0.40625 -0.48437,0.40625 h -1.60938 z m 19.27475,10.84376 q 0,-0.3125 0.10938,-0.59375 0.10937,-0.28125 0.3125,-0.48437 0.20312,-0.20314 0.46875,-0.31252 0.28125,-0.125 0.59375,-0.125 0.3125,0 0.57812,0.125 0.28125,0.10938 0.48438,0.31252 0.20312,0.20312 0.3125,0.48437 0.125,0.28125 0.125,0.59375 0,0.3125 -0.125,0.59375 -0.10938,0.26563 -0.3125,0.46875 -0.20313,0.20313 -0.48438,0.3125 -0.26562,0.125 -0.57812,0.125 -0.3125,0 -0.59375,-0.125 -0.26563,-0.10937 -0.46875,-0.3125 -0.20313,-0.20312 -0.3125,-0.46875 -0.10938,-0.28125 -0.10938,-0.59375 z m 22.08805,-7.28126 q 0,1.9375 -0.60938,3.54687 -0.60937,1.60938 -1.73437,2.78127 -1.10938,1.15625 -2.6875,1.8125 -1.5625,0.64062 -3.45313,0.64062 -1.89062,0 -3.45312,-0.64062 -1.5625,-0.65625 -2.6875,-1.8125 -1.10938,-1.17189 -1.71875,-2.78127 -0.60938,-1.60937 -0.60938,-3.54687 0,-1.9375 0.60938,-3.54688 0.60937,-1.60937 1.71875,-2.78125 1.125,-1.17187 2.6875,-1.8125 1.5625,-0.65625 3.45312,-0.65625 1.89063,0 3.45313,0.65625 1.57812,0.64063 2.6875,1.8125 1.125,1.17188 1.73437,2.78125 0.60938,1.60938 0.60938,3.54688 z m -2.39063,0 q 0,-1.57813 -0.4375,-2.84375 -0.42187,-1.26563 -1.21875,-2.125 -0.79687,-0.875 -1.92187,-1.34375 -1.125,-0.46875 -2.51563,-0.46875 -1.375,0 -2.51562,0.46875 -1.125,0.46875 -1.92188,1.34375 -0.79687,0.85937 -1.23437,2.125 -0.42188,1.26562 -0.42188,2.84375 0,1.57812 0.42188,2.84375 0.4375,1.25 1.23437,2.125 0.79688,0.85937 1.92188,1.32814 1.14062,0.45312 2.51562,0.45312 1.39063,0 2.51563,-0.45312 1.125,-0.46877 1.92187,-1.32814 0.79688,-0.875 1.21875,-2.125 0.4375,-1.26563 0.4375,-2.84375 z m 5.30838,8.59376 v -17.67189 h 2.14063 v 7.26563 q 0.76562,-0.875 1.73437,-1.40625 0.98438,-0.53125 2.23438,-0.53125 1.0625,0 1.90625,0.39062 0.85937,0.39063 1.45312,1.1875 0.60938,0.78125 0.92188,1.9375 0.32812,1.15625 0.32812,2.67188 0,1.34375 -0.35937,2.5 -0.35938,1.15625 -1.04688,2.01564 -0.67187,0.84375 -1.65625,1.32812 -0.96875,0.48438 -2.1875,0.48438 -1.17187,0 -2,-0.45313 -0.82812,-0.46875 -1.4375,-1.28125 l -0.10937,1.10938 q -0.0937,0.45312 -0.54688,0.45312 z m 5.42188,-10.64064 q -1.04688,0 -1.84375,0.48438 -0.78125,0.46875 -1.4375,1.34375 v 5.89062 q 0.57812,0.78127 1.28125,1.10939 0.70312,0.32813 1.5625,0.32813 1.70312,0 2.60937,-1.20314 0.92188,-1.21875 0.92188,-3.46875 0,-1.1875 -0.21875,-2.03125 -0.20313,-0.85938 -0.60938,-1.40625 -0.39062,-0.54688 -0.96875,-0.79688 -0.5625,-0.25 -1.29687,-0.25 z m 10.2911,-1.51562 v 13.06251 q 0,0.71875 -0.1875,1.34375 -0.1875,0.64063 -0.60937,1.10938 -0.40625,0.46875 -1.0625,0.73437 -0.65625,0.28125 -1.5625,0.28125 -0.40625,0 -0.71875,-0.0625 -0.32813,-0.0625 -0.65625,-0.1875 l 0.0937,-1.15625 q 0.0312,-0.15625 0.10937,-0.20312 0.0781,-0.0312 0.26563,-0.0312 0.0937,0 0.20312,0 0.10938,0.0156 0.26563,0.0156 0.9375,0 1.32812,-0.4375 0.39063,-0.4375 0.39063,-1.40625 V 195.826 Z m 0.48438,-3.8125 q 0,0.3125 -0.125,0.57812 -0.125,0.26563 -0.34375,0.48438 -0.20313,0.20312 -0.48438,0.32812 -0.26562,0.125 -0.57812,0.125 -0.3125,0 -0.59375,-0.125 -0.26563,-0.125 -0.48438,-0.32812 -0.20312,-0.21875 -0.32812,-0.48438 -0.10938,-0.26562 -0.10938,-0.57812 0,-0.3125 0.10938,-0.59375 0.125,-0.28125 0.32812,-0.48438 0.21875,-0.21875 0.48438,-0.34375 0.28125,-0.125 0.59375,-0.125 0.3125,0 0.57812,0.125 0.28125,0.125 0.48438,0.34375 0.21875,0.20313 0.34375,0.48438 0.125,0.28125 0.125,0.59375 z m 8.04916,3.625 q 1.09375,0 2.01563,0.375 0.92187,0.35937 1.59375,1.04687 0.67187,0.6875 1.04687,1.70313 0.39063,1.01562 0.39063,2.3125 0,0.5 -0.10938,0.67187 -0.10937,0.15625 -0.40625,0.15625 h -8.09375 q 0.0312,1.15625 0.3125,2.01563 0.28125,0.84375 0.78125,1.42187 0.51563,0.56252 1.20313,0.84377 0.70312,0.28125 1.5625,0.28125 0.8125,0 1.39062,-0.1875 0.57813,-0.1875 1,-0.39063 0.42188,-0.21875 0.70313,-0.40626 0.28125,-0.1875 0.48437,-0.1875 0.26563,0 0.40625,0.20312 l 0.60938,0.78127 q -0.40625,0.48437 -0.95313,0.84375 -0.54687,0.34375 -1.1875,0.57812 -0.625,0.21875 -1.29687,0.32813 -0.67188,0.125 -1.32813,0.125 -1.26562,0 -2.32812,-0.42188 -1.0625,-0.4375 -1.84375,-1.25 -0.76563,-0.82812 -1.20313,-2.03126 -0.42187,-1.21875 -0.42187,-2.79688 0,-1.26562 0.39062,-2.35937 0.39063,-1.10938 1.10938,-1.92188 0.73437,-0.8125 1.79687,-1.26562 1.0625,-0.46875 2.375,-0.46875 z m 0.0469,1.5625 q -1.54688,0 -2.4375,0.90625 -0.89063,0.89062 -1.09375,2.46875 h 6.60937 q 0,-0.73438 -0.20312,-1.35938 -0.20313,-0.625 -0.60938,-1.0625 -0.39062,-0.45312 -0.96875,-0.70312 -0.5625,-0.25 -1.29687,-0.25 z m 16.01358,0.78125 q -0.0937,0.14062 -0.20313,0.21875 -0.0937,0.0625 -0.26562,0.0625 -0.1875,0 -0.40625,-0.14063 -0.20313,-0.15625 -0.53125,-0.32812 -0.3125,-0.1875 -0.78125,-0.34375 -0.45313,-0.15625 -1.125,-0.15625 -0.89063,0 -1.57813,0.32812 -0.6875,0.3125 -1.15625,0.92188 -0.45312,0.59375 -0.6875,1.45312 -0.23437,0.84375 -0.23437,1.90625 0,1.09375 0.25,1.95313 0.26562,0.85937 0.71875,1.45312 0.45312,0.57814 1.10937,0.89064 0.65625,0.29688 1.46875,0.29688 0.78125,0 1.28125,-0.1875 0.5,-0.1875 0.82813,-0.40625 0.34375,-0.23438 0.5625,-0.42189 0.21875,-0.1875 0.4375,-0.1875 0.28125,0 0.40625,0.20312 l 0.59375,0.78127 q -0.78125,0.96875 -1.96875,1.42187 -1.1875,0.45313 -2.51563,0.45313 -1.14062,0 -2.125,-0.42188 -0.96875,-0.42187 -1.6875,-1.21875 -0.71875,-0.79687 -1.14062,-1.95314 -0.40625,-1.17187 -0.40625,-2.65625 0,-1.35937 0.375,-2.51562 0.375,-1.15625 1.09375,-1.98438 0.73437,-0.82812 1.79687,-1.29687 1.07813,-0.46875 2.45313,-0.46875 1.28125,0 2.26562,0.42187 0.98438,0.40625 1.73438,1.15625 z m 6.59872,10.18751 q -1.4375,0 -2.21875,-0.79687 -0.76562,-0.8125 -0.76562,-2.31252 v -7.45312 h -1.46875 q -0.1875,0 -0.32813,-0.10938 -0.125,-0.10937 -0.125,-0.35937 v -0.84375 l 1.98438,-0.25 0.5,-3.76563 q 0.0156,-0.17187 0.14062,-0.28125 0.14063,-0.125 0.34375,-0.125 h 1.07813 v 4.1875 h 3.48437 v 1.54688 h -3.48437 v 7.29687 q 0,0.78127 0.375,1.15627 0.375,0.35937 0.96875,0.35937 0.32812,0 0.57812,-0.0781 0.25,-0.0937 0.42188,-0.20313 0.1875,-0.10937 0.3125,-0.20312 0.125,-0.0937 0.21875,-0.0937 0.17187,0 0.29687,0.20312 l 0.625,1.03125 q -0.54687,0.51563 -1.32812,0.8125 -0.78125,0.28125 -1.60938,0.28125 z m 9.94345,-7.07814 h 10.3125 v 1.625 h -10.3125 z m 0,-4.01562 h 10.3125 v 1.625 h -10.3125 z m 25.47403,0.75 q -0.15625,0.26562 -0.45312,0.26562 -0.17188,0 -0.40625,-0.125 -0.23438,-0.14062 -0.5625,-0.29687 -0.32813,-0.15625 -0.78125,-0.29688 -0.45313,-0.14062 -1.07813,-0.14062 -0.54687,0 -0.98437,0.14062 -0.42188,0.14063 -0.73438,0.375 -0.29687,0.23438 -0.46875,0.5625 -0.15625,0.3125 -0.15625,0.6875 0,0.46875 0.26563,0.78125 0.28125,0.3125 0.71875,0.54688 0.45312,0.21875 1.01562,0.39062 0.5625,0.17188 1.15625,0.375 0.59375,0.1875 1.15625,0.4375 0.5625,0.23438 1,0.59375 0.45313,0.35938 0.71875,0.89063 0.26563,0.51562 0.26563,1.25 0,0.84375 -0.29688,1.56251 -0.29687,0.70313 -0.89062,1.23438 -0.57813,0.51562 -1.4375,0.8125 -0.84375,0.29687 -1.96875,0.29687 -1.26563,0 -2.29688,-0.40625 -1.03125,-0.42187 -1.75,-1.0625 l 0.5,-0.8125 q 0.0937,-0.15625 0.21875,-0.23437 0.14063,-0.0937 0.35938,-0.0937 0.21875,0 0.45312,0.17187 0.23438,0.15625 0.57813,0.35938 0.34375,0.20312 0.82812,0.375 0.48438,0.17187 1.21875,0.17187 0.625,0 1.09375,-0.15625 0.46875,-0.17187 0.78125,-0.4375 0.3125,-0.28125 0.45313,-0.64064 0.15625,-0.35937 0.15625,-0.76562 0,-0.51563 -0.26563,-0.84375 -0.26562,-0.32813 -0.71875,-0.5625 -0.4375,-0.23438 -1.01562,-0.40625 -0.5625,-0.17188 -1.15625,-0.35938 -0.59375,-0.20312 -1.17188,-0.4375 -0.5625,-0.25 -1.01562,-0.625 -0.4375,-0.375 -0.71875,-0.92187 -0.26563,-0.54688 -0.26563,-1.3125 0,-0.70313 0.28125,-1.34375 0.29688,-0.64063 0.84375,-1.125 0.5625,-0.48438 1.35938,-0.76563 0.8125,-0.29687 1.84375,-0.29687 1.20312,0 2.15625,0.375 0.95312,0.375 1.64062,1.03125 z m 8.25983,-2.1875 q 1.09375,0 2.01562,0.375 0.92188,0.35937 1.59375,1.04687 0.67188,0.6875 1.04688,1.70313 0.39062,1.01562 0.39062,2.3125 0,0.5 -0.10937,0.67187 -0.10938,0.15625 -0.40625,0.15625 h -8.09375 q 0.0312,1.15625 0.3125,2.01563 0.28125,0.84375 0.78125,1.42187 0.51562,0.56252 1.20312,0.84377 0.70313,0.28125 1.5625,0.28125 0.8125,0 1.39063,-0.1875 0.57812,-0.1875 1,-0.39063 0.42187,-0.21875 0.70312,-0.40626 0.28125,-0.1875 0.48438,-0.1875 0.26562,0 0.40625,0.20312 l 0.60937,0.78127 q -0.40625,0.48437 -0.95312,0.84375 -0.54688,0.34375 -1.1875,0.57812 -0.625,0.21875 -1.29688,0.32813 -0.67187,0.125 -1.32812,0.125 -1.26563,0 -2.32813,-0.42188 -1.0625,-0.4375 -1.84375,-1.25 -0.76562,-0.82812 -1.20312,-2.03126 -0.42188,-1.21875 -0.42188,-2.79688 0,-1.26562 0.39063,-2.35937 0.39062,-1.10938 1.10937,-1.92188 0.73438,-0.8125 1.79688,-1.26562 1.0625,-0.46875 2.375,-0.46875 z m 0.0469,1.5625 q -1.54687,0 -2.4375,0.90625 -0.89062,0.89062 -1.09375,2.46875 h 6.60938 q 0,-0.73438 -0.20313,-1.35938 -0.20312,-0.625 -0.60937,-1.0625 -0.39063,-0.45312 -0.96875,-0.70312 -0.5625,-0.25 -1.29688,-0.25 z m 12.52921,-1.5625 q 1.09375,0 2.01562,0.375 0.92188,0.35937 1.59375,1.04687 0.67188,0.6875 1.04688,1.70313 0.39062,1.01562 0.39062,2.3125 0,0.5 -0.10937,0.67187 -0.10938,0.15625 -0.40625,0.15625 h -8.09375 q 0.0312,1.15625 0.3125,2.01563 0.28125,0.84375 0.78125,1.42187 0.51562,0.56252 1.20312,0.84377 0.70313,0.28125 1.5625,0.28125 0.8125,0 1.39063,-0.1875 0.57812,-0.1875 1,-0.39063 0.42187,-0.21875 0.70312,-0.40626 0.28125,-0.1875 0.48438,-0.1875 0.26562,0 0.40625,0.20312 l 0.60937,0.78127 q -0.40625,0.48437 -0.95312,0.84375 -0.54688,0.34375 -1.1875,0.57812 -0.625,0.21875 -1.29688,0.32813 -0.67187,0.125 -1.32812,0.125 -1.26563,0 -2.32813,-0.42188 -1.0625,-0.4375 -1.84375,-1.25 -0.76562,-0.82812 -1.20312,-2.03126 -0.42188,-1.21875 -0.42188,-2.79688 0,-1.26562 0.39063,-2.35937 0.39062,-1.10938 1.10937,-1.92188 0.73438,-0.8125 1.79688,-1.26562 1.0625,-0.46875 2.375,-0.46875 z m 0.0469,1.5625 q -1.54687,0 -2.4375,0.90625 -0.89062,0.89062 -1.09375,2.46875 h 6.60938 q 0,-0.73438 -0.20313,-1.35938 -0.20312,-0.625 -0.60937,-1.0625 -0.39063,-0.45312 -0.96875,-0.70312 -0.5625,-0.25 -1.29688,-0.25 z m 7.02924,9.46876 q 0,-0.3125 0.10938,-0.59375 0.10937,-0.28125 0.3125,-0.48437 0.20312,-0.20314 0.46875,-0.31252 0.28125,-0.125 0.59375,-0.125 0.3125,0 0.57812,0.125 0.28125,0.10938 0.48438,0.31252 0.20312,0.20312 0.3125,0.48437 0.125,0.28125 0.125,0.59375 0,0.3125 -0.125,0.59375 -0.10938,0.26563 -0.3125,0.46875 -0.20313,0.20313 -0.48438,0.3125 -0.26562,0.125 -0.57812,0.125 -0.3125,0 -0.59375,-0.125 -0.26563,-0.10937 -0.46875,-0.3125 -0.20313,-0.20312 -0.3125,-0.46875 -0.10938,-0.28125 -0.10938,-0.59375 z m 14.91617,-13.20314 q -0.10938,0.1875 -0.23438,0.28125 -0.10937,0.0937 -0.29687,0.0937 -0.20313,0 -0.48438,-0.20312 -0.26562,-0.21875 -0.6875,-0.45313 -0.40625,-0.25 -0.98437,-0.45312 -0.57813,-0.20313 -1.40625,-0.20313 -0.78125,0 -1.39063,0.21875 -0.59375,0.20313 -1,0.5625 -0.39062,0.35938 -0.60937,0.84375 -0.20313,0.48438 -0.20313,1.04688 0,0.71875 0.35938,1.20312 0.35937,0.46875 0.9375,0.8125 0.57812,0.32813 1.3125,0.57813 0.75,0.23437 1.51562,0.5 0.78125,0.26562 1.51563,0.59375 0.73437,0.32812 1.3125,0.84375 0.59375,0.5 0.9375,1.23437 0.35937,0.73438 0.35937,1.79688 0,1.125 -0.39062,2.125 -0.375,0.98439 -1.125,1.71876 -0.73438,0.73438 -1.8125,1.15625 -1.0625,0.40625 -2.4375,0.40625 -1.65625,0 -3.03125,-0.59375 -1.375,-0.60937 -2.34375,-1.64062 l 0.67187,-1.10939 q 0.0937,-0.125 0.21875,-0.21875 0.14063,-0.0937 0.3125,-0.0937 0.25,0 0.57813,0.28125 0.32812,0.26562 0.8125,0.59375 0.48437,0.31251 1.17187,0.59376 0.6875,0.26563 1.6875,0.26563 0.82813,0 1.46875,-0.23438 0.65625,-0.23437 1.10938,-0.64064 0.45312,-0.42187 0.6875,-0.98437 0.23437,-0.57813 0.23437,-1.29688 0,-0.76562 -0.35937,-1.26562 -0.34375,-0.5 -0.92188,-0.82813 -0.57812,-0.34375 -1.3125,-0.57812 -0.73437,-0.23438 -1.51562,-0.48438 -0.76563,-0.25 -1.51563,-0.5625 -0.73437,-0.32812 -1.3125,-0.84375 -0.57812,-0.51562 -0.9375,-1.28125 -0.34375,-0.78125 -0.34375,-1.92187 0,-0.92188 0.34375,-1.76563 0.35938,-0.85937 1.03125,-1.51562 0.67188,-0.65625 1.65625,-1.04688 1,-0.40625 2.28125,-0.40625 1.45313,0 2.64063,0.46875 1.1875,0.45313 2.0625,1.3125 z m 5.42322,2.35938 v 7.75 q 0,1.375 0.64062,2.14064 0.64063,0.75 1.92188,0.75 0.9375,0 1.76562,-0.4375 0.82813,-0.45313 1.51563,-1.23439 v -8.96875 h 2.14062 v 12.15626 h -1.26562 q -0.45313,0 -0.57813,-0.4375 l -0.17187,-1.3125 q -0.79688,0.875 -1.78125,1.40625 -0.98438,0.53125 -2.25,0.53125 -1,0 -1.76563,-0.32812 -0.75,-0.32813 -1.26562,-0.92188 -0.51563,-0.60937 -0.78125,-1.45314 -0.25,-0.85937 -0.25,-1.89062 v -7.75 z m 11.57846,12.15626 v -17.67189 h 2.14062 v 7.26563 q 0.76563,-0.875 1.73438,-1.40625 0.98437,-0.53125 2.23437,-0.53125 1.0625,0 1.90625,0.39062 0.85938,0.39063 1.45313,1.1875 0.60937,0.78125 0.92187,1.9375 0.32813,1.15625 0.32813,2.67188 0,1.34375 -0.35938,2.5 -0.35937,1.15625 -1.04687,2.01564 -0.67188,0.84375 -1.65625,1.32812 -0.96875,0.48438 -2.1875,0.48438 -1.17188,0 -2,-0.45313 -0.82813,-0.46875 -1.4375,-1.28125 l -0.10938,1.10938 q -0.0937,0.45312 -0.54687,0.45312 z m 5.42187,-10.64064 q -1.04687,0 -1.84375,0.48438 -0.78125,0.46875 -1.4375,1.34375 v 5.89062 q 0.57813,0.78127 1.28125,1.10939 0.70313,0.32813 1.5625,0.32813 1.70313,0 2.60938,-1.20314 0.92187,-1.21875 0.92187,-3.46875 0,-1.1875 -0.21875,-2.03125 -0.20312,-0.85938 -0.60937,-1.40625 -0.39063,-0.54688 -0.96875,-0.79688 -0.5625,-0.25 -1.29688,-0.25 z M 480.68,195.82597 v 13.06251 q 0,0.71875 -0.1875,1.34375 -0.1875,0.64063 -0.60938,1.10938 -0.40625,0.46875 -1.0625,0.73437 -0.65625,0.28125 -1.5625,0.28125 -0.40625,0 -0.71875,-0.0625 -0.32812,-0.0625 -0.65625,-0.1875 l 0.0937,-1.15625 q 0.0312,-0.15625 0.10938,-0.20312 0.0781,-0.0312 0.26562,-0.0312 0.0937,0 0.20313,0 0.10937,0.0156 0.26562,0.0156 0.9375,0 1.32813,-0.4375 0.39062,-0.4375 0.39062,-1.40625 V 195.826 Z m 0.48437,-3.8125 q 0,0.3125 -0.125,0.57812 -0.125,0.26563 -0.34375,0.48438 -0.20312,0.20312 -0.48437,0.32812 -0.26563,0.125 -0.57813,0.125 -0.3125,0 -0.59375,-0.125 -0.26562,-0.125 -0.48437,-0.32812 -0.20313,-0.21875 -0.32813,-0.48438 -0.10937,-0.26562 -0.10937,-0.57812 0,-0.3125 0.10937,-0.59375 0.125,-0.28125 0.32813,-0.48438 0.21875,-0.21875 0.48437,-0.34375 0.28125,-0.125 0.59375,-0.125 0.3125,0 0.57813,0.125 0.28125,0.125 0.48437,0.34375 0.21875,0.20313 0.34375,0.48438 0.125,0.28125 0.125,0.59375 z m 8.04914,3.625 q 1.09375,0 2.01562,0.375 0.92188,0.35937 1.59375,1.04687 0.67188,0.6875 1.04688,1.70313 0.39062,1.01562 0.39062,2.3125 0,0.5 -0.10937,0.67187 -0.10938,0.15625 -0.40625,0.15625 h -8.09375 q 0.0312,1.15625 0.3125,2.01563 0.28125,0.84375 0.78125,1.42187 0.51562,0.56252 1.20312,0.84377 0.70313,0.28125 1.5625,0.28125 0.8125,0 1.39063,-0.1875 0.57812,-0.1875 1,-0.39063 0.42187,-0.21875 0.70312,-0.40626 0.28125,-0.1875 0.48438,-0.1875 0.26562,0 0.40625,0.20312 l 0.60937,0.78127 q -0.40625,0.48437 -0.95312,0.84375 -0.54688,0.34375 -1.1875,0.57812 -0.625,0.21875 -1.29688,0.32813 -0.67187,0.125 -1.32812,0.125 -1.26563,0 -2.32813,-0.42188 -1.0625,-0.4375 -1.84375,-1.25 -0.76562,-0.82812 -1.20312,-2.03126 -0.42188,-1.21875 -0.42188,-2.79688 0,-1.26562 0.39063,-2.35937 0.39062,-1.10938 1.10937,-1.92188 0.73438,-0.8125 1.79688,-1.26562 1.0625,-0.46875 2.375,-0.46875 z m 0.0469,1.5625 q -1.54687,0 -2.4375,0.90625 -0.89062,0.89062 -1.09375,2.46875 h 6.60938 q 0,-0.73438 -0.20313,-1.35938 -0.20312,-0.625 -0.60937,-1.0625 -0.39063,-0.45312 -0.96875,-0.70312 -0.5625,-0.25 -1.29688,-0.25 z m 16.01361,0.78125 q -0.0937,0.14062 -0.20312,0.21875 -0.0937,0.0625 -0.26563,0.0625 -0.1875,0 -0.40625,-0.14063 -0.20312,-0.15625 -0.53125,-0.32812 -0.3125,-0.1875 -0.78125,-0.34375 -0.45312,-0.15625 -1.125,-0.15625 -0.89062,0 -1.57812,0.32812 -0.6875,0.3125 -1.15625,0.92188 -0.45313,0.59375 -0.6875,1.45312 -0.23438,0.84375 -0.23438,1.90625 0,1.09375 0.25,1.95313 0.26563,0.85937 0.71875,1.45312 0.45313,0.57814 1.10938,0.89064 0.65625,0.29688 1.46875,0.29688 0.78125,0 1.28125,-0.1875 0.5,-0.1875 0.82812,-0.40625 0.34375,-0.23438 0.5625,-0.42189 0.21875,-0.1875 0.4375,-0.1875 0.28125,0 0.40625,0.20312 l 0.59378,0.78127 q -0.78128,0.96875 -1.96878,1.42187 -1.1875,0.45313 -2.51562,0.45313 -1.14063,0 -2.125,-0.42188 -0.96875,-0.42187 -1.6875,-1.21875 -0.71875,-0.79687 -1.14063,-1.95314 -0.40625,-1.17187 -0.40625,-2.65625 0,-1.35937 0.375,-2.51562 0.375,-1.15625 1.09375,-1.98438 0.73438,-0.82812 1.79688,-1.29687 1.07812,-0.46875 2.45312,-0.46875 1.28125,0 2.26563,0.42187 0.98437,0.40625 1.7344,1.15625 z m 6.59873,10.18751 q -1.4375,0 -2.21875,-0.79687 -0.76563,-0.8125 -0.76563,-2.31252 v -7.45312 h -1.46875 q -0.1875,0 -0.32812,-0.10938 -0.125,-0.10937 -0.125,-0.35937 v -0.84375 l 1.98437,-0.25 0.5,-3.76563 q 0.0156,-0.17187 0.14063,-0.28125 0.14062,-0.125 0.34375,-0.125 h 1.07812 v 4.1875 h 3.48438 v 1.54688 h -3.48438 v 7.29687 q 0,0.78127 0.375,1.15627 0.375,0.35937 0.96875,0.35937 0.32813,0 0.57813,-0.0781 0.25,-0.0937 0.42187,-0.20313 0.1875,-0.10937 0.3125,-0.20312 0.125,-0.0937 0.21875,-0.0937 0.17188,0 0.29688,0.20312 l 0.625,1.03125 q -0.54688,0.51563 -1.32813,0.8125 -0.78125,0.28125 -1.60937,0.28125 z" />
  <path
     style="fill:#ffffff;fill-rule:nonzero"
     inkscape:connector-curvature="0"
     id="path41"
     d="m 198.28844,231.88846 q 0,0.59375 0.0937,1.1875 0.0937,0.57812 0.20312,1.17187 0.125,0.59375 0.21875,1.1875 0.0937,0.59375 0.0937,1.21875 0,0.82813 -0.25,1.51563 -0.25,0.70312 -0.75,1.20312 -0.48437,0.51563 -1.23437,0.79688 -0.73438,0.28125 -1.71875,0.28125 h -0.625 v -0.95313 q 0,-0.25 0.15625,-0.35937 0.17187,-0.10938 0.3125,-0.10938 h 0.25 q 0.92187,0 1.45312,-0.59375 0.53125,-0.59375 0.53125,-1.64062 0,-0.67188 -0.0937,-1.29688 -0.0781,-0.625 -0.1875,-1.21875 -0.0937,-0.59375 -0.1875,-1.17187 -0.0781,-0.59375 -0.0781,-1.20313 0,-0.4375 0.125,-0.8125 0.14062,-0.39062 0.375,-0.70312 0.25,-0.3125 0.57812,-0.53125 0.32813,-0.23438 0.73438,-0.34375 -0.40625,-0.10938 -0.73438,-0.32813 -0.32812,-0.21875 -0.57812,-0.51562 -0.23438,-0.3125 -0.375,-0.70313 -0.125,-0.39062 -0.125,-0.84375 0,-0.60937 0.0781,-1.1875 0.0937,-0.59375 0.1875,-1.1875 0.10938,-0.59375 0.1875,-1.21875 0.0937,-0.625 0.0937,-1.29687 0,-1.03125 -0.53125,-1.625 -0.53125,-0.60938 -1.45312,-0.60938 h -0.25 q -0.14063,0 -0.3125,-0.10937 -0.15625,-0.10938 -0.15625,-0.35938 v -0.9375 h 0.625 q 0.98437,0 1.71875,0.28125 0.75,0.26563 1.23437,0.76563 0.5,0.5 0.75,1.20312 0.25,0.70313 0.25,1.53125 0,0.625 -0.0937,1.21875 -0.0937,0.59375 -0.21875,1.1875 -0.10937,0.59375 -0.20312,1.1875 -0.0937,0.57813 -0.0937,1.17188 0,0.76562 0.42187,1.25 0.42188,0.48437 1.21875,0.48437 v 1.28125 q -0.79687,0 -1.21875,0.48438 -0.42187,0.48437 -0.42187,1.25 z" />
  <path
     style="fill:#6d9eeb;fill-rule:nonzero"
     inkscape:connector-curvature="0"
     id="path43"
     d="M 87.708637,330.74011 H 179.0026 v 0 h 39.12599 26.08398 v 6.07352 l 107.81555,-1.63245 -107.81555,10.74268 v 21.2572 H 218.12859 179.0026 v 0 H 87.708637 v -21.2572 -9.11023 0 z" />
  <path
     style="fill:#ffffff;fill-rule:nonzero"
     inkscape:connector-curvature="0"
     id="path45"
     d="m 144.14792,344.39621 q -0.0781,0.14062 -0.1875,0.21875 -0.0937,0.0625 -0.23438,0.0625 -0.17187,0 -0.39062,-0.15625 -0.20313,-0.17188 -0.53125,-0.35938 -0.32813,-0.1875 -0.79688,-0.34375 -0.45312,-0.17187 -1.10937,-0.17187 -0.60938,0 -1.09375,0.17187 -0.46875,0.15625 -0.79688,0.45313 -0.3125,0.28125 -0.48437,0.67187 -0.15625,0.375 -0.15625,0.8125 0,0.57813 0.28125,0.95313 0.28125,0.375 0.73437,0.64062 0.46875,0.26563 1.04688,0.46875 0.59375,0.1875 1.20312,0.40625 0.60938,0.20313 1.1875,0.46875 0.59375,0.25 1.04688,0.65625 0.46875,0.39063 0.75,0.96875 0.28125,0.57813 0.28125,1.4375 0,0.89063 -0.3125,1.67188 -0.29688,0.78125 -0.89063,1.35937 -0.57812,0.57813 -1.42187,0.92188 -0.84375,0.32812 -1.9375,0.32812 -1.3125,0 -2.40625,-0.48437 -1.07813,-0.48438 -1.85938,-1.29688 l 0.53125,-0.875 q 0.0781,-0.10937 0.1875,-0.17187 0.10938,-0.0781 0.25,-0.0781 0.1875,0 0.4375,0.21875 0.26563,0.21875 0.65625,0.46875 0.39063,0.25 0.92188,0.46875 0.54687,0.21875 1.34375,0.21875 0.65625,0 1.17187,-0.17187 0.51563,-0.1875 0.85938,-0.51563 0.35937,-0.32812 0.54687,-0.78125 0.1875,-0.46875 0.1875,-1.01562 0,-0.625 -0.28125,-1.01563 -0.26562,-0.39062 -0.73437,-0.65625 -0.45313,-0.26562 -1.04688,-0.45312 -0.57812,-0.1875 -1.1875,-0.375 -0.60937,-0.20313 -1.20312,-0.45313 -0.57813,-0.26562 -1.03125,-0.67187 -0.45313,-0.40625 -0.73438,-1.01563 -0.28125,-0.625 -0.28125,-1.51562 0,-0.73438 0.28125,-1.40625 0.28125,-0.67188 0.8125,-1.1875 0.53125,-0.53125 1.3125,-0.84375 0.78125,-0.3125 1.79688,-0.3125 1.14062,0 2.07812,0.35937 0.95313,0.35938 1.65625,1.04688 z m 4.10657,1.85937 v 6.14063 q 0,1.09375 0.5,1.6875 0.51562,0.59375 1.53125,0.59375 0.73437,0 1.39062,-0.34375 0.65625,-0.35938 1.20313,-0.98438 v -7.09375 h 1.70312 v 9.625 h -1.01562 q -0.35938,0 -0.45313,-0.34375 l -0.125,-1.04687 q -0.64062,0.70312 -1.42187,1.125 -0.76563,0.42187 -1.78125,0.42187 -0.78125,0 -1.39063,-0.26562 -0.59375,-0.26563 -1.01562,-0.73438 -0.40625,-0.48437 -0.60938,-1.15625 -0.20312,-0.67187 -0.20312,-1.48437 v -6.14063 z m 8.96663,9.625 v -14 h 1.70312 v 5.76563 q 0.60938,-0.70313 1.375,-1.125 0.78125,-0.42188 1.76563,-0.42188 0.84375,0 1.51562,0.3125 0.67188,0.3125 1.14063,0.9375 0.48437,0.625 0.73437,1.54688 0.26563,0.90625 0.26563,2.10937 0,1.0625 -0.29688,1.98438 -0.28125,0.92187 -0.8125,1.59375 -0.53125,0.65625 -1.3125,1.04687 -0.76562,0.39063 -1.73437,0.39063 -0.9375,0 -1.59375,-0.35938 -0.64063,-0.375 -1.125,-1.01562 l -0.0937,0.875 q -0.0781,0.35937 -0.4375,0.35937 z m 4.29687,-8.42187 q -0.82812,0 -1.45312,0.375 -0.60938,0.375 -1.14063,1.07812 v 4.65625 q 0.45313,0.625 1.01563,0.89063 0.5625,0.25 1.23437,0.25 1.35938,0 2.07813,-0.95313 0.71875,-0.96875 0.71875,-2.75 0,-0.9375 -0.17188,-1.60937 -0.15625,-0.67188 -0.46875,-1.10938 -0.3125,-0.4375 -0.78125,-0.625 -0.45312,-0.20312 -1.03125,-0.20312 z m 7.9601,-1.20313 v 10.34375 q 0,0.57813 -0.15625,1.07813 -0.14063,0.5 -0.46875,0.85937 -0.32813,0.375 -0.85938,0.57813 -0.51562,0.21875 -1.23437,0.21875 -0.3125,0 -0.5625,-0.0469 -0.26563,-0.0469 -0.51563,-0.14062 l 0.0781,-0.90625 q 0.0156,-0.125 0.0937,-0.15625 0.0625,-0.0312 0.20312,-0.0312 0.0781,0 0.15625,0 0.0781,0 0.20313,0 0.75,0 1.0625,-0.34375 0.3125,-0.34375 0.3125,-1.10938 v -10.34375 z m 0.375,-3.01562 q 0,0.25 -0.0937,0.46875 -0.0937,0.20312 -0.26563,0.375 -0.17187,0.15625 -0.39062,0.25 -0.21875,0.0937 -0.45313,0.0937 -0.25,0 -0.46875,-0.0937 -0.21875,-0.0937 -0.39062,-0.25 -0.15625,-0.17188 -0.25,-0.375 -0.0937,-0.21875 -0.0937,-0.46875 0,-0.25 0.0937,-0.46875 0.0937,-0.23438 0.25,-0.39063 0.17187,-0.17187 0.39062,-0.26562 0.21875,-0.0937 0.46875,-0.0937 0.23438,0 0.45313,0.0937 0.21875,0.0937 0.39062,0.26562 0.17188,0.15625 0.26563,0.39063 0.0937,0.21875 0.0937,0.46875 z m 6.30119,2.85937 q 0.85938,0 1.59375,0.29688 0.73438,0.28125 1.26563,0.82812 0.53125,0.54688 0.82812,1.35938 0.29688,0.79687 0.29688,1.82812 0,0.39063 -0.0937,0.53125 -0.0781,0.125 -0.3125,0.125 h -6.40625 q 0.0156,0.92188 0.23437,1.59375 0.23438,0.67188 0.625,1.125 0.40625,0.45313 0.95313,0.67188 0.5625,0.21875 1.25,0.21875 0.64062,0 1.09375,-0.14063 0.45312,-0.14062 0.78125,-0.3125 0.34375,-0.17187 0.5625,-0.3125 0.23437,-0.15625 0.39062,-0.15625 0.20313,0 0.32813,0.15625 l 0.46875,0.625 q -0.3125,0.375 -0.75,0.65625 -0.4375,0.28125 -0.9375,0.46875 -0.5,0.17188 -1.03125,0.26563 -0.53125,0.0937 -1.04688,0.0937 -1,0 -1.84375,-0.34375 -0.84375,-0.34375 -1.45312,-0.98438 -0.60938,-0.65625 -0.95313,-1.60937 -0.34375,-0.96875 -0.34375,-2.20313 0,-1.01562 0.3125,-1.89062 0.3125,-0.875 0.89063,-1.51563 0.57812,-0.64062 1.40625,-1 0.84375,-0.375 1.89062,-0.375 z m 0.0312,1.25 q -1.21875,0 -1.92187,0.71875 -0.70313,0.70313 -0.875,1.95313 h 5.23437 q 0,-0.59375 -0.17187,-1.07813 -0.15625,-0.48437 -0.46875,-0.84375 -0.3125,-0.35937 -0.76563,-0.54687 -0.45312,-0.20313 -1.03125,-0.20313 z m 12.49463,0.625 q -0.0781,0.0937 -0.15625,0.15625 -0.0781,0.0625 -0.21875,0.0625 -0.14062,0 -0.3125,-0.125 -0.15625,-0.125 -0.42187,-0.26562 -0.25,-0.14063 -0.625,-0.25 -0.35938,-0.125 -0.89063,-0.125 -0.70312,0 -1.25,0.25 -0.53125,0.25 -0.90625,0.73437 -0.35937,0.46875 -0.54687,1.14063 -0.1875,0.67187 -0.1875,1.51562 0,0.875 0.20312,1.5625 0.20313,0.67188 0.5625,1.14063 0.35938,0.45312 0.875,0.70312 0.51563,0.23438 1.17188,0.23438 0.60937,0 1,-0.14063 0.40625,-0.15625 0.67187,-0.32812 0.26563,-0.1875 0.4375,-0.32813 0.17188,-0.15625 0.34375,-0.15625 0.21875,0 0.32813,0.15625 l 0.46875,0.625 q -0.625,0.76563 -1.5625,1.125 -0.9375,0.35938 -1.98438,0.35938 -0.90625,0 -1.6875,-0.32813 -0.76562,-0.34375 -1.34375,-0.96875 -0.5625,-0.64062 -0.89062,-1.5625 -0.32813,-0.92187 -0.32813,-2.09375 0,-1.07812 0.29688,-1.98437 0.29687,-0.92188 0.875,-1.57813 0.57812,-0.65625 1.42187,-1.03125 0.84375,-0.375 1.9375,-0.375 1,0 1.78125,0.32813 0.78125,0.32812 1.375,0.9375 z m 5.05622,8.0625 q -1.14063,0 -1.75,-0.64062 -0.60938,-0.64063 -0.60938,-1.82813 v -5.89062 h -1.15625 q -0.15625,0 -0.26562,-0.0937 -0.0937,-0.0937 -0.0937,-0.28125 v -0.67188 l 1.57812,-0.20312 0.39063,-2.96875 q 0.0156,-0.14063 0.10937,-0.23438 0.10938,-0.0937 0.28125,-0.0937 h 0.84375 v 3.3125 h 2.76563 v 1.23438 h -2.76563 v 5.76562 q 0,0.60938 0.29688,0.90625 0.29687,0.29688 0.76562,0.29688 0.26563,0 0.45313,-0.0625 0.20312,-0.0781 0.34375,-0.15625 0.14062,-0.0937 0.23437,-0.15625 0.10938,-0.0781 0.1875,-0.0781 0.125,0 0.23438,0.15625 l 0.48437,0.8125 q -0.4375,0.40625 -1.0625,0.64063 -0.60937,0.23437 -1.26562,0.23437 z" />
  <path
     style="fill:#6d9eeb;fill-rule:nonzero"
     inkscape:connector-curvature="0"
     id="path47"
     d="m 200.25719,409.89105 h 52.04987 v 0 h 22.30709 14.8714 v 6.07349 l 66.75885,-4.7219 -66.75885,13.83213 V 446.332 h -14.8714 -22.30709 v 0 h -52.04987 v -21.25723 -9.11023 0 z" />
  <path
     style="fill:#ffffff;fill-rule:nonzero"
     inkscape:connector-curvature="0"
     id="path49"
     d="m 231.41706,428.23465 q 0,1.53125 -0.48438,2.8125 -0.48437,1.26562 -1.375,2.1875 -0.875,0.92187 -2.125,1.4375 -1.23437,0.5 -2.73437,0.5 -1.5,0 -2.73438,-0.5 -1.23437,-0.51563 -2.125,-1.4375 -0.875,-0.92188 -1.35937,-2.1875 -0.48438,-1.28125 -0.48438,-2.8125 0,-1.53125 0.48438,-2.8125 0.48437,-1.28125 1.35937,-2.20313 0.89063,-0.92187 2.125,-1.4375 1.23438,-0.51562 2.73438,-0.51562 1.5,0 2.73437,0.51562 1.25,0.51563 2.125,1.4375 0.89063,0.92188 1.375,2.20313 0.48438,1.28125 0.48438,2.8125 z m -1.89063,0 q 0,-1.26563 -0.34375,-2.25 -0.34375,-1 -0.96875,-1.6875 -0.625,-0.6875 -1.51562,-1.0625 -0.89063,-0.375 -2,-0.375 -1.09375,0 -1.98438,0.375 -0.89062,0.375 -1.53125,1.0625 -0.625,0.6875 -0.96875,1.6875 -0.34375,0.98437 -0.34375,2.25 0,1.25 0.34375,2.25 0.34375,0.98437 0.96875,1.67187 0.64063,0.6875 1.53125,1.0625 0.89063,0.35938 1.98438,0.35938 1.10937,0 2,-0.35938 0.89062,-0.375 1.51562,-1.0625 0.625,-0.6875 0.96875,-1.67187 0.34375,-1 0.34375,-2.25 z m 3.91895,6.79687 v -14 h 1.70313 v 5.76563 q 0.60937,-0.70313 1.375,-1.125 0.78125,-0.42188 1.76562,-0.42188 0.84375,0 1.51563,0.3125 0.67187,0.3125 1.14062,0.9375 0.48438,0.625 0.73438,1.54688 0.26562,0.90625 0.26562,2.10937 0,1.0625 -0.29687,1.98438 -0.28125,0.92187 -0.8125,1.59375 -0.53125,0.65625 -1.3125,1.04687 -0.76563,0.39063 -1.73438,0.39063 -0.9375,0 -1.59375,-0.35938 -0.64062,-0.375 -1.125,-1.01562 l -0.0937,0.875 q -0.0781,0.35937 -0.4375,0.35937 z m 4.29688,-8.42187 q -0.82813,0 -1.45313,0.375 -0.60937,0.375 -1.14062,1.07812 v 4.65625 q 0.45312,0.625 1.01562,0.89063 0.5625,0.25 1.23438,0.25 1.35937,0 2.07812,-0.95313 0.71875,-0.96875 0.71875,-2.75 0,-0.9375 -0.17187,-1.60937 -0.15625,-0.67188 -0.46875,-1.10938 -0.3125,-0.4375 -0.78125,-0.625 -0.45313,-0.20312 -1.03125,-0.20312 z m 7.96009,-1.20313 v 10.34375 q 0,0.57813 -0.15625,1.07813 -0.14062,0.5 -0.46875,0.85937 -0.32812,0.375 -0.85937,0.57813 -0.51563,0.21875 -1.23438,0.21875 -0.3125,0 -0.5625,-0.0469 -0.26562,-0.0469 -0.51562,-0.14062 l 0.0781,-0.90625 q 0.0156,-0.125 0.0937,-0.15625 0.0625,-0.0312 0.20313,-0.0312 0.0781,0 0.15625,0 0.0781,0 0.20312,0 0.75,0 1.0625,-0.34375 0.3125,-0.34375 0.3125,-1.10938 v -10.34375 z m 0.375,-3.01562 q 0,0.25 -0.0937,0.46875 -0.0937,0.20312 -0.26562,0.375 -0.17188,0.15625 -0.39063,0.25 -0.21875,0.0937 -0.45312,0.0937 -0.25,0 -0.46875,-0.0937 -0.21875,-0.0937 -0.39063,-0.25 -0.15625,-0.17188 -0.25,-0.375 -0.0937,-0.21875 -0.0937,-0.46875 0,-0.25 0.0937,-0.46875 0.0937,-0.23438 0.25,-0.39063 0.17188,-0.17187 0.39063,-0.26562 0.21875,-0.0937 0.46875,-0.0937 0.23437,0 0.45312,0.0937 0.21875,0.0937 0.39063,0.26562 0.17187,0.15625 0.26562,0.39063 0.0937,0.21875 0.0937,0.46875 z m 6.30121,2.85937 q 0.85938,0 1.59375,0.29688 0.73438,0.28125 1.26563,0.82812 0.53125,0.54688 0.82812,1.35938 0.29688,0.79687 0.29688,1.82812 0,0.39063 -0.0937,0.53125 -0.0781,0.125 -0.3125,0.125 h -6.40627 q 0.0156,0.92188 0.23439,1.59375 0.23438,0.67188 0.625,1.125 0.40625,0.45313 0.95313,0.67188 0.5625,0.21875 1.25,0.21875 0.64062,0 1.09375,-0.14063 0.45312,-0.14062 0.78125,-0.3125 0.34375,-0.17187 0.5625,-0.3125 0.23437,-0.15625 0.39062,-0.15625 0.20313,0 0.32813,0.15625 l 0.46875,0.625 q -0.3125,0.375 -0.75,0.65625 -0.4375,0.28125 -0.9375,0.46875 -0.5,0.17188 -1.03125,0.26563 -0.53125,0.0937 -1.04688,0.0937 -1,0 -1.84375,-0.34375 -0.84375,-0.34375 -1.45314,-0.98438 -0.60937,-0.65625 -0.95312,-1.60937 -0.34375,-0.96875 -0.34375,-2.20313 0,-1.01562 0.3125,-1.89062 0.3125,-0.875 0.89062,-1.51563 0.57813,-0.64062 1.40627,-1 0.84375,-0.375 1.89062,-0.375 z m 0.0312,1.25 q -1.21875,0 -1.92187,0.71875 -0.70313,0.70313 -0.87502,1.95313 h 5.23439 q 0,-0.59375 -0.17187,-1.07813 -0.15625,-0.48437 -0.46875,-0.84375 -0.3125,-0.35937 -0.76563,-0.54687 -0.45312,-0.20313 -1.03125,-0.20313 z m 12.49463,0.625 q -0.0781,0.0937 -0.15625,0.15625 -0.0781,0.0625 -0.21875,0.0625 -0.14062,0 -0.3125,-0.125 -0.15625,-0.125 -0.42187,-0.26562 -0.25,-0.14063 -0.625,-0.25 -0.35938,-0.125 -0.89063,-0.125 -0.70312,0 -1.25,0.25 -0.53125,0.25 -0.90625,0.73437 -0.35937,0.46875 -0.54687,1.14063 -0.1875,0.67187 -0.1875,1.51562 0,0.875 0.20312,1.5625 0.20313,0.67188 0.5625,1.14063 0.35938,0.45312 0.875,0.70312 0.51563,0.23438 1.17188,0.23438 0.60937,0 1,-0.14063 0.40625,-0.15625 0.67187,-0.32812 0.26563,-0.1875 0.4375,-0.32813 0.17188,-0.15625 0.34375,-0.15625 0.21875,0 0.32813,0.15625 l 0.46875,0.625 q -0.625,0.76563 -1.5625,1.125 -0.9375,0.35938 -1.98438,0.35938 -0.90625,0 -1.6875,-0.32813 -0.76562,-0.34375 -1.34375,-0.96875 -0.5625,-0.64062 -0.89062,-1.5625 -0.32813,-0.92187 -0.32813,-2.09375 0,-1.07812 0.29688,-1.98437 0.29687,-0.92188 0.875,-1.57813 0.57812,-0.65625 1.42187,-1.03125 0.84375,-0.375 1.9375,-0.375 1,0 1.78125,0.32813 0.78125,0.32812 1.375,0.9375 z m 5.05621,8.0625 q -1.14062,0 -1.75,-0.64062 -0.60937,-0.64063 -0.60937,-1.82813 v -5.89062 h -1.15625 q -0.15625,0 -0.26563,-0.0937 -0.0937,-0.0937 -0.0937,-0.28125 v -0.67188 l 1.57813,-0.20312 0.39062,-2.96875 q 0.0156,-0.14063 0.10938,-0.23438 0.10937,-0.0937 0.28125,-0.0937 h 0.84375 v 3.3125 h 2.76562 v 1.23438 h -2.76562 v 5.76562 q 0,0.60938 0.29687,0.90625 0.29688,0.29688 0.76563,0.29688 0.26562,0 0.45312,-0.0625 0.20313,-0.0781 0.34375,-0.15625 0.14063,-0.0937 0.23438,-0.15625 0.10937,-0.0781 0.1875,-0.0781 0.125,0 0.23437,0.15625 l 0.48438,0.8125 q -0.4375,0.40625 -1.0625,0.64063 -0.60938,0.23437 -1.26563,0.23437 z" />
  <path
     style="fill:#6d9eeb;fill-rule:nonzero"
     inkscape:connector-curvature="0"
     id="path51"
     d="m 348.45144,334.74799 v 0 c 0,-6.27081 5.0835,-11.35431 11.35431,-11.35431 v 0 c 3.01135,0 5.89938,1.19626 8.02872,3.32559 2.12936,2.12937 3.32562,5.01737 3.32562,8.02872 v 0 c 0,6.27084 -5.0835,11.35434 -11.35434,11.35434 v 0 c -6.27081,0 -11.35431,-5.0835 -11.35431,-11.35434 z" />
  <path
     style="fill:#6d9eeb;fill-rule:nonzero"
     inkscape:connector-curvature="0"
     id="path53"
     d="m 349.10235,414.13251 v 0 c 0,-6.27081 5.0835,-11.35431 11.35434,-11.35431 v 0 c 3.01135,0 5.89935,1.19623 8.02872,3.32559 2.12933,2.12937 3.32559,5.01737 3.32559,8.02872 v 0 c 0,6.27084 -5.0835,11.35434 -11.35431,11.35434 v 0 c -6.27084,0 -11.35434,-5.0835 -11.35434,-11.35434 z" />
  <path
     style="fill:#666666;fill-rule:nonzero"
     inkscape:connector-curvature="0"
     id="path65"
     d="m 356.81829,511.76153 q -0.10938,0.23437 -0.26563,0.32812 -0.15625,0.0937 -0.35937,0.0937 -0.21875,0 -0.48438,-0.15625 -0.25,-0.17187 -0.60937,-0.35937 -0.35938,-0.20313 -0.84375,-0.35938 -0.46875,-0.17187 -1.125,-0.17187 -0.59375,0 -1.03125,0.14062 -0.42188,0.14063 -0.73438,0.39063 -0.29687,0.25 -0.4375,0.60937 -0.14062,0.34375 -0.14062,0.76563 0,0.53125 0.29687,0.89062 0.29688,0.35938 0.78125,0.60938 0.5,0.25 1.125,0.45312 0.64063,0.20313 1.29688,0.4375 0.65625,0.21875 1.28125,0.51563 0.625,0.29687 1.10937,0.75 0.5,0.45312 0.79688,1.125 0.3125,0.65625 0.3125,1.60937 0,1.01563 -0.35938,1.92188 -0.34375,0.89062 -1.03125,1.5625 -0.67187,0.67187 -1.65625,1.0625 -0.96875,0.375 -2.23437,0.375 -0.71875,0 -1.42188,-0.14063 -0.70312,-0.14062 -1.35937,-0.40625 -0.64063,-0.26562 -1.20313,-0.625 -0.5625,-0.375 -1,-0.82812 l 0.82813,-1.35938 q 0.10937,-0.14062 0.26562,-0.23437 0.17188,-0.10938 0.375,-0.10938 0.25,0 0.54688,0.21875 0.3125,0.21875 0.71875,0.48438 0.42187,0.25 0.98437,0.46875 0.5625,0.21875 1.35938,0.21875 1.20312,0 1.85937,-0.5625 0.67188,-0.57813 0.67188,-1.65625 0,-0.59375 -0.3125,-0.96875 -0.29688,-0.39063 -0.79688,-0.64063 -0.48437,-0.25 -1.10937,-0.42187 -0.625,-0.1875 -1.28125,-0.39063 -0.65625,-0.21875 -1.28125,-0.51562 -0.625,-0.29688 -1.125,-0.76563 -0.5,-0.46875 -0.79688,-1.17187 -0.29687,-0.71875 -0.29687,-1.76563 0,-0.82812 0.32812,-1.60937 0.34375,-0.78125 0.96875,-1.39063 0.64063,-0.60937 1.5625,-0.96875 0.92188,-0.375 2.10938,-0.375 1.34375,0 2.46875,0.42188 1.14062,0.40625 1.9375,1.17187 z m 3.16119,12.42187 v -15.60937 h 2.59375 v 6 q 0.625,-0.59375 1.375,-0.95313 0.76563,-0.375 1.78125,-0.375 0.875,0 1.5625,0.29688 0.6875,0.29687 1.14063,0.84375 0.45312,0.53125 0.6875,1.28125 0.23437,0.75 0.23437,1.65625 v 6.85937 h -2.59375 v -6.85937 q 0,-0.98438 -0.45312,-1.51563 -0.45313,-0.54687 -1.35938,-0.54687 -0.67187,0 -1.26562,0.3125 -0.59375,0.29687 -1.10938,0.8125 v 7.79687 z m 16.71872,-10.9375 q 1.20313,0 2.1875,0.39063 0.98438,0.39062 1.67188,1.10937 0.70312,0.70313 1.07812,1.73438 0.375,1.03125 0.375,2.29687 0,1.28125 -0.375,2.3125 -0.375,1.03125 -1.07812,1.75 -0.6875,0.71875 -1.67188,1.10938 -0.98437,0.39062 -2.1875,0.39062 -1.20312,0 -2.20312,-0.39062 -0.98438,-0.39063 -1.6875,-1.10938 -0.6875,-0.71875 -1.07813,-1.75 -0.375,-1.03125 -0.375,-2.3125 0,-1.26562 0.375,-2.29687 0.39063,-1.03125 1.07813,-1.73438 0.70312,-0.71875 1.6875,-1.10937 1,-0.39063 2.20312,-0.39063 z m 0,9.09375 q 1.34375,0 1.98438,-0.89062 0.65625,-0.90625 0.65625,-2.65625 0,-1.73438 -0.65625,-2.64063 -0.64063,-0.92187 -1.98438,-0.92187 -1.35937,0 -2.01562,0.92187 -0.65625,0.90625 -0.65625,2.64063 0,1.73437 0.65625,2.64062 0.65625,0.90625 2.01562,0.90625 z m 6.21869,-8.92187 h 2.04688 q 0.29687,0 0.5,0.14062 0.20312,0.125 0.25,0.32813 l 1.54687,5.76562 q 0.125,0.46875 0.20313,0.92188 0.0781,0.45312 0.15625,0.90625 0.10937,-0.45313 0.23437,-0.90625 0.14063,-0.45313 0.28125,-0.92188 l 1.79688,-5.78125 q 0.0625,-0.20312 0.25,-0.34375 0.1875,-0.14062 0.4375,-0.14062 h 1.14062 q 0.28125,0 0.46875,0.14062 0.20313,0.14063 0.26563,0.34375 l 1.75,5.875 q 0.14062,0.45313 0.25,0.89063 0.10937,0.42187 0.21875,0.84375 0.0781,-0.45313 0.15625,-0.89063 0.0937,-0.45312 0.23437,-0.9375 l 1.59375,-5.76562 q 0.0469,-0.20313 0.25,-0.32813 0.20313,-0.14062 0.46875,-0.14062 h 1.95313 l -3.40625,10.76562 h -2.09375 q -0.32813,0 -0.48438,-0.46875 l -1.9375,-6.21875 q -0.0937,-0.3125 -0.17187,-0.60937 -0.0781,-0.3125 -0.125,-0.625 -0.0625,0.3125 -0.14063,0.625 -0.0781,0.3125 -0.17187,0.625 l -1.96875,6.20312 q -0.14063,0.46875 -0.5625,0.46875 h -1.98438 z" />
  <path
     style="fill:#666666;fill-rule:nonzero"
     inkscape:connector-curvature="0"
     id="path69"
     d="m 357.97866,255.7615 q -0.10938,0.23438 -0.26563,0.32813 -0.15625,0.0937 -0.35937,0.0937 -0.21875,0 -0.48438,-0.15625 -0.25,-0.17188 -0.60937,-0.35938 -0.35938,-0.20312 -0.84375,-0.35937 -0.46875,-0.17188 -1.125,-0.17188 -0.59375,0 -1.03125,0.14063 -0.42188,0.14062 -0.73438,0.39062 -0.29687,0.25 -0.4375,0.60938 -0.14062,0.34375 -0.14062,0.76562 0,0.53125 0.29687,0.89063 0.29688,0.35937 0.78125,0.60937 0.5,0.25 1.125,0.45313 0.64063,0.20312 1.29688,0.4375 0.65625,0.21875 1.28125,0.51562 0.625,0.29688 1.10937,0.75 0.5,0.45313 0.79688,1.125 0.3125,0.65625 0.3125,1.60938 0,1.01562 -0.35938,1.92187 -0.34375,0.89063 -1.03125,1.5625 -0.67187,0.67188 -1.65625,1.0625 -0.96875,0.375 -2.23437,0.375 -0.71875,0 -1.42188,-0.14062 -0.70312,-0.14063 -1.35937,-0.40625 -0.64063,-0.26563 -1.20313,-0.625 -0.5625,-0.375 -1,-0.82813 l 0.82813,-1.35937 q 0.10937,-0.14063 0.26562,-0.23438 0.17188,-0.10937 0.375,-0.10937 0.25,0 0.54688,0.21875 0.3125,0.21875 0.71875,0.48437 0.42187,0.25 0.98437,0.46875 0.5625,0.21875 1.35938,0.21875 1.20312,0 1.85937,-0.5625 0.67188,-0.57812 0.67188,-1.65625 0,-0.59375 -0.3125,-0.96875 -0.29688,-0.39062 -0.79688,-0.64062 -0.48437,-0.25 -1.10937,-0.42188 -0.625,-0.1875 -1.28125,-0.39062 -0.65625,-0.21875 -1.28125,-0.51563 -0.625,-0.29687 -1.125,-0.76562 -0.5,-0.46875 -0.79688,-1.17188 -0.29687,-0.71875 -0.29687,-1.76562 0,-0.82813 0.32812,-1.60938 0.34375,-0.78125 0.96875,-1.39062 0.64063,-0.60938 1.5625,-0.96875 0.92188,-0.375 2.10938,-0.375 1.34375,0 2.46875,0.42187 1.14062,0.40625 1.9375,1.17188 z m 7.61432,1.48438 q 1.01562,0 1.85937,0.32812 0.85938,0.3125 1.48438,0.9375 0.625,0.625 0.96875,1.54688 0.34375,0.90625 0.34375,2.0625 0,0.29687 -0.0312,0.5 -0.0156,0.1875 -0.0937,0.29687 -0.0625,0.10938 -0.1875,0.15625 -0.10938,0.0469 -0.28125,0.0469 h -6.65625 q 0.10937,1.65625 0.875,2.4375 0.78125,0.78125 2.0625,0.78125 0.64062,0 1.09375,-0.14063 0.45312,-0.15625 0.79687,-0.32812 0.34375,-0.1875 0.59375,-0.32813 0.26563,-0.15625 0.5,-0.15625 0.15625,0 0.26563,0.0625 0.125,0.0625 0.21875,0.1875 l 0.75,0.9375 q -0.4375,0.5 -0.96875,0.84375 -0.53125,0.34375 -1.125,0.54688 -0.57813,0.20312 -1.1875,0.28125 -0.59375,0.0937 -1.15625,0.0937 -1.125,0 -2.09375,-0.375 -0.96875,-0.375 -1.6875,-1.09375 -0.70313,-0.73438 -1.125,-1.8125 -0.40625,-1.07813 -0.40625,-2.5 0,-1.09375 0.35937,-2.0625 0.35938,-0.96875 1.01563,-1.6875 0.67187,-0.71875 1.625,-1.14063 0.96875,-0.42187 2.1875,-0.42187 z m 0.0469,1.85937 q -1.14062,0 -1.78125,0.64063 -0.64062,0.64062 -0.8125,1.8125 h 4.875 q 0,-0.5 -0.14062,-0.9375 -0.14063,-0.45313 -0.42188,-0.78125 -0.28125,-0.34375 -0.71875,-0.53125 -0.42187,-0.20313 -1,-0.20313 z m 11.35294,-1.85937 q 1.01562,0 1.85937,0.32812 0.85938,0.3125 1.48438,0.9375 0.625,0.625 0.96875,1.54688 0.34375,0.90625 0.34375,2.0625 0,0.29687 -0.0312,0.5 -0.0156,0.1875 -0.0937,0.29687 -0.0625,0.10938 -0.1875,0.15625 -0.10938,0.0469 -0.28125,0.0469 h -6.65625 q 0.10937,1.65625 0.875,2.4375 0.78125,0.78125 2.0625,0.78125 0.64062,0 1.09375,-0.14063 0.45312,-0.15625 0.79687,-0.32812 0.34375,-0.1875 0.59375,-0.32813 0.26563,-0.15625 0.5,-0.15625 0.15625,0 0.26563,0.0625 0.125,0.0625 0.21875,0.1875 l 0.75,0.9375 q -0.4375,0.5 -0.96875,0.84375 -0.53125,0.34375 -1.125,0.54688 -0.57813,0.20312 -1.1875,0.28125 -0.59375,0.0937 -1.15625,0.0937 -1.125,0 -2.09375,-0.375 -0.96875,-0.375 -1.6875,-1.09375 -0.70313,-0.73438 -1.125,-1.8125 -0.40625,-1.07813 -0.40625,-2.5 0,-1.09375 0.35937,-2.0625 0.35938,-0.96875 1.01563,-1.6875 0.67187,-0.71875 1.625,-1.14063 0.96875,-0.42187 2.1875,-0.42187 z m 0.0469,1.85937 q -1.14062,0 -1.78125,0.64063 -0.64062,0.64062 -0.8125,1.8125 h 4.875 q 0,-0.5 -0.14062,-0.9375 -0.14063,-0.45313 -0.42188,-0.78125 -0.28125,-0.34375 -0.71875,-0.53125 -0.42187,-0.20313 -1,-0.20313 z" />
  <path
     style="fill:#666666;fill-rule:nonzero"
     inkscape:connector-curvature="0"
     id="path71"
     d="m 347.13647,300.31233 v 0 c 0,-10.0629 8.05182,-18.22049 17.98425,-18.22049 v 0 c 4.76972,0 9.34409,1.91965 12.7168,5.33667 3.37268,3.41699 5.26746,8.05145 5.26746,12.88382 v 0 c 0,10.06287 -8.05182,18.22046 -17.98426,18.22046 v 0 c -9.93243,0 -17.98425,-8.15759 -17.98425,-18.22046 z" />
  <path
     style="fill:#ffffff;fill-rule:nonzero"
     inkscape:connector-curvature="0"
     id="path75"
     d="m 361.23492,305.93543 h 2.9375 v -9.28125 q 0,-0.40625 0.0312,-0.84375 l -2.4375,2.07812 q -0.0937,0.0781 -0.1875,0.10938 -0.0937,0.0312 -0.1875,0.0312 -0.14063,0 -0.25,-0.0469 -0.10938,-0.0625 -0.17188,-0.15625 l -0.53125,-0.73437 4.04688,-3.5 h 1.375 v 12.34375 h 2.67187 v 1.29687 h -7.29687 z" />
  <path
     style="fill:#666666;fill-rule:nonzero"
     inkscape:connector-curvature="0"
     id="path77"
     d="m 355.13647,452.31233 v 0 c 0,-10.0629 8.05182,-18.22049 17.98425,-18.22049 v 0 c 4.76972,0 9.34409,1.91965 12.7168,5.33667 3.37268,3.41699 5.26746,8.05145 5.26746,12.88382 v 0 c 0,10.06287 -8.05182,18.22046 -17.98426,18.22046 v 0 c -9.93243,0 -17.98425,-8.15759 -17.98425,-18.22046 z"
     inkscape:label="path77" />
  <path
     style="fill:#000000;fill-opacity:0;fill-rule:nonzero"
     inkscape:connector-curvature="0"
     id="path81"
     d="m 339.31752,468.90193 v 0 c 19.37924,-9.7403 40.96637,-14.25043 62.62439,-13.08392" />
  <path
     style="fill-rule:nonzero;stroke:#666666;stroke-width:3;stroke-linecap:butt;stroke-linejoin:round"
     inkscape:connector-curvature="0"
     id="path83"
     d="m 339.31752,468.90193 v 0 c 19.37924,-9.7403 40.96637,-14.25043 62.62439,-13.08392" />
  <path
     style="fill:#666666;fill-rule:nonzero"
     inkscape:connector-curvature="0"
     id="path85"
     d="m 326.39367,467.13383 v 0 c 0,-6.34912 5.08353,-11.49609 11.35434,-11.49609 v 0 c 3.01135,0 5.89938,1.21118 8.02872,3.36712 2.12936,2.15595 3.32562,5.08002 3.32562,8.12897 v 0 c 0,6.34906 -5.08353,11.49603 -11.35434,11.49603 v 0 c -6.27081,0 -11.35434,-5.14697 -11.35434,-11.49603 z" />
  <path
     style="fill:#ffffff;fill-rule:nonzero"
     inkscape:connector-curvature="0"
     id="path89"
     d="m 378.4706,452.43543 q 0,1.78125 -0.39063,3.09375 -0.375,1.29687 -1.04687,2.15625 -0.67188,0.85937 -1.57813,1.28125 -0.90625,0.40625 -1.9375,0.40625 -1.04687,0 -1.95312,-0.40625 -0.89063,-0.42188 -1.5625,-1.28125 -0.65625,-0.85938 -1.04688,-2.15625 -0.375,-1.3125 -0.375,-3.09375 0,-1.79688 0.375,-3.09375 0.39063,-1.3125 1.04688,-2.17188 0.67187,-0.85937 1.5625,-1.28125 0.90625,-0.42187 1.95312,-0.42187 1.03125,0 1.9375,0.42187 0.90625,0.42188 1.57813,1.28125 0.67187,0.85938 1.04687,2.17188 0.39063,1.29687 0.39063,3.09375 z m -1.76563,0 q 0,-1.5625 -0.26562,-2.625 -0.25,-1.0625 -0.70313,-1.70313 -0.4375,-0.64062 -1.01562,-0.92187 -0.57813,-0.28125 -1.20313,-0.28125 -0.625,0 -1.20312,0.28125 -0.57813,0.28125 -1.01563,0.92187 -0.4375,0.64063 -0.70312,1.70313 -0.26563,1.0625 -0.26563,2.625 0,1.54687 0.26563,2.60937 0.26562,1.04688 0.70312,1.70313 0.4375,0.64062 1.01563,0.92187 0.57812,0.28125 1.20312,0.28125 0.625,0 1.20313,-0.28125 0.57812,-0.28125 1.01562,-0.92187 0.45313,-0.65625 0.70313,-1.70313 0.26562,-1.0625 0.26562,-2.60937 z" />
  <path
     style="fill:#666666;fill-rule:nonzero"
     inkscape:connector-curvature="0"
     id="path91"
     d="m 401.39104,457.82675 v 0 c 0,-6.34912 5.08353,-11.49606 11.35434,-11.49606 v 0 c 3.01135,0 5.89938,1.21118 8.02872,3.36709 2.12936,2.15595 3.32562,5.08002 3.32562,8.12897 v 0 c 0,6.34909 -5.08353,11.49606 -11.35434,11.49606 v 0 c -6.27081,0 -11.35434,-5.14697 -11.35434,-11.49606 z" />
  <path
     style="fill:#ffffff;fill-rule:nonzero"
     inkscape:connector-curvature="0"
     id="path95"
     d="m 336.61419,468.36127 q 0,-0.25 0.0781,-0.46875 0.0937,-0.21875 0.25,-0.375 0.15625,-0.15625 0.375,-0.25 0.21875,-0.0937 0.46875,-0.0937 0.25,0 0.46875,0.0937 0.21875,0.0937 0.375,0.25 0.15625,0.15625 0.25,0.375 0.0937,0.21875 0.0937,0.46875 0,0.26562 -0.0937,0.48437 -0.0937,0.20313 -0.25,0.375 -0.15625,0.15625 -0.375,0.23438 -0.21875,0.0937 -0.46875,0.0937 -0.25,0 -0.46875,-0.0937 -0.21875,-0.0781 -0.375,-0.23438 -0.15625,-0.17187 -0.25,-0.375 -0.0781,-0.21875 -0.0781,-0.48437 z" />
  <path
     style="fill:#ffffff;fill-rule:nonzero"
     inkscape:connector-curvature="0"
     id="path99"
     d="m 411.65844,456.70871 q 0,-0.21875 0.0781,-0.40625 0.0781,-0.20313 0.21875,-0.34375 0.15625,-0.15625 0.35938,-0.23438 0.21875,-0.0781 0.46875,-0.0781 0.28125,0 0.5,0.10937 0.23437,0.0937 0.375,0.28125 0.15625,0.1875 0.21875,0.4375 0.0781,0.23438 0.0781,0.51563 0,0.42187 -0.125,0.89062 -0.125,0.45313 -0.35937,0.90625 -0.21875,0.45313 -0.5625,0.875 -0.32813,0.4375 -0.75,0.79688 l -0.28125,-0.28125 q -0.125,-0.10938 -0.125,-0.26563 0,-0.125 0.125,-0.25 0.0937,-0.10937 0.23437,-0.28125 0.15625,-0.17187 0.3125,-0.40625 0.15625,-0.23437 0.28125,-0.51562 0.125,-0.26563 0.1875,-0.57813 h -0.125 q -0.25,0 -0.45312,-0.0781 -0.20313,-0.0937 -0.35938,-0.25 -0.14062,-0.15625 -0.21875,-0.35938 -0.0781,-0.21875 -0.0781,-0.48437 z" />
</svg>
