<?xml version="1.0" standalone="yes"?>

<svg version="1.1" viewBox="0.0 0.0 886.0 454.0" fill="none" stroke="none" stroke-linecap="square" stroke-miterlimit="10" xmlns="http://www.w3.org/2000/svg" xmlns:xlink="http://www.w3.org/1999/xlink"><clipPath id="p.0"><path d="m0 0l886.0 0l0 454.0l-886.0 0l0 -454.0z" clip-rule="nonzero"></path></clipPath><g clip-path="url(#p.0)"><path fill="#000000" fill-opacity="0.0" d="m0 0l886.6378 0l0 454.74802l-886.6378 0z" fill-rule="nonzero"></path><path fill="#666666" d="m32.921665 189.53273l0 0c0 -58.994446 50.56715 -106.8189 112.944885 -106.8189l0 0c29.95485 0 58.682816 11.254105 79.86409 31.28653c21.181274 20.032433 33.080795 47.202232 33.080795 75.53237l0 0c0 58.994446 -50.567154 106.81889 -112.944885 106.81889l0 0c-62.37773 0 -112.944885 -47.824448 -112.944885 -106.81889z" fill-rule="nonzero"></path><path fill="#000000" fill-opacity="0.0" d="m204.40506 95.34411l0 0c11.177628 -23.98053 28.332108 -43.89775 49.42363 -57.38333l63.50737 122.08129z" fill-rule="nonzero"></path><path fill="#000000" fill-opacity="0.0" d="m204.40506 95.34411l0 0c11.177628 -23.98053 28.332108 -43.89775 49.42363 -57.38333" fill-rule="nonzero"></path><path stroke="#666666" stroke-width="3.0" stroke-linejoin="round" stroke-linecap="butt" d="m204.40506 95.34411l0 0c5.588806 -11.990265 12.671829 -22.964699 20.994095 -32.62727c4.161133 -4.8312836 8.63208 -9.334606 13.380966 -13.47295c1.1872101 -1.0345879 2.3918152 -2.04636 3.613266 -3.0347443l0.46855164 -0.37560654" fill-rule="evenodd"></path><path fill="#666666" stroke="#666666" stroke-width="3.0" stroke-linecap="butt" d="m244.79651 48.528378l5.469452 -8.009998l-9.338577 2.6203194z" fill-rule="evenodd"></path><path fill="#000000" fill-opacity="0.0" d="m19.763739 25.341208l215.14961 0l0 62.740158l-215.14961 0z" fill-rule="nonzero"></path><path fill="#6d9eeb" d="m76.24887 50.215034q-0.171875 0.328125 -0.375 0.453125q-0.203125 0.125 -0.5 0.125q-0.296875 0 -0.65625 -0.21875q-0.359375 -0.21875 -0.859375 -0.5q-0.484375 -0.28125 -1.15625 -0.5q-0.65625 -0.21875 -1.546875 -0.21875q-0.8125 0 -1.421875 0.203125q-0.59375 0.1875 -1.015625 0.53125q-0.40625 0.34375 -0.609375 0.828125q-0.203125 0.484375 -0.203125 1.0625q0 0.75 0.40625 1.25q0.421875 0.484375 1.09375 0.828125q0.6875 0.34375 1.5625 0.625q0.875 0.28125 1.78125 0.59375q0.90625 0.3125 1.765625 0.71875q0.875 0.40625 1.546875 1.046875q0.6875 0.625 1.09375 1.546875q0.421875 0.90625 0.421875 2.21875q0 1.421875 -0.484375 2.65625q-0.484375 1.234375 -1.421875 2.15625q-0.9375 0.921875 -2.28125 1.453125q-1.34375 0.53125 -3.09375 0.53125q-1.0 0 -1.96875 -0.203125q-0.96875 -0.1875 -1.859375 -0.546875q-0.890625 -0.375 -1.671875 -0.875q-0.78125 -0.515625 -1.3906288 -1.125l1.1406288 -1.875q0.15625 -0.203125 0.375 -0.34375q0.234375 -0.140625 0.5 -0.140625q0.375 0 0.78125 0.296875q0.421875 0.296875 1.0 0.671875q0.578125 0.359375 1.34375 0.65625q0.78125 0.296875 1.875 0.296875q1.65625 0 2.5625 -0.78125q0.921875 -0.796875 0.921875 -2.28125q0 -0.828125 -0.421875 -1.34375q-0.40625 -0.53125 -1.09375 -0.875q-0.671875 -0.359375 -1.546875 -0.609375q-0.859375 -0.25 -1.765625 -0.53125q-0.890625 -0.296875 -1.765625 -0.703125q-0.875 -0.40625 -1.5625 -1.046875q-0.671875 -0.65625 -1.09375 -1.640625q-0.40625 -0.984375 -0.40625 -2.421875q0 -1.140625 0.453125 -2.21875q0.46875 -1.09375 1.34375 -1.9375q0.875 -0.84375 2.140625 -1.34375q1.28125 -0.515625 2.921875 -0.515625q1.859375 0 3.421875 0.59375q1.5625 0.578125 2.671875 1.609375l-0.953125 1.84375zm10.43779 2.046875q1.40625 0 2.578125 0.453125q1.1875 0.453125 2.046875 1.3125q0.859375 0.859375 1.328125 2.125q0.484375 1.25 0.484375 2.859375q0 0.40625 -0.046875 0.671875q-0.03125 0.265625 -0.125 0.421875q-0.09375 0.140625 -0.25 0.21875q-0.15625 0.0625 -0.40625 0.0625l-9.1875 0q0.15625 2.28125 1.21875 3.359375q1.078125 1.078125 2.859375 1.078125q0.859375 0 1.484375 -0.203125q0.640625 -0.203125 1.109375 -0.453125q0.46875 -0.25 0.828125 -0.453125q0.359375 -0.203125 0.6875 -0.203125q0.21875 0 0.375 0.09375q0.15625 0.078125 0.28125 0.234375l1.046875 1.3125q-0.59375 0.703125 -1.34375 1.171875q-0.734375 0.46875 -1.546875 0.75q-0.796875 0.28125 -1.640625 0.390625q-0.828125 0.125 -1.609375 0.125q-1.546875 0 -2.890625 -0.515625q-1.328125 -0.515625 -2.3125 -1.515625q-0.984375 -1.015625 -1.5625 -2.5q-0.5625 -1.484375 -0.5625 -3.4375q0 -1.53125 0.5 -2.875q0.5 -1.34375 1.40625 -2.328125q0.921875 -1.0 2.25 -1.578125q1.328125 -0.578125 3.0 -0.578125zm0.078125 2.5625q-1.578125 0 -2.46875 0.890625q-0.875 0.890625 -1.125 2.5l6.734375 0q0 -0.6875 -0.1875 -1.296875q-0.1875 -0.625 -0.578125 -1.078125q-0.390625 -0.46875 -0.984375 -0.734375q-0.59375 -0.28125 -1.390625 -0.28125zm9.44162 12.546875l0 -14.875l2.203125 0q0.6875 0 0.90625 0.65625l0.25 1.171875q0.453125 -0.46875 0.953125 -0.84375q0.5 -0.375 1.046875 -0.640625q0.5625 -0.28125 1.203125 -0.421875q0.640625 -0.15625 1.390625 -0.15625q1.21875 0 2.15625 0.421875q0.953125 0.40625 1.578125 1.15625q0.625 0.75 0.953125 1.78125q0.328125 1.03125 0.328125 2.28125l0 9.46875l-3.578125 0l0 -9.46875q0 -1.359375 -0.640625 -2.109375q-0.625 -0.75 -1.890625 -0.75q-0.921875 0 -1.734375 0.421875q-0.8125 0.421875 -1.53125 1.140625l0 10.765625l-3.59375 0zm25.516922 -11.984375q-0.15625 0.234375 -0.3125 0.328125q-0.15625 0.09375 -0.40625 0.09375q-0.265625 0 -0.5625 -0.140625q-0.296875 -0.140625 -0.6875 -0.3125q-0.390625 -0.1875 -0.890625 -0.328125q-0.5 -0.15625 -1.171875 -0.15625q-1.0625 0 -1.671875 0.453125q-0.609375 0.453125 -0.609375 1.171875q0 0.484375 0.3125 0.8125q0.3125 0.3125 0.828125 0.5625q0.515625 0.25 1.15625 0.453125q0.65625 0.1875 1.34375 0.421875q0.6875 0.234375 1.328125 0.53125q0.65625 0.296875 1.171875 0.75q0.515625 0.453125 0.828125 1.09375q0.3125 0.640625 0.3125 1.53125q0 1.078125 -0.390625 1.984375q-0.390625 0.90625 -1.15625 1.578125q-0.75 0.65625 -1.859375 1.03125q-1.109375 0.359375 -2.546875 0.359375q-0.765625 0 -1.5 -0.140625q-0.734375 -0.140625 -1.40625 -0.375q-0.671875 -0.25 -1.25 -0.578125q-0.5625 -0.34375 -1.0 -0.734375l0.828125 -1.359375q0.15625 -0.25 0.375 -0.375q0.21875 -0.140625 0.546875 -0.140625q0.34375 0 0.640625 0.1875q0.296875 0.1875 0.6875 0.40625q0.390625 0.21875 0.921875 0.40625q0.53125 0.1875 1.328125 0.1875q0.640625 0 1.09375 -0.140625q0.46875 -0.15625 0.765625 -0.40625q0.296875 -0.25 0.421875 -0.5625q0.140625 -0.328125 0.140625 -0.6875q0 -0.515625 -0.3125 -0.84375q-0.296875 -0.34375 -0.8125 -0.578125q-0.515625 -0.25 -1.1875 -0.4375q-0.65625 -0.203125 -1.34375 -0.4375q-0.6875 -0.234375 -1.34375 -0.546875q-0.65625 -0.3125 -1.171875 -0.78125q-0.515625 -0.484375 -0.828125 -1.171875q-0.3125 -0.703125 -0.3125 -1.703125q0 -0.90625 0.359375 -1.734375q0.359375 -0.828125 1.0625 -1.4375q0.703125 -0.625 1.75 -0.984375q1.0625 -0.375 2.4375 -0.375q1.53125 0 2.796875 0.515625q1.265625 0.5 2.109375 1.328125l-0.8125 1.28125zm15.644608 11.984375l-1.609375 0q-0.515625 0 -0.8125 -0.140625q-0.28125 -0.15625 -0.421875 -0.625l-0.328125 -1.0625q-0.5625 0.515625 -1.109375 0.90625q-0.53125 0.375 -1.125 0.640625q-0.578125 0.25 -1.234375 0.375q-0.640625 0.140625 -1.4375 0.140625q-0.953125 0 -1.75 -0.25q-0.796875 -0.265625 -1.375 -0.765625q-0.5625 -0.515625 -0.890625 -1.265625q-0.3125 -0.75 -0.3125 -1.75q0 -0.84375 0.4375 -1.65625q0.453125 -0.828125 1.484375 -1.484375q1.03125 -0.65625 2.734375 -1.09375q1.71875 -0.4375 4.25 -0.5l0 -0.859375q0 -1.5 -0.640625 -2.21875q-0.625 -0.71875 -1.828125 -0.71875q-0.859375 0 -1.453125 0.203125q-0.578125 0.203125 -1.0 0.46875q-0.421875 0.25 -0.796875 0.453125q-0.359375 0.203125 -0.796875 0.203125q-0.359375 0 -0.625 -0.1875q-0.25 -0.1875 -0.421875 -0.46875l-0.640625 -1.140625q2.5625 -2.359375 6.1875 -2.359375q1.296875 0 2.3125 0.4375q1.03125 0.421875 1.734375 1.1875q0.71875 0.75 1.09375 1.8125q0.375 1.0625 0.375 2.328125l0 9.390625zm-6.96875 -2.234375q0.546875 0 1.015625 -0.09375q0.46875 -0.109375 0.875 -0.3125q0.421875 -0.203125 0.796875 -0.5q0.390625 -0.296875 0.78125 -0.703125l0 -2.5q-1.5625 0.0625 -2.625 0.265625q-1.046875 0.1875 -1.6875 0.5q-0.625 0.296875 -0.90625 0.703125q-0.265625 0.40625 -0.265625 0.890625q0 0.9375 0.5625 1.34375q0.5625 0.40625 1.453125 0.40625zm15.540894 2.46875q-1.921875 0 -2.96875 -1.09375q-1.046875 -1.09375 -1.046875 -3.03125l0 -8.296875l-1.5 0q-0.296875 0 -0.515625 -0.1875q-0.203125 -0.203125 -0.203125 -0.578125l0 -1.421875l2.390625 -0.390625l0.765625 -4.0625q0.046875 -0.28125 0.25 -0.4375q0.21875 -0.171875 0.546875 -0.171875l1.84375 0l0 4.6875l3.9218597 0l0 2.5625l-3.9218597 0l0 8.0625q0 0.6875 0.34375 1.078125q0.359375 0.390625 0.9375 0.390625q0.328125 0 0.546875 -0.078125q0.234375 -0.078125 0.40625 -0.15625q0.17185974 -0.09375 0.29685974 -0.171875q0.125 -0.078125 0.265625 -0.078125q0.15625 0 0.25 0.078125q0.109375 0.078125 0.21875 0.234375l1.078125 1.734375q-0.78125 0.65625 -1.796875 1.0q-1.0156097 0.328125 -2.1093597 0.328125zm10.287552 -15.109375l0 14.875l-3.59375 0l0 -14.875l3.59375 0zm0.53125 -4.34375q0 0.46875 -0.1875 0.875q-0.1875 0.40625 -0.5 0.71875q-0.3125 0.296875 -0.734375 0.484375q-0.421875 0.171875 -0.90625 0.171875q-0.453125 0 -0.875 -0.171875q-0.40625 -0.1875 -0.71875 -0.484375q-0.296875 -0.3125 -0.484375 -0.71875q-0.171875 -0.40625 -0.171875 -0.875q0 -0.46875 0.171875 -0.890625q0.1875 -0.421875 0.484375 -0.71875q0.3125 -0.3125 0.71875 -0.484375q0.421875 -0.1875 0.875 -0.1875q0.484375 0 0.90625 0.1875q0.421875 0.171875 0.734375 0.484375q0.3125 0.296875 0.5 0.71875q0.1875 0.421875 0.1875 0.890625zm9.947998 4.109375q1.671875 0 3.015625 0.546875q1.359375 0.53125 2.3125 1.515625q0.96875 0.984375 1.484375 2.40625q0.53125 1.421875 0.53125 3.171875q0 1.765625 -0.53125 3.1875q-0.515625 1.421875 -1.484375 2.421875q-0.953125 1.0 -2.3125 1.546875q-1.34375 0.53125 -3.015625 0.53125q-1.671875 0 -3.03125 -0.53125q-1.359375 -0.546875 -2.328125 -1.546875q-0.96875 -1.0 -1.5 -2.421875q-0.515625 -1.421875 -0.515625 -3.1875q0 -1.75 0.515625 -3.171875q0.53125 -1.421875 1.5 -2.40625q0.96875 -0.984375 2.328125 -1.515625q1.359375 -0.546875 3.03125 -0.546875zm0 12.578125q1.859375 0 2.75 -1.25q0.890625 -1.25 0.890625 -3.65625q0 -2.40625 -0.890625 -3.671875q-0.890625 -1.265625 -2.75 -1.265625q-1.890625 0 -2.796875 1.28125q-0.890625 1.265625 -0.890625 3.65625q0 2.390625 0.890625 3.65625q0.90625 1.25 2.796875 1.25zm10.313782 2.53125l0 -14.875l2.203125 0q0.6875 0 0.90625 0.65625l0.25 1.171875q0.453125 -0.46875 0.953125 -0.84375q0.5 -0.375 1.046875 -0.640625q0.5625 -0.28125 1.203125 -0.421875q0.640625 -0.15625 1.390625 -0.15625q1.21875 0 2.15625 0.421875q0.953125 0.40625 1.578125 1.15625q0.625 0.75 0.953125 1.78125q0.328125 1.03125 0.328125 2.28125l0 9.46875l-3.578125 0l0 -9.46875q0 -1.359375 -0.640625 -2.109375q-0.625 -0.75 -1.890625 -0.75q-0.921875 0 -1.734375 0.421875q-0.8125 0.421875 -1.53125 1.140625l0 10.765625l-3.59375 0z" fill-rule="nonzero"></path><path fill="#000000" fill-opacity="0.0" d="m258.27298 41.879265l268.31497 0l0 117.57481l-268.31497 0z" fill-rule="nonzero"></path><path fill="#666666" d="m272.64798 71.76552q0 -0.578125 0.03125 -1.09375q0.03125 -0.515625 0.0625 -0.984375q0.03125 -0.484375 0.0625 -0.96875q0.03125 -0.484375 0.03125 -1.015625q0 -0.3125 -0.125 -0.59375q-0.125 -0.28125 -0.46875 -0.515625q-0.328125 -0.234375 -0.9375 -0.375q-0.59375 -0.15625 -1.515625 -0.15625l0 -1.09375q0.921875 0 1.515625 -0.140625q0.609375 -0.140625 0.9375 -0.375q0.34375 -0.234375 0.46875 -0.5156288q0.125 -0.28125 0.125 -0.59375q0 -1.015625 -0.09375 -1.984375q-0.09375 -0.984375 -0.09375 -2.078125q0 -0.8125 0.234375 -1.34375q0.234375 -0.546875 0.703125 -0.859375q0.484375 -0.3125 1.21875 -0.453125q0.75 -0.140625 1.734375 -0.140625l1.28125 0l0 1.015625l-1.09375 0q-0.796875 0 -1.3125 0.109375q-0.515625 0.09375 -0.796875 0.328125q-0.28125 0.21875 -0.390625 0.59375q-0.109375 0.359375 -0.109375 0.859375q0 0.90625 0.0625 1.859375q0.0625 0.953125 0.0625 1.9375q0 1.0312538 -0.40625 1.5781288q-0.40625 0.53125 -1.5 0.71875l0 0.078125q1.09375 0.1875 1.5 0.734375q0.40625 0.53125 0.40625 1.5625q0 1.0625 -0.0625 1.953125q-0.0625 0.875 -0.0625 1.84375q0 0.5 0.109375 0.859375q0.109375 0.375 0.390625 0.59375q0.28125 0.21875 0.796875 0.328125q0.515625 0.109375 1.3125 0.109375l1.09375 0l0 1.0l-1.28125 0q-0.984375 0 -1.734375 -0.140625q-0.734375 -0.125 -1.21875 -0.453125q-0.46875 -0.3125 -0.703125 -0.84375q-0.234375 -0.53125 -0.234375 -1.34375z" fill-rule="nonzero"></path><path fill="#666666" d="m298.8512 83.68739q-0.984375 0.5625 -1.546875 1.40625q-0.5625 0.828125 -0.625 1.90625q0.25 -0.125 0.546875 -0.125q0.65625 0 1.0625 0.421875q0.40625 0.421875 0.40625 1.09375q0 0.734375 -0.4375 1.1875q-0.4375 0.4375 -1.109375 0.4375q-0.828125 0 -1.359375 -0.65625q-0.53125 -0.671875 -0.53125 -1.875q0 -1.5625 0.796875 -2.8125q0.796875 -1.25 2.21875 -1.984375l0.578125 1.0zm4.0 0q-0.984375 0.5625 -1.546875 1.40625q-0.5625 0.828125 -0.625 1.90625q0.25 -0.125 0.546875 -0.125q0.65625 0 1.0625 0.421875q0.40625 0.421875 0.40625 1.09375q0 0.734375 -0.4375 1.1875q-0.4375 0.4375 -1.109375 0.4375q-0.828125 0 -1.359375 -0.65625q-0.53125 -0.671875 -0.53125 -1.875q0 -1.5625 0.796875 -2.8125q0.796875 -1.25 2.21875 -1.984375l0.578125 1.0zm3.0156555 -0.125l1.75 0l1.109375 8.65625q0.046875 0.875 0.140625 1.703125q0.09375 0.828125 0.15625 1.6875l0.0625 0q0.234375 -0.859375 0.453125 -1.6875q0.21875 -0.84375 0.4375 -1.703125l1.4375 -5.09375l1.25 0l1.4375 5.09375q0.1875 0.828125 0.40625 1.6875q0.234375 0.84375 0.453125 1.703125l0.09375 0q0.0625 -0.859375 0.140625 -1.6875q0.09375 -0.84375 0.15625 -1.703125l1.046875 -8.65625l1.65625 0l-2.03125 13.796875l-1.9375 0l-1.578125 -5.78125q-0.140625 -0.609375 -0.265625 -1.234375q-0.125 -0.625 -0.234375 -1.234375l-0.0625 0q-0.125 0.609375 -0.25 1.234375q-0.125 0.625 -0.296875 1.234375l-1.515625 5.78125l-1.890625 0l-2.125 -13.796875zm14.546936 -1.15625l1.71875 0l0 4.078125l-0.078125 2.40625q0.8125 -0.859375 1.734375 -1.421875q0.9375 -0.5625 2.125 -0.5625q1.828125 0 2.671875 1.046875q0.859375 1.03125 0.859375 3.0625l0 6.34375l-1.71875 0l0 -6.109375q0 -1.453125 -0.546875 -2.15625q-0.546875 -0.703125 -1.8125 -0.703125q-0.453125 0 -0.84375 0.125q-0.390625 0.109375 -0.78125 0.34375q-0.375 0.21875 -0.78125 0.578125q-0.390625 0.34375 -0.828125 0.796875l0 7.125l-1.71875 0l0 -14.953125zm12.5469055 12.3125q0 -0.859375 0.40625 -1.5q0.40625 -0.640625 1.296875 -1.109375q0.90625 -0.46875 2.3125 -0.75q1.40625 -0.296875 3.375 -0.46875q-0.015625 -0.53125 -0.171875 -0.984375q-0.140625 -0.46875 -0.46875 -0.8125q-0.3125 -0.34375 -0.828125 -0.546875q-0.5 -0.21875 -1.234375 -0.21875q-1.015625 0 -1.9375 0.390625q-0.921875 0.390625 -1.640625 0.828125l-0.671875 -1.171875q0.375 -0.25 0.890625 -0.515625q0.515625 -0.265625 1.09375 -0.46875q0.578125 -0.21875 1.21875 -0.34375q0.65625 -0.140625 1.328125 -0.140625q2.109375 0 3.125 1.140625q1.015625 1.140625 1.015625 3.046875l0 6.265625l-1.40625 0l-0.140625 -1.390625l-0.0625 0q-0.859375 0.671875 -1.90625 1.15625q-1.03125 0.484375 -2.125 0.484375q-0.71875 0 -1.359375 -0.203125q-0.625 -0.1875 -1.09375 -0.546875q-0.46875 -0.375 -0.75 -0.90625q-0.265625 -0.546875 -0.265625 -1.234375zm1.671875 -0.125q0 0.4375 0.1875 0.75q0.203125 0.296875 0.5 0.5q0.3125 0.1875 0.71875 0.28125q0.40625 0.09375 0.84375 0.09375q0.890625 0 1.734375 -0.375q0.859375 -0.390625 1.734375 -1.125l0 -2.6875q-1.640625 0.125 -2.75 0.359375q-1.09375 0.21875 -1.765625 0.546875q-0.65625 0.328125 -0.9375 0.734375q-0.265625 0.40625 -0.265625 0.921875zm13.750061 -6.03125l-2.875 0l0 -1.296875l2.9375 -0.109375l0.234375 -2.859375l1.421875 0l0 2.859375l5.015625 0l0 1.40625l-5.015625 0l0 4.84375q0 0.703125 0.125 1.21875q0.125 0.515625 0.421875 0.875q0.296875 0.34375 0.796875 0.53125q0.5 0.171875 1.234375 0.171875q0.734375 0 1.328125 -0.125q0.59375 -0.125 1.140625 -0.328125l0.375 1.25q-0.703125 0.25 -1.546875 0.421875q-0.828125 0.1875 -1.671875 0.1875q-1.109375 0 -1.875 -0.296875q-0.75 -0.3125 -1.203125 -0.859375q-0.453125 -0.5625 -0.65625 -1.34375q-0.1875 -0.78125 -0.1875 -1.71875l0 -4.828125zm13.5469055 3.921875q-0.125 -0.75 0.0625 -1.328125q0.1875 -0.59375 0.546875 -1.078125q0.375 -0.484375 0.84375 -0.90625q0.46875 -0.421875 0.875 -0.828125q0.40625 -0.40625 0.671875 -0.84375q0.28125 -0.453125 0.28125 -1.0q0 -0.875 -0.578125 -1.453125q-0.578125 -0.578125 -1.734375 -0.578125q-0.796875 0 -1.484375 0.328125q-0.671875 0.3125 -1.25 0.890625l-1.03125 -0.953125q0.71875 -0.734375 1.6875 -1.21875q0.96875 -0.484375 2.1875 -0.484375q0.875 0 1.59375 0.234375q0.71875 0.234375 1.21875 0.671875q0.515625 0.421875 0.796875 1.03125q0.296875 0.59375 0.296875 1.34375q0 0.6875 -0.296875 1.234375q-0.28125 0.53125 -0.6875 0.984375q-0.40625 0.453125 -0.875 0.875q-0.46875 0.421875 -0.859375 0.890625q-0.390625 0.453125 -0.609375 0.984375q-0.21875 0.53125 -0.125 1.203125l-1.53125 0zm-0.609375 3.484375q0 -0.734375 0.453125 -1.15625q0.453125 -0.4375 1.078125 -0.4375q0.640625 0 1.078125 0.4375q0.453125 0.421875 0.453125 1.15625q0 0.765625 -0.453125 1.203125q-0.4375 0.4375 -1.078125 0.4375q-0.625 0 -1.078125 -0.4375q-0.453125 -0.4375 -0.453125 -1.203125zm10.890686 -6.96875q1.0 -0.546875 1.546875 -1.375q0.5625 -0.828125 0.625 -1.9375q-0.25 0.125 -0.546875 0.125q-0.671875 0 -1.078125 -0.40625q-0.40625 -0.421875 -0.40625 -1.09375q0 -0.734375 0.4375 -1.171875q0.453125 -0.453125 1.125 -0.453125q0.828125 0 1.34375 0.671875q0.53125 0.671875 0.53125 1.859375q0 1.578125 -0.796875 2.828125q-0.796875 1.234375 -2.203125 1.96875l-0.578125 -1.015625zm4.0 0q1.0 -0.546875 1.546875 -1.375q0.5625 -0.828125 0.625 -1.9375q-0.25 0.125 -0.546875 0.125q-0.671875 0 -1.078125 -0.40625q-0.40625 -0.421875 -0.40625 -1.09375q0 -0.734375 0.4375 -1.171875q0.453125 -0.453125 1.125 -0.453125q0.828125 0 1.34375 0.671875q0.53125 0.671875 0.53125 1.859375q0 1.578125 -0.796875 2.828125q-0.796875 1.234375 -2.203125 1.96875l-0.578125 -1.015625zm10.8281555 -1.15625q0 -0.796875 0.5 -1.28125q0.5 -0.5 1.203125 -0.5q0.71875 0 1.203125 0.5q0.5 0.484375 0.5 1.28125q0 0.796875 -0.5 1.28125q-0.484375 0.484375 -1.203125 0.484375q-0.703125 0 -1.203125 -0.484375q-0.5 -0.484375 -0.5 -1.28125zm0 8.0q0 -0.796875 0.5 -1.28125q0.5 -0.5 1.203125 -0.5q0.71875 0 1.203125 0.5q0.5 0.484375 0.5 1.28125q0 0.796875 -0.5 1.28125q-0.484375 0.484375 -1.203125 0.484375q-0.703125 0 -1.203125 -0.484375q-0.5 -0.484375 -0.5 -1.28125zm26.984467 -12.15625q-0.984375 0.5625 -1.546875 1.40625q-0.5625 0.828125 -0.625 1.90625q0.25 -0.125 0.546875 -0.125q0.65625 0 1.0625 0.421875q0.40625 0.421875 0.40625 1.09375q0 0.734375 -0.4375 1.1875q-0.4375 0.4375 -1.109375 0.4375q-0.828125 0 -1.359375 -0.65625q-0.53125 -0.671875 -0.53125 -1.875q0 -1.5625 0.796875 -2.8125q0.796875 -1.25 2.21875 -1.984375l0.578125 1.0zm4.0 0q-0.984375 0.5625 -1.546875 1.40625q-0.5625 0.828125 -0.625 1.90625q0.25 -0.125 0.546875 -0.125q0.65625 0 1.0625 0.421875q0.40625 0.421875 0.40625 1.09375q0 0.734375 -0.4375 1.1875q-0.4375 0.4375 -1.109375 0.4375q-0.828125 0 -1.359375 -0.65625q-0.53125 -0.671875 -0.53125 -1.875q0 -1.5625 0.796875 -2.8125q0.796875 -1.25 2.21875 -1.984375l0.578125 1.0zm4.812561 12.1875l3.421875 0l0 -10.828125l-3.421875 0l0 -1.46875l8.609375 0l0 1.46875l-3.421875 0l0 10.828125l3.421875 0l0 1.484375l-8.609375 0l0 -1.484375zm12.0625305 -8.71875l1.34375 0l0.140625 1.34375l0.0625 0q0.375 -0.71875 0.890625 -1.15625q0.515625 -0.4375 1.40625 -0.4375q1.546875 0 1.921875 1.765625q0.46875 -0.796875 1.015625 -1.28125q0.546875 -0.484375 1.40625 -0.484375q1.0625 0 1.640625 0.8125q0.578125 0.796875 0.578125 2.328125l0 7.3125l-1.65625 0l0 -7.15625q0 -1.8125 -1.109375 -1.8125q-0.546875 0 -0.953125 0.390625q-0.390625 0.390625 -0.796875 1.1875l0 7.390625l-1.375 0l0 -7.15625q0 -1.8125 -1.15625 -1.8125q-0.546875 0 -0.9375 0.390625q-0.375 0.390625 -0.765625 1.1875l0 7.390625l-1.65625 0l0 -10.203125zm13.234436 7.5625q0 -0.859375 0.40625 -1.5q0.40625 -0.640625 1.296875 -1.109375q0.90625 -0.46875 2.3125 -0.75q1.40625 -0.296875 3.375 -0.46875q-0.015625 -0.53125 -0.171875 -0.984375q-0.140625 -0.46875 -0.46875 -0.8125q-0.3125 -0.34375 -0.828125 -0.546875q-0.5 -0.21875 -1.234375 -0.21875q-1.015625 0 -1.9375 0.390625q-0.921875 0.390625 -1.640625 0.828125l-0.671875 -1.171875q0.375 -0.25 0.890625 -0.515625q0.515625 -0.265625 1.09375 -0.46875q0.578125 -0.21875 1.21875 -0.34375q0.65625 -0.140625 1.328125 -0.140625q2.109375 0 3.125 1.140625q1.015625 1.140625 1.015625 3.046875l0 6.265625l-1.40625 0l-0.140625 -1.390625l-0.0625 0q-0.859375 0.671875 -1.90625 1.15625q-1.03125 0.484375 -2.125 0.484375q-0.71875 0 -1.359375 -0.203125q-0.625 -0.1875 -1.09375 -0.546875q-0.46875 -0.375 -0.75 -0.90625q-0.265625 -0.546875 -0.265625 -1.234375zm1.671875 -0.125q0 0.4375 0.1875 0.75q0.203125 0.296875 0.5 0.5q0.3125 0.1875 0.71875 0.28125q0.40625 0.09375 0.84375 0.09375q0.890625 0 1.734375 -0.375q0.859375 -0.390625 1.734375 -1.125l0 -2.6875q-1.640625 0.125 -2.75 0.359375q-1.09375 0.21875 -1.765625 0.546875q-0.65625 0.328125 -0.9375 0.734375q-0.265625 0.40625 -0.265625 0.921875zm12.4219055 4.46875q0 0.796875 0.84375 1.296875q0.859375 0.5 2.5 0.5q0.875 0 1.59375 -0.171875q0.71875 -0.171875 1.21875 -0.46875q0.5 -0.296875 0.765625 -0.671875q0.265625 -0.375 0.265625 -0.78125q0 -0.734375 -0.578125 -0.984375q-0.578125 -0.25 -1.75 -0.25l-2.0 0q-0.4375 0 -0.828125 -0.03125q-0.390625 -0.03125 -0.71875 -0.140625q-0.75 0.40625 -1.03125 0.828125q-0.28125 0.4375 -0.28125 0.875zm-1.484375 0.171875q0 -0.609375 0.421875 -1.203125q0.4375 -0.59375 1.25 -1.078125l0 -0.078125q-0.421875 -0.234375 -0.734375 -0.625q-0.3125 -0.40625 -0.3125 -1.046875q0 -0.484375 0.3125 -1.0q0.3125 -0.515625 0.90625 -0.921875l0 -0.078125q-0.53125 -0.40625 -0.90625 -1.0625q-0.359375 -0.65625 -0.359375 -1.578125q0 -0.84375 0.328125 -1.515625q0.328125 -0.671875 0.875 -1.140625q0.546875 -0.484375 1.265625 -0.734375q0.734375 -0.265625 1.546875 -0.265625q0.84375 0 1.515625 0.25l4.21875 0l0 1.3125l-2.734375 0q0.359375 0.390625 0.65625 0.9375q0.296875 0.546875 0.296875 1.21875q0 0.8125 -0.3125 1.46875q-0.296875 0.640625 -0.84375 1.09375q-0.53125 0.453125 -1.25 0.703125q-0.71875 0.234375 -1.546875 0.234375q-0.390625 0 -0.84375 -0.09375q-0.453125 -0.09375 -0.875 -0.28125q-0.796875 0.5 -0.796875 1.171875q0 0.609375 0.546875 0.890625q0.5625 0.28125 1.578125 0.28125l2.28125 0q1.96875 0 2.921875 0.546875q0.96875 0.546875 0.96875 1.859375q0 0.703125 -0.40625 1.359375q-0.390625 0.65625 -1.125 1.125q-0.734375 0.484375 -1.796875 0.78125q-1.046875 0.296875 -2.34375 0.296875q-2.25 0 -3.484375 -0.734375q-1.21875 -0.734375 -1.21875 -2.09375zm4.59375 -6.265625q0.984375 0 1.671875 -0.640625q0.6875 -0.65625 0.6875 -1.765625q0 -0.53125 -0.203125 -0.96875q-0.1875 -0.453125 -0.5 -0.765625q-0.3125 -0.3125 -0.75 -0.484375q-0.421875 -0.1875 -0.90625 -0.1875q-0.484375 0 -0.921875 0.1875q-0.421875 0.171875 -0.734375 0.484375q-0.3125 0.3125 -0.5 0.765625q-0.1875 0.4375 -0.1875 0.96875q0 1.109375 0.6875 1.765625q0.6875 0.640625 1.65625 0.640625zm8.140686 -0.6875q0 -1.265625 0.4375 -2.265625q0.4375 -1.0 1.15625 -1.6875q0.734375 -0.6875 1.671875 -1.046875q0.9375 -0.375 1.921875 -0.375q1.09375 0 1.953125 0.34375q0.859375 0.34375 1.453125 0.984375q0.59375 0.625 0.90625 1.515625q0.328125 0.875 0.328125 1.9375q0 0.28125 -0.015625 0.546875q-0.015625 0.25 -0.046875 0.4375l-7.984375 0q0.015625 0.828125 0.3125 1.484375q0.3125 0.640625 0.828125 1.109375q0.515625 0.453125 1.21875 0.703125q0.703125 0.25 1.546875 0.25q0.90625 0 1.640625 -0.25q0.75 -0.25 1.46875 -0.6875l0.609375 1.140625q-0.765625 0.46875 -1.734375 0.828125q-0.953125 0.359375 -2.1875 0.359375q-1.140625 0 -2.140625 -0.359375q-1.0 -0.375 -1.75 -1.046875q-0.734375 -0.6875 -1.171875 -1.671875q-0.421875 -1.0 -0.421875 -2.25zm8.234375 -0.84375q0 -1.53125 -0.8125 -2.34375q-0.796875 -0.828125 -2.21875 -0.828125q-0.625 0 -1.203125 0.21875q-0.578125 0.203125 -1.046875 0.609375q-0.453125 0.40625 -0.78125 1.0q-0.3125 0.59375 -0.40625 1.34375l6.46875 0zm5.6719055 -2.4375q1.0 -0.546875 1.546875 -1.375q0.5625 -0.828125 0.625 -1.9375q-0.25 0.125 -0.546875 0.125q-0.671875 0 -1.078125 -0.40625q-0.40625 -0.421875 -0.40625 -1.09375q0 -0.734375 0.4375 -1.171875q0.453125 -0.453125 1.125 -0.453125q0.828125 0 1.34375 0.671875q0.53125 0.671875 0.53125 1.859375q0 1.578125 -0.796875 2.828125q-0.796875 1.234375 -2.203125 1.96875l-0.578125 -1.015625zm4.0 0q1.0 -0.546875 1.546875 -1.375q0.5625 -0.828125 0.625 -1.9375q-0.25 0.125 -0.546875 0.125q-0.671875 0 -1.078125 -0.40625q-0.40625 -0.421875 -0.40625 -1.09375q0 -0.734375 0.4375 -1.171875q0.453125 -0.453125 1.125 -0.453125q0.828125 0 1.34375 0.671875q0.53125 0.671875 0.53125 1.859375q0 1.578125 -0.796875 2.828125q-0.796875 1.234375 -2.203125 1.96875l-0.578125 -1.015625z" fill-rule="nonzero"></path><path fill="#666666" d="m270.42923 125.54676q0.796875 0 1.3125 -0.109375q0.515625 -0.109375 0.796875 -0.328125q0.296875 -0.21875 0.40625 -0.59375q0.109375 -0.359375 0.109375 -0.859375q0 -0.96875 -0.0625 -1.84375q-0.0625 -0.890625 -0.0625 -1.953125q0 -1.03125 0.390625 -1.5625q0.40625 -0.546875 1.484375 -0.734375l0 -0.078125q-1.078125 -0.1875 -1.484375 -0.71875q-0.390625 -0.546875 -0.390625 -1.578125q0 -0.984375 0.0625 -1.9375q0.0625 -0.953125 0.0625 -1.859375q0 -0.5 -0.109375 -0.859375q-0.109375 -0.375 -0.40625 -0.59375q-0.28125 -0.234375 -0.796875 -0.328125q-0.515625 -0.109375 -1.3125 -0.109375l-1.078125 0l0 -1.015625l1.28125 0q0.984375 0 1.703125 0.140625q0.734375 0.140625 1.21875 0.453125q0.484375 0.3125 0.703125 0.859375q0.234375 0.53125 0.234375 1.34375q0 1.09375 -0.09375 2.078125q-0.09375 0.96875 -0.09375 1.984375q0 0.3125 0.125 0.59375q0.125 0.28125 0.453125 0.515625q0.34375 0.234375 0.9375 0.375q0.609375 0.140625 1.53125 0.140625l0 1.09375q-0.921875 0 -1.53125 0.15625q-0.59375 0.140625 -0.9375 0.375q-0.328125 0.234375 -0.453125 0.515625q-0.125 0.28125 -0.125 0.59375q0 0.53125 0.03125 1.015625q0.03125 0.484375 0.0625 0.96875q0.03125 0.46875 0.0625 0.984375q0.03125 0.515625 0.03125 1.09375q0 0.8125 -0.234375 1.34375q-0.21875 0.53125 -0.703125 0.84375q-0.484375 0.328125 -1.21875 0.453125q-0.71875 0.140625 -1.703125 0.140625l-1.28125 0l0 -1.0l1.078125 0z" fill-rule="nonzero"></path><path fill="#000000" fill-opacity="0.0" d="m76.38048 159.46844l164.85039 0l0 62.740158l-164.85039 0z" fill-rule="nonzero"></path><path fill="#ffffff" d="m146.569 189.33977q-0.15625 0.265625 -0.34375 0.375q-0.171875 0.09375 -0.4375 0.09375q-0.296875 0 -0.625 -0.15625q-0.328125 -0.171875 -0.765625 -0.359375q-0.421875 -0.203125 -0.984375 -0.359375q-0.546875 -0.171875 -1.296875 -0.171875q-1.171875 0 -1.84375 0.5q-0.671875 0.5 -0.671875 1.296875q0 0.53125 0.34375 0.890625q0.34375 0.359375 0.90625 0.640625q0.578125 0.265625 1.296875 0.484375q0.71875 0.203125 1.46875 0.46875q0.75 0.25 1.46875 0.578125q0.734375 0.328125 1.296875 0.84375q0.5625 0.5 0.90625 1.203125q0.34375 0.703125 0.34375 1.6875q0 1.1875 -0.4375 2.1875q-0.421875 1.0 -1.25 1.734375q-0.828125 0.71875 -2.0625 1.125q-1.21875 0.40625 -2.796875 0.40625q-0.859375 0 -1.671875 -0.15625q-0.796875 -0.140625 -1.546875 -0.40625q-0.734375 -0.28125 -1.375 -0.640625q-0.625 -0.375 -1.109375 -0.8125l0.90625 -1.5q0.1875 -0.265625 0.421875 -0.40625q0.234375 -0.15625 0.609375 -0.15625q0.359375 0 0.6875 0.21875q0.328125 0.203125 0.765625 0.453125q0.4375 0.234375 1.015625 0.4375q0.578125 0.203125 1.484375 0.203125q0.703125 0 1.203125 -0.15625q0.5 -0.171875 0.828125 -0.4375q0.328125 -0.28125 0.484375 -0.640625q0.15625 -0.359375 0.15625 -0.75q0 -0.578125 -0.34375 -0.9375q-0.34375 -0.375 -0.921875 -0.640625q-0.5625 -0.28125 -1.296875 -0.484375q-0.71875 -0.21875 -1.484375 -0.46875q-0.75 -0.265625 -1.484375 -0.609375q-0.734375 -0.34375 -1.296875 -0.875q-0.5625 -0.53125 -0.90625 -1.296875q-0.34375 -0.765625 -0.34375 -1.84375q0 -1.015625 0.390625 -1.921875q0.40625 -0.921875 1.171875 -1.59375q0.78125 -0.6875 1.9375 -1.09375q1.171875 -0.40625 2.6875 -0.40625q1.703125 0 3.09375 0.5625q1.390625 0.5625 2.3125 1.46875l-0.890625 1.421875zm11.015274 -3.453125q1.5625 0 2.859375 0.5q1.3125 0.484375 2.25 1.4375q0.9375 0.953125 1.46875 2.34375q0.53125 1.375 0.53125 3.15625q0 0.453125 -0.046875 0.75q-0.03125 0.296875 -0.140625 0.46875q-0.09375 0.15625 -0.28125 0.234375q-0.171875 0.0625 -0.4375 0.0625l-10.15625 0q0.1875 2.53125 1.359375 3.71875q1.1875 1.1875 3.140625 1.1875q0.96875 0 1.65625 -0.21875q0.703125 -0.234375 1.21875 -0.5q0.515625 -0.28125 0.90625 -0.5q0.390625 -0.21875 0.765625 -0.21875q0.234375 0 0.40625 0.09375q0.1875 0.09375 0.3125 0.265625l1.15625 1.4375q-0.65625 0.765625 -1.484375 1.296875q-0.8125 0.515625 -1.703125 0.828125q-0.875 0.3125 -1.796875 0.4375q-0.921875 0.125 -1.78125 0.125q-1.71875 0 -3.1875 -0.5625q-1.46875 -0.5625 -2.5625 -1.671875q-1.09375 -1.125 -1.71875 -2.765625q-0.609375 -1.640625 -0.609375 -3.796875q0 -1.671875 0.53125 -3.15625q0.546875 -1.484375 1.5625 -2.578125q1.015625 -1.09375 2.484375 -1.734375q1.46875 -0.640625 3.296875 -0.640625zm0.078125 2.828125q-1.71875 0 -2.703125 0.984375q-0.96875 0.96875 -1.234375 2.765625l7.421875 0q0 -0.765625 -0.21875 -1.4375q-0.203125 -0.6875 -0.640625 -1.203125q-0.421875 -0.515625 -1.078125 -0.8125q-0.65625 -0.296875 -1.546875 -0.296875zm17.02591 -2.828125q1.5625 0 2.859375 0.5q1.3125 0.484375 2.25 1.4375q0.9375 0.953125 1.46875 2.34375q0.53125 1.375 0.53125 3.15625q0 0.453125 -0.046875 0.75q-0.03125 0.296875 -0.140625 0.46875q-0.09375 0.15625 -0.28125 0.234375q-0.171875 0.0625 -0.4375 0.0625l-10.15625 0q0.1875 2.53125 1.359375 3.71875q1.1875 1.1875 3.140625 1.1875q0.96875 0 1.65625 -0.21875q0.703125 -0.234375 1.21875 -0.5q0.515625 -0.28125 0.90625 -0.5q0.390625 -0.21875 0.765625 -0.21875q0.234375 0 0.40625 0.09375q0.1875 0.09375 0.3125 0.265625l1.15625 1.4375q-0.65625 0.765625 -1.484375 1.296875q-0.8125 0.515625 -1.703125 0.828125q-0.875 0.3125 -1.796875 0.4375q-0.921875 0.125 -1.78125 0.125q-1.71875 0 -3.1875 -0.5625q-1.46875 -0.5625 -2.5625 -1.671875q-1.09375 -1.125 -1.71875 -2.765625q-0.609375 -1.640625 -0.609375 -3.796875q0 -1.671875 0.53125 -3.15625q0.546875 -1.484375 1.5625 -2.578125q1.015625 -1.09375 2.484375 -1.734375q1.46875 -0.640625 3.296875 -0.640625zm0.078125 2.828125q-1.71875 0 -2.703125 0.984375q-0.96875 0.96875 -1.234375 2.765625l7.421875 0q0 -0.765625 -0.21875 -1.4375q-0.203125 -0.6875 -0.640625 -1.203125q-0.421875 -0.515625 -1.078125 -0.8125q-0.65625 -0.296875 -1.546875 -0.296875z" fill-rule="nonzero"></path><path fill="#6d9eeb" d="m188.36356 95.849686l0 0c0 -8.671303 7.4243164 -15.70079 16.582672 -15.70079l0 0c4.3980103 0 8.615875 1.6541901 11.725723 4.5986557c3.1098633 2.9444733 4.856964 6.9380264 4.856964 11.102135l0 0c0 8.671303 -7.4243164 15.70079 -16.582687 15.70079l0 0c-9.158356 0 -16.582672 -7.0294876 -16.582672 -15.70079z" fill-rule="nonzero"></path><path fill="#666666" d="m392.92166 317.5327l0 0c0 -58.994446 50.56714 -106.81889 112.944885 -106.81889l0 0c29.954865 0 58.68283 11.254105 79.864105 31.286545c21.181274 20.03241 33.08075 47.20224 33.08075 75.53235l0 0c0 58.994446 -50.56714 106.81891 -112.944855 106.81891l0 0c-62.377747 0 -112.944885 -47.824463 -112.944885 -106.81891z" fill-rule="nonzero"></path><path fill="#000000" fill-opacity="0.0" d="m571.73083 209.59753l0 0c12.297058 -20.347458 29.164978 -36.79065 48.940857 -47.70845l56.664368 126.15297z" fill-rule="nonzero"></path><path fill="#000000" fill-opacity="0.0" d="m571.73083 209.59753l0 0c12.297058 -20.347458 29.164978 -36.79065 48.940857 -47.70845" fill-rule="nonzero"></path><path stroke="#666666" stroke-width="3.0" stroke-linejoin="round" stroke-linecap="butt" d="m579.2569 198.39005l0.5192871 -0.6949005c0.22009277 -0.292099 0.44122314 -0.5831604 0.6633301 -0.8731842c0.4442749 -0.58006287 0.8927002 -1.1559448 1.3451538 -1.7276306c3.619629 -4.573517 7.4990234 -8.87767 11.6119995 -12.887146c8.226135 -8.018951 17.387146 -14.859192 27.275024 -20.3181" fill-rule="evenodd"></path><path fill="#666666" stroke="#666666" stroke-width="3.0" stroke-linecap="butt" d="m576.5029 196.54068l-2.3271484 9.415924l7.835144 -5.7171783z" fill-rule="evenodd"></path><path fill="#000000" fill-opacity="0.0" d="m387.76373 153.3412l215.1496 0l0 62.740158l-215.1496 0z" fill-rule="nonzero"></path><path fill="#6d9eeb" d="m472.15686 195.37129l-3.015625 0q-0.515625 0 -0.84375 -0.25q-0.3125 -0.25 -0.46875 -0.640625l-1.5625 -4.265625l-8.6875 0l-1.5625 4.265625q-0.109375 0.34375 -0.453125 0.625q-0.34375 0.265625 -0.828125 0.265625l-3.03125 0l8.234375 -20.96875l3.984375 0l8.234375 20.96875zm-13.578125 -7.921875l6.6875 0l-2.546875 -6.96875q-0.171875 -0.46875 -0.390625 -1.09375q-0.203125 -0.625 -0.40625 -1.375q-0.203125 0.75 -0.40625 1.390625q-0.1875 0.625 -0.375 1.109375l-2.5625 6.9375zm26.22937 -3.8125q-0.171875 0.203125 -0.328125 0.328125q-0.140625 0.109375 -0.4375 0.109375q-0.265625 0 -0.53125 -0.15625q-0.265625 -0.171875 -0.625 -0.375q-0.359375 -0.21875 -0.859375 -0.390625q-0.5 -0.171875 -1.234375 -0.171875q-0.953125 0 -1.671875 0.34375q-0.703125 0.34375 -1.171875 0.984375q-0.46875 0.640625 -0.703125 1.546875q-0.234375 0.90625 -0.234375 2.046875q0 1.1875 0.25 2.125q0.265625 0.921875 0.734375 1.5625q0.484375 0.625 1.15625 0.953125q0.6875 0.3125 1.546875 0.3125q0.859375 0 1.375 -0.203125q0.53125 -0.203125 0.890625 -0.453125q0.375 -0.265625 0.640625 -0.46875q0.265625 -0.21875 0.609375 -0.21875q0.421875 0 0.640625 0.328125l1.03125 1.3125q-0.59375 0.703125 -1.296875 1.171875q-0.6875 0.46875 -1.4375 0.75q-0.75 0.28125 -1.546875 0.390625q-0.796875 0.125 -1.578125 0.125q-1.375 0 -2.59375 -0.515625q-1.21875 -0.515625 -2.125 -1.5q-0.90625 -0.984375 -1.4375 -2.40625q-0.53125 -1.4375 -0.53125 -3.265625q0 -1.640625 0.46875 -3.03125q0.484375 -1.40625 1.390625 -2.421875q0.921875 -1.03125 2.265625 -1.609375q1.34375 -0.578125 3.109375 -0.578125q1.65625 0 2.90625 0.546875q1.265625 0.53125 2.265625 1.53125l-0.9375 1.296875zm8.411499 11.96875q-1.921875 0 -2.96875 -1.09375q-1.046875 -1.09375 -1.046875 -3.03125l0 -8.296875l-1.5 0q-0.296875 0 -0.515625 -0.1875q-0.203125 -0.203125 -0.203125 -0.578125l0 -1.421875l2.390625 -0.390625l0.765625 -4.0625q0.046875 -0.28125 0.25 -0.4375q0.21875 -0.171875 0.546875 -0.171875l1.84375 0l0 4.6875l3.921875 0l0 2.5625l-3.921875 0l0 8.0625q0 0.6875 0.34375 1.078125q0.359375 0.390625 0.9375 0.390625q0.328125 0 0.546875 -0.078125q0.234375 -0.078125 0.40625 -0.15625q0.171875 -0.09375 0.296875 -0.171875q0.125 -0.078125 0.265625 -0.078125q0.15625 0 0.25 0.078125q0.109375 0.078125 0.21875 0.234375l1.078125 1.734375q-0.78125 0.65625 -1.796875 1.0q-1.015625 0.328125 -2.109375 0.328125zm10.287567 -15.109375l0 14.875l-3.59375 0l0 -14.875l3.59375 0zm0.53125 -4.34375q0 0.46875 -0.1875 0.875q-0.1875 0.40625 -0.5 0.71875q-0.3125 0.296875 -0.734375 0.484375q-0.421875 0.171875 -0.90625 0.171875q-0.453125 0 -0.875 -0.171875q-0.40625 -0.1875 -0.71875 -0.484375q-0.296875 -0.3125 -0.484375 -0.71875q-0.171875 -0.40625 -0.171875 -0.875q0 -0.46875 0.171875 -0.890625q0.1875 -0.421875 0.484375 -0.71875q0.3125 -0.3125 0.71875 -0.484375q0.421875 -0.1875 0.875 -0.1875q0.484375 0 0.90625 0.1875q0.421875 0.171875 0.734375 0.484375q0.3125 0.296875 0.5 0.71875q0.1875 0.421875 0.1875 0.890625zm9.947968 4.109375q1.671875 0 3.015625 0.546875q1.359375 0.53125 2.3125 1.515625q0.96875 0.984375 1.484375 2.40625q0.53125 1.421875 0.53125 3.171875q0 1.765625 -0.53125 3.1875q-0.515625 1.421875 -1.484375 2.421875q-0.953125 1.0 -2.3125 1.546875q-1.34375 0.53125 -3.015625 0.53125q-1.671875 0 -3.03125 -0.53125q-1.359375 -0.546875 -2.328125 -1.546875q-0.96875 -1.0 -1.5 -2.421875q-0.515625 -1.421875 -0.515625 -3.1875q0 -1.75 0.515625 -3.171875q0.53125 -1.421875 1.5 -2.40625q0.96875 -0.984375 2.328125 -1.515625q1.359375 -0.546875 3.03125 -0.546875zm0 12.578125q1.859375 0 2.75 -1.25q0.890625 -1.25 0.890625 -3.65625q0 -2.40625 -0.890625 -3.671875q-0.890625 -1.265625 -2.75 -1.265625q-1.890625 0 -2.796875 1.28125q-0.890625 1.265625 -0.890625 3.65625q0 2.390625 0.890625 3.65625q0.90625 1.25 2.796875 1.25zm10.313782 2.53125l0 -14.875l2.203125 0q0.6875 0 0.90625 0.65625l0.25 1.171875q0.453125 -0.46875 0.953125 -0.84375q0.5 -0.375 1.046875 -0.640625q0.5625 -0.28125 1.203125 -0.421875q0.640625 -0.15625 1.390625 -0.15625q1.21875 0 2.15625 0.421875q0.953125 0.40625 1.578125 1.15625q0.625 0.75 0.953125 1.78125q0.328125 1.03125 0.328125 2.28125l0 9.46875l-3.578125 0l0 -9.46875q0 -1.359375 -0.640625 -2.109375q-0.625 -0.75 -1.890625 -0.75q-0.921875 0 -1.734375 0.421875q-0.8125 0.421875 -1.53125 1.140625l0 10.765625l-3.59375 0z" fill-rule="nonzero"></path><path fill="#000000" fill-opacity="0.0" d="m618.27295 169.87927l268.315 0l0 117.5748l-268.315 0z" fill-rule="nonzero"></path><path fill="#666666" d="m632.64795 199.76552q0 -0.578125 0.03125 -1.09375q0.03125 -0.515625 0.0625 -0.984375q0.03125 -0.484375 0.0625 -0.96875q0.03125 -0.484375 0.03125 -1.015625q0 -0.3125 -0.125 -0.59375q-0.125 -0.28125 -0.46875 -0.515625q-0.328125 -0.234375 -0.9375 -0.375q-0.59375 -0.15625 -1.515625 -0.15625l0 -1.09375q0.921875 0 1.515625 -0.140625q0.609375 -0.140625 0.9375 -0.375q0.34375 -0.234375 0.46875 -0.515625q0.125 -0.28125 0.125 -0.59375q0 -1.015625 -0.09375 -1.984375q-0.09375 -0.984375 -0.09375 -2.078125q0 -0.8125 0.234375 -1.34375q0.234375 -0.546875 0.703125 -0.859375q0.484375 -0.3125 1.21875 -0.453125q0.75 -0.140625 1.734375 -0.140625l1.28125 0l0 1.015625l-1.09375 0q-0.796875 0 -1.3125 0.109375q-0.515625 0.09375 -0.796875 0.328125q-0.28125 0.21875 -0.390625 0.59375q-0.109375 0.359375 -0.109375 0.859375q0 0.90625 0.0625 1.859375q0.0625 0.953125 0.0625 1.9375q0 1.03125 -0.40625 1.578125q-0.40625 0.53125 -1.5 0.71875l0 0.078125q1.09375 0.1875 1.5 0.734375q0.40625 0.53125 0.40625 1.5625q0 1.0625 -0.0625 1.953125q-0.0625 0.875 -0.0625 1.84375q0 0.5 0.109375 0.859375q0.109375 0.375 0.390625 0.59375q0.28125 0.21875 0.796875 0.328125q0.515625 0.109375 1.3125 0.109375l1.09375 0l0 1.0l-1.28125 0q-0.984375 0 -1.734375 -0.140625q-0.734375 -0.125 -1.21875 -0.453125q-0.46875 -0.3125 -0.703125 -0.84375q-0.234375 -0.53125 -0.234375 -1.34375z" fill-rule="nonzero"></path><path fill="#666666" d="m658.8512 211.6874q-0.984375 0.5625 -1.546875 1.40625q-0.5625 0.828125 -0.625 1.90625q0.25 -0.125 0.546875 -0.125q0.65625 0 1.0625 0.421875q0.40625 0.421875 0.40625 1.09375q0 0.734375 -0.4375 1.1875q-0.4375 0.4375 -1.109375 0.4375q-0.828125 0 -1.359375 -0.65625q-0.53125 -0.671875 -0.53125 -1.875q0 -1.5625 0.796875 -2.8125q0.796875 -1.25 2.21875 -1.984375l0.578125 1.0zm4.0 0q-0.984375 0.5625 -1.546875 1.40625q-0.5625 0.828125 -0.625 1.90625q0.25 -0.125 0.546875 -0.125q0.65625 0 1.0625 0.421875q0.40625 0.421875 0.40625 1.09375q0 0.734375 -0.4375 1.1875q-0.4375 0.4375 -1.109375 0.4375q-0.828125 0 -1.359375 -0.65625q-0.53125 -0.671875 -0.53125 -1.875q0 -1.5625 0.796875 -2.8125q0.796875 -1.25 2.21875 -1.984375l0.578125 1.0zm3.015686 -0.125l1.75 0l1.109375 8.65625q0.046875 0.875 0.140625 1.703125q0.09375 0.828125 0.15625 1.6875l0.0625 0q0.234375 -0.859375 0.453125 -1.6875q0.21875 -0.84375 0.4375 -1.703125l1.4375 -5.09375l1.25 0l1.4375 5.09375q0.1875 0.828125 0.40625 1.6875q0.234375 0.84375 0.453125 1.703125l0.09375 0q0.0625 -0.859375 0.140625 -1.6875q0.09375 -0.84375 0.15625 -1.703125l1.046875 -8.65625l1.65625 0l-2.03125 13.796875l-1.9375 0l-1.578125 -5.78125q-0.140625 -0.609375 -0.265625 -1.234375q-0.125 -0.625 -0.234375 -1.234375l-0.0625 0q-0.125 0.609375 -0.25 1.234375q-0.125 0.625 -0.296875 1.234375l-1.515625 5.78125l-1.890625 0l-2.125 -13.796875zm14.546875 -1.15625l1.71875 0l0 4.078125l-0.078125 2.40625q0.8125 -0.859375 1.734375 -1.421875q0.9375 -0.5625 2.125 -0.5625q1.828125 0 2.671875 1.046875q0.859375 1.03125 0.859375 3.0625l0 6.34375l-1.71875 0l0 -6.109375q0 -1.453125 -0.546875 -2.15625q-0.546875 -0.703125 -1.8125 -0.703125q-0.453125 0 -0.84375 0.125q-0.390625 0.109375 -0.78125 0.34375q-0.375 0.21875 -0.78125 0.578125q-0.390625 0.34375 -0.828125 0.796875l0 7.125l-1.71875 0l0 -14.953125zm12.546936 12.3125q0 -0.859375 0.40625 -1.5q0.40625 -0.640625 1.296875 -1.109375q0.90625 -0.46875 2.3125 -0.75q1.40625 -0.296875 3.375 -0.46875q-0.015625 -0.53125 -0.171875 -0.984375q-0.140625 -0.46875 -0.46875 -0.8125q-0.3125 -0.34375 -0.828125 -0.546875q-0.5 -0.21875 -1.234375 -0.21875q-1.015625 0 -1.9375 0.390625q-0.921875 0.390625 -1.640625 0.828125l-0.671875 -1.171875q0.375 -0.25 0.890625 -0.515625q0.515625 -0.265625 1.09375 -0.46875q0.578125 -0.21875 1.21875 -0.34375q0.65625 -0.140625 1.328125 -0.140625q2.109375 0 3.125 1.140625q1.015625 1.140625 1.015625 3.046875l0 6.265625l-1.40625 0l-0.140625 -1.390625l-0.0625 0q-0.859375 0.671875 -1.90625 1.15625q-1.03125 0.484375 -2.125 0.484375q-0.71875 0 -1.359375 -0.203125q-0.625 -0.1875 -1.09375 -0.546875q-0.46875 -0.375 -0.75 -0.90625q-0.265625 -0.546875 -0.265625 -1.234375zm1.671875 -0.125q0 0.4375 0.1875 0.75q0.203125 0.296875 0.5 0.5q0.3125 0.1875 0.71875 0.28125q0.40625 0.09375 0.84375 0.09375q0.890625 0 1.734375 -0.375q0.859375 -0.390625 1.734375 -1.125l0 -2.6875q-1.640625 0.125 -2.75 0.359375q-1.09375 0.21875 -1.765625 0.546875q-0.65625 0.328125 -0.9375 0.734375q-0.265625 0.40625 -0.265625 0.921875zm13.750061 -6.03125l-2.875 0l0 -1.296875l2.9375 -0.109375l0.234375 -2.859375l1.421875 0l0 2.859375l5.015625 0l0 1.40625l-5.015625 0l0 4.84375q0 0.703125 0.125 1.21875q0.125 0.515625 0.421875 0.875q0.296875 0.34375 0.796875 0.53125q0.5 0.171875 1.234375 0.171875q0.734375 0 1.328125 -0.125q0.59375 -0.125 1.140625 -0.328125l0.375 1.25q-0.703125 0.25 -1.546875 0.421875q-0.828125 0.1875 -1.671875 0.1875q-1.109375 0 -1.875 -0.296875q-0.75 -0.3125 -1.203125 -0.859375q-0.453125 -0.5625 -0.65625 -1.34375q-0.1875 -0.78125 -0.1875 -1.71875l0 -4.828125zm13.546936 3.921875q-0.125 -0.75 0.0625 -1.328125q0.1875 -0.59375 0.546875 -1.078125q0.375 -0.484375 0.84375 -0.90625q0.46875 -0.421875 0.875 -0.828125q0.40625 -0.40625 0.671875 -0.84375q0.28125 -0.453125 0.28125 -1.0q0 -0.875 -0.578125 -1.453125q-0.578125 -0.578125 -1.734375 -0.578125q-0.796875 0 -1.484375 0.328125q-0.671875 0.3125 -1.25 0.890625l-1.03125 -0.953125q0.71875 -0.734375 1.6875 -1.21875q0.96875 -0.484375 2.1875 -0.484375q0.875 0 1.59375 0.234375q0.71875 0.234375 1.21875 0.671875q0.515625 0.421875 0.796875 1.03125q0.296875 0.59375 0.296875 1.34375q0 0.6875 -0.296875 1.234375q-0.28125 0.53125 -0.6875 0.984375q-0.40625 0.453125 -0.875 0.875q-0.46875 0.421875 -0.859375 0.890625q-0.390625 0.453125 -0.609375 0.984375q-0.21875 0.53125 -0.125 1.203125l-1.53125 0zm-0.609375 3.484375q0 -0.734375 0.453125 -1.15625q0.453125 -0.4375 1.078125 -0.4375q0.640625 0 1.078125 0.4375q0.453125 0.421875 0.453125 1.15625q0 0.765625 -0.453125 1.203125q-0.4375 0.4375 -1.078125 0.4375q-0.625 0 -1.078125 -0.4375q-0.453125 -0.4375 -0.453125 -1.203125zm10.890625 -6.96875q1.0 -0.546875 1.546875 -1.375q0.5625 -0.828125 0.625 -1.9375q-0.25 0.125 -0.546875 0.125q-0.671875 0 -1.078125 -0.40625q-0.40625 -0.421875 -0.40625 -1.09375q0 -0.734375 0.4375 -1.171875q0.453125 -0.453125 1.125 -0.453125q0.828125 0 1.34375 0.671875q0.53125 0.671875 0.53125 1.859375q0 1.578125 -0.796875 2.828125q-0.796875 1.234375 -2.203125 1.96875l-0.578125 -1.015625zm4.0 0q1.0 -0.546875 1.546875 -1.375q0.5625 -0.828125 0.625 -1.9375q-0.25 0.125 -0.546875 0.125q-0.671875 0 -1.078125 -0.40625q-0.40625 -0.421875 -0.40625 -1.09375q0 -0.734375 0.4375 -1.171875q0.453125 -0.453125 1.125 -0.453125q0.828125 0 1.34375 0.671875q0.53125 0.671875 0.53125 1.859375q0 1.578125 -0.796875 2.828125q-0.796875 1.234375 -2.203125 1.96875l-0.578125 -1.015625zm10.828186 -1.15625q0 -0.796875 0.5 -1.28125q0.5 -0.5 1.203125 -0.5q0.71875 0 1.203125 0.5q0.5 0.484375 0.5 1.28125q0 0.796875 -0.5 1.28125q-0.484375 0.484375 -1.203125 0.484375q-0.703125 0 -1.203125 -0.484375q-0.5 -0.484375 -0.5 -1.28125zm0 8.0q0 -0.796875 0.5 -1.28125q0.5 -0.5 1.203125 -0.5q0.71875 0 1.203125 0.5q0.5 0.484375 0.5 1.28125q0 0.796875 -0.5 1.28125q-0.484375 0.484375 -1.203125 0.484375q-0.703125 0 -1.203125 -0.484375q-0.5 -0.484375 -0.5 -1.28125zm26.984497 -12.15625q-0.984375 0.5625 -1.546875 1.40625q-0.5625 0.828125 -0.625 1.90625q0.25 -0.125 0.546875 -0.125q0.65625 0 1.0625 0.421875q0.40625 0.421875 0.40625 1.09375q0 0.734375 -0.4375 1.1875q-0.4375 0.4375 -1.109375 0.4375q-0.828125 0 -1.359375 -0.65625q-0.53125 -0.671875 -0.53125 -1.875q0 -1.5625 0.796875 -2.8125q0.796875 -1.25 2.21875 -1.984375l0.578125 1.0zm4.0 0q-0.984375 0.5625 -1.546875 1.40625q-0.5625 0.828125 -0.625 1.90625q0.25 -0.125 0.546875 -0.125q0.65625 0 1.0625 0.421875q0.40625 0.421875 0.40625 1.09375q0 0.734375 -0.4375 1.1875q-0.4375 0.4375 -1.109375 0.4375q-0.828125 0 -1.359375 -0.65625q-0.53125 -0.671875 -0.53125 -1.875q0 -1.5625 0.796875 -2.8125q0.796875 -1.25 2.21875 -1.984375l0.578125 1.0zm4.8125 12.1875l3.421875 0l0 -10.828125l-3.421875 0l0 -1.46875l8.609375 0l0 1.46875l-3.421875 0l0 10.828125l3.421875 0l0 1.484375l-8.609375 0l0 -1.484375zm12.062561 -8.71875l1.34375 0l0.140625 1.34375l0.0625 0q0.375 -0.71875 0.890625 -1.15625q0.515625 -0.4375 1.40625 -0.4375q1.546875 0 1.921875 1.765625q0.46875 -0.796875 1.015625 -1.28125q0.546875 -0.484375 1.40625 -0.484375q1.0625 0 1.640625 0.8125q0.578125 0.796875 0.578125 2.328125l0 7.3125l-1.65625 0l0 -7.15625q0 -1.8125 -1.109375 -1.8125q-0.546875 0 -0.953125 0.390625q-0.390625 0.390625 -0.796875 1.1875l0 7.390625l-1.375 0l0 -7.15625q0 -1.8125 -1.15625 -1.8125q-0.546875 0 -0.9375 0.390625q-0.375 0.390625 -0.765625 1.1875l0 7.390625l-1.65625 0l0 -10.203125zm13.234436 7.5625q0 -0.859375 0.40625 -1.5q0.40625 -0.640625 1.296875 -1.109375q0.90625 -0.46875 2.3125 -0.75q1.40625 -0.296875 3.375 -0.46875q-0.015625 -0.53125 -0.171875 -0.984375q-0.140625 -0.46875 -0.46875 -0.8125q-0.3125 -0.34375 -0.828125 -0.546875q-0.5 -0.21875 -1.234375 -0.21875q-1.015625 0 -1.9375 0.390625q-0.921875 0.390625 -1.640625 0.828125l-0.671875 -1.171875q0.375 -0.25 0.890625 -0.515625q0.515625 -0.265625 1.09375 -0.46875q0.578125 -0.21875 1.21875 -0.34375q0.65625 -0.140625 1.328125 -0.140625q2.109375 0 3.125 1.140625q1.015625 1.140625 1.015625 3.046875l0 6.265625l-1.40625 0l-0.140625 -1.390625l-0.0625 0q-0.859375 0.671875 -1.90625 1.15625q-1.03125 0.484375 -2.125 0.484375q-0.71875 0 -1.359375 -0.203125q-0.625 -0.1875 -1.09375 -0.546875q-0.46875 -0.375 -0.75 -0.90625q-0.265625 -0.546875 -0.265625 -1.234375zm1.671875 -0.125q0 0.4375 0.1875 0.75q0.203125 0.296875 0.5 0.5q0.3125 0.1875 0.71875 0.28125q0.40625 0.09375 0.84375 0.09375q0.890625 0 1.734375 -0.375q0.859375 -0.390625 1.734375 -1.125l0 -2.6875q-1.640625 0.125 -2.75 0.359375q-1.09375 0.21875 -1.765625 0.546875q-0.65625 0.328125 -0.9375 0.734375q-0.265625 0.40625 -0.265625 0.921875zm12.421936 4.46875q0 0.796875 0.84375 1.296875q0.859375 0.5 2.5 0.5q0.875 0 1.59375 -0.171875q0.71875 -0.171875 1.21875 -0.46875q0.5 -0.296875 0.765625 -0.671875q0.265625 -0.375 0.265625 -0.78125q0 -0.734375 -0.578125 -0.984375q-0.578125 -0.25 -1.75 -0.25l-2.0 0q-0.4375 0 -0.828125 -0.03125q-0.390625 -0.03125 -0.71875 -0.140625q-0.75 0.40625 -1.03125 0.828125q-0.28125 0.4375 -0.28125 0.875zm-1.484375 0.171875q0 -0.609375 0.421875 -1.203125q0.4375 -0.59375 1.25 -1.078125l0 -0.078125q-0.421875 -0.234375 -0.734375 -0.625q-0.3125 -0.40625 -0.3125 -1.046875q0 -0.484375 0.3125 -1.0q0.3125 -0.515625 0.90625 -0.921875l0 -0.078125q-0.53125 -0.40625 -0.90625 -1.0625q-0.359375 -0.65625 -0.359375 -1.578125q0 -0.84375 0.328125 -1.515625q0.328125 -0.671875 0.875 -1.140625q0.546875 -0.484375 1.265625 -0.734375q0.734375 -0.265625 1.546875 -0.265625q0.84375 0 1.515625 0.25l4.21875 0l0 1.3125l-2.734375 0q0.359375 0.390625 0.65625 0.9375q0.296875 0.546875 0.296875 1.21875q0 0.8125 -0.3125 1.46875q-0.296875 0.640625 -0.84375 1.09375q-0.53125 0.453125 -1.25 0.703125q-0.71875 0.234375 -1.546875 0.234375q-0.390625 0 -0.84375 -0.09375q-0.453125 -0.09375 -0.875 -0.28125q-0.796875 0.5 -0.796875 1.171875q0 0.609375 0.546875 0.890625q0.5625 0.28125 1.578125 0.28125l2.28125 0q1.96875 0 2.921875 0.546875q0.96875 0.546875 0.96875 1.859375q0 0.703125 -0.40625 1.359375q-0.390625 0.65625 -1.125 1.125q-0.734375 0.484375 -1.796875 0.78125q-1.046875 0.296875 -2.34375 0.296875q-2.25 0 -3.484375 -0.734375q-1.21875 -0.734375 -1.21875 -2.09375zm4.59375 -6.265625q0.984375 0 1.671875 -0.640625q0.6875 -0.65625 0.6875 -1.765625q0 -0.53125 -0.203125 -0.96875q-0.1875 -0.453125 -0.5 -0.765625q-0.3125 -0.3125 -0.75 -0.484375q-0.421875 -0.1875 -0.90625 -0.1875q-0.484375 0 -0.921875 0.1875q-0.421875 0.171875 -0.734375 0.484375q-0.3125 0.3125 -0.5 0.765625q-0.1875 0.4375 -0.1875 0.96875q0 1.109375 0.6875 1.765625q0.6875 0.640625 1.65625 0.640625zm8.140625 -0.6875q0 -1.265625 0.4375 -2.265625q0.4375 -1.0 1.15625 -1.6875q0.734375 -0.6875 1.671875 -1.046875q0.9375 -0.375 1.921875 -0.375q1.09375 0 1.953125 0.34375q0.859375 0.34375 1.453125 0.984375q0.59375 0.625 0.90625 1.515625q0.328125 0.875 0.328125 1.9375q0 0.28125 -0.015625 0.546875q-0.015625 0.25 -0.046875 0.4375l-7.984375 0q0.015625 0.828125 0.3125 1.484375q0.3125 0.640625 0.828125 1.109375q0.515625 0.453125 1.21875 0.703125q0.703125 0.25 1.546875 0.25q0.90625 0 1.640625 -0.25q0.75 -0.25 1.46875 -0.6875l0.609375 1.140625q-0.765625 0.46875 -1.734375 0.828125q-0.953125 0.359375 -2.1875 0.359375q-1.140625 0 -2.140625 -0.359375q-1.0 -0.375 -1.75 -1.046875q-0.734375 -0.6875 -1.171875 -1.671875q-0.421875 -1.0 -0.421875 -2.25zm8.234375 -0.84375q0 -1.53125 -0.8125 -2.34375q-0.796875 -0.828125 -2.21875 -0.828125q-0.625 0 -1.203125 0.21875q-0.578125 0.203125 -1.046875 0.609375q-0.453125 0.40625 -0.78125 1.0q-0.3125 0.59375 -0.40625 1.34375l6.46875 0zm5.671936 -2.4375q1.0 -0.546875 1.546875 -1.375q0.5625 -0.828125 0.625 -1.9375q-0.25 0.125 -0.546875 0.125q-0.671875 0 -1.078125 -0.40625q-0.40625 -0.421875 -0.40625 -1.09375q0 -0.734375 0.4375 -1.171875q0.453125 -0.453125 1.125 -0.453125q0.828125 0 1.34375 0.671875q0.53125 0.671875 0.53125 1.859375q0 1.578125 -0.796875 2.828125q-0.796875 1.234375 -2.203125 1.96875l-0.578125 -1.015625zm4.0 0q1.0 -0.546875 1.546875 -1.375q0.5625 -0.828125 0.625 -1.9375q-0.25 0.125 -0.546875 0.125q-0.671875 0 -1.078125 -0.40625q-0.40625 -0.421875 -0.40625 -1.09375q0 -0.734375 0.4375 -1.171875q0.453125 -0.453125 1.125 -0.453125q0.828125 0 1.34375 0.671875q0.53125 0.671875 0.53125 1.859375q0 1.578125 -0.796875 2.828125q-0.796875 1.234375 -2.203125 1.96875l-0.578125 -1.015625z" fill-rule="nonzero"></path><path fill="#666666" d="m630.4292 253.54677q0.796875 0 1.3125 -0.109375q0.515625 -0.109375 0.796875 -0.328125q0.296875 -0.21875 0.40625 -0.59375q0.109375 -0.359375 0.109375 -0.859375q0 -0.96875 -0.0625 -1.84375q-0.0625 -0.890625 -0.0625 -1.953125q0 -1.03125 0.390625 -1.5625q0.40625 -0.546875 1.484375 -0.734375l0 -0.078125q-1.078125 -0.1875 -1.484375 -0.71875q-0.390625 -0.546875 -0.390625 -1.578125q0 -0.984375 0.0625 -1.9375q0.0625 -0.953125 0.0625 -1.859375q0 -0.5 -0.109375 -0.859375q-0.109375 -0.375 -0.40625 -0.59375q-0.28125 -0.234375 -0.796875 -0.328125q-0.515625 -0.109375 -1.3125 -0.109375l-1.078125 0l0 -1.015625l1.28125 0q0.984375 0 1.703125 0.140625q0.734375 0.140625 1.21875 0.453125q0.484375 0.3125 0.703125 0.859375q0.234375 0.53125 0.234375 1.34375q0 1.09375 -0.09375 2.078125q-0.09375 0.96875 -0.09375 1.984375q0 0.3125 0.125 0.59375q0.125 0.28125 0.453125 0.515625q0.34375 0.234375 0.9375 0.375q0.609375 0.140625 1.53125 0.140625l0 1.09375q-0.921875 0 -1.53125 0.15625q-0.59375 0.140625 -0.9375 0.375q-0.328125 0.234375 -0.453125 0.515625q-0.125 0.28125 -0.125 0.59375q0 0.53125 0.03125 1.015625q0.03125 0.484375 0.0625 0.96875q0.03125 0.46875 0.0625 0.984375q0.03125 0.515625 0.03125 1.09375q0 0.8125 -0.234375 1.34375q-0.21875 0.53125 -0.703125 0.84375q-0.484375 0.328125 -1.21875 0.453125q-0.71875 0.140625 -1.703125 0.140625l-1.28125 0l0 -1.0l1.078125 0z" fill-rule="nonzero"></path><path fill="#000000" fill-opacity="0.0" d="m436.38046 287.46844l164.85043 0l0 62.740143l-164.85043 0z" fill-rule="nonzero"></path><path fill="#ffffff" d="m492.82498 317.33978q-0.15625 0.265625 -0.34375 0.375q-0.171875 0.09375 -0.4375 0.09375q-0.296875 0 -0.625 -0.15625q-0.328125 -0.171875 -0.765625 -0.359375q-0.421875 -0.203125 -0.984375 -0.359375q-0.546875 -0.171875 -1.296875 -0.171875q-1.171875 0 -1.84375 0.5q-0.671875 0.5 -0.671875 1.296875q0 0.53125 0.34375 0.890625q0.34375 0.359375 0.90625 0.640625q0.578125 0.265625 1.296875 0.484375q0.71875 0.203125 1.46875 0.46875q0.75 0.25 1.46875 0.578125q0.734375 0.328125 1.296875 0.84375q0.5625 0.5 0.90625 1.203125q0.34375 0.703125 0.34375 1.6875q0 1.1875 -0.4375 2.1875q-0.421875 1.0 -1.25 1.734375q-0.828125 0.71875 -2.0625 1.125q-1.21875 0.40625 -2.796875 0.40625q-0.859375 0 -1.671875 -0.15625q-0.796875 -0.140625 -1.546875 -0.40625q-0.734375 -0.28125 -1.375 -0.640625q-0.625 -0.375 -1.109375 -0.8125l0.90625 -1.5q0.1875 -0.265625 0.421875 -0.40625q0.234375 -0.15625 0.609375 -0.15625q0.359375 0 0.6875 0.21875q0.328125 0.203125 0.765625 0.453125q0.4375 0.234375 1.015625 0.4375q0.578125 0.203125 1.484375 0.203125q0.703125 0 1.203125 -0.15625q0.5 -0.171875 0.828125 -0.4375q0.328125 -0.28125 0.484375 -0.640625q0.15625 -0.359375 0.15625 -0.75q0 -0.578125 -0.34375 -0.9375q-0.34375 -0.375 -0.921875 -0.640625q-0.5625 -0.28125 -1.296875 -0.484375q-0.71875 -0.21875 -1.484375 -0.46875q-0.75 -0.265625 -1.484375 -0.609375q-0.734375 -0.34375 -1.296875 -0.875q-0.5625 -0.53125 -0.90625 -1.296875q-0.34375 -0.765625 -0.34375 -1.84375q0 -1.015625 0.390625 -1.921875q0.40625 -0.921875 1.171875 -1.59375q0.78125 -0.6875 1.9375 -1.09375q1.171875 -0.40625 2.6875 -0.40625q1.703125 0 3.09375 0.5625q1.390625 0.5625 2.3125 1.46875l-0.890625 1.421875zm4.234009 13.21875l0 -23.78125l3.953125 0l0 9.140625q0.96875 -0.90625 2.109375 -1.46875q1.15625 -0.5625 2.703125 -0.5625q1.34375 0 2.375 0.453125q1.046875 0.453125 1.75 1.28125q0.703125 0.828125 1.0625 1.96875q0.359375 1.140625 0.359375 2.515625l0 10.453125l-3.953125 0l0 -10.453125q0 -1.5 -0.703125 -2.3125q-0.6875 -0.828125 -2.078125 -0.828125q-1.03125 0 -1.9375 0.46875q-0.890625 0.453125 -1.6875 1.25l0 11.875l-3.953125 0zm25.207672 -16.671875q1.828125 0 3.328125 0.59375q1.5 0.59375 2.546875 1.6875q1.0625 1.078125 1.640625 2.65625q0.578125 1.5625 0.578125 3.5q0 1.953125 -0.578125 3.515625q-0.578125 1.5625 -1.640625 2.671875q-1.046875 1.109375 -2.546875 1.703125q-1.5 0.578125 -3.328125 0.578125q-1.84375 0 -3.359375 -0.578125q-1.5 -0.59375 -2.5625 -1.703125q-1.0625 -1.109375 -1.65625 -2.671875q-0.578125 -1.5625 -0.578125 -3.515625q0 -1.9375 0.578125 -3.5q0.59375 -1.578125 1.65625 -2.65625q1.0625 -1.09375 2.5625 -1.6875q1.515625 -0.59375 3.359375 -0.59375zm0 13.875q2.046875 0 3.03125 -1.375q0.984375 -1.375 0.984375 -4.03125q0 -2.65625 -0.984375 -4.046875q-0.984375 -1.390625 -3.03125 -1.390625q-2.078125 0 -3.078125 1.40625q-0.984375 1.390625 -0.984375 4.03125q0 2.640625 0.984375 4.03125q1.0 1.375 3.078125 1.375zm9.176392 -13.625l3.140625 0q0.453125 0 0.75 0.21875q0.296875 0.203125 0.390625 0.515625l2.34375 8.78125q0.1875 0.71875 0.3125 1.40625q0.125 0.6875 0.234375 1.375q0.171875 -0.6875 0.375 -1.375q0.203125 -0.6875 0.421875 -1.40625l2.71875 -8.8125q0.09375 -0.3125 0.375 -0.515625q0.296875 -0.21875 0.6875 -0.21875l1.734375 0q0.4375 0 0.71875 0.21875q0.296875 0.203125 0.390625 0.515625l2.6875 8.96875q0.203125 0.6875 0.375 1.34375q0.171875 0.640625 0.328125 1.296875q0.109375 -0.6875 0.25 -1.375q0.140625 -0.6875 0.34375 -1.421875l2.4375 -8.78125q0.078125 -0.3125 0.375 -0.515625q0.3125 -0.21875 0.703125 -0.21875l3.0 0l-5.203125 16.421875l-3.1875 0q-0.515625 0 -0.734375 -0.703125l-2.953125 -9.484375q-0.15625 -0.46875 -0.28125 -0.9375q-0.109375 -0.46875 -0.1875 -0.9375q-0.09375 0.484375 -0.203125 0.953125q-0.109375 0.46875 -0.265625 0.953125l-2.984375 9.453125q-0.234375 0.703125 -0.859375 0.703125l-3.03125 0l-5.203125 -16.421875z" fill-rule="nonzero"></path><path fill="#6d9eeb" d="m548.3636 223.84969l0 0c0 -8.67131 7.4243164 -15.70079 16.582642 -15.70079l0 0c4.3980103 0 8.615906 1.6541901 11.725708 4.5986633c3.1098633 2.944458 4.8569946 6.938019 4.8569946 11.102127l0 0c0 8.67131 -7.4243164 15.70079 -16.582703 15.70079l0 0c-9.158325 0 -16.582642 -7.02948 -16.582642 -15.70079z" fill-rule="nonzero"></path></g></svg>

