<?xml version="1.0" standalone="yes"?>

<svg version="1.1" viewBox="0.0 0.0 491.0 488.0" fill="none" stroke="none" stroke-linecap="square" stroke-miterlimit="10" xmlns="http://www.w3.org/2000/svg" xmlns:xlink="http://www.w3.org/1999/xlink"><clipPath id="p.0"><path d="m0 0l491.0 0l0 488.0l-491.0 0l0 -488.0z" clip-rule="nonzero"></path></clipPath><g clip-path="url(#p.0)"><path fill="#000000" fill-opacity="0.0" d="m0 0l491.16272 0l0 488.8714l-491.16272 0z" fill-rule="nonzero"></path><path fill="#666666" d="m16.984251 245.20735l0 0c0 -126.547134 102.58672 -229.13387 229.13387 -229.13387l0 0c60.770065 0 119.05116 24.14082 162.02211 67.111755c42.970947 42.970932 67.111755 101.25202 67.111755 162.0221l0 0c0 126.547134 -102.58673 229.13387 -229.13387 229.13387l0 0c-126.54714 0 -229.13387 -102.58673 -229.13387 -229.13387z" fill-rule="nonzero"></path><path fill="#ffffff" d="m166.04724 126.52231l0 0c0 -32.319527 35.84543 -58.519684 80.06299 -58.519684l0 0c44.21759 0 80.06299 26.200157 80.06299 58.519684l0 0c0 32.319534 -35.845398 58.519684 -80.06299 58.519684l0 0c-44.21756 0 -80.06299 -26.20015 -80.06299 -58.519684z" fill-rule="nonzero"></path><path fill="#666666" d="m212.5825 123.53606q1.078125 0 1.96875 0.359375q0.890625 0.34375 1.515625 1.0q0.625 0.640625 0.96875 1.578125q0.34375 0.921875 0.34375 2.078125q0 1.15625 -0.34375 2.09375q-0.34375 0.921875 -0.96875 1.578125q-0.625 0.65625 -1.515625 1.015625q-0.890625 0.34375 -1.96875 0.34375q-1.09375 0 -2.0 -0.34375q-0.890625 -0.359375 -1.53125 -1.015625q-0.625 -0.65625 -0.96875 -1.578125q-0.34375 -0.9375 -0.34375 -2.09375q0 -1.15625 0.34375 -2.078125q0.34375 -0.9375 0.96875 -1.578125q0.640625 -0.65625 1.53125 -1.0q0.90625 -0.359375 2.0 -0.359375zm0 8.25q1.203125 0 1.78125 -0.8125q0.59375 -0.828125 0.59375 -2.40625q0 -1.578125 -0.59375 -2.40625q-0.578125 -0.828125 -1.78125 -0.828125q-1.234375 0 -1.828125 0.84375q-0.59375 0.828125 -0.59375 2.390625q0 1.5625 0.59375 2.390625q0.59375 0.828125 1.828125 0.828125zm12.231079 -6.1875q-0.109375 0.15625 -0.21875 0.21875q-0.09375 0.046875 -0.25 0.046875q-0.171875 0 -0.375 -0.09375q-0.1875 -0.09375 -0.453125 -0.203125q-0.25 -0.125 -0.578125 -0.21875q-0.328125 -0.09375 -0.765625 -0.09375q-0.703125 0 -1.109375 0.296875q-0.390625 0.296875 -0.390625 0.765625q0 0.3125 0.203125 0.53125q0.203125 0.203125 0.53125 0.375q0.34375 0.15625 0.765625 0.296875q0.4375 0.125 0.875 0.28125q0.453125 0.140625 0.875 0.34375q0.4375 0.1875 0.765625 0.484375q0.34375 0.296875 0.546875 0.71875q0.203125 0.421875 0.203125 1.0q0 0.703125 -0.265625 1.296875q-0.25 0.59375 -0.75 1.03125q-0.484375 0.4375 -1.21875 0.6875q-0.71875 0.234375 -1.65625 0.234375q-0.5 0 -0.984375 -0.09375q-0.484375 -0.09375 -0.921875 -0.25q-0.4375 -0.15625 -0.8125 -0.375q-0.375 -0.21875 -0.65625 -0.484375l0.53125 -0.890625q0.109375 -0.15625 0.25 -0.234375q0.140625 -0.09375 0.359375 -0.09375q0.21875 0 0.40625 0.125q0.203125 0.109375 0.453125 0.265625q0.265625 0.140625 0.609375 0.265625q0.34375 0.125 0.875 0.125q0.421875 0 0.71875 -0.09375q0.296875 -0.109375 0.484375 -0.265625q0.203125 -0.171875 0.296875 -0.375q0.09375 -0.21875 0.09375 -0.453125q0 -0.34375 -0.203125 -0.5625q-0.203125 -0.21875 -0.546875 -0.375q-0.328125 -0.15625 -0.765625 -0.28125q-0.4375 -0.140625 -0.890625 -0.28125q-0.453125 -0.15625 -0.890625 -0.359375q-0.421875 -0.203125 -0.765625 -0.515625q-0.328125 -0.328125 -0.53125 -0.78125q-0.203125 -0.453125 -0.203125 -1.09375q0 -0.609375 0.234375 -1.140625q0.234375 -0.546875 0.6875 -0.953125q0.46875 -0.40625 1.15625 -0.640625q0.6875 -0.25 1.59375 -0.25q1.015625 0 1.828125 0.34375q0.828125 0.328125 1.390625 0.875l-0.53125 0.84375zm1.7934113 6.546875q0 -0.296875 0.109375 -0.5625q0.109375 -0.265625 0.296875 -0.453125q0.203125 -0.1875 0.46875 -0.296875q0.265625 -0.109375 0.578125 -0.109375q0.296875 0 0.5625 0.109375q0.265625 0.109375 0.453125 0.296875q0.1875 0.1875 0.296875 0.453125q0.125 0.265625 0.125 0.5625q0 0.3125 -0.125 0.578125q-0.109375 0.25 -0.296875 0.453125q-0.1875 0.1875 -0.453125 0.296875q-0.265625 0.109375 -0.5625 0.109375q-0.3125 0 -0.578125 -0.109375q-0.265625 -0.109375 -0.46875 -0.296875q-0.1875 -0.203125 -0.296875 -0.453125q-0.109375 -0.265625 -0.109375 -0.578125zm12.260162 -9.9375q-0.109375 0.203125 -0.25 0.296875q-0.125 0.078125 -0.328125 0.078125q-0.1875 0 -0.421875 -0.140625q-0.234375 -0.15625 -0.5625 -0.328125q-0.3125 -0.1875 -0.75 -0.328125q-0.4375 -0.15625 -1.015625 -0.15625q-0.53125 0 -0.9375 0.140625q-0.390625 0.125 -0.671875 0.359375q-0.265625 0.21875 -0.40625 0.546875q-0.125 0.3125 -0.125 0.6875q0 0.484375 0.265625 0.8125q0.28125 0.3125 0.71875 0.546875q0.453125 0.21875 1.015625 0.40625q0.578125 0.1875 1.171875 0.390625q0.59375 0.203125 1.15625 0.46875q0.578125 0.265625 1.015625 0.6875q0.453125 0.40625 0.71875 1.015625q0.28125 0.59375 0.28125 1.453125q0 0.921875 -0.328125 1.734375q-0.3125 0.8125 -0.921875 1.421875q-0.609375 0.59375 -1.5 0.953125q-0.875 0.34375 -2.015625 0.34375q-0.65625 0 -1.296875 -0.140625q-0.640625 -0.125 -1.234375 -0.359375q-0.578125 -0.234375 -1.09375 -0.5625q-0.5 -0.34375 -0.890625 -0.75l0.734375 -1.21875q0.109375 -0.140625 0.25 -0.21875q0.15625 -0.09375 0.328125 -0.09375q0.25 0 0.515625 0.203125q0.28125 0.1875 0.65625 0.421875q0.375 0.234375 0.875 0.4375q0.515625 0.1875 1.234375 0.1875q1.078125 0 1.671875 -0.515625q0.609375 -0.515625 0.609375 -1.484375q0 -0.546875 -0.28125 -0.890625q-0.265625 -0.34375 -0.71875 -0.578125q-0.4375 -0.234375 -1.015625 -0.390625q-0.5625 -0.15625 -1.15625 -0.34375q-0.578125 -0.203125 -1.15625 -0.46875q-0.5625 -0.265625 -1.015625 -0.6875q-0.4375 -0.421875 -0.71875 -1.0625q-0.265625 -0.640625 -0.265625 -1.59375q0 -0.75 0.296875 -1.453125q0.296875 -0.71875 0.875 -1.265625q0.578125 -0.546875 1.40625 -0.875q0.84375 -0.34375 1.921875 -0.34375q1.21875 0 2.234375 0.390625q1.03125 0.375 1.75 1.0625l-0.625 1.203125zm9.368454 3.546875q-0.109375 0.140625 -0.21875 0.21875q-0.09375 0.0625 -0.28125 0.0625q-0.1875 0 -0.359375 -0.109375q-0.15625 -0.109375 -0.40625 -0.234375q-0.234375 -0.140625 -0.5625 -0.25q-0.328125 -0.109375 -0.8125 -0.109375q-0.609375 0 -1.078125 0.21875q-0.46875 0.21875 -0.78125 0.640625q-0.296875 0.421875 -0.453125 1.015625q-0.15625 0.59375 -0.15625 1.34375q0 0.78125 0.15625 1.390625q0.171875 0.609375 0.484375 1.015625q0.328125 0.40625 0.765625 0.625q0.453125 0.21875 1.015625 0.21875q0.546875 0 0.890625 -0.140625q0.359375 -0.140625 0.59375 -0.296875q0.234375 -0.171875 0.40625 -0.3125q0.1875 -0.140625 0.40625 -0.140625q0.28125 0 0.421875 0.21875l0.671875 0.859375q-0.390625 0.453125 -0.84375 0.765625q-0.453125 0.3125 -0.953125 0.5q-0.484375 0.171875 -1.015625 0.25q-0.515625 0.078125 -1.015625 0.078125q-0.90625 0 -1.703125 -0.328125q-0.796875 -0.34375 -1.390625 -0.984375q-0.59375 -0.65625 -0.953125 -1.59375q-0.34375 -0.9375 -0.34375 -2.125q0 -1.078125 0.3125 -1.984375q0.3125 -0.921875 0.90625 -1.59375q0.59375 -0.671875 1.484375 -1.046875q0.890625 -0.390625 2.03125 -0.390625q1.09375 0 1.90625 0.359375q0.828125 0.34375 1.484375 1.0l-0.609375 0.859375zm9.680283 7.6875l-1.046875 0q-0.34375 0 -0.53125 -0.09375q-0.1875 -0.109375 -0.28125 -0.40625l-0.203125 -0.703125q-0.375 0.34375 -0.734375 0.59375q-0.359375 0.25 -0.734375 0.421875q-0.375 0.171875 -0.8125 0.25q-0.421875 0.09375 -0.953125 0.09375q-0.609375 0 -1.140625 -0.171875q-0.515625 -0.171875 -0.890625 -0.5q-0.375 -0.328125 -0.59375 -0.8125q-0.203125 -0.5 -0.203125 -1.15625q0 -0.5625 0.28125 -1.09375q0.296875 -0.53125 0.96875 -0.96875q0.6875 -0.4375 1.796875 -0.71875q1.125 -0.28125 2.796875 -0.328125l0 -0.5625q0 -0.984375 -0.421875 -1.453125q-0.40625 -0.46875 -1.203125 -0.46875q-0.5625 0 -0.953125 0.140625q-0.375 0.125 -0.65625 0.296875q-0.28125 0.171875 -0.515625 0.3125q-0.234375 0.125 -0.515625 0.125q-0.25 0 -0.421875 -0.125q-0.171875 -0.125 -0.265625 -0.3125l-0.4375 -0.75q1.6875 -1.53125 4.0625 -1.53125q0.859375 0 1.515625 0.28125q0.671875 0.28125 1.140625 0.78125q0.46875 0.484375 0.703125 1.1875q0.25 0.6875 0.25 1.515625l0 6.15625zm-4.5625 -1.46875q0.359375 0 0.65625 -0.0625q0.3125 -0.0625 0.578125 -0.1875q0.28125 -0.140625 0.53125 -0.328125q0.25 -0.203125 0.515625 -0.46875l0 -1.640625q-1.03125 0.046875 -1.71875 0.171875q-0.6875 0.125 -1.109375 0.328125q-0.421875 0.203125 -0.59375 0.46875q-0.171875 0.265625 -0.171875 0.578125q0 0.609375 0.359375 0.875q0.375 0.265625 0.953125 0.265625zm6.688446 1.46875l0 -9.75l1.4375 0q0.453125 0 0.59375 0.4375l0.171875 0.765625q0.296875 -0.3125 0.625 -0.546875q0.328125 -0.25 0.6875 -0.421875q0.359375 -0.1875 0.78125 -0.28125q0.421875 -0.109375 0.90625 -0.109375q0.8125 0 1.421875 0.28125q0.625 0.265625 1.03125 0.765625q0.40625 0.484375 0.625 1.171875q0.21875 0.671875 0.21875 1.484375l0 6.203125l-2.34375 0l0 -6.203125q0 -0.890625 -0.421875 -1.375q-0.40625 -0.5 -1.234375 -0.5q-0.609375 0 -1.140625 0.28125q-0.53125 0.265625 -1.015625 0.75l0 7.046875l-2.34375 0zm13.106079 -14.109375l0 14.109375l-2.34375 0l0 -14.109375l2.34375 0zm2.5558472 14.109375l0 -9.75l1.4375 0q0.453125 0 0.59375 0.4375l0.171875 0.765625q0.296875 -0.3125 0.625 -0.546875q0.328125 -0.25 0.6875 -0.421875q0.359375 -0.1875 0.78125 -0.28125q0.421875 -0.109375 0.90625 -0.109375q0.8125 0 1.421875 0.28125q0.625 0.265625 1.03125 0.765625q0.40625 0.484375 0.625 1.171875q0.21875 0.671875 0.21875 1.484375l0 6.203125l-2.34375 0l0 -6.203125q0 -0.890625 -0.421875 -1.375q-0.40625 -0.5 -1.234375 -0.5q-0.609375 0 -1.140625 0.28125q-0.53125 0.265625 -1.015625 0.75l0 7.046875l-2.34375 0z" fill-rule="nonzero"></path><path fill="#000000" fill-opacity="0.0" d="m246.11023 185.04199l0 105.13385" fill-rule="nonzero"></path><path stroke="#ffffff" stroke-width="3.0" stroke-linejoin="round" stroke-linecap="butt" d="m246.11023 185.04199l0 105.13385" fill-rule="nonzero"></path><path fill="#000000" fill-opacity="0.0" d="m246.12599 260.93176l80.06297 0l0 36.944885l-80.06297 0z" fill-rule="nonzero"></path><path fill="#ffffff" d="m255.26662 272.7148l1.5156097 0q0.25 0 0.40625 0.125q0.171875 0.125 0.234375 0.3125l2.796875 9.453125q0.078125 0.265625 0.140625 0.5625q0.0625 0.28125 0.125 0.609375q0.0625 -0.328125 0.125 -0.625q0.078125 -0.296875 0.15625 -0.546875l3.203125 -9.453125q0.0625 -0.171875 0.21875 -0.296875q0.171875 -0.140625 0.40625 -0.140625l0.53125 0q0.25 0 0.40625 0.125q0.15625 0.125 0.21875 0.3125l3.1875 9.453125q0.171875 0.5 0.296875 1.140625q0.0625 -0.3125 0.109375 -0.59375q0.046875 -0.296875 0.125 -0.546875l2.828125 -9.453125q0.046875 -0.171875 0.203125 -0.296875q0.171875 -0.140625 0.40625 -0.140625l1.4375 0l-4.25 13.609375l-1.65625 0l-3.4375 -10.390625q-0.109375 -0.28125 -0.1875 -0.671875q-0.046875 0.1875 -0.09375 0.359375q-0.046875 0.171875 -0.09375 0.3125l-3.46875 10.390625l-1.65625 0l-4.2343597 -13.609375zm20.260727 13.609375l0 -9.625l0.96875 0q0.265625 0 0.375 0.109375q0.109375 0.09375 0.140625 0.359375l0.125 1.5q0.484375 -1.0 1.203125 -1.5625q0.734375 -0.578125 1.71875 -0.578125q0.390625 0 0.71875 0.09375q0.328125 0.09375 0.59375 0.25l-0.21875 1.265625q-0.0625 0.234375 -0.296875 0.234375q-0.125 0 -0.40625 -0.078125q-0.265625 -0.09375 -0.765625 -0.09375q-0.875 0 -1.46875 0.515625q-0.59375 0.5 -1.0 1.484375l0 6.125l-1.6875 0zm9.393463 -9.625l0 9.625l-1.6875 0l0 -9.625l1.6875 0zm0.375 -3.015625q0 0.25 -0.09375 0.46875q-0.09375 0.203125 -0.265625 0.375q-0.171875 0.15625 -0.390625 0.25q-0.21875 0.09375 -0.453125 0.09375q-0.25 0 -0.46875 -0.09375q-0.21875 -0.09375 -0.390625 -0.25q-0.15625 -0.171875 -0.25 -0.375q-0.09375 -0.21875 -0.09375 -0.46875q0 -0.25 0.09375 -0.46875q0.09375 -0.234375 0.25 -0.390625q0.171875 -0.171875 0.390625 -0.265625q0.21875 -0.09375 0.46875 -0.09375q0.234375 0 0.453125 0.09375q0.21875 0.09375 0.390625 0.265625q0.171875 0.15625 0.265625 0.390625q0.09375 0.21875 0.09375 0.46875zm5.432251 12.796875q-1.140625 0 -1.75 -0.640625q-0.609375 -0.640625 -0.609375 -1.828125l0 -5.890625l-1.15625 0q-0.15625 0 -0.265625 -0.09375q-0.09375 -0.09375 -0.09375 -0.28125l0 -0.671875l1.578125 -0.203125l0.390625 -2.96875q0.015625 -0.140625 0.109375 -0.234375q0.109375 -0.09375 0.28125 -0.09375l0.84375 0l0 3.3125l2.765625 0l0 1.234375l-2.765625 0l0 5.765625q0 0.609375 0.296875 0.90625q0.296875 0.296875 0.765625 0.296875q0.265625 0 0.453125 -0.0625q0.203125 -0.078125 0.34375 -0.15625q0.140625 -0.09375 0.234375 -0.15625q0.109375 -0.078125 0.1875 -0.078125q0.125 0 0.234375 0.15625l0.484375 0.8125q-0.4375 0.40625 -1.0625 0.640625q-0.609375 0.234375 -1.265625 0.234375zm7.8650208 -9.9375q0.859375 0 1.59375 0.296875q0.734375 0.28125 1.265625 0.828125q0.53125 0.546875 0.828125 1.359375q0.296875 0.796875 0.296875 1.828125q0 0.390625 -0.09375 0.53125q-0.078125 0.125 -0.3125 0.125l-6.40625 0q0.015625 0.921875 0.234375 1.59375q0.234375 0.671875 0.625 1.125q0.40625 0.453125 0.953125 0.671875q0.5625 0.21875 1.25 0.21875q0.640625 0 1.09375 -0.140625q0.453125 -0.140625 0.78125 -0.3125q0.34375 -0.171875 0.5625 -0.3125q0.234375 -0.15625 0.390625 -0.15625q0.203125 0 0.328125 0.15625l0.46875 0.625q-0.3125 0.375 -0.75 0.65625q-0.4375 0.28125 -0.9375 0.46875q-0.5 0.171875 -1.03125 0.265625q-0.53125 0.09375 -1.046875 0.09375q-1.0 0 -1.84375 -0.34375q-0.84375 -0.34375 -1.453125 -0.984375q-0.609375 -0.65625 -0.953125 -1.609375q-0.34375 -0.96875 -0.34375 -2.203125q0 -1.015625 0.3125 -1.890625q0.3125 -0.875 0.890625 -1.515625q0.578125 -0.640625 1.40625 -1.0q0.84375 -0.375 1.890625 -0.375zm0.03125 1.25q-1.21875 0 -1.921875 0.71875q-0.703125 0.703125 -0.875 1.953125l5.234375 0q0 -0.59375 -0.171875 -1.078125q-0.15625 -0.484375 -0.46875 -0.84375q-0.3125 -0.359375 -0.765625 -0.546875q-0.453125 -0.203125 -1.03125 -0.203125z" fill-rule="nonzero"></path><path fill="#ffffff" d="m166.04724 348.70602l0 0c0 -32.31952 35.84543 -58.519684 80.06299 -58.519684l0 0c44.21759 0 80.06299 26.200165 80.06299 58.519684l0 0c0 32.31955 -35.845398 58.519684 -80.06299 58.519684l0 0c-44.21756 0 -80.06299 -26.200134 -80.06299 -58.519684z" fill-rule="nonzero"></path><path fill="#666666" d="m211.14131 345.7198q1.078125 0 1.96875 0.359375q0.890625 0.34375 1.515625 1.0q0.625 0.640625 0.96875 1.578125q0.34375 0.921875 0.34375 2.078125q0 1.15625 -0.34375 2.09375q-0.34375 0.921875 -0.96875 1.578125q-0.625 0.65625 -1.515625 1.015625q-0.890625 0.34375 -1.96875 0.34375q-1.09375 0 -2.0 -0.34375q-0.890625 -0.359375 -1.53125 -1.015625q-0.625 -0.65625 -0.96875 -1.578125q-0.34375 -0.9375 -0.34375 -2.09375q0 -1.15625 0.34375 -2.078125q0.34375 -0.9375 0.96875 -1.578125q0.640625 -0.65625 1.53125 -1.0q0.90625 -0.359375 2.0 -0.359375zm0 8.25q1.203125 0 1.78125 -0.8125q0.59375 -0.828125 0.59375 -2.40625q0 -1.578125 -0.59375 -2.40625q-0.578125 -0.828125 -1.78125 -0.828125q-1.234375 0 -1.828125 0.84375q-0.59375 0.828125 -0.59375 2.390625q0 1.5625 0.59375 2.390625q0.59375 0.828125 1.828125 0.828125zm12.231079 -6.1875q-0.109375 0.15625 -0.21875 0.21875q-0.09375 0.046875 -0.25 0.046875q-0.171875 0 -0.375 -0.09375q-0.1875 -0.09375 -0.453125 -0.203125q-0.25 -0.125 -0.578125 -0.21875q-0.328125 -0.09375 -0.765625 -0.09375q-0.703125 0 -1.109375 0.296875q-0.390625 0.296875 -0.390625 0.765625q0 0.3125 0.203125 0.53125q0.203125 0.203125 0.53125 0.375q0.34375 0.15625 0.765625 0.296875q0.4375 0.125 0.875 0.28125q0.453125 0.140625 0.875 0.34375q0.4375 0.1875 0.765625 0.484375q0.34375 0.296875 0.546875 0.71875q0.203125 0.421875 0.203125 1.0q0 0.703125 -0.265625 1.296875q-0.25 0.59375 -0.75 1.03125q-0.484375 0.4375 -1.21875 0.6875q-0.71875 0.234375 -1.65625 0.234375q-0.5 0 -0.984375 -0.09375q-0.484375 -0.09375 -0.921875 -0.25q-0.4375 -0.15625 -0.8125 -0.375q-0.375 -0.21875 -0.65625 -0.484375l0.53125 -0.890625q0.109375 -0.15625 0.25 -0.234375q0.140625 -0.09375 0.359375 -0.09375q0.21875 0 0.40625 0.125q0.203125 0.109375 0.453125 0.265625q0.265625 0.140625 0.609375 0.265625q0.34375 0.125 0.875 0.125q0.421875 0 0.71875 -0.09375q0.296875 -0.109375 0.484375 -0.265625q0.203125 -0.171875 0.296875 -0.375q0.09375 -0.21875 0.09375 -0.453125q0 -0.34375 -0.203125 -0.5625q-0.203125 -0.21875 -0.546875 -0.375q-0.328125 -0.15625 -0.765625 -0.28125q-0.4375 -0.140625 -0.890625 -0.28125q-0.453125 -0.15625 -0.890625 -0.359375q-0.421875 -0.203125 -0.765625 -0.515625q-0.328125 -0.328125 -0.53125 -0.78125q-0.203125 -0.453125 -0.203125 -1.09375q0 -0.609375 0.234375 -1.140625q0.234375 -0.546875 0.6875 -0.953125q0.46875 -0.40625 1.15625 -0.640625q0.6875 -0.25 1.59375 -0.25q1.015625 0 1.828125 0.34375q0.828125 0.328125 1.390625 0.875l-0.53125 0.84375zm1.7934113 6.546875q0 -0.296875 0.109375 -0.5625q0.109375 -0.265625 0.296875 -0.453125q0.203125 -0.1875 0.46875 -0.296875q0.265625 -0.109375 0.578125 -0.109375q0.296875 0 0.5625 0.109375q0.265625 0.109375 0.453125 0.296875q0.1875 0.1875 0.296875 0.453125q0.125 0.265625 0.125 0.5625q0 0.3125 -0.125 0.578125q-0.109375 0.25 -0.296875 0.453125q-0.1875 0.1875 -0.453125 0.296875q-0.265625 0.109375 -0.5625 0.109375q-0.3125 0 -0.578125 -0.109375q-0.265625 -0.109375 -0.46875 -0.296875q-0.1875 -0.203125 -0.296875 -0.453125q-0.109375 -0.265625 -0.109375 -0.578125zm7.5414124 -3.53125l0 4.828125l-2.5625 0l0 -13.734375l4.484375 0q1.375 0 2.375 0.328125q1.015625 0.3125 1.671875 0.890625q0.65625 0.578125 0.96875 1.390625q0.3125 0.8125 0.3125 1.765625q0 1.0 -0.34375 1.828125q-0.328125 0.828125 -1.0 1.4375q-0.65625 0.59375 -1.65625 0.9375q-1.0 0.328125 -2.328125 0.328125l-1.921875 0zm0 -2.0l1.921875 0q0.703125 0 1.21875 -0.171875q0.515625 -0.1875 0.859375 -0.515625q0.34375 -0.328125 0.515625 -0.796875q0.171875 -0.46875 0.171875 -1.046875q0 -0.546875 -0.171875 -0.984375q-0.171875 -0.453125 -0.515625 -0.765625q-0.34375 -0.3125 -0.859375 -0.484375q-0.515625 -0.171875 -1.21875 -0.171875l-1.921875 0l0 4.9375zm8.878906 6.828125l0 -9.75l1.375 0q0.375 0 0.515625 0.140625q0.140625 0.125 0.1875 0.453125l0.140625 1.171875q0.515625 -0.890625 1.21875 -1.40625q0.703125 -0.53125 1.578125 -0.53125q0.71875 0 1.203125 0.328125l-0.3125 1.75q-0.015625 0.171875 -0.125 0.25q-0.09375 0.0625 -0.25 0.0625q-0.140625 0 -0.390625 -0.0625q-0.25 -0.0625 -0.65625 -0.0625q-0.734375 0 -1.25 0.40625q-0.515625 0.40625 -0.890625 1.171875l0 6.078125l-2.34375 0zm10.1210785 -9.75l0 9.75l-2.34375 0l0 -9.75l2.34375 0zm0.359375 -2.84375q0 0.3125 -0.125 0.578125q-0.125 0.265625 -0.328125 0.46875q-0.203125 0.1875 -0.484375 0.3125q-0.28125 0.125 -0.59375 0.125q-0.296875 0 -0.578125 -0.125q-0.265625 -0.125 -0.46875 -0.3125q-0.1875 -0.203125 -0.3125 -0.46875q-0.109375 -0.265625 -0.109375 -0.578125q0 -0.3125 0.109375 -0.578125q0.125 -0.28125 0.3125 -0.46875q0.203125 -0.203125 0.46875 -0.328125q0.28125 -0.125 0.578125 -0.125q0.3125 0 0.59375 0.125q0.28125 0.125 0.484375 0.328125q0.203125 0.1875 0.328125 0.46875q0.125 0.265625 0.125 0.578125zm2.1964722 12.59375l0 -9.75l1.4375 0q0.45314026 0 0.59376526 0.4375l0.171875 0.765625q0.296875 -0.3125 0.625 -0.546875q0.328125 -0.25 0.6875 -0.421875q0.359375 -0.1875 0.78125 -0.28125q0.421875 -0.109375 0.90625 -0.109375q0.8125 0 1.421875 0.28125q0.625 0.265625 1.03125 0.765625q0.40625 0.484375 0.625 1.171875q0.21875 0.671875 0.21875 1.484375l0 6.203125l-2.34375 0l0 -6.203125q0 -0.890625 -0.421875 -1.375q-0.40625 -0.5 -1.234375 -0.5q-0.609375 0 -1.140625 0.28125q-0.53125 0.265625 -1.015625 0.75l0 7.046875l-2.3437653 0zm13.809219 0.15625q-1.265625 0 -1.953125 -0.71875q-0.671875 -0.71875 -0.671875 -1.984375l0 -5.4375l-0.984375 0q-0.203125 0 -0.34375 -0.125q-0.125 -0.125 -0.125 -0.375l0 -0.9375l1.5625 -0.25l0.5 -2.65625q0.03125 -0.1875 0.171875 -0.296875q0.140625 -0.109375 0.34375 -0.109375l1.21875 0l0 3.078125l2.5625 0l0 1.671875l-2.5625 0l0 5.28125q0 0.453125 0.21875 0.71875q0.234375 0.25 0.609375 0.25q0.21875 0 0.359375 -0.046875q0.15625 -0.0625 0.265625 -0.109375q0.109375 -0.0625 0.1875 -0.109375q0.09375 -0.0625 0.1875 -0.0625q0.09375 0 0.15625 0.0625q0.078125 0.046875 0.15625 0.140625l0.703125 1.140625q-0.515625 0.4375 -1.1875 0.65625q-0.65625 0.21875 -1.375 0.21875zm6.5168457 -14.265625l0 14.109375l-2.34375 0l0 -14.109375l2.34375 0zm2.5558472 14.109375l0 -9.75l1.4375 0q0.453125 0 0.59375 0.4375l0.171875 0.765625q0.296875 -0.3125 0.625 -0.546875q0.328125 -0.25 0.6875 -0.421875q0.359375 -0.1875 0.78125 -0.28125q0.421875 -0.109375 0.90625 -0.109375q0.8125 0 1.421875 0.28125q0.625 0.265625 1.03125 0.765625q0.40625 0.484375 0.625 1.171875q0.21875 0.671875 0.21875 1.484375l0 6.203125l-2.34375 0l0 -6.203125q0 -0.890625 -0.421875 -1.375q-0.40625 -0.5 -1.234375 -0.5q-0.609375 0 -1.140625 0.28125q-0.53125 0.265625 -1.015625 0.75l0 7.046875l-2.34375 0z" fill-rule="nonzero"></path><path fill="#000000" fill-opacity="0.0" d="m246.12599 180.93176l80.06297 0l0 36.944885l-80.06297 0z" fill-rule="nonzero"></path><path fill="#ffffff" d="m258.79785 200.6367l0 5.6875l-1.828125 0l0 -13.609375l3.84375 0q1.296875 0 2.234375 0.265625q0.9375 0.25 1.546875 0.75q0.625 0.484375 0.90625 1.1875q0.296875 0.703125 0.296875 1.5625q0 0.71875 -0.234375 1.359375q-0.21875 0.625 -0.65625 1.125q-0.421875 0.484375 -1.046875 0.84375q-0.625 0.34375 -1.40625 0.53125q0.34375 0.203125 0.609375 0.578125l3.96875 5.40625l-1.640625 0q-0.5 0 -0.734375 -0.390625l-3.53125 -4.859375q-0.171875 -0.234375 -0.359375 -0.328125q-0.1875 -0.109375 -0.5625 -0.109375l-1.40625 0zm0 -1.328125l1.9375 0q0.796875 0 1.40625 -0.1875q0.625 -0.203125 1.03125 -0.5625q0.421875 -0.359375 0.625 -0.84375q0.203125 -0.5 0.203125 -1.09375q0 -1.21875 -0.796875 -1.828125q-0.796875 -0.625 -2.390625 -0.625l-2.015625 0l0 5.140625zm13.545898 -2.765625q0.859375 0 1.59375 0.296875q0.734375 0.28125 1.265625 0.828125q0.53125 0.546875 0.828125 1.359375q0.296875 0.796875 0.296875 1.828125q0 0.390625 -0.09375 0.53125q-0.078125 0.125 -0.3125 0.125l-6.40625 0q0.015625 0.921875 0.234375 1.59375q0.234375 0.671875 0.625 1.125q0.40625 0.453125 0.953125 0.671875q0.5625 0.21875 1.25 0.21875q0.640625 0 1.09375 -0.140625q0.453125 -0.140625 0.78125 -0.3125q0.34375 -0.171875 0.5625 -0.3125q0.234375 -0.15625 0.390625 -0.15625q0.203125 0 0.328125 0.15625l0.46875 0.625q-0.3125 0.375 -0.75 0.65625q-0.4375 0.28125 -0.9375 0.46875q-0.5 0.171875 -1.03125 0.265625q-0.53125 0.09375 -1.046875 0.09375q-1.0 0 -1.84375 -0.34375q-0.84375 -0.34375 -1.453125 -0.984375q-0.609375 -0.65625 -0.953125 -1.609375q-0.34375 -0.96875 -0.34375 -2.203125q0 -1.015625 0.3125 -1.890625q0.3125 -0.875 0.890625 -1.515625q0.578125 -0.640625 1.40625 -1.0q0.84375 -0.375 1.890625 -0.375zm0.03125 1.25q-1.21875 0 -1.921875 0.71875q-0.703125 0.703125 -0.875 1.953125l5.234375 0q0 -0.59375 -0.171875 -1.078125q-0.15625 -0.484375 -0.46875 -0.84375q-0.3125 -0.359375 -0.765625 -0.546875q-0.453125 -0.203125 -1.03125 -0.203125zm12.994629 8.53125l-0.75 0q-0.25 0 -0.40625 -0.078125q-0.140625 -0.078125 -0.1875 -0.328125l-0.1875 -0.890625q-0.390625 0.34375 -0.75 0.625q-0.359375 0.265625 -0.765625 0.453125q-0.390625 0.1875 -0.84375 0.28125q-0.453125 0.09375 -1.0 0.09375q-0.5625 0 -1.046875 -0.15625q-0.484375 -0.15625 -0.859375 -0.46875q-0.359375 -0.3125 -0.578125 -0.796875q-0.203125 -0.484375 -0.203125 -1.140625q0 -0.5625 0.3125 -1.09375q0.3125 -0.53125 1.0 -0.9375q0.703125 -0.40625 1.828125 -0.671875q1.140625 -0.265625 2.78125 -0.296875l0 -0.75q0 -1.125 -0.484375 -1.6875q-0.484375 -0.578125 -1.421875 -0.578125q-0.609375 0 -1.046875 0.15625q-0.421875 0.15625 -0.734375 0.359375q-0.296875 0.1875 -0.53125 0.34375q-0.21875 0.15625 -0.4375 0.15625q-0.171875 0 -0.296875 -0.09375q-0.125 -0.09375 -0.203125 -0.21875l-0.296875 -0.546875q0.796875 -0.765625 1.71875 -1.140625q0.921875 -0.390625 2.03125 -0.390625q0.8125 0 1.4375 0.265625q0.625 0.265625 1.046875 0.75q0.4375 0.46875 0.65625 1.140625q0.21875 0.671875 0.21875 1.484375l0 6.15625zm-4.390625 -1.03125q0.453125 0 0.8125 -0.09375q0.375 -0.09375 0.703125 -0.25q0.328125 -0.171875 0.625 -0.40625q0.296875 -0.25 0.59375 -0.546875l0 -2.0q-1.171875 0.03125 -2.0 0.1875q-0.8125 0.140625 -1.328125 0.375q-0.5 0.234375 -0.734375 0.5625q-0.234375 0.328125 -0.234375 0.71875q0 0.390625 0.125 0.671875q0.125 0.265625 0.328125 0.4375q0.203125 0.171875 0.484375 0.265625q0.296875 0.078125 0.625 0.078125zm13.55246 1.03125q-0.359375 0 -0.453125 -0.34375l-0.15625 -1.171875q-0.609375 0.75 -1.40625 1.203125q-0.796875 0.453125 -1.8125 0.453125q-0.828125 0 -1.515625 -0.3125q-0.671875 -0.328125 -1.140625 -0.9375q-0.46875 -0.625 -0.734375 -1.546875q-0.25 -0.921875 -0.25 -2.125q0 -1.0625 0.28125 -1.96875q0.28125 -0.921875 0.8125 -1.59375q0.546875 -0.6875 1.3125 -1.0625q0.765625 -0.390625 1.75 -0.390625q0.890625 0 1.515625 0.296875q0.625 0.296875 1.109375 0.84375l0 -5.34375l1.703125 0l0 14.0l-1.015625 0zm-3.265625 -1.234375q0.8125 0 1.4375 -0.375q0.625 -0.390625 1.140625 -1.078125l0 -4.65625q-0.453125 -0.625 -1.015625 -0.875q-0.546875 -0.25 -1.234375 -0.25q-1.34375 0 -2.0625 0.953125q-0.71875 0.953125 -0.71875 2.734375q0 0.9375 0.15625 1.609375q0.15625 0.671875 0.46875 1.109375q0.3125 0.421875 0.765625 0.625q0.46875 0.203125 1.0625 0.203125z" fill-rule="nonzero"></path></g></svg>

