<?xml version="1.0" standalone="yes"?>

<svg version="1.1" viewBox="0.0 0.0 971.0 490.0" fill="none" stroke="none" stroke-linecap="square" stroke-miterlimit="10" xmlns="http://www.w3.org/2000/svg" xmlns:xlink="http://www.w3.org/1999/xlink"><clipPath id="p.0"><path d="m0 0l971.0 0l0 490.0l-971.0 0l0 -490.0z" clip-rule="nonzero"></path></clipPath><g clip-path="url(#p.0)"><path fill="#000000" fill-opacity="0.0" d="m0 0l971.7087 0l0 490.36746l-971.7087 0z" fill-rule="nonzero"></path><path fill="#666666" d="m16.984251 245.20735l0 0c0 -126.547134 102.58672 -229.13387 229.13387 -229.13387l0 0c60.770065 0 119.05116 24.14082 162.02211 67.111755c42.970947 42.970932 67.111755 101.25202 67.111755 162.0221l0 0c0 126.547134 -102.58673 229.13387 -229.13387 229.13387l0 0c-126.54714 0 -229.13387 -102.58673 -229.13387 -229.13387z" fill-rule="nonzero"></path><path fill="#000000" fill-opacity="0.0" d="m115.20473 252.55905l0 0c0 -70.475006 57.131287 -127.60629 127.60629 -127.60629l0 0c33.843307 0 66.30046 13.444199 90.23128 37.375015c23.930817 23.930817 37.37503 56.387985 37.37503 90.23128l0 0c0 70.475006 -57.131287 127.60629 -127.60631 127.60629l0 0c-70.475006 0 -127.60629 -57.131287 -127.60629 -127.60629z" fill-rule="nonzero"></path><path stroke="#ffffff" stroke-width="3.0" stroke-linejoin="round" stroke-linecap="butt" d="m115.20473 252.55905l0 0c0 -70.475006 57.131287 -127.60629 127.60629 -127.60629l0 0c33.843307 0 66.30046 13.444199 90.23128 37.375015c23.930817 23.930817 37.37503 56.387985 37.37503 90.23128l0 0c0 70.475006 -57.131287 127.60629 -127.60631 127.60629l0 0c-70.475006 0 -127.60629 -57.131287 -127.60629 -127.60629z" fill-rule="nonzero"></path><path fill="#ffffff" d="m185.5433 118.52231l0 0c0 -32.319527 27.116745 -58.519684 60.56694 -58.519684l0 0c16.06334 0 31.468765 6.165451 42.827286 17.140022c11.35849 10.974564 17.739624 25.859276 17.739624 41.37966l0 0c0 32.319534 -27.11673 58.519684 -60.56691 58.519684l0 0c-33.450195 0 -60.56694 -26.20015 -60.56694 -58.519684z" fill-rule="nonzero"></path><path fill="#666666" d="m231.06213 122.20794q0.203125 0 0.359375 0.15625l1.015625 1.09375q-0.84375 1.03125 -2.0625 1.59375q-1.21875 0.546875 -2.9375 0.546875q-1.515625 0 -2.75 -0.515625q-1.21875 -0.53125 -2.078125 -1.453125q-0.859375 -0.9375 -1.328125 -2.234375q-0.453125 -1.296875 -0.453125 -2.828125q0 -1.546875 0.5 -2.828125q0.515625 -1.28125 1.453125 -2.21875q0.9375 -0.9375 2.234375 -1.453125q1.296875 -0.515625 2.859375 -0.515625q1.53125 0 2.671875 0.5q1.140625 0.484375 1.96875 1.28125l-0.859375 1.1875q-0.078125 0.125 -0.203125 0.21875q-0.109375 0.078125 -0.328125 0.078125q-0.21875 0 -0.453125 -0.171875q-0.21875 -0.171875 -0.578125 -0.375q-0.34375 -0.203125 -0.875 -0.375q-0.53125 -0.171875 -1.359375 -0.171875q-0.96875 0 -1.78125 0.34375q-0.8125 0.34375 -1.40625 0.96875q-0.578125 0.625 -0.90625 1.53125q-0.328125 0.890625 -0.328125 2.0q0 1.171875 0.328125 2.078125q0.328125 0.890625 0.890625 1.515625q0.5625 0.609375 1.3125 0.9375q0.765625 0.328125 1.640625 0.328125q0.515625 0 0.9375 -0.046875q0.421875 -0.0625 0.78125 -0.1875q0.359375 -0.125 0.671875 -0.3125q0.328125 -0.203125 0.640625 -0.484375q0.09375 -0.09375 0.1875 -0.140625q0.109375 -0.046875 0.234375 -0.046875zm10.571518 3.234375l-1.046875 0q-0.34375 0 -0.53125 -0.09375q-0.1875 -0.109375 -0.28125 -0.40625l-0.203125 -0.703125q-0.375 0.34375 -0.734375 0.59375q-0.359375 0.25 -0.734375 0.421875q-0.375 0.171875 -0.8125 0.25q-0.421875 0.09375 -0.953125 0.09375q-0.609375 0 -1.140625 -0.171875q-0.515625 -0.171875 -0.890625 -0.5q-0.375 -0.328125 -0.59375 -0.8125q-0.203125 -0.5 -0.203125 -1.15625q0 -0.5625 0.28125 -1.09375q0.296875 -0.53125 0.96875 -0.96875q0.6875 -0.4375 1.796875 -0.71875q1.125 -0.28125 2.796875 -0.328125l0 -0.5625q0 -0.984375 -0.421875 -1.453125q-0.40625 -0.46875 -1.203125 -0.46875q-0.5625 0 -0.953125 0.140625q-0.375 0.125 -0.65625 0.296875q-0.28125 0.171875 -0.515625 0.3125q-0.234375 0.125 -0.515625 0.125q-0.25 0 -0.421875 -0.125q-0.171875 -0.125 -0.265625 -0.3125l-0.4375 -0.75q1.6875 -1.53125 4.0625 -1.53125q0.859375 0 1.515625 0.28125q0.671875 0.28125 1.140625 0.78125q0.46875 0.484375 0.703125 1.1875q0.25 0.6875 0.25 1.515625l0 6.15625zm-4.5625 -1.46875q0.359375 0 0.65625 -0.0625q0.3125 -0.0625 0.578125 -0.1875q0.28125 -0.140625 0.53125 -0.328125q0.25 -0.203125 0.515625 -0.46875l0 -1.640625q-1.03125 0.046875 -1.71875 0.171875q-0.6875 0.125 -1.109375 0.328125q-0.421875 0.203125 -0.59375 0.46875q-0.171875 0.265625 -0.171875 0.578125q0 0.609375 0.359375 0.875q0.375 0.265625 0.953125 0.265625zm13.547806 -6.21875q-0.109375 0.140625 -0.21875 0.21875q-0.09375 0.0625 -0.28125 0.0625q-0.1875 0 -0.359375 -0.109375q-0.15625 -0.109375 -0.40625 -0.234375q-0.234375 -0.140625 -0.5625 -0.25q-0.328125 -0.109375 -0.8125 -0.109375q-0.609375 0 -1.078125 0.21875q-0.46875 0.21875 -0.78125 0.640625q-0.296875 0.421875 -0.453125 1.015625q-0.15625 0.59375 -0.15625 1.34375q0 0.78125 0.15625 1.390625q0.171875 0.609375 0.484375 1.015625q0.328125 0.40625 0.765625 0.625q0.453125 0.21875 1.015625 0.21875q0.546875 0 0.890625 -0.140625q0.359375 -0.140625 0.59375 -0.296875q0.234375 -0.171875 0.40625 -0.3125q0.1875 -0.140625 0.40625 -0.140625q0.28125 0 0.421875 0.21875l0.671875 0.859375q-0.390625 0.453125 -0.84375 0.765625q-0.453125 0.3125 -0.953125 0.5q-0.484375 0.171875 -1.015625 0.25q-0.515625 0.078125 -1.015625 0.078125q-0.90625 0 -1.703125 -0.328125q-0.796875 -0.34375 -1.390625 -0.984375q-0.59375 -0.65625 -0.953125 -1.59375q-0.34375 -0.9375 -0.34375 -2.125q0 -1.078125 0.3125 -1.984375q0.3125 -0.921875 0.90625 -1.59375q0.59375 -0.671875 1.484375 -1.046875q0.890625 -0.390625 2.03125 -0.390625q1.09375 0 1.90625 0.359375q0.828125 0.34375 1.484375 1.0l-0.609375 0.859375zm2.0396576 7.6875l0 -14.109375l2.34375 0l0 5.421875q0.578125 -0.546875 1.2500153 -0.875q0.6875 -0.34375 1.609375 -0.34375q0.8125 0 1.421875 0.28125q0.625 0.265625 1.03125 0.765625q0.40625 0.484375 0.625 1.171875q0.21875 0.671875 0.21875 1.484375l0 6.203125l-2.34375 0l0 -6.203125q0 -0.890625 -0.421875 -1.375q-0.40625 -0.5 -1.234375 -0.5q-0.609375 0 -1.140625 0.28125q-0.53126526 0.265625 -1.0156403 0.75l0 7.046875l-2.34375 0zm14.637344 -9.90625q0.921875 0 1.6875 0.296875q0.78125 0.296875 1.34375 0.875q0.5625 0.5625 0.875 1.390625q0.3125 0.8125 0.3125 1.859375q0 0.265625 -0.03125 0.453125q-0.015625 0.171875 -0.078125 0.265625q-0.0625 0.09375 -0.171875 0.140625q-0.09375 0.046875 -0.265625 0.046875l-6.015625 0q0.109375 1.5 0.8125 2.203125q0.703125 0.703125 1.859375 0.703125q0.5625 0 0.96875 -0.125q0.421875 -0.140625 0.734375 -0.296875q0.3125 -0.171875 0.53125 -0.296875q0.234375 -0.140625 0.453125 -0.140625q0.15625 0 0.25 0.0625q0.109375 0.0625 0.1875 0.15625l0.6875 0.859375q-0.390625 0.453125 -0.875 0.765625q-0.484375 0.3125 -1.015625 0.5q-0.53125 0.171875 -1.078125 0.25q-0.546875 0.078125 -1.0625 0.078125q-1.015625 0 -1.890625 -0.328125q-0.875 -0.34375 -1.515625 -1.0q-0.640625 -0.671875 -1.015625 -1.640625q-0.375 -0.96875 -0.375 -2.25q0 -1.0 0.328125 -1.875q0.328125 -0.890625 0.921875 -1.53125q0.609375 -0.65625 1.46875 -1.03125q0.875 -0.390625 1.96875 -0.390625zm0.046875 1.6875q-1.03125 0 -1.609375 0.578125q-0.578125 0.578125 -0.734375 1.640625l4.40625 0q0 -0.453125 -0.125 -0.859375q-0.125 -0.40625 -0.390625 -0.703125q-0.25 -0.296875 -0.640625 -0.46875q-0.375 -0.1875 -0.90625 -0.1875z" fill-rule="nonzero"></path><path fill="#ffffff" d="m59.04987 258.99213l0 0c0 -28.275238 27.116741 -51.196854 60.56693 -51.196854l0 0c33.450188 0 60.566933 22.921616 60.566933 51.196854l0 0c0 28.275238 -27.116745 51.19684 -60.566933 51.19684l0 0c-33.450188 0 -60.56693 -22.9216 -60.56693 -51.19684z" fill-rule="nonzero"></path><path fill="#666666" d="m104.04837 254.67775q-0.109375 0.203125 -0.25 0.296875q-0.125 0.078125 -0.328125 0.078125q-0.1875 0 -0.421875 -0.140625q-0.234375 -0.15625 -0.5625 -0.328125q-0.3125 -0.1875 -0.75 -0.328125q-0.4375 -0.15625 -1.015625 -0.15625q-0.53125 0 -0.9375 0.140625q-0.390625 0.125 -0.671875 0.359375q-0.265625 0.21875 -0.40625 0.546875q-0.125 0.3125 -0.125 0.6875q0 0.48439026 0.265625 0.81251526q0.28125 0.3125 0.71875 0.546875q0.453125 0.21875 1.015625 0.40625q0.578125 0.1875 1.171875 0.390625q0.59375 0.203125 1.15625 0.46875q0.578125 0.265625 1.015625 0.6875q0.453125 0.40625 0.71875 1.015625q0.28125 0.59375 0.28125 1.453125q0 0.921875 -0.328125 1.734375q-0.3125 0.8125 -0.921875 1.421875q-0.609375 0.59375 -1.5 0.953125q-0.875 0.34375 -2.015625 0.34375q-0.65625 0 -1.296875 -0.140625q-0.640625 -0.125 -1.234375 -0.359375q-0.578125 -0.234375 -1.09375 -0.5625q-0.5 -0.34375 -0.890625 -0.75l0.734375 -1.21875q0.109375 -0.140625 0.25 -0.21875q0.15625 -0.09375 0.328125 -0.09375q0.25 0 0.515625 0.203125q0.28125 0.1875 0.65625 0.421875q0.375 0.234375 0.875 0.4375q0.515625 0.1875 1.234375 0.1875q1.078125 0 1.671875 -0.515625q0.609375 -0.515625 0.609375 -1.484375q0 -0.546875 -0.28125 -0.890625q-0.265625 -0.34375 -0.71875 -0.578125q-0.4375 -0.234375 -1.015625 -0.390625q-0.5625 -0.15625 -1.15625 -0.34375q-0.578125 -0.203125 -1.15625 -0.46875q-0.5625 -0.265625 -1.015625 -0.6875q-0.4375 -0.421875 -0.71875 -1.0625q-0.265625 -0.640625 -0.265625 -1.5937653q0 -0.75 0.296875 -1.453125q0.296875 -0.71875 0.875 -1.265625q0.578125 -0.546875 1.40625 -0.875q0.84375 -0.34375 1.921875 -0.34375q1.21875 0 2.234375 0.390625q1.03125 0.375 1.75 1.0625l-0.625 1.203125zm2.509079 11.23439l0 -14.10939l2.34375 0l0 5.4218903q0.578125 -0.546875 1.25 -0.875q0.6875 -0.34375 1.609375 -0.34375q0.8125 0 1.421875 0.28125q0.625 0.265625 1.03125 0.765625q0.40625 0.484375 0.625 1.171875q0.21875 0.671875 0.21875 1.484375l0 6.203125l-2.34375 0l0 -6.203125q0 -0.890625 -0.421875 -1.375q-0.40625 -0.5 -1.234375 -0.5q-0.609375 0 -1.140625 0.28125q-0.53125 0.265625 -1.015625 0.75l0 7.046875l-2.34375 0zm18.246704 0l-1.046875 0q-0.34375 0 -0.53125 -0.09375q-0.1875 -0.109375 -0.28125 -0.40625l-0.203125 -0.703125q-0.375 0.34375 -0.734375 0.59375q-0.359375 0.25 -0.734375 0.421875q-0.375 0.171875 -0.8125 0.25q-0.421875 0.09375 -0.953125 0.09375q-0.609375 0 -1.140625 -0.171875q-0.515625 -0.171875 -0.890625 -0.5q-0.375 -0.328125 -0.59375 -0.8125q-0.203125 -0.5 -0.203125 -1.15625q0 -0.5625 0.28125 -1.09375q0.296875 -0.53125 0.96875 -0.96875q0.6875 -0.4375 1.796875 -0.71875q1.125 -0.28125 2.796875 -0.328125l0 -0.5625q0 -0.984375 -0.421875 -1.453125q-0.40625 -0.46875 -1.203125 -0.46875q-0.5625 0 -0.953125 0.140625q-0.375 0.125 -0.65625 0.296875q-0.28125 0.171875 -0.515625 0.3125q-0.234375 0.125 -0.515625 0.125q-0.25 0 -0.421875 -0.125q-0.171875 -0.125 -0.265625 -0.3125l-0.4375 -0.75q1.6875 -1.5312653 4.0625 -1.5312653q0.859375 0 1.515625 0.28126526q0.671875 0.28125 1.140625 0.78125q0.46875 0.484375 0.703125 1.1875q0.25 0.6875 0.25 1.515625l0 6.15625zm-4.5625 -1.46875q0.359375 0 0.65625 -0.0625q0.3125 -0.0625 0.578125 -0.1875q0.28125 -0.140625 0.53125 -0.328125q0.25 -0.203125 0.515625 -0.46875l0 -1.640625q-1.03125 0.046875 -1.71875 0.171875q-0.6875 0.125 -1.109375 0.328125q-0.421875 0.203125 -0.59375 0.46875q-0.171875 0.265625 -0.171875 0.578125q0 0.609375 0.359375 0.875q0.375 0.265625 0.953125 0.265625zm6.688431 1.46875l0 -9.75l1.375 0q0.375 0 0.515625 0.140625q0.140625 0.125 0.1875 0.453125l0.140625 1.171875q0.515625 -0.890625 1.21875 -1.40625q0.703125 -0.53126526 1.578125 -0.53126526q0.71875 0 1.203125 0.32814026l-0.3125 1.75q-0.015625 0.171875 -0.125 0.25q-0.09375 0.0625 -0.25 0.0625q-0.140625 0 -0.390625 -0.0625q-0.25 -0.0625 -0.65625 -0.0625q-0.734375 0 -1.25 0.40625q-0.515625 0.40625 -0.890625 1.171875l0 6.078125l-2.34375 0zm14.4804535 0q-0.453125 0 -0.59375 -0.421875l-0.1875 -0.953125q-0.3125 0.34375 -0.640625 0.625q-0.328125 0.28125 -0.71875 0.484375q-0.375 0.1875 -0.828125 0.296875q-0.4375 0.109375 -0.953125 0.109375q-0.796875 0 -1.46875 -0.328125q-0.65625 -0.328125 -1.140625 -0.953125q-0.46875 -0.640625 -0.734375 -1.5625q-0.265625 -0.9375 -0.265625 -2.140625q0 -1.078125 0.296875 -2.015625q0.296875 -0.9375 0.84375 -1.609375q0.546875 -0.6875 1.3125 -1.0625q0.78125 -0.39064026 1.734375 -0.39064026q0.828125 0 1.40625 0.26564026q0.578125 0.25 1.03125 0.6875l0 -5.1406403l2.34375 0l0 14.10939l-1.4375 0zm-3.125 -1.71875q0.734375 0 1.25 -0.296875q0.515625 -0.3125 0.96875 -0.875l0 -4.375q-0.40625 -0.484375 -0.875 -0.671875q-0.46875 -0.203125 -1.015625 -0.203125q-0.53125 0 -0.96875 0.203125q-0.421875 0.1875 -0.71875 0.59375q-0.296875 0.40625 -0.46875 1.03125q-0.15625 0.625 -0.15625 1.46875q0 0.859375 0.140625 1.453125q0.140625 0.59375 0.390625 0.96875q0.265625 0.375 0.625 0.546875q0.375 0.15625 0.828125 0.15625z" fill-rule="nonzero"></path><path fill="#ffffff" d="m315.25198 258.99213l0 0c0 -28.275238 27.11673 -51.196854 60.566925 -51.196854l0 0c33.450195 0 60.566925 22.921616 60.566925 51.196854l0 0c0 28.275238 -27.11673 51.19684 -60.566925 51.19684l0 0c-33.450195 0 -60.566925 -22.9216 -60.566925 -51.19684z" fill-rule="nonzero"></path><path fill="#666666" d="m360.2505 254.67775q-0.109375 0.203125 -0.25 0.296875q-0.125 0.078125 -0.328125 0.078125q-0.1875 0 -0.421875 -0.140625q-0.234375 -0.15625 -0.5625 -0.328125q-0.3125 -0.1875 -0.75 -0.328125q-0.4375 -0.15625 -1.015625 -0.15625q-0.53125 0 -0.9375 0.140625q-0.390625 0.125 -0.671875 0.359375q-0.265625 0.21875 -0.40625 0.546875q-0.125 0.3125 -0.125 0.6875q0 0.48439026 0.265625 0.81251526q0.28125 0.3125 0.71875 0.546875q0.453125 0.21875 1.015625 0.40625q0.578125 0.1875 1.171875 0.390625q0.59375 0.203125 1.15625 0.46875q0.578125 0.265625 1.015625 0.6875q0.453125 0.40625 0.71875 1.015625q0.28125 0.59375 0.28125 1.453125q0 0.921875 -0.328125 1.734375q-0.3125 0.8125 -0.921875 1.421875q-0.609375 0.59375 -1.5 0.953125q-0.875 0.34375 -2.015625 0.34375q-0.65625 0 -1.296875 -0.140625q-0.640625 -0.125 -1.234375 -0.359375q-0.578125 -0.234375 -1.09375 -0.5625q-0.5 -0.34375 -0.890625 -0.75l0.734375 -1.21875q0.109375 -0.140625 0.25 -0.21875q0.15625 -0.09375 0.328125 -0.09375q0.25 0 0.515625 0.203125q0.28125 0.1875 0.65625 0.421875q0.375 0.234375 0.875 0.4375q0.515625 0.1875 1.234375 0.1875q1.078125 0 1.671875 -0.515625q0.609375 -0.515625 0.609375 -1.484375q0 -0.546875 -0.28125 -0.890625q-0.265625 -0.34375 -0.71875 -0.578125q-0.4375 -0.234375 -1.015625 -0.390625q-0.5625 -0.15625 -1.15625 -0.34375q-0.578125 -0.203125 -1.15625 -0.46875q-0.5625 -0.265625 -1.015625 -0.6875q-0.4375 -0.421875 -0.71875 -1.0625q-0.265625 -0.640625 -0.265625 -1.5937653q0 -0.75 0.296875 -1.453125q0.296875 -0.71875 0.875 -1.265625q0.578125 -0.546875 1.40625 -0.875q0.84375 -0.34375 1.921875 -0.34375q1.21875 0 2.234375 0.390625q1.03125 0.375 1.75 1.0625l-0.625 1.203125zm2.5090637 11.23439l0 -14.10939l2.34375 0l0 5.4218903q0.578125 -0.546875 1.25 -0.875q0.6875 -0.34375 1.609375 -0.34375q0.8125 0 1.421875 0.28125q0.625 0.265625 1.03125 0.765625q0.40625 0.484375 0.625 1.171875q0.21875 0.671875 0.21875 1.484375l0 6.203125l-2.34375 0l0 -6.203125q0 -0.890625 -0.421875 -1.375q-0.40625 -0.5 -1.234375 -0.5q-0.609375 0 -1.140625 0.28125q-0.53125 0.265625 -1.015625 0.75l0 7.046875l-2.34375 0zm18.246704 0l-1.046875 0q-0.34375 0 -0.53125 -0.09375q-0.1875 -0.109375 -0.28125 -0.40625l-0.203125 -0.703125q-0.375 0.34375 -0.734375 0.59375q-0.359375 0.25 -0.734375 0.421875q-0.375 0.171875 -0.8125 0.25q-0.421875 0.09375 -0.953125 0.09375q-0.609375 0 -1.140625 -0.171875q-0.515625 -0.171875 -0.890625 -0.5q-0.375 -0.328125 -0.59375 -0.8125q-0.203125 -0.5 -0.203125 -1.15625q0 -0.5625 0.28125 -1.09375q0.296875 -0.53125 0.96875 -0.96875q0.6875 -0.4375 1.796875 -0.71875q1.125 -0.28125 2.796875 -0.328125l0 -0.5625q0 -0.984375 -0.421875 -1.453125q-0.40625 -0.46875 -1.203125 -0.46875q-0.5625 0 -0.953125 0.140625q-0.375 0.125 -0.65625 0.296875q-0.28125 0.171875 -0.515625 0.3125q-0.234375 0.125 -0.515625 0.125q-0.25 0 -0.421875 -0.125q-0.171875 -0.125 -0.265625 -0.3125l-0.4375 -0.75q1.6875 -1.5312653 4.0625 -1.5312653q0.859375 0 1.515625 0.28126526q0.671875 0.28125 1.140625 0.78125q0.46875 0.484375 0.703125 1.1875q0.25 0.6875 0.25 1.515625l0 6.15625zm-4.5625 -1.46875q0.359375 0 0.65625 -0.0625q0.3125 -0.0625 0.578125 -0.1875q0.28125 -0.140625 0.53125 -0.328125q0.25 -0.203125 0.515625 -0.46875l0 -1.640625q-1.03125 0.046875 -1.71875 0.171875q-0.6875 0.125 -1.109375 0.328125q-0.421875 0.203125 -0.59375 0.46875q-0.171875 0.265625 -0.171875 0.578125q0 0.609375 0.359375 0.875q0.375 0.265625 0.953125 0.265625zm6.688446 1.46875l0 -9.75l1.375 0q0.375 0 0.515625 0.140625q0.140625 0.125 0.1875 0.453125l0.140625 1.171875q0.515625 -0.890625 1.21875 -1.40625q0.703125 -0.53126526 1.578125 -0.53126526q0.71875 0 1.203125 0.32814026l-0.3125 1.75q-0.015625 0.171875 -0.125 0.25q-0.09375 0.0625 -0.25 0.0625q-0.140625 0 -0.390625 -0.0625q-0.25 -0.0625 -0.65625 -0.0625q-0.734375 0 -1.25 0.40625q-0.515625 0.40625 -0.890625 1.171875l0 6.078125l-2.34375 0zm14.480438 0q-0.453125 0 -0.59375 -0.421875l-0.1875 -0.953125q-0.3125 0.34375 -0.640625 0.625q-0.328125 0.28125 -0.71875 0.484375q-0.375 0.1875 -0.828125 0.296875q-0.4375 0.109375 -0.953125 0.109375q-0.796875 0 -1.46875 -0.328125q-0.65625 -0.328125 -1.140625 -0.953125q-0.46875 -0.640625 -0.734375 -1.5625q-0.265625 -0.9375 -0.265625 -2.140625q0 -1.078125 0.296875 -2.015625q0.296875 -0.9375 0.84375 -1.609375q0.546875 -0.6875 1.3125 -1.0625q0.78125 -0.39064026 1.734375 -0.39064026q0.828125 0 1.40625 0.26564026q0.578125 0.25 1.03125 0.6875l0 -5.1406403l2.34375 0l0 14.10939l-1.4375 0zm-3.125 -1.71875q0.734375 0 1.25 -0.296875q0.515625 -0.3125 0.96875 -0.875l0 -4.375q-0.40625 -0.484375 -0.875 -0.671875q-0.46875 -0.203125 -1.015625 -0.203125q-0.53125 0 -0.96875 0.203125q-0.421875 0.1875 -0.71875 0.59375q-0.296875 0.40625 -0.46875 1.03125q-0.15625 0.625 -0.15625 1.46875q0 0.859375 0.140625 1.453125q0.140625 0.59375 0.390625 0.96875q0.265625 0.375 0.625 0.546875q0.375 0.15625 0.828125 0.15625z" fill-rule="nonzero"></path><path fill="#ffffff" d="m205.56168 384.56262l0 0c0 -21.352112 17.922714 -38.661407 40.031494 -38.661407l0 0c10.617035 0 20.799194 4.073242 28.30655 11.323669c7.5073547 7.2503967 11.724945 17.084106 11.724945 27.337738l0 0c0 21.352112 -17.922699 38.661407 -40.031494 38.661407l0 0c-22.10878 0 -40.031494 -17.309296 -40.031494 -38.661407z" fill-rule="nonzero"></path><path fill="#666666" d="m231.7326 389.37326l5.5 0l0 2.109375l-8.046875 0l0 -13.734375l2.546875 0l0 11.625zm9.457779 -7.640625l0 9.75l-2.34375 0l0 -9.75l2.34375 0zm0.359375 -2.84375q0 0.3125 -0.125 0.578125q-0.125 0.265625 -0.328125 0.46875q-0.203125 0.1875 -0.484375 0.3125q-0.28125 0.125 -0.59375 0.125q-0.296875 0 -0.578125 -0.125q-0.265625 -0.125 -0.46875 -0.3125q-0.1875 -0.203125 -0.3125 -0.46875q-0.109375 -0.265625 -0.109375 -0.578125q0 -0.3125 0.109375 -0.578125q0.125 -0.28125 0.3125 -0.46875q0.203125 -0.203125 0.46875 -0.328125q0.28125 -0.125 0.578125 -0.125q0.3125 0 0.59375 0.125q0.28125 0.125 0.484375 0.328125q0.203125 0.1875 0.328125 0.46875q0.125 0.265625 0.125 0.578125zm2.1964722 12.59375l0 -9.75l1.4375 0q0.453125 0 0.59375 0.4375l0.171875 0.765625q0.296875 -0.3125 0.625 -0.546875q0.328125 -0.25 0.6875 -0.421875q0.359375 -0.1875 0.78125 -0.28125q0.421875 -0.109375 0.90625 -0.109375q0.8125 0 1.421875 0.28125q0.625 0.265625 1.03125 0.765625q0.40625 0.484375 0.625 1.171875q0.21875 0.671875 0.21875 1.484375l0 6.203125l-2.34375 0l0 -6.203125q0 -0.890625 -0.421875 -1.375q-0.40625 -0.5 -1.234375 -0.5q-0.609375 0 -1.140625 0.28125q-0.53125 0.265625 -1.015625 0.75l0 7.046875l-2.34375 0zm12.981094 -14.109375l0 8.078125l0.4375 0q0.234375 0 0.359375 -0.0625q0.140625 -0.078125 0.296875 -0.25l2.421875 -3.0q0.171875 -0.1875 0.34375 -0.296875q0.1875 -0.109375 0.484375 -0.109375l2.140625 0l-3.03125 3.625q-0.15625 0.203125 -0.328125 0.375q-0.171875 0.15625 -0.375 0.28125q0.203125 0.140625 0.34375 0.328125q0.15625 0.1875 0.3125 0.40625l3.25 4.734375l-2.125 0q-0.265625 0 -0.46875 -0.09375q-0.1875 -0.09375 -0.328125 -0.328125l-2.484375 -3.6875q-0.140625 -0.21875 -0.28125 -0.28125q-0.140625 -0.078125 -0.4375 -0.078125l-0.53125 0l0 4.46875l-2.3437653 0l0 -14.109375l2.3437653 0z" fill-rule="nonzero"></path><path fill="#000000" fill-opacity="0.0" d="m246.11024 60.002625l0 -43.937008" fill-rule="nonzero"></path><path stroke="#ffffff" stroke-width="3.0" stroke-linejoin="round" stroke-linecap="butt" d="m246.11024 60.002625l0 -43.937008" fill-rule="nonzero"></path><path fill="#000000" fill-opacity="0.0" d="m246.11812 474.34122l-0.5354309 -51.118103" fill-rule="nonzero"></path><path stroke="#ffffff" stroke-width="3.0" stroke-linejoin="round" stroke-linecap="butt" d="m246.11812 474.34122l-0.5354309 -51.118103" fill-rule="nonzero"></path><path fill="#666666" d="m496.98425 245.20735l0 0c0 -126.547134 102.58673 -229.13387 229.13385 -229.13387l0 0c60.77008 0 119.05121 24.14082 162.0221 67.111755c42.970947 42.970932 67.111755 101.25202 67.111755 162.0221l0 0c0 126.547134 -102.58667 229.13387 -229.13385 229.13387l0 0c-126.54712 0 -229.13385 -102.58673 -229.13385 -229.13387z" fill-rule="nonzero"></path><path fill="#000000" fill-opacity="0.0" d="m606.94226 92.509186l236.15747 0l0 309.85828l-236.15747 0z" fill-rule="nonzero"></path><path stroke="#ffffff" stroke-width="3.0" stroke-linejoin="round" stroke-linecap="butt" d="m606.94226 92.509186l236.15747 0l0 309.85828l-236.15747 0z" fill-rule="nonzero"></path><path fill="#ffffff" d="m539.04987 258.98688l0 0c0 -42.93036 33.709106 -77.732285 75.29132 -77.732285l0 0c19.968506 0 39.1192 8.189621 53.239014 22.767258c14.119873 14.577637 22.052368 34.349136 22.052368 54.965027l0 0c0 42.93036 -33.709106 77.7323 -75.29138 77.7323l0 0c-41.582214 0 -75.29132 -34.80194 -75.29132 -77.7323z" fill-rule="nonzero"></path><path fill="#666666" d="m588.30743 259.0319q0 1.515625 -0.5 2.78125q-0.5 1.265625 -1.421875 2.1875q-0.90625 0.90625 -2.1875 1.40625q-1.28125 0.5 -2.84375 0.5l-5.234375 0l0 -13.73439l5.234375 0q1.5625 0 2.84375 0.515625q1.28125 0.5 2.1875 1.40625q0.921875 0.90625 1.421875 2.1718903q0.5 1.265625 0.5 2.765625zm-2.609375 0q0 -1.125 -0.3125 -2.015625q-0.296875 -0.90625 -0.859375 -1.5156403q-0.546875 -0.625 -1.359375 -0.953125q-0.796875 -0.34375 -1.8125 -0.34375l-2.65625 0l0 9.67189l2.65625 0q1.015625 0 1.8125 -0.328125q0.8125 -0.34375 1.359375 -0.953125q0.5625 -0.625 0.859375 -1.515625q0.3125 -0.90625 0.3125 -2.046875zm11.867432 6.875l-1.046875 0q-0.34375 0 -0.53125 -0.09375q-0.1875 -0.109375 -0.28125 -0.40625l-0.203125 -0.703125q-0.375 0.34375 -0.734375 0.59375q-0.359375 0.25 -0.734375 0.421875q-0.375 0.171875 -0.8125 0.25q-0.421875 0.09375 -0.953125 0.09375q-0.609375 0 -1.140625 -0.171875q-0.515625 -0.171875 -0.890625 -0.5q-0.375 -0.328125 -0.59375 -0.8125q-0.203125 -0.5 -0.203125 -1.15625q0 -0.5625 0.28125 -1.09375q0.296875 -0.53125 0.96875 -0.96875q0.6875 -0.4375 1.796875 -0.71875q1.125 -0.28125 2.796875 -0.328125l0 -0.5625q0 -0.984375 -0.421875 -1.453125q-0.40625 -0.46875 -1.203125 -0.46875q-0.5625 0 -0.953125 0.140625q-0.375 0.125 -0.65625 0.296875q-0.28125 0.171875 -0.515625 0.3125q-0.234375 0.125 -0.515625 0.125q-0.25 0 -0.421875 -0.125q-0.171875 -0.125 -0.265625 -0.3125l-0.4375 -0.75q1.6875 -1.5312653 4.0625 -1.5312653q0.859375 0 1.515625 0.28126526q0.671875 0.28125 1.140625 0.78125q0.46875 0.484375 0.703125 1.1875q0.25 0.6875 0.25 1.515625l0 6.15625zm-4.5625 -1.46875q0.359375 0 0.65625 -0.0625q0.3125 -0.0625 0.578125 -0.1875q0.28125 -0.140625 0.53125 -0.328125q0.25 -0.203125 0.515625 -0.46875l0 -1.640625q-1.03125 0.046875 -1.71875 0.171875q-0.6875 0.125 -1.109375 0.328125q-0.421875 0.203125 -0.59375 0.46875q-0.171875 0.265625 -0.171875 0.578125q0 0.609375 0.359375 0.875q0.375 0.265625 0.953125 0.265625zm9.891541 1.625q-1.265625 0 -1.953125 -0.71875q-0.671875 -0.71875 -0.671875 -1.984375l0 -5.4375l-0.984375 0q-0.203125 0 -0.34375 -0.125q-0.125 -0.125 -0.125 -0.375l0 -0.9375l1.5625 -0.25l0.5 -2.6562653q0.03125 -0.1875 0.171875 -0.296875q0.140625 -0.109375 0.34375 -0.109375l1.21875 0l0 3.0781403l2.5625 0l0 1.671875l-2.5625 0l0 5.28125q0 0.453125 0.21875 0.71875q0.234375 0.25 0.609375 0.25q0.21875 0 0.359375 -0.046875q0.15625 -0.0625 0.265625 -0.109375q0.109375 -0.0625 0.1875 -0.109375q0.09375 -0.0625 0.1875 -0.0625q0.09375 0 0.15625 0.0625q0.078125 0.046875 0.15625 0.140625l0.703125 1.140625q-0.515625 0.4375 -1.1875 0.65625q-0.65625 0.21875 -1.375 0.21875zm11.657471 -0.15625l-1.046875 0q-0.34375 0 -0.53125 -0.09375q-0.1875 -0.109375 -0.28125 -0.40625l-0.203125 -0.703125q-0.375 0.34375 -0.734375 0.59375q-0.359375 0.25 -0.734375 0.421875q-0.375 0.171875 -0.8125 0.25q-0.421875 0.09375 -0.953125 0.09375q-0.609375 0 -1.140625 -0.171875q-0.515625 -0.171875 -0.890625 -0.5q-0.375 -0.328125 -0.59375 -0.8125q-0.203125 -0.5 -0.203125 -1.15625q0 -0.5625 0.28125 -1.09375q0.296875 -0.53125 0.96875 -0.96875q0.6875 -0.4375 1.796875 -0.71875q1.125 -0.28125 2.796875 -0.328125l0 -0.5625q0 -0.984375 -0.421875 -1.453125q-0.40625 -0.46875 -1.203125 -0.46875q-0.5625 0 -0.953125 0.140625q-0.375 0.125 -0.65625 0.296875q-0.28125 0.171875 -0.515625 0.3125q-0.234375 0.125 -0.515625 0.125q-0.25 0 -0.421875 -0.125q-0.171875 -0.125 -0.265625 -0.3125l-0.4375 -0.75q1.6875 -1.5312653 4.0625 -1.5312653q0.859375 0 1.515625 0.28126526q0.671875 0.28125 1.140625 0.78125q0.46875 0.484375 0.703125 1.1875q0.25 0.6875 0.25 1.515625l0 6.15625zm-4.5625 -1.46875q0.359375 0 0.65625 -0.0625q0.3125 -0.0625 0.578125 -0.1875q0.28125 -0.140625 0.53125 -0.328125q0.25 -0.203125 0.515625 -0.46875l0 -1.640625q-1.03125 0.046875 -1.71875 0.171875q-0.6875 0.125 -1.109375 0.328125q-0.421875 0.203125 -0.59375 0.46875q-0.171875 0.265625 -0.171875 0.578125q0 0.609375 0.359375 0.875q0.375 0.265625 0.953125 0.265625zm6.7196655 1.46875l0 -14.10939l2.34375 0l0 5.5625153q0.578125 -0.625 1.3125 -0.984375q0.734375 -0.375 1.71875 -0.375q0.796875 0 1.453125 0.328125q0.65625 0.328125 1.140625 0.96875q0.484375 0.625 0.734375 1.546875q0.265625 0.921875 0.265625 2.109375q0 1.09375 -0.296875 2.03125q-0.296875 0.921875 -0.84375 1.609375q-0.546875 0.6875 -1.328125 1.078125q-0.765625 0.375 -1.71875 0.375q-0.453125 0 -0.828125 -0.09375q-0.359375 -0.078125 -0.671875 -0.234375q-0.296875 -0.171875 -0.5625 -0.40625q-0.25 -0.234375 -0.5 -0.515625l-0.09375 0.65625q-0.0625 0.25 -0.203125 0.359375q-0.140625 0.09375 -0.375 0.09375l-1.546875 0zm4.5625 -8.078125q-0.734375 0 -1.25 0.3125q-0.515625 0.3125 -0.96875 0.875l0 4.359375q0.40625 0.5 0.875 0.703125q0.46875 0.1875 1.015625 0.1875q0.53125 0 0.953125 -0.203125q0.4375 -0.203125 0.734375 -0.609375q0.296875 -0.40625 0.453125 -1.03125q0.171875 -0.625 0.171875 -1.46875q0 -0.84375 -0.140625 -1.4375q-0.140625 -0.59375 -0.390625 -0.96875q-0.25 -0.375 -0.625 -0.546875q-0.359375 -0.171875 -0.828125 -0.171875zm13.680969 8.078125l-1.046875 0q-0.34375 0 -0.53125 -0.09375q-0.1875 -0.109375 -0.28125 -0.40625l-0.203125 -0.703125q-0.375 0.34375 -0.734375 0.59375q-0.359375 0.25 -0.734375 0.421875q-0.375 0.171875 -0.8125 0.25q-0.421875 0.09375 -0.953125 0.09375q-0.609375 0 -1.140625 -0.171875q-0.515625 -0.171875 -0.890625 -0.5q-0.375 -0.328125 -0.59375 -0.8125q-0.203125 -0.5 -0.203125 -1.15625q0 -0.5625 0.28125 -1.09375q0.296875 -0.53125 0.96875 -0.96875q0.6875 -0.4375 1.796875 -0.71875q1.125 -0.28125 2.796875 -0.328125l0 -0.5625q0 -0.984375 -0.421875 -1.453125q-0.40625 -0.46875 -1.203125 -0.46875q-0.5625 0 -0.953125 0.140625q-0.375 0.125 -0.65625 0.296875q-0.28125 0.171875 -0.515625 0.3125q-0.234375 0.125 -0.515625 0.125q-0.25 0 -0.421875 -0.125q-0.171875 -0.125 -0.265625 -0.3125l-0.4375 -0.75q1.6875 -1.5312653 4.0625 -1.5312653q0.859375 0 1.515625 0.28126526q0.671875 0.28125 1.140625 0.78125q0.46875 0.484375 0.703125 1.1875q0.25 0.6875 0.25 1.515625l0 6.15625zm-4.5625 -1.46875q0.359375 0 0.65625 -0.0625q0.3125 -0.0625 0.578125 -0.1875q0.28125 -0.140625 0.53125 -0.328125q0.25 -0.203125 0.515625 -0.46875l0 -1.640625q-1.03125 0.046875 -1.71875 0.171875q-0.6875 0.125 -1.109375 0.328125q-0.421875 0.203125 -0.59375 0.46875q-0.171875 0.265625 -0.171875 0.578125q0 0.609375 0.359375 0.875q0.375 0.265625 0.953125 0.265625zm12.485291 -6.375q-0.109375 0.15625 -0.21875 0.21875q-0.09375 0.046875 -0.25 0.046875q-0.171875 0 -0.375 -0.09375q-0.1875 -0.09375 -0.453125 -0.203125q-0.25 -0.125 -0.578125 -0.21875q-0.328125 -0.09375 -0.765625 -0.09375q-0.703125 0 -1.109375 0.296875q-0.390625 0.296875 -0.390625 0.765625q0 0.3125 0.203125 0.53125q0.203125 0.203125 0.53125 0.375q0.34375 0.15625 0.765625 0.296875q0.4375 0.125 0.875 0.28125q0.453125 0.140625 0.875 0.34375q0.4375 0.1875 0.765625 0.484375q0.34375 0.296875 0.546875 0.71875q0.203125 0.421875 0.203125 1.0q0 0.703125 -0.265625 1.296875q-0.25 0.59375 -0.75 1.03125q-0.484375 0.4375 -1.21875 0.6875q-0.71875 0.234375 -1.65625 0.234375q-0.5 0 -0.984375 -0.09375q-0.484375 -0.09375 -0.921875 -0.25q-0.4375 -0.15625 -0.8125 -0.375q-0.375 -0.21875 -0.65625 -0.484375l0.53125 -0.890625q0.109375 -0.15625 0.25 -0.234375q0.140625 -0.09375 0.359375 -0.09375q0.21875 0 0.40625 0.125q0.203125 0.109375 0.453125 0.265625q0.265625 0.140625 0.609375 0.265625q0.34375 0.125 0.875 0.125q0.421875 0 0.71875 -0.09375q0.296875 -0.109375 0.484375 -0.265625q0.203125 -0.171875 0.296875 -0.375q0.09375 -0.21875 0.09375 -0.453125q0 -0.34375 -0.203125 -0.5625q-0.203125 -0.21875 -0.546875 -0.375q-0.328125 -0.15625 -0.765625 -0.28125q-0.4375 -0.140625 -0.890625 -0.28125q-0.453125 -0.15625 -0.890625 -0.359375q-0.421875 -0.203125 -0.765625 -0.515625q-0.328125 -0.328125 -0.53125 -0.78125q-0.203125 -0.453125 -0.203125 -1.09375q0 -0.609375 0.234375 -1.140625q0.234375 -0.546875 0.6875 -0.953125q0.46875 -0.40625 1.15625 -0.640625q0.6875 -0.25 1.59375 -0.25q1.015625 0 1.828125 0.34375q0.828125 0.328125 1.390625 0.875l-0.53125 0.84375zm6.387146 -2.0625q0.921875 0 1.6875 0.296875q0.78125 0.296875 1.34375 0.875q0.5625 0.5625 0.875 1.390625q0.3125 0.8125 0.3125 1.859375q0 0.265625 -0.03125 0.453125q-0.015625 0.171875 -0.078125 0.265625q-0.0625 0.09375 -0.171875 0.140625q-0.09375 0.046875 -0.265625 0.046875l-6.015625 0q0.109375 1.5 0.8125 2.203125q0.703125 0.703125 1.859375 0.703125q0.5625 0 0.96875 -0.125q0.421875 -0.140625 0.734375 -0.296875q0.3125 -0.171875 0.53125 -0.296875q0.234375 -0.140625 0.453125 -0.140625q0.15625 0 0.25 0.0625q0.109375 0.0625 0.1875 0.15625l0.6875 0.859375q-0.390625 0.453125 -0.875 0.765625q-0.484375 0.3125 -1.015625 0.5q-0.53125 0.171875 -1.078125 0.25q-0.546875 0.078125 -1.0625 0.078125q-1.015625 0 -1.890625 -0.328125q-0.875 -0.34375 -1.515625 -1.0q-0.640625 -0.671875 -1.015625 -1.640625q-0.375 -0.96875 -0.375 -2.25q0 -1.0 0.328125 -1.875q0.328125 -0.890625 0.921875 -1.53125q0.609375 -0.65625 1.46875 -1.03125q0.875 -0.390625 1.96875 -0.390625zm0.046875 1.6875q-1.03125 0 -1.609375 0.578125q-0.578125 0.578125 -0.734375 1.640625l4.40625 0q0 -0.453125 -0.125 -0.859375q-0.125 -0.40625 -0.390625 -0.703125q-0.25 -0.296875 -0.640625 -0.46875q-0.375 -0.1875 -0.90625 -0.1875z" fill-rule="nonzero"></path><path fill="#ffffff" d="m680.64307 98.66404l0 0c0 -21.352112 20.940369 -38.661415 46.771606 -38.661415l0 0c25.831299 0 46.771667 17.309303 46.771667 38.661415l0 0c0 21.352112 -20.940369 38.661415 -46.771667 38.661415l0 0c-25.831238 0 -46.771606 -17.309303 -46.771606 -38.661415z" fill-rule="nonzero"></path><path fill="#666666" d="m707.4593 91.84966l2.15625 0q0.328125 0 0.546875 0.15625q0.234375 0.15625 0.296875 0.421875l2.34375 8.21875q0.078125 0.296875 0.15625 0.65625q0.078125 0.359375 0.140625 0.75q0.078125 -0.390625 0.15625 -0.75q0.09375 -0.359375 0.203125 -0.65625l2.703125 -8.21875q0.0625 -0.21875 0.28125 -0.390625q0.234375 -0.1875 0.5625 -0.1875l0.75 0q0.328125 0 0.546875 0.15625q0.21875 0.15625 0.296875 0.421875l2.6875 8.21875q0.203125 0.609375 0.359375 1.34375q0.0625 -0.375 0.125 -0.703125q0.078125 -0.34375 0.15625 -0.640625l2.34375 -8.21875q0.0625 -0.234375 0.28125 -0.40625q0.234375 -0.171875 0.5625 -0.171875l2.0 0l-4.265625 13.734375l-2.296875 0l-3.015625 -9.390625q-0.046875 -0.171875 -0.109375 -0.375q-0.0625 -0.21875 -0.125 -0.453125q-0.046875 0.234375 -0.109375 0.453125q-0.0625 0.203125 -0.125 0.375l-3.03125 9.390625l-2.3125 0l-4.265625 -13.734375zm24.695618 3.828125q0.921875 0 1.6875 0.296875q0.78125 0.296875 1.34375 0.875q0.5625 0.5625 0.875 1.390625q0.3125 0.8125 0.3125 1.859375q0 0.265625 -0.03125 0.453125q-0.015625 0.171875 -0.078125 0.265625q-0.0625 0.09375 -0.171875 0.140625q-0.09375 0.046875 -0.265625 0.046875l-6.015625 0q0.109375 1.5 0.8125 2.203125q0.703125 0.703125 1.859375 0.703125q0.5625 0 0.96875 -0.125q0.421875 -0.140625 0.734375 -0.296875q0.3125 -0.171875 0.53125 -0.296875q0.234375 -0.140625 0.453125 -0.140625q0.15625 0 0.25 0.0625q0.109375 0.0625 0.1875 0.15625l0.6875 0.859375q-0.390625 0.453125 -0.875 0.765625q-0.484375 0.3125 -1.015625 0.5q-0.53125 0.171875 -1.078125 0.25q-0.546875 0.078125 -1.0625 0.078125q-1.015625 0 -1.890625 -0.328125q-0.875 -0.34375 -1.515625 -1.0q-0.640625 -0.671875 -1.015625 -1.640625q-0.375 -0.96875 -0.375 -2.25q0 -1.0 0.328125 -1.875q0.328125 -0.890625 0.921875 -1.53125q0.609375 -0.65625 1.46875 -1.03125q0.875 -0.390625 1.96875 -0.390625zm0.046875 1.6875q-1.03125 0 -1.609375 0.578125q-0.578125 0.578125 -0.734375 1.640625l4.40625 0q0 -0.453125 -0.125 -0.859375q-0.125 -0.40625 -0.390625 -0.703125q-0.25 -0.296875 -0.640625 -0.46875q-0.375 -0.1875 -0.90625 -0.1875zm5.9249268 8.21875l0 -14.109375l2.34375 0l0 5.5625q0.578125 -0.625 1.3125 -0.984375q0.734375 -0.375 1.71875 -0.375q0.796875 0 1.453125 0.328125q0.65625 0.328125 1.140625 0.96875q0.484375 0.625 0.734375 1.546875q0.265625 0.921875 0.265625 2.109375q0 1.09375 -0.296875 2.03125q-0.296875 0.921875 -0.84375 1.609375q-0.546875 0.6875 -1.328125 1.078125q-0.765625 0.375 -1.71875 0.375q-0.453125 0 -0.828125 -0.09375q-0.359375 -0.078125 -0.671875 -0.234375q-0.296875 -0.171875 -0.5625 -0.40625q-0.25 -0.234375 -0.5 -0.515625l-0.09375 0.65625q-0.0625 0.25 -0.203125 0.359375q-0.140625 0.09375 -0.375 0.09375l-1.546875 0zm4.5625 -8.078125q-0.734375 0 -1.25 0.3125q-0.515625 0.3125 -0.96875 0.875l0 4.359375q0.40625 0.5 0.875 0.703125q0.46875 0.1875 1.015625 0.1875q0.53125 0 0.953125 -0.203125q0.4375 -0.203125 0.734375 -0.609375q0.296875 -0.40625 0.453125 -1.03125q0.171875 -0.625 0.171875 -1.46875q0 -0.84375 -0.140625 -1.4375q-0.140625 -0.59375 -0.390625 -0.96875q-0.25 -0.375 -0.625 -0.546875q-0.359375 -0.171875 -0.828125 -0.171875z" fill-rule="nonzero"></path><path fill="#ffffff" d="m666.8478 396.80054l0 0c0 -21.352112 27.1167 -38.661438 60.566895 -38.661438l0 0c33.450195 0 60.566956 17.309326 60.566956 38.661438l0 0c0 21.352112 -27.11676 38.661407 -60.566956 38.661407l0 0c-33.450195 0 -60.566895 -17.309296 -60.566895 -38.661407z" fill-rule="nonzero"></path><path fill="#666666" d="m697.67267 403.72052l0 -13.734375l4.734375 0q1.34375 0 2.296875 0.265625q0.96875 0.25 1.578125 0.71875q0.609375 0.46875 0.890625 1.15625q0.296875 0.671875 0.296875 1.515625q0 0.484375 -0.15625 0.921875q-0.140625 0.4375 -0.4375 0.828125q-0.296875 0.390625 -0.765625 0.703125q-0.453125 0.3125 -1.09375 0.53125q2.84375 0.640625 2.84375 3.0625q0 0.875 -0.34375 1.609375q-0.328125 0.734375 -0.96875 1.28125q-0.625 0.53125 -1.5625 0.84375q-0.9375 0.296875 -2.125 0.296875l-5.1875 0zm2.546875 -6.015625l0 4.015625l2.59375 0q0.71875 0 1.1875 -0.171875q0.484375 -0.171875 0.765625 -0.453125q0.296875 -0.28125 0.421875 -0.65625q0.140625 -0.390625 0.140625 -0.8125q0 -0.453125 -0.140625 -0.796875q-0.140625 -0.359375 -0.453125 -0.609375q-0.296875 -0.25 -0.78125 -0.375q-0.46875 -0.140625 -1.140625 -0.140625l-2.59375 0zm0 -1.78125l2.046875 0q1.296875 0 1.96875 -0.46875q0.6875 -0.46875 0.6875 -1.515625q0 -1.0625 -0.609375 -1.515625q-0.609375 -0.46875 -1.90625 -0.46875l-2.1875 0l0 3.96875zm17.107727 7.796875l-1.046875 0q-0.34375 0 -0.53125 -0.09375q-0.1875 -0.109375 -0.28125 -0.40625l-0.203125 -0.703125q-0.375 0.34375 -0.734375 0.59375q-0.359375 0.25 -0.734375 0.421875q-0.375 0.171875 -0.8125 0.25q-0.421875 0.09375 -0.953125 0.09375q-0.609375 0 -1.140625 -0.171875q-0.515625 -0.171875 -0.890625 -0.5q-0.375 -0.328125 -0.59375 -0.8125q-0.203125 -0.5 -0.203125 -1.15625q0 -0.5625 0.28125 -1.09375q0.296875 -0.53125 0.96875 -0.96875q0.6875 -0.4375 1.796875 -0.71875q1.125 -0.28125 2.796875 -0.328125l0 -0.5625q0 -0.984375 -0.421875 -1.453125q-0.40625 -0.46875 -1.203125 -0.46875q-0.5625 0 -0.953125 0.140625q-0.375 0.125 -0.65625 0.296875q-0.28125 0.171875 -0.515625 0.3125q-0.234375 0.125 -0.515625 0.125q-0.25 0 -0.421875 -0.125q-0.171875 -0.125 -0.265625 -0.3125l-0.4375 -0.75q1.6875 -1.53125 4.0625 -1.53125q0.859375 0 1.515625 0.28125q0.671875 0.28125 1.140625 0.78125q0.46875 0.484375 0.703125 1.1875q0.25 0.6875 0.25 1.515625l0 6.15625zm-4.5625 -1.46875q0.359375 0 0.65625 -0.0625q0.3125 -0.0625 0.578125 -0.1875q0.28125 -0.140625 0.53125 -0.328125q0.25 -0.203125 0.515625 -0.46875l0 -1.640625q-1.03125 0.046875 -1.71875 0.171875q-0.6875 0.125 -1.109375 0.328125q-0.421875 0.203125 -0.59375 0.46875q-0.171875 0.265625 -0.171875 0.578125q0 0.609375 0.359375 0.875q0.375 0.265625 0.953125 0.265625zm13.547791 -6.21875q-0.109375 0.140625 -0.21875 0.21875q-0.09375 0.0625 -0.28125 0.0625q-0.1875 0 -0.359375 -0.109375q-0.15625 -0.109375 -0.40625 -0.234375q-0.234375 -0.140625 -0.5625 -0.25q-0.328125 -0.109375 -0.8125 -0.109375q-0.609375 0 -1.078125 0.21875q-0.46875 0.21875 -0.78125 0.640625q-0.296875 0.421875 -0.453125 1.015625q-0.15625 0.59375 -0.15625 1.34375q0 0.78125 0.15625 1.390625q0.171875 0.609375 0.484375 1.015625q0.328125 0.40625 0.765625 0.625q0.453125 0.21875 1.015625 0.21875q0.546875 0 0.890625 -0.140625q0.359375 -0.140625 0.59375 -0.296875q0.234375 -0.171875 0.40625 -0.3125q0.1875 -0.140625 0.40625 -0.140625q0.28125 0 0.421875 0.21875l0.671875 0.859375q-0.390625 0.453125 -0.84375 0.765625q-0.453125 0.3125 -0.953125 0.5q-0.484375 0.171875 -1.015625 0.25q-0.515625 0.078125 -1.015625 0.078125q-0.90625 0 -1.703125 -0.328125q-0.796875 -0.34375 -1.390625 -0.984375q-0.59375 -0.65625 -0.953125 -1.59375q-0.34375 -0.9375 -0.34375 -2.125q0 -1.078125 0.3125 -1.984375q0.3125 -0.921875 0.90625 -1.59375q0.59375 -0.671875 1.484375 -1.046875q0.890625 -0.390625 2.03125 -0.390625q1.09375 0 1.90625 0.359375q0.828125 0.34375 1.484375 1.0l-0.609375 0.859375zm4.414673 -6.421875l0 8.078125l0.4375 0q0.234375 0 0.359375 -0.0625q0.140625 -0.078125 0.296875 -0.25l2.421875 -3.0q0.171875 -0.1875 0.34375 -0.296875q0.1875 -0.109375 0.484375 -0.109375l2.140625 0l-3.03125 3.625q-0.15625 0.203125 -0.328125 0.375q-0.171875 0.15625 -0.375 0.28125q0.203125 0.140625 0.34375 0.328125q0.15625 0.1875 0.3125 0.40625l3.25 4.734375l-2.125 0q-0.265625 0 -0.46875 -0.09375q-0.1875 -0.09375 -0.328125 -0.328125l-2.484375 -3.6875q-0.140625 -0.21875 -0.28125 -0.28125q-0.140625 -0.078125 -0.4375 -0.078125l-0.53125 0l0 4.46875l-2.34375 0l0 -14.109375l2.34375 0zm10.070129 4.359375l0 6.203125q0 0.890625 0.40625 1.375q0.421875 0.484375 1.234375 0.484375q0.609375 0 1.140625 -0.265625q0.53125 -0.265625 1.015625 -0.75l0 -7.046875l2.34375 0l0 9.75l-1.4375 0q-0.453125 0 -0.59375 -0.421875l-0.15625 -0.78125q-0.3125 0.296875 -0.640625 0.546875q-0.3125 0.25 -0.6875 0.4375q-0.359375 0.171875 -0.78125 0.265625q-0.421875 0.109375 -0.90625 0.109375q-0.796875 0 -1.421875 -0.265625q-0.609375 -0.28125 -1.03125 -0.765625q-0.40625 -0.5 -0.625 -1.171875q-0.21875 -0.6875 -0.21875 -1.5l0 -6.203125l2.359375 0zm8.449829 12.9375l0 -12.9375l1.4375 0q0.234375 0 0.390625 0.109375q0.15625 0.109375 0.203125 0.328125l0.203125 0.890625q0.578125 -0.671875 1.34375 -1.078125q0.765625 -0.421875 1.796875 -0.421875q0.796875 0 1.453125 0.328125q0.65625 0.328125 1.140625 0.96875q0.484375 0.625 0.734375 1.5625q0.265625 0.921875 0.265625 2.109375q0 1.09375 -0.296875 2.03125q-0.28125 0.921875 -0.828125 1.609375q-0.546875 0.6875 -1.328125 1.078125q-0.78125 0.375 -1.734375 0.375q-0.828125 0 -1.40625 -0.25q-0.5625 -0.25 -1.03125 -0.703125l0 4.0l-2.34375 0zm4.5625 -11.265625q-0.734375 0 -1.25 0.3125q-0.515625 0.3125 -0.96875 0.875l0 4.359375q0.40625 0.5 0.875 0.703125q0.46875 0.1875 1.015625 0.1875q0.53125 0 0.953125 -0.203125q0.4375 -0.203125 0.734375 -0.609375q0.296875 -0.40625 0.453125 -1.03125q0.171875 -0.625 0.171875 -1.46875q0 -0.84375 -0.140625 -1.4375q-0.125 -0.59375 -0.390625 -0.96875q-0.25 -0.375 -0.625 -0.546875q-0.359375 -0.171875 -0.828125 -0.171875z" fill-rule="nonzero"></path><path fill="#ffffff" d="m763.04987 258.98688l0 0c0 -42.93036 33.709106 -77.732285 75.29132 -77.732285l0 0c19.968506 0 39.1192 8.189621 53.239014 22.767258c14.119873 14.577637 22.052368 34.349136 22.052368 54.965027l0 0c0 42.93036 -33.709106 77.7323 -75.29138 77.7323l0 0c-41.582214 0 -75.29132 -34.80194 -75.29132 -77.7323z" fill-rule="nonzero"></path><path fill="#666666" d="m812.30743 259.0319q0 1.515625 -0.5 2.78125q-0.5 1.265625 -1.421875 2.1875q-0.90625 0.90625 -2.1875 1.40625q-1.28125 0.5 -2.84375 0.5l-5.234375 0l0 -13.73439l5.234375 0q1.5625 0 2.84375 0.515625q1.28125 0.5 2.1875 1.40625q0.921875 0.90625 1.421875 2.1718903q0.5 1.265625 0.5 2.765625zm-2.609375 0q0 -1.125 -0.3125 -2.015625q-0.296875 -0.90625 -0.859375 -1.5156403q-0.546875 -0.625 -1.359375 -0.953125q-0.796875 -0.34375 -1.8125 -0.34375l-2.65625 0l0 9.67189l2.65625 0q1.015625 0 1.8125 -0.328125q0.8125 -0.34375 1.359375 -0.953125q0.5625 -0.625 0.859375 -1.515625q0.3125 -0.90625 0.3125 -2.046875zm11.867432 6.875l-1.046875 0q-0.34375 0 -0.53125 -0.09375q-0.1875 -0.109375 -0.28125 -0.40625l-0.203125 -0.703125q-0.375 0.34375 -0.734375 0.59375q-0.359375 0.25 -0.734375 0.421875q-0.375 0.171875 -0.8125 0.25q-0.421875 0.09375 -0.953125 0.09375q-0.609375 0 -1.140625 -0.171875q-0.515625 -0.171875 -0.890625 -0.5q-0.375 -0.328125 -0.59375 -0.8125q-0.203125 -0.5 -0.203125 -1.15625q0 -0.5625 0.28125 -1.09375q0.296875 -0.53125 0.96875 -0.96875q0.6875 -0.4375 1.796875 -0.71875q1.125 -0.28125 2.796875 -0.328125l0 -0.5625q0 -0.984375 -0.421875 -1.453125q-0.40625 -0.46875 -1.203125 -0.46875q-0.5625 0 -0.953125 0.140625q-0.375 0.125 -0.65625 0.296875q-0.28125 0.171875 -0.515625 0.3125q-0.234375 0.125 -0.515625 0.125q-0.25 0 -0.421875 -0.125q-0.171875 -0.125 -0.265625 -0.3125l-0.4375 -0.75q1.6875 -1.5312653 4.0625 -1.5312653q0.859375 0 1.515625 0.28126526q0.671875 0.28125 1.140625 0.78125q0.46875 0.484375 0.703125 1.1875q0.25 0.6875 0.25 1.515625l0 6.15625zm-4.5625 -1.46875q0.359375 0 0.65625 -0.0625q0.3125 -0.0625 0.578125 -0.1875q0.28125 -0.140625 0.53125 -0.328125q0.25 -0.203125 0.515625 -0.46875l0 -1.640625q-1.03125 0.046875 -1.71875 0.171875q-0.6875 0.125 -1.109375 0.328125q-0.421875 0.203125 -0.59375 0.46875q-0.171875 0.265625 -0.171875 0.578125q0 0.609375 0.359375 0.875q0.375 0.265625 0.953125 0.265625zm9.891541 1.625q-1.265625 0 -1.953125 -0.71875q-0.671875 -0.71875 -0.671875 -1.984375l0 -5.4375l-0.984375 0q-0.203125 0 -0.34375 -0.125q-0.125 -0.125 -0.125 -0.375l0 -0.9375l1.5625 -0.25l0.5 -2.6562653q0.03125 -0.1875 0.171875 -0.296875q0.140625 -0.109375 0.34375 -0.109375l1.21875 0l0 3.0781403l2.5625 0l0 1.671875l-2.5625 0l0 5.28125q0 0.453125 0.21875 0.71875q0.234375 0.25 0.609375 0.25q0.21875 0 0.359375 -0.046875q0.15625 -0.0625 0.265625 -0.109375q0.109375 -0.0625 0.1875 -0.109375q0.09375 -0.0625 0.1875 -0.0625q0.09375 0 0.15625 0.0625q0.078125 0.046875 0.15625 0.140625l0.703125 1.140625q-0.515625 0.4375 -1.1875 0.65625q-0.65625 0.21875 -1.375 0.21875zm11.657471 -0.15625l-1.046875 0q-0.34375 0 -0.53125 -0.09375q-0.1875 -0.109375 -0.28125 -0.40625l-0.203125 -0.703125q-0.375 0.34375 -0.734375 0.59375q-0.359375 0.25 -0.734375 0.421875q-0.375 0.171875 -0.8125 0.25q-0.421875 0.09375 -0.953125 0.09375q-0.609375 0 -1.140625 -0.171875q-0.515625 -0.171875 -0.890625 -0.5q-0.375 -0.328125 -0.59375 -0.8125q-0.203125 -0.5 -0.203125 -1.15625q0 -0.5625 0.28125 -1.09375q0.296875 -0.53125 0.96875 -0.96875q0.6875 -0.4375 1.796875 -0.71875q1.125 -0.28125 2.796875 -0.328125l0 -0.5625q0 -0.984375 -0.421875 -1.453125q-0.40625 -0.46875 -1.203125 -0.46875q-0.5625 0 -0.953125 0.140625q-0.375 0.125 -0.65625 0.296875q-0.28125 0.171875 -0.515625 0.3125q-0.234375 0.125 -0.515625 0.125q-0.25 0 -0.421875 -0.125q-0.171875 -0.125 -0.265625 -0.3125l-0.4375 -0.75q1.6875 -1.5312653 4.0625 -1.5312653q0.859375 0 1.515625 0.28126526q0.671875 0.28125 1.140625 0.78125q0.46875 0.484375 0.703125 1.1875q0.25 0.6875 0.25 1.515625l0 6.15625zm-4.5625 -1.46875q0.359375 0 0.65625 -0.0625q0.3125 -0.0625 0.578125 -0.1875q0.28125 -0.140625 0.53125 -0.328125q0.25 -0.203125 0.515625 -0.46875l0 -1.640625q-1.03125 0.046875 -1.71875 0.171875q-0.6875 0.125 -1.109375 0.328125q-0.421875 0.203125 -0.59375 0.46875q-0.171875 0.265625 -0.171875 0.578125q0 0.609375 0.359375 0.875q0.375 0.265625 0.953125 0.265625zm6.7196655 1.46875l0 -14.10939l2.34375 0l0 5.5625153q0.578125 -0.625 1.3125 -0.984375q0.734375 -0.375 1.71875 -0.375q0.796875 0 1.453125 0.328125q0.65625 0.328125 1.140625 0.96875q0.484375 0.625 0.734375 1.546875q0.265625 0.921875 0.265625 2.109375q0 1.09375 -0.296875 2.03125q-0.296875 0.921875 -0.84375 1.609375q-0.546875 0.6875 -1.328125 1.078125q-0.765625 0.375 -1.71875 0.375q-0.453125 0 -0.828125 -0.09375q-0.359375 -0.078125 -0.671875 -0.234375q-0.296875 -0.171875 -0.5625 -0.40625q-0.25 -0.234375 -0.5 -0.515625l-0.09375 0.65625q-0.0625 0.25 -0.203125 0.359375q-0.140625 0.09375 -0.375 0.09375l-1.546875 0zm4.5625 -8.078125q-0.734375 0 -1.25 0.3125q-0.515625 0.3125 -0.96875 0.875l0 4.359375q0.40625 0.5 0.875 0.703125q0.46875 0.1875 1.015625 0.1875q0.53125 0 0.953125 -0.203125q0.4375 -0.203125 0.734375 -0.609375q0.296875 -0.40625 0.453125 -1.03125q0.171875 -0.625 0.171875 -1.46875q0 -0.84375 -0.140625 -1.4375q-0.140625 -0.59375 -0.390625 -0.96875q-0.25 -0.375 -0.625 -0.546875q-0.359375 -0.171875 -0.828125 -0.171875zm13.680969 8.078125l-1.046875 0q-0.34375 0 -0.53125 -0.09375q-0.1875 -0.109375 -0.28125 -0.40625l-0.203125 -0.703125q-0.375 0.34375 -0.734375 0.59375q-0.359375 0.25 -0.734375 0.421875q-0.375 0.171875 -0.8125 0.25q-0.421875 0.09375 -0.953125 0.09375q-0.609375 0 -1.140625 -0.171875q-0.515625 -0.171875 -0.890625 -0.5q-0.375 -0.328125 -0.59375 -0.8125q-0.203125 -0.5 -0.203125 -1.15625q0 -0.5625 0.28125 -1.09375q0.296875 -0.53125 0.96875 -0.96875q0.6875 -0.4375 1.796875 -0.71875q1.125 -0.28125 2.796875 -0.328125l0 -0.5625q0 -0.984375 -0.421875 -1.453125q-0.40625 -0.46875 -1.203125 -0.46875q-0.5625 0 -0.953125 0.140625q-0.375 0.125 -0.65625 0.296875q-0.28125 0.171875 -0.515625 0.3125q-0.234375 0.125 -0.515625 0.125q-0.25 0 -0.421875 -0.125q-0.171875 -0.125 -0.265625 -0.3125l-0.4375 -0.75q1.6875 -1.5312653 4.0625 -1.5312653q0.859375 0 1.515625 0.28126526q0.671875 0.28125 1.140625 0.78125q0.46875 0.484375 0.703125 1.1875q0.25 0.6875 0.25 1.515625l0 6.15625zm-4.5625 -1.46875q0.359375 0 0.65625 -0.0625q0.3125 -0.0625 0.578125 -0.1875q0.28125 -0.140625 0.53125 -0.328125q0.25 -0.203125 0.515625 -0.46875l0 -1.640625q-1.03125 0.046875 -1.71875 0.171875q-0.6875 0.125 -1.109375 0.328125q-0.421875 0.203125 -0.59375 0.46875q-0.171875 0.265625 -0.171875 0.578125q0 0.609375 0.359375 0.875q0.375 0.265625 0.953125 0.265625zm12.485291 -6.375q-0.109375 0.15625 -0.21875 0.21875q-0.09375 0.046875 -0.25 0.046875q-0.171875 0 -0.375 -0.09375q-0.1875 -0.09375 -0.453125 -0.203125q-0.25 -0.125 -0.578125 -0.21875q-0.328125 -0.09375 -0.765625 -0.09375q-0.703125 0 -1.109375 0.296875q-0.390625 0.296875 -0.390625 0.765625q0 0.3125 0.203125 0.53125q0.203125 0.203125 0.53125 0.375q0.34375 0.15625 0.765625 0.296875q0.4375 0.125 0.875 0.28125q0.453125 0.140625 0.875 0.34375q0.4375 0.1875 0.765625 0.484375q0.34375 0.296875 0.546875 0.71875q0.203125 0.421875 0.203125 1.0q0 0.703125 -0.265625 1.296875q-0.25 0.59375 -0.75 1.03125q-0.484375 0.4375 -1.21875 0.6875q-0.71875 0.234375 -1.65625 0.234375q-0.5 0 -0.984375 -0.09375q-0.484375 -0.09375 -0.921875 -0.25q-0.4375 -0.15625 -0.8125 -0.375q-0.375 -0.21875 -0.65625 -0.484375l0.53125 -0.890625q0.109375 -0.15625 0.25 -0.234375q0.140625 -0.09375 0.359375 -0.09375q0.21875 0 0.40625 0.125q0.203125 0.109375 0.453125 0.265625q0.265625 0.140625 0.609375 0.265625q0.34375 0.125 0.875 0.125q0.421875 0 0.71875 -0.09375q0.296875 -0.109375 0.484375 -0.265625q0.203125 -0.171875 0.296875 -0.375q0.09375 -0.21875 0.09375 -0.453125q0 -0.34375 -0.203125 -0.5625q-0.203125 -0.21875 -0.546875 -0.375q-0.328125 -0.15625 -0.765625 -0.28125q-0.4375 -0.140625 -0.890625 -0.28125q-0.453125 -0.15625 -0.890625 -0.359375q-0.421875 -0.203125 -0.765625 -0.515625q-0.328125 -0.328125 -0.53125 -0.78125q-0.203125 -0.453125 -0.203125 -1.09375q0 -0.609375 0.234375 -1.140625q0.234375 -0.546875 0.6875 -0.953125q0.46875 -0.40625 1.15625 -0.640625q0.6875 -0.25 1.59375 -0.25q1.015625 0 1.828125 0.34375q0.828125 0.328125 1.390625 0.875l-0.53125 0.84375zm6.387146 -2.0625q0.921875 0 1.6875 0.296875q0.78125 0.296875 1.34375 0.875q0.5625 0.5625 0.875 1.390625q0.3125 0.8125 0.3125 1.859375q0 0.265625 -0.03125 0.453125q-0.015625 0.171875 -0.078125 0.265625q-0.0625 0.09375 -0.171875 0.140625q-0.09375 0.046875 -0.265625 0.046875l-6.015625 0q0.109375 1.5 0.8125 2.203125q0.703125 0.703125 1.859375 0.703125q0.5625 0 0.96875 -0.125q0.421875 -0.140625 0.734375 -0.296875q0.3125 -0.171875 0.53125 -0.296875q0.234375 -0.140625 0.453125 -0.140625q0.15625 0 0.25 0.0625q0.109375 0.0625 0.1875 0.15625l0.6875 0.859375q-0.390625 0.453125 -0.875 0.765625q-0.484375 0.3125 -1.015625 0.5q-0.53125 0.171875 -1.078125 0.25q-0.546875 0.078125 -1.0625 0.078125q-1.015625 0 -1.890625 -0.328125q-0.875 -0.34375 -1.515625 -1.0q-0.640625 -0.671875 -1.015625 -1.640625q-0.375 -0.96875 -0.375 -2.25q0 -1.0 0.328125 -1.875q0.328125 -0.890625 0.921875 -1.53125q0.609375 -0.65625 1.46875 -1.03125q0.875 -0.390625 1.96875 -0.390625zm0.046875 1.6875q-1.03125 0 -1.609375 0.578125q-0.578125 0.578125 -0.734375 1.640625l4.40625 0q0 -0.453125 -0.125 -0.859375q-0.125 -0.40625 -0.390625 -0.703125q-0.25 -0.296875 -0.640625 -0.46875q-0.375 -0.1875 -0.90625 -0.1875z" fill-rule="nonzero"></path><path fill="#000000" fill-opacity="0.0" d="m24.0 183.0l80.062996 0l0 40.62993l-80.062996 0z" fill-rule="nonzero"></path><path fill="#ffffff" d="m39.890625 201.88875q-0.109375 0.203125 -0.34375 0.203125q-0.140625 0 -0.328125 -0.09375q-0.171875 -0.109375 -0.4375 -0.234375q-0.265625 -0.140625 -0.625 -0.25q-0.359375 -0.109375 -0.859375 -0.109375q-0.421875 0 -0.765625 0.109375q-0.34375 0.109375 -0.59375 0.3125q-0.234375 0.1875 -0.359375 0.4375q-0.125 0.25 -0.125 0.546875q0 0.359375 0.203125 0.609375q0.21875 0.25 0.5625 0.4375q0.359375 0.171875 0.796875 0.3125q0.453125 0.140625 0.921875 0.296875q0.484375 0.15625 0.921875 0.34375q0.453125 0.1875 0.796875 0.484375q0.359375 0.28125 0.5625 0.6875q0.21875 0.40625 0.21875 1.0q0 0.65625 -0.234375 1.21875q-0.234375 0.5625 -0.703125 0.984375q-0.46875 0.40625 -1.140625 0.65625q-0.671875 0.234375 -1.5625 0.234375q-1.0 0 -1.828125 -0.328125q-0.8125 -0.328125 -1.375 -0.84375l0.390625 -0.640625q0.078125 -0.125 0.171875 -0.1875q0.109375 -0.078125 0.28125 -0.078125q0.171875 0 0.359375 0.140625q0.203125 0.125 0.46875 0.296875q0.265625 0.15625 0.65625 0.296875q0.390625 0.125 0.96875 0.125q0.484375 0 0.859375 -0.125q0.375 -0.140625 0.609375 -0.34375q0.25 -0.21875 0.375 -0.5q0.125 -0.296875 0.125 -0.625q0 -0.390625 -0.21875 -0.65625q-0.21875 -0.265625 -0.578125 -0.4375q-0.34375 -0.1875 -0.796875 -0.328125q-0.453125 -0.140625 -0.921875 -0.28125q-0.46875 -0.15625 -0.921875 -0.34375q-0.453125 -0.203125 -0.8125 -0.5q-0.34375 -0.296875 -0.5625 -0.71875q-0.203125 -0.4375 -0.203125 -1.0625q0 -0.546875 0.21875 -1.046875q0.234375 -0.515625 0.671875 -0.890625q0.4375 -0.390625 1.078125 -0.625q0.640625 -0.234375 1.453125 -0.234375q0.953125 0 1.703125 0.3125q0.75 0.296875 1.3125 0.8125l-0.390625 0.625zm2.596817 8.03125l0 -14.0l1.6875 0l0 5.671875q0.625 -0.65625 1.375 -1.046875q0.75 -0.40625 1.71875 -0.40625q0.796875 0 1.390625 0.265625q0.609375 0.265625 1.015625 0.75q0.40625 0.46875 0.609375 1.15625q0.203125 0.671875 0.203125 1.484375l0 6.125l-1.6875 0l0 -6.125q0 -1.09375 -0.5 -1.6875q-0.5 -0.609375 -1.515625 -0.609375q-0.75 0 -1.40625 0.359375q-0.65625 0.359375 -1.203125 0.96875l0 7.09375l-1.6875 0zm17.435379 0l-0.75 0q-0.25 0 -0.40625 -0.078125q-0.140625 -0.078125 -0.1875 -0.328125l-0.1875 -0.890625q-0.390625 0.34375 -0.75 0.625q-0.359375 0.265625 -0.765625 0.453125q-0.390625 0.1875 -0.84375 0.28125q-0.453125 0.09375 -1.0 0.09375q-0.5625 0 -1.046875 -0.15625q-0.484375 -0.15625 -0.859375 -0.46875q-0.359375 -0.3125 -0.578125 -0.796875q-0.203125 -0.484375 -0.203125 -1.140625q0 -0.5625 0.3125 -1.09375q0.3125 -0.53125 1.0 -0.9375q0.703125 -0.40625 1.828125 -0.671875q1.140625 -0.265625 2.78125 -0.296875l0 -0.75q0 -1.125 -0.484375 -1.6875q-0.484375 -0.578125 -1.421875 -0.578125q-0.609375 0 -1.046875 0.15625q-0.421875 0.15625 -0.734375 0.359375q-0.296875 0.1875 -0.53125 0.34375q-0.21875 0.15625 -0.4375 0.15625q-0.171875 0 -0.296875 -0.09375q-0.125 -0.09375 -0.203125 -0.21875l-0.296875 -0.546875q0.796875 -0.765625 1.71875 -1.140625q0.921875 -0.390625 2.03125 -0.390625q0.8125 0 1.4375 0.265625q0.625 0.265625 1.046875 0.75q0.4375 0.46875 0.65625 1.140625q0.21875 0.671875 0.21875 1.484375l0 6.15625zm-4.390625 -1.03125q0.453125 0 0.8125 -0.09375q0.375 -0.09375 0.703125 -0.25q0.328125 -0.171875 0.625 -0.40625q0.296875 -0.25 0.59375 -0.546875l0 -2.0q-1.171875 0.03125 -2.0 0.1875q-0.8125 0.140625 -1.328125 0.375q-0.5 0.234375 -0.734375 0.5625q-0.234375 0.328125 -0.234375 0.71875q0 0.390625 0.125 0.671875q0.125 0.265625 0.328125 0.4375q0.203125 0.171875 0.484375 0.265625q0.296875 0.078125 0.625 0.078125zm6.78685 1.03125l0 -9.625l0.96875 0q0.265625 0 0.375 0.109375q0.109375 0.09375 0.140625 0.359375l0.125 1.5q0.484375 -1.0 1.203125 -1.5625q0.734375 -0.578125 1.71875 -0.578125q0.390625 0 0.71875 0.09375q0.328125 0.09375 0.59375 0.25l-0.21875 1.265625q-0.0625 0.234375 -0.296875 0.234375q-0.125 0 -0.40625 -0.078125q-0.265625 -0.09375 -0.765625 -0.09375q-0.875 0 -1.46875 0.515625q-0.59375 0.5 -1.0 1.484375l0 6.125l-1.6875 0zm14.284088 0q-0.359375 0 -0.453125 -0.34375l-0.15625 -1.171875q-0.609375 0.75 -1.40625 1.203125q-0.796875 0.453125 -1.8125 0.453125q-0.828125 0 -1.515625 -0.3125q-0.671875 -0.328125 -1.140625 -0.9375q-0.46875 -0.625 -0.734375 -1.546875q-0.25 -0.921875 -0.25 -2.125q0 -1.0625 0.28125 -1.96875q0.28125 -0.921875 0.8125 -1.59375q0.546875 -0.6875 1.3125 -1.0625q0.765625 -0.390625 1.75 -0.390625q0.890625 0 1.515625 0.296875q0.625 0.296875 1.109375 0.84375l0 -5.34375l1.703125 0l0 14.0l-1.015625 0zm-3.265625 -1.234375q0.8125 0 1.4375 -0.375q0.625 -0.390625 1.140625 -1.078125l0 -4.65625q-0.453125 -0.625 -1.015625 -0.875q-0.546875 -0.25 -1.234375 -0.25q-1.34375 0 -2.0625 0.953125q-0.71875 0.953125 -0.71875 2.734375q0 0.9375 0.15625 1.609375q0.15625 0.671875 0.46875 1.109375q0.3125 0.421875 0.765625 0.625q0.46875 0.203125 1.0625 0.203125zm8.256973 -0.0625l2.9375 0l0 -9.28125q0 -0.40625 0.03125 -0.84375l-2.4375 2.078125q-0.09375 0.078125 -0.1875 0.109375q-0.09375 0.03125 -0.1875 0.03125q-0.140625 0 -0.25 -0.046875q-0.109375 -0.0625 -0.171875 -0.15625l-0.53125 -0.734375l4.046875 -3.5l1.375 0l0 12.34375l2.671875 0l0 1.296875l-7.296875 0l0 -1.296875z" fill-rule="nonzero"></path><path fill="#000000" fill-opacity="0.0" d="m384.0 175.0l80.06299 0l0 40.62993l-80.06299 0z" fill-rule="nonzero"></path><path fill="#ffffff" d="m399.89062 193.88875q-0.109375 0.203125 -0.34375 0.203125q-0.140625 0 -0.328125 -0.09375q-0.171875 -0.109375 -0.4375 -0.234375q-0.265625 -0.140625 -0.625 -0.25q-0.359375 -0.109375 -0.859375 -0.109375q-0.421875 0 -0.765625 0.109375q-0.34375 0.109375 -0.59375 0.3125q-0.234375 0.1875 -0.359375 0.4375q-0.125 0.25 -0.125 0.546875q0 0.359375 0.203125 0.609375q0.21875 0.25 0.5625 0.4375q0.359375 0.171875 0.796875 0.3125q0.453125 0.140625 0.921875 0.296875q0.484375 0.15625 0.921875 0.34375q0.453125 0.1875 0.796875 0.484375q0.359375 0.28125 0.5625 0.6875q0.21875 0.40625 0.21875 1.0q0 0.65625 -0.234375 1.21875q-0.234375 0.5625 -0.703125 0.984375q-0.46875 0.40625 -1.140625 0.65625q-0.671875 0.234375 -1.5625 0.234375q-1.0 0 -1.828125 -0.328125q-0.8125 -0.328125 -1.375 -0.84375l0.390625 -0.640625q0.078125 -0.125 0.171875 -0.1875q0.109375 -0.078125 0.28125 -0.078125q0.171875 0 0.359375 0.140625q0.203125 0.125 0.46875 0.296875q0.265625 0.15625 0.65625 0.296875q0.390625 0.125 0.96875 0.125q0.484375 0 0.859375 -0.125q0.375 -0.140625 0.609375 -0.34375q0.25 -0.21875 0.375 -0.5q0.125 -0.296875 0.125 -0.625q0 -0.390625 -0.21875 -0.65625q-0.21875 -0.265625 -0.578125 -0.4375q-0.34375 -0.1875 -0.796875 -0.328125q-0.453125 -0.140625 -0.921875 -0.28125q-0.46875 -0.15625 -0.921875 -0.34375q-0.453125 -0.203125 -0.8125 -0.5q-0.34375 -0.296875 -0.5625 -0.71875q-0.203125 -0.4375 -0.203125 -1.0625q0 -0.546875 0.21875 -1.046875q0.234375 -0.515625 0.671875 -0.890625q0.4375 -0.390625 1.078125 -0.625q0.640625 -0.234375 1.453125 -0.234375q0.953125 0 1.703125 0.3125q0.75 0.296875 1.3125 0.8125l-0.390625 0.625zm2.5968018 8.03125l0 -14.0l1.6875 0l0 5.671875q0.625 -0.65625 1.375 -1.046875q0.75 -0.40625 1.71875 -0.40625q0.796875 0 1.390625 0.265625q0.609375 0.265625 1.015625 0.75q0.40625 0.46875 0.609375 1.15625q0.203125 0.671875 0.203125 1.484375l0 6.125l-1.6875 0l0 -6.125q0 -1.09375 -0.5 -1.6875q-0.5 -0.609375 -1.515625 -0.609375q-0.75 0 -1.40625 0.359375q-0.65625 0.359375 -1.203125 0.96875l0 7.09375l-1.6875 0zm17.435394 0l-0.75 0q-0.25 0 -0.40625 -0.078125q-0.140625 -0.078125 -0.1875 -0.328125l-0.1875 -0.890625q-0.390625 0.34375 -0.75 0.625q-0.359375 0.265625 -0.765625 0.453125q-0.390625 0.1875 -0.84375 0.28125q-0.453125 0.09375 -1.0 0.09375q-0.5625 0 -1.046875 -0.15625q-0.484375 -0.15625 -0.859375 -0.46875q-0.359375 -0.3125 -0.578125 -0.796875q-0.203125 -0.484375 -0.203125 -1.140625q0 -0.5625 0.3125 -1.09375q0.3125 -0.53125 1.0 -0.9375q0.703125 -0.40625 1.828125 -0.671875q1.140625 -0.265625 2.78125 -0.296875l0 -0.75q0 -1.125 -0.484375 -1.6875q-0.484375 -0.578125 -1.421875 -0.578125q-0.609375 0 -1.046875 0.15625q-0.421875 0.15625 -0.734375 0.359375q-0.296875 0.1875 -0.53125 0.34375q-0.21875 0.15625 -0.4375 0.15625q-0.171875 0 -0.296875 -0.09375q-0.125 -0.09375 -0.203125 -0.21875l-0.296875 -0.546875q0.796875 -0.765625 1.71875 -1.140625q0.921875 -0.390625 2.03125 -0.390625q0.8125 0 1.4375 0.265625q0.625 0.265625 1.046875 0.75q0.4375 0.46875 0.65625 1.140625q0.21875 0.671875 0.21875 1.484375l0 6.15625zm-4.390625 -1.03125q0.453125 0 0.8125 -0.09375q0.375 -0.09375 0.703125 -0.25q0.328125 -0.171875 0.625 -0.40625q0.296875 -0.25 0.59375 -0.546875l0 -2.0q-1.171875 0.03125 -2.0 0.1875q-0.8125 0.140625 -1.328125 0.375q-0.5 0.234375 -0.734375 0.5625q-0.234375 0.328125 -0.234375 0.71875q0 0.390625 0.125 0.671875q0.125 0.265625 0.328125 0.4375q0.203125 0.171875 0.484375 0.265625q0.296875 0.078125 0.625 0.078125zm6.7868347 1.03125l0 -9.625l0.96875 0q0.265625 0 0.375 0.109375q0.109375 0.09375 0.140625 0.359375l0.125 1.5q0.484375 -1.0 1.203125 -1.5625q0.734375 -0.578125 1.71875 -0.578125q0.390625 0 0.71875 0.09375q0.328125 0.09375 0.59375 0.25l-0.21875 1.265625q-0.0625 0.234375 -0.296875 0.234375q-0.125 0 -0.40625 -0.078125q-0.265625 -0.09375 -0.765625 -0.09375q-0.875 0 -1.46875 0.515625q-0.59375 0.5 -1.0 1.484375l0 6.125l-1.6875 0zm14.284119 0q-0.359375 0 -0.453125 -0.34375l-0.15625 -1.171875q-0.609375 0.75 -1.40625 1.203125q-0.796875 0.453125 -1.8125 0.453125q-0.828125 0 -1.515625 -0.3125q-0.671875 -0.328125 -1.140625 -0.9375q-0.46875 -0.625 -0.734375 -1.546875q-0.25 -0.921875 -0.25 -2.125q0 -1.0625 0.28125 -1.96875q0.28125 -0.921875 0.8125 -1.59375q0.546875 -0.6875 1.3125 -1.0625q0.765625 -0.390625 1.75 -0.390625q0.890625 0 1.515625 0.296875q0.625 0.296875 1.109375 0.84375l0 -5.34375l1.703125 0l0 14.0l-1.015625 0zm-3.265625 -1.234375q0.8125 0 1.4375 -0.375q0.625 -0.390625 1.140625 -1.078125l0 -4.65625q-0.453125 -0.625 -1.015625 -0.875q-0.546875 -0.25 -1.234375 -0.25q-1.34375 0 -2.0625 0.953125q-0.71875 0.953125 -0.71875 2.734375q0 0.9375 0.15625 1.609375q0.15625 0.671875 0.46875 1.109375q0.3125 0.421875 0.765625 0.625q0.46875 0.203125 1.0625 0.203125zm11.241333 -12.53125q0.875 0 1.625 0.265625q0.75 0.25 1.296875 0.734375q0.546875 0.484375 0.859375 1.1875q0.3125 0.703125 0.3125 1.609375q0 0.75 -0.234375 1.40625q-0.21875 0.640625 -0.609375 1.234375q-0.390625 0.59375 -0.90625 1.15625q-0.5 0.546875 -1.078125 1.125l-3.578125 3.671875q0.375 -0.109375 0.765625 -0.171875q0.390625 -0.0625 0.75 -0.0625l4.5625 0q0.28125 0 0.4375 0.171875q0.15625 0.15625 0.15625 0.40625l0 1.03125l-9.078125 0l0 -0.578125q0 -0.1875 0.0625 -0.375q0.078125 -0.1875 0.25 -0.34375l4.359375 -4.390625q0.53125 -0.546875 0.984375 -1.046875q0.453125 -0.515625 0.765625 -1.03125q0.3125 -0.515625 0.484375 -1.03125q0.171875 -0.53125 0.171875 -1.125q0 -0.609375 -0.1875 -1.046875q-0.1875 -0.453125 -0.53125 -0.75q-0.328125 -0.296875 -0.78125 -0.4375q-0.4375 -0.15625 -0.953125 -0.15625q-0.515625 0 -0.953125 0.15625q-0.421875 0.140625 -0.765625 0.421875q-0.34375 0.265625 -0.578125 0.640625q-0.21875 0.375 -0.3125 0.8125q-0.078125 0.28125 -0.234375 0.40625q-0.15625 0.125 -0.40625 0.125q-0.046875 0 -0.09375 0q-0.046875 -0.015625 -0.125 -0.03125l-0.875 -0.140625q0.125 -0.9375 0.5 -1.65625q0.390625 -0.71875 0.96875 -1.203125q0.59375 -0.484375 1.34375 -0.734375q0.75 -0.25 1.625 -0.25z" fill-rule="nonzero"></path><path fill="#000000" fill-opacity="0.0" d="m208.0 311.0l72.06299 0l0 40.629913l-72.06299 0z" fill-rule="nonzero"></path><path fill="#ffffff" d="m232.44675 323.91998l0 14.0l-1.6875 0l0 -14.0l1.6875 0zm4.776001 4.375l0 9.625l-1.6875 0l0 -9.625l1.6875 0zm0.375 -3.015625q0 0.25 -0.09375 0.46875q-0.09375 0.203125 -0.265625 0.375q-0.171875 0.15625 -0.390625 0.25q-0.21875 0.09375 -0.453125 0.09375q-0.25 0 -0.46875 -0.09375q-0.21875 -0.09375 -0.390625 -0.25q-0.15625 -0.171875 -0.25 -0.375q-0.09375 -0.21875 -0.09375 -0.46875q0 -0.25 0.09375 -0.46875q0.09375 -0.234375 0.25 -0.390625q0.171875 -0.171875 0.390625 -0.265625q0.21875 -0.09375 0.46875 -0.09375q0.234375 0 0.453125 0.09375q0.21875 0.09375 0.390625 0.265625q0.171875 0.15625 0.265625 0.390625q0.09375 0.21875 0.09375 0.46875zm2.526001 12.640625l0 -9.625l1.0 0q0.359375 0 0.453125 0.359375l0.140625 1.03125q0.625 -0.6875 1.390625 -1.109375q0.78125 -0.4375 1.796875 -0.4375q0.796875 0 1.390625 0.265625q0.609375 0.265625 1.015625 0.75q0.40625 0.46875 0.609375 1.15625q0.203125 0.671875 0.203125 1.484375l0 6.125l-1.6875 0l0 -6.125q0 -1.09375 -0.5 -1.6875q-0.5 -0.609375 -1.515625 -0.609375q-0.75 0 -1.40625 0.359375q-0.65625 0.359375 -1.203125 0.96875l0 7.09375l-1.6875 0zm12.122864 -14.0l0 8.25l0.4375 0q0.1875 0 0.3125 -0.046875q0.125 -0.0625 0.28125 -0.21875l3.03125 -3.265625q0.15625 -0.15625 0.296875 -0.25q0.140625 -0.09375 0.375 -0.09375l1.546875 0l-3.546875 3.765625q-0.140625 0.171875 -0.265625 0.296875q-0.125 0.125 -0.296875 0.21875q0.171875 0.109375 0.3125 0.265625q0.140625 0.140625 0.265625 0.328125l3.765625 4.75l-1.53125 0q-0.203125 0 -0.359375 -0.078125q-0.140625 -0.078125 -0.265625 -0.25l-3.171875 -3.953125q-0.140625 -0.1875 -0.28125 -0.25q-0.140625 -0.0625 -0.421875 -0.0625l-0.484375 0l0 4.59375l-1.703125 0l0 -14.0l1.703125 0z" fill-rule="nonzero"></path><path fill="#000000" fill-opacity="0.0" d="m208.0 167.0l80.06299 0l0 40.62993l-80.06299 0z" fill-rule="nonzero"></path><path fill="#ffffff" d="m232.46841 186.01375q-0.078125 0.09375 -0.15625 0.15625q-0.078125 0.0625 -0.21875 0.0625q-0.140625 0 -0.3125 -0.125q-0.15625 -0.125 -0.421875 -0.265625q-0.25 -0.140625 -0.625 -0.25q-0.359375 -0.125 -0.890625 -0.125q-0.703125 0 -1.25 0.25q-0.53125 0.25 -0.90625 0.734375q-0.359375 0.46875 -0.546875 1.140625q-0.1875 0.671875 -0.1875 1.515625q0 0.875 0.203125 1.5625q0.203125 0.671875 0.5625 1.140625q0.359375 0.453125 0.875 0.703125q0.515625 0.234375 1.171875 0.234375q0.609375 0 1.0 -0.140625q0.40625 -0.15625 0.671875 -0.328125q0.265625 -0.1875 0.4375 -0.328125q0.171875 -0.15625 0.34375 -0.15625q0.21875 0 0.328125 0.15625l0.46875 0.625q-0.625 0.765625 -1.5625 1.125q-0.9375 0.359375 -1.984375 0.359375q-0.90625 0 -1.6875 -0.328125q-0.765625 -0.34375 -1.34375 -0.96875q-0.5625 -0.640625 -0.890625 -1.5625q-0.328125 -0.921875 -0.328125 -2.09375q0 -1.078125 0.296875 -1.984375q0.296875 -0.921875 0.875 -1.578125q0.578125 -0.65625 1.421875 -1.03125q0.84375 -0.375 1.9375 -0.375q1.0 0 1.78125 0.328125q0.78125 0.328125 1.375 0.9375l-0.4375 0.609375zm9.212463 7.90625l-0.75 0q-0.25 0 -0.40625 -0.078125q-0.140625 -0.078125 -0.1875 -0.328125l-0.1875 -0.890625q-0.390625 0.34375 -0.75 0.625q-0.359375 0.265625 -0.765625 0.453125q-0.390625 0.1875 -0.84375 0.28125q-0.453125 0.09375 -1.0 0.09375q-0.5625 0 -1.046875 -0.15625q-0.484375 -0.15625 -0.859375 -0.46875q-0.359375 -0.3125 -0.578125 -0.796875q-0.203125 -0.484375 -0.203125 -1.140625q0 -0.5625 0.3125 -1.09375q0.3125 -0.53125 1.0 -0.9375q0.703125 -0.40625 1.828125 -0.671875q1.140625 -0.265625 2.78125 -0.296875l0 -0.75q0 -1.125 -0.484375 -1.6875q-0.484375 -0.578125 -1.421875 -0.578125q-0.609375 0 -1.046875 0.15625q-0.421875 0.15625 -0.734375 0.359375q-0.296875 0.1875 -0.53125 0.34375q-0.21875 0.15625 -0.4375 0.15625q-0.171875 0 -0.296875 -0.09375q-0.125 -0.09375 -0.203125 -0.21875l-0.296875 -0.546875q0.796875 -0.765625 1.71875 -1.140625q0.921875 -0.390625 2.03125 -0.390625q0.8125 0 1.4375 0.265625q0.625 0.265625 1.046875 0.75q0.4375 0.46875 0.65625 1.140625q0.21875 0.671875 0.21875 1.484375l0 6.15625zm-4.390625 -1.03125q0.453125 0 0.8125 -0.09375q0.375 -0.09375 0.703125 -0.25q0.328125 -0.171875 0.625 -0.40625q0.296875 -0.25 0.59375 -0.546875l0 -2.0q-1.171875 0.03125 -2.0 0.1875q-0.8125 0.140625 -1.328125 0.375q-0.5 0.234375 -0.734375 0.5625q-0.234375 0.328125 -0.234375 0.71875q0 0.390625 0.125 0.671875q0.125 0.265625 0.328125 0.4375q0.203125 0.171875 0.484375 0.265625q0.296875 0.078125 0.625 0.078125zm13.34935 -6.875q-0.078125 0.09375 -0.15625 0.15625q-0.078125 0.0625 -0.21875 0.0625q-0.140625 0 -0.3125 -0.125q-0.15625 -0.125 -0.421875 -0.265625q-0.25 -0.140625 -0.625 -0.25q-0.359375 -0.125 -0.890625 -0.125q-0.703125 0 -1.25 0.25q-0.53125 0.25 -0.90625 0.734375q-0.359375 0.46875 -0.546875 1.140625q-0.1875 0.671875 -0.1875 1.515625q0 0.875 0.203125 1.5625q0.203125 0.671875 0.5625 1.140625q0.359375 0.453125 0.875 0.703125q0.515625 0.234375 1.171875 0.234375q0.609375 0 1.0 -0.140625q0.40625 -0.15625 0.671875 -0.328125q0.265625 -0.1875 0.4375 -0.328125q0.171875 -0.15625 0.34375 -0.15625q0.21875 0 0.328125 0.15625l0.46875 0.625q-0.625 0.765625 -1.5625 1.125q-0.9375 0.359375 -1.984375 0.359375q-0.90625 0 -1.6875 -0.328125q-0.765625 -0.34375 -1.34375 -0.96875q-0.5625 -0.640625 -0.890625 -1.5625q-0.328125 -0.921875 -0.328125 -2.09375q0 -1.078125 0.296875 -1.984375q0.296875 -0.921875 0.875 -1.578125q0.578125 -0.65625 1.421875 -1.03125q0.84375 -0.375 1.9375 -0.375q1.0 0 1.78125 0.328125q0.78125 0.328125 1.375 0.9375l-0.4375 0.609375zm2.1499634 7.90625l0 -14.0l1.6875 0l0 5.671875q0.625 -0.65625 1.375 -1.046875q0.74998474 -0.40625 1.7187347 -0.40625q0.796875 0 1.390625 0.265625q0.609375 0.265625 1.015625 0.75q0.40625 0.46875 0.609375 1.15625q0.203125 0.671875 0.203125 1.484375l0 6.125l-1.6875 0l0 -6.125q0 -1.09375 -0.5 -1.6875q-0.5 -0.609375 -1.515625 -0.609375q-0.75 0 -1.4062347 0.359375q-0.65625 0.359375 -1.203125 0.96875l0 7.09375l-1.6875 0zm14.185379 -9.78125q0.859375 0 1.59375 0.296875q0.734375 0.28125 1.265625 0.828125q0.53125 0.546875 0.828125 1.359375q0.296875 0.796875 0.296875 1.828125q0 0.390625 -0.09375 0.53125q-0.078125 0.125 -0.3125 0.125l-6.40625 0q0.015625 0.921875 0.234375 1.59375q0.234375 0.671875 0.625 1.125q0.40625 0.453125 0.953125 0.671875q0.5625 0.21875 1.25 0.21875q0.640625 0 1.09375 -0.140625q0.453125 -0.140625 0.78125 -0.3125q0.34375 -0.171875 0.5625 -0.3125q0.234375 -0.15625 0.390625 -0.15625q0.203125 0 0.328125 0.15625l0.46875 0.625q-0.3125 0.375 -0.75 0.65625q-0.4375 0.28125 -0.9375 0.46875q-0.5 0.171875 -1.03125 0.265625q-0.53125 0.09375 -1.046875 0.09375q-1.0 0 -1.84375 -0.34375q-0.84375 -0.34375 -1.453125 -0.984375q-0.609375 -0.65625 -0.953125 -1.609375q-0.34375 -0.96875 -0.34375 -2.203125q0 -1.015625 0.3125 -1.890625q0.3125 -0.875 0.890625 -1.515625q0.578125 -0.640625 1.40625 -1.0q0.84375 -0.375 1.890625 -0.375zm0.03125 1.25q-1.21875 0 -1.921875 0.71875q-0.703125 0.703125 -0.875 1.953125l5.234375 0q0 -0.59375 -0.171875 -1.078125q-0.15625 -0.484375 -0.46875 -0.84375q-0.3125 -0.359375 -0.765625 -0.546875q-0.453125 -0.203125 -1.03125 -0.203125z" fill-rule="nonzero"></path><path fill="#000000" fill-opacity="0.0" d="m528.0 159.0l64.0 0l0 40.62993l-64.0 0z" fill-rule="nonzero"></path><path fill="#ffffff" d="m552.3171 185.92q-0.359375 0 -0.453125 -0.34375l-0.15625 -1.171875q-0.609375 0.75 -1.40625 1.203125q-0.796875 0.453125 -1.8125 0.453125q-0.828125 0 -1.515625 -0.3125q-0.671875 -0.328125 -1.140625 -0.9375q-0.46875 -0.625 -0.734375 -1.546875q-0.25 -0.921875 -0.25 -2.125q0 -1.0625 0.28125 -1.96875q0.28125 -0.921875 0.8125 -1.59375q0.546875 -0.6875 1.3125 -1.0625q0.765625 -0.390625 1.75 -0.390625q0.890625 0 1.515625 0.296875q0.625 0.296875 1.109375 0.84375l0 -5.34375l1.703125 0l0 14.0l-1.015625 0zm-3.265625 -1.234375q0.8125 0 1.4375 -0.375q0.625 -0.390625 1.140625 -1.078125l0 -4.65625q-0.453125 -0.625 -1.015625 -0.875q-0.546875 -0.25 -1.234375 -0.25q-1.34375 0 -2.0625 0.953125q-0.71875 0.953125 -0.71875 2.734375q0 0.9375 0.15625 1.609375q0.15625 0.671875 0.46875 1.109375q0.3125 0.421875 0.765625 0.625q0.46875 0.203125 1.0625 0.203125zm6.975708 1.234375l0 -14.0l1.703125 0l0 5.765625q0.609375 -0.703125 1.375 -1.125q0.78125 -0.421875 1.765625 -0.421875q0.84375 0 1.515625 0.3125q0.671875 0.3125 1.140625 0.9375q0.484375 0.625 0.734375 1.546875q0.265625 0.90625 0.265625 2.109375q0 1.0625 -0.296875 1.984375q-0.28125 0.921875 -0.8125 1.59375q-0.53125 0.65625 -1.3125 1.046875q-0.765625 0.390625 -1.734375 0.390625q-0.9375 0 -1.59375 -0.359375q-0.640625 -0.375 -1.125 -1.015625l-0.09375 0.875q-0.078125 0.359375 -0.4375 0.359375l-1.09375 0zm4.296875 -8.421875q-0.828125 0 -1.453125 0.375q-0.609375 0.375 -1.140625 1.078125l0 4.65625q0.453125 0.625 1.015625 0.890625q0.5625 0.25 1.234375 0.25q1.359375 0 2.078125 -0.953125q0.71875 -0.96875 0.71875 -2.75q0 -0.9375 -0.171875 -1.609375q-0.15625 -0.671875 -0.46875 -1.109375q-0.3125 -0.4375 -0.78125 -0.625q-0.453125 -0.203125 -1.03125 -0.203125zm7.413269 7.125l2.9375 0l0 -9.28125q0 -0.40625 0.03125 -0.84375l-2.4375 2.078125q-0.09375 0.078125 -0.1875 0.109375q-0.09375 0.03125 -0.1875 0.03125q-0.140625 0 -0.25 -0.046875q-0.109375 -0.0625 -0.171875 -0.15625l-0.53125 -0.734375l4.046875 -3.5l1.375 0l0 12.34375l2.671875 0l0 1.296875l-7.296875 0l0 -1.296875z" fill-rule="nonzero"></path><path fill="#000000" fill-opacity="0.0" d="m856.0 159.0l64.0 0l0 40.62993l-64.0 0z" fill-rule="nonzero"></path><path fill="#ffffff" d="m880.3171 185.92q-0.359375 0 -0.453125 -0.34375l-0.15625 -1.171875q-0.609375 0.75 -1.40625 1.203125q-0.796875 0.453125 -1.8125 0.453125q-0.828125 0 -1.515625 -0.3125q-0.671875 -0.328125 -1.140625 -0.9375q-0.46875 -0.625 -0.734375 -1.546875q-0.25 -0.921875 -0.25 -2.125q0 -1.0625 0.28125 -1.96875q0.28125 -0.921875 0.8125 -1.59375q0.546875 -0.6875 1.3125 -1.0625q0.765625 -0.390625 1.75 -0.390625q0.890625 0 1.515625 0.296875q0.625 0.296875 1.109375 0.84375l0 -5.34375l1.703125 0l0 14.0l-1.015625 0zm-3.265625 -1.234375q0.8125 0 1.4375 -0.375q0.625 -0.390625 1.140625 -1.078125l0 -4.65625q-0.453125 -0.625 -1.015625 -0.875q-0.546875 -0.25 -1.234375 -0.25q-1.34375 0 -2.0625 0.953125q-0.71875 0.953125 -0.71875 2.734375q0 0.9375 0.15625 1.609375q0.15625 0.671875 0.46875 1.109375q0.3125 0.421875 0.765625 0.625q0.46875 0.203125 1.0625 0.203125zm6.975708 1.234375l0 -14.0l1.703125 0l0 5.765625q0.609375 -0.703125 1.375 -1.125q0.78125 -0.421875 1.765625 -0.421875q0.84375 0 1.515625 0.3125q0.671875 0.3125 1.140625 0.9375q0.484375 0.625 0.734375 1.546875q0.265625 0.90625 0.265625 2.109375q0 1.0625 -0.296875 1.984375q-0.28125 0.921875 -0.8125 1.59375q-0.53125 0.65625 -1.3125 1.046875q-0.765625 0.390625 -1.734375 0.390625q-0.9375 0 -1.59375 -0.359375q-0.640625 -0.375 -1.125 -1.015625l-0.09375 0.875q-0.078125 0.359375 -0.4375 0.359375l-1.09375 0zm4.296875 -8.421875q-0.828125 0 -1.453125 0.375q-0.609375 0.375 -1.140625 1.078125l0 4.65625q0.453125 0.625 1.015625 0.890625q0.5625 0.25 1.234375 0.25q1.359375 0 2.078125 -0.953125q0.71875 -0.96875 0.71875 -2.75q0 -0.9375 -0.171875 -1.609375q-0.15625 -0.671875 -0.46875 -1.109375q-0.3125 -0.4375 -0.78125 -0.625q-0.453125 -0.203125 -1.03125 -0.203125zm10.397644 -5.34375q0.875 0 1.625 0.265625q0.75 0.25 1.296875 0.734375q0.546875 0.484375 0.859375 1.1875q0.3125 0.703125 0.3125 1.609375q0 0.75 -0.234375 1.40625q-0.21875 0.640625 -0.609375 1.234375q-0.390625 0.59375 -0.90625 1.15625q-0.5 0.546875 -1.078125 1.125l-3.578125 3.671875q0.375 -0.109375 0.765625 -0.171875q0.390625 -0.0625 0.75 -0.0625l4.5625 0q0.28125 0 0.4375 0.171875q0.15625 0.15625 0.15625 0.40625l0 1.03125l-9.078125 0l0 -0.578125q0 -0.1875 0.0625 -0.375q0.078125 -0.1875 0.25 -0.34375l4.359375 -4.390625q0.53125 -0.546875 0.984375 -1.046875q0.453125 -0.515625 0.765625 -1.03125q0.3125 -0.515625 0.484375 -1.03125q0.171875 -0.53125 0.171875 -1.125q0 -0.609375 -0.1875 -1.046875q-0.1875 -0.453125 -0.53125 -0.75q-0.328125 -0.296875 -0.78125 -0.4375q-0.4375 -0.15625 -0.953125 -0.15625q-0.515625 0 -0.953125 0.15625q-0.421875 0.140625 -0.765625 0.421875q-0.34375 0.265625 -0.578125 0.640625q-0.21875 0.375 -0.3125 0.8125q-0.078125 0.28125 -0.234375 0.40625q-0.15625 0.125 -0.40625 0.125q-0.046875 0 -0.09375 0q-0.046875 -0.015625 -0.125 -0.03125l-0.875 -0.140625q0.125 -0.9375 0.5 -1.65625q0.390625 -0.71875 0.96875 -1.203125q0.59375 -0.484375 1.34375 -0.734375q0.75 -0.25 1.625 -0.25z" fill-rule="nonzero"></path><path fill="#000000" fill-opacity="0.0" d="m696.0 127.0l64.0 0l0 40.62993l-64.0 0z" fill-rule="nonzero"></path><path fill="#ffffff" d="m710.89294 144.295l1.328125 0q0.203125 0 0.328125 0.109375q0.140625 0.09375 0.1875 0.25l1.84375 6.1875q0.078125 0.34375 0.140625 0.671875q0.0625 0.3125 0.109375 0.625q0.078125 -0.3125 0.171875 -0.625q0.09375 -0.328125 0.203125 -0.671875l2.03125 -6.234375q0.046875 -0.140625 0.171875 -0.234375q0.125 -0.09375 0.296875 -0.09375l0.734375 0q0.1875 0 0.3125 0.09375q0.125 0.09375 0.171875 0.234375l1.984375 6.234375q0.109375 0.328125 0.1875 0.65625q0.078125 0.328125 0.15625 0.640625q0.046875 -0.3125 0.125 -0.65625q0.078125 -0.34375 0.15625 -0.640625l1.875 -6.1875q0.0625 -0.15625 0.1875 -0.25q0.140625 -0.109375 0.3125 -0.109375l1.28125 0l-3.125 9.625l-1.34375 0q-0.234375 0 -0.328125 -0.328125l-2.140625 -6.515625q-0.078125 -0.21875 -0.125 -0.4375q-0.046875 -0.234375 -0.09375 -0.453125q-0.046875 0.21875 -0.09375 0.453125q-0.046875 0.21875 -0.125 0.4375l-2.15625 6.515625q-0.09375 0.328125 -0.390625 0.328125l-1.265625 0l-3.109375 -9.625zm19.35315 -0.15625q0.859375 0 1.59375 0.296875q0.734375 0.28125 1.265625 0.828125q0.53125 0.546875 0.828125 1.359375q0.296875 0.796875 0.296875 1.828125q0 0.390625 -0.09375 0.53125q-0.078125 0.125 -0.3125 0.125l-6.40625 0q0.015625 0.921875 0.234375 1.59375q0.234375 0.671875 0.625 1.125q0.40625 0.453125 0.953125 0.671875q0.5625 0.21875 1.25 0.21875q0.640625 0 1.09375 -0.140625q0.453125 -0.140625 0.78125 -0.3125q0.34375 -0.171875 0.5625 -0.3125q0.234375 -0.15625 0.390625 -0.15625q0.203125 0 0.328125 0.15625l0.46875 0.625q-0.3125 0.375 -0.75 0.65625q-0.4375 0.28125 -0.9375 0.46875q-0.5 0.171875 -1.03125 0.265625q-0.53125 0.09375 -1.046875 0.09375q-1.0 0 -1.84375 -0.34375q-0.84375 -0.34375 -1.453125 -0.984375q-0.609375 -0.65625 -0.953125 -1.609375q-0.34375 -0.96875 -0.34375 -2.203125q0 -1.015625 0.3125 -1.890625q0.3125 -0.875 0.890625 -1.515625q0.578125 -0.640625 1.40625 -1.0q0.84375 -0.375 1.890625 -0.375zm0.03125 1.25q-1.21875 0 -1.921875 0.71875q-0.703125 0.703125 -0.875 1.953125l5.234375 0q0 -0.59375 -0.171875 -1.078125q-0.15625 -0.484375 -0.46875 -0.84375q-0.3125 -0.359375 -0.765625 -0.546875q-0.453125 -0.203125 -1.03125 -0.203125zm5.979004 8.53125l0 -14.0l1.703125 0l0 5.765625q0.609375 -0.703125 1.375 -1.125q0.78125 -0.421875 1.765625 -0.421875q0.84375 0 1.515625 0.3125q0.671875 0.3125 1.140625 0.9375q0.484375 0.625 0.734375 1.546875q0.265625 0.90625 0.265625 2.109375q0 1.0625 -0.296875 1.984375q-0.28125 0.921875 -0.8125 1.59375q-0.53125 0.65625 -1.3125 1.046875q-0.765625 0.390625 -1.734375 0.390625q-0.9375 0 -1.59375 -0.359375q-0.640625 -0.375 -1.125 -1.015625l-0.09375 0.875q-0.078125 0.359375 -0.4375 0.359375l-1.09375 0zm4.296875 -8.421875q-0.828125 0 -1.453125 0.375q-0.609375 0.375 -1.140625 1.078125l0 4.65625q0.453125 0.625 1.015625 0.890625q0.5625 0.25 1.234375 0.25q1.359375 0 2.078125 -0.953125q0.71875 -0.96875 0.71875 -2.75q0 -0.9375 -0.171875 -1.609375q-0.15625 -0.671875 -0.46875 -1.109375q-0.3125 -0.4375 -0.78125 -0.625q-0.453125 -0.203125 -1.03125 -0.203125z" fill-rule="nonzero"></path><path fill="#000000" fill-opacity="0.0" d="m696.0 319.0l64.0 0l0 40.629913l-64.0 0z" fill-rule="nonzero"></path><path fill="#ffffff" d="m714.18604 345.91998l0 -14.0l1.703125 0l0 5.765625q0.609375 -0.703125 1.375 -1.125q0.78125 -0.421875 1.765625 -0.421875q0.84375 0 1.515625 0.3125q0.671875 0.3125 1.140625 0.9375q0.484375 0.625 0.734375 1.546875q0.265625 0.90625 0.265625 2.109375q0 1.0625 -0.296875 1.984375q-0.28125 0.921875 -0.8125 1.59375q-0.53125 0.65625 -1.3125 1.046875q-0.765625 0.390625 -1.734375 0.390625q-0.9375 0 -1.59375 -0.359375q-0.640625 -0.375 -1.125 -1.015625l-0.09375 0.875q-0.078125 0.359375 -0.4375 0.359375l-1.09375 0zm4.296875 -8.421875q-0.828125 0 -1.453125 0.375q-0.609375 0.375 -1.140625 1.078125l0 4.65625q0.453125 0.625 1.015625 0.890625q0.5625 0.25 1.234375 0.25q1.359375 0 2.078125 -0.953125q0.71875 -0.96875 0.71875 -2.75q0 -0.9375 -0.171875 -1.609375q-0.15625 -0.671875 -0.46875 -1.109375q-0.3125 -0.4375 -0.78125 -0.625q-0.453125 -0.203125 -1.03125 -0.203125zm7.835083 -5.578125l0 8.25l0.4375 0q0.1875 0 0.3125 -0.046875q0.125 -0.0625 0.28125 -0.21875l3.03125 -3.265625q0.15625 -0.15625 0.296875 -0.25q0.140625 -0.09375 0.375 -0.09375l1.546875 0l-3.546875 3.765625q-0.140625 0.171875 -0.265625 0.296875q-0.125 0.125 -0.296875 0.21875q0.171875 0.109375 0.3125 0.265625q0.140625 0.140625 0.265625 0.328125l3.765625 4.75l-1.53125 0q-0.203125 0 -0.359375 -0.078125q-0.140625 -0.078125 -0.265625 -0.25l-3.171875 -3.953125q-0.140625 -0.1875 -0.28125 -0.25q-0.140625 -0.0625 -0.421875 -0.0625l-0.484375 0l0 4.59375l-1.703125 0l0 -14.0l1.703125 0zm8.025879 17.265625l0 -12.890625l1.0 0q0.359375 0 0.453125 0.359375l0.15625 1.140625q0.609375 -0.75 1.40625 -1.203125q0.796875 -0.46875 1.828125 -0.46875q0.828125 0 1.5 0.328125q0.671875 0.3125 1.140625 0.9375q0.484375 0.625 0.734375 1.546875q0.265625 0.90625 0.265625 2.109375q0 1.0625 -0.296875 1.984375q-0.28125 0.921875 -0.8125 1.59375q-0.53125 0.65625 -1.3125 1.046875q-0.765625 0.390625 -1.734375 0.390625q-0.890625 0 -1.53125 -0.296875q-0.625 -0.296875 -1.109375 -0.84375l0 4.265625l-1.6875 0zm4.28125 -11.6875q-0.828125 0 -1.453125 0.375q-0.625 0.375 -1.140625 1.078125l0 4.65625q0.46875 0.625 1.015625 0.890625q0.5625 0.25 1.25 0.25q1.328125 0 2.046875 -0.953125q0.734375 -0.96875 0.734375 -2.75q0 -0.9375 -0.171875 -1.609375q-0.15625 -0.671875 -0.484375 -1.109375q-0.3125 -0.4375 -0.765625 -0.625q-0.453125 -0.203125 -1.03125 -0.203125z" fill-rule="nonzero"></path></g></svg>

