<?xml version="1.0" standalone="yes"?>

<svg version="1.1" viewBox="0.0 0.0 680.0 528.0" fill="none" stroke="none" stroke-linecap="square" stroke-miterlimit="10" xmlns="http://www.w3.org/2000/svg" xmlns:xlink="http://www.w3.org/1999/xlink"><clipPath id="p.0"><path d="m0 0l680.0 0l0 528.0l-680.0 0l0 -528.0z" clip-rule="nonzero"></path></clipPath><g clip-path="url(#p.0)"><path fill="#000000" fill-opacity="0.0" d="m0 0l680.67456 0l0 528.958l-680.67456 0z" fill-rule="nonzero"></path><path fill="#b7b7b7" d="m38.593174 49.60605l275.02362 0l0 446.64566l-275.02362 0z" fill-rule="nonzero"></path><path fill="#434343" d="m92.05774 163.50394l0 0c0 -46.418015 37.629242 -84.04724 84.04724 -84.04724l0 0c22.290726 0 43.668457 8.85495 59.430374 24.616867c15.761917 15.7619095 24.616867 37.139664 24.616867 59.430374l0 0c0 46.418015 -37.629227 84.04724 -84.04724 84.04724l0 0c-46.418 0 -84.04724 -37.629227 -84.04724 -84.04724z" fill-rule="nonzero"></path><path fill="#ffffff" d="m137.77078 165.50206q0.140625 0.234375 0.234375 0.484375q0.109375 0.25 0.203125 0.5q0.09375 -0.265625 0.1875 -0.5q0.109375 -0.25 0.25 -0.5l4.609375 -8.359375q0.125 -0.21875 0.25 -0.265625q0.140625 -0.046875 0.375 -0.046875l1.359375 0l0 13.609375l-1.609375 0l0 -10.0q0 -0.203125 0 -0.421875q0.015625 -0.234375 0.03125 -0.46875l-4.65625 8.5q-0.234375 0.4375 -0.671875 0.4375l-0.265625 0q-0.421875 0 -0.65625 -0.4375l-4.765625 -8.53125q0.015625 0.25 0.03125 0.484375q0.015625 0.234375 0.015625 0.4375l0 10.0l-1.609375 0l0 -13.609375l1.359375 0q0.25 0 0.375 0.046875q0.140625 0.046875 0.25 0.265625l4.703125 8.375l0 0zm14.023132 -4.859375q0.859375 0 1.59375 0.296875q0.734375 0.28125 1.265625 0.828125q0.53125 0.546875 0.828125 1.359375q0.296875 0.796875 0.296875 1.828125q0 0.390625 -0.09375 0.53125q-0.078125 0.125 -0.3125 0.125l-6.40625 0q0.015625 0.921875 0.234375 1.59375q0.234375 0.671875 0.625 1.125q0.40625 0.453125 0.953125 0.671875q0.5625 0.21875 1.25 0.21875q0.640625 0 1.09375 -0.140625q0.453125 -0.140625 0.78125 -0.3125q0.34375 -0.171875 0.5625 -0.3125q0.234375 -0.15625 0.390625 -0.15625q0.203125 0 0.328125 0.15625l0.46875 0.625q-0.3125 0.375 -0.75 0.65625q-0.4375 0.28125 -0.9375 0.46875q-0.5 0.171875 -1.03125 0.265625q-0.53125 0.09375 -1.046875 0.09375q-1.0 0 -1.84375 -0.34375q-0.84375 -0.34375 -1.453125 -0.984375q-0.609375 -0.65625 -0.953125 -1.609375q-0.34375 -0.96875 -0.34375 -2.203125q0 -1.015625 0.3125 -1.890625q0.3125 -0.875 0.890625 -1.515625q0.578125 -0.640625 1.40625 -1.0q0.84375 -0.375 1.890625 -0.375zm0.03125 1.25q-1.21875 0 -1.921875 0.71875q-0.703125 0.703125 -0.875 1.953125l5.234375 0q0 -0.59375 -0.171875 -1.078125q-0.15625 -0.484375 -0.46875 -0.84375q-0.3125 -0.359375 -0.765625 -0.546875q-0.453125 -0.203125 -1.03125 -0.203125zm5.932129 8.53125l0 -9.625l1.0 0q0.359375 0 0.453125 0.359375l0.125 0.984375q0.53125 -0.65625 1.1875 -1.078125q0.671875 -0.421875 1.546875 -0.421875q0.96875 0 1.578125 0.546875q0.609375 0.546875 0.875 1.46875q0.1875 -0.53125 0.515625 -0.90625q0.328125 -0.375 0.734375 -0.625q0.421875 -0.25 0.875 -0.359375q0.46875 -0.125 0.9375 -0.125q0.765625 0 1.359375 0.25q0.59375 0.234375 1.0 0.703125q0.421875 0.46875 0.640625 1.15625q0.21875 0.671875 0.21875 1.546875l0 6.125l-1.703125 0l0 -6.125q0 -1.140625 -0.5 -1.71875q-0.484375 -0.578125 -1.421875 -0.578125q-0.421875 0 -0.796875 0.15625q-0.375 0.140625 -0.65625 0.421875q-0.28125 0.28125 -0.453125 0.71875q-0.171875 0.421875 -0.171875 1.0l0 6.125l-1.6875 0l0 -6.125q0 -1.15625 -0.46875 -1.71875q-0.453125 -0.578125 -1.359375 -0.578125q-0.625 0 -1.15625 0.34375q-0.53125 0.328125 -0.984375 0.90625l0 7.171875l-1.6875 0zm25.176163 -2.8125q0.15625 0 0.28125 0.125l0.71875 0.78125q-0.84375 0.96875 -2.03125 1.515625q-1.1875 0.546875 -2.875 0.546875q-1.46875 0 -2.671875 -0.5q-1.1875 -0.515625 -2.046875 -1.4375q-0.84375 -0.921875 -1.3125 -2.203125q-0.453125 -1.28125 -0.453125 -2.8125q0 -1.546875 0.5 -2.828125q0.5 -1.28125 1.390625 -2.203125q0.90625 -0.921875 2.15625 -1.421875q1.265625 -0.515625 2.78125 -0.515625q1.515625 0 2.59375 0.46875q1.09375 0.46875 1.9375 1.265625l-0.59375 0.84375q-0.078125 0.09375 -0.171875 0.15625q-0.078125 0.0625 -0.234375 0.0625q-0.125 0 -0.265625 -0.09375q-0.125 -0.09375 -0.328125 -0.21875q-0.1875 -0.140625 -0.453125 -0.28125q-0.25 -0.15625 -0.609375 -0.28125q-0.34375 -0.140625 -0.8125 -0.234375q-0.453125 -0.09375 -1.0625 -0.09375q-1.09375 0 -2.0 0.375q-0.90625 0.375 -1.5625 1.078125q-0.65625 0.6875 -1.03125 1.6875q-0.359375 1.0 -0.359375 2.234375q0 1.265625 0.359375 2.265625q0.375 1.0 1.0 1.6875q0.640625 0.6875 1.5 1.046875q0.859375 0.359375 1.859375 0.359375q0.609375 0 1.09375 -0.0625q0.484375 -0.078125 0.890625 -0.21875q0.421875 -0.15625 0.78125 -0.390625q0.359375 -0.234375 0.71875 -0.5625q0.15625 -0.140625 0.3125 -0.140625zm9.982666 2.8125l-0.75 0q-0.25 0 -0.40625 -0.078125q-0.140625 -0.078125 -0.1875 -0.328125l-0.1875 -0.890625q-0.390625 0.34375 -0.75 0.625q-0.359375 0.265625 -0.765625 0.453125q-0.390625 0.1875 -0.84375 0.28125q-0.453125 0.09375 -1.0 0.09375q-0.5625 0 -1.046875 -0.15625q-0.484375 -0.15625 -0.859375 -0.46875q-0.359375 -0.3125 -0.578125 -0.796875q-0.203125 -0.484375 -0.203125 -1.140625q0 -0.5625 0.3125 -1.09375q0.3125 -0.53125 1.0 -0.9375q0.703125 -0.40625 1.828125 -0.671875q1.140625 -0.265625 2.78125 -0.296875l0 -0.75q0 -1.125 -0.484375 -1.6875q-0.484375 -0.578125 -1.421875 -0.578125q-0.609375 0 -1.046875 0.15625q-0.421875 0.15625 -0.734375 0.359375q-0.296875 0.1875 -0.53125 0.34375q-0.21875 0.15625 -0.4375 0.15625q-0.171875 0 -0.296875 -0.09375q-0.125 -0.09375 -0.203125 -0.21875l-0.296875 -0.546875q0.796875 -0.765625 1.71875 -1.140625q0.921875 -0.390625 2.03125 -0.390625q0.8125 0 1.4375 0.265625q0.625 0.265625 1.046875 0.75q0.4375 0.46875 0.65625 1.140625q0.21875 0.671875 0.21875 1.484375l0 6.15625zm-4.390625 -1.03125q0.453125 0 0.8125 -0.09375q0.375 -0.09375 0.703125 -0.25q0.328125 -0.171875 0.625 -0.40625q0.296875 -0.25 0.59375 -0.546875l0 -2.0q-1.171875 0.03125 -2.0 0.1875q-0.8125 0.140625 -1.328125 0.375q-0.5 0.234375 -0.734375 0.5625q-0.234375 0.328125 -0.234375 0.71875q0 0.390625 0.125 0.671875q0.125 0.265625 0.328125 0.4375q0.203125 0.171875 0.484375 0.265625q0.296875 0.078125 0.625 0.078125zm13.34935 -6.875q-0.078125 0.09375 -0.15625 0.15625q-0.078125 0.0625 -0.21875 0.0625q-0.140625 0 -0.3125 -0.125q-0.15625 -0.125 -0.421875 -0.265625q-0.25 -0.140625 -0.625 -0.25q-0.359375 -0.125 -0.890625 -0.125q-0.703125 0 -1.25 0.25q-0.53125 0.25 -0.90625 0.734375q-0.359375 0.46875 -0.546875 1.140625q-0.1875 0.671875 -0.1875 1.515625q0 0.875 0.203125 1.5625q0.203125 0.671875 0.5625 1.140625q0.359375 0.453125 0.875 0.703125q0.515625 0.234375 1.171875 0.234375q0.609375 0 1.0 -0.140625q0.40625 -0.15625 0.671875 -0.328125q0.265625 -0.1875 0.4375 -0.328125q0.171875 -0.15625 0.34375 -0.15625q0.21875 0 0.328125 0.15625l0.46875 0.625q-0.625 0.765625 -1.5625 1.125q-0.9375 0.359375 -1.984375 0.359375q-0.90625 0 -1.6875 -0.328125q-0.765625 -0.34375 -1.34375 -0.96875q-0.5625 -0.640625 -0.890625 -1.5625q-0.328125 -0.921875 -0.328125 -2.09375q0 -1.078125 0.296875 -1.984375q0.296875 -0.921875 0.875 -1.578125q0.578125 -0.65625 1.421875 -1.03125q0.84375 -0.375 1.9375 -0.375q1.0 0 1.78125 0.328125q0.78125 0.328125 1.375 0.9375l-0.4375 0.609375zm2.1499634 7.90625l0 -14.0l1.6875 0l0 5.671875q0.625 -0.65625 1.375 -1.046875q0.75 -0.40625 1.71875 -0.40625q0.796875 0 1.390625 0.265625q0.609375 0.265625 1.015625 0.75q0.40625 0.46875 0.609375 1.15625q0.203125 0.671875 0.203125 1.484375l0 6.125l-1.6875 0l0 -6.125q0 -1.09375 -0.5 -1.6875q-0.5 -0.609375 -1.515625 -0.609375q-0.75 0 -1.40625 0.359375q-0.65625 0.359375 -1.203125 0.96875l0 7.09375l-1.6875 0zm14.185379 -9.78125q0.859375 0 1.59375 0.296875q0.734375 0.28125 1.265625 0.828125q0.53125 0.546875 0.828125 1.359375q0.296875 0.796875 0.296875 1.828125q0 0.390625 -0.09375 0.53125q-0.078125 0.125 -0.3125 0.125l-6.40625 0q0.015625 0.921875 0.234375 1.59375q0.234375 0.671875 0.625 1.125q0.40625 0.453125 0.953125 0.671875q0.5625 0.21875 1.25 0.21875q0.640625 0 1.09375 -0.140625q0.453125 -0.140625 0.78125 -0.3125q0.34375 -0.171875 0.5625 -0.3125q0.234375 -0.15625 0.390625 -0.15625q0.203125 0 0.328125 0.15625l0.46875 0.625q-0.3125 0.375 -0.75 0.65625q-0.4375 0.28125 -0.9375 0.46875q-0.5 0.171875 -1.03125 0.265625q-0.53125 0.09375 -1.046875 0.09375q-1.0 0 -1.84375 -0.34375q-0.84375 -0.34375 -1.453125 -0.984375q-0.609375 -0.65625 -0.953125 -1.609375q-0.34375 -0.96875 -0.34375 -2.203125q0 -1.015625 0.3125 -1.890625q0.3125 -0.875 0.890625 -1.515625q0.578125 -0.640625 1.40625 -1.0q0.84375 -0.375 1.890625 -0.375zm0.03125 1.25q-1.21875 0 -1.921875 0.71875q-0.703125 0.703125 -0.875 1.953125l5.234375 0q0 -0.59375 -0.171875 -1.078125q-0.15625 -0.484375 -0.46875 -0.84375q-0.3125 -0.359375 -0.765625 -0.546875q-0.453125 -0.203125 -1.03125 -0.203125z" fill-rule="nonzero"></path><path fill="#434343" d="m92.05774 379.35434l0 0c0 -46.41803 37.629242 -84.04724 84.04724 -84.04724l0 0c22.290726 0 43.668457 8.85495 59.430374 24.616852c15.761917 15.761932 24.616867 37.13968 24.616867 59.43039l0 0c0 46.418 -37.629227 84.04724 -84.04724 84.04724l0 0c-46.418 0 -84.04724 -37.629242 -84.04724 -84.04724z" fill-rule="nonzero"></path><path fill="#ffffff" d="m169.6325 386.27432l-1.84375 0l0 -6.1875l-7.34375 0l0 6.1875l-1.84375 0l0 -13.609375l1.84375 0l0 6.0625l7.34375 0l0 -6.0625l1.84375 0l0 13.609375zm5.713501 0.15625q-1.140625 0 -1.75 -0.640625q-0.609375 -0.640625 -0.609375 -1.828125l0 -5.890625l-1.15625 0q-0.15625 0 -0.265625 -0.09375q-0.09375 -0.09375 -0.09375 -0.28125l0 -0.671875l1.578125 -0.203125l0.390625 -2.96875q0.015625 -0.140625 0.109375 -0.234375q0.109375 -0.09375 0.28125 -0.09375l0.84375 0l0 3.3125l2.765625 0l0 1.234375l-2.765625 0l0 5.765625q0 0.609375 0.296875 0.90625q0.296875 0.296875 0.765625 0.296875q0.265625 0 0.453125 -0.0625q0.203125 -0.078125 0.34375 -0.15625q0.140625 -0.09375 0.234375 -0.15625q0.109375 -0.078125 0.1875 -0.078125q0.125 0 0.234375 0.15625l0.484375 0.8125q-0.4375 0.40625 -1.0625 0.640625q-0.609375 0.234375 -1.265625 0.234375zm6.958786 0q-1.140625 0 -1.75 -0.640625q-0.609375 -0.640625 -0.609375 -1.828125l0 -5.890625l-1.15625 0q-0.15625 0 -0.265625 -0.09375q-0.09375 -0.09375 -0.09375 -0.28125l0 -0.671875l1.578125 -0.203125l0.390625 -2.96875q0.015625 -0.140625 0.109375 -0.234375q0.109375 -0.09375 0.28125 -0.09375l0.84375 0l0 3.3125l2.765625 0l0 1.234375l-2.765625 0l0 5.765625q0 0.609375 0.296875 0.90625q0.296875 0.296875 0.765625 0.296875q0.265625 0 0.453125 -0.0625q0.203125 -0.078125 0.34375 -0.15625q0.140625 -0.09375 0.234375 -0.15625q0.109375 -0.078125 0.1875 -0.078125q0.125 0 0.234375 0.15625l0.484375 0.8125q-0.4375 0.40625 -1.0625 0.640625q-0.609375 0.234375 -1.265625 0.234375zm4.052536 3.109375l0 -12.890625l1.0 0q0.359375 0 0.453125 0.359375l0.15625 1.140625q0.609375 -0.75 1.40625 -1.203125q0.796875 -0.46875 1.828125 -0.46875q0.828125 0 1.5 0.328125q0.671875 0.3125 1.140625 0.9375q0.484375 0.625 0.734375 1.546875q0.265625 0.90625 0.265625 2.109375q0 1.0625 -0.296875 1.984375q-0.28125 0.921875 -0.8125 1.59375q-0.53125 0.65625 -1.3125 1.046875q-0.765625 0.390625 -1.734375 0.390625q-0.890625 0 -1.53125 -0.296875q-0.625 -0.296875 -1.109375 -0.84375l0 4.265625l-1.6875 0zm4.28125 -11.6875q-0.828125 0 -1.453125 0.375q-0.625 0.375 -1.140625 1.078125l0 4.65625q0.46875 0.625 1.015625 0.890625q0.5625 0.25 1.25 0.25q1.328125 0 2.046875 -0.953125q0.734375 -0.96875 0.734375 -2.75q0 -0.9375 -0.171875 -1.609375q-0.15625 -0.671875 -0.484375 -1.109375q-0.3125 -0.4375 -0.765625 -0.625q-0.453125 -0.203125 -1.03125 -0.203125z" fill-rule="nonzero"></path><path fill="#b7b7b7" d="m369.57217 49.246796l275.02365 0l0 446.64566l-275.02365 0z" fill-rule="nonzero"></path><path fill="#434343" d="m423.03674 163.16405l0 0c0 -46.418015 37.629242 -84.04725 84.04724 -84.04725l0 0c22.29071 0 43.668457 8.85495 59.43036 24.616867c15.761963 15.761917 24.616882 37.139656 24.616882 59.43038l0 0c0 46.418 -37.62921 84.04724 -84.04724 84.04724l0 0c-46.418 0 -84.04724 -37.629242 -84.04724 -84.04724z" fill-rule="nonzero"></path><path fill="#ffffff" d="m488.20978 164.39653l0 5.6875l-1.828125 0l0 -13.609375l3.84375 0q1.296875 0 2.234375 0.265625q0.9375 0.25 1.546875 0.75q0.625 0.484375 0.90625 1.1875q0.296875 0.703125 0.296875 1.5625q0 0.71875 -0.234375 1.359375q-0.21875 0.625 -0.65625 1.125q-0.421875 0.484375 -1.046875 0.84375q-0.625 0.34375 -1.40625 0.53125q0.34375 0.203125 0.609375 0.578125l3.96875 5.40625l-1.640625 0q-0.5 0 -0.734375 -0.390625l-3.53125 -4.859375q-0.171875 -0.234375 -0.359375 -0.328125q-0.1875 -0.109375 -0.5625 -0.109375l-1.40625 0zm0 -1.328125l1.9375 0q0.796875 0 1.40625 -0.1875q0.625 -0.203125 1.03125 -0.5625q0.421875 -0.359375 0.625 -0.84375q0.203125 -0.5 0.203125 -1.09375q0 -1.21875 -0.796875 -1.828125q-0.796875 -0.625 -2.390625 -0.625l-2.015625 0l0 5.140625zm13.545868 -2.765625q0.859375 0 1.59375 0.296875q0.734375 0.28125 1.265625 0.828125q0.53125 0.546875 0.828125 1.359375q0.296875 0.796875 0.296875 1.828125q0 0.390625 -0.09375 0.53125q-0.078125 0.125 -0.3125 0.125l-6.40625 0q0.015625 0.921875 0.234375 1.59375q0.234375 0.671875 0.625 1.125q0.40625 0.453125 0.953125 0.671875q0.5625 0.21875 1.25 0.21875q0.640625 0 1.09375 -0.140625q0.453125 -0.140625 0.78125 -0.3125q0.34375 -0.171875 0.5625 -0.3125q0.234375 -0.15625 0.390625 -0.15625q0.203125 0 0.328125 0.15625l0.46875 0.625q-0.3125 0.375 -0.75 0.65625q-0.4375 0.28125 -0.9375 0.46875q-0.5 0.171875 -1.03125 0.265625q-0.53125 0.09375 -1.046875 0.09375q-1.0 0 -1.84375 -0.34375q-0.84375 -0.34375 -1.453125 -0.984375q-0.609375 -0.65625 -0.953125 -1.609375q-0.34375 -0.96875 -0.34375 -2.203125q0 -1.015625 0.3125 -1.890625q0.3125 -0.875 0.890625 -1.515625q0.578125 -0.640625 1.40625 -1.0q0.84375 -0.375 1.890625 -0.375zm0.03125 1.25q-1.21875 0 -1.921875 0.71875q-0.703125 0.703125 -0.875 1.953125l5.234375 0q0 -0.59375 -0.171875 -1.078125q-0.15625 -0.484375 -0.46875 -0.84375q-0.3125 -0.359375 -0.765625 -0.546875q-0.453125 -0.203125 -1.03125 -0.203125zm12.697784 8.53125q-0.359375 0 -0.453125 -0.34375l-0.15625 -1.171875q-0.609375 0.75 -1.40625 1.203125q-0.7969055 0.453125 -1.8125305 0.453125q-0.828125 0 -1.515625 -0.3125q-0.671875 -0.328125 -1.140625 -0.9375q-0.46875 -0.625 -0.734375 -1.546875q-0.25 -0.921875 -0.25 -2.125q0 -1.0625 0.28125 -1.96875q0.28125 -0.921875 0.8125 -1.59375q0.546875 -0.6875 1.3125 -1.0625q0.765625 -0.390625 1.75 -0.390625q0.8906555 0 1.5156555 0.296875q0.625 0.296875 1.109375 0.84375l0 -5.34375l1.703125 0l0 14.0l-1.015625 0zm-3.2656555 -1.234375q0.8125305 0 1.4375305 -0.375q0.625 -0.390625 1.140625 -1.078125l0 -4.65625q-0.453125 -0.625 -1.015625 -0.875q-0.546875 -0.25 -1.2344055 -0.25q-1.34375 0 -2.0625 0.953125q-0.71875 0.953125 -0.71875 2.734375q0 0.9375 0.15625 1.609375q0.15625 0.671875 0.46875 1.109375q0.3125 0.421875 0.765625 0.625q0.46875 0.203125 1.0625 0.203125zm8.803864 -8.390625l0 9.625l-1.6875 0l0 -9.625l1.6875 0zm0.375 -3.015625q0 0.25 -0.09375 0.46875q-0.09375 0.203125 -0.265625 0.375q-0.171875 0.15625 -0.390625 0.25q-0.21875 0.09375 -0.453125 0.09375q-0.25 0 -0.46875 -0.09375q-0.21875 -0.09375 -0.390625 -0.25q-0.15625 -0.171875 -0.25 -0.375q-0.09375 -0.21875 -0.09375 -0.46875q0 -0.25 0.09375 -0.46875q0.09375 -0.234375 0.25 -0.390625q0.171875 -0.171875 0.390625 -0.265625q0.21875 -0.09375 0.46875 -0.09375q0.234375 0 0.453125 0.09375q0.21875 0.09375 0.390625 0.265625q0.171875 0.15625 0.265625 0.390625q0.09375 0.21875 0.09375 0.46875zm8.026001 4.609375q-0.109375 0.203125 -0.34375 0.203125q-0.140625 0 -0.328125 -0.09375q-0.171875 -0.109375 -0.4375 -0.234375q-0.265625 -0.140625 -0.625 -0.25q-0.359375 -0.109375 -0.859375 -0.109375q-0.421875 0 -0.765625 0.109375q-0.34375 0.109375 -0.59375 0.3125q-0.234375 0.1875 -0.359375 0.4375q-0.125 0.25 -0.125 0.546875q0 0.359375 0.203125 0.609375q0.21875 0.25 0.5625 0.4375q0.359375 0.171875 0.796875 0.3125q0.453125 0.140625 0.921875 0.296875q0.484375 0.15625 0.921875 0.34375q0.453125 0.1875 0.796875 0.484375q0.359375 0.28125 0.5625 0.6875q0.21875 0.40625 0.21875 1.0q0 0.65625 -0.234375 1.21875q-0.234375 0.5625 -0.703125 0.984375q-0.46875 0.40625 -1.140625 0.65625q-0.671875 0.234375 -1.5625 0.234375q-1.0 0 -1.828125 -0.328125q-0.8125 -0.328125 -1.375 -0.84375l0.390625 -0.640625q0.078125 -0.125 0.171875 -0.1875q0.109375 -0.078125 0.28125 -0.078125q0.171875 0 0.359375 0.140625q0.203125 0.125 0.46875 0.296875q0.265625 0.15625 0.65625 0.296875q0.390625 0.125 0.96875 0.125q0.484375 0 0.859375 -0.125q0.375 -0.140625 0.609375 -0.34375q0.25 -0.21875 0.375 -0.5q0.125 -0.296875 0.125 -0.625q0 -0.390625 -0.21875 -0.65625q-0.21875 -0.265625 -0.578125 -0.4375q-0.34375 -0.1875 -0.796875 -0.328125q-0.453125 -0.140625 -0.921875 -0.28125q-0.46875 -0.15625 -0.921875 -0.34375q-0.453125 -0.203125 -0.8125 -0.5q-0.34375 -0.296875 -0.5625 -0.71875q-0.203125 -0.4375 -0.203125 -1.0625q0 -0.546875 0.21875 -1.046875q0.234375 -0.515625 0.671875 -0.890625q0.4375 -0.390625 1.078125 -0.625q0.640625 -0.234375 1.453125 -0.234375q0.953125 0 1.703125 0.3125q0.75 0.296875 1.3125 0.8125l-0.390625 0.625z" fill-rule="nonzero"></path><path fill="#000000" fill-opacity="0.0" d="m236.10019 130.32578l0 0c24.928253 -31.618622 62.790314 -50.304024 103.05011 -50.856506c40.259766 -0.5524826 78.62033 17.086922 104.40683 48.009598l-102.57419 85.53688z" fill-rule="nonzero"></path><path fill="#000000" fill-opacity="0.0" d="m236.10019 130.32578l0 0c24.928253 -31.618622 62.790314 -50.304024 103.05011 -50.856506c40.259766 -0.5524826 78.62033 17.086922 104.40683 48.009598" fill-rule="nonzero"></path><path stroke="#434343" stroke-width="3.0" stroke-linejoin="round" stroke-linecap="butt" d="m236.10019 130.32578l0 0c24.928253 -31.618622 62.790314 -50.304024 103.05011 -50.856506c40.259766 -0.5524826 78.62033 17.086922 104.40683 48.009598" fill-rule="nonzero"></path><path fill="#000000" fill-opacity="0.0" d="m176.10498 247.55118l0 47.748016" fill-rule="nonzero"></path><path stroke="#434343" stroke-width="3.0" stroke-linejoin="round" stroke-linecap="butt" d="m176.10498 247.55118l0 47.748016" fill-rule="nonzero"></path><path fill="#000000" fill-opacity="0.0" d="m313.80414 82.25133l0 0c18.781036 -3.9035568 38.182556 -3.7157059 56.88449 0.5507736l-29.705688 130.21365z" fill-rule="nonzero"></path><path fill="#000000" fill-opacity="0.0" d="m313.80414 82.25133l0 0c18.781036 -3.9035568 38.182556 -3.7157059 56.88449 0.5507736" fill-rule="nonzero"></path><path stroke="#b7b7b7" stroke-width="3.0" stroke-linejoin="round" stroke-linecap="butt" d="m313.80414 82.25133l0 0c18.781036 -3.9035568 38.182556 -3.7157059 56.88449 0.5507736" fill-rule="nonzero"></path><path fill="#000000" fill-opacity="0.0" d="m38.745407 14.543307l80.37795 0l0 40.56693l-80.37795 0z" fill-rule="nonzero"></path><path fill="#999999" d="m49.136032 41.746773l0 -14.000002l1.6875 0l0 5.671877q0.625 -0.65625 1.375 -1.046875q0.75 -0.4062519 1.71875 -0.4062519q0.796875 0 1.390625 0.2656269q0.609375 0.265625 1.015625 0.75q0.40625 0.46875 0.609375 1.15625q0.203125 0.671875 0.203125 1.484375l0 6.125l-1.6875 0l0 -6.125q0 -1.09375 -0.5 -1.6875q-0.5 -0.609375 -1.515625 -0.609375q-0.75 0 -1.40625 0.359375q-0.65625 0.359375 -1.203125 0.96875l0 7.09375l-1.6875 0zm14.263504 -9.781252q1.0625 0 1.90625 0.3593769q0.84375 0.34375 1.4375 1.0q0.59375 0.640625 0.90625 1.5625q0.328125 0.90625 0.328125 2.046875q0 1.140625 -0.328125 2.046875q-0.3125 0.90625 -0.90625 1.5625q-0.59375 0.640625 -1.4375 1.0q-0.84375 0.34375 -1.90625 0.34375q-1.046875 0 -1.90625 -0.34375q-0.84375 -0.359375 -1.453125 -1.0q-0.59375 -0.65625 -0.921875 -1.5625q-0.3125 -0.90625 -0.3125 -2.046875q0 -1.140625 0.3125 -2.046875q0.328125 -0.921875 0.921875 -1.5625q0.609375 -0.65625 1.453125 -1.0q0.859375 -0.3593769 1.90625 -0.3593769zm0 8.593752q1.421875 0 2.125 -0.953125q0.703125 -0.953125 0.703125 -2.671875q0 -1.71875 -0.703125 -2.671875q-0.703125 -0.96875 -2.125 -0.96875q-0.71875 0 -1.25 0.25q-0.53125 0.25 -0.890625 0.71875q-0.359375 0.46875 -0.53125 1.15625q-0.171875 0.671875 -0.171875 1.515625q0 0.859375 0.171875 1.53125q0.171875 0.671875 0.53125 1.140625q0.359375 0.453125 0.890625 0.703125q0.53125 0.25 1.25 0.25zm11.982254 -6.84375q-0.109375 0.203125 -0.34375 0.203125q-0.140625 0 -0.328125 -0.09375q-0.171875 -0.109375 -0.4375 -0.234375q-0.265625 -0.140625 -0.625 -0.25q-0.359375 -0.109375 -0.859375 -0.109375q-0.421875 0 -0.765625 0.109375q-0.34375 0.109375 -0.59375 0.3125q-0.234375 0.1875 -0.359375 0.4375q-0.125 0.25 -0.125 0.546875q0 0.359375 0.203125 0.609375q0.21875 0.25 0.5625 0.4375q0.359375 0.171875 0.796875 0.3125q0.453125 0.140625 0.921875 0.296875q0.484375 0.15625 0.921875 0.34375q0.453125 0.1875 0.796875 0.484375q0.359375 0.28125 0.5625 0.6875q0.21875 0.40625 0.21875 1.0q0 0.65625 -0.234375 1.21875q-0.234375 0.5625 -0.703125 0.984375q-0.46875 0.40625 -1.140625 0.65625q-0.671875 0.234375 -1.5625 0.234375q-1.0 0 -1.828125 -0.328125q-0.8125 -0.328125 -1.375 -0.84375l0.390625 -0.640625q0.078125 -0.125 0.171875 -0.1875q0.109375 -0.078125 0.28125 -0.078125q0.171875 0 0.359375 0.140625q0.203125 0.125 0.46875 0.296875q0.265625 0.15625 0.65625 0.296875q0.390625 0.125 0.96875 0.125q0.484375 0 0.859375 -0.125q0.375 -0.140625 0.609375 -0.34375q0.25 -0.21875 0.375 -0.5q0.125 -0.296875 0.125 -0.625q0 -0.390625 -0.21875 -0.65625q-0.21875 -0.265625 -0.578125 -0.4375q-0.34375 -0.1875 -0.796875 -0.328125q-0.453125 -0.140625 -0.921875 -0.28125q-0.46875 -0.15625 -0.921875 -0.34375q-0.453125 -0.203125 -0.8125 -0.5q-0.34375 -0.296875 -0.5625 -0.71875q-0.203125 -0.4375 -0.203125 -1.0625q0 -0.546875 0.21875 -1.046875q0.234375 -0.515625 0.671875 -0.890625q0.4375 -0.390625 1.078125 -0.625q0.640625 -0.2343769 1.453125 -0.2343769q0.953125 0 1.703125 0.3125019q0.75 0.296875 1.3125 0.8125l-0.390625 0.625zm5.503067 8.1875q-1.140625 0 -1.75 -0.640625q-0.609375 -0.640625 -0.609375 -1.828125l0 -5.890625l-1.15625 0q-0.15625 0 -0.265625 -0.09375q-0.09375 -0.09375 -0.09375 -0.28125l0 -0.671875l1.578125 -0.203125l0.390625 -2.968752q0.015625 -0.140625 0.109375 -0.234375q0.109375 -0.09375 0.28125 -0.09375l0.84375 0l0 3.312502l2.765625 0l0 1.234375l-2.765625 0l0 5.765625q0 0.609375 0.296875 0.90625q0.296875 0.296875 0.765625 0.296875q0.265625 0 0.453125 -0.0625q0.203125 -0.078125 0.34375 -0.15625q0.140625 -0.09375 0.234375 -0.15625q0.109375 -0.078125 0.1875 -0.078125q0.125 0 0.234375 0.15625l0.484375 0.8125q-0.4375 0.40625 -1.0625 0.640625q-0.609375 0.234375 -1.265625 0.234375zm5.380661 -1.453125l2.9375 0l0 -9.281252q0 -0.40625 0.03125 -0.84375l-2.4375 2.078127q-0.09375 0.078125 -0.1875 0.109375q-0.09375 0.03125 -0.1875 0.03125q-0.140625 0 -0.25 -0.046875q-0.109375 -0.0625 -0.171875 -0.15625l-0.53125 -0.7343769l4.046875 -3.5l1.375 0l0 12.343752l2.671875 0l0 1.296875l-7.296875 0l0 -1.296875z" fill-rule="nonzero"></path><path fill="#000000" fill-opacity="0.0" d="m366.7454 14.543307l80.37796 0l0 40.56693l-80.37796 0z" fill-rule="nonzero"></path><path fill="#999999" d="m377.13602 41.746773l0 -14.000002l1.6875 0l0 5.671877q0.625 -0.65625 1.375 -1.046875q0.75 -0.4062519 1.71875 -0.4062519q0.796875 0 1.390625 0.2656269q0.609375 0.265625 1.015625 0.75q0.40625 0.46875 0.609375 1.15625q0.203125 0.671875 0.203125 1.484375l0 6.125l-1.6875 0l0 -6.125q0 -1.09375 -0.5 -1.6875q-0.5 -0.609375 -1.515625 -0.609375q-0.75 0 -1.40625 0.359375q-0.65625 0.359375 -1.203125 0.96875l0 7.09375l-1.6875 0zm14.263519 -9.781252q1.0625 0 1.90625 0.3593769q0.84375 0.34375 1.4375 1.0q0.59375 0.640625 0.90625 1.5625q0.328125 0.90625 0.328125 2.046875q0 1.140625 -0.328125 2.046875q-0.3125 0.90625 -0.90625 1.5625q-0.59375 0.640625 -1.4375 1.0q-0.84375 0.34375 -1.90625 0.34375q-1.046875 0 -1.90625 -0.34375q-0.84375 -0.359375 -1.453125 -1.0q-0.59375 -0.65625 -0.921875 -1.5625q-0.3125 -0.90625 -0.3125 -2.046875q0 -1.140625 0.3125 -2.046875q0.328125 -0.921875 0.921875 -1.5625q0.609375 -0.65625 1.453125 -1.0q0.859375 -0.3593769 1.90625 -0.3593769zm0 8.593752q1.421875 0 2.125 -0.953125q0.703125 -0.953125 0.703125 -2.671875q0 -1.71875 -0.703125 -2.671875q-0.703125 -0.96875 -2.125 -0.96875q-0.71875 0 -1.25 0.25q-0.53125 0.25 -0.890625 0.71875q-0.359375 0.46875 -0.53125 1.15625q-0.171875 0.671875 -0.171875 1.515625q0 0.859375 0.171875 1.53125q0.171875 0.671875 0.53125 1.140625q0.359375 0.453125 0.890625 0.703125q0.53125 0.25 1.25 0.25zm11.982239 -6.84375q-0.109375 0.203125 -0.34375 0.203125q-0.140625 0 -0.328125 -0.09375q-0.171875 -0.109375 -0.4375 -0.234375q-0.265625 -0.140625 -0.625 -0.25q-0.359375 -0.109375 -0.859375 -0.109375q-0.421875 0 -0.765625 0.109375q-0.34375 0.109375 -0.59375 0.3125q-0.234375 0.1875 -0.359375 0.4375q-0.125 0.25 -0.125 0.546875q0 0.359375 0.203125 0.609375q0.21875 0.25 0.5625 0.4375q0.359375 0.171875 0.796875 0.3125q0.453125 0.140625 0.921875 0.296875q0.484375 0.15625 0.921875 0.34375q0.453125 0.1875 0.796875 0.484375q0.359375 0.28125 0.5625 0.6875q0.21875 0.40625 0.21875 1.0q0 0.65625 -0.234375 1.21875q-0.234375 0.5625 -0.703125 0.984375q-0.46875 0.40625 -1.140625 0.65625q-0.671875 0.234375 -1.5625 0.234375q-1.0 0 -1.828125 -0.328125q-0.8125 -0.328125 -1.375 -0.84375l0.390625 -0.640625q0.078125 -0.125 0.171875 -0.1875q0.109375 -0.078125 0.28125 -0.078125q0.171875 0 0.359375 0.140625q0.203125 0.125 0.46875 0.296875q0.265625 0.15625 0.65625 0.296875q0.390625 0.125 0.96875 0.125q0.484375 0 0.859375 -0.125q0.375 -0.140625 0.609375 -0.34375q0.25 -0.21875 0.375 -0.5q0.125 -0.296875 0.125 -0.625q0 -0.390625 -0.21875 -0.65625q-0.21875 -0.265625 -0.578125 -0.4375q-0.34375 -0.1875 -0.796875 -0.328125q-0.453125 -0.140625 -0.921875 -0.28125q-0.46875 -0.15625 -0.921875 -0.34375q-0.453125 -0.203125 -0.8125 -0.5q-0.34375 -0.296875 -0.5625 -0.71875q-0.203125 -0.4375 -0.203125 -1.0625q0 -0.546875 0.21875 -1.046875q0.234375 -0.515625 0.671875 -0.890625q0.4375 -0.390625 1.078125 -0.625q0.640625 -0.2343769 1.453125 -0.2343769q0.953125 0 1.703125 0.3125019q0.75 0.296875 1.3125 0.8125l-0.390625 0.625zm5.5030823 8.1875q-1.140625 0 -1.75 -0.640625q-0.609375 -0.640625 -0.609375 -1.828125l0 -5.890625l-1.15625 0q-0.15625 0 -0.265625 -0.09375q-0.09375 -0.09375 -0.09375 -0.28125l0 -0.671875l1.578125 -0.203125l0.390625 -2.968752q0.015625 -0.140625 0.109375 -0.234375q0.109375 -0.09375 0.28125 -0.09375l0.84375 0l0 3.312502l2.765625 0l0 1.234375l-2.765625 0l0 5.765625q0 0.609375 0.296875 0.90625q0.296875 0.296875 0.765625 0.296875q0.265625 0 0.453125 -0.0625q0.203125 -0.078125 0.34375 -0.15625q0.140625 -0.09375 0.234375 -0.15625q0.109375 -0.078125 0.1875 -0.078125q0.125 0 0.234375 0.15625l0.484375 0.8125q-0.4375 0.40625 -1.0625 0.640625q-0.609375 0.234375 -1.265625 0.234375zm8.365021 -13.921877q0.875 0 1.625 0.265625q0.75 0.25 1.296875 0.734375q0.546875 0.484375 0.859375 1.1875q0.3125 0.703125 0.3125 1.609375q0 0.7500019 -0.234375 1.4062519q-0.21875 0.640625 -0.609375 1.234375q-0.390625 0.59375 -0.90625 1.15625q-0.5 0.546875 -1.078125 1.125l-3.578125 3.671875q0.375 -0.109375 0.765625 -0.171875q0.390625 -0.0625 0.75 -0.0625l4.5625 0q0.28125 0 0.4375 0.171875q0.15625 0.15625 0.15625 0.40625l0 1.03125l-9.078125 0l0 -0.578125q0 -0.1875 0.0625 -0.375q0.078125 -0.1875 0.25 -0.34375l4.359375 -4.390625q0.53125 -0.546875 0.984375 -1.046875q0.453125 -0.515625 0.765625 -1.03125q0.3125 -0.515625 0.484375 -1.03125q0.171875 -0.53125 0.171875 -1.1250019q0 -0.609375 -0.1875 -1.046875q-0.1875 -0.453125 -0.53125 -0.75q-0.328125 -0.296875 -0.78125 -0.4375q-0.4375 -0.15625 -0.953125 -0.15625q-0.515625 0 -0.953125 0.15625q-0.421875 0.140625 -0.765625 0.421875q-0.34375 0.265625 -0.578125 0.640625q-0.21875 0.375 -0.3125 0.8125q-0.078125 0.28125 -0.234375 0.40625q-0.15625 0.125 -0.40625 0.125q-0.046875 0 -0.09375 0q-0.046875 -0.015625 -0.125 -0.03125l-0.875 -0.140625q0.125 -0.9375 0.5 -1.65625q0.390625 -0.71875 0.96875 -1.203125q0.59375 -0.484375 1.34375 -0.734375q0.75 -0.25 1.625 -0.25z" fill-rule="nonzero"></path><path fill="#000000" fill-opacity="0.0" d="m54.745407 70.543304l80.377945 0l0 40.566933l-80.377945 0z" fill-rule="nonzero"></path><path fill="#434343" d="m71.69853 89.84052q-0.078125 0.09375 -0.15625 0.15625q-0.078125 0.0625 -0.21875 0.0625q-0.140625 0 -0.3125 -0.125q-0.15625 -0.125 -0.421875 -0.265625q-0.25 -0.140625 -0.625 -0.25q-0.359375 -0.125 -0.890625 -0.125q-0.703125 0 -1.25 0.25q-0.53125 0.25 -0.90625 0.734375q-0.359375 0.46875 -0.546875 1.140625q-0.1875 0.671875 -0.1875 1.515625q0 0.875 0.203125 1.5625q0.203125 0.671875 0.5625 1.140625q0.359375 0.453125 0.875 0.703125q0.515625 0.234375 1.171875 0.234375q0.609375 0 1.0 -0.140625q0.40625 -0.15625 0.671875 -0.328125q0.265625 -0.1875 0.4375 -0.328125q0.171875 -0.15625 0.34375 -0.15625q0.21875 0 0.328125 0.15625l0.46875 0.625q-0.625 0.765625 -1.5625 1.125q-0.9375 0.359375 -1.984375 0.359375q-0.90625 0 -1.6875 -0.328125q-0.765625 -0.34375 -1.34375 -0.96875q-0.5625 -0.640625 -0.890625 -1.5625q-0.328125 -0.921875 -0.328125 -2.09375q0 -1.078125 0.296875 -1.984375q0.296875 -0.921875 0.875 -1.578125q0.578125 -0.65625 1.421875 -1.03125q0.84375 -0.375 1.9375 -0.375q1.0 0 1.78125 0.328125q0.78125 0.328125 1.375 0.9375l-0.4375 0.609375zm9.212463 7.90625l-0.75 0q-0.25 0 -0.40625 -0.078125q-0.140625 -0.078125 -0.1875 -0.328125l-0.1875 -0.890625q-0.390625 0.34375 -0.75 0.625q-0.359375 0.265625 -0.765625 0.453125q-0.390625 0.1875 -0.84375 0.28125q-0.453125 0.09375 -1.0 0.09375q-0.5625 0 -1.046875 -0.15625q-0.484375 -0.15625 -0.859375 -0.46875q-0.359375 -0.3125 -0.578125 -0.796875q-0.203125 -0.484375 -0.203125 -1.140625q0 -0.5625 0.3125 -1.09375q0.3125 -0.53125 1.0 -0.9375q0.703125 -0.40625 1.828125 -0.671875q1.140625 -0.265625 2.78125 -0.296875l0 -0.75q0 -1.125 -0.484375 -1.6875q-0.484375 -0.578125 -1.421875 -0.578125q-0.609375 0 -1.046875 0.15625q-0.421875 0.15625 -0.734375 0.359375q-0.296875 0.1875 -0.53125 0.34375q-0.21875 0.15625 -0.4375 0.15625q-0.171875 0 -0.296875 -0.09375q-0.125 -0.09375 -0.203125 -0.21875l-0.296875 -0.546875q0.796875 -0.765625 1.71875 -1.140625q0.921875 -0.390625 2.03125 -0.390625q0.8125 0 1.4375 0.265625q0.625 0.265625 1.046875 0.75q0.4375 0.46875 0.65625 1.140625q0.21875 0.671875 0.21875 1.484375l0 6.15625zm-4.390625 -1.03125q0.453125 0 0.8125 -0.09375q0.375 -0.09375 0.703125 -0.25q0.328125 -0.171875 0.625 -0.40625q0.296875 -0.25 0.59375 -0.546875l0 -2.0q-1.171875 0.03125 -2.0 0.1875q-0.8125 0.140625 -1.328125 0.375q-0.5 0.234375 -0.734375 0.5625q-0.234375 0.328125 -0.234375 0.71875q0 0.390625 0.125 0.671875q0.125 0.265625 0.328125 0.4375q0.203125 0.171875 0.484375 0.265625q0.296875 0.078125 0.625 0.078125zm13.34935 -6.875q-0.078125 0.09375 -0.15625 0.15625q-0.078125 0.0625 -0.21875 0.0625q-0.140625 0 -0.3125 -0.125q-0.15625 -0.125 -0.421875 -0.265625q-0.25 -0.140625 -0.625 -0.25q-0.359375 -0.125 -0.890625 -0.125q-0.703125 0 -1.25 0.25q-0.53125 0.25 -0.90625 0.734375q-0.359375 0.46875 -0.546875 1.140625q-0.1875 0.671875 -0.1875 1.515625q0 0.875 0.203125 1.5625q0.203125 0.671875 0.5625 1.140625q0.359375 0.453125 0.875 0.703125q0.515625 0.234375 1.171875 0.234375q0.609375 0 1.0 -0.140625q0.40625 -0.15625 0.671875 -0.328125q0.265625 -0.1875 0.4375 -0.328125q0.171875 -0.15625 0.34375 -0.15625q0.21875 0 0.328125 0.15625l0.46875 0.625q-0.625 0.765625 -1.5625 1.125q-0.9375 0.359375 -1.984375 0.359375q-0.90625 0 -1.6875 -0.328125q-0.765625 -0.34375 -1.34375 -0.96875q-0.5625 -0.640625 -0.890625 -1.5625q-0.328125 -0.921875 -0.328125 -2.09375q0 -1.078125 0.296875 -1.984375q0.296875 -0.921875 0.875 -1.578125q0.578125 -0.65625 1.421875 -1.03125q0.84375 -0.375 1.9375 -0.375q1.0 0 1.78125 0.328125q0.78125 0.328125 1.375 0.9375l-0.4375 0.609375zm2.1499634 7.90625l0 -14.0l1.6875 0l0 5.671875q0.625 -0.65625 1.375 -1.046875q0.75 -0.40625 1.71875 -0.40625q0.796875 0 1.390625 0.265625q0.609375 0.265625 1.015625 0.75q0.40625 0.46875 0.609375 1.15625q0.203125 0.671875 0.203125 1.484375l0 6.125l-1.6875 0l0 -6.125q0 -1.09375 -0.5 -1.6875q-0.5 -0.609375 -1.515625 -0.609375q-0.75 0 -1.40625 0.359375q-0.65625 0.359375 -1.203125 0.96875l0 7.09375l-1.6875 0zm14.185379 -9.78125q0.859375 0 1.59375 0.296875q0.734375 0.28125 1.265625 0.828125q0.53125 0.546875 0.828125 1.359375q0.296875 0.796875 0.296875 1.828125q0 0.390625 -0.09375 0.53125q-0.078125 0.125 -0.3125 0.125l-6.40625 0q0.015625 0.921875 0.234375 1.59375q0.234375 0.671875 0.625 1.125q0.40625 0.453125 0.953125 0.671875q0.5625 0.21875 1.25 0.21875q0.640625 0 1.09375 -0.140625q0.453125 -0.140625 0.78125 -0.3125q0.34375 -0.171875 0.5625 -0.3125q0.234375 -0.15625 0.390625 -0.15625q0.203125 0 0.328125 0.15625l0.46875 0.625q-0.3125 0.375 -0.75 0.65625q-0.4375 0.28125 -0.9375 0.46875q-0.5 0.171875 -1.03125 0.265625q-0.53125 0.09375 -1.046875 0.09375q-1.0 0 -1.84375 -0.34375q-0.84375 -0.34375 -1.453125 -0.984375q-0.609375 -0.65625 -0.953125 -1.609375q-0.34375 -0.96875 -0.34375 -2.203125q0 -1.015625 0.3125 -1.890625q0.3125 -0.875 0.890625 -1.515625q0.578125 -0.640625 1.40625 -1.0q0.84375 -0.375 1.890625 -0.375zm0.03125 1.25q-1.21875 0 -1.921875 0.71875q-0.703125 0.703125 -0.875 1.953125l5.234375 0q0 -0.59375 -0.171875 -1.078125q-0.15625 -0.484375 -0.46875 -0.84375q-0.3125 -0.359375 -0.765625 -0.546875q-0.453125 -0.203125 -1.03125 -0.203125z" fill-rule="nonzero"></path><path fill="#000000" fill-opacity="0.0" d="m54.745407 286.5433l80.377945 0l0 40.566925l-80.377945 0z" fill-rule="nonzero"></path><path fill="#434343" d="m70.63603 305.7155q-0.109375 0.203125 -0.34375 0.203125q-0.140625 0 -0.328125 -0.09375q-0.171875 -0.109375 -0.4375 -0.234375q-0.265625 -0.140625 -0.625 -0.25q-0.359375 -0.109375 -0.859375 -0.109375q-0.421875 0 -0.765625 0.109375q-0.34375 0.109375 -0.59375 0.3125q-0.234375 0.1875 -0.359375 0.4375q-0.125 0.25 -0.125 0.546875q0 0.359375 0.203125 0.609375q0.21875 0.25 0.5625 0.4375q0.359375 0.171875 0.796875 0.3125q0.453125 0.140625 0.921875 0.296875q0.484375 0.15625 0.921875 0.34375q0.453125 0.1875 0.796875 0.484375q0.359375 0.28125 0.5625 0.6875q0.21875 0.40625 0.21875 1.0q0 0.65625 -0.234375 1.21875q-0.234375 0.5625 -0.703125 0.984375q-0.46875 0.40625 -1.140625 0.65625q-0.671875 0.234375 -1.5625 0.234375q-1.0 0 -1.828125 -0.328125q-0.8125 -0.328125 -1.375 -0.84375l0.390625 -0.640625q0.078125 -0.125 0.171875 -0.1875q0.109375 -0.078125 0.28125 -0.078125q0.171875 0 0.359375 0.140625q0.203125 0.125 0.46875 0.296875q0.265625 0.15625 0.65625 0.296875q0.390625 0.125 0.96875 0.125q0.484375 0 0.859375 -0.125q0.375 -0.140625 0.609375 -0.34375q0.25 -0.21875 0.375 -0.5q0.125 -0.296875 0.125 -0.625q0 -0.390625 -0.21875 -0.65625q-0.21875 -0.265625 -0.578125 -0.4375q-0.34375 -0.1875 -0.796875 -0.328125q-0.453125 -0.140625 -0.921875 -0.28125q-0.46875 -0.15625 -0.921875 -0.34375q-0.453125 -0.203125 -0.8125 -0.5q-0.34375 -0.296875 -0.5625 -0.71875q-0.203125 -0.4375 -0.203125 -1.0625q0 -0.546875 0.21875 -1.046875q0.234375 -0.515625 0.671875 -0.890625q0.4375 -0.390625 1.078125 -0.625q0.640625 -0.234375 1.453125 -0.234375q0.953125 0 1.703125 0.3125q0.75 0.296875 1.3125 0.8125l-0.390625 0.625zm6.409317 -1.75q0.859375 0 1.59375 0.296875q0.734375 0.28125 1.265625 0.828125q0.53125 0.546875 0.828125 1.359375q0.296875 0.796875 0.296875 1.828125q0 0.390625 -0.09375 0.53125q-0.078125 0.125 -0.3125 0.125l-6.40625 0q0.015625 0.921875 0.234375 1.59375q0.234375 0.671875 0.625 1.125q0.40625 0.453125 0.953125 0.671875q0.5625 0.21875 1.25 0.21875q0.640625 0 1.09375 -0.140625q0.453125 -0.140625 0.78125 -0.3125q0.34375 -0.171875 0.5625 -0.3125q0.234375 -0.15625 0.390625 -0.15625q0.203125 0 0.328125 0.15625l0.46875 0.625q-0.3125 0.375 -0.75 0.65625q-0.4375 0.28125 -0.9375 0.46875q-0.5 0.171875 -1.03125 0.265625q-0.53125 0.09375 -1.046875 0.09375q-1.0 0 -1.84375 -0.34375q-0.84375 -0.34375 -1.453125 -0.984375q-0.609375 -0.65625 -0.953125 -1.609375q-0.34375 -0.96875 -0.34375 -2.203125q0 -1.015625 0.3125 -1.890625q0.3125 -0.875 0.890625 -1.515625q0.578125 -0.640625 1.40625 -1.0q0.84375 -0.375 1.890625 -0.375zm0.03125 1.25q-1.21875 0 -1.921875 0.71875q-0.703125 0.703125 -0.875 1.953125l5.234375 0q0 -0.59375 -0.171875 -1.078125q-0.15625 -0.484375 -0.46875 -0.84375q-0.3125 -0.359375 -0.765625 -0.546875q-0.453125 -0.203125 -1.03125 -0.203125zm5.932129 8.53125l0 -9.625l0.96875 0q0.265625 0 0.375 0.109375q0.109375 0.09375 0.140625 0.359375l0.125 1.5q0.484375 -1.0 1.203125 -1.5625q0.734375 -0.578125 1.71875 -0.578125q0.390625 0 0.71875 0.09375q0.328125 0.09375 0.59375 0.25l-0.21875 1.265625q-0.0625 0.234375 -0.296875 0.234375q-0.125 0 -0.40625 -0.078125q-0.265625 -0.09375 -0.765625 -0.09375q-0.875 0 -1.46875 0.515625q-0.59375 0.5 -1.0 1.484375l0 6.125l-1.6875 0zm6.299713 -9.625l1.390625 0q0.1875 0 0.328125 0.109375q0.140625 0.09375 0.1875 0.25l2.4375 6.1875q0.140625 0.34375 0.21875 0.6875q0.078125 0.34375 0.140625 0.671875q0.078125 -0.328125 0.15625 -0.671875q0.09375 -0.34375 0.21875 -0.6875l2.46875 -6.1875q0.0625 -0.15625 0.1875 -0.25q0.125 -0.109375 0.328125 -0.109375l1.3125 0l-3.921875 9.625l-1.53125 0l-3.921875 -9.625zm14.583252 -0.15625q0.859375 0 1.59375 0.296875q0.734375 0.28125 1.265625 0.828125q0.53125 0.546875 0.828125 1.359375q0.296875 0.796875 0.296875 1.828125q0 0.390625 -0.09375 0.53125q-0.078125 0.125 -0.3125 0.125l-6.40625 0q0.015625 0.921875 0.234375 1.59375q0.234375 0.671875 0.625 1.125q0.40625 0.453125 0.953125 0.671875q0.5625 0.21875 1.25 0.21875q0.640625 0 1.09375 -0.140625q0.453125 -0.140625 0.78125 -0.3125q0.34375 -0.171875 0.5625 -0.3125q0.234375 -0.15625 0.390625 -0.15625q0.203125 0 0.328125 0.15625l0.46875 0.625q-0.3125 0.375 -0.75 0.65625q-0.4375 0.28125 -0.9375 0.46875q-0.5 0.171875 -1.03125 0.265625q-0.53125 0.09375 -1.046875 0.09375q-1.0 0 -1.84375 -0.34375q-0.84375 -0.34375 -1.453125 -0.984375q-0.609375 -0.65625 -0.953125 -1.609375q-0.34375 -0.96875 -0.34375 -2.203125q0 -1.015625 0.3125 -1.890625q0.3125 -0.875 0.890625 -1.515625q0.578125 -0.640625 1.40625 -1.0q0.84375 -0.375 1.890625 -0.375zm0.03125 1.25q-1.21875 0 -1.921875 0.71875q-0.703125 0.703125 -0.875 1.953125l5.234375 0q0 -0.59375 -0.171875 -1.078125q-0.15625 -0.484375 -0.46875 -0.84375q-0.3125 -0.359375 -0.765625 -0.546875q-0.453125 -0.203125 -1.03125 -0.203125zm5.932129 8.53125l0 -9.625l0.96875 0q0.265625 0 0.375 0.109375q0.109375 0.09375 0.140625 0.359375l0.125 1.5q0.484375 -1.0 1.203125 -1.5625q0.734375 -0.578125 1.71875 -0.578125q0.390625 0 0.71875 0.09375q0.328125 0.09375 0.59375 0.25l-0.21875 1.265625q-0.0625 0.234375 -0.296875 0.234375q-0.125 0 -0.40625 -0.078125q-0.265625 -0.09375 -0.765625 -0.09375q-0.875 0 -1.46875 0.515625q-0.59375 0.5 -1.0 1.484375l0 6.125l-1.6875 0z" fill-rule="nonzero"></path><path fill="#000000" fill-opacity="0.0" d="m534.7454 54.54331l101.63776 0l0 40.56693l-101.63776 0z" fill-rule="nonzero"></path><path fill="#434343" d="m551.9017 81.74677q-0.359375 0 -0.453125 -0.34375l-0.15625 -1.171875q-0.609375 0.75 -1.40625 1.203125q-0.796875 0.453125 -1.8125 0.453125q-0.828125 0 -1.515625 -0.3125q-0.671875 -0.328125 -1.140625 -0.9375q-0.46875 -0.625 -0.734375 -1.546875q-0.25 -0.921875 -0.25 -2.125q0 -1.0625 0.28125 -1.96875q0.28125 -0.921875 0.8125 -1.59375q0.546875 -0.6875 1.3125 -1.0625q0.765625 -0.390625 1.75 -0.390625q0.890625 0 1.515625 0.296875q0.625 0.296875 1.109375 0.84375l0 -5.34375l1.703125 0l0 14.0l-1.015625 0zm-3.265625 -1.234375q0.8125 0 1.4375 -0.375q0.625 -0.390625 1.140625 -1.078125l0 -4.65625q-0.453125 -0.625 -1.015625 -0.875q-0.546875 -0.25 -1.234375 -0.25q-1.34375 0 -2.0625 0.953125q-0.71875 0.953125 -0.71875 2.734375q0 0.9375 0.15625 1.609375q0.15625 0.671875 0.46875 1.109375q0.3125 0.421875 0.765625 0.625q0.46875 0.203125 1.0625 0.203125zm13.991333 1.234375l-0.75 0q-0.25 0 -0.40625 -0.078125q-0.140625 -0.078125 -0.1875 -0.328125l-0.1875 -0.890625q-0.390625 0.34375 -0.75 0.625q-0.359375 0.265625 -0.765625 0.453125q-0.390625 0.1875 -0.84375 0.28125q-0.453125 0.09375 -1.0 0.09375q-0.5625 0 -1.046875 -0.15625q-0.484375 -0.15625 -0.859375 -0.46875q-0.359375 -0.3125 -0.578125 -0.796875q-0.203125 -0.484375 -0.203125 -1.140625q0 -0.5625 0.3125 -1.09375q0.3125 -0.53125 1.0 -0.9375q0.703125 -0.40625 1.828125 -0.671875q1.140625 -0.265625 2.78125 -0.296875l0 -0.75q0 -1.125 -0.484375 -1.6875q-0.484375 -0.578125 -1.421875 -0.578125q-0.609375 0 -1.046875 0.15625q-0.421875 0.15625 -0.734375 0.359375q-0.296875 0.1875 -0.53125 0.34375q-0.21875 0.15625 -0.4375 0.15625q-0.171875 0 -0.296875 -0.09375q-0.125 -0.09375 -0.203125 -0.21875l-0.296875 -0.546875q0.796875 -0.765625 1.71875 -1.140625q0.921875 -0.390625 2.03125 -0.390625q0.8125 0 1.4375 0.265625q0.625 0.265625 1.046875 0.75q0.4375 0.46875 0.65625 1.140625q0.21875 0.671875 0.21875 1.484375l0 6.15625zm-4.390625 -1.03125q0.453125 0 0.8125 -0.09375q0.375 -0.09375 0.703125 -0.25q0.328125 -0.171875 0.625 -0.40625q0.296875 -0.25 0.59375 -0.546875l0 -2.0q-1.171875 0.03125 -2.0 0.1875q-0.8125 0.140625 -1.328125 0.375q-0.5 0.234375 -0.734375 0.5625q-0.234375 0.328125 -0.234375 0.71875q0 0.390625 0.125 0.671875q0.125 0.265625 0.328125 0.4375q0.203125 0.171875 0.484375 0.265625q0.296875 0.078125 0.625 0.078125zm9.693115 1.1875q-1.140625 0 -1.75 -0.640625q-0.609375 -0.640625 -0.609375 -1.828125l0 -5.890625l-1.15625 0q-0.15625 0 -0.265625 -0.09375q-0.09375 -0.09375 -0.09375 -0.28125l0 -0.671875l1.578125 -0.203125l0.390625 -2.96875q0.015625 -0.140625 0.109375 -0.234375q0.109375 -0.09375 0.28125 -0.09375l0.84375 0l0 3.3125l2.765625 0l0 1.234375l-2.765625 0l0 5.765625q0 0.609375 0.296875 0.90625q0.296875 0.296875 0.765625 0.296875q0.265625 0 0.453125 -0.0625q0.203125 -0.078125 0.34375 -0.15625q0.140625 -0.09375 0.234375 -0.15625q0.109375 -0.078125 0.1875 -0.078125q0.125 0 0.234375 0.15625l0.484375 0.8125q-0.4375 0.40625 -1.0625 0.640625q-0.609375 0.234375 -1.265625 0.234375zm11.11499 -0.15625l-0.75 0q-0.25 0 -0.40625 -0.078125q-0.140625 -0.078125 -0.1875 -0.328125l-0.1875 -0.890625q-0.390625 0.34375 -0.75 0.625q-0.359375 0.265625 -0.765625 0.453125q-0.390625 0.1875 -0.84375 0.28125q-0.453125 0.09375 -1.0 0.09375q-0.5625 0 -1.046875 -0.15625q-0.484375 -0.15625 -0.859375 -0.46875q-0.359375 -0.3125 -0.578125 -0.796875q-0.203125 -0.484375 -0.203125 -1.140625q0 -0.5625 0.3125 -1.09375q0.3125 -0.53125 1.0 -0.9375q0.703125 -0.40625 1.828125 -0.671875q1.140625 -0.265625 2.78125 -0.296875l0 -0.75q0 -1.125 -0.484375 -1.6875q-0.484375 -0.578125 -1.421875 -0.578125q-0.609375 0 -1.046875 0.15625q-0.421875 0.15625 -0.734375 0.359375q-0.296875 0.1875 -0.53125 0.34375q-0.21875 0.15625 -0.4375 0.15625q-0.171875 0 -0.296875 -0.09375q-0.125 -0.09375 -0.203125 -0.21875l-0.296875 -0.546875q0.796875 -0.765625 1.71875 -1.140625q0.921875 -0.390625 2.03125 -0.390625q0.8125 0 1.4375 0.265625q0.625 0.265625 1.046875 0.75q0.4375 0.46875 0.65625 1.140625q0.21875 0.671875 0.21875 1.484375l0 6.15625zm-4.390625 -1.03125q0.453125 0 0.8125 -0.09375q0.375 -0.09375 0.703125 -0.25q0.328125 -0.171875 0.625 -0.40625q0.296875 -0.25 0.59375 -0.546875l0 -2.0q-1.171875 0.03125 -2.0 0.1875q-0.8125 0.140625 -1.328125 0.375q-0.5 0.234375 -0.734375 0.5625q-0.234375 0.328125 -0.234375 0.71875q0 0.390625 0.125 0.671875q0.125 0.265625 0.328125 0.4375q0.203125 0.171875 0.484375 0.265625q0.296875 0.078125 0.625 0.078125zm6.83374 1.03125l0 -14.0l1.703125 0l0 5.765625q0.609375 -0.703125 1.375 -1.125q0.78125 -0.421875 1.765625 -0.421875q0.84375 0 1.515625 0.3125q0.671875 0.3125 1.140625 0.9375q0.484375 0.625 0.734375 1.546875q0.265625 0.90625 0.265625 2.109375q0 1.0625 -0.296875 1.984375q-0.28125 0.921875 -0.8125 1.59375q-0.53125 0.65625 -1.3125 1.046875q-0.765625 0.390625 -1.734375 0.390625q-0.9375 0 -1.59375 -0.359375q-0.640625 -0.375 -1.125 -1.015625l-0.09375 0.875q-0.078125 0.359375 -0.4375 0.359375l-1.09375 0zm4.296875 -8.421875q-0.828125 0 -1.453125 0.375q-0.609375 0.375 -1.140625 1.078125l0 4.65625q0.453125 0.625 1.015625 0.890625q0.5625 0.25 1.234375 0.25q1.359375 0 2.078125 -0.953125q0.71875 -0.96875 0.71875 -2.75q0 -0.9375 -0.171875 -1.609375q-0.15625 -0.671875 -0.46875 -1.109375q-0.3125 -0.4375 -0.78125 -0.625q-0.453125 -0.203125 -1.03125 -0.203125zm13.147583 8.421875l-0.75 0q-0.25 0 -0.40625 -0.078125q-0.140625 -0.078125 -0.1875 -0.328125l-0.1875 -0.890625q-0.390625 0.34375 -0.75 0.625q-0.359375 0.265625 -0.765625 0.453125q-0.390625 0.1875 -0.84375 0.28125q-0.453125 0.09375 -1.0 0.09375q-0.5625 0 -1.046875 -0.15625q-0.484375 -0.15625 -0.859375 -0.46875q-0.359375 -0.3125 -0.578125 -0.796875q-0.203125 -0.484375 -0.203125 -1.140625q0 -0.5625 0.3125 -1.09375q0.3125 -0.53125 1.0 -0.9375q0.703125 -0.40625 1.828125 -0.671875q1.140625 -0.265625 2.78125 -0.296875l0 -0.75q0 -1.125 -0.484375 -1.6875q-0.484375 -0.578125 -1.421875 -0.578125q-0.609375 0 -1.046875 0.15625q-0.421875 0.15625 -0.734375 0.359375q-0.296875 0.1875 -0.53125 0.34375q-0.21875 0.15625 -0.4375 0.15625q-0.171875 0 -0.296875 -0.09375q-0.125 -0.09375 -0.203125 -0.21875l-0.296875 -0.546875q0.796875 -0.765625 1.71875 -1.140625q0.921875 -0.390625 2.03125 -0.390625q0.8125 0 1.4375 0.265625q0.625 0.265625 1.046875 0.75q0.4375 0.46875 0.65625 1.140625q0.21875 0.671875 0.21875 1.484375l0 6.15625zm-4.390625 -1.03125q0.453125 0 0.8125 -0.09375q0.375 -0.09375 0.703125 -0.25q0.328125 -0.171875 0.625 -0.40625q0.296875 -0.25 0.59375 -0.546875l0 -2.0q-1.171875 0.03125 -2.0 0.1875q-0.8125 0.140625 -1.328125 0.375q-0.5 0.234375 -0.734375 0.5625q-0.234375 0.328125 -0.234375 0.71875q0 0.390625 0.125 0.671875q0.125 0.265625 0.328125 0.4375q0.203125 0.171875 0.484375 0.265625q0.296875 0.078125 0.625 0.078125zm12.286865 -7.0q-0.109375 0.203125 -0.34375 0.203125q-0.140625 0 -0.328125 -0.09375q-0.171875 -0.109375 -0.4375 -0.234375q-0.265625 -0.140625 -0.625 -0.25q-0.359375 -0.109375 -0.859375 -0.109375q-0.421875 0 -0.765625 0.109375q-0.34375 0.109375 -0.59375 0.3125q-0.234375 0.1875 -0.359375 0.4375q-0.125 0.25 -0.125 0.546875q0 0.359375 0.203125 0.609375q0.21875 0.25 0.5625 0.4375q0.359375 0.171875 0.796875 0.3125q0.453125 0.140625 0.921875 0.296875q0.484375 0.15625 0.921875 0.34375q0.453125 0.1875 0.796875 0.484375q0.359375 0.28125 0.5625 0.6875q0.21875 0.40625 0.21875 1.0q0 0.65625 -0.234375 1.21875q-0.234375 0.5625 -0.703125 0.984375q-0.46875 0.40625 -1.140625 0.65625q-0.671875 0.234375 -1.5625 0.234375q-1.0 0 -1.828125 -0.328125q-0.8125 -0.328125 -1.375 -0.84375l0.390625 -0.640625q0.078125 -0.125 0.171875 -0.1875q0.109375 -0.078125 0.28125 -0.078125q0.171875 0 0.359375 0.140625q0.203125 0.125 0.46875 0.296875q0.265625 0.15625 0.65625 0.296875q0.390625 0.125 0.96875 0.125q0.484375 0 0.859375 -0.125q0.375 -0.140625 0.609375 -0.34375q0.25 -0.21875 0.375 -0.5q0.125 -0.296875 0.125 -0.625q0 -0.390625 -0.21875 -0.65625q-0.21875 -0.265625 -0.578125 -0.4375q-0.34375 -0.1875 -0.796875 -0.328125q-0.453125 -0.140625 -0.921875 -0.28125q-0.46875 -0.15625 -0.921875 -0.34375q-0.453125 -0.203125 -0.8125 -0.5q-0.34375 -0.296875 -0.5625 -0.71875q-0.203125 -0.4375 -0.203125 -1.0625q0 -0.546875 0.21875 -1.046875q0.234375 -0.515625 0.671875 -0.890625q0.4375 -0.390625 1.078125 -0.625q0.640625 -0.234375 1.453125 -0.234375q0.953125 0 1.703125 0.3125q0.75 0.296875 1.3125 0.8125l-0.390625 0.625zm6.4093018 -1.75q0.859375 0 1.59375 0.296875q0.734375 0.28125 1.265625 0.828125q0.53125 0.546875 0.828125 1.359375q0.296875 0.796875 0.296875 1.828125q0 0.390625 -0.09375 0.53125q-0.078125 0.125 -0.3125 0.125l-6.40625 0q0.015625 0.921875 0.234375 1.59375q0.234375 0.671875 0.625 1.125q0.40625 0.453125 0.953125 0.671875q0.5625 0.21875 1.25 0.21875q0.640625 0 1.09375 -0.140625q0.453125 -0.140625 0.78125 -0.3125q0.34375 -0.171875 0.5625 -0.3125q0.234375 -0.15625 0.390625 -0.15625q0.203125 0 0.328125 0.15625l0.46875 0.625q-0.3125 0.375 -0.75 0.65625q-0.4375 0.28125 -0.9375 0.46875q-0.5 0.171875 -1.03125 0.265625q-0.53125 0.09375 -1.046875 0.09375q-1.0 0 -1.84375 -0.34375q-0.84375 -0.34375 -1.453125 -0.984375q-0.609375 -0.65625 -0.953125 -1.609375q-0.34375 -0.96875 -0.34375 -2.203125q0 -1.015625 0.3125 -1.890625q0.3125 -0.875 0.890625 -1.515625q0.578125 -0.640625 1.40625 -1.0q0.84375 -0.375 1.890625 -0.375zm0.03125 1.25q-1.21875 0 -1.921875 0.71875q-0.703125 0.703125 -0.875 1.953125l5.234375 0q0 -0.59375 -0.171875 -1.078125q-0.15625 -0.484375 -0.46875 -0.84375q-0.3125 -0.359375 -0.765625 -0.546875q-0.453125 -0.203125 -1.03125 -0.203125z" fill-rule="nonzero"></path><path fill="#000000" fill-opacity="0.0" d="m174.7454 266.53018l36.850388 0l0 36.566925l-36.850388 0z" fill-rule="nonzero"></path><path fill="#434343" d="m187.3079 286.7024l-3.203125 -4.71875l2.265625 0q0.25 0 0.375 0.078125q0.125 0.0625 0.21875 0.234375l2.046875 3.25q0.046875 -0.15625 0.109375 -0.3125q0.078125 -0.171875 0.1875 -0.328125l1.640625 -2.5625q0.109375 -0.1875 0.234375 -0.265625q0.125 -0.09375 0.3125 -0.09375l2.15625 0l-3.21875 4.625l3.34375 5.125l-2.265625 0q-0.25 0 -0.40625 -0.125q-0.15625 -0.140625 -0.265625 -0.3125l-2.0625 -3.390625q-0.09375 0.34375 -0.25 0.5625l-1.8125 2.828125q-0.109375 0.15625 -0.265625 0.296875q-0.140625 0.140625 -0.375 0.140625l-2.09375 0l3.328125 -5.03125z" fill-rule="nonzero"></path><path fill="#000000" fill-opacity="0.0" d="m174.7454 234.53018l36.850388 0l0 36.566925l-36.850388 0z" fill-rule="nonzero"></path><path fill="#434343" d="m188.46416 262.40552q-0.109375 0.25 -0.28125 0.375q-0.15625 0.140625 -0.5 0.140625l-1.75 0l1.828125 -3.90625l-3.953125 -9.03125l2.0625 0q0.28125 0 0.421875 0.140625q0.15625 0.125 0.234375 0.296875l2.078125 5.0625q0.109375 0.234375 0.1875 0.5q0.078125 0.265625 0.125 0.53125q0.078125 -0.265625 0.171875 -0.515625q0.09375 -0.265625 0.1875 -0.53125l1.96875 -5.046875q0.078125 -0.1875 0.25 -0.3125q0.171875 -0.125 0.390625 -0.125l1.875 0l-5.296875 12.421875z" fill-rule="nonzero"></path><path fill="#000000" fill-opacity="0.0" d="m230.7454 82.53018l36.850388 0l0 36.566933l-36.850388 0z" fill-rule="nonzero"></path><path fill="#434343" d="m253.08792 98.95239q0 0.25 -0.09375 0.484375q-0.078125 0.234375 -0.203125 0.390625l-4.640625 6.09375l4.8125 0l0 1.8125l-7.53125 0l0 -0.984375q0 -0.15625 0.0625 -0.375q0.078125 -0.234375 0.25 -0.421875l4.671875 -6.171875l-4.71875 0l0 -1.796875l7.390625 0l0 0.96875z" fill-rule="nonzero"></path><path fill="#000000" fill-opacity="0.0" d="m308.35434 42.645668l27.873993 0l0 44.44095l-27.873993 0z" fill-rule="nonzero"></path><path fill="#999999" d="m318.60434 74.97364l0 -12.9375l1.4375 0q0.234375 0 0.390625 0.109375q0.15625 0.109375 0.203125 0.328125l0.203125 0.890625q0.578125 -0.671875 1.34375 -1.078125q0.765625 -0.421875 1.796875 -0.421875q0.796875 0 1.453125 0.328125q0.65625 0.328125 1.140625 0.96875q0.484375 0.625 0.734375 1.5625q0.265625 0.921875 0.265625 2.109375q0 1.09375 -0.296875 2.03125q-0.28125 0.921875 -0.828125 1.609375q-0.546875 0.6875 -1.328125 1.078125q-0.78125 0.375 -1.734375 0.375q-0.828125 0 -1.40625 -0.25q-0.5625 -0.25 -1.03125 -0.703125l0 4.0l-2.34375 0zm4.5625 -11.265625q-0.734375 0 -1.25 0.3125q-0.515625 0.3125 -0.96875 0.875l0 4.359375q0.40625 0.5 0.875 0.703125q0.46875 0.1875 1.015625 0.1875q0.53125 0 0.953125 -0.203125q0.4375 -0.203125 0.734375 -0.609375q0.296875 -0.40625 0.453125 -1.03125q0.171875 -0.625 0.171875 -1.46875q0 -0.84375 -0.140625 -1.4375q-0.125 -0.59375 -0.390625 -0.96875q-0.25 -0.375 -0.625 -0.546875q-0.359375 -0.171875 -0.828125 -0.171875z" fill-rule="nonzero"></path><path fill="#000000" fill-opacity="0.0" d="m341.69815 42.645668l27.874023 0l0 44.44095l-27.874023 0z" fill-rule="nonzero"></path><path fill="#999999" d="m360.24503 62.03614l0 12.9375l-2.34375 0l0 -4.40625q-0.296875 0.3125 -0.625 0.5625q-0.328125 0.25 -0.703125 0.421875q-0.359375 0.171875 -0.78125 0.265625q-0.421875 0.109375 -0.90625 0.109375q-0.796875 0 -1.46875 -0.328125q-0.65625 -0.328125 -1.140625 -0.953125q-0.46875 -0.640625 -0.734375 -1.5625q-0.265625 -0.9375 -0.265625 -2.140625q0 -1.078125 0.296875 -2.015625q0.296875 -0.9375 0.84375 -1.609375q0.546875 -0.6875 1.3125 -1.0625q0.78125 -0.390625 1.734375 -0.390625q0.453125 0 0.828125 0.078125q0.375 0.078125 0.6875 0.234375q0.328125 0.140625 0.59375 0.359375q0.265625 0.203125 0.515625 0.46875l0.125 -0.53125q0.046875 -0.21875 0.203125 -0.328125q0.171875 -0.109375 0.390625 -0.109375l1.4375 0zm-4.5625 8.03125q0.734375 0 1.25 -0.296875q0.515625 -0.3125 0.96875 -0.875l0 -4.375q-0.40625 -0.484375 -0.875 -0.671875q-0.46875 -0.203125 -1.015625 -0.203125q-0.53125 0 -0.96875 0.203125q-0.421875 0.1875 -0.71875 0.59375q-0.296875 0.40625 -0.46875 1.03125q-0.15625 0.625 -0.15625 1.46875q0 0.859375 0.140625 1.453125q0.140625 0.59375 0.390625 0.96875q0.265625 0.375 0.625 0.546875q0.375 0.15625 0.828125 0.15625z" fill-rule="nonzero"></path><path fill="#000000" fill-opacity="0.0" d="m413.69815 74.64567l27.874023 0l0 44.44095l-27.874023 0z" fill-rule="nonzero"></path><path fill="#434343" d="m422.76065 94.03614l1.859375 0q0.265625 0 0.453125 0.125q0.1875 0.125 0.234375 0.3125l1.390625 5.203125q0.109375 0.4375 0.171875 0.84375q0.078125 0.40625 0.15625 0.8125q0.09375 -0.40625 0.21875 -0.8125q0.125 -0.40625 0.25 -0.84375l1.609375 -5.21875q0.0625 -0.1875 0.234375 -0.3125q0.171875 -0.125 0.40625 -0.125l1.03125 0q0.25 0 0.421875 0.125q0.171875 0.125 0.234375 0.3125l1.59375 5.3125q0.125 0.421875 0.21875 0.8125q0.109375 0.375 0.203125 0.765625q0.0625 -0.40625 0.140625 -0.8125q0.078125 -0.421875 0.203125 -0.859375l1.453125 -5.203125q0.046875 -0.1875 0.21875 -0.3125q0.1875 -0.125 0.421875 -0.125l1.78125 0l-3.09375 9.75l-1.890625 0q-0.296875 0 -0.4375 -0.421875l-1.75 -5.625q-0.09375 -0.28125 -0.171875 -0.5625q-0.0625 -0.28125 -0.109375 -0.546875q-0.0625 0.28125 -0.125 0.5625q-0.0625 0.28125 -0.15625 0.5625l-1.765625 5.609375q-0.140625 0.421875 -0.515625 0.421875l-1.796875 0l-3.09375 -9.75z" fill-rule="nonzero"></path></g></svg>

