<?xml version="1.0" encoding="UTF-8" standalone="no"?>
<svg
   xmlns:dc="http://purl.org/dc/elements/1.1/"
   xmlns:cc="http://creativecommons.org/ns#"
   xmlns:rdf="http://www.w3.org/1999/02/22-rdf-syntax-ns#"
   xmlns:svg="http://www.w3.org/2000/svg"
   xmlns="http://www.w3.org/2000/svg"
   xmlns:sodipodi="http://sodipodi.sourceforge.net/DTD/sodipodi-0.dtd"
   xmlns:inkscape="http://www.inkscape.org/namespaces/inkscape"
   version="1.0"
   width="1133.9955pt"
   height="987.43286pt"
   viewBox="0 0 1133.9955 987.43286"
   preserveAspectRatio="xMidYMid meet"
   id="svg54"
   sodipodi:docname="reflex.svg"
   inkscape:version="0.92.4 (5da689c313, 2019-01-14)">
  <defs
     id="defs58">
    <inkscape:path-effect
       effect="simplify"
       id="path-effect920"
       is_visible="true"
       steps="1"
       threshold="0.0001"
       smooth_angles="0"
       helper_size="1"
       simplify_individual_paths="false"
       simplify_just_coalesce="false" />
  </defs>
  <sodipodi:namedview
     pagecolor="#ffffff"
     bordercolor="#666666"
     borderopacity="1"
     objecttolerance="10"
     gridtolerance="10"
     guidetolerance="10"
     inkscape:pageopacity="0"
     inkscape:pageshadow="2"
     inkscape:window-width="1920"
     inkscape:window-height="1025"
     id="namedview56"
     showgrid="false"
     inkscape:zoom="0.39111844"
     inkscape:cx="777.01733"
     inkscape:cy="796.65402"
     inkscape:window-x="0"
     inkscape:window-y="30"
     inkscape:window-maximized="1"
     inkscape:current-layer="svg54"
     fit-margin-top="30"
     fit-margin-bottom="30"
     fit-margin-right="30"
     fit-margin-left="30" />
  <metadata
     id="metadata2">
Created by potrace 1.16, written by Peter Selinger 2001-2019
<rdf:RDF>
  <cc:Work
     rdf:about="">
    <dc:format>image/svg+xml</dc:format>
    <dc:type
       rdf:resource="http://purl.org/dc/dcmitype/StillImage" />
    <dc:title></dc:title>
  </cc:Work>
</rdf:RDF>
</metadata>
  <g
     transform="matrix(0.1,0,0,-0.1,-70.004534,1127.0709)"
     id="reflex"
     style="fill:#000000;stroke:none"
     inkscape:label="reflex">
    <path
       d="m 7449.2401,10960.79 c -10.729,-23.483 -13.9307,-24.522 -19.2401,-63.79 0,-22 -43,-95 -80,-136 -14,-16 -26,-34 -28,-41 -5,-23 -59,-85 -85,-99 -23,-12 -37,-37 -37,-68 0,-8 19,-1 48,17 59,37 99,73 107,100 8,24 25,27 25,4 0,-8 -12,-100 -26,-202 -14,-103 -27,-205 -28,-227 -2,-22 -7,-73 -11,-114 -15.447,-79.494 -16.3818,-154.31 -29,-283 -8,-85 -8,-88 12,-88 33,0 61,45 61,98 0,26 5,90 11,142 6,52 15,142 20,200 10,122 37,335 50,400 5,25 13,69 16,98 7,52 7,53 19,25 7,-15 25,-56 40,-90 16,-34 28,-69 28,-77 0,-8 6,-17 14,-20 7,-3 13,-13 13,-21 0,-24 50,-105 64,-105 19,0 45,33 52,66 5,27 -10,72 -50,144 -8,14 -22,45 -31,70 -10,25 -21,54 -26,65 -16,39 -38,121 -44,168 -6,44 -8,47 -37,47 -27,0 -46.2674,4.508 -48.7599,-9.21 z"
       id="v1ArrowOut"
       inkscape:connector-curvature="0"
       sodipodi:nodetypes="cccccsccsccccssscscccscsscccccsc" />
    <path
       d="m 6962,10793 c -29,-11 -44,-63 -36,-127 4,-33 7,-63 7,-66 -1,-5 -13,-385 -13,-409 0,-26 -20,-8 -29,27 -12,43 -47,102 -60,102 -5,0 -11,-7 -15,-15 -3,-8 -12,-15 -20,-15 -24,0 -23,-32 1,-81 13,-26 23,-52 23,-58 0,-6 4,-19 10,-29 24,-43 69,-185 87,-274 9,-47 26,-51 57,-11 16,19 36,54 45,77 23,56 52,105 79,133 12,13 22,29 22,36 0,7 11,24 24,39 14,14 23,28 20,30 -2,3 9,19 25,36 15,18 37,48 47,67 16,31 17,37 4,45 -19,12 -51,-17 -97,-89 -19,-30 -41,-61 -49,-68 -8,-8 -14,-19 -14,-25 0,-5 -21,-37 -47,-69 -31,-39 -49,-55 -53,-47 -8,16 7,325 20,433 14,111 18,284 8,322 -9,32 -23,43 -46,36 z"
       id="v1ArrowIn"
       inkscape:connector-curvature="0" />
    <g
       id="labelValve1">
      <path
         inkscape:connector-curvature="0"
         id="path12"
         d="m 9453,9528 c -73,-35 -93,-459 -31,-665 11,-37 10,-37 55,-21 40,15 48,35 34,96 -5,26 -13,70 -17,97 -4,28 -9,61 -11,75 -14,87 -3,229 30,363 9,40 9,50 -3,57 -19,12 -29,11 -57,-2 z" />
      <path
         inkscape:connector-curvature="0"
         id="path14"
         d="m 8027,9436 c -8,-8 -31,-58 -52,-110 -21,-53 -42,-96 -46,-96 -5,0 -9,-11 -9,-24 0,-14 -8,-31 -17,-38 -10,-7 -19,-24 -20,-38 -1,-26 -33,-122 -51,-156 -6,-10 -19,-39 -30,-64 -13,-28 -22,-39 -25,-30 -7,23 -25,137 -33,210 -4,36 -8,72 -10,80 -1,8 -3,39 -3,68 -1,66 -20,77 -61,37 -28,-27 -29,-31 -27,-111 1,-46 5,-84 8,-84 7,0 18,-57 25,-120 12,-125 35,-265 44,-274 17,-17 65,41 114,141 25,50 46,95 46,100 0,9 56,149 67,166 4,7 8,18 9,25 2,7 11,32 22,55 11,23 23,53 27,67 10,33 47,90 74,114 23,21 20,62 -7,84 -20,16 -27,15 -45,-2 z" />
      <path
         inkscape:connector-curvature="0"
         id="path16"
         d="m 8420,9203 c -23,-19 -31,-32 -27,-50 6,-32 -12,-126 -26,-135 -25,-16 -47,-8 -53,20 -15,71 -47,140 -70,153 -21,11 -28,10 -52,-8 -15,-11 -37,-35 -50,-54 -13,-19 -35,-47 -50,-64 -15,-16 -33,-41 -40,-55 -7,-14 -31,-38 -53,-53 -29,-21 -39,-35 -39,-56 0,-16 -11,-45 -25,-65 -29,-43 -42,-86 -26,-86 14.6438,-5.3984 5.1548,-2.3801 17.4008,-3.5208 C 7933.8951,8749.3856 7941,8752 7951,8760 c 10,8 33,40 51,70 18,30 38,55 43,55 6,0 15,3 20,7 6,3 44,9 85,13 75,7 76,7 88,-19 16,-35 15,-46 -3,-66 -11,-12 -13,-27 -9,-49 7,-32 8,-33 48,-28 22,3 42,11 44,16 2,6 18,11 36,11 18,0 59,9 91,20 32,11 71,20 87,20 16,0 39,6 51,14 50,32 62,29 85,-19 l 22,-45 29,18 c 33,20 97,93 106,122 8,26 25,26 25,1 0,-11 5,-23 10,-26 6,-4 8.8475,-18.3898 18.5593,-31.0847 17.9348,-19.6573 14.6517,-7.6426 32.4407,-19.9153 33,-29 212,-26 294,6 33,12 67,28 75,35 8,6 23,15 33,18 32,12 19,30 -15,23 -104,-22 -192,-25 -245,-10 -29,8 -53,20 -53,25 0,5 2,9 4,9 32,0 168,46 204,69 99,63 91.4121,156.0114 4,173 -20.8758,4.3234 -26.7378,10.289 -47.8015,4.8053 C 9144.6106,9173.2023 9116,9159 9080,9144 c -36,-16 -93,-52 -127,-82 -35,-29 -63,-50 -63,-45 0,13 40,87 53,98 17,15 47,74 47,91 0,21 -38,9 -73,-24 -22,-21 -109,-161 -112,-182 -1,-3 -11,-24 -23,-47 -22,-43 -42,-63 -42,-43 0,6 -8,30 -19,53 -10,23 -24,67 -31,97 -28,128 -36,145 -61,141 -68,-10 -71,-25 -33,-171 14,-55 24,-106 21,-113 -3,-7 -36,-18 -73,-24 -38,-7 -79,-14 -91,-17 -13,-3 -23,-2 -23,2 0,10 27,135 33,152 3,8 8,27 11,43 10.0164,47.045 7.3687,55.9148 12,98 6,55 5,59 -14,59 -11,0 -35,-12 -52,-27 z m 759,-116 c 16,-20 -14,-43 -74,-57 -63,-15 -125,-19 -125,-8 0,4 24,20 53,35 79,42 127,52 146,30 z m -979,-26 c 5,-11 10,-29 10,-40 0,-18 -6,-21 -45,-21 -25,0 -45,2 -45,6 0,9 54,74 62,74 4,0 12,-9 18,-19 z m 155,-133 c -6,-61 -7,-62 -15,-28 -8,35 -6,50 9,50 5,0 7,-10 6,-22 z"
         sodipodi:nodetypes="ccccccscscscccssscccccccssscccccsccccccccsscccccscscccsccccsccscccscccscccsssscccsc" />
    </g>
    <g
       id="membrane">
      <path
         inkscape:connector-curvature="0"
         id="path10"
         d="m 7107,9564 c -1,-1 -35,-5 -75,-8 -41,-3 -101,-15 -134,-26 -34,-11 -65,-20 -69,-20 -12,0 -102,-62 -143,-98 -42,-37 -81,-114 -73,-144 3,-11 -2,-35 -12,-54 -15,-27 -16,-43 -9,-91 5,-32 11,-105 13,-163 3,-58 7,-127 10,-155 9,-86 14,-475 6,-475 -39.442,-10.0401 -49.4317,-10.704 -88,-14 -175,-18 -417,-58 -458,-76 -11,-4 -38,-11 -61,-14 -44,-6 -307,-89 -337,-106 -9,-6 -39,-17 -65,-26 -104,-35 -421,-205 -584,-312 -146,-97 -170,-114 -258,-187 -94,-77 -152,-131 -303,-281 -154,-153 -202,-212 -276,-339 -23,-38 -46,-77 -51,-85 -29,-46 -88,-150 -104,-183 -17,-38 -56,-100 -76,-125 -6,-7 -9,-16 -7,-20 2,-4 -13,-34 -34,-67 -39,-61 -89,-159 -89,-174 0,-5 -7,-14 -15,-21 -8,-7 -15,-20 -15,-29 0,-9 -5,-22 -12,-29 -13,-13 -48,-111 -79,-217 -11,-38 -26,-83 -34,-100 -7,-16 -16,-48 -20,-70 -13,-77 -47,-210 -57,-222 -4.517,-32.9565 -16.002,-63.5659 -23,-93 -10.2232,-67.86 -14.8288,-61.0754 -29,-123 -12,-61 -14,-62 -123,-49 -153,18 -301,32 -388,37 -44,2 -125,9 -180,14 -239,25 -230,25 -253,1 -30,-32 -33,-58 -11,-79 18,-16 18,-19 4,-31 -20,-17 -60.7011,-81.7847 -65,-141 -1.7656,-24.3204 -15.4746,-13.5254 -16.6949,-65.678 -7.4812,-34.0698 -4.5096,-40.7642 -3.3051,-78.322 -12,-36 20,-291 40,-320 4,-5 13,-31 21,-57 20.1033,-44.1723 46.1391,-84.4244 77,-119 26,-30 65,-79 87,-108 38,-50 42,-52 77,-47 51.14,6.6783 39.9775,16.6378 88.0227,41.1682 C 2932.6106,4445.7864 2954,4447 3010,4475 c 179,91 214.4852,103.9719 287.0038,120.3818 34.8263,6.3261 41.0922,16.2419 95.9962,30.6182 52.218,12.1171 37.2339,15.1813 92,30 23,6 60,15 83,19 36,6 41,5 36,-9 -3,-9 -2,-22 4,-29 5,-6 24,-57 41,-112 37,-116 146,-355 161,-355 4,0 14,-15 21,-32 7,-18 20,-38 28,-44 10.3469,-24.5757 24.9681,-43.4747 33,-58 13,-25 58,-95 93,-146 40,-59 181,-217 213,-241 19,-13 48,-37 65,-54 52,-49 181,-155 189,-155 4,0 27,-13 51,-30 25,-16 49,-30 54,-30 6,0 18,-9 28,-20 10,-11 24,-20 31,-20 7,0 14,-4 16,-8 4,-11 108,-82 119,-82 39.7525,-36.6555 71.2092,-43.9496 164,-99 56,-34 189,-101 199,-101 3,0 25,-9 49,-19 23,-11 69,-29 103,-39 33,-11 69,-24 80,-30 41,-21 80,-36 109,-39 17,-3 39,-10 50,-17 11,-6 40,-18 65,-25 25,-7 56,-17 70,-22 14,-5 45,-11 69,-14 23,-3 47,-7 51,-10 16,-10 379,-13 475,-4 55,5 147,12 205,14 58,3 132,7 165,9 33,2 98,7 145,9 118,8 182,17 196,28 7,5 25,11 40,13 30,4 55,12 89,27 50,21 165,50 208,51 15,1 27,4 27,7 0,12 96,47 118,43 6,-2 12,2 12,8 0,5 14,10 31,10 17,0 43,6 57,14 15,7 52,24 82,36 86,35 101,42 167,82 35,21 69,38 77,38 8,0 36,11 62,25 26,14 55,25 64,25 15,0 35,13 105,68 6,4 35,24 65,44 30,21 79,60 109,87 30,28 67,55 83,62 15,6 21.4083,13.2023 28,20 37.5112,31.1226 85.0385,63.2197 119,102 9,10 29,32 44,48 30,32 31,46 5,63 -13,8 -30,-3 -82,-51 -36,-34 -74,-64 -85,-68 -18.6071,-12.9103 -28.0546,-21.772 -43,-34 -13,-5 -49,-33 -82,-62 -32,-30 -61,-52 -63,-51 -3,2 -9,-1 -12,-6 -9,-14 -173,-118 -200,-127 -13,-4 -71,-29 -128,-56 -58,-27 -111,-49 -119,-49 -8,0 -14,-4 -14,-8 0,-17 -157,-75 -345,-128 -27,-8 -59,-18 -70,-23 -11,-4 -36,-13 -55,-19 -19,-5 -79,-24 -133,-41 -54,-18 -102,-29 -108,-25 -5,3 -16,0 -24,-6 -8,-7 -37,-13 -64,-15 -27,-1 -53,-5 -57,-8 -5,-3 -58,-8 -119,-11 -60,-4 -138,-9 -172,-12 -39,-3 -64,-1 -68,6 -5,8 -10,8 -20,0 -15,-13 -78,-17 -345,-26 -263,-8 -291,-8 -299,2 -3,5 -25,10 -49,11 -72,4 -441,129 -575,194 -22,11 -44,19 -49,19 -18,0 -216,101 -229,116 -6,8 -15,14 -19,14 -14,0 -173,100 -200,125 -14,13 -70,49 -125,81 -55,32 -111,69 -125,82 -14,14 -41,36 -60,51 -19,14 -45,35 -58,47 -12,12 -45,37 -72,56 -27,18 -52,40 -55,48 -3,9 -30,42 -60,74 -30,32 -55,62 -55,67 0,4 -8,16 -18,26 -28,27 -115,166 -115,183 0,8 -11,23 -24,33 -13,10 -34,42 -48,70 -34,70 -68,131 -81,148 -15,18 -94,251 -94,275 0,10 -7,33 -16,49 -9,18 -13,42 -10,58 3,15 2,26 -3,22 -5,-3 -11,-1 -13,4 -2,7 -16,7 -38,1 -112,-30 -221,-61 -259,-74 -24,-9 -28.4235,-10.0038 -52,-14.7939 -19.8447,-12.9318 -35.5099,-6.5615 -50.603,-19.2023 C 3270.4045,4683.8053 3250,4675 3223,4665 c -26,-9 -69,-26 -94,-37 -22.0445,-8.7958 -35.7185,-9.5752 -57.2098,-20.7939 C 3060.4083,4595.8129 3038,4585 2990,4561 c -44,-22 -80,-36 -80,-31 0,30 -33,236 -40,249 -4,9 -10,32 -13,51 -6,36 -21,90 -55,200 -11,36 -29,97 -40,135 -11,39 -27,87 -36,108 -16,37 -16,37 6,38 63.5222,5.4914 90.9512,-1.3467 126,-1 57,0 419,-30 467,-39 28,-5 72,-13 99,-16 59.9749,-9.2686 66.5511,-13.4332 113.5949,-21.3296 17.3199,-6.2271 47.5188,-17.8541 52.4051,-3.6704 21.2666,90.4242 17.3418,120.1037 35,208 10,37 19,83 21,102 11,112 53,304 80,370 8,19 19,51 24,70 25,99 43,156 56,174 8,11 14,26 14,34 0,7 21,50 47,95 26,45 60,107 76,137 271,504 342,612 529,800 191,193 287,280 383,351 186,137 182,135 235,160 14,7 37,24 53,38 15,13 27,22 27,18 0,-3 46,20 103,52 96,54 146,80 269,135 29,13 73,33 98,44 65,30 246,92 310,108 30,7 71,17 90,23 19,6 46,13 60,16 14,2 64,11 112,19 48,9 97,18 110,21 31,6 108,15 197,21 40,3 76,5 80,6 22,2 31,-6 37,-37 3,-20 12,-35 20,-35 8,0 14,4 14,8 0,4 23,33 50,63 57,62 65,101 20,107 -14,2 -29,7 -33,11 -10,10 -22,302 -31,783 l -1,86 50,-5 c 27,-3 54,-9 60,-14 5,-5 24,-9 41,-9 39.0144,-9.8321 30.5896,-14.6386 73,-14 35.378,-10.4008 144,-15 238,-7 69,6 110,15 136,30 21,12 42,21 48,21 17,0 48,43 49,66 0,42 -23,47 -86,18 -40,-18 -81,-28 -135,-31 -73.98,-6.9352 -95.8266,-1.041 -141,4 -117,12 -288,57 -288,74 0,4 17,17 38,30 61,38 186,69 302,75 58,3 96.4407,10.3898 117,9 19.7717,-1.2411 28.6456,-9.5479 46,-14 37,2 120,-13 156,-28 64.0516,-11.4944 83.0222,-32.8615 90.8305,-58.8814 -4.924,-19.1131 -16.8798,-36.0442 -21.5593,-52.1864 C 7432.3729,9286.6102 7407,9235 7395,9180 c -4,-19 -13,-50 -21,-67 -8,-18 -20,-48 -28,-65 -8,-18 -21,-53 -30,-78 -8,-25 -29,-83 -47,-130 -94,-257 -178,-555 -162,-571 5,-5 23,1 42,14 32,22 34,27 66,183 18,88 42,180 53,205 12,25 26,66 33,92 6,26 15,50 20,53 5,3 9,13 9,22 0,9 6,29 14,43 7,14 16,39 20,55 4,16 20,63 37,104 35,86 104,251 124,295 24,54 25,66 11,93 -42,82 -156,127 -334,134 -51,2 -94,3 -95,2 z M 2669,5173 c 11,-24 21,-54 21,-68 0,-13 4,-26 9,-29 5,-3 25,-59 46,-123 20,-65 39,-125 41,-133 3,-8 16,-75 30,-150 14,-74 27,-145 30,-157 5,-19 3,-21 -17,-16 -13,4 -33,18 -46,32 -13,14 -34,37 -47,51 -13,14 -36,45 -52,69 -33.085,45.1606 -36.8323,45.1529 -53,92 -29.173,65.7941 -14.2193,43.1224 -32,97 -17,50 -17,282 0,349 11,46 15,51 31,41 10,-6 27,-31 39,-55 z"
         sodipodi:nodetypes="sccscccccccccccccccccccscssssccccccccccccsccccccccccccccccsccccccscssscccscccccssccccsccsccscsscccsssccccccscccccccccssccccccccccccccccscscscccccsscssccscccccccccccssccccccccccccccccsscccccsccccsccccccssccsccccccccsccccscsccccccccccsccccsscsccccscsscccccsscccccc" />
      <path
         inkscape:connector-curvature="0"
         id="path18"
         d="m 9654,3509 c 19,-18 19,-18 -5,-38 -13,-11 -29,-20 -35,-21 -19,0 -167,-82 -219,-120 -89,-66 -190,-183 -234,-272 -12,-24 -30,-54 -41,-68 -16,-21 -21.2712,-22.4237 -24.2373,-9.1186 -18.3409,41.349 -49.645,59.1546 -65.7627,102.1186 0,8 -9,22 -20,32 -11,10 -20,22 -20,27 0,5 -20,40 -44,78 -25,38 -58,95 -74,127 -16,32 -47,89 -70,127 -23,37 -42,71 -42,75 0,3 -18,42 -40,85 -22,44 -40,85 -40,91 0,7 -9,20 -20,30 -16,15 -22,15 -35,5 -8,-7 -15,-25 -15,-40 0,-31 52,-151 84,-195 12,-16 26,-39 30,-49 13,-37 226,-413 292,-518 13,-21 24,-41 24,-46 0,-4 8,-19 17,-32 9,-13 12.4045,-28.4121 22.1909,-51.4045 98.4172,-17.8415 77.9963,-3.9342 160.8091,0.4045 119,1 172,17 254,75 62,44 146,129 146,148 0,6 16,28 35,51 19,22 35,47 35,54 0,7 4,13 9,13 5,0 11,8 15,18 3,9 15,31 26,47 24,37 40,72 40,90 0,8 5,17 11,20 6,4 9,21 8,39 -2,17 0,55 5,84 9,57 -2,82 -35,82 -10,0 -35,10 -56,22 -21,12 -69,38 -108,58 -171,90 -247,139 -404,262 -64,50 -181,181 -181,203 0,8 15,22 33,31 35,18 70,55 90,94 42,84 118,179 143,180 7,0 11,6 10,13 -1,11 25,70 76,168 10,20 18,48 18,61 0,13 4,28 9,33 5,6 16,44 24,85 9,41 18,84 20,95 56,226 51,431 -17,719 -8,34 -20,88 -27,121 -14,77 -63,218 -86,253 -11,15 -29,54 -42,87 -13,33 -34,84 -47,113 -13,29 -24,57 -24,62 0,5 -6,24 -14,42 -40,93 -88,211 -101,248 -7,21 -18,48 -27,67 -6,12 -11,36 -12,52 -1,17 -4,31 -7,31 -3,0 -27,42 -53,93 -25,50 -58,110 -71,132 -14,22 -28,47 -33,55 -4,8 -33,55 -65,103 -32,49 -62,98 -68,110 -19,43 -60,106 -119,182 -53,69 -138,193 -160,234 -9,15 -32,48 -53,73 -20,25 -37,49 -37,54 0,5 -16,20 -35,33 -19,13 -35,27 -35,31 0,4 -28,29 -62,55 -35,27 -70,57 -79,68 -45.5575,36.3181 -29.5914,23.4999 -83,50 -11,8 -57,33 -101,57 -44,23 -89,50 -100,60 -11,10 -32,22 -47,25 -16,4 -38,18 -50,31 -13,13 -28,24 -34,24 -6,0 -30,13 -55,29 -42,28 -386,141 -428,141 -11,0 -22,4 -25,9 -11,17 -55,18 -69,2 -8,-9 -17,-31 -20,-48 -8,-39 10,-54 88,-72 49,-12 260,-76 300,-92 11,-4 38,-13 59,-20 22,-6 70,-31 106,-55 37,-23 86,-54 111,-67 36,-20 121,-69 247,-142 28,-16 97,-69 100,-77 2,-5 9,-8 16,-8 19,0 149,-131 199,-201 25,-35 81,-115 124,-178 43,-62 85,-123 93,-135 8,-12 31,-42 50,-67 39,-49 53,-71 90,-144 14,-27 37,-66 52,-85 32,-43 57,-84 102,-170 19,-36 46,-87 60,-114 16.6782,-39.9785 14.7709,-46.5641 21.6271,-63.2542 C 9006.2373,6552.2373 9042,6465 9054,6417 c 3,-15 24,-66 46,-112 22,-46 42,-97 46,-112 4,-15 13,-37 20,-48 8,-11 14,-25 14,-32 0,-14 33,-92 90,-208 43,-88 95,-238 105,-300 4,-22 21,-96 37,-165 24,-99 31,-155 35,-270 5,-145 4,-151 -38,-360 -10,-46 -42,-143 -66,-195 -24,-53 -65,-115 -181,-270 -4,-5 -19,-28 -33,-50 -19,-28 -46,-50 -92,-73 -70,-36 -85,-57 -89,-123 -1,-27 5,-47 25,-72 27,-36 109,-128 139,-156 56,-53 79.7735,-65.977 86,-71 15.5992,-12.5841 26.4348,-28.225 52.7939,-54.8053 15.4375,-8.6018 36.5448,-17.8748 52.2061,-29.1947 19,-14 38,-26 43,-26 5,0 25,-13 44,-28 19,-16 66,-45 103,-66 37,-20 73,-46 80,-57 m 148.1947,-188.5992 C 9721.4045,3322.7977 9618,3156 9537,3073 c -77,-79 -133,-106 -242,-117 -81,-9 -96,2 -71,49 19,34 37,57 119,147 20,23 37,45 37,50 0,4 8,8 18,8 11,0 27,9 37,20 10,11 26,20 37,20 10,0 18,6 18,13 0,7 20,19 45,26 25,7 74,31 109,52 36,21 72,39 80,39 4.9975,-17.9148 -0.5963,-9.973 -2.8053,-29.5992 z"
         sodipodi:nodetypes="ccccccccsscscscsccscccsscccscssccscccssccscccccsccccccsssccccsccccccccsssccccsccscsccccccccccsscscccccccsscsccccccccccccsccsccccccccssssssccc" />
    </g>
    <g
       id="labelValve3">
      <path
         inkscape:connector-curvature="0"
         id="path22"
         d="m 1352,6527 c -10,2 -23,-2 -29,-9 -8,-10 -43,-104 -48,-128 -1,-3 -5,-21 -10,-40 -5,-19 -10,-42 -11,-50 -8,-42 -38.7288,-138.6441 -46,-148 -1.7288,-7.5085 -2.4576,-14.6949 -2,-26 2,-12 -3,-31 -10,-42 -14,-18 -15,-18 -20,11 -4,17 -15,64 -26,105 -10,41 -21,100 -23,130 -7,78 -24,110 -57,110 -16,0 -38,-8 -51,-19 -23,-19 -23,-20 -11,-106 7,-49 20,-104 28,-123 7,-19 14,-43 14,-54 0,-10 6,-29 14,-41 8,-12 17,-44 21,-72 4,-27 15,-66 25,-85 9,-20 21,-50 25,-68 9,-42 18,-46 56,-23 30,19 33,19 45,3 11,-14 16,-15 33,-4 12,6 26.6102,22.1695 38.4576,25.1356 30.6657,17.3389 46.6795,39.9535 85.1416,56.8606 30.9633,17.1367 35.7423,34.6088 78.4008,40.0038 8,0 33,-32 58,-75 23,-41 51,-80 62,-86 24,-12 55,-4 63,17 5,12 9,11 25,-5 17,-17 29,-19 73,-14 29,3 61,10 70,14 9,5 30,9 45,9 16,0 46,9 68,20 21,11 40,18 41,17 2,-2 10,-20 19,-40 9.5462,-38.5478 16.2838,-39.9265 35,-76 10.1022,-12.223 2.3063,-20.0231 53,1 38.7627,14.7966 77,51 77,65 0,5 10,19 23,33 13,14 26,34 30,45 16,53 35,96 49,112 8,10 24,33 34,51 21,37 78,77 94,67 14,-9 40,13 40,33 0,11 -9,14 -45,10 -35.7998,-0.6435 -50.384,4.9293 -73,-16 -16,-15 -45,-39 -64,-54 -20,-15 -43,-40 -51,-55 -7,-16 -23,-44 -34,-64 -11,-19 -28,-50 -38,-69 -15,-29 -19,-31 -27,-17 -5,10 -7,26 -3,36 3,11 0,21 -9,24 -8,3 -19,29 -25,59 -23,105 -42,160 -56,154 -7,-2 -17,0 -23,6 -6,6 -17,4 -31,-8 -25,-22 -28,-72 -7,-132 8,-22 16,-57 18,-78 3,-38 2,-39 -37,-46 -22,-4 -63,-7 -91,-7 -49,-1 -51,0 -48,27 5,63 16,127 24,141 4,9 11,42 15,74 8,64 6,65 -55,41 -33,-14 -40,-21 -46,-52 -12,-73 -11,-72 -67,-71 -72,1 -82,7 -112,64 -34,65 -48,76 -88,64 -42,-12 -48,-20 -102,-124 -26,-49 -48.4045,-85.8091 -59,-97 -6.8521,-13.5567 -32.2581,-60.4065 -43.7261,-56.0549 -16.1062,6.1116 18.6416,81.0642 26.7261,112.0549 6,25 11,56 11,70 13.2833,87.1145 18.6197,85.5279 45,162 14,38 25,76 25,85 0,9 8,27 19,40 13,17 20,45 22,89 3,55 1,65 -13,68 -19.4072,-1.3735 -20.6804,-8.8024 -36,-11 z m 336,-561 c 5,-40 -7,-98 -18,-91 -5,3 -19,27 -30,52 -16,36 -18,49 -8,60 20,24 53,12 56,-21 z"
         sodipodi:nodetypes="cccscccccccscccssccccccccccccsccscscccssccccscccccccccccscccccccscccccccscccsccccccccc" />
      <path
         inkscape:connector-curvature="0"
         id="path26"
         d="m 2768,6294 c -16,-8 -28,-18 -29,-22 -6,-54 -16,-49 123,-57 70,-4 128,-10 128,-14 0,-8 -112,-111 -148,-137 -47,-33 -16,-75 56,-75 103.1943,-6.3772 110.0924,-2.6075 181,-14 25,-4 54,-7 64,-7 9,1 17,-3 17,-7 0,-12 -35.9854,-36.0353 -48,-41 -6.1525,-2.5424 -14.1217,-9.4947 -20.4746,-15.0847 C 3081.9147,5896.4587 3054,5877 2998,5849 c -136,-68 -125.6182,-72.603 -102.1758,-102.0454 14.9999,-16.8035 22.5302,-7.962 43.8924,4.259 C 2960.4727,5773.4045 3008,5792 3011,5794 c 2,2 24,14 49,27 126,67 220,150 220,193 0,19 -8,24 -62,35 -35,7 -108,15 -163,18 -55,3 -102,8 -105,10 -6,5 38,43 90,78 71,47 119,100 113,123 -5,20 -12,22 -82,23 -42,0 -121,2 -176,4 -73,2 -107,-1 -127,-11 z"
         sodipodi:nodetypes="sccsccccssssccccscscccccs" />
      <path
         inkscape:connector-curvature="0"
         id="path28"
         d="m 2548,6166 c -111,-46 -208,-120 -208,-160 0,-8 -3.4068,-25.8814 -18.8644,-46.6949 -8.2342,-28.5824 -12.7695,-32.0264 -9.0339,-54.2712 C 2318.0169,5889.0678 2322,5873 2330,5857 c 21,-42 70,-74 141,-92 92,-24 163,-22 234,8 52,21 64,31 88,76 30,55 29,78 -4,61 -10,-6 -19,-16 -19,-23 0,-23 -43,-39 -119,-44 -65,-5 -84,-2 -129,17 -51,22 -81,53 -64,64 5,3 28,8 52,12 24,4 55,13 69,21 14,7 31,13 37,13 6,0 17,7 24,15 7,8 31,24 54,35 81,39 101,56 98,81 -9,83 -126,114 -244,65 z m 142,-87 c 0,-4 -8,-10 -17,-14 -131,-52 -243,-76 -243,-52 0,22 59,75 96,87 20,7 47,10 60,7 13,-2 27,-1 30,4 5,9 74,-20 74,-32 z"
         sodipodi:nodetypes="csccsccccscccscsscccscscccs" />
    </g>
    <path
       d="m 5076,5981 -39,-40 -1,-174 c -1,-151 -3,-176 -18,-191 -10,-10 -18,-24 -18,-31 0,-21 22,-65 32,-65 5,0 6,-5 2,-11 -3,-6 -2,-14 4,-18 9,-5 32,-191 32,-259 0,-39 28,-38 67,3 25,27 29.9027,32.2098 29.3932,43.8053 -2.317,22.4466 -6.6587,25.9508 -12.9849,50.2958 C 5135.7042,5314.2023 5134,5356 5149,5379 c 7,11 18,9 56,-15 25,-16 65,-44 88,-62 22,-19 60,-43 84,-54 l 42,-20 45,37 c 24,21 49,48 55,61 9,21 18,24 60,24 54,0 152,32 171,55 18,22 27,18 39,-15 11,-34 22,-37 56,-14 24,16 25,21 20,85 -3,44 -1,70 6,75 6,4 64,8 128,9 64,2 128,8 144,14 32,12 33,6 12,-54 -8,-22 -15,-62 -15,-88 0,-40 5,-54 28,-77 40,-39 133,-49 232,-25 38,9 70,21 70,25 0,13 40,20 130,26 47,3 101,10 120,16 40,13 106,53 135,83 11,12 42,38 69,60 26,21 55,54 63,73 13,32 16,33 30,19 15,-14 15,-18 -1,-41 -9,-14 -23,-26 -30,-26 -8,0 -16,-6 -18,-14 -2,-7 -69,-82 -150,-166 -84,-86 -148,-161 -148,-171 0,-33 36,-21 74,22 25.3898,15.8305 27.4407,22.0508 50,36 39.2887,49.709 106.1232,121.9979 146,162 l 142,141 32,-22 c 17,-12 54,-38 81,-58 28,-20 71,-49 97,-64 l 46,-27 35,31 c 44,38 55,79 31,115 l -17,26 -22,-21 -22,-21 -29,23 c -16,13 -40,29 -54,36 -14,8 -40,26 -58,42 l -34,28 24,28 c 12,16 38,43 56,61 17,17 32,35 32,38 0,3 15,21 33,39 46,47 99,125 92,136 -18,29 -63,-7 -157,-125 -31,-38 -72,-86 -92,-104 l -36,-35 -35,34 c -19,19 -47,51 -61,72 -31,44 -60,49 -91,16 -35,-40 -35,-56 0,-96 67,-77 67,-68 7,-122 -29,-26 -74,-58 -99,-70 -25,-12 -53,-25 -61,-29 -9,-5 -40,-12 -69,-16 -75.1014,-19.8178 -57.8073,-1.6654 -106.6102,-4.4237 C 6582.3051,5485.0847 6578,5480 6554,5492 c -38,18 -41,36 -7,44 50,12 210,91 216,108 4,9 15,16 25,16 11,0 31,18 48,43 16,23 35,48 42,55 15,16 16,58 2,67 -6.4999,8.9224 -3.3512,11.719 -11.2373,20.8814 C 6855.4407,5853.3559 6845,5852 6820,5859 c -81,23 -165.3051,-4.4237 -254,-80 -27.8382,-18.2015 -41.9013,-22.3437 -52.3051,-36.1186 C 6482.3559,5713.2712 6428,5609 6387,5569 c -42,-41 -49,-85 -14,-82 19,1 60,-54 51,-69 -6,-9 -94,-9 -138,1 -19,4 -37,18 -48,36 -16,29 -16,33 0,87 10,32 21,60 25,64 4,4 7,17 7,29 0,33 60,189 76,198 17,9 19,58 3,74 -8,8 -21,8 -48,-2 -21,-7 -85,-22 -144,-34 -58,-11 -132,-30 -164,-42 -32,-12 -66,-22 -75,-22 -10,-1 -18,-4 -18,-8 0,-4 -29,-37 -65,-73 -43,-44 -65,-74 -65,-90 0,-21 -31,-71 -53,-87 -5,-4 -7,-17 -5,-30 2,-19 8,-24 31,-22 41,3 24,-13 -34,-32 -58,-20 -129,-11 -190,23 -55,31 -49,51 20,67 54,13 72,19 119,42 56,27 118.397,81.9962 150,129 20.7243,31.7825 16.3077,40.0408 -4.2061,73.5955 -17,22 -23.6279,28.8608 -38.7939,38.4045 -10.7138,6.742 -29,5 -61,8 -43,3 -69,0 -97,-13 -41,-19 -158,-117 -173,-145 -54,-99 -66,-128 -66,-164 -1,-56 32,-108 88,-135 49,-25 54,-34 24,-44 -32,-10 -74,3 -108,35 -18,16 -71,59 -119,97 l -86,67 24,15 c 13,9 36.2373,18.0678 46.2373,28.0678 10,10 29,22 42,27 20.5867,13.6537 21.021,22.4173 38,40 C 5339.3899,5666.7797 5402,5769 5408,5815 c 7,64 -3,90 -44,114 -34.8422,20.4888 -47.0007,22.953 -93,23 -51,-1 -110,-13 -117,-23 -11,-18 -24,-8 -25,19 -1,15 -4,37 -7,50 -7,22 -8,22 -46,-17 z m 213,-146 c 44,-22 54.8053,-58.6333 38.9773,-89.1947 -15.617,-24.1744 -20.7788,-28.9973 -38.9773,-41.8053 -27,-28 -105,-71 -141,-76 -21,-3 -23,2 -26,40 3.1175,50.5305 -2.8099,78.1212 2.0341,117 2.1833,49.7939 13.9659,41 45.9659,54 37,14 87,13 119,-4 z m 950.9322,-44.4915 C 6232.2103,5751.0215 6227.2706,5743.0069 6208,5683 l -12,-33 h -152 c -149,0 -152,0 -158,22 -3,13 -1,27 4,32 13,13 108,47 165,58 71,14 129,25 138,27 5,0 46.1864,14.2712 46.9322,1.5085 z M 6725,5769 c 71,-18 70,-17 49,-40 -10,-11 -45,-33 -79,-49 -60,-28 -187,-71 -193,-65 -2,2 4,17 12,34 14,26 146,131 165,131 3,0 24,-5 46,-11 z m -1062,-20 c 15,1 27,-3 27,-9 0,-5 7,-10 15,-10 53,0 -27,-48 -115,-69 -119,-28 -126,-26 -87,22 36,43 89,77 112,71 11,-3 32,-5 48,-5 z"
       id="labelReflex"
       inkscape:connector-curvature="0"
       sodipodi:nodetypes="cccsssccsccccccccccsccccccscsccscccccccsccsccccccccccccccccccssccccccccccsccccccscccccccccccccsscsccscscscccccccccsccccccccccsccccccccccccccccccccscsccccccscsccsscccc" />
    <path
       d="m 1905,5143 c -48,-2 -67,-8 -100,-32 -63,-45 -54,-55 60,-66 l 100,-10 -65,-18 c -36,-9 -96,-24 -135,-31 -76,-15 -218,-58 -330,-99 -38.0278,-21.881 -60.09,-19.1183 -83.0151,-35.3856 C 1338.2023,4842.4121 1331,4835 1320,4825 c -12,-11 -20,-28 -18,-39 4,-30 52,-24 141,18 114,52 395,124 519,133 103,7 101,4 -78,-145 -171,-142 -234,-197 -234,-202 0,-3 4,-11 9,-18 6,-11 21,-7 67,18 32,18 55.4083,35.0038 67,46 46.7144,34.703 94.6545,93.2879 156,144 235,194 283,243 279,283 -3,30 -5,31 -78,44 -41,8 -82,15 -90,18 -8,2 -21,4 -28,4 -60.4724,8.6245 -68.1286,18.2904 -127,14 z"
       id="v3ArrowIn"
       inkscape:connector-curvature="0"
       sodipodi:nodetypes="cccccccccccccsccccscccc" />
    <path
       d="m 1454,4628 c -11,-13 -31,-40 -45,-60 -36.5921,-52.983 -45.1855,-74.4001 -111,-142 -16,-15 -28,-30 -28,-34 0,-4 -47,-55 -105,-112 -91,-91 -103,-108 -98,-130 3,-14 7,-27 9,-28 5,-7 79,-24 114,-27 146,-13 399,-53 430,-68 28,-15 31,-14 60,13 53,50 33,109 -42,116 -155.3617,33.1302 -213.2229,28.3315 -289,41 l -54,8 48,34 c 30.7207,30.0328 69.8634,48.1744 91,60 12.9924,11.5992 146,66 221,86 134,37 253,68 315,81 139,30 157,34 222,46 78,15 118,45 110,83 -4,23 -7,24 -51,18 -25,-3 -61,-12 -80,-19 -18,-8 -50,-14 -70,-14 -20,-1 -54,-7 -76,-15 -22,-8 -47,-15 -55,-15 -20,0 -295,-75 -385,-105 -43.4347,-14.3841 -74.5314,-14.3674 -109.6102,-34.6949 C 1448.4576,4395.1525 1413,4371 1385,4355 c -27,-15 -64,-38 -82,-51 -32,-24 -53,-31 -53,-16 0,4 21,30 46,57 83,91 90,99 158,183 37,46 66,91 64,100 -5,26 -41,26 -64,0 z"
       id="v3ArrowOut"
       inkscape:connector-curvature="0"
       sodipodi:nodetypes="cccsccccccccccccccccccssccccscccc" />
    <path
       d="m 11498,4596 c -56,-21 -126,-63 -165,-98 -59.557,-40.181 -41.022,-25.2841 -68,-60 -36,-43 -33,-66 8,-61 40,6 98,34 94,48 -2,5 15,24 37,42 23,18 46,37 51,41 6,5 23,12 38,16 24,6 26,4 23,-16 -3,-13 -5,-30 -5,-40 -1,-9 -20,-40 -44,-70 -24,-29 -41.339,-52.9492 -50,-70 -9.574,-13.2172 -17.877,-15.1669 -27,-29 -2.119,-8.6949 -33,-46 -72,-88 -54,-57 -85,-81 -123,-95 -93,-34 -150,-47 -228,-49 -68,-2 -80,1 -93,17 -22,30 -18,76 6,76 10,0 40,7 66,16 25,9 54,17 64,19 32,6 135,58 143,72 36.548,21.8819 37.473,27.9327 50,44 19,18 9,77 -16,94 -46,32 -168,5 -259,-58 -34,-23 -30,3 7,44 41,45 37,65 -12,55 -25,-6 -83,-48 -83,-60 0,-8 -61,-99 -83,-123 -11,-13 -12.894,-19.0014 -13,-23 -0.588,-22.172 -46,-80 -71,-103 -19,-17 -20,-16 -33,25 -8,24 -17,48 -21,53 -4,6 -17,55 -29,110 -11,54 -22,100 -23,101 -19,15 -49,11 -73,-9 l -28,-24 18,-83 c 20,-92 43,-176 57,-202 5,-9 5,-19 1,-21 -18,-11 -171,-56 -209,-62 l -41,-6 -4,68 c -2,37 2,93 10,123 7,30 14,66 16,80 11,83 20,126 28,131 4,3 12,19 17,37 13,43 -4,54 -51,35 -31,-12 -40,-22 -49,-57 -6,-22 -15,-52 -19,-66 -11,-33 -27,-114 -35,-172 -5,-41 -10,-48 -28,-48 -42,0 -61.44,11.3708 -70.296,29.3034 -4.494,9.1011 -7.097,11.6583 -12.296,14.2996 -5.299,2.6928 -5.408,3.397 -8.408,12.397 -8.255,38.8345 -48.322,68.0443 -95,42 -14,-9 -39,-40 -54,-69 -28,-54 -88,-110 -96,-88 -2,6 1,14 7,18 5,3 12,15 14,26 2,11 3.2203,17.3051 8.3729,33.1017 13.0169,50.5763 -1.1143,20.9619 9.6271,59.8983 17,31 70,160 70,171 0,5 14,25 30,43 17,18 30,36 30,41 0,17 -33,19 -71,4 -22,-9 -42.0678,-12.5763 -50.6441,-18.4746 -7.3987,-18.6007 -4.1802,-7.8289 -8.6271,-24.1017 -4,-5 -14.7288,-31.4237 -23.7288,-59.4237 -10,-27 -21,-59 -26,-70 -4,-11 -18,-53 -31,-94 -22.1015,-55.1191 -30.1983,-66.2113 -38.6102,-102.3051 C 9760.7627,4099.5254 9737,4050 9724,4050 c -5,0 -20,30 -33,68 -12,37 -29,79 -37,94 -6.109,33.0389 -25.2971,66.5178 -34,98 0,28 -31,88 -48,95 -18,7 -57,-18 -72,-46 -9,-16 -7,-30 9,-65 12,-24 21,-54 21,-67 0,-13 4,-27 9,-32 5,-6 16,-34 26,-62 9,-29 21,-55 26,-58 5,-4 9,-13 9,-21 0,-14 69,-164 88,-192 7,-10 14,-10 35,1 29,15 67,58 67,76 0,6 18,14 40,17 22,4 40,10 40,15 0,4 8,10 18,13 10,4 32,24 48,45 18,25 40,42 59,45 26,6 35,0 81,-49 37,-39 59,-55 78,-55 18,0 26,-5 26,-17 1,-46 17,-46 155,-8 112.91,48.6448 65.789,35.3945 157,71 68,26 72,26 85,9 7,-11 13,-22 13,-27 0,-23 44,-2 91,42 29,28 54,50 55,50 1,0 5,-14 9,-30 9,-42 49,-77 96,-84 51,-8 175,11 221,35 21,11 44,19 53,19 9,0 27,8 41,17 23,15 28,15 52,1 19,-11 34,-13 50,-7 28,10 284,13 335,4 24.74,-6.346 52.019,3.9321 77,-2 23,-6 70,21 70,41 0,19 -30,42 -65,50 -25.066,7.3877 -36.044,10.8247 -59.397,14.4045 C 11590.434,4139.7943 11379,4133 11361,4144 c -14,9 15.107,31.6711 34.22,51.0847 11.975,12.1629 26.865,33.8136 36.729,46.8984 6.865,16.9322 17.695,19.661 123.051,157.0169 19,24 23.181,35.9167 26.611,42.0189 7.191,12.794 16.587,22.9887 23.389,28.9811 22.686,4.4357 16.234,41.298 19,58 14,77 -33,103 -126,68 z m -420,-262 c 18,-4 21,-8 12,-23 -9,-18 -58.516,-35.7471 -85,-41 -13.596,-2.6966 -83.224,-23.0175 -85.393,-12.4901 -2.425,11.7677 52.827,58.5957 72.791,66.8799 20.873,13.1865 41.602,17.6102 85.602,9.6102 z"
       id="labelValve2"
       inkscape:connector-curvature="0"
       sodipodi:nodetypes="cccccccccccccccccsccccccccscscccccccccccccccccccccssscccccsccscscccccccsccccccscccsccscsccccsccccscscccscccccscccsccscccccsscc" />
    <path
       d="m 10466,2570 c 12.975,58.0056 34,127 46,154 22,47 22,48 3,62 -27,20 -32,18 -46,-18 -12,-31 -47,-156 -53,-188 -1,-8 -6,-28 -9,-45 -14,-59 -18,-81 -22,-120 -7,-65 -30,-158 -40,-162 -12,-4 -77,100 -72,115 1,4 -10,23 -26,43 -15,20 -27,39 -27,43 0,4 -22,52 -50,107 -27,55 -45.763,97.9831 -55.085,117.4576 -17.993,38.4356 -56.134,69.3737 -74.915,96.5424 0,6 -17,31 -37,57 -21,26 -48,62 -61,80 -89,128 -101,138 -122,99 -26,-50 -2,-100 122,-258 69,-87 111,-151 147,-219 17,-32 37,-70 45,-84 22,-37 56,-113 53,-117 -7,-6 -72,31 -85,49 -18,25 -67,49 -86,42 -18,-7 -31,-63 -22,-97 3,-13 20,-31 38,-40 18,-9 67,-40 108,-67 41,-28 93,-59 116,-69 23,-11 55,-34 71,-51 l 31,-33 12,24 c 15,27 70,279 70,320"
       id="v2ArrowOut"
       inkscape:connector-curvature="0"
       sodipodi:nodetypes="ccccccccccscccccccccccccscccccc" />
    <path
       d="m 9567,2756 c -9,-13 -19,-45 -22,-71 -3,-26 -7,-50 -9,-54 -2,-3 -7,-44 -11,-91 -4,-47 -10,-92 -14,-100 -4,-8 -7,-73 -7,-145 1,-115 3,-130 19,-133 9,-2 19,2 21,10 2,7 13,46 25,86 14,46 19,80 15,95 -9,25 -7,81 4,147 l 8,45 44,-87 c 25,-48 51,-100 59,-115 7,-16 24,-44 36,-63 13,-19 34,-55 47,-80 13,-25 43,-73 66,-108 23,-35 42,-65 42,-67 0,-5 91,-139 99,-145 3,-3 25,-30 47,-60 23,-30 59,-72 80,-93 35,-35 39,-37 51,-21 30,41 10,105 -52,164 -43,41 -105,121 -159,205 -22,33 -51,77 -65,99 -31,47 -47,74 -60,103 -5,11 -15,24 -21,28 -6,4 -15,17 -21,28 -5,12 -13,29 -18,37 -5,8 -18,32 -28,54 -10,21 -28,57 -39,80 -23,43 -16,55 19,38 12,-6 40,-16 61,-21 37,-10 42,-8 68,17 38,37 38,79 1,88 -29,6 -67,22 -141,58 -24,11 -59,38 -78,59 -40,44 -47,45 -67,13 z"
       id="v2ArrowIn"
       inkscape:connector-curvature="0" />
  </g>
</svg>
