<?xml version="1.0" encoding="UTF-8" standalone="no"?>
<svg
   xmlns:dc="http://purl.org/dc/elements/1.1/"
   xmlns:cc="http://creativecommons.org/ns#"
   xmlns:rdf="http://www.w3.org/1999/02/22-rdf-syntax-ns#"
   xmlns:svg="http://www.w3.org/2000/svg"
   xmlns="http://www.w3.org/2000/svg"
   xmlns:sodipodi="http://sodipodi.sourceforge.net/DTD/sodipodi-0.dtd"
   xmlns:inkscape="http://www.inkscape.org/namespaces/inkscape"
   version="1.0"
   width="1214.2494pt"
   height="1123.5641pt"
   viewBox="0 0 1214.2494 1123.5641"
   preserveAspectRatio="xMidYMid meet"
   id="svg68"
   sodipodi:docname="tkr.svg"
   inkscape:version="0.92.4 (5da689c313, 2019-01-14)">
  <defs
     id="defs72" />
  <sodipodi:namedview
     pagecolor="#ffffff"
     bordercolor="#666666"
     borderopacity="1"
     objecttolerance="10"
     gridtolerance="10"
     guidetolerance="10"
     inkscape:pageopacity="0"
     inkscape:pageshadow="2"
     inkscape:window-width="1920"
     inkscape:window-height="1025"
     id="namedview70"
     showgrid="false"
     inkscape:zoom="0.39111844"
     inkscape:cx="646.36069"
     inkscape:cy="772.42789"
     inkscape:window-x="0"
     inkscape:window-y="30"
     inkscape:window-maximized="1"
     inkscape:current-layer="svg68"
     fit-margin-top="30"
     fit-margin-bottom="30"
     fit-margin-right="30"
     fit-margin-left="30" />
  <metadata
     id="metadata2">
Created by potrace 1.16, written by Peter Selinger 2001-2019
<rdf:RDF>
  <cc:Work
     rdf:about="">
    <dc:format>image/svg+xml</dc:format>
    <dc:type
       rdf:resource="http://purl.org/dc/dcmitype/StillImage" />
    <dc:title></dc:title>
  </cc:Work>
</rdf:RDF>
</metadata>
  <g
     transform="matrix(0.1,0,0,-0.1,-6.7506944,1184.5197)"
     id="g66"
     style="fill:#000000;stroke:none">
    <path
       d="m 6125,11539 c -22,-5 -62,-13 -89,-18 -47,-8 -81,-34 -70,-53 6,-10 64,-4 109,11 54,17 134,22 157,10 24,-13 142,-16 246,-5 61,6 104,1 282,-29 123,-20 180,-34 225,-55 22,-10 54,-22 70,-26 17,-4 98,-29 180,-56 83,-27 165,-51 183,-54 18,-2 43,-10 55,-18 12,-8 38,-17 58,-20 20,-4 54,-15 77,-26 23,-11 45,-20 51,-20 8,0 86,-36 196,-92 170,-86 237,-118 284,-134 29,-10 63,-30 75,-45 12,-14 44,-36 71,-49 28,-14 75,-41 105,-61 30,-20 82,-49 115,-65 34,-16 74,-39 90,-50 17,-11 54,-31 82,-44 29,-14 53,-28 53,-32 0,-9 97,-58 114,-58 7,0 23,-11 36,-25 13,-14 28,-25 34,-25 6,0 28,-11 48,-25 20,-14 41,-25 47,-25 5,0 31,-15 56,-32 26,-18 55,-38 66,-44 10,-6 27,-22 38,-35 10,-14 43,-36 73,-49 29,-14 58,-30 63,-36 6,-6 38,-32 73,-58 34,-26 62,-50 62,-54 0,-4 18,-18 40,-32 23,-14 49,-39 59,-56 10,-17 52,-59 92,-94 41,-34 87,-76 103,-91 15,-16 32,-29 37,-29 5,0 9,-6 9,-12 1,-15 39,-61 62,-74 13,-8 75,-76 234,-258 19,-22 34,-42 34,-44 0,-3 13,-19 29,-36 58,-61 81,-87 81,-91 0,-3 24,-31 54,-62 96,-102 177,-197 204,-238 15,-22 35,-46 44,-53 10,-7 18,-19 18,-26 0,-8 7,-20 17,-27 9,-8 22,-29 30,-46 7,-18 18,-33 23,-33 6,0 10,-6 10,-13 0,-7 11,-24 24,-38 13,-14 27,-35 30,-47 4,-12 16,-27 27,-33 11,-5 18,-13 15,-17 -2,-4 8,-32 24,-62 15,-30 42,-83 59,-117 17,-34 36,-65 42,-68 11,-8 33,-55 31,-68 -1,-4 6,-22 15,-40 9,-18 16,-35 15,-40 -1,-4 6,-24 17,-45 10,-20 22,-52 26,-69 3,-18 11,-35 16,-38 5,-4 9,-17 9,-29 0,-13 6,-29 14,-35 8,-7 17,-22 20,-34 3,-13 15,-45 28,-73 12,-27 21,-52 20,-56 -1,-4 7,-22 18,-40 11,-18 20,-40 20,-48 0,-8 9,-26 20,-40 11,-14 20,-31 20,-38 0,-8 7,-28 15,-45 8,-18 24,-72 35,-121 11,-50 26,-96 32,-103 6,-8 13,-40 14,-71 1,-31 5,-70 9,-87 12,-61 14,-82 25,-264 7,-102 14,-189 16,-193 2,-4 6,-53 9,-110 2,-57 13,-173 25,-258 11,-85 23,-177 26,-205 3,-27 8,-57 11,-65 3,-8 7,-22 8,-30 1,-8 10,-40 21,-70 16,-47 19,-84 18,-270 0,-297 -10,-600 -24,-690 -6,-41 -10,-115 -9,-165 4,-177 -21,-339 -93,-599 -35,-129 -36,-131 -48,-226 -12,-90 -27,-150 -51,-210 -10,-25 -43,-117 -74,-205 -58,-164 -113,-288 -151,-340 -12,-16 -32,-50 -45,-75 -13,-25 -32,-56 -42,-70 -10,-14 -47,-69 -81,-122 -69,-105 -109,-159 -143,-198 -13,-14 -23,-28 -23,-31 0,-3 -8,-15 -17,-27 -10,-11 -25,-29 -33,-39 -24,-29 -193,-237 -197,-243 -2,-2 -7,1 -11,7 -4,6 -32,29 -62,52 -30,22 -73,63 -95,90 -22,27 -76,79 -120,116 -118,99 -218,199 -280,279 -30,39 -95,109 -145,155 l -91,84 86,86 c 47,48 93,98 103,112 9,14 39,48 65,76 65,67 105,137 161,277 69,172 86,231 96,336 20,203 5,340 -51,467 -36,82 -47,107 -67,153 -8,19 -19,42 -24,50 -4,8 -11,22 -15,30 -3,8 -33,54 -65,101 -32,47 -58,89 -58,93 0,26 -271,308 -354,368 -39,29 -96,73 -128,98 -75,60 -158,110 -183,110 -21,0 -65,-26 -65,-38 0,-4 27,-20 59,-36 32,-16 78,-44 102,-62 24,-18 85,-62 134,-98 57,-40 136,-113 215,-196 138,-146 133,-140 209,-260 48,-77 67,-108 100,-166 26,-46 123,-281 136,-327 14,-51 15,-317 1,-377 -3,-14 -9,-38 -12,-55 -10,-49 -115,-306 -147,-360 -31,-53 -114,-150 -236,-277 -51,-54 -82,-78 -98,-78 -16,0 -30,-11 -43,-33 -31,-51 -174,-153 -306,-218 -66,-32 -127,-59 -134,-59 -7,0 -56,-14 -109,-31 -197,-64 -300,-90 -431,-110 -166,-27 -293,-28 -430,-6 -97,15 -118,19 -167,31 -10,3 -67,14 -126,26 -133,26 -230,69 -356,158 -53,38 -124,87 -158,110 -79,54 -175,143 -211,196 -43,64 -102,193 -113,250 -6,28 -14,67 -18,86 -13,58 -13,177 -1,300 25,252 50,372 106,500 13,30 42,100 65,155 52,126 132,285 175,350 36,56 191,211 299,301 143,119 172,142 255,196 83,54 280,158 330,173 14,4 48,18 75,30 89,41 294,51 400,20 143,-41 294,-143 310,-208 4,-14 14,-28 23,-32 38,-15 44,74 8,124 -47,63 -156,125 -299,171 -60,20 -85,22 -216,19 l -149,-4 -7,90 c -9,105 -9,191 -2,760 3,231 10,449 15,485 13,81 7,471 -7,525 -6,22 -13,105 -16,185 -3,80 -8,155 -11,168 -2,13 1,24 8,26 95,28 189,61 258,90 46,20 89,36 95,36 19,0 98,41 148,76 26,19 50,34 55,34 10,0 118,94 145,127 20,24 37,56 78,148 4,11 34,76 65,145 81,180 85,196 74,288 -17,142 -20,150 -110,296 -50,82 -114,165 -142,184 -11,8 -58,53 -106,102 -126,126 -307,259 -377,276 -16,4 -55,19 -85,34 -30,15 -85,33 -122,40 -62,12 -75,12 -160,-9 -51,-12 -115,-26 -143,-31 -259,-42 -589,-332 -770,-675 -85,-162 -122,-314 -111,-465 8,-109 62,-312 93,-351 7,-8 13,-21 13,-27 0,-24 49,-88 111,-147 186,-174 297,-222 539,-232 120,-5 150,-2 262,21 70,14 129,26 130,26 2,0 3,-26 3,-57 0,-101 15,-309 25,-344 17,-60 23,-346 9,-469 -8,-69 -14,-273 -15,-510 -2,-217 -5,-420 -8,-450 -3,-30 -2,-138 2,-239 8,-210 15,-191 -88,-231 -53,-21 -179,-82 -270,-131 -107,-58 -371,-277 -533,-442 -93,-94 -143,-163 -194,-267 -55,-112 -93,-196 -93,-204 0,-8 -8,-28 -54,-127 -49,-108 -68,-169 -100,-309 -12,-55 -12,-55 -56,-62 -25,-3 -102,-7 -172,-7 -70,-1 -149,-5 -175,-11 -74,-15 -548,-43 -933,-55 -91,-3 -227,-7 -302,-10 l -137,-4 -6,37 c -17,106 -40,190 -102,387 -40,124 -85,219 -150,315 -24,36 -49,73 -56,84 -40,62 -118,122 -337,262 -81,51 -303,144 -417,174 -94,25 -128,29 -213,27 -79,-1 -103,1 -110,13 -7,12 -12,12 -35,0 -21,-11 -30,-11 -43,-2 -34,24 -102,52 -125,52 -14,0 -38,3 -56,6 l -31,6 v 230 230 l 23,-6 c 12,-3 25,-6 30,-6 11,0 8,-130 -3,-130 -7,0 -7,-7 0,-21 13,-23 11,-78 -3,-97 -13,-17 -6,-22 38,-29 28,-4 41,-2 49,9 6,8 28,20 48,27 20,7 54,26 75,43 l 38,30 3,-52 c 2,-32 8,-53 17,-56 8,-3 38,6 67,21 46,23 54,24 63,11 14,-19 130,-25 147,-8 15,15 51,15 66,0 19,-19 151,-15 195,6 37,18 38,18 52,-1 14,-19 79,-38 96,-27 5,2 -1,14 -11,24 -11,11 -23,38 -26,60 -8,47 -33,67 -64,50 -11,-6 -20,-17 -20,-24 0,-20 -47,-59 -64,-53 -26,10 0,82 42,113 29,23 38,25 54,15 16,-10 23,-9 39,5 22,20 12,36 -27,48 -37,11 -124,-43 -157,-96 -15,-26 -29,-56 -30,-66 -1,-19 -2,-19 -44,1 -24,12 -43,25 -43,30 0,4 4,5 10,2 10,-6 90,31 90,43 -1,23 -33,45 -73,49 -47,6 -109,-19 -149,-59 l -21,-21 6,31 c 4,22 2,32 -9,36 -25,10 -53,-12 -78,-62 -14,-27 -32,-55 -42,-63 -16,-13 -17,-10 -11,51 3,36 12,80 19,97 22,57 -27,70 -56,15 l -13,-26 -12,22 c -22,41 -201,107 -273,100 l -40,-4 4,301 c 2,165 -1,406 -5,535 -5,129 -13,390 -18,580 -11,443 -18,518 -45,541 -12,10 -18,9 -30,-3 -13,-13 -14,-31 -5,-129 20,-216 23,-295 36,-884 1,-77 6,-210 10,-295 4,-85 8,-377 9,-647 1,-402 -1,-494 -12,-498 -8,-3 -31,-5 -52,-5 -49,0 -175,-26 -237,-49 -209,-79 -495,-214 -543,-256 -8,-8 -20,-15 -27,-17 -14,-4 -126,-104 -227,-203 -48,-47 -81,-91 -103,-135 -84,-172 -103,-213 -112,-243 -6,-18 -20,-59 -31,-92 -12,-33 -23,-69 -25,-80 -2,-11 -11,-56 -20,-100 -30,-151 -37,-230 -31,-375 4,-80 8,-156 10,-170 7,-51 39,-171 47,-176 5,-3 9,-12 9,-21 0,-31 89,-191 163,-294 41,-57 106,-133 144,-170 67,-64 178,-153 218,-175 11,-6 41,-23 68,-37 26,-14 120,-53 210,-86 129,-48 178,-62 237,-66 41,-2 116,-9 165,-15 225,-25 458,-2 675,65 82,26 210,72 217,78 3,4 13,7 20,7 21,0 203,88 240,116 17,13 36,24 40,24 10,0 77,56 187,153 38,34 81,71 97,82 15,11 41,36 57,55 173,206 235,286 251,327 8,18 18,33 23,33 5,0 6,5 3,10 -3,6 6,49 21,98 19,61 28,118 32,190 2,56 9,105 14,108 5,3 80,8 166,10 86,2 245,8 352,14 107,5 258,12 335,15 77,4 149,8 160,10 11,2 74,7 140,10 66,3 158,12 205,19 47,8 154,14 238,15 138,1 152,-1 152,-17 0,-9 -5,-90 -11,-180 -13,-207 2,-328 61,-462 75,-174 157,-263 375,-405 33,-21 62,-41 65,-44 33,-38 244,-146 310,-159 397,-81 479,-93 585,-88 121,6 247,22 329,41 68,16 326,94 396,120 25,9 61,21 80,27 46,14 153,68 210,107 43,29 45,29 52,11 4,-11 36,-38 70,-61 35,-22 62,-45 61,-50 -2,-5 -39,-84 -83,-175 -80,-166 -87,-184 -72,-184 16,0 52,32 52,46 0,19 142,294 153,294 4,0 30,-11 57,-24 73,-35 147,-53 168,-39 21,13 28,42 10,47 -53,14 -128,43 -164,63 l -42,24 19,56 c 24,66 15,86 -26,59 -18,-12 -24,-23 -20,-39 3,-12 1,-28 -4,-36 -8,-12 -19,-9 -63,19 -29,18 -64,32 -78,32 -29,-2 -27,-1 64,67 65,49 69,51 92,37 32,-22 205,-194 236,-236 44,-60 227,-236 272,-262 21,-12 116,-109 116,-118 0,-5 35,-39 78,-76 42,-37 78,-71 80,-75 2,-4 -36,-48 -85,-97 -243,-244 -588,-507 -838,-637 -33,-17 -71,-38 -85,-47 -14,-8 -61,-35 -105,-58 -44,-23 -84,-46 -90,-50 -23,-18 -87,-50 -99,-50 -7,0 -19,-6 -25,-14 -7,-8 -26,-18 -43,-21 -16,-4 -53,-17 -82,-30 -56,-25 -257,-109 -376,-157 -41,-17 -109,-45 -150,-63 -41,-18 -91,-37 -110,-43 -72,-23 -412,-84 -599,-107 -82,-10 -288,-46 -341,-60 -30,-8 -75,-17 -100,-20 -25,-4 -65,-11 -90,-16 -51,-11 -225,-43 -315,-58 -82,-13 -237,-32 -310,-37 -33,-2 -96,-9 -140,-16 -44,-6 -118,-12 -165,-12 -88,-1 -308,11 -319,18 -3,2 -37,7 -76,11 -38,4 -76,10 -85,15 -8,4 -44,10 -80,14 -71,8 -94,11 -156,24 -23,5 -75,10 -115,11 -40,1 -76,4 -79,6 -3,2 -60,13 -126,24 -65,11 -132,22 -149,25 -46,8 -142,33 -152,39 -11,7 -81,19 -293,52 -176,27 -314,56 -398,84 -31,11 -125,38 -209,61 -174,47 -166,45 -258,66 -38,8 -79,19 -90,24 -11,4 -90,31 -175,58 -85,28 -177,60 -203,71 -27,12 -56,21 -64,21 -9,0 -41,11 -72,24 -31,14 -109,45 -174,70 -111,44 -286,128 -407,197 -63,36 -193,128 -198,141 -2,4 -9,8 -15,8 -7,1 -34,21 -62,46 -27,26 -66,57 -85,70 -61,41 -703,683 -765,765 -11,15 -64,85 -118,155 -54,70 -95,134 -92,141 2,8 1,12 -4,9 -9,-6 -78,93 -126,179 -15,28 -35,61 -45,75 -10,14 -32,57 -50,95 -17,39 -53,113 -79,165 -27,53 -67,158 -90,240 -24,80 -49,165 -56,190 -7,25 -21,81 -29,125 -9,44 -23,103 -30,130 -8,28 -24,91 -36,140 -12,50 -34,128 -47,175 -29,96 -71,294 -108,510 -26,144 -30,228 -21,410 3,52 6,244 6,425 1,182 6,364 12,405 5,41 11,89 14,105 2,17 8,48 13,70 12,46 39,194 46,245 7,58 48,200 89,305 20,54 99,306 101,325 1,8 8,29 14,45 7,17 20,50 28,75 8,25 37,93 63,151 27,58 65,148 85,200 20,52 45,114 55,139 9,25 20,58 24,73 9,38 102,234 332,702 111,227 234,412 402,609 166,194 612,650 762,780 253,218 536,387 990,591 107,48 227,102 265,121 99,46 281,115 370,140 28,7 113,30 190,49 133,34 186,49 282,82 38,13 159,47 308,88 196,52 453,88 635,88 156,0 247,-15 472,-78 38,-11 49,-11 57,-1 17,20 -5,33 -97,60 -140,42 -247,58 -402,58 -127,0 -187,-4 -350,-28 -148,-20 -273,-51 -495,-119 -147,-45 -215,-63 -465,-124 -221,-53 -285,-76 -499,-177 -62,-30 -116,-54 -119,-54 -3,0 -47,-20 -99,-45 -51,-25 -95,-45 -98,-45 -8,0 -269,-129 -345,-170 -262,-144 -355,-201 -480,-298 -128,-99 -266,-221 -350,-309 -41,-43 -172,-179 -291,-303 -120,-124 -234,-246 -253,-272 -20,-26 -42,-51 -50,-55 -17,-10 -141,-176 -237,-318 -70,-103 -120,-197 -224,-420 -24,-49 -80,-166 -125,-260 -98,-202 -165,-357 -175,-405 -4,-19 -16,-53 -26,-75 -9,-22 -27,-65 -39,-95 -12,-30 -41,-100 -65,-155 -59,-135 -88,-215 -115,-310 -27,-95 -107,-342 -120,-370 -21,-45 -53,-179 -70,-299 -6,-37 -12,-72 -15,-76 -7,-11 -34,-169 -40,-233 -3,-29 -8,-61 -10,-72 -4,-17 -5,-119 -4,-240 0,-11 0,-96 1,-190 0,-93 0,-177 1,-185 0,-8 -4,-73 -8,-145 -12,-202 -10,-304 9,-385 3,-14 9,-45 12,-70 3,-25 9,-58 14,-75 5,-16 16,-75 25,-130 8,-55 22,-126 29,-157 10,-39 11,-60 4,-64 -7,-4 -4,-10 6,-16 9,-5 14,-14 10,-19 -3,-5 -1,-15 4,-22 9,-11 53,-156 66,-217 3,-14 13,-52 22,-85 9,-33 24,-98 33,-145 22,-105 96,-376 123,-450 17,-47 36,-86 109,-230 4,-8 31,-62 60,-120 29,-58 67,-126 86,-152 18,-26 33,-50 33,-54 0,-3 30,-48 68,-101 37,-53 80,-114 95,-136 16,-22 34,-46 40,-52 7,-7 21,-25 32,-41 59,-83 170,-200 466,-494 328,-324 388,-380 464,-436 22,-16 44,-35 48,-41 4,-7 15,-13 22,-13 8,0 15,-4 15,-9 0,-10 151,-111 166,-111 5,0 21,-11 36,-25 15,-14 33,-25 40,-25 8,0 23,-6 33,-14 38,-26 220,-114 285,-137 36,-12 79,-32 95,-43 17,-12 40,-22 52,-23 12,-1 42,-9 68,-17 25,-9 49,-16 54,-16 5,0 26,-7 47,-17 56,-24 217,-80 305,-107 41,-12 81,-26 89,-31 7,-4 27,-10 44,-12 17,-2 51,-10 76,-17 25,-8 72,-20 105,-26 33,-7 64,-15 70,-18 5,-3 18,-7 30,-8 24,-3 252,-71 265,-79 22,-14 439,-91 593,-110 21,-2 42,-7 47,-10 6,-3 18,-8 27,-10 10,-2 50,-11 88,-20 39,-9 81,-19 95,-21 14,-3 50,-9 80,-15 63,-12 86,-16 195,-29 167,-21 301,-39 328,-44 15,-3 39,-9 55,-12 15,-3 47,-7 72,-10 25,-3 61,-8 80,-13 19,-5 76,-10 127,-10 51,-1 103,-4 115,-7 39,-9 137,-4 263,12 66,8 154,17 195,19 41,2 82,6 90,9 8,3 60,12 115,20 131,20 176,26 200,31 11,2 47,9 80,15 33,6 71,15 85,20 14,5 52,12 84,15 33,4 78,12 100,20 38,13 157,33 236,41 19,1 64,9 100,18 69,15 192,33 276,41 28,2 57,7 65,9 8,3 28,8 44,11 17,3 67,12 112,20 72,13 187,52 308,104 22,10 67,28 100,41 59,22 173,72 207,91 10,5 22,9 27,9 5,0 47,17 93,39 45,21 94,42 108,46 38,12 168,81 480,257 204,115 365,229 590,420 196,167 234,201 293,268 31,36 74,83 95,106 88,97 277,330 322,397 14,20 28,37 33,37 4,0 7,4 7,10 0,5 21,38 48,74 26,36 70,101 97,146 28,45 68,109 89,143 59,93 124,228 155,320 16,45 28,84 29,87 0,3 6,19 12,35 6,17 26,71 44,120 41,110 52,154 66,270 6,50 31,160 55,245 24,85 48,184 54,220 6,36 13,81 16,100 4,19 8,101 10,182 2,81 6,152 9,157 4,5 2,21 -4,35 -5,15 -6,28 0,31 20,12 33,267 34,660 1,218 -6,277 -44,385 -9,25 -14,59 -30,200 -5,41 -13,113 -19,160 -15,126 -34,338 -45,505 -8,132 -27,288 -36,306 -6,10 -10,33 -10,53 0,19 -5,47 -11,63 -6,15 -12,39 -14,53 -4,38 -48,175 -57,178 -4,2 -8,8 -8,14 0,5 -22,55 -49,111 -27,56 -52,113 -55,127 -8,30 -13,40 -60,147 -20,45 -36,89 -36,96 0,8 -8,25 -18,38 -10,13 -23,42 -31,64 -29,90 -206,420 -248,463 -7,7 -13,17 -13,21 0,4 -20,30 -45,57 -24,27 -45,52 -45,55 0,3 -29,43 -65,90 -36,46 -85,109 -108,139 -39,52 -60,76 -211,241 -34,37 -85,98 -114,136 -83,110 -500,524 -640,637 -66,53 -96,74 -222,161 -36,24 -76,52 -90,62 -74,51 -167,107 -264,159 -60,33 -121,66 -135,74 -37,22 -123,73 -142,85 -9,6 -36,21 -60,34 -24,13 -63,37 -86,52 -23,16 -45,29 -49,29 -4,0 -50,26 -103,58 -53,33 -112,65 -131,72 -19,7 -39,17 -45,21 -5,4 -28,17 -50,29 -212,117 -380,189 -630,270 -71,23 -166,54 -210,70 -44,15 -93,31 -110,34 -16,4 -59,18 -95,31 -36,14 -85,29 -110,34 -25,5 -81,17 -125,26 -48,10 -165,21 -295,26 -118,5 -240,11 -270,13 -30,3 -73,0 -95,-5 z M 8264,9980 c 35,-12 78,-32 97,-45 18,-14 42,-25 52,-25 24,0 133,-60 204,-111 57,-43 78,-61 173,-152 36,-34 88,-83 115,-108 63,-58 76,-74 116,-146 18,-32 42,-71 54,-88 36,-48 51,-85 65,-161 20,-110 10,-185 -37,-284 -22,-47 -53,-116 -68,-155 -33,-82 -90,-184 -113,-202 -83,-65 -221,-145 -297,-173 -246,-90 -338,-116 -545,-156 -14,-3 -78,-8 -142,-11 -259,-13 -426,49 -602,222 -94,92 -139,172 -177,315 -31,115 -34,136 -34,265 0,111 3,127 34,210 54,146 120,265 217,390 157,203 379,358 544,380 30,4 60,11 65,15 6,4 26,10 45,13 19,4 55,10 80,15 69,14 86,14 154,-8 z M 3643,5983 c 55,-31 67,-45 67,-79 0,-28 -7,-38 -37,-58 -21,-14 -51,-26 -68,-28 l -30,-3 -2,93 c -2,87 -1,92 18,92 12,0 35,-8 52,-17 z m 462,-69 c 25,-10 -1,-24 -44,-24 -33,0 -34,1 -15,15 21,16 34,18 59,9 z m -550,-409 c 22,-10 59,-33 82,-52 43,-34 43,-34 72,-17 27,16 32,16 53,2 23,-15 85,-16 160,-3 20,4 52,2 70,-4 18,-6 49,-13 68,-16 18,-3 70,-22 115,-41 44,-20 96,-42 115,-51 19,-8 44,-20 55,-26 11,-6 43,-22 70,-35 28,-13 68,-39 90,-57 22,-18 60,-42 84,-55 68,-34 146,-114 217,-223 99,-152 137,-242 208,-497 46,-163 46,-166 46,-320 0,-128 -4,-168 -21,-230 -36,-126 -69,-204 -107,-252 -148,-185 -201,-244 -288,-319 -148,-128 -219,-177 -324,-226 -52,-24 -104,-48 -115,-53 -46,-22 -284,-102 -330,-111 -143,-30 -210,-40 -310,-46 -60,-3 -118,-10 -127,-14 -9,-5 -19,-5 -22,-1 -3,5 -67,14 -143,21 -76,7 -149,15 -163,18 -14,3 -38,5 -53,4 -15,-2 -33,1 -40,7 -7,5 -57,24 -112,42 -55,18 -141,52 -191,76 -353,167 -643,572 -670,934 -10,139 -9,245 4,320 6,41 14,91 17,110 16,109 89,319 160,464 68,137 84,159 179,241 32,28 70,61 85,75 124,113 519,297 731,340 107,22 276,20 335,-5 z"
       id="path4"
       inkscape:connector-curvature="0" />
    <path
       d="m 8065,9263 c -87,-21 -304,-177 -323,-232 -7,-19 -20,-31 -39,-35 -15,-4 -50,-21 -77,-38 -66,-43 -82,-33 -79,51 1,33 -2,61 -6,61 -4,0 -18,-10 -30,-21 -16,-16 -22,-30 -19,-50 4,-25 1,-29 -19,-29 -28,0 -63,-17 -63,-30 0,-5 18,-19 40,-30 46,-23 48,-30 20,-55 -27,-24 -25,-37 3,-30 21,6 25,1 36,-37 16,-53 37,-78 67,-78 30,0 40,17 22,38 -14,16 -38,87 -38,110 0,6 34,-3 76,-19 75,-29 114,-30 114,-5 0,19 -22,35 -77,56 -26,10 -49,22 -51,28 -3,10 88,59 118,63 8,1 26,0 40,-4 14,-3 67,-11 118,-18 83,-11 98,-16 127,-44 54,-50 29,-97 -67,-121 -40,-11 -54,-11 -66,-2 -11,10 -18,8 -33,-11 -27,-33 -14,-44 42,-38 90,11 181,75 203,143 10,31 -31,85 -77,100 -20,7 -74,18 -119,24 -89,12 -121,25 -115,43 7,22 119,106 181,136 72,35 112,45 121,31 4,-6 7,-59 7,-118 0,-115 18,-272 29,-272 20,0 39,35 39,71 0,39 42,129 60,129 17,0 29,-30 43,-108 8,-45 17,-85 21,-89 3,-3 18,0 33,7 16,8 45,13 65,11 26,-2 50,5 75,20 24,15 38,19 41,11 8,-26 45,-62 63,-62 22,0 68,27 85,49 10,12 18,13 47,4 33,-10 86,-7 97,6 3,3 14,11 25,17 10,6 33,28 50,48 25,31 30,47 29,87 -1,75 -36,126 -118,171 -41,22 -48,22 -80,-3 l -28,-22 61,-29 c 47,-22 66,-39 85,-71 37,-65 40,-97 13,-131 -42,-52 -127,-28 -127,34 0,37 -29,48 -51,21 -9,-11 -14,-30 -12,-44 3,-14 -2,-39 -11,-56 -14,-27 -19,-30 -37,-21 -53,29 -43,136 21,220 45,59 45,61 8,55 -146,-23 -211,-50 -238,-100 -6,-11 -21,-35 -35,-53 l -24,-34 -6,29 c -9,42 -30,76 -53,84 -16,6 -31,-2 -65,-32 l -45,-39 -6,27 c -3,16 -5,35 -4,43 5,59 -3,130 -16,130 -9,0 -12,8 -8,25 2,14 0,25 -6,25 -6,0 -16,2 -24,4 -7,2 -22,1 -33,-1 z m 525,-138 c 0,-14 -68,-126 -73,-118 -3,4 -14,25 -26,45 l -20,38 22,12 c 12,6 36,15 52,19 40,9 45,10 45,4 z m -140,-101 c 0,-9 7,-28 16,-44 25,-41 12,-80 -26,-80 -60,0 -78,82 -27,122 28,22 37,22 37,2 z"
       id="*Show"
       inkscape:connector-curvature="0" />
    <g
       id="*time.Ticker">
      <path
         inkscape:connector-curvature="0"
         id="path8"
         d="m 3660,4590 c -149,-12 -190,-21 -218,-45 -15,-13 -24,-26 -20,-30 15,-16 104,-16 133,-1 40,21 70,20 72,-1 0,-10 8,-45 17,-78 8,-33 31,-132 50,-219 36,-166 52,-200 81,-176 10,8 15,23 12,34 -10,46 -70,344 -78,395 -6,29 -7,56 -4,60 4,3 65,7 136,9 114,3 129,6 129,21 0,34 -21,41 -125,40 -55,-1 -138,-5 -185,-9 z" />
      <path
         inkscape:connector-curvature="0"
         id="path10"
         d="m 2533,4502 c -54,-28 -93,-59 -93,-74 0,-13 42,-9 74,7 15,8 31,15 35,15 3,0 4,-33 1,-74 -5,-73 -5,-74 -49,-107 -54,-42 -70,-64 -55,-79 9,-9 21,-3 48,21 20,17 38,30 40,28 2,-2 7,-40 10,-84 14,-186 33,-209 113,-140 23,19 43,35 46,35 3,0 11,-16 17,-35 14,-42 37,-45 74,-12 29,25 47,87 26,87 -8,0 -21,-7 -31,-16 -16,-14 -18,-12 -24,26 -4,23 -4,86 0,140 l 7,99 -27,7 c -28,7 -98,1 -129,-12 -16,-6 -18,-4 -13,17 3,13 9,59 12,102 8,90 4,93 -82,49 z m 170,-221 c 4,-1 6,-20 3,-43 -3,-24 -5,-68 -5,-98 -1,-51 -3,-57 -32,-74 -20,-12 -34,-15 -41,-8 -15,15 -28,82 -28,154 0,73 5,78 65,72 17,-1 34,-3 38,-3 z" />
      <path
         inkscape:connector-curvature="0"
         id="path12"
         d="m 3810,4465 c -18,-22 -2,-35 49,-42 32,-4 42,-2 47,11 14,37 -70,63 -96,31 z" />
      <path
         inkscape:connector-curvature="0"
         id="path14"
         d="m 4197,4474 c -4,-4 -10,-29 -13,-56 -5,-34 -10,-46 -18,-39 -36,30 -115,-3 -193,-80 l -51,-51 4,61 c 5,56 4,61 -15,61 -38,0 -51,-38 -51,-146 -1,-54 1,-108 3,-119 2,-11 0,-23 -5,-26 -12,-7 1,-39 16,-39 6,0 22,7 34,16 16,11 21,21 16,36 -5,18 -3,20 12,13 33,-14 128,-21 159,-11 17,5 46,20 66,33 21,14 43,21 53,17 19,-7 49,14 40,28 -4,6 5,8 23,4 17,-4 53,-9 81,-11 29,-2 61,-9 73,-15 26,-15 184,-7 222,11 31,14 15,25 174,-129 59,-57 66,-58 128,-23 36,20 51,60 15,41 -11,-6 -27,-10 -34,-8 -8,2 -64,52 -126,112 -117,113 -123,125 -55,126 69,1 185,80 185,127 0,51 -89,60 -177,16 -74,-37 -172,-133 -172,-171 -1,-74 -7,-82 -61,-72 -83,15 -122,68 -70,95 16,8 34,15 40,15 17,0 122,50 143,68 44,38 -1,87 -66,72 -48,-10 -98,-44 -164,-110 -44,-43 -52,-56 -47,-77 6,-21 4,-24 -12,-20 -11,3 -38,11 -61,18 -64,18 -58,43 22,102 36,26 69,47 74,47 5,0 14,7 21,15 10,12 9,16 -3,21 -10,3 -41,-12 -81,-41 -36,-25 -71,-43 -77,-40 -6,5 -9,31 -7,69 3,55 1,61 -17,64 -12,2 -24,0 -28,-4 z m 680,-81 c 11,-29 -46,-69 -121,-83 -37,-7 -70,-10 -73,-6 -4,3 7,20 23,37 54,58 157,89 171,52 z m -283,-12 c 7,-10 -102,-57 -111,-47 -9,8 5,21 42,40 34,18 61,20 69,7 z m -414,-59 c 0,-32 -5,-41 -25,-50 -32,-15 -36,-62 -6,-62 47,0 30,-40 -26,-61 -41,-15 -120,-2 -138,24 -8,12 -15,30 -15,40 0,61 85,133 144,121 24,-4 38,-1 47,10 19,21 19,21 19,-22 z" />
      <path
         inkscape:connector-curvature="0"
         id="path16"
         d="m 2707,4422 c -10,-10 -17,-24 -17,-30 0,-19 65,-18 89,1 11,9 9,14 -9,29 -28,23 -43,23 -63,0 z" />
      <path
         inkscape:connector-curvature="0"
         id="path18"
         d="m 3334,4330 c -42,-9 -91,-43 -135,-93 l -36,-41 -7,35 c -3,19 -17,47 -30,63 -22,28 -25,29 -54,17 -26,-11 -34,-11 -53,2 -24,17 -41,14 -85,-20 -32,-24 -44,-22 -44,9 0,26 -27,34 -49,14 -15,-14 -16,-24 -9,-64 5,-26 11,-82 15,-124 6,-85 18,-106 49,-84 16,12 19,27 19,95 0,69 3,83 22,102 19,19 24,21 39,9 14,-12 15,-28 9,-112 -7,-108 0,-121 43,-75 17,18 22,36 22,78 0,58 8,99 19,99 9,0 25,-48 41,-118 11,-47 15,-52 39,-51 14,0 48,-7 74,-17 48,-17 49,-17 110,8 81,34 88,53 16,46 -66,-7 -119,9 -130,39 -7,20 -2,23 57,43 36,11 71,25 77,31 7,5 24,18 40,30 33,25 35,52 5,73 -12,9 -25,16 -28,15 -3,-1 -19,-4 -36,-9 z m 4,-71 c -7,-4 -31,-10 -53,-14 l -40,-6 39,25 c 31,19 43,23 54,14 11,-9 11,-13 0,-19 z" />
      <path
         inkscape:connector-curvature="0"
         id="path20"
         d="m 2336,4288 c -8,-13 -18,-36 -22,-53 -3,-16 -13,-40 -21,-53 l -14,-23 -39,35 c -60,54 -73,59 -99,35 -25,-23 -21,-34 27,-74 37,-31 33,-38 -29,-49 -42,-7 -79,-36 -79,-61 0,-13 6,-16 23,-12 12,4 51,13 85,21 73,17 70,24 31,-77 -12,-31 -19,-60 -16,-64 12,-12 49,32 73,86 26,59 22,59 87,-1 34,-33 48,-35 70,-10 24,26 21,33 -23,66 -42,32 -43,46 -3,46 34,0 84,31 80,50 -2,12 -16,14 -70,12 -37,-1 -67,2 -67,7 0,8 29,36 38,36 3,0 7,24 9,53 3,41 1,52 -11,52 -9,0 -22,-10 -30,-22 z" />
      <path
         inkscape:connector-curvature="0"
         id="path22"
         d="m 3489,4081 c -33,-27 -14,-47 21,-21 18,14 22,22 14,30 -8,8 -17,5 -35,-9 z" />
    </g>
    <g
       id="interval">
      <path
         inkscape:connector-curvature="0"
         id="path24"
         d="m 4192,9828 c -7,-7 -12,-22 -12,-33 0,-12 -8,-44 -17,-71 l -17,-49 -11,53 c -6,34 -17,57 -28,64 -26,14 -74,3 -113,-27 -18,-14 -42,-25 -54,-25 -33,0 -54,-15 -85,-59 -15,-23 -31,-41 -34,-41 -4,0 -16,22 -27,48 -21,48 -22,49 -82,61 -45,9 -67,9 -82,1 -11,-6 -20,-8 -20,-5 0,3 -9,1 -19,-4 -14,-8 -22,-7 -31,4 -28,34 -124,6 -193,-55 l -37,-32 v 46 45 l 50,7 c 29,4 49,11 47,17 -2,6 -30,19 -62,29 -51,15 -61,15 -79,2 -11,-7 -28,-14 -37,-14 -38,0 -149,-41 -149,-55 0,-18 -2,-18 89,-1 l 74,14 -6,-94 c -8,-116 1,-147 40,-138 54,11 56,13 43,29 -18,22 -8,27 26,15 17,-7 52,-9 85,-5 37,4 59,3 63,-4 12,-19 54,-13 61,9 5,15 12,19 29,14 35,-8 88,-9 122,-1 26,7 32,4 44,-18 10,-19 19,-24 34,-19 27,8 76,54 76,70 0,7 4,15 8,18 5,3 6,-8 4,-25 -2,-16 2,-36 9,-45 20,-24 117,-12 169,21 22,14 41,25 43,25 1,0 3,-12 2,-27 v -28 l 95,-1 c 89,-1 237,11 269,22 25,8 -3,24 -45,26 -21,0 -85,-3 -141,-7 l -103,-8 v 26 c 0,14 16,65 35,113 19,47 35,92 35,99 0,24 -48,33 -68,13 z m -131,-80 c 0,-7 3,-26 5,-42 5,-26 3,-28 -18,-22 -13,3 -36,6 -53,6 l -30,1 39,34 c 42,37 56,43 57,23 z m -563,-40 c -4,-12 -58,-31 -66,-23 -4,4 48,34 61,35 5,0 7,-5 5,-12 z m 182,-7 c 0,-11 -25,-21 -56,-21 -25,0 -33,15 -11,23 21,9 67,7 67,-2 z m 250,-26 c 0,-8 -4,-15 -10,-15 -5,0 -7,7 -4,15 4,8 8,15 10,15 2,0 4,-7 4,-15 z m -416,-32 c -11,-49 -26,-57 -74,-42 -23,8 -42,18 -42,24 0,5 22,17 49,26 70,24 74,23 67,-8 z m 217,0 c 14,-38 1,-43 -56,-23 l -50,17 35,16 c 50,22 59,21 71,-10 z m 298,-4 c 53,-19 40,-40 -33,-51 -26,-4 -44,26 -27,46 16,19 19,19 60,5 z" />
      <path
         inkscape:connector-curvature="0"
         id="path26"
         d="m 2947,9735 c -17,-16 -32,-141 -24,-191 8,-52 28,-75 62,-72 30,3 32,7 22,53 -2,11 -2,14 0,8 6,-16 55,-17 71,-1 7,7 12,20 12,30 0,24 28,78 40,78 5,0 12,-10 15,-22 27,-91 55,-101 69,-24 16,83 -25,125 -94,96 -16,-7 -31,-18 -34,-26 -9,-24 -23,-16 -30,17 -5,27 -9,30 -31,25 -22,-6 -25,-3 -25,19 0,29 -29,35 -53,10 z" />
    </g>
    <path
       d="m 3360,9469 c -55,-9 -191,-49 -200,-59 -3,-3 -23,-14 -45,-25 -112,-56 -352,-247 -401,-319 -51,-75 -97,-180 -123,-281 -27,-106 -19,-299 15,-364 8,-14 14,-30 14,-36 0,-18 57,-97 107,-148 113,-117 243,-182 383,-192 148,-10 510,56 630,116 57,28 202,155 248,216 23,32 50,82 59,113 9,30 19,62 24,70 14,28 28,127 26,189 -1,33 1,61 5,61 4,0 1,12 -7,28 -7,15 -21,47 -30,72 -41,112 -108,227 -167,288 -64,66 -81,74 -98,43 -8,-17 0,-29 55,-82 49,-47 76,-84 113,-158 89,-174 101,-285 52,-451 -41,-137 -77,-191 -189,-281 -60,-48 -90,-64 -170,-90 -173,-56 -364,-84 -511,-74 -117,7 -179,26 -250,79 -139,102 -208,188 -246,304 -24,76 -26,93 -21,195 3,85 11,130 31,187 54,156 90,210 210,309 108,90 166,129 256,173 122,59 180,73 310,73 134,0 202,-17 328,-78 73,-35 85,-39 98,-26 13,13 11,18 -13,41 -45,42 -96,66 -200,93 -102,26 -189,30 -293,14 z"
       id="path28"
       inkscape:connector-curvature="0" />
    <g
       id="leq">
      <path
         inkscape:connector-curvature="0"
         id="path30"
         d="m 3532,8969 c -24,-4 -67,-22 -96,-38 -41,-24 -55,-38 -63,-66 -10,-32 -9,-39 12,-63 20,-24 30,-27 82,-27 32,0 70,4 86,9 l 27,8 v -115 c 0,-196 12,-235 59,-188 16,16 18,25 9,72 -13,70 -4,250 16,313 23,70 21,82 -15,95 -36,12 -55,12 -117,0 z m 52,-45 c 20,-8 21,-53 3,-79 -11,-14 -27,-18 -71,-18 -71,0 -97,19 -77,57 17,30 106,55 145,40 z" />
      <path
         inkscape:connector-curvature="0"
         id="path32"
         d="m 3049,8893 c -1,-5 0,-48 1,-96 2,-81 -8,-184 -29,-294 -6,-31 -5,-46 5,-54 20,-16 54,7 56,39 1,15 2,34 4,42 1,8 2,19 3,23 1,4 17,-8 36,-27 20,-21 49,-38 70,-42 43,-8 112,2 145,21 14,8 32,17 40,21 25,12 70,57 70,71 0,18 -15,16 -31,-4 -24,-28 -91,-53 -146,-53 -41,0 -58,5 -82,26 -17,14 -31,29 -31,33 0,5 26,9 58,9 44,2 74,10 132,39 67,34 75,41 78,70 4,43 -26,63 -96,63 -65,0 -118,-25 -178,-86 -25,-24 -46,-44 -47,-44 -2,0 -1,38 1,83 5,103 -10,167 -38,167 -11,0 -21,-3 -21,-7 z m 299,-159 c 32,-22 27,-42 -15,-54 -59,-17 -153,-25 -153,-12 0,22 93,78 135,81 6,1 21,-6 33,-15 z" />
    </g>
    <path
       d="m 8573,6383 c -29,-31 -53,-60 -53,-65 0,-15 -27,-8 -46,13 -10,12 -41,39 -67,62 -44,37 -50,39 -73,27 -13,-7 -24,-19 -24,-25 0,-6 34,-45 76,-86 l 76,-73 -5,-61 c -4,-33 -9,-85 -13,-117 -7,-61 0,-108 17,-108 5,0 21,12 35,27 17,18 22,32 18,47 -8,25 -8,22 0,111 11,116 13,124 30,147 9,13 24,34 33,48 9,14 35,44 57,68 38,40 39,42 16,42 -17,0 -41,-18 -77,-57 z"
       id="y"
       inkscape:connector-curvature="0" />
    <path
       d="m 4718,6064 c -39,-21 -36,-44 5,-44 17,0 39,5 47,10 13,8 12,12 -5,29 -18,18 -22,18 -47,5 z"
       id="path36"
       inkscape:connector-curvature="0" />
    <path
       d="m 4344,6046 c -24,-19 -11,-24 71,-30 l 60,-4 -5,-38 c -7,-54 -5,-174 3,-207 9,-33 45,-37 71,-8 14,15 15,23 5,47 -11,30 -13,154 -3,187 5,15 13,18 47,15 23,-3 50,-8 60,-12 22,-10 23,11 1,42 -14,21 -22,22 -153,22 -103,0 -142,-4 -157,-14 z"
       id="path38"
       inkscape:connector-curvature="0" />
    <path
       d="m 4688,5964 c -28,-14 -30,-23 -43,-146 l -5,-48 h 38 c 21,0 43,-5 49,-11 14,-14 67,-5 113,20 l 35,18 v -31 c 0,-26 4,-31 27,-34 20,-2 33,6 59,37 18,23 38,41 46,41 7,0 31,-12 53,-26 40,-27 50,-50 29,-71 -8,-8 -8,-13 0,-18 17,-10 71,50 71,78 0,20 -12,33 -57,61 -62,39 -96,44 -131,21 -15,-12 -20,-12 -17,-3 2,7 7,24 10,38 2,14 8,37 11,53 6,25 4,27 -23,27 -35,0 -53,-16 -53,-46 0,-36 -13,-35 -55,3 l -39,36 -37,-20 c -21,-11 -35,-15 -33,-9 2,6 -1,19 -8,28 -12,15 -16,15 -40,2 z m 140,-107 c 4,-33 -13,-57 -40,-57 -18,0 -19,4 -13,37 9,48 13,55 33,51 10,-2 18,-15 20,-31 z"
       id="path40"
       inkscape:connector-curvature="0" />
    <path
       d="m 6310,4810 c -77,-36 -166,-103 -204,-154 -48,-65 -46,-94 10,-122 35,-18 55,-20 127,-17 65,3 93,1 116,-12 17,-8 31,-20 31,-25 0,-13 -26,-36 -88,-77 -64,-42 -75,-54 -62,-67 12,-12 142,74 171,114 21,27 24,29 40,14 23,-21 54,-11 91,30 l 30,31 15,-22 c 18,-27 28,-28 65,-9 23,12 27,12 32,0 16,-41 66,5 66,60 0,42 27,109 41,100 5,-3 9,-32 9,-65 0,-63 5,-69 40,-41 16,13 23,31 25,71 4,54 17,82 29,62 4,-5 3,-35 -2,-66 -7,-41 -6,-60 4,-73 20,-27 33,-5 50,84 19,96 10,134 -32,134 -16,0 -34,-9 -45,-24 -13,-17 -25,-22 -44,-18 -19,3 -34,-3 -57,-24 -17,-17 -32,-24 -35,-18 -10,28 -30,45 -45,39 -25,-10 -28,-29 -12,-81 24,-81 16,-129 -18,-101 -21,16 -38,71 -38,119 0,37 -2,39 -27,36 -26,-3 -29,-8 -34,-53 -6,-57 -33,-125 -49,-125 -20,0 -30,52 -25,136 4,78 3,84 -15,84 -29,0 -40,-31 -40,-109 0,-68 -5,-81 -25,-62 -6,5 -63,11 -127,13 -94,3 -121,8 -137,22 -33,30 -4,74 88,133 82,52 94,55 162,36 59,-16 60,-16 81,4 l 21,21 -31,16 c -52,27 -102,29 -152,6 z"
       id="path42"
       inkscape:connector-curvature="0" />
    <g
       id="*math.Sum">
      <path
         inkscape:connector-curvature="0"
         id="path44"
         d="m 9090,4696 c -144,-53 -260,-124 -260,-160 0,-21 41,-50 91,-65 24,-7 60,-17 79,-23 39,-11 127,-53 150,-71 27,-22 45,-67 34,-85 -28,-46 -171,-81 -202,-50 -10,10 -15,10 -22,-2 -22,-34 22,-62 76,-49 19,5 50,13 70,18 48,12 112,56 126,86 11,25 11,25 29,-15 21,-46 38,-50 88,-19 18,11 34,19 35,17 1,-2 10,-15 19,-30 11,-18 26,-28 42,-28 25,0 33,17 16,36 -12,13 -31,97 -31,137 0,40 -17,58 -48,50 -18,-4 -21,-12 -21,-52 1,-49 -14,-101 -30,-101 -18,0 -31,64 -31,151 0,81 -2,89 -19,89 -11,0 -22,-4 -25,-9 -4,-6 -13,-83 -16,-144 0,-4 -13,7 -29,25 -36,41 -109,78 -225,115 -50,15 -91,33 -93,39 -4,13 85,65 162,95 88,34 164,19 186,-38 10,-27 31,-22 50,13 17,32 5,53 -42,76 -45,24 -81,22 -159,-6 z" />
      <path
         inkscape:connector-curvature="0"
         id="path46"
         d="m 8442,4668 c -8,-10 -7,-25 4,-57 8,-24 18,-64 21,-89 6,-44 6,-45 -18,-39 -13,4 -44,7 -67,7 h -44 l 7,75 c 6,62 5,75 -7,75 -33,0 -52,-38 -49,-100 2,-58 2,-59 -26,-66 -84,-19 -170,-68 -162,-92 3,-9 10,-8 29,1 27,14 109,37 133,37 9,0 18,-23 27,-72 27,-150 88,-211 159,-161 l 24,16 -6,-36 c -7,-45 13,-50 40,-10 26,38 79,93 91,93 16,0 39,-69 41,-123 1,-19 38,-38 58,-30 6,3 10,10 8,16 -2,7 -6,38 -9,69 -7,80 -29,128 -58,128 -27,0 -88,-35 -88,-50 0,-5 -4,-10 -9,-10 -5,0 -9,43 -9,95 -1,70 3,99 14,109 18,18 18,26 0,26 -10,0 -17,16 -21,48 -15,104 -29,147 -51,150 -11,2 -26,-3 -32,-10 z m 36,-303 c 3,-53 -1,-72 -28,-125 -11,-23 -41,-18 -61,10 -23,31 -59,127 -59,158 0,22 3,23 73,20 l 72,-3 z" />
      <path
         inkscape:connector-curvature="0"
         id="path48"
         d="m 9453,4466 -28,-24 27,-11 c 33,-12 43,-52 41,-163 -1,-57 2,-78 11,-78 26,0 46,36 46,81 0,52 36,132 62,137 23,4 40,-32 41,-88 1,-46 2,-48 24,-37 13,6 25,20 27,31 14,73 23,100 38,110 9,6 20,7 24,4 13,-14 13,-115 -1,-161 -14,-47 -11,-107 6,-107 12,0 18,14 40,92 27,100 33,161 19,203 -14,43 -39,46 -94,9 -32,-22 -43,-25 -57,-15 -28,17 -49,14 -86,-15 -35,-26 -53,-25 -53,5 0,19 -30,51 -48,51 -6,0 -24,-11 -39,-24 z" />
      <path
         inkscape:connector-curvature="0"
         id="path50"
         d="m 7366,4397 c -9,-7 -19,-32 -22,-57 -3,-25 -8,-47 -10,-49 -2,-3 -20,3 -39,12 -42,20 -86,22 -103,5 -14,-14 -16,-38 -2,-38 5,0 35,-11 66,-25 l 57,-25 -41,-31 c -24,-18 -42,-39 -42,-50 0,-24 11,-24 36,0 11,10 30,24 42,30 21,11 22,10 23,-31 2,-73 12,-103 35,-106 28,-4 51,23 35,42 -7,8 -11,35 -9,60 l 3,46 53,-26 c 60,-28 96,-26 105,6 5,21 -4,27 -95,64 -21,8 -38,19 -38,25 0,10 38,44 80,73 20,13 22,19 13,29 -13,13 -23,8 -92,-48 l -34,-28 7,62 c 7,64 0,80 -28,60 z" />
      <path
         inkscape:connector-curvature="0"
         id="path52"
         d="m 7727,4361 c -13,-9 -37,-31 -53,-50 l -29,-34 -7,43 c -9,53 -12,56 -44,41 -17,-7 -24,-17 -20,-27 3,-8 11,-45 16,-81 9,-51 8,-70 -3,-87 -18,-30 -16,-62 5,-58 23,4 31,-13 18,-37 -16,-31 6,-36 35,-7 27,27 29,41 16,97 -13,58 36,149 80,149 26,0 48,-74 30,-102 -10,-16 -10,-23 1,-35 7,-9 15,-43 18,-75 l 5,-59 23,21 c 19,18 22,31 22,102 0,64 4,87 21,114 11,19 27,34 34,34 22,0 27,-36 20,-146 -4,-57 -4,-104 -1,-104 23,0 46,25 52,55 7,37 24,48 24,16 0,-21 44,-61 66,-61 18,0 64,51 83,95 l 17,38 17,-27 c 21,-31 72,-82 105,-104 20,-13 24,-13 42,3 11,10 20,22 20,27 0,5 -25,32 -55,60 -39,36 -65,71 -88,119 -27,59 -35,69 -58,69 -14,0 -46,-16 -72,-36 -42,-33 -58,-60 -80,-134 -10,-33 -20,46 -10,81 12,47 -11,102 -45,107 -20,3 -78,-29 -93,-51 -4,-6 -14,4 -23,20 -18,37 -55,46 -89,24 z m 393,-117 c 0,-12 -9,-44 -20,-70 -20,-46 -21,-46 -40,-29 -32,29 -24,89 18,138 16,17 17,17 29,1 7,-10 13,-28 13,-40 z" />
      <path
         inkscape:connector-curvature="0"
         id="path54"
         d="m 8815,4170 c -14,-15 -16,-23 -7,-32 15,-15 42,-2 42,21 0,29 -15,33 -35,11 z" />
    </g>
    <g
       id="sum">
      <path
         inkscape:connector-curvature="0"
         id="path56"
         d="m 7394,2930 c -43,-22 -87,-49 -97,-59 -17,-16 -17,-20 -3,-34 9,-8 47,-27 86,-42 38,-15 70,-32 70,-39 0,-15 -33,-45 -78,-69 -24,-14 -36,-16 -46,-8 -10,8 -17,6 -30,-8 -17,-18 -17,-20 2,-30 12,-6 29,-8 39,-5 51,18 104,48 135,78 l 35,34 11,-30 c 9,-25 14,-28 39,-22 15,3 43,21 61,40 18,19 34,34 37,34 3,0 5,-13 5,-29 0,-38 29,-73 55,-65 18,5 20,14 20,109 1,101 0,104 -22,108 -20,4 -32,-6 -69,-59 -25,-35 -50,-64 -56,-64 -8,0 -6,41 6,124 2,15 -33,19 -50,6 -8,-7 -17,-30 -20,-51 -4,-22 -9,-39 -12,-39 -12,0 -152,55 -152,60 0,8 103,67 124,71 26,5 33,29 9,29 -11,0 -55,-18 -99,-40 z" />
      <path
         inkscape:connector-curvature="0"
         id="path58"
         d="m 7778,2889 c -14,-8 -15,-15 -8,-35 6,-14 10,-63 10,-110 0,-46 3,-84 6,-84 20,0 46,26 62,64 29,64 46,70 38,12 -5,-29 -3,-46 3,-46 23,0 57,24 76,53 28,42 45,46 45,9 0,-42 9,-62 29,-62 9,0 22,-5 28,-11 8,-8 13,0 17,28 11,67 -7,163 -30,163 -19,0 -64,-22 -64,-32 0,-4 -4,-8 -8,-8 -5,0 -8,10 -8,21 1,13 -7,25 -22,30 -18,7 -30,2 -62,-27 -36,-33 -45,-35 -41,-10 3,14 -29,56 -42,56 -6,0 -20,-5 -29,-11 z" />
    </g>
    <path
       d="m 2942,2814 c -5,-10 -16,-47 -22,-81 -7,-35 -15,-63 -17,-63 -2,0 -13,5 -24,10 -11,7 -19,7 -19,1 0,-5 6,-11 13,-14 6,-2 -13,-7 -44,-11 -64,-8 -106,-39 -79,-57 8,-5 25,-7 38,-4 12,3 42,8 66,11 l 44,6 v -35 c 0,-104 53,-143 130,-97 18,11 36,19 40,16 16,-9 52,14 52,33 0,18 3,19 26,11 14,-6 40,-10 59,-10 30,0 33,-3 39,-35 8,-40 6,-39 41,-23 15,7 29,24 33,42 10,37 20,37 111,-6 34,-16 69,-27 77,-24 27,10 9,86 -20,86 -8,0 -24,8 -37,19 -23,18 -23,18 -2,25 23,7 47,55 41,83 -6,26 -42,19 -111,-22 l -59,-35 2,37 c 3,57 1,63 -15,63 -33,0 -55,-38 -55,-95 0,-63 -8,-67 -64,-34 l -35,21 69,61 c 39,34 70,65 70,69 0,20 -39,4 -75,-30 -37,-35 -75,-62 -89,-62 -3,0 -6,17 -6,38 0,35 -14,62 -31,62 -17,0 -39,-33 -39,-59 0,-26 -3,-28 -41,-29 l -41,-2 7,58 c 4,42 2,62 -8,76 -14,19 -14,19 -25,0 z m 96,-285 c -19,-13 -52,-11 -66,3 -7,7 -12,33 -12,58 0,46 0,46 43,56 l 42,9 3,-59 c 2,-41 -1,-62 -10,-67 z"
       id="tkr"
       inkscape:connector-curvature="0" />
    <g
       id="Phase">
      <path
         inkscape:connector-curvature="0"
         id="path62"
         d="m 10868,2617 c -14,-11 -18,-39 -22,-168 -10,-253 -17,-331 -37,-391 -24,-72 -24,-88 0,-88 24,0 39,19 47,61 11,54 70,176 92,188 32,17 48,5 102,-78 40,-60 50,-82 45,-105 -4,-24 -2,-27 13,-21 9,4 35,11 57,14 48,8 87,33 120,74 l 23,31 8,-40 c 8,-47 38,-110 56,-118 10,-5 10,-7 1,-12 -18,-8 -16,-39 2,-54 13,-11 23,-10 53,4 64,30 109,66 128,101 10,19 21,35 24,35 3,-1 14,-15 25,-33 29,-46 89,-77 152,-77 67,0 153,32 153,57 0,16 1,16 -78,3 -55,-9 -68,-8 -107,9 -27,12 -52,33 -65,53 -29,48 -26,65 13,73 44,10 155,63 178,86 22,22 27,107 7,127 -30,30 -137,-1 -204,-61 -40,-34 -84,-121 -84,-162 v -27 l -29,28 c -15,16 -42,42 -60,58 -49,46 -39,73 28,78 51,3 64,22 28,39 -35,16 -67,6 -110,-35 -54,-51 -51,-84 12,-133 31,-23 56,-53 66,-77 16,-38 16,-39 -11,-67 -26,-27 -90,-56 -100,-46 -3,3 1,18 9,34 13,24 13,34 3,59 -18,40 -46,137 -46,158 0,47 -57,21 -86,-38 -25,-53 -50,-80 -68,-73 -50,19 31,154 99,165 28,4 41,20 28,33 -7,7 -23,9 -39,5 -31,-8 -144,-117 -144,-140 0,-27 -15,-18 -38,22 -11,20 -34,52 -50,71 -35,42 -76,44 -133,6 l -39,-25 -1,22 c -1,13 -1,25 -1,28 0,3 3,70 7,150 11,206 11,203 0,206 -5,2 -18,-2 -27,-9 z m 940,-309 c 13,-13 16,-57 4,-73 -4,-5 -17,-15 -28,-22 -28,-15 -142,-39 -149,-31 -4,3 3,24 14,46 32,63 128,111 159,80 z" />
      <path
         inkscape:connector-curvature="0"
         id="path64"
         d="m 10516,2585 c -13,-14 -34,-25 -47,-25 -31,-1 -112,-41 -117,-59 -4,-11 3,-12 29,-7 19,3 52,9 74,12 l 41,6 -4,-43 c -7,-94 -23,-184 -35,-191 -9,-6 -9,-8 1,-8 6,0 12,-5 12,-11 0,-6 -17,-9 -43,-8 -46,3 -67,-5 -67,-25 0,-9 19,-16 51,-20 l 52,-7 -7,-74 c -7,-81 8,-196 30,-232 14,-23 33,-22 62,1 12,8 11,12 -1,21 -21,15 -37,104 -37,209 0,88 1,94 23,101 12,4 24,8 27,10 6,2 30,11 75,28 60,23 148,92 170,134 22,42 18,61 -17,97 -34,33 -140,76 -190,76 -17,0 -27,7 -31,20 -7,27 -23,25 -51,-5 z m 123,-87 c 65,-15 121,-60 121,-97 0,-36 -53,-79 -142,-114 -86,-35 -98,-34 -98,1 0,32 19,190 25,210 5,15 29,15 94,0 z" />
    </g>
  </g>
</svg>
