<?xml version="1.0" standalone="yes"?>

<svg version="1.1" viewBox="0.0 0.0 496.0 498.0" fill="none" stroke="none" stroke-linecap="square" stroke-miterlimit="10" xmlns="http://www.w3.org/2000/svg" xmlns:xlink="http://www.w3.org/1999/xlink"><clipPath id="p.0"><path d="m0 0l496.0 0l0 498.0l-496.0 0l0 -498.0z" clip-rule="nonzero"></path></clipPath><g clip-path="url(#p.0)"><path fill="#000000" fill-opacity="0.0" d="m0 0l496.93176 0l0 498.03674l-496.93176 0z" fill-rule="nonzero"></path><path fill="#666666" d="m16.984251 245.20735l0 0c0 -126.547134 102.58672 -229.13387 229.13385 -229.13387l0 0c60.77008 0 119.05118 24.14082 162.02213 67.111755c42.970917 42.97094 67.111755 101.25203 67.111755 162.02211l0 0c0 126.547134 -102.58673 229.13387 -229.13388 229.13387l0 0c-126.54713 0 -229.13385 -102.58673 -229.13385 -229.13387z" fill-rule="nonzero"></path><path fill="#ffffff" d="m166.04724 142.52231l0 0c0 -32.319527 35.84543 -58.519684 80.06299 -58.519684l0 0c44.21759 0 80.06299 26.200157 80.06299 58.519684l0 0c0 32.319534 -35.845398 58.519684 -80.06299 58.519684l0 0c-44.21756 0 -80.06299 -26.20015 -80.06299 -58.519684z" fill-rule="nonzero"></path><path fill="#666666" d="m202.5092 149.4423l0 -14.109375l2.34375 0l0 5.5625q0.578125 -0.625 1.3125 -0.984375q0.734375 -0.375 1.71875 -0.375q0.796875 0 1.453125 0.328125q0.65625 0.328125 1.140625 0.96875q0.484375 0.625 0.734375 1.546875q0.265625 0.921875 0.265625 2.109375q0 1.09375 -0.296875 2.03125q-0.296875 0.921875 -0.84375 1.609375q-0.546875 0.6875 -1.328125 1.078125q-0.765625 0.375 -1.71875 0.375q-0.453125 0 -0.828125 -0.09375q-0.359375 -0.078125 -0.671875 -0.234375q-0.296875 -0.171875 -0.5625 -0.40625q-0.25 -0.234375 -0.5 -0.515625l-0.09375 0.65625q-0.0625 0.25 -0.203125 0.359375q-0.140625 0.09375 -0.375 0.09375l-1.546875 0zm4.5625 -8.078125q-0.734375 0 -1.25 0.3125q-0.515625 0.3125 -0.96875 0.875l0 4.359375q0.40625 0.5 0.875 0.703125q0.46875 0.1875 1.015625 0.1875q0.53125 0 0.953125 -0.203125q0.4375 -0.203125 0.734375 -0.609375q0.296875 -0.40625 0.453125 -1.03125q0.171875 -0.625 0.171875 -1.46875q0 -0.84375 -0.140625 -1.4375q-0.140625 -0.59375 -0.390625 -0.96875q-0.25 -0.375 -0.625 -0.546875q-0.359375 -0.171875 -0.828125 -0.171875zm8.540314 -1.671875l0 9.75l-2.34375 0l0 -9.75l2.34375 0zm0.359375 -2.84375q0 0.3125 -0.125 0.578125q-0.125 0.265625 -0.328125 0.46875q-0.203125 0.1875 -0.484375 0.3125q-0.28125 0.125 -0.59375 0.125q-0.296875 0 -0.578125 -0.125q-0.265625 -0.125 -0.46875 -0.3125q-0.1875 -0.203125 -0.3125 -0.46875q-0.109375 -0.265625 -0.109375 -0.578125q0 -0.3125 0.109375 -0.578125q0.125 -0.28125 0.3125 -0.46875q0.203125 -0.203125 0.46875 -0.328125q0.28125 -0.125 0.578125 -0.125q0.3125 0 0.59375 0.125q0.28125 0.125 0.484375 0.328125q0.203125 0.1875 0.328125 0.46875q0.125 0.265625 0.125 0.578125zm2.1964722 12.59375l0 -9.75l1.4375 0q0.453125 0 0.59375 0.4375l0.171875 0.765625q0.296875 -0.3125 0.625 -0.546875q0.328125 -0.25 0.6875 -0.421875q0.359375 -0.1875 0.78125 -0.28125q0.421875 -0.109375 0.90625 -0.109375q0.8125 0 1.421875 0.28125q0.625 0.265625 1.03125 0.765625q0.40625 0.484375 0.625 1.171875q0.21875 0.671875 0.21875 1.484375l0 6.203125l-2.34375 0l0 -6.203125q0 -0.890625 -0.421875 -1.375q-0.40625 -0.5 -1.234375 -0.5q-0.609375 0 -1.140625 0.28125q-0.53125 0.265625 -1.015625 0.75l0 7.046875l-2.34375 0zm18.246704 0l-1.046875 0q-0.34375 0 -0.53125 -0.09375q-0.1875 -0.109375 -0.28125 -0.40625l-0.203125 -0.703125q-0.375 0.34375 -0.734375 0.59375q-0.359375 0.25 -0.734375 0.421875q-0.375 0.171875 -0.8125 0.25q-0.421875 0.09375 -0.953125 0.09375q-0.609375 0 -1.140625 -0.171875q-0.515625 -0.171875 -0.890625 -0.5q-0.375 -0.328125 -0.59375 -0.8125q-0.203125 -0.5 -0.203125 -1.15625q0 -0.5625 0.28125 -1.09375q0.296875 -0.53125 0.96875 -0.96875q0.6875 -0.4375 1.796875 -0.71875q1.125 -0.28125 2.796875 -0.328125l0 -0.5625q0 -0.984375 -0.421875 -1.453125q-0.40625 -0.46875 -1.203125 -0.46875q-0.5625 0 -0.953125 0.140625q-0.375 0.125 -0.65625 0.296875q-0.28125 0.171875 -0.515625 0.3125q-0.234375 0.125 -0.515625 0.125q-0.25 0 -0.421875 -0.125q-0.171875 -0.125 -0.265625 -0.3125l-0.4375 -0.75q1.6875 -1.53125 4.0625 -1.53125q0.859375 0 1.515625 0.28125q0.671875 0.28125 1.140625 0.78125q0.46875 0.484375 0.703125 1.1875q0.25 0.6875 0.25 1.515625l0 6.15625zm-4.5625 -1.46875q0.359375 0 0.65625 -0.0625q0.3125 -0.0625 0.578125 -0.1875q0.28125 -0.140625 0.53125 -0.328125q0.25 -0.203125 0.515625 -0.46875l0 -1.640625q-1.03125 0.046875 -1.71875 0.171875q-0.6875 0.125 -1.109375 0.328125q-0.421875 0.203125 -0.59375 0.46875q-0.171875 0.265625 -0.171875 0.578125q0 0.609375 0.359375 0.875q0.375 0.265625 0.953125 0.265625zm6.688431 1.46875l0 -9.75l1.375 0q0.375 0 0.515625 0.140625q0.140625 0.125 0.1875 0.453125l0.140625 1.171875q0.515625 -0.890625 1.21875 -1.40625q0.703125 -0.53125 1.578125 -0.53125q0.71875 0 1.203125 0.328125l-0.3125 1.75q-0.015625 0.171875 -0.125 0.25q-0.09375 0.0625 -0.25 0.0625q-0.140625 0 -0.390625 -0.0625q-0.25 -0.0625 -0.65625 -0.0625q-0.734375 0 -1.25 0.40625q-0.515625 0.40625 -0.890625 1.171875l0 6.078125l-2.34375 0zm11.0898285 2.671875q-0.109375 0.25 -0.28125 0.375q-0.15625 0.140625 -0.5 0.140625l-1.75 0l1.828125 -3.90625l-3.953125 -9.03125l2.0625 0q0.28125 0 0.421875 0.140625q0.15625 0.125 0.234375 0.296875l2.078125 5.0625q0.109375 0.234375 0.1875 0.5q0.078125 0.265625 0.125 0.53125q0.078125 -0.265625 0.171875 -0.515625q0.09375 -0.265625 0.1875 -0.53125l1.96875 -5.046875q0.078125 -0.1875 0.25 -0.3125q0.171875 -0.125 0.390625 -0.125l1.875 0l-5.296875 12.421875zm5.9218597 -3.96875q0 -0.296875 0.109375 -0.5625q0.109375 -0.265625 0.296875 -0.453125q0.203125 -0.1875 0.46875 -0.296875q0.265625 -0.109375 0.578125 -0.109375q0.296875 0 0.5625 0.109375q0.265625 0.109375 0.453125 0.296875q0.1875 0.1875 0.296875 0.453125q0.125 0.265625 0.125 0.5625q0 0.3125 -0.125 0.578125q-0.109375 0.25 -0.296875 0.453125q-0.1875 0.1875 -0.453125 0.296875q-0.265625 0.109375 -0.5625 0.109375q-0.3125 0 -0.578125 -0.109375q-0.265625 -0.109375 -0.46875 -0.296875q-0.1875 -0.203125 -0.296875 -0.453125q-0.109375 -0.265625 -0.109375 -0.578125zm6.2289124 -12.4375q0.171875 0 0.28125 0.015625q0.125 0.015625 0.21875 0.0625q0.09375 0.03125 0.171875 0.109375q0.09375 0.078125 0.1875 0.21875l7.21875 9.1875q-0.046875 -0.328125 -0.0625 -0.640625q-0.015625 -0.328125 -0.015625 -0.609375l0 -8.34375l2.265625 0l0 13.734375l-1.328125 0q-0.296875 0 -0.5 -0.09375q-0.203125 -0.09375 -0.390625 -0.34375l-7.1875 -9.140625q0.03125 0.296875 0.046875 0.59375q0.015625 0.296875 0.015625 0.546875l0 8.4375l-2.25 0l0 -13.734375l1.328125 0l0 0zm16.807251 3.828125q1.078125 0 1.96875 0.359375q0.890625 0.34375 1.515625 1.0q0.625 0.640625 0.96875 1.578125q0.34375 0.921875 0.34375 2.078125q0 1.15625 -0.34375 2.09375q-0.34375 0.921875 -0.96875 1.578125q-0.625 0.65625 -1.515625 1.015625q-0.890625 0.34375 -1.96875 0.34375q-1.09375 0 -2.0 -0.34375q-0.890625 -0.359375 -1.53125 -1.015625q-0.625 -0.65625 -0.96875 -1.578125q-0.34375 -0.9375 -0.34375 -2.09375q0 -1.15625 0.34375 -2.078125q0.34375 -0.9375 0.96875 -1.578125q0.640625 -0.65625 1.53125 -1.0q0.90625 -0.359375 2.0 -0.359375zm0 8.25q1.203125 0 1.78125 -0.8125q0.59375 -0.828125 0.59375 -2.40625q0 -1.578125 -0.59375 -2.40625q-0.578125 -0.828125 -1.78125 -0.828125q-1.234375 0 -1.828125 0.84375q-0.59375 0.828125 -0.59375 2.390625q0 1.5625 0.59375 2.390625q0.59375 0.828125 1.828125 0.828125zm9.637329 1.8125q-1.265625 0 -1.953125 -0.71875q-0.671875 -0.71875 -0.671875 -1.984375l0 -5.4375l-0.984375 0q-0.203125 0 -0.34375 -0.125q-0.125 -0.125 -0.125 -0.375l0 -0.9375l1.5625 -0.25l0.5 -2.65625q0.03125 -0.1875 0.171875 -0.296875q0.140625 -0.109375 0.34375 -0.109375l1.21875 0l0 3.078125l2.5625 0l0 1.671875l-2.5625 0l0 5.28125q0 0.453125 0.21875 0.71875q0.234375 0.25 0.609375 0.25q0.21875 0 0.359375 -0.046875q0.15625 -0.0625 0.265625 -0.109375q0.109375 -0.0625 0.1875 -0.109375q0.09375 -0.0625 0.1875 -0.0625q0.09375 0 0.15625 0.0625q0.078125 0.046875 0.15625 0.140625l0.703125 1.140625q-0.515625 0.4375 -1.1875 0.65625q-0.65625 0.21875 -1.375 0.21875z" fill-rule="nonzero"></path><path fill="#000000" fill-opacity="0.0" d="m246.11023 201.04199l0 73.13385" fill-rule="nonzero"></path><path stroke="#ffffff" stroke-width="3.0" stroke-linejoin="round" stroke-linecap="butt" d="m246.11023 201.04199l0 73.13385" fill-rule="nonzero"></path><path fill="#000000" fill-opacity="0.0" d="m246.11023 84.002625l0 -67.93701" fill-rule="nonzero"></path><path stroke="#ffffff" stroke-width="3.0" stroke-linejoin="round" stroke-linecap="butt" d="m246.11023 84.002625l0 -67.93701" fill-rule="nonzero"></path><path fill="#000000" fill-opacity="0.0" d="m246.12599 244.93176l80.06297 0l0 36.944885l-80.06297 0z" fill-rule="nonzero"></path><path fill="#ffffff" d="m262.36063 263.3398l-4.484375 -6.625l1.828125 0q0.203125 0 0.296875 0.0625q0.09375 0.0625 0.171875 0.1875l3.546875 5.453125q0.0625 -0.203125 0.203125 -0.4375l3.359375 -4.96875q0.078125 -0.140625 0.171875 -0.21875q0.109375 -0.078125 0.25 -0.078125l1.75 0l-4.5 6.53125l4.65625 7.078125l-1.828125 0q-0.203125 0 -0.328125 -0.109375q-0.109375 -0.109375 -0.1875 -0.234375l-3.640625 -5.71875q-0.078125 0.203125 -0.171875 0.375l-3.5625 5.34375q-0.078125 0.125 -0.1875 0.234375q-0.109375 0.109375 -0.3125 0.109375l-1.703125 0l4.671875 -6.984375zm20.042847 6.984375l-1.4375 0q-0.234375 0 -0.390625 -0.125q-0.15625 -0.125 -0.234375 -0.3125l-1.265625 -3.28125l-6.109375 0l-1.28125 3.28125q-0.0625 0.171875 -0.234375 0.3125q-0.15625 0.125 -0.390625 0.125l-1.421875 0l5.4375 -13.609375l1.875 0l5.453125 13.609375zm-8.921875 -5.046875l5.078125 0l-2.140625 -5.546875q-0.203125 -0.515625 -0.40625 -1.28125q-0.109375 0.390625 -0.203125 0.71875q-0.09375 0.328125 -0.1875 0.578125l-2.140625 5.53125zm10.139374 5.046875l0 -9.625l1.0 0q0.359375 0 0.453125 0.359375l0.140625 1.03125q0.625 -0.6875 1.390625 -1.109375q0.78125 -0.4375 1.796875 -0.4375q0.796875 0 1.390625 0.265625q0.609375 0.265625 1.015625 0.75q0.40625 0.46875 0.609375 1.15625q0.203125 0.671875 0.203125 1.484375l0 6.125l-1.6875 0l0 -6.125q0 -1.09375 -0.5 -1.6875q-0.5 -0.609375 -1.515625 -0.609375q-0.75 0 -1.40625 0.359375q-0.65625 0.359375 -1.203125 0.96875l0 7.09375l-1.6875 0zm17.138489 0q-0.359375 0 -0.453125 -0.34375l-0.15625 -1.171875q-0.609375 0.75 -1.40625 1.203125q-0.796875 0.453125 -1.8125 0.453125q-0.828125 0 -1.515625 -0.3125q-0.671875 -0.328125 -1.140625 -0.9375q-0.46875 -0.625 -0.734375 -1.546875q-0.25 -0.921875 -0.25 -2.125q0 -1.0625 0.28125 -1.96875q0.28125 -0.921875 0.8125 -1.59375q0.546875 -0.6875 1.3125 -1.0625q0.765625 -0.390625 1.75 -0.390625q0.890625 0 1.515625 0.296875q0.625 0.296875 1.109375 0.84375l0 -5.34375l1.703125 0l0 14.0l-1.015625 0zm-3.265625 -1.234375q0.8125 0 1.4375 -0.375q0.625 -0.390625 1.140625 -1.078125l0 -4.65625q-0.453125 -0.625 -1.015625 -0.875q-0.546875 -0.25 -1.234375 -0.25q-1.34375 0 -2.0625 0.953125q-0.71875 0.953125 -0.71875 2.734375q0 0.9375 0.15625 1.609375q0.15625 0.671875 0.46875 1.109375q0.3125 0.421875 0.765625 0.625q0.46875 0.203125 1.0625 0.203125zm12.428864 -4.1875l0 5.421875l-1.828125 0l0 -5.421875l-4.984375 -8.1875l1.609375 0q0.25 0 0.390625 0.125q0.140625 0.125 0.25 0.296875l3.109375 5.296875q0.203125 0.328125 0.328125 0.625q0.125 0.296875 0.234375 0.578125q0.09375 -0.296875 0.21875 -0.59375q0.125 -0.296875 0.3125 -0.609375l3.109375 -5.296875q0.09375 -0.15625 0.234375 -0.28125q0.140625 -0.140625 0.390625 -0.140625l1.625 0l-5.0 8.1875z" fill-rule="nonzero"></path><path fill="#000000" fill-opacity="0.0" d="m104.51947 428.58337l0 0c30.691116 -47.380066 84.85428 -76.00223 142.9605 -75.54654c58.106216 0.45568848 111.775314 29.923523 141.65645 77.778595l-143.01831 82.34204z" fill-rule="nonzero"></path><path fill="#000000" fill-opacity="0.0" d="m104.51947 428.58337l0 0c30.691116 -47.380066 84.85428 -76.00223 142.9605 -75.54654c58.106216 0.45568848 111.775314 29.923523 141.65645 77.778595" fill-rule="nonzero"></path><path stroke="#ffffff" stroke-width="3.0" stroke-linejoin="round" stroke-linecap="butt" d="m104.51947 428.58337l0 0c30.691116 -47.380066 84.85428 -76.00223 142.9605 -75.54654c58.106216 0.45568848 111.775314 29.923523 141.65645 77.778595" fill-rule="nonzero"></path><path fill="#ffffff" d="m166.04724 332.70602l0 0c0 -32.31952 35.84543 -58.519684 80.06299 -58.519684l0 0c44.21759 0 80.06299 26.200165 80.06299 58.519684l0 0c0 32.31955 -35.845398 58.519684 -80.06299 58.519684l0 0c-44.21756 0 -80.06299 -26.200134 -80.06299 -58.519684z" fill-rule="nonzero"></path><path fill="#666666" d="m201.23125 339.62604l0 -14.109375l2.34375 0l0 5.5625q0.578125 -0.625 1.3125 -0.984375q0.734375 -0.375 1.71875 -0.375q0.796875 0 1.453125 0.328125q0.65625 0.328125 1.140625 0.96875q0.484375 0.625 0.734375 1.546875q0.265625 0.921875 0.265625 2.109375q0 1.09375 -0.296875 2.03125q-0.296875 0.921875 -0.84375 1.609375q-0.546875 0.6875 -1.328125 1.078125q-0.765625 0.375 -1.71875 0.375q-0.453125 0 -0.828125 -0.09375q-0.359375 -0.078125 -0.671875 -0.234375q-0.296875 -0.171875 -0.5625 -0.40625q-0.25 -0.234375 -0.5 -0.515625l-0.09375 0.65625q-0.0625 0.25 -0.203125 0.359375q-0.140625 0.09375 -0.375 0.09375l-1.546875 0zm4.5625 -8.078125q-0.734375 0 -1.25 0.3125q-0.515625 0.3125 -0.96875 0.875l0 4.359375q0.40625 0.5 0.875 0.703125q0.46875 0.1875 1.015625 0.1875q0.53125 0 0.953125 -0.203125q0.4375 -0.203125 0.734375 -0.609375q0.296875 -0.40625 0.453125 -1.03125q0.171875 -0.625 0.171875 -1.46875q0 -0.84375 -0.140625 -1.4375q-0.140625 -0.59375 -0.390625 -0.96875q-0.25 -0.375 -0.625 -0.546875q-0.359375 -0.171875 -0.828125 -0.171875zm8.540314 -1.671875l0 9.75l-2.34375 0l0 -9.75l2.34375 0zm0.359375 -2.84375q0 0.3125 -0.125 0.578125q-0.125 0.265625 -0.328125 0.46875q-0.203125 0.1875 -0.484375 0.3125q-0.28125 0.125 -0.59375 0.125q-0.296875 0 -0.578125 -0.125q-0.265625 -0.125 -0.46875 -0.3125q-0.1875 -0.203125 -0.3125 -0.46875q-0.109375 -0.265625 -0.109375 -0.578125q0 -0.3125 0.109375 -0.578125q0.125 -0.28125 0.3125 -0.46875q0.203125 -0.203125 0.46875 -0.328125q0.28125 -0.125 0.578125 -0.125q0.3125 0 0.59375 0.125q0.28125 0.125 0.484375 0.328125q0.203125 0.1875 0.328125 0.46875q0.125 0.265625 0.125 0.578125zm2.1964722 12.59375l0 -9.75l1.4375 0q0.453125 0 0.59375 0.4375l0.171875 0.765625q0.296875 -0.3125 0.625 -0.546875q0.328125 -0.25 0.6875 -0.421875q0.359375 -0.1875 0.78125 -0.28125q0.421875 -0.109375 0.90625 -0.109375q0.8125 0 1.421875 0.28125q0.625 0.265625 1.03125 0.765625q0.40625 0.484375 0.625 1.171875q0.21875 0.671875 0.21875 1.484375l0 6.203125l-2.34375 0l0 -6.203125q0 -0.890625 -0.421875 -1.375q-0.40625 -0.5 -1.234375 -0.5q-0.609375 0 -1.140625 0.28125q-0.53125 0.265625 -1.015625 0.75l0 7.046875l-2.34375 0zm18.246704 0l-1.046875 0q-0.34375 0 -0.53125 -0.09375q-0.1875 -0.109375 -0.28125 -0.40625l-0.203125 -0.703125q-0.375 0.34375 -0.734375 0.59375q-0.359375 0.25 -0.734375 0.421875q-0.375 0.171875 -0.8125 0.25q-0.421875 0.09375 -0.953125 0.09375q-0.609375 0 -1.140625 -0.171875q-0.515625 -0.171875 -0.890625 -0.5q-0.375 -0.328125 -0.59375 -0.8125q-0.203125 -0.5 -0.203125 -1.15625q0 -0.5625 0.28125 -1.09375q0.296875 -0.53125 0.96875 -0.96875q0.6875 -0.4375 1.796875 -0.71875q1.125 -0.28125 2.796875 -0.328125l0 -0.5625q0 -0.984375 -0.421875 -1.453125q-0.40625 -0.46875 -1.203125 -0.46875q-0.5625 0 -0.953125 0.140625q-0.375 0.125 -0.65625 0.296875q-0.28125 0.171875 -0.515625 0.3125q-0.234375 0.125 -0.515625 0.125q-0.25 0 -0.421875 -0.125q-0.171875 -0.125 -0.265625 -0.3125l-0.4375 -0.75q1.6875 -1.53125 4.0625 -1.53125q0.859375 0 1.515625 0.28125q0.671875 0.28125 1.140625 0.78125q0.46875 0.484375 0.703125 1.1875q0.25 0.6875 0.25 1.515625l0 6.15625zm-4.5625 -1.46875q0.359375 0 0.65625 -0.0625q0.3125 -0.0625 0.578125 -0.1875q0.28125 -0.140625 0.53125 -0.328125q0.25 -0.203125 0.515625 -0.46875l0 -1.640625q-1.03125 0.046875 -1.71875 0.171875q-0.6875 0.125 -1.109375 0.328125q-0.421875 0.203125 -0.59375 0.46875q-0.171875 0.265625 -0.171875 0.578125q0 0.609375 0.359375 0.875q0.375 0.265625 0.953125 0.265625zm6.688431 1.46875l0 -9.75l1.375 0q0.375 0 0.515625 0.140625q0.140625 0.125 0.1875 0.453125l0.140625 1.171875q0.515625 -0.890625 1.21875 -1.40625q0.703125 -0.53125 1.578125 -0.53125q0.71875 0 1.203125 0.328125l-0.3125 1.75q-0.015625 0.171875 -0.125 0.25q-0.09375 0.0625 -0.25 0.0625q-0.140625 0 -0.390625 -0.0625q-0.25 -0.0625 -0.65625 -0.0625q-0.734375 0 -1.25 0.40625q-0.515625 0.40625 -0.890625 1.171875l0 6.078125l-2.34375 0zm11.0898285 2.671875q-0.109375 0.25 -0.28125 0.375q-0.15625 0.140625 -0.5 0.140625l-1.75 0l1.828125 -3.90625l-3.953125 -9.03125l2.0625 0q0.28125 0 0.421875 0.140625q0.15625 0.125 0.234375 0.296875l2.078125 5.0625q0.109375 0.234375 0.1875 0.5q0.078125 0.265625 0.125 0.53125q0.078125 -0.265625 0.171875 -0.515625q0.09375 -0.265625 0.1875 -0.53125l1.96875 -5.046875q0.078125 -0.1875 0.25 -0.3125q0.171875 -0.125 0.390625 -0.125l1.875 0l-5.296875 12.421875zm5.9218597 -3.96875q0 -0.296875 0.109375 -0.5625q0.109375 -0.265625 0.296875 -0.453125q0.203125 -0.1875 0.46875 -0.296875q0.265625 -0.109375 0.578125 -0.109375q0.296875 0 0.5625 0.109375q0.265625 0.109375 0.453125 0.296875q0.1875 0.1875 0.296875 0.453125q0.125 0.265625 0.125 0.5625q0 0.3125 -0.125 0.578125q-0.109375 0.25 -0.296875 0.453125q-0.1875 0.1875 -0.453125 0.296875q-0.265625 0.109375 -0.5625 0.109375q-0.3125 0 -0.578125 -0.109375q-0.265625 -0.109375 -0.46875 -0.296875q-0.1875 -0.203125 -0.296875 -0.453125q-0.109375 -0.265625 -0.109375 -0.578125zm16.978912 1.296875l-1.984375 0q-0.328125 0 -0.546875 -0.15625q-0.21875 -0.171875 -0.3125 -0.421875l-1.015625 -2.796875l-5.703125 0l-1.015625 2.796875q-0.078125 0.21875 -0.3125 0.40625q-0.21875 0.171875 -0.53125 0.171875l-1.984375 0l5.390625 -13.734375l2.609375 0l5.40625 13.734375zm-8.90625 -5.1875l4.390625 0l-1.671875 -4.5625q-0.125 -0.3125 -0.265625 -0.71875q-0.125 -0.421875 -0.265625 -0.90625q-0.125 0.484375 -0.265625 0.90625q-0.125 0.421875 -0.25 0.734375l-1.671875 4.546875zm9.933441 5.1875l0 -9.75l1.4375 0q0.453125 0 0.59375 0.4375l0.171875 0.765625q0.296875 -0.3125 0.625 -0.546875q0.328125 -0.25 0.6875 -0.421875q0.359375 -0.1875 0.78125 -0.28125q0.421875 -0.109375 0.90625 -0.109375q0.8125 0 1.421875 0.28125q0.625 0.265625 1.03125 0.765625q0.40625 0.484375 0.625 1.171875q0.21875 0.671875 0.21875 1.484375l0 6.203125l-2.34375 0l0 -6.203125q0 -0.890625 -0.421875 -1.375q-0.40625 -0.5 -1.234375 -0.5q-0.609375 0 -1.140625 0.28125q-0.53125 0.265625 -1.015625 0.75l0 7.046875l-2.34375 0zm17.465454 0q-0.453125 0 -0.59375 -0.421875l-0.1875 -0.953125q-0.3125 0.34375 -0.640625 0.625q-0.328125 0.28125 -0.71875 0.484375q-0.375 0.1875 -0.828125 0.296875q-0.4375 0.109375 -0.953125 0.109375q-0.796875 0 -1.46875 -0.328125q-0.65625 -0.328125 -1.140625 -0.953125q-0.46875 -0.640625 -0.734375 -1.5625q-0.265625 -0.9375 -0.265625 -2.140625q0 -1.078125 0.296875 -2.015625q0.296875 -0.9375 0.84375 -1.609375q0.546875 -0.6875 1.3125 -1.0625q0.78125 -0.390625 1.734375 -0.390625q0.828125 0 1.40625 0.265625q0.578125 0.25 1.03125 0.6875l0 -5.140625l2.34375 0l0 14.109375l-1.4375 0zm-3.125 -1.71875q0.734375 0 1.25 -0.296875q0.515625 -0.3125 0.96875 -0.875l0 -4.375q-0.40625 -0.484375 -0.875 -0.671875q-0.46875 -0.203125 -1.015625 -0.203125q-0.53125 0 -0.96875 0.203125q-0.421875 0.1875 -0.71875 0.59375q-0.296875 0.40625 -0.46875 1.03125q-0.15625 0.625 -0.15625 1.46875q0 0.859375 0.140625 1.453125q0.140625 0.59375 0.390625 0.96875q0.265625 0.375 0.625 0.546875q0.375 0.15625 0.828125 0.15625z" fill-rule="nonzero"></path><path fill="#000000" fill-opacity="0.0" d="m134.12599 340.93176l52.661407 0l0 36.944885l-52.661407 0z" fill-rule="nonzero"></path><path fill="#ffffff" d="m159.27121 359.3398l-4.484375 -6.625l1.828125 0q0.203125 0 0.296875 0.0625q0.09375 0.0625 0.171875 0.1875l3.546875 5.453125q0.0625 -0.203125 0.203125 -0.4375l3.359375 -4.96875q0.078125 -0.140625 0.171875 -0.21875q0.109375 -0.078125 0.25 -0.078125l1.75 0l-4.5 6.53125l4.65625 7.078125l-1.828125 0q-0.203125 0 -0.328125 -0.109375q-0.109375 -0.109375 -0.1875 -0.234375l-3.640625 -5.71875q-0.078125 0.203125 -0.171875 0.375l-3.5625 5.34375q-0.078125 0.125 -0.1875 0.234375q-0.109375 0.109375 -0.3125 0.109375l-1.703125 0l4.671875 -6.984375z" fill-rule="nonzero"></path><path fill="#000000" fill-opacity="0.0" d="m310.12598 340.93176l52.661438 0l0 36.944885l-52.661438 0z" fill-rule="nonzero"></path><path fill="#ffffff" d="m337.47992 360.9023l0 5.421875l-1.828125 0l0 -5.421875l-4.984375 -8.1875l1.609375 0q0.25 0 0.390625 0.125q0.140625 0.125 0.25 0.296875l3.109375 5.296875q0.203125 0.328125 0.328125 0.625q0.125 0.296875 0.234375 0.578125q0.09375 -0.296875 0.21875 -0.59375q0.125 -0.296875 0.3125 -0.609375l3.109375 -5.296875q0.09375 -0.15625 0.234375 -0.28125q0.140625 -0.140625 0.390625 -0.140625l1.625 0l-5.0 8.1875z" fill-rule="nonzero"></path><path fill="#000000" fill-opacity="0.0" d="m78.125984 388.93176l52.661415 0l0 36.944885l-52.661415 0z" fill-rule="nonzero"></path><path fill="#ffffff" d="m103.27121 407.3398l-4.484375 -6.625l1.828125 0q0.203125 0 0.296875 0.0625q0.09375 0.0625 0.171875 0.1875l3.546875 5.453125q0.0625 -0.203125 0.203125 -0.4375l3.359375 -4.96875q0.078125 -0.140625 0.171875 -0.21875q0.109375 -0.078125 0.25 -0.078125l1.75 0l-4.5 6.53125l4.65625 7.078125l-1.828125 0q-0.203125 0 -0.328125 -0.109375q-0.109375 -0.109375 -0.1875 -0.234375l-3.640625 -5.71875q-0.078125 0.203125 -0.171875 0.375l-3.5625 5.34375q-0.078125 0.125 -0.1875 0.234375q-0.109375 0.109375 -0.3125 0.109375l-1.703125 0l4.671875 -6.984375z" fill-rule="nonzero"></path><path fill="#000000" fill-opacity="0.0" d="m366.12598 388.93176l52.661438 0l0 36.944885l-52.661438 0z" fill-rule="nonzero"></path><path fill="#ffffff" d="m393.47992 408.9023l0 5.421875l-1.828125 0l0 -5.421875l-4.984375 -8.1875l1.609375 0q0.25 0 0.390625 0.125q0.140625 0.125 0.25 0.296875l3.109375 5.296875q0.203125 0.328125 0.328125 0.625q0.125 0.296875 0.234375 0.578125q0.09375 -0.296875 0.21875 -0.59375q0.125 -0.296875 0.3125 -0.609375l3.109375 -5.296875q0.09375 -0.15625 0.234375 -0.28125q0.140625 -0.140625 0.390625 -0.140625l1.625 0l-5.0 8.1875z" fill-rule="nonzero"></path><path fill="#000000" fill-opacity="0.0" d="m238.12599 196.93176l44.976364 0l0 36.944885l-44.976364 0z" fill-rule="nonzero"></path><path fill="#ffffff" d="m265.93405 208.71483l0 0.6875q0 0.3125 -0.203125 0.59375l-7.703125 10.828125l7.765625 0l0 1.5l-10.1875 0l0 -0.71875q0 -0.28125 0.1875 -0.546875l7.71875 -10.84375l-7.546875 0l0 -1.5l9.96875 0z" fill-rule="nonzero"></path><path fill="#000000" fill-opacity="0.0" d="m238.12599 52.93176l71.999985 0l0 36.94488l-71.999985 0z" fill-rule="nonzero"></path><path fill="#ffffff" d="m255.19672 64.71482q0.234375 0 0.359375 0.0625q0.125 0.0625 0.265625 0.25l7.890625 10.25q-0.03125 -0.234375 -0.046875 -0.46875q0 -0.234375 0 -0.453125l0 -9.640625l1.609375 0l0 13.609375l-0.921875 0q-0.21875 0 -0.375 -0.078125q-0.140625 -0.078125 -0.28125 -0.25l-7.875 -10.25q0.015625 0.234375 0.015625 0.46875q0.015625 0.21875 0.015625 0.40625l0 9.703125l-1.609375 0l0 -13.609375l0.953125 0l0 0zm16.776001 3.828125q1.0625 0 1.90625 0.359375q0.84375 0.34375 1.4375 1.0q0.59375 0.640625 0.90625 1.5625q0.328125 0.90625 0.328125 2.046875q0 1.140625 -0.328125 2.046875q-0.3125 0.90625 -0.90625 1.5625q-0.59375 0.640625 -1.4375 1.0q-0.84375 0.34375 -1.90625 0.34375q-1.046875 0 -1.90625 -0.34375q-0.84375 -0.359375 -1.453125 -1.0q-0.59375 -0.65625 -0.921875 -1.5625q-0.3125 -0.90625 -0.3125 -2.046875q0 -1.140625 0.3125 -2.046875q0.328125 -0.921875 0.921875 -1.5625q0.609375 -0.65625 1.453125 -1.0q0.859375 -0.359375 1.90625 -0.359375zm0 8.59375q1.421875 0 2.125 -0.953125q0.703125 -0.953125 0.703125 -2.671875q0 -1.71875 -0.703125 -2.671875q-0.703125 -0.96875 -2.125 -0.96875q-0.71875 0 -1.25 0.25q-0.53125 0.25 -0.890625 0.71875q-0.359375 0.46875 -0.53125 1.15625q-0.171875 0.671875 -0.171875 1.515625q0 0.859375 0.171875 1.53125q0.171875 0.671875 0.53125 1.140625q0.359375 0.453125 0.890625 0.703125q0.53125 0.25 1.25 0.25zm9.388489 1.34375q-1.140625 0 -1.75 -0.640625q-0.609375 -0.640625 -0.609375 -1.828125l0 -5.890625l-1.15625 0q-0.15625 0 -0.265625 -0.09375q-0.09375 -0.09375 -0.09375 -0.28125l0 -0.671875l1.578125 -0.203125l0.390625 -2.96875q0.015625 -0.140625 0.109375 -0.234375q0.109375 -0.09375 0.28125 -0.09375l0.84375 0l0 3.3125l2.765625 0l0 1.234375l-2.765625 0l0 5.765625q0 0.609375 0.296875 0.90625q0.296875 0.296875 0.765625 0.296875q0.265625 0 0.453125 -0.0625q0.203125 -0.078125 0.34375 -0.15625q0.140625 -0.09375 0.234375 -0.15625q0.109375 -0.078125 0.1875 -0.078125q0.125 0 0.234375 0.15625l0.484375 0.8125q-0.4375 0.40625 -1.0625 0.640625q-0.609375 0.234375 -1.265625 0.234375zm13.802551 -13.765625l0 0.6875q0 0.3125 -0.203125 0.59375l-7.703125 10.828125l7.765625 0l0 1.5l-10.1875 0l0 -0.71875q0 -0.28125 0.1875 -0.546875l7.71875 -10.84375l-7.546875 0l0 -1.5l9.96875 0z" fill-rule="nonzero"></path></g></svg>

